<svg width="522" height="410" viewBox="0 0 522 410" fill="none" xmlns="http://www.w3.org/2000/svg">
<path d="M462.959 178.136C462.661 178.991 462.349 179.846 462.023 180.687C453.081 204.949 439.606 228.873 421.898 250.516C421.22 251.344 420.541 252.172 419.849 252.999C419.618 253.27 419.387 253.542 419.157 253.813C401.924 274.154 381.176 289.786 358.324 300.764C358.324 300.764 358.324 300.764 358.311 300.764C357.252 301.28 356.181 301.782 355.108 302.27C319.746 318.459 279.634 323.683 239.983 318.201C239.074 318.079 238.151 317.943 237.228 317.794C219.723 315.161 202.341 310.426 185.528 303.627C184.537 303.22 183.56 302.826 182.583 302.406C158.402 292.242 135.469 277.764 115.128 259.024C114.151 258.142 113.188 257.233 112.224 256.31C111.356 255.496 110.487 254.654 109.632 253.813C94.1904 238.656 82.0184 222.277 72.6964 205.451C71.8284 203.904 71.0004 202.344 70.1864 200.783C64.8124 190.456 60.4974 179.981 57.1324 169.546C56.5494 167.701 55.9784 165.855 55.4494 164.023C34.7424 92.5252 58.6924 24.1202 98.2614 15.9102C111.26 13.2102 124.64 15.1372 138.101 19.6692C138.97 19.9542 139.838 20.2662 140.706 20.5782C158.211 26.8882 175.811 37.3912 192.8 47.6632C193.587 48.1382 194.387 48.6272 195.175 49.1012C219.6 63.8652 242.696 77.7062 262.385 77.3532C262.996 77.3532 263.593 77.3262 264.203 77.2852C264.556 77.2582 264.895 77.2312 265.248 77.1902C286.159 75.2632 305.984 55.0172 326.651 35.7482C328.089 34.4052 329.528 33.0752 330.966 31.7592C343.952 19.8582 357.318 8.86721 371.526 3.48021H371.539C373.195 2.85621 374.864 2.29921 376.546 1.82521C385.258 -0.603793 394.295 -0.779794 403.767 2.34121C417.527 6.87321 429.224 13.5772 438.899 22.0042C439.632 22.6422 440.365 23.2932 441.07 23.9712C453.595 35.5462 462.565 50.1742 468.128 66.7152V66.7292C468.454 67.7062 468.779 68.6702 469.078 69.6602C472.525 80.8412 474.465 92.8502 474.94 105.375C474.981 106.243 475.008 107.098 475.021 107.967C475.525 130.411 471.413 154.402 462.959 178.136Z" fill="#E6F5FC"/>
<path d="M195.176 49.1021C188.907 65.4671 174.618 82.2931 152.472 99.3911C95.8186 143.126 74.3785 170.129 72.6955 205.451C71.8275 203.904 70.9995 202.344 70.1855 200.783C70.7825 194.704 72.0305 188.855 73.9845 183.02C82.4515 157.685 104.707 132.826 150.803 97.2461C172.786 80.2711 186.844 63.6751 192.801 47.6631C193.588 48.1381 194.389 48.6271 195.176 49.1021Z" fill="white"/>
<path d="M140.707 20.5794C137.979 36.3204 128.616 52.5634 112.713 69.0364C78.7072 104.303 62.9532 138.282 57.1322 169.546C56.5492 167.701 55.9782 165.855 55.4492 164.023C62.0572 133.722 78.1102 101.033 110.759 67.1494C126.418 50.9064 135.564 34.9894 138.102 19.6694C138.97 19.9544 139.839 20.2674 140.707 20.5794Z" fill="white"/>
<path d="M462.959 178.136C462.661 178.991 462.349 179.846 462.023 180.687C460.517 180.198 458.957 179.791 457.341 179.479C441.261 176.385 423.62 183.306 404.881 200.037C357.631 242.211 343.533 239.077 275.834 224.028C258.004 220.066 235.817 215.14 208.339 210.024C166.965 202.317 138.917 206.971 124.994 223.879C116.689 233.961 114.654 247.097 115.129 259.024C114.152 258.142 113.189 257.233 112.225 256.31C112.184 244.681 114.667 232.156 122.891 222.169C137.492 204.433 166.395 199.453 208.828 207.351C236.361 212.48 258.574 217.42 276.432 221.382C344.579 236.526 356.859 239.253 403.077 198.001C422.495 180.673 440.923 173.562 457.871 176.819C459.635 177.159 461.331 177.606 462.959 178.136Z" fill="white"/>
<path d="M421.898 250.516C421.22 251.344 420.541 252.172 419.849 252.999C417.447 245.264 413.675 237.828 407.772 235.223C402.466 232.889 395.899 234.857 388.259 241.071C355.597 267.654 331.063 262.918 258.262 248.86C253.703 247.992 248.953 247.069 244 246.119C221.298 241.777 204.865 245.047 195.163 255.862C183.914 268.387 183.71 288.728 185.529 303.627C184.538 303.22 183.561 302.826 182.584 302.406C180.874 287.167 181.498 267.003 193.141 254.044C203.535 242.483 220.809 238.914 244.516 243.46C249.469 244.41 254.218 245.319 258.764 246.201C332.583 260.449 354.864 264.751 386.549 238.968C395.044 232.047 402.548 229.958 408.871 232.74C415.181 235.522 419.266 242.781 421.898 250.516Z" fill="white"/>
<path d="M358.31 300.764C357.251 301.28 356.18 301.782 355.107 302.27C332.242 291.184 295.251 275.484 270.229 276.203C261.666 276.434 254.814 279.555 249.834 285.457C242.425 294.25 240.335 307.711 239.982 318.2C239.073 318.078 238.15 317.942 237.227 317.793C237.607 306.951 239.86 293.083 247.757 283.72C253.253 277.193 260.784 273.746 270.147 273.488C296.826 272.729 335.513 289.515 358.31 300.764Z" fill="white"/>
<path d="M475.022 107.967C452.008 105.036 425.547 116.339 396.834 128.606C370.36 139.923 342.99 151.62 315.674 152.841C314.833 152.882 313.991 152.895 313.164 152.895C299.934 152.895 289.091 148.064 280.909 138.498C268.601 124.141 263.676 100.978 262.387 77.3534C262.998 77.3534 263.595 77.3264 264.205 77.2854C264.558 77.2584 264.897 77.2314 265.25 77.1904C266.485 100.394 271.207 123.001 282.972 136.747C291.1 146.232 302.051 150.737 315.553 150.127C342.38 148.933 369.519 137.331 395.777 126.122C423.825 114.126 450.992 102.524 474.942 105.374C474.982 106.244 475.009 107.099 475.022 107.967Z" fill="white"/>
<path d="M469.079 69.6602C440.203 61.2062 403.687 67.3802 359.83 88.2502C341.552 96.9352 329.475 97.9662 322.92 91.3852C313.842 82.2532 317.94 60.2162 326.652 35.7502C328.09 34.4072 329.529 33.0772 330.967 31.7612C322.011 55.6982 315.918 80.4892 324.847 89.4732C330.41 95.0642 341.782 93.8152 358.662 85.7962C399.588 66.3372 434.775 59.5122 463.217 65.5372C464.872 65.8902 466.513 66.2832 468.128 66.7182V66.7322C468.455 67.7062 468.78 68.6692 469.079 69.6602Z" fill="white"/>
<path d="M441.07 23.9712C422.168 34.2302 399.832 44.0272 383.616 44.0272C377.048 44.0272 371.498 42.4262 367.577 38.5992C363.194 34.3252 361.254 29.2092 361.823 23.4152C362.474 16.7662 366.369 9.88617 371.525 3.48117H371.538C373.194 2.85717 374.863 2.30017 376.545 1.82617C370.276 8.80117 365.228 16.4952 364.523 23.6872C364.034 28.6942 365.649 32.9282 369.476 36.6602C372.896 39.9982 377.821 41.4232 383.697 41.4232C398.868 41.4232 420.376 31.9922 438.898 22.0052C439.632 22.6412 440.365 23.2932 441.07 23.9712Z" fill="white"/>
<path d="M521.174 358.7C521.174 351.704 482.727 346.032 435.301 346.032C409.28 346.032 385.98 347.742 370.232 350.438C337.022 348.627 297.73 347.579 255.609 347.579C136.476 347.579 39.9004 355.958 39.9004 366.294C39.9004 373.942 92.7814 380.517 168.543 383.42C164.106 384.949 161.642 386.632 161.642 388.401C161.642 395.397 200.089 401.069 247.515 401.069C294.941 401.069 333.388 395.397 333.388 388.401C333.388 386.827 331.428 385.321 327.872 383.931C396.43 381.816 449.022 376.78 465.718 370.547C498.126 368.736 521.174 364.116 521.174 358.7Z" fill="#C6E7F7"/>
<path d="M202.465 371.886C245.584 371.886 280.539 367.309 280.539 361.663C280.539 356.017 245.584 351.44 202.465 351.44C159.346 351.44 124.391 356.017 124.391 361.663C124.391 367.309 159.346 371.886 202.465 371.886Z" fill="#A6D5E8"/>
<path d="M378.161 368.274C412.702 368.274 440.703 364.506 440.703 359.857C440.703 355.208 412.702 351.44 378.161 351.44C343.62 351.44 315.619 355.208 315.619 359.857C315.619 364.506 343.62 368.274 378.161 368.274Z" fill="#A6D5E8"/>
<path d="M389.504 394.395C389.504 396.831 381.467 398.805 371.553 398.805C361.639 398.805 353.602 396.83 353.602 394.395C353.602 391.959 361.639 389.985 371.553 389.985C381.467 389.985 389.504 391.959 389.504 394.395Z" fill="#C6E7F7"/>
<path d="M403.979 389.985C408.757 389.985 412.63 388.922 412.63 387.61C412.63 386.298 408.757 385.235 403.979 385.235C399.201 385.235 395.328 386.298 395.328 387.61C395.328 388.922 399.201 389.985 403.979 389.985Z" fill="#C6E7F7"/>
<path d="M114.675 392.698C119.054 392.698 122.604 391.559 122.604 390.154C122.604 388.749 119.054 387.61 114.675 387.61C110.296 387.61 106.746 388.749 106.746 390.154C106.746 391.559 110.296 392.698 114.675 392.698Z" fill="#C6E7F7"/>
<path d="M181.44 406.268C181.44 408.329 174.187 410 165.24 410C156.293 410 149.039 408.329 149.039 406.268C149.039 404.207 156.292 402.536 165.24 402.536C174.187 402.537 181.44 404.207 181.44 406.268Z" fill="#C6E7F7"/>
<path d="M27.194 366.229C27.194 369.353 21.106 371.885 13.597 371.885C6.08799 371.885 0 369.353 0 366.229C0 363.105 6.08799 360.573 13.597 360.573C21.106 360.572 27.194 363.105 27.194 366.229Z" fill="#C6E7F7"/>
<path d="M457.07 359.857C457.07 359.857 452.66 355.722 456.222 352.838C459.784 349.955 463.346 354.874 463.346 354.874C463.346 354.874 456.901 344.357 460.632 341.813C464.364 339.269 473.523 353.517 473.523 353.517C473.523 353.517 474.965 342.068 480.986 351.441C480.986 351.441 484.378 337.064 487.94 337.912C491.502 338.76 489.636 352.499 489.636 352.499C489.636 352.499 493.877 345.375 498.287 353.008C498.287 353.008 500.662 345.164 503.206 346.033C505.75 346.902 502.867 359.454 502.867 359.454L457.07 359.857Z" fill="#70B2DD"/>
<path d="M78.4763 366.229H58.8003C58.8003 366.229 47.2663 354.961 50.2063 351.44C53.1463 347.919 62.4193 357.644 62.4193 357.644C62.4193 357.644 60.3843 350.181 62.6453 349.502C64.9073 348.824 70.1083 356.965 70.1083 356.965C70.1083 356.965 71.2393 340.338 75.3103 341.188C79.3813 342.038 77.5723 360.572 77.5723 360.572C77.5723 360.572 89.1063 353.78 85.7143 366.228H78.4763V366.229Z" fill="#70B2DD"/>
<path d="M251.828 389.985H271.504C271.504 389.985 279.307 375.497 275.575 371.885C271.843 368.273 264.207 385.235 264.207 385.235C264.207 385.235 264.041 367.595 251.828 389.985Z" fill="#70B2DD"/>
<path d="M228.988 340.342L215.758 328.663L231.702 322.814L239.278 334.009C239.278 334.009 239.844 351.311 228.988 340.342Z" fill="#FEB19E"/>
<path d="M239.277 324.511L234.758 327.836L233.645 328.664L221.297 337.742C187.034 318.405 149.039 267.18 149.039 267.18L183.642 244.79C196.872 283.463 239.277 324.511 239.277 324.511Z" fill="#2256B2"/>
<path d="M234.758 327.836L233.645 328.664C198.608 297.264 172.812 254.072 172.541 253.61L173.708 252.932C173.98 253.366 199.79 296.558 234.758 327.836Z" fill="#3471EA"/>
<path d="M237.976 330.731C236.659 331.484 237.702 336.724 234.758 338.42C231.814 340.116 227.969 337.346 226.386 337.459C224.803 337.572 223.446 346.675 220.619 348.824C218.774 350.226 214.14 352.519 211.205 353.856C209.642 354.568 208.308 356.516 208.63 357.147C210.328 360.471 225.481 357.531 229.665 356.853C233.849 356.175 236.789 349.842 239.955 349.164C243.121 348.486 246.401 346.676 247.418 344.98C248.436 343.283 241.142 328.921 237.976 330.731Z" fill="#23406D"/>
<path d="M149.04 339.619C149.04 339.619 156.503 347.749 156.843 352.498C157.182 357.247 146.496 359.283 143.782 362.166C141.068 365.05 130.721 370.647 122.24 371.834C113.759 373.021 134.178 352.607 134.569 346.276L149.04 339.619Z" fill="#23406D"/>
<path d="M136.695 345.299L139.766 343.961C139.766 343.961 143.611 346.336 145.985 345.657C148.359 344.978 148.196 340.006 148.196 340.006C148.196 340.006 136.791 339.287 136.695 345.299Z" fill="#FEB19E"/>
<path d="M184.999 249.2C171.525 269.894 124.384 276 124.384 276L151.645 338.42L146.869 340.618L145.634 341.188L131.739 347.579C131.739 347.579 87.2994 288.551 93.7444 267.179C100.19 245.807 135.294 234.72 135.294 234.72L172.991 216.455L174.212 215.858L185 210.634C185 210.634 194.565 234.517 184.999 249.2Z" fill="#3471EA"/>
<path d="M175.473 241.899C169.38 254.614 152.622 262.837 125.673 266.351C123.176 266.677 121.032 268.115 119.784 270.313C118.549 272.498 118.413 275.076 119.418 277.369L146.87 340.617L145.635 341.187L118.17 277.912C117.003 275.212 117.152 272.199 118.604 269.635C120.07 267.07 122.58 265.388 125.497 265.008C151.958 261.561 168.363 253.596 174.253 241.315C179.437 230.486 174.565 219.495 172.991 216.455C172.72 215.939 172.557 215.641 172.543 215.627L173.71 214.921C173.724 214.935 173.914 215.26 174.212 215.857C175.893 219.143 180.901 230.596 175.473 241.899Z" fill="#5E96EF"/>
<path d="M120.284 88.5765C118.683 92.7695 118.154 97.3015 118.886 101.739L119.931 108.144L114.802 110.478L106.687 114.169L102.318 108.89C99.5234 105.498 95.8594 102.933 91.7474 101.386C90.4444 100.897 89.1824 100.287 87.9884 99.5545C84.3384 97.3425 81.2984 94.0315 79.3854 89.8655C74.2694 78.7245 79.2094 65.4675 90.3774 60.3925C91.2324 59.9985 92.0874 59.6735 92.9554 59.4155C92.9694 59.4155 92.9694 59.4015 92.9824 59.4015C93.0094 59.3875 93.0364 59.3745 93.0644 59.3745C95.9274 58.4925 98.8584 58.2345 101.708 58.5065C109.348 59.2525 116.377 63.9475 119.783 71.4245C122.347 77.0555 122.347 83.2165 120.284 88.5765Z" fill="#F4D242"/>
<path d="M97.0532 87.2783C95.6022 87.9383 94.9592 89.6553 95.6182 91.1063C96.2782 92.5573 97.9952 93.2003 99.4462 92.5413C100.007 92.2863 100.446 91.8733 100.737 91.3793L110.345 112.509L111.469 111.998L100.882 88.7133C100.221 87.2623 98.5042 86.6183 97.0532 87.2783ZM98.9352 91.4173C98.1042 91.7953 97.1202 91.4263 96.7422 90.5953C96.3642 89.7643 96.7332 88.7803 97.5642 88.4023C98.3952 88.0243 99.3792 88.3933 99.7572 89.2243C100.135 90.0553 99.7662 91.0393 98.9352 91.4173Z" fill="white"/>
<path d="M105.92 86.0112C104.469 86.6712 103.826 88.3882 104.485 89.8392L113.904 110.89L115.028 110.379L106.589 91.4832C107.153 91.5892 107.753 91.5292 108.313 91.2742C109.764 90.6142 110.408 88.8972 109.748 87.4462C109.088 85.9952 107.371 85.3512 105.92 86.0112ZM107.802 90.1502C106.971 90.5282 105.987 90.1592 105.609 89.3282C105.231 88.4972 105.6 87.5132 106.431 87.1352C107.262 86.7572 108.246 87.1262 108.624 87.9572C109.003 88.7882 108.634 89.7722 107.802 90.1502Z" fill="white"/>
<path d="M75.1811 90.6182L68.7671 93.5352C68.5101 93.6522 68.2071 93.5382 68.0901 93.2812L67.585 92.1722C67.468 91.9152 67.5821 91.6122 67.8391 91.4952L74.253 88.5782C74.51 88.4612 74.8131 88.5752 74.9301 88.8322L75.4351 89.9412C75.5521 90.1982 75.4381 90.5012 75.1811 90.6182Z" fill="#F4D242"/>
<path d="M72.5432 80.6715L65.5072 80.2885C65.2252 80.2735 65.0092 80.0325 65.0242 79.7505L65.0902 78.5335C65.1052 78.2515 65.3462 78.0355 65.6282 78.0505L72.6642 78.4335C72.9462 78.4485 73.1622 78.6895 73.1472 78.9715L73.0812 80.1885C73.0662 80.4705 72.8252 80.6865 72.5432 80.6715Z" fill="#F4D242"/>
<path d="M80.2979 96.8236L75.9619 102.378C75.7879 102.601 75.8279 102.922 76.0499 103.096L77.0109 103.846C77.2339 104.02 77.5549 103.98 77.7289 103.758L82.0649 98.2036C82.2389 97.9806 82.1989 97.6596 81.9769 97.4856L81.0159 96.7356C80.7929 96.5616 80.4709 96.6006 80.2979 96.8236Z" fill="#F4D242"/>
<path d="M74.6523 70.3834L68.0543 67.9104C67.7903 67.8114 67.6563 67.5164 67.7553 67.2524L68.1833 66.1114C68.2823 65.8474 68.5773 65.7134 68.8413 65.8124L75.4393 68.2854C75.7043 68.3844 75.8373 68.6794 75.7383 68.9434L75.3103 70.0844C75.2113 70.3494 74.9163 70.4824 74.6523 70.3834Z" fill="#F4D242"/>
<path d="M78.7299 62.6606L73.7799 57.6466C73.5819 57.4456 73.584 57.1215 73.785 56.9235L74.6519 56.0675C74.8529 55.8695 75.1769 55.8715 75.3749 56.0725L80.3249 61.0865C80.5229 61.2875 80.5209 61.6115 80.3199 61.8095L79.453 62.6655C79.252 62.8645 78.9289 62.8626 78.7299 62.6606Z" fill="#F4D242"/>
<path d="M123.038 68.0377L129.452 65.1207C129.709 65.0037 129.823 64.7007 129.706 64.4437L129.202 63.3347C129.085 63.0777 128.782 62.9637 128.525 63.0807L122.111 65.9977C121.854 66.1147 121.74 66.4177 121.857 66.6747L122.361 67.7837C122.478 68.0407 122.781 68.1547 123.038 68.0377Z" fill="#F4D242"/>
<path d="M117.276 59.5112L121.612 53.9572C121.786 53.7342 121.746 53.4132 121.524 53.2392L120.563 52.4892C120.34 52.3152 120.019 52.3552 119.845 52.5772L115.509 58.1312C115.335 58.3542 115.375 58.6752 115.597 58.8492L116.558 59.5992C116.781 59.7732 117.102 59.7342 117.276 59.5112Z" fill="#F4D242"/>
<path d="M124.349 75.9724L131.385 76.3554C131.667 76.3704 131.883 76.6114 131.868 76.8934L131.802 78.1104C131.787 78.3924 131.546 78.6084 131.264 78.5934L124.228 78.2104C123.946 78.1954 123.73 77.9534 123.745 77.6724L123.811 76.4554C123.826 76.1734 124.067 75.9574 124.349 75.9724Z" fill="#F4D242"/>
<path d="M108.135 54.3397L110.608 47.7417C110.707 47.4777 110.573 47.1827 110.309 47.0837L109.168 46.6557C108.904 46.5567 108.609 46.6907 108.51 46.9547L106.037 53.5527C105.938 53.8167 106.072 54.1117 106.336 54.2107L107.477 54.6387C107.741 54.7377 108.036 54.6037 108.135 54.3397Z" fill="#F4D242"/>
<path d="M99.6364 52.3344L99.1114 45.3074C99.0904 45.0254 98.8454 44.8144 98.5634 44.8354L97.3484 44.9264C97.0664 44.9474 96.8554 45.1924 96.8764 45.4744L97.4014 52.5014C97.4224 52.7834 97.6674 52.9944 97.9494 52.9734L99.1644 52.8824C99.4464 52.8614 99.6574 52.6154 99.6364 52.3344Z" fill="#F4D242"/>
<path d="M87.2052 56.1302L84.2882 49.7162C84.1712 49.4592 84.2852 49.1562 84.5422 49.0392L85.6512 48.5352C85.9082 48.4182 86.2112 48.5322 86.3282 48.7892L89.2452 55.2032C89.3622 55.4602 89.2482 55.7632 88.9912 55.8802L87.8822 56.3852C87.6252 56.5012 87.3212 56.3872 87.2052 56.1302Z" fill="#F4D242"/>
<path opacity="0.24" d="M120.286 88.5764C118.685 92.7694 118.156 97.3013 118.888 101.739L119.933 108.144L114.804 110.478L113.026 106.326C110.163 99.6774 109.322 92.3223 110.624 85.1983C113.324 70.3663 107.462 62.5233 101.709 58.5063C109.349 59.2523 116.378 63.9474 119.784 71.4244C122.349 77.0554 122.349 83.2164 120.286 88.5764Z" fill="#F6613A"/>
<path d="M81.8684 83.5425C82.9814 91.3315 85.4504 96.3525 87.9884 99.5545C84.3384 97.3425 81.2984 94.0315 79.3854 89.8655C74.2694 78.7245 79.2094 65.4675 90.3774 60.3925C91.2324 59.9985 92.0874 59.6735 92.9554 59.4155C91.5574 59.9985 79.3044 65.6305 81.8684 83.5425Z" fill="#FCE47E"/>
<path d="M120.55 117.027L113.046 120.439C111.307 121.23 109.256 120.46 108.466 118.721L106.027 113.359L119.828 107.083L122.267 112.447C123.057 114.186 122.289 116.236 120.55 117.027Z" fill="#383838"/>
<path d="M121.61 110.135L107.115 116.726C106.981 116.787 106.823 116.728 106.762 116.594L106.499 116.016C106.438 115.882 106.497 115.724 106.631 115.663L121.126 109.072C121.26 109.011 121.418 109.07 121.479 109.204L121.742 109.782C121.803 109.916 121.744 110.074 121.61 110.135Z" fill="#838689"/>
<path d="M122.738 112.335L108.242 118.926C108.108 118.987 107.951 118.928 107.89 118.794L107.628 118.218C107.567 118.084 107.626 117.927 107.76 117.866L122.256 111.275C122.39 111.214 122.547 111.273 122.608 111.407L122.87 111.983C122.93 112.117 122.871 112.274 122.738 112.335Z" fill="#838689"/>
<path d="M208.297 195.939L194.347 199.019L191.348 190.497L189.733 185.924L181.863 163.575L173.328 159.653L170.085 158.16L168.43 157.4L168.416 157.386L166.679 156.585L166.706 156.789L168.823 169.205L170.75 180.563L171.524 182.191L172.257 183.738L176.504 192.694L180.67 201.514L184.999 210.633C170.982 229.63 132.078 235.968 132.078 234.841C132.078 234.502 130.327 230.349 127.871 224.677C126.311 221.067 124.465 216.861 122.606 212.627C120.991 208.963 119.376 205.299 117.911 202.002C117.192 200.401 116.513 198.881 115.903 197.497C115.876 197.429 115.849 197.361 115.821 197.294C113.786 192.707 112.401 189.6 112.401 189.6C112.401 189.6 112.048 191.975 110.23 194.987C107.435 199.614 101.152 205.707 87.2974 206.806C64.4594 208.624 40.4824 166.531 40.4824 166.531L55.4094 156.137C64.7184 166.871 74.7874 175.786 85.9414 182.136C88.4514 174.13 91.2744 162.514 97.1094 151.482C102.306 141.644 109.892 132.254 121.779 126.283C139.135 117.544 156.585 118.806 171.295 125.55C171.308 125.564 171.322 125.564 171.322 125.564L171.363 125.578C177.972 128.604 184.037 132.756 189.302 137.587C206.261 153.195 208.297 195.939 208.297 195.939Z" fill="#DFEBEF"/>
<path d="M171.523 182.193C152.349 195.138 128.236 200.281 117.909 202.005C117.19 200.404 116.511 198.884 115.901 197.5C115.874 197.432 115.847 197.364 115.819 197.297C113.784 192.71 112.399 189.603 112.399 189.603C112.399 189.603 112.046 191.978 110.228 194.99L108.328 189.386C139.687 185.342 159.526 175.151 168.821 169.208L170.748 180.566L171.523 182.193Z" fill="#4D6DEE"/>
<path d="M176.503 192.696L180.669 201.516C162.974 215.194 138.359 222.182 127.869 224.679C126.309 221.069 124.463 216.863 122.604 212.629C151.128 210.431 169.786 197.961 176.503 192.696Z" fill="#4D6DEE"/>
<path d="M191.347 190.498L181.863 163.576L173.327 159.654L169.84 149.355C147.451 171.962 102.222 175.816 102.222 175.816L99.5625 162.694C145.768 157.714 155.592 142.584 155.592 142.584V139.395L183.191 151.486C183.191 151.486 203.234 171.269 191.347 190.498Z" fill="#4D6DEE"/>
<path opacity="0.38" d="M189.733 185.925L181.863 163.576L173.328 159.654L170.085 158.161L168.43 157.401L168.416 157.387L166.679 156.586L166.706 156.79L168.823 169.206L170.75 180.564L171.524 182.192L172.257 183.739C154.386 170.984 151.645 142.582 151.645 142.582L181.932 149.123C181.932 149.123 194.415 176.806 189.733 185.925Z" fill="#4D6DEE"/>
<path d="M142.01 130.059C141.44 133.234 137.166 137.305 131.168 140.033C125.184 142.747 119.335 143.303 116.54 141.661C115.889 141.295 115.414 140.793 115.129 140.182C113.65 136.912 118.413 131.552 125.781 128.2C133.149 124.848 140.328 124.781 141.82 128.051C142.091 128.661 142.159 129.339 142.01 130.059Z" fill="#CAD9DD"/>
<path d="M142.009 130.059C141.439 133.234 137.165 137.305 131.167 140.033C125.183 142.747 119.334 143.303 116.539 141.661C117.109 138.486 121.383 134.428 127.381 131.701C133.365 128.973 139.227 128.417 142.009 130.059Z" fill="#AAB7BA"/>
<path d="M43.4304 165.143L41.6014 163.218C41.6014 163.218 29.8194 159.704 27.1934 151.191L36.3514 138.603C36.3514 138.603 43.0114 140.233 46.7144 145.613C50.4174 150.993 52.6084 161.472 52.6084 161.472L43.4304 165.143Z" fill="#F29181"/>
<path d="M53.8642 158.909L52.6082 157.139C52.6082 157.139 53.4912 149.78 51.2562 145.961C49.0202 142.142 43.8972 142.887 42.4062 147.265C40.9162 151.643 40.8222 156.301 48.1352 148.756C48.1352 148.756 40.1702 157.978 46.6912 164.312L53.8642 158.909Z" fill="#FEB19E"/>
<path d="M40.3918 142.223C41.9638 144.404 41.1948 147.358 37.0968 146.706C37.0968 146.706 40.1708 151.736 34.3018 150.712C34.3018 150.712 36.7238 154.624 34.8608 155.276C32.9978 155.928 25.2658 152.761 27.5018 150.805C29.7378 148.849 26.5698 144.655 30.2028 143.491C33.8358 142.328 33.3268 137.099 36.3508 138.602C38.0128 139.428 39.5978 141.121 40.3918 142.223Z" fill="#FEB19E"/>
<path d="M115.821 197.296C113.786 192.709 112.401 189.602 112.401 189.602C112.401 189.602 111.506 195.695 105.141 200.675C101.843 203.24 97.1084 205.506 90.2694 206.469C89.9164 206.523 89.5634 206.578 89.1974 206.618C88.5864 206.699 87.9494 206.754 87.2974 206.808C83.9724 207.066 80.6344 206.414 77.3504 205.071C72.8324 203.266 68.4214 200.199 64.3104 196.563C60.4434 193.144 56.8334 189.222 53.6584 185.368C50.3344 181.338 47.4844 177.389 45.2994 174.146C42.2594 169.641 40.4824 166.533 40.4824 166.533L55.4094 156.139C56.7934 157.727 58.1914 159.274 59.6024 160.78C61.5024 162.815 63.4424 164.769 65.4234 166.642C67.6764 168.8 69.9824 170.835 72.3444 172.762C75.2484 175.123 78.2334 177.321 81.3004 179.302C82.8334 180.306 84.3674 181.243 85.9414 182.138C86.4844 180.415 87.0274 178.529 87.6244 176.52C88.8054 172.558 90.1354 168.12 91.8174 163.507C93.2694 159.558 94.9924 155.474 97.1094 151.484C97.5844 152.787 98.1684 154.334 98.8604 156.138C98.8604 156.138 98.9694 156.409 99.1594 156.925C102.414 165.475 107.869 179.18 115.821 197.296Z" fill="#CAD9DD"/>
<path d="M45.2994 174.146C42.2594 169.641 40.4824 166.533 40.4824 166.533L55.4094 156.139C56.7934 157.727 58.1914 159.274 59.6024 160.78C55.3004 166.981 49.5874 171.405 45.2994 174.146Z" fill="#3C61D6"/>
<path d="M72.3452 172.763C71.4492 181.909 67.0941 191.34 64.3121 196.564C60.4451 193.145 56.8352 189.223 53.6602 185.369C61.1502 179.018 64.2042 171.745 65.4252 166.643C67.6772 168.801 69.9832 170.836 72.3452 172.763Z" fill="#3C61D6"/>
<path d="M89.1966 206.619C88.5856 206.7 87.9486 206.755 87.2966 206.809C83.9716 207.067 80.6336 206.415 77.3496 205.072C81.2576 197.636 81.6646 187.051 81.2986 179.303C82.8316 180.307 84.3656 181.244 85.9396 182.139C86.4826 180.416 87.0256 178.53 87.6226 176.521C90.9066 186.767 90.0376 199.617 89.1966 206.619Z" fill="#3C61D6"/>
<path d="M115.821 197.296C113.786 192.709 112.401 189.602 112.401 189.602C112.401 189.602 111.506 195.695 105.141 200.675C104.096 187.743 96.4024 171.921 91.8164 163.508C93.2684 159.559 94.9914 155.475 97.1084 151.485C99.8494 158.907 105.888 174.648 115.821 197.296Z" fill="#3C61D6"/>
<path opacity="0.38" d="M115.822 197.296C113.787 192.709 112.402 189.602 112.402 189.602C112.402 189.602 111.507 195.695 105.142 200.675C101.844 203.24 97.1085 205.506 90.2695 206.469C111.276 194.053 101.085 162.354 99.1575 156.926C102.415 165.475 107.87 179.18 115.822 197.296Z" fill="#4D6DEE"/>
<path d="M196.341 198.579C196.341 198.579 193.647 207.92 195.117 210.634C196.587 213.348 199.54 210.501 199.54 210.501C199.54 210.501 200.378 215.388 202.866 215.727C205.354 216.066 215.305 215.84 215.305 209.96C215.305 204.08 207.417 196.133 207.417 196.133L196.341 198.579Z" fill="#FEB19E"/>
<path d="M208.299 195.939L194.349 199.019L191.282 190.334L187.971 180.917L184.606 171.364L181.933 163.765L181.865 163.575L174.388 160.142L170.087 158.161C169.544 157.835 168.988 157.578 168.432 157.401L168.418 157.387C167.834 157.197 167.264 156.994 166.708 156.79C165.446 156.315 164.252 155.786 163.139 155.202C150.356 148.634 146.91 136.286 153.342 129.447C158.607 123.843 165.745 124.345 169.232 125.023C170.385 125.254 171.132 125.498 171.295 125.552C171.308 125.566 171.322 125.566 171.322 125.566L171.363 125.58C174.104 126.842 176.764 128.294 179.301 129.922C182.87 132.175 186.222 134.766 189.302 137.589C191.215 139.339 192.939 141.443 194.486 143.79C196.956 147.535 198.991 151.905 200.674 156.491C202.791 162.258 204.324 168.364 205.451 174.009C206.36 178.596 206.984 182.87 207.418 186.412C208.122 192.139 208.299 195.939 208.299 195.939Z" fill="#DFEBEF"/>
<path d="M171.362 125.58C174.103 126.842 176.763 128.294 179.3 129.922C179.354 142.447 176.165 154.442 174.388 160.142L170.087 158.161C169.544 157.835 168.988 157.578 168.432 157.401L168.418 157.387C167.834 157.197 167.264 156.994 166.708 156.79C165.446 156.315 164.252 155.786 163.139 155.202C169.734 142.541 169.964 131.469 169.232 125.023C170.385 125.254 171.132 125.498 171.295 125.552C171.308 125.566 171.322 125.566 171.322 125.566L171.362 125.58Z" fill="#4D6DEE"/>
<path d="M184.607 171.365L181.934 163.766C189.533 156.533 192.966 148.731 194.486 143.791C196.956 147.536 198.991 151.906 200.674 156.492C195.056 163.4 188.447 168.611 184.607 171.365Z" fill="#4D6DEE"/>
<path d="M207.418 186.413C201.922 188.489 195.531 189.643 191.284 190.335L187.973 180.918C196.916 179.276 202.452 176.196 205.451 174.011C206.359 178.597 206.983 182.872 207.418 186.413Z" fill="#4D6DEE"/>
<path d="M501.452 282.238C494.45 284.206 493.433 277.122 493.31 274.123C493.283 273.35 493.31 272.847 493.31 272.847C490.827 265.845 482.142 262.439 482.142 262.439L476.619 247.784C484.245 241.949 488.669 245.029 488.669 245.029C488.669 245.029 492.401 241.637 493.975 247.743C495.549 253.849 497.381 257.133 500.434 260.973C501.384 262.181 502.7 264.46 503.799 267.106C506.202 272.943 507.518 280.528 501.452 282.238Z" fill="#3B59E3"/>
<path d="M501.453 282.238C494.451 284.206 493.434 277.122 493.311 274.123C494.247 271.911 496.5 269.659 501.344 267.881C502.117 267.596 502.932 267.338 503.8 267.108C506.203 272.943 507.519 280.528 501.453 282.238Z" fill="#DFE8F7"/>
<path d="M480.674 258.321C480.674 258.321 483.812 256.031 483.473 252.384C483.134 248.737 477.451 249.331 477.451 249.331L480.674 258.321Z" fill="#FEB19E"/>
<path d="M389.504 276.132C389.504 276.132 403.413 303.95 419.018 304.289C434.623 304.628 483.474 265.955 483.474 265.955L475.671 245.261C475.671 245.261 450.906 251.706 428.856 269.008C428.856 269.008 427.564 232.948 432.79 218.92L389.504 276.132Z" fill="#1B3151"/>
<path d="M330.138 346.423C330.138 346.423 328.442 359.586 322.335 360.427C316.229 361.282 308.765 358.161 304.192 357.008C303.893 356.927 303.554 356.818 303.188 356.669C297.937 354.579 286.47 345.637 287.909 342.462C289.225 339.517 297.082 336.939 303.229 340.454C304.165 340.97 305.048 341.635 305.875 342.462C305.875 342.462 314.967 340.467 316.866 336.803L330.138 346.423Z" fill="#3B59E3"/>
<path d="M303.188 356.668C297.937 354.578 286.47 345.636 287.909 342.461C289.225 339.516 297.082 336.938 303.229 340.453C306.892 343.804 308.534 348.934 303.188 356.668Z" fill="#DFE8F7"/>
<path d="M434.867 219.034C434.867 219.034 434.285 253.742 380.346 287.327C380.346 287.327 373.561 317.52 332.852 348.39L315.551 335.838C315.551 335.838 354.768 279.185 359.246 269.007C363.723 258.83 377.632 235.761 377.632 235.761L434.867 219.034Z" fill="#23406D"/>
<path d="M318.135 337.714C318.135 337.714 312.95 341.606 317.473 343.981C321.996 346.356 328.243 345.047 328.243 345.047L318.135 337.714Z" fill="#FEB19E"/>
<path d="M283.91 157.612H279.322C279.322 157.612 272.354 149.232 268.461 148.814C264.567 148.396 260.576 148.5 259.395 149.337C258.215 150.173 259.957 152.263 259.957 152.263C259.957 152.263 256.678 152.054 256.473 153.831C256.268 155.608 264.055 155.228 266.207 157.612C268.359 159.997 270.818 166.372 270.818 166.372C270.818 166.372 267.949 171.075 266.31 171.179C264.671 171.284 260.675 173.374 262.416 174.628C264.158 175.882 270.101 174.523 272.662 173.478C275.224 172.433 279.322 169.611 279.322 169.611L283.144 169.586L283.91 157.612Z" fill="#FEB19E"/>
<path d="M365.523 136.709L321.318 155.606H283.775L282.418 176.395C282.418 176.395 349.814 181.37 362.479 167.348L365.523 136.709Z" fill="#3855E1"/>
<path d="M435.304 215.517C429.32 224.215 422.276 229.955 415.098 233.66C394.092 244.556 371.974 238.165 371.974 238.165C373.561 228.232 374.009 203.766 374.009 203.766C374.009 203.766 368.812 191.092 362.705 175.27C356.599 159.434 357.047 135.009 376.723 129.812C396.399 124.601 407.173 146.448 407.173 146.448L409.792 155.608L413.593 168.933C415.072 175.107 417.473 181.553 420.146 187.591C420.879 189.274 421.652 190.929 422.412 192.53C423.145 194.023 423.864 195.475 424.583 196.886L424.597 196.9C426.239 200.13 427.854 203.088 429.319 205.652C432.738 211.663 435.304 215.517 435.304 215.517Z" fill="url(#paint0_linear_49_1761)"/>
<path d="M420.146 187.59C389.533 179.123 387.402 156.814 387.402 156.814L409.792 155.606L413.592 168.931C415.071 175.106 417.473 181.551 420.146 187.59Z" fill="#3150BC"/>
<path d="M435.303 215.517C429.319 224.215 422.276 229.955 415.098 233.66C419.264 222.112 421.693 200.021 422.412 192.53C423.145 194.023 423.864 195.475 424.583 196.886L424.597 196.9C426.239 200.13 427.854 203.088 429.319 205.652C432.738 211.663 435.303 215.517 435.303 215.517Z" fill="#3150BC"/>
<path d="M384.145 135.103C384.145 137.328 381.743 140.87 377.971 143.855C374.47 146.623 370.779 148.143 368.527 147.926C367.781 147.872 367.197 147.614 366.831 147.139C365.352 145.266 367.93 140.748 372.598 137.057C377.252 133.366 382.246 131.901 383.725 133.773C384.009 134.126 384.145 134.574 384.145 135.103Z" fill="#3956E2"/>
<path d="M384.145 135.103C384.145 137.328 381.743 140.87 377.971 143.855C374.47 146.623 370.779 148.143 368.527 147.926C368.527 145.687 370.929 142.159 374.701 139.174C378.201 136.406 381.892 134.873 384.145 135.103Z" fill="#3150BC"/>
<path d="M427.697 218.678L428.13 221.459C428.13 221.459 424.34 223.793 422.192 227.793C420.044 231.793 423.576 234.797 425.713 232.836C425.713 232.836 423.791 237.616 425.585 239.958C427.379 242.3 431.558 239.382 431.558 239.382C431.558 239.382 434.373 239.761 437.26 237.276C440.147 234.791 442.357 228.583 439.058 223.414L438.357 218.106L427.697 218.678Z" fill="#FEB19E"/>
<path d="M426.198 219.423L440.106 218.8C440.106 218.8 450.455 179.11 434.866 163.279C419.514 147.688 395.046 134.104 387.271 151.425C383.296 160.28 401.22 172.633 420.145 178.431C423.656 189.426 425.33 203.705 426.198 219.423Z" fill="url(#paint1_linear_49_1761)"/>
<defs>
<linearGradient id="paint0_linear_49_1761" x1="411.327" y1="218.046" x2="328.1" y2="117.178" gradientUnits="userSpaceOnUse">
<stop stop-color="#3855E1"/>
<stop offset="1" stop-color="#5C7EF7"/>
</linearGradient>
<linearGradient id="paint1_linear_49_1761" x1="435.89" y1="197.779" x2="352.663" y2="96.9113" gradientUnits="userSpaceOnUse">
<stop stop-color="#3855E1"/>
<stop offset="1" stop-color="#5C7EF7"/>
</linearGradient>
</defs>
</svg>
