<svg width="628" height="628" viewBox="0 0 628 628" fill="none" xmlns="http://www.w3.org/2000/svg">
<path d="M0 0H628V628H0V0Z" fill="#FDFEFB"/>
<path d="M289.479 429.822L290.918 430.065C291.415 429.848 291.708 429.735 292.263 429.767L312.161 429.76C312.651 430.245 313.376 430.063 314.051 430.064C315.804 430.068 317.321 430.126 319.037 430.37C320.352 430.557 321.314 430.06 322.487 430.975C319.708 431.563 316.619 431.3 313.776 431.3C308.791 431.303 303.807 431.295 298.822 431.286C298.21 431.898 295.642 431.593 294.682 431.593C294.074 430.991 291.637 431.287 290.696 431.286C290.215 430.847 289.864 430.344 289.479 429.822Z" fill="#D9EAFA"/>
<path d="M280.694 428.315C281.503 428.271 282.504 428.113 283.298 428.27C284.421 428.492 285.631 429.434 286.254 430.37L286.552 430.83C286.963 431.457 286.939 431.865 286.792 432.602L286.552 433.743L286.495 434.116C286.168 435.761 284.857 436.629 283.559 437.493C282.749 437.719 282.022 437.707 281.189 437.726L280.27 437.268C279.375 436.896 278.261 435.785 277.823 434.907L277.665 434.51L277.359 434.05C277.329 432.664 277.153 431.574 277.963 430.36L278.279 429.91C278.582 429.458 278.649 429.319 279.16 429.064L280.694 428.315Z" fill="#D9EAFA"/>
<path d="M293.556 209.722C295.464 207.648 299.44 202.161 302.354 201.911C303.921 201.777 305.192 202.928 306.269 203.924L306.496 204.147C307.127 207.166 308.708 210.457 309.058 213.42C309.324 215.686 309.052 218.641 308.749 220.901C307.306 223.095 305.233 224.648 303.476 226.559C301.768 225.161 299.912 223.597 298.549 221.855L298.268 221.484C296.909 219.717 295.954 217.715 294.796 215.819C294.012 214.534 292.782 213.016 292.555 211.513C292.462 210.901 293.2 210.211 293.556 209.722Z" fill="#FEAC44"/>
<path d="M282.41 228.195C283.059 226.072 283.932 224.077 284.981 222.123C285.71 220.767 286.997 218.913 287.178 217.406C287.516 214.578 286.799 211.393 286.754 208.516C286.727 206.856 286.843 205.517 288.018 204.328C288.674 204.243 289.311 204.139 289.963 204.312C292.496 204.985 292.127 207.408 293.257 209.254L293.557 209.723C293.201 210.211 292.462 210.901 292.555 211.514C292.783 213.016 294.012 214.534 294.797 215.819C295.954 217.716 296.909 219.717 298.268 221.484L298.549 221.855C299.913 223.597 301.768 225.161 303.476 226.559C301.722 230.457 299.616 235.877 299.487 240.167L282.41 228.195Z" fill="#F1BB99"/>
<path d="M377.777 303.11L409.597 302.904L399.775 317.889C393.615 317.951 385.758 319.109 381.043 314.362C377.61 310.907 377.791 307.553 377.777 303.11Z" fill="#0C4998"/>
<path d="M221.574 232.235L222.421 232.591C225.621 234.084 228.136 237.626 229.318 240.886C230.427 243.947 230.759 246.733 229.338 249.77C227.067 248.91 222.271 248.481 220.026 249.554C218.781 250.15 217.511 251.294 216.203 251.657C213.353 252.448 208.503 251.01 207.266 254.664C206.861 255.861 206.784 257.927 207.34 259.065C208.086 260.587 209.859 261.737 211.21 262.707C211.541 264.286 212.716 266.858 212.353 268.298C210.774 267.926 209.83 266.614 208.651 265.582C206.373 263.589 204.092 261.792 202.325 259.305C200.685 256.995 199.77 253.752 200.336 250.917C201.182 246.682 204.344 245.38 207.516 243.146C208.284 241.569 208.754 239.954 209.243 238.276L209.605 238.422C211.693 239.251 213.507 240.306 215.418 241.481C216.314 241.028 217.241 240.575 218.033 239.953C220.758 237.814 221.151 235.47 221.574 232.235Z" fill="#00176E"/>
<path d="M211.211 262.707C209.86 261.737 208.086 260.588 207.341 259.065C206.785 257.927 206.861 255.861 207.267 254.665C208.504 251.011 213.355 252.448 216.204 251.657C217.512 251.294 218.782 250.15 220.027 249.555C222.271 248.482 227.068 248.91 229.339 249.771C229.306 252.715 230.935 255.744 230.513 258.506L229.953 261.357C229.226 261.657 228.452 261.565 227.681 261.549C226.586 260.931 226.44 260.673 225.799 259.644L225.075 258.796L224.501 258.958C224.437 259.65 224.631 259.949 224.933 260.547C225.33 261.331 225.426 261.633 225.27 262.487C224.75 261.358 224.419 260.516 223.388 259.783C220.306 259.43 216.196 259.099 213.247 260.184C212.711 260.79 212.607 260.842 212.634 261.692C212.682 263.239 214.006 264.704 215.124 265.647C217.145 267.351 219.563 267.147 222.049 267.159C223.638 265.805 224.653 264.959 225.256 262.882C226.502 262.833 229.085 263.196 230.215 263.652C229.56 265.884 228.369 269.194 226.147 270.313C225.097 270.843 223.62 270.846 222.468 270.911L222.205 271.338L222.742 274.387L224.47 278.052C224.24 278.706 223.984 279.628 223.451 280.098C221.841 281.512 217.127 281.809 215.095 281.317C212.932 280.795 211.476 279.034 210.393 277.206C211.517 274.48 212.303 271.256 212.353 268.298C212.717 266.858 211.542 264.287 211.211 262.707Z" fill="#FEAC44"/>
<path d="M217.73 270.301C219.382 271.351 220.751 270.658 222.206 271.338L222.743 274.387C222.113 274.141 221.612 273.963 220.935 273.918L217.966 273.535C217.773 272.132 217.295 271.738 217.73 270.301Z" fill="#C97B49"/>
<path d="M359.54 490.218C359.134 489.617 358.771 489.03 358.197 488.57L357.851 488.323C357.316 487.872 356.739 487.646 356.17 487.232L355.781 486.944C355.506 486.787 355.206 486.668 354.942 486.492C353.297 485.395 350.074 485.871 348.038 485.87C346.726 486.744 341.425 486.176 339.606 486.176C339.037 486.745 335.676 486.483 334.7 486.483L334.393 486.79C333.019 486.79 331.04 487.15 329.948 486.331L329.946 485.872C329.557 485.404 329.577 485.56 329.478 485.083C329.343 484.437 329.312 484.028 328.989 483.423C328.641 482.775 328.774 483.156 328.543 482.464L328.262 481.58L327.955 481.273C327.955 480.508 328.032 480.806 327.735 480.113L327.494 479.585L327.342 479.127L327.035 478.82C326.968 478.465 326.912 477.899 326.729 477.593L326.422 477.287C326.355 476.932 326.299 476.366 326.115 476.06L325.809 475.754C325.741 475.399 325.686 474.833 325.502 474.527C325.19 474.006 325.171 474.103 325.041 473.452C324.893 472.712 324.491 472.141 324.255 471.43L323.201 468.546C322.815 467.127 322.093 465.401 321.434 464.081L321.088 463.335L320.595 462.108C320.204 461.399 320.289 461.235 320.289 460.422C321.362 459.389 322.186 458.729 323.581 458.178C322.665 459.153 321.795 460.028 320.696 460.796L327.917 478.948L330.516 486.137C336.001 485.94 341.478 485.631 346.963 485.402C348.989 485.317 352.161 484.79 354.058 485.318C355.46 485.709 357.627 487.278 358.736 488.227L360.302 489.956L358.725 514.241C362.291 516.239 365.926 518.111 369.482 520.123C372.464 521.81 375.512 523.963 378.7 525.198C379.235 525.405 379.708 525.448 380.272 525.306L381.155 525.011L382.365 525.472C381.471 528.909 381.988 533.344 381.958 536.921L371.97 536.905L371.962 551.464C368.89 550.805 364.629 551.285 361.447 551.26C352.62 551.191 343.795 551.109 334.968 551.094C304.153 551.043 273.343 550.804 242.529 550.81L242.279 550.104L283.321 550.156C283.335 547.088 283.633 543.394 282.6 540.457L282.428 539.996C280.831 535.637 276.921 535.891 273.168 534.322C271.129 533.47 269.351 532.096 267.629 530.737L267.003 530.337L265.55 530.64C265.225 530.933 265.036 531.175 264.789 531.544L263.863 532.787C263.289 533.643 262.902 534.041 262.023 534.627L261.72 534.323C262.096 533.189 262.913 531.923 263.573 530.921L264.17 530.033C264.221 529.345 264.207 528.915 263.912 528.292L263.651 527.762C261.311 525.811 259.442 526.162 256.539 526.254L256.745 516.942C259.109 516.973 262.768 517.503 264.958 516.756C266.512 515.063 266.49 513.981 266.428 511.785L265.846 511.367C266.088 510.692 266.022 510.107 266.01 509.401C265.287 508.948 264.567 509.113 263.725 509.114C261.644 509.114 259.564 509.107 257.483 509.103C256.602 509.1 255.693 509.229 254.89 508.817L265.954 508.795C265.909 507.615 266.111 505.586 265.345 504.666C265.718 504.047 265.605 503.375 265.464 502.712C263.034 502.694 260.343 502.901 257.963 502.415L257.712 502.359H265.355L260.932 462.923C261.274 463.395 261.435 463.723 261.648 464.255C261.561 464.73 261.516 464.959 261.701 465.425C261.882 465.88 262.043 466.091 261.993 466.602C261.936 467.176 261.848 467.706 262.056 468.261C262.302 468.92 262.308 469.687 262.252 470.387L262.177 470.847C262.383 471.36 262.596 471.757 262.54 472.323C262.5 472.736 262.577 473.06 262.559 473.454L262.485 473.913L262.942 474.526C262.81 475.108 262.664 476.253 262.942 476.826L263.249 477.286C263.141 477.991 262.985 478.737 263.249 479.433C263.524 480.159 263.617 480.36 263.485 481.167L263.405 481.579C263.886 482.706 263.436 483.575 263.712 484.492C263.947 485.275 264.199 485.093 264.094 486.025C264.03 486.584 263.961 487.323 264.169 487.865L264.475 488.325C264.422 488.82 264.229 489.855 264.325 490.318C264.479 491.069 264.818 490.911 264.707 491.852C264.64 492.421 264.556 493.146 264.782 493.691L265.088 494.151C264.97 494.93 264.873 495.518 265.088 496.298C265.259 496.917 265.39 497.319 265.32 497.984C265.227 498.872 265.503 498.416 265.702 499.058C265.998 500.014 265.324 500.363 266.008 501.511C265.883 501.895 265.834 502.089 265.916 502.498L266.088 503.264L266.165 503.657C266.375 504.663 266.041 505.537 266.261 506.489C266.401 507.1 266.576 507.545 266.514 508.185C266.466 508.67 266.454 508.445 266.5 508.909L266.622 510.711L266.928 511.017L266.778 511.477C266.877 511.768 267.297 512.725 267.235 513.01C267.024 513.973 266.755 513.939 266.928 515.003L266.213 516.124L266.011 516.383C266.007 517.011 265.962 516.889 265.55 517.301L264.938 517.378C263.673 517.741 262.445 517.762 261.105 517.609C260.418 517.531 259.871 517.229 259.169 517.37L258.805 517.456H258.348L257.962 517.686L257.425 517.916L257.349 525.812L257.885 525.739L258.345 525.432C258.918 525.419 259.478 525.4 260.031 525.584C260.527 525.749 260.542 525.827 261.11 525.781L261.565 525.739C262.405 525.831 263.271 526.558 263.865 527.115C264.647 527.851 265.539 528.388 266.315 529.108L266.928 529.722L267.391 529.875C268.165 530.337 269.488 531.197 270.117 531.822C270.598 532.299 270.986 532.264 271.531 532.941L272.298 533.173L272.754 533.401L273.524 533.711L273.831 534.015C274.429 534.12 274.939 534.321 275.517 534.475L276.284 534.631L276.741 534.935L277.204 534.938C277.737 535.292 277.503 535.216 278.035 535.323C278.506 535.419 278.329 535.35 278.746 535.506L279.043 535.626C280.7 536.253 281.481 536.933 282.566 538.308C282.437 538.703 283.187 540.558 283.411 541.221C283.74 542.193 283.776 543.263 283.718 544.287C283.637 545.7 283.629 547.166 283.718 548.58C283.751 549.1 283.793 549.485 283.722 550.008L283.643 550.573L284.41 550.65L284.181 549.807L283.951 549.423C284.582 548.467 283.757 547.264 284.409 546.283L284.713 546.587C284.721 545.713 284.891 545.111 285.177 544.289L285.636 544.287L286.249 543.524L286.71 543.981L287.17 543.524L287.63 543.981L288.013 543.676L288.32 543.904C288.902 543.555 289.115 543.085 289.471 542.524H290.159L290.696 542.604L291.079 542.217C291.517 542.212 291.937 542.207 292.373 542.257C292.879 542.316 292.528 542.298 293.149 542.294L293.609 541.99L294.069 541.987L294.452 541.604C294.727 541.63 295.524 541.775 295.756 541.684C296.491 541.393 296.07 541.071 297.135 541.071C297.845 540.538 297.942 539.957 298.592 539.304L298.212 538.921L298.822 538.311L299.205 538.691L299.132 537.848L299.512 537.464L299.132 537.081L299.742 536.164L299.972 536.545C300.57 536.161 300.653 535.876 300.968 535.244L301.198 535.625C301.776 535.051 302.026 534.989 302.808 534.938L303.112 535.395L302.732 535.778L303.112 536.161L302.962 536.774L303.422 536.778L303.88 537.236C304.232 537.883 304.363 538.107 304.878 538.691L305.261 538.311L306.105 539.304L306.488 538.924L307.255 539.841L307.715 539.844C308.599 540.728 309.188 541.04 309.401 542.294L309.861 542.447L310.32 542.449L310.398 542.984L311.088 542.91L311.548 543.367L311.931 543.062C312.428 542.766 313.166 543.079 313.694 543.217L314.077 543.597C314.484 543.533 314.758 543.509 315.169 543.591C316.219 543.798 316.58 543.929 317.566 543.437L317.987 543.217L318.444 543.521V544.287L318.754 544.444L318.907 543.521C319.599 543.524 319.734 542.944 320.44 543.217L320.897 543.521C321.484 543.51 322.016 543.508 322.585 543.676C323.113 543.831 323.963 543.895 324.426 544.137C325.064 544.471 324.948 544.441 325.653 544.444C326.229 544.826 326.232 544.748 326.88 544.75C327.803 545.364 330.034 545.055 331.173 545.057C331.948 545.572 332.727 545.261 333.625 545.44C333.871 545.489 333.983 545.566 334.241 545.516C334.926 545.379 334.809 545.408 335.466 545.67C336.119 545.234 336.542 545.364 337.305 545.364L337.762 545.667C338.492 545.646 339.256 545.571 339.96 545.803L341.292 546.283L341.448 545.974C342.061 545.578 342.688 545.209 343.436 545.209L343.515 545.744C343.932 545.433 343.703 545.562 344.205 545.364C344.491 545.936 344.331 545.684 344.665 546.127L345.125 545.67L345.585 546.127L346.045 545.67L346.505 546.052L346.888 545.822L347.195 546.05L347.884 545.364L348.344 545.82L348.728 545.516L349.164 546.022L349.341 546.357L349.724 545.977L350.182 546.51C350.779 546.217 350.511 546.269 351.21 546.269L351.717 546.283L352.177 545.976C352.796 545.955 353.278 545.895 353.864 546.13L354.171 546.283C355.109 545.658 357.29 545.976 358.464 545.976C359.088 546.391 359.271 546.281 359.997 546.283C360.897 546.881 361.492 546.247 362.297 547.046C363.04 547.152 363.291 547.229 363.983 546.972C364.46 547.326 364.931 547.473 365.53 547.406L365.823 547.353L366.204 547.66L366.758 547.585L367.05 547.509L367.663 547.966L368.123 547.509L368.583 547.967L369.656 547.047L370.421 547.662C370.496 548.165 370.599 548.508 370.803 548.984L371.034 549.502C371.292 550.159 371.005 549.815 371.572 550.269C371.576 548.276 371.56 546.272 371.574 544.287L371.649 543.214C371.557 540.854 371.536 538.609 371.618 536.231L381.311 536.164V525.889L380.848 525.732L380.388 526.039C379.456 526.084 378.764 525.931 377.927 525.513L375.637 524.354C374.929 524.007 374.348 523.548 373.658 523.203L371.97 522.273C371.439 521.918 370.963 521.733 370.423 521.439L369.198 520.674L365.825 518.834C365.051 518.407 364.046 518.046 363.352 517.525C362.338 516.766 360.838 516.072 359.693 515.461C359.045 515.116 358.573 514.872 358.007 514.39V513.01C358.608 512.106 358.313 510.144 358.314 509.024C358.928 508.403 358.62 505.708 358.621 504.731C359.234 504.111 358.927 501.415 358.927 500.438C359.541 499.818 359.233 497.122 359.234 496.145C359.855 495.516 359.539 491.344 359.54 490.218Z" fill="#D9EAFA"/>
<path d="M256.541 526.252C259.443 526.16 261.313 525.809 263.653 527.76L263.914 528.29C264.208 528.912 264.223 529.342 264.172 530.031L263.575 530.919C262.914 531.921 262.098 533.186 261.722 534.321L262.025 534.625C262.904 534.039 263.291 533.641 263.865 532.785L264.791 531.542C265.038 531.173 265.227 530.931 265.552 530.638L267.005 530.335L267.631 530.735C269.353 532.094 271.131 533.467 273.17 534.32C276.922 535.889 280.832 535.635 282.43 539.994L282.602 540.455C283.635 543.392 283.337 547.086 283.323 550.153L242.281 550.102C240.593 550.092 236.26 550.545 234.988 549.738L235.009 548.247L234.907 544.304C234.897 540.876 234.539 536.93 235.11 533.577C238.369 533.759 241.629 533.94 244.888 534.118C247.348 534.252 250 534.701 252.206 533.396C255.137 531.66 255.724 529.292 256.541 526.252Z" fill="#00176E"/>
<path d="M263.653 527.76L263.914 528.29C264.208 528.913 264.222 529.343 264.172 530.031L263.575 530.919C262.914 531.921 262.097 533.187 261.721 534.321L262.025 534.625C262.904 534.039 263.291 533.641 263.865 532.785L264.791 531.542C265.037 531.173 265.226 530.931 265.551 530.638L267.005 530.335L267.631 530.735C266.269 532.801 264.89 534.653 263.203 536.468C262.007 536.592 261.565 535.493 260.309 535.278C259.698 535.173 259.795 535.1 259.439 534.628C260.22 532.166 262.165 529.849 263.653 527.76Z" fill="#FDFEFB"/>
<path d="M234.906 544.305L281.498 544.415L281.433 548.366L235.009 548.247L234.906 544.305Z" fill="#FDFEFB"/>
<path d="M385.2 267.075L397.299 267.13L399.621 267.162L416.679 267.394C416.013 268.993 415.377 270.535 414.953 272.219C415.805 272.77 416.76 273.048 417.639 273.545C418.548 275.056 418.816 276.488 418.403 278.23C417.935 280.203 416.514 280.627 415.157 281.837L414.908 282.144C416.048 282.624 417.656 283.341 418.072 284.626C418.589 286.223 418.349 289.002 417.411 290.413C416.832 291.283 416.03 291.488 415.089 291.769L416.427 292.697C417.746 293.93 418.184 295.052 418.267 296.852C418.358 298.867 417.573 300.647 416.186 302.114C415.259 303.093 414.112 303.201 412.808 303.167L409.597 302.904L377.777 303.111L367.608 302.909L367.337 302.741L366.896 302.448C365.524 301.558 364.818 300.719 363.904 299.404C363.664 298.066 363.582 296.846 364.197 295.587C364.838 294.277 365.788 293.579 367.137 293.142L367.43 292.753C366.926 292.222 366.446 291.965 365.821 291.607C364.563 289.875 363.74 288.463 364.09 286.249C364.369 284.48 365.344 283.449 366.726 282.419L366.847 281.961C366.431 281.313 365.811 280.993 365.182 280.565L364.609 279.785C363.959 278.775 363.637 276.634 364.057 275.453C364.622 273.863 366.148 272.931 367.484 272.046L366.061 267.148L382.519 267.099L385.2 267.075Z" fill="#1D88CA"/>
<path d="M365.82 291.606C377.871 291.141 389.992 291.346 402.052 291.327C404.714 291.323 412.982 290.68 415.089 291.769L416.427 292.697C415.494 292.656 414.857 292.752 413.965 292.864C410.992 293.235 407.528 292.899 404.51 292.907C396.319 292.93 388.127 292.976 379.936 293.057C375.915 293.097 371.41 292.781 367.455 293.403L367.137 293.141L367.43 292.753C366.925 292.221 366.446 291.965 365.82 291.606Z" fill="#0C4998"/>
<path d="M414.908 282.145C416.048 282.625 417.656 283.341 418.072 284.626C418.589 286.223 418.349 289.003 417.411 290.413C416.832 291.284 416.031 291.488 415.09 291.769C412.983 290.681 404.715 291.324 402.053 291.328C389.992 291.347 377.872 291.142 365.821 291.607C364.564 289.875 363.741 288.463 364.091 286.249C364.37 284.48 365.344 283.449 366.726 282.419L367.014 282.566C368.122 282.983 410.765 282.986 413.813 282.546C414.241 282.484 414.526 282.334 414.908 282.145Z" fill="#1D88CA"/>
<path d="M385.2 267.075L397.298 267.13L399.621 267.162L416.679 267.394C416.013 268.993 415.377 270.535 414.953 272.219C415.805 272.77 416.76 273.048 417.639 273.545C418.547 275.056 418.816 276.488 418.403 278.23C417.935 280.203 416.514 280.627 415.157 281.837L414.907 282.144C414.525 282.334 414.24 282.485 413.812 282.546C410.764 282.986 368.12 282.983 367.013 282.566L366.725 282.418L366.846 281.96C366.43 281.313 365.81 280.992 365.181 280.564L364.608 279.784C363.958 278.775 363.637 276.633 364.056 275.452C364.621 273.862 366.147 272.93 367.484 272.046L366.06 267.148L382.518 267.098L385.2 267.075Z" fill="#1D88CA"/>
<path d="M365.182 280.564C368.471 281.395 372.687 280.945 376.097 280.951C385.355 280.968 394.614 280.974 403.872 280.917C406.43 280.902 408.988 280.886 411.546 280.865C412.434 280.858 413.632 280.683 414.425 281.096L414.908 282.144C414.525 282.334 414.24 282.485 413.812 282.546C410.764 282.986 368.12 282.983 367.013 282.566L366.725 282.418L366.847 281.96C366.431 281.313 365.81 280.993 365.182 280.564Z" fill="#00176E"/>
<path d="M385.2 267.075L397.299 267.13L399.621 267.162L416.679 267.394C416.013 268.993 415.377 270.535 414.953 272.219C413.228 271.847 411.251 271.99 409.486 271.985C406.475 271.977 403.465 271.971 400.453 271.966C389.473 271.948 378.459 271.763 367.484 272.046L366.061 267.148L382.519 267.098L385.2 267.075Z" fill="#00176E"/>
<path d="M282.41 228.195L299.488 240.167C300.145 242.048 295.466 257.337 294.199 259.942L293.999 260.339C293.058 264.124 291.184 267.93 289.432 271.41C282.549 285.08 272.136 298.568 258.838 306.506C255.286 308.626 251.774 310.044 247.799 311.159C246.885 309.118 246.592 305.902 246.023 303.658C243.778 294.806 240.551 285.725 233.963 279.123L239.354 277.645L239.823 277.458C245.499 275.195 250.674 272.48 255.485 268.671C268.45 258.409 276.019 243.073 282.41 228.195Z" fill="#1D88CA"/>
<path d="M239.352 277.645C238.561 278.313 238.169 278.5 237.846 279.503C238.353 281.275 239.588 282.815 240.658 284.297C242.925 287.437 245.775 291.705 249.168 293.665L249.516 293.856C252.248 295.389 254.771 295.988 257.89 295.552C261.921 294.988 266.165 292.055 269.233 289.557C275.38 284.555 280.3 279.346 284.681 272.711C287.055 269.114 288.969 264.956 291.469 261.516C292.02 260.758 292.713 260.139 293.274 259.389L293.566 258.994L293.99 259.34L293.997 260.337C293.056 264.123 291.183 267.928 289.43 271.409C282.548 285.078 272.134 298.566 258.836 306.504C255.284 308.625 251.772 310.043 247.797 311.158C246.883 309.116 246.59 305.901 246.021 303.656C243.776 294.804 240.549 285.723 233.961 279.121L239.352 277.645Z" fill="#0C4998"/>
<path d="M113.69 434.115C120.596 442.765 126.62 451.742 128.991 462.722C130.367 469.094 130.45 475.755 130.634 482.248C135.993 473.577 143.268 467.39 151.07 460.977C152.227 469.587 152.501 479.829 149.672 488.147C146.261 497.513 139.213 507.162 130.015 511.476L126.446 513.001L126.311 513.474C125.932 514.757 125.322 515.957 124.928 517.24C123.81 520.872 123.071 524.458 122.542 528.215C121.452 535.965 122.519 543.509 124.507 550.992L158.385 550.979L197.908 551.014L242.53 550.809C273.344 550.802 304.154 551.042 334.969 551.092C343.795 551.107 352.621 551.189 361.448 551.259C364.63 551.284 368.891 550.803 371.963 551.462L371.971 536.904L381.959 536.92L409.976 536.945L481.119 536.902C481.407 537.367 481.511 537.679 481.591 538.219C481.086 542.496 481.312 547.24 481.425 551.557C484.815 550.62 489.61 551.09 493.143 551.077C500.911 551.047 508.68 551.08 516.448 551.096L553.946 551.011C555.044 551.178 555.29 551.541 555.918 552.412C555.871 553.713 555.979 553.68 554.965 554.633C552.311 555.281 549.104 554.975 546.371 554.983C540.938 554.997 535.503 554.997 530.07 554.998C506.084 555.004 482.107 554.753 458.123 554.688C435.522 554.626 412.923 554.95 390.321 554.937C323.327 554.898 256.332 554.671 189.338 554.696C158.242 554.708 127.15 554.827 96.0532 554.793C89.3451 554.786 82.637 554.811 75.9289 554.863C73.2587 554.884 69.6686 555.385 67.1026 554.845C66.4078 554.698 65.8098 554.326 65.5332 553.638C65.1266 552.628 65.6473 551.856 65.9944 550.904C70.5241 551.255 75.2421 550.986 79.7853 550.971C89.1004 550.939 98.4155 550.855 107.731 550.839C110.035 550.835 112.339 550.858 114.643 550.888C115.099 550.895 116.449 551.061 116.829 550.923C117.003 550.859 117.114 550.688 117.256 550.571L117.224 548.365C117.091 540.19 116.6 530.705 113.747 522.995L103.401 516.815C92.2514 508.88 85.1472 496.62 82.6646 483.327C81.2884 475.959 82.1231 468.109 83.292 460.764C85.5875 463.057 88.5791 464.697 91.0617 466.812C99.344 473.111 106.639 482.112 111.137 491.48C112.123 493.531 113.104 495.584 114.033 497.662C114.611 498.955 115.093 500.433 115.955 501.556L115.579 500.129C114.251 494.98 111.648 490.073 110.064 484.967C106.799 474.443 105.682 461.287 108.032 450.442C109.251 444.821 111.424 439.384 113.69 434.115Z" fill="#1D88CA"/>
<path d="M126.29 511.618C129.527 505.403 132.963 499.295 136.19 493.078C137.81 489.955 139.369 486.796 140.912 483.635C141.43 482.575 142.018 480.708 142.823 479.895C142.541 482.142 140.454 485.494 139.41 487.611C135.205 496.14 130.501 504.398 126.447 513.001C124.546 514.201 122.967 520.325 122.47 522.539C120.408 531.744 120.377 542.015 123.831 550.9L117.962 551.058C118.352 546.641 117.953 541.995 117.465 537.598C116.923 532.713 116.193 527.665 114.658 522.976C113.253 518.681 111.154 514.539 109.232 510.459C106.35 504.343 103.421 498.221 100.198 492.276C98.4077 488.973 96.2765 485.823 94.6035 482.471C96.0827 484.208 97.1713 486.225 98.3464 488.173C100.724 492.112 102.844 496.172 104.9 500.285C108.385 507.257 112.303 514.671 114.761 522.072C116.274 517.998 117.2 513.826 117.981 509.557L121.343 501.53L122.368 499.2C123.288 503.575 123.979 507.731 126.29 511.618Z" fill="#D9EAFA"/>
<path d="M409.977 536.945L481.119 536.902C481.407 537.367 481.511 537.679 481.591 538.219C481.086 542.495 481.312 547.24 481.425 551.557L480.966 551.927C457.161 552.095 433.366 551.711 409.564 551.659C400.561 551.64 391.558 551.682 382.556 551.718C380.118 551.728 377.679 551.742 375.241 551.739C374.182 551.738 372.937 551.896 371.963 551.462L371.971 536.903L381.959 536.919L409.977 536.945Z" fill="#00176E"/>
<path d="M83.5927 550.683C68.019 528.375 56.1355 503.062 50.0714 476.512C48.946 471.584 47.7464 466.688 47.07 461.672C45.6846 451.404 45.5687 441.024 45.5877 430.68H52.7428C53.6977 430.044 56.4709 430.374 57.6865 430.374C62.5627 430.374 67.4383 430.374 72.3145 430.374C95.6369 430.374 118.959 430.374 142.282 430.374C143.399 431.116 162.2 430.68 165.176 430.68L150.527 489.38L149.674 488.147C152.503 479.829 152.229 469.588 151.071 460.978C143.269 467.39 135.995 473.577 130.636 482.249C130.451 475.756 130.369 469.094 128.993 462.723C126.621 451.743 120.597 442.766 113.691 434.116C111.426 439.384 109.252 444.821 108.033 450.444C105.683 461.288 106.8 474.445 110.065 484.968C111.649 490.074 114.252 494.982 115.581 500.131L115.957 501.558C115.095 500.435 114.612 498.957 114.034 497.663C113.105 495.586 112.124 493.533 111.139 491.482C106.64 482.114 99.3454 473.113 91.0631 466.814C88.5805 464.699 85.5889 463.059 83.2934 460.766C82.1245 468.111 81.2898 475.961 82.666 483.329C85.1486 496.622 92.2528 508.882 103.402 516.817L113.748 522.997C116.601 530.706 117.092 540.192 117.225 548.366L117.258 550.573C117.115 550.69 117.004 550.862 116.831 550.925C116.45 551.064 115.1 550.897 114.644 550.89C112.34 550.859 110.036 550.837 107.732 550.841C98.4169 550.856 89.1018 550.941 79.7867 550.973C75.2435 550.988 70.5255 551.257 65.9958 550.905C68.1319 550.536 70.4599 550.713 72.6266 550.706C76.2818 550.694 79.9375 550.688 83.5927 550.683Z" fill="url(#paint0_linear_49_1702)"/>
<path d="M209.439 277.466C210.173 277.456 209.862 277.568 210.394 277.207C211.477 279.035 212.933 280.796 215.096 281.318C217.128 281.809 221.842 281.513 223.452 280.098C223.984 279.629 224.241 278.707 224.471 278.053L225.323 276.743C227.676 277.153 232.229 277.52 233.963 279.123C240.551 285.725 243.778 294.805 246.023 303.658C246.592 305.902 246.884 309.117 247.799 311.159C248.757 317.061 249.866 322.943 250.59 328.881C251.259 334.352 254.385 370.267 252.733 372.635L251.812 373.214L251.621 374.324L251.379 373.232C249.917 373.175 248.338 373.737 246.873 373.944C243.054 374.485 239.219 374.945 235.376 375.302C221.455 376.595 207.694 377.442 193.707 377.47C191.655 377.473 178.399 377.107 177.551 377.819C177.324 378.011 177.181 378.222 177.007 378.455C175.744 377.227 175.472 362.138 175.352 359.534C172.419 358.397 169.558 356.359 166.996 354.558C159.35 349.183 152.148 340.915 150.576 331.391L150.493 330.866C149.969 327.841 150.075 324.495 150.612 321.47C152.83 308.944 161.752 298.255 171.965 291.216C180.897 285.06 191.462 280.867 201.984 278.385C204.17 277.869 207.222 277.062 209.439 277.466Z" fill="#1D88CA"/>
<path d="M209.439 277.466C210.173 277.456 209.863 277.568 210.394 277.207C211.477 279.035 212.933 280.796 215.096 281.318C217.128 281.809 221.842 281.513 223.452 280.098C223.985 279.629 224.241 278.707 224.471 278.053L225.323 276.743C225.993 278.252 225.953 279.244 225.409 280.799C225.015 281.924 224.037 282.843 222.967 283.33C220.505 284.45 217.828 284.168 215.397 283.175C212.91 282.158 210.719 280.453 209.613 277.929L209.439 277.466Z" fill="#DDEEF9"/>
<path d="M175.738 324.605C177.746 323.771 179.596 322.515 181.728 322.042L180.772 331.152L180.457 332.119L178.596 330.806C177.665 330.118 175.315 328.652 174.799 327.645C174.638 327.331 174.626 326.494 174.568 326.112C174.856 325.414 175.176 325.101 175.738 324.605Z" fill="#FDFEFB"/>
<path d="M209.406 299.75C210.397 299.727 211.864 299.473 212.678 299.996L203.831 311.305C201.686 312.311 200.119 314.049 198.363 315.591C194.354 319.112 189.368 322.964 183.984 323.892C183.258 324.017 182.56 324.336 181.907 323.966L181.728 322.042C179.596 322.515 177.746 323.771 175.738 324.605C176.918 323.137 178.722 322.607 180.28 321.624C186.208 317.884 192.761 314.695 198.417 310.617C202.675 307.545 205.997 303.701 209.406 299.75Z" fill="#00176E"/>
<path d="M198.445 348.482C199.744 348.077 200.72 347.962 202.077 348.063C202.989 348.589 203.646 348.93 203.851 350.074C204.024 351.046 203.52 352.212 202.853 352.908C202.231 353.557 201.377 354.09 200.639 354.597C204.296 355.456 207.937 356.419 211.341 358.037C211.946 358.509 212.699 359.039 213.183 359.632C213.799 360.386 213.83 361.072 213.744 361.996C213.447 365.182 210.657 363.976 209.081 365.362L209.297 365.601C209.981 366.477 210.122 367.117 210.04 368.197C209.869 370.419 207.572 370.431 206.113 371.648C205.918 372.659 205.821 373.24 205.041 373.989C202.148 374.642 198.73 373.909 196.057 372.726C190.846 370.421 188.117 367.028 186.119 361.795C189.119 356.232 193.258 351.963 198.445 348.482Z" fill="#FEAC44"/>
<path d="M366.06 267.148C364.073 263.967 363.005 259.909 361.55 256.439C359.455 251.439 357.009 246.603 354.385 241.859C350.5 234.836 345.446 228.472 341.148 221.707C330.665 205.209 325.733 185.913 330.06 166.552C333.862 149.533 344.682 135.995 359.287 126.849C372.616 118.503 391.732 115.594 407.042 119.211C423.186 123.024 438.32 133.4 446.924 147.714C454.977 161.113 458.97 178.657 454.995 194.033C451.396 207.956 443.146 219.14 435.293 230.888C431.665 236.315 428.05 242.284 425.015 248.064C423.049 251.807 421.367 255.798 419.797 259.725C418.868 262.048 418.092 265.381 416.677 267.395L399.619 267.163L397.297 267.131L385.198 267.076L382.517 267.099L366.06 267.148Z" fill="#FEAC44"/>
<path d="M404.128 196.136C404.369 193.105 404.568 190.073 404.77 187.038C405.061 182.648 404.749 177.598 408.446 174.475C410.34 172.876 413.17 172.097 415.614 172.41C418.284 172.753 420.746 174.311 422.333 176.46C424.147 178.92 424.652 182.01 424.116 184.975C423.304 189.454 420.278 194.108 416.476 196.627C413.434 198.643 410.107 198.731 406.591 198.753L399.621 267.162L397.299 267.13L385.2 267.075L382.518 267.098L378.064 198.863C372.813 198.441 368.421 197.678 364.868 193.462C362.187 190.284 360.314 186.087 360.665 181.851C360.905 178.968 362.06 176.517 364.299 174.645C366.411 172.878 369.12 172.042 371.866 172.436C374.486 172.812 376.73 174.344 378.241 176.486C380.273 179.37 379.986 183.798 380.138 187.212C380.271 190.191 380.456 193.164 380.565 196.144L404.128 196.136Z" fill="#FDFEFB"/>
<path d="M369.969 175.132C372.017 175.319 373.775 175.776 375.367 177.158C376.151 177.839 376.654 178.739 376.913 179.741C377.366 181.488 377.266 183.687 377.343 185.501C377.496 189.104 377.605 192.704 377.834 196.303C375.984 196.13 374.227 195.918 372.418 195.486L371.189 194.95C367.646 193.109 365.058 189.801 363.902 185.99C363.264 183.887 363.131 181.11 364.28 179.161C365.603 176.913 367.519 175.777 369.969 175.132Z" fill="#FEAC44"/>
<path d="M413.15 175.126L415.038 175.103C417.186 175.229 418.926 176.368 420.225 178.06C421.485 179.7 421.886 182.378 421.541 184.381C420.746 189.004 417.835 192.213 414.15 194.793L413.831 194.973L413.29 195.235C411.319 196.223 409.033 196.081 406.869 196.15C406.947 193.445 407.325 190.739 407.478 188.033C407.622 185.453 407.3 181.552 408.28 179.178C409.232 176.877 410.95 175.972 413.15 175.126Z" fill="#FEAC44"/>
<path d="M380.525 198.709L403.806 198.693L397.3 267.131L385.202 267.076L380.525 198.709Z" fill="#FEAC44"/>
<path d="M177.006 378.455C177.181 378.222 177.323 378.01 177.551 377.819C178.398 377.107 191.655 377.473 193.706 377.469C207.695 377.442 221.454 376.595 235.376 375.302C239.219 374.945 243.054 374.485 246.873 373.944C248.338 373.736 249.917 373.175 251.378 373.232L251.62 374.323L260.933 462.923L265.355 502.359H257.712L257.964 502.416C260.344 502.901 263.034 502.695 265.464 502.712C265.605 503.375 265.719 504.047 265.345 504.666C266.111 505.586 265.909 507.615 265.954 508.795L254.89 508.817C255.693 509.229 256.603 509.1 257.483 509.103C259.564 509.107 261.645 509.114 263.725 509.114C264.567 509.113 265.287 508.948 266.01 509.401C266.023 510.107 266.088 510.692 265.846 511.368L266.428 511.785C266.49 513.981 266.513 515.063 264.958 516.756C262.769 517.503 259.109 516.972 256.746 516.942L256.539 526.254C255.722 529.294 255.136 531.662 252.204 533.399C249.998 534.704 247.346 534.255 244.886 534.121C241.627 533.943 238.367 533.762 235.108 533.58C234.537 536.934 234.896 540.879 234.905 544.307L235.007 548.25L234.986 549.741C236.258 550.548 240.592 550.095 242.28 550.105L242.529 550.811L197.907 551.016L158.385 550.981L124.506 550.994C122.518 543.512 121.451 535.968 122.541 528.218C123.07 524.461 123.81 520.874 124.927 517.242C125.321 515.959 125.931 514.759 126.31 513.477L126.445 513.003L130.014 511.478C139.213 507.164 146.259 497.515 149.672 488.149L150.525 489.382L165.174 430.682C167.697 420.116 170.08 409.52 172.581 398.95C174.153 392.305 176.34 385.235 177.006 378.455Z" fill="#00176E"/>
<path d="M227.494 376.987L228.267 377.628C228.5 378.85 228.223 380.185 228.079 381.417C227.72 384.481 227.194 387.855 226.04 390.734C225.074 393.142 222.919 394.98 220.574 395.947L219.949 395.533C220.268 394.464 221.554 393.795 222.386 393.107C223.342 392.316 224.239 391.207 224.702 390.047C225.754 387.417 226.079 384.475 226.461 381.691C226.681 380.091 226.783 378.461 227.494 376.987Z" fill="#DDEEF9"/>
<path d="M148.075 502.506L190.197 502.252C189.916 503.019 189.803 503.64 189.716 504.443L147.848 504.382C148.113 503.716 148.097 503.217 148.075 502.506Z" fill="#FDFEFB"/>
<path d="M189.718 504.443C189.719 505.766 189.213 507.24 188.713 508.455L146.893 508.557C146.329 508.279 146.524 508.49 146.281 507.95C146.657 506.662 146.758 505.192 147.849 504.383L189.718 504.443Z" fill="#00176E"/>
<path d="M224.079 502.502C227.919 502.033 232.04 502.308 235.923 502.306C243.187 502.301 250.45 502.3 257.713 502.358L257.964 502.415C260.345 502.9 263.035 502.694 265.465 502.711C265.606 503.374 265.719 504.046 265.346 504.665C266.112 505.585 265.91 507.614 265.955 508.794L254.891 508.816L234.755 508.808L222.419 508.808L222.329 504.717C222.298 504.027 222.351 503.42 222.452 502.737L224.079 502.502Z" fill="#00176E"/>
<path d="M224.079 502.502C227.919 502.033 232.04 502.308 235.923 502.306C243.187 502.301 250.45 502.3 257.713 502.358L257.964 502.415C260.345 502.9 263.035 502.694 265.465 502.711C265.606 503.374 265.719 504.046 265.346 504.665L222.329 504.718C222.298 504.028 222.351 503.421 222.452 502.737L224.079 502.502Z" fill="#FDFEFB"/>
<path d="M146.892 508.557L188.713 508.456L188.402 509.733C188.651 511.475 188.087 513.849 187.019 515.275C186.556 515.894 186.003 516.266 185.364 516.688L173.964 516.646L152.771 516.515C150.699 516.477 147.834 516.846 146.34 515.208C145.498 514.284 145.362 513.326 145.417 512.115C145.452 511.328 145.322 511.385 145.937 510.833C146.207 510.03 146.483 509.305 146.892 508.557Z" fill="#00176E"/>
<path d="M146.893 508.557L188.713 508.456L188.403 509.733L187.625 510.78L145.938 510.833C146.208 510.03 146.484 509.305 146.893 508.557Z" fill="#FDFEFB"/>
<path d="M190.199 502.252C191.974 498.915 192.721 494.186 193.677 490.513C195.042 485.272 196.486 480.046 197.933 474.826C204.404 451.471 211.021 428.154 217.555 404.816L222.377 502.124C222.944 502.297 223.496 502.403 224.08 502.502L222.454 502.737C222.352 503.42 222.3 504.028 222.33 504.718L222.42 508.808L234.757 508.809L254.892 508.817C255.695 509.229 256.605 509.1 257.485 509.103C259.566 509.107 261.646 509.114 263.727 509.114C264.569 509.113 265.289 508.948 266.012 509.401C266.025 510.106 266.09 510.692 265.848 511.367L266.43 511.784C266.492 513.981 266.515 515.063 264.96 516.756C262.771 517.503 259.111 516.972 256.748 516.942L256.541 526.254C255.724 529.294 255.138 531.662 252.206 533.398C250 534.704 247.348 534.255 244.888 534.121C241.629 533.942 238.369 533.762 235.11 533.58C234.539 536.933 234.898 540.879 234.907 544.307L235.009 548.25L234.988 549.74C236.26 550.548 240.594 550.094 242.281 550.105L242.531 550.811L197.909 551.016L158.386 550.981L124.508 550.994C122.52 543.511 121.453 535.967 122.543 528.217C123.072 524.46 123.812 520.874 124.929 517.242C125.323 515.959 125.933 514.759 126.312 513.476L126.447 513.003L130.016 511.478C139.215 507.164 146.261 497.515 149.674 488.149L150.527 489.382C150.235 491.484 147.354 501.487 148.075 502.509C148.097 503.219 148.113 503.719 147.849 504.385C146.759 505.194 146.657 506.664 146.282 507.952C146.524 508.492 146.329 508.281 146.893 508.559C146.484 509.307 146.208 510.032 145.937 510.835C145.323 511.386 145.453 511.329 145.417 512.117C145.363 513.328 145.499 514.286 146.341 515.21C147.834 516.848 150.7 516.478 152.772 516.517L173.965 516.648L185.365 516.689C186.003 516.268 186.556 515.896 187.02 515.277C188.088 513.851 188.651 511.477 188.403 509.735L188.713 508.457C189.212 507.242 189.72 505.768 189.718 504.445C189.804 503.64 189.917 503.019 190.199 502.252Z" fill="url(#paint1_linear_49_1702)"/>
<path d="M147.112 547.714C152.274 547.728 157.877 548.21 162.985 547.715C171.555 548.144 180.248 547.876 188.832 547.908C192.318 547.921 196.012 547.687 199.471 548.081C199.643 548.718 199.704 549.294 199.743 549.952L199.471 550.592L197.91 551.014L158.387 550.979C154.666 550.327 150.357 551.505 146.736 550.573L147.08 549.846C147.167 549.144 147.12 548.421 147.112 547.714Z" fill="#00176E"/>
<path d="M147.08 549.846C158.692 549.645 170.321 549.808 181.934 549.829C187.743 549.84 193.999 549.315 199.743 549.952L199.471 550.592L197.91 551.014L158.387 550.979C154.666 550.327 150.357 551.505 146.736 550.573L147.08 549.846Z" fill="#FDFEFB"/>
<path d="M147.111 547.714C146.756 546.868 146.971 545.617 147.014 544.689C147.796 544.105 149.044 544.322 150.022 544.317C152.699 544.304 155.376 544.292 158.053 544.281C171.533 544.226 185.049 544.557 198.521 544.261L199.426 547.653C191.38 547.588 183.333 547.574 175.287 547.56C171.317 547.553 166.897 547.174 162.984 547.715C157.875 548.21 152.273 547.727 147.111 547.714Z" fill="#FDFEFB"/>
<path d="M234.756 508.808L254.891 508.816C255.695 509.228 256.605 509.099 257.485 509.102C259.565 509.106 261.646 509.114 263.727 509.114C264.569 509.112 265.289 508.947 266.011 509.4C266.024 510.106 266.09 510.691 265.847 511.367L266.429 511.784C266.491 513.981 266.514 515.062 264.959 516.755C262.77 517.502 259.111 516.972 256.747 516.941L234.477 516.879L225.423 517.06C224.591 516.47 223.721 515.844 223.205 514.94C222.626 513.93 222.493 512.584 222.856 511.489C222.925 510.968 222.905 510.562 222.809 510.051L222.7 509.484C223.361 508.858 224.611 509.125 225.527 509.126C228.44 509.126 231.95 509.49 234.756 508.808Z" fill="#00176E"/>
<path d="M234.756 508.808L254.891 508.816C255.694 509.228 256.604 509.099 257.485 509.102C259.565 509.106 261.646 509.114 263.726 509.114C264.569 509.112 265.289 508.947 266.011 509.4C266.024 510.106 266.089 510.691 265.847 511.367L222.856 511.488C222.924 510.967 222.904 510.561 222.808 510.05L222.699 509.483C223.36 508.857 224.61 509.125 225.526 509.125C228.44 509.126 231.95 509.49 234.756 508.808Z" fill="#FDFEFB"/>
<path d="M234.477 516.878L256.747 516.941L256.54 526.253C255.723 529.293 255.137 531.661 252.205 533.397C249.999 534.703 247.347 534.254 244.887 534.12C241.628 533.941 238.368 533.761 235.109 533.579C235.408 531.498 234.998 529.044 234.872 526.942C234.67 523.591 234.583 520.233 234.477 516.878Z" fill="#FEAC44"/>
<path d="M126.447 513.001L130.016 511.476C139.215 507.162 146.261 497.513 149.674 488.146L150.527 489.38C150.235 491.481 147.354 501.485 148.075 502.506C148.097 503.217 148.113 503.716 147.849 504.383C146.759 505.191 146.657 506.662 146.282 507.95C146.524 508.49 146.329 508.279 146.893 508.557C146.484 509.305 146.208 510.03 145.937 510.833C145.323 511.384 145.453 511.327 145.417 512.115C145.363 513.326 145.499 514.284 146.341 515.208C147.834 516.846 150.7 516.476 152.772 516.515L173.965 516.646L173.212 526.989C174.442 527.376 175.345 527.454 176.018 528.627L176.934 529.2C179.226 530.351 181.431 531.694 183.738 532.846C189.341 535.646 195.423 538.104 198.512 543.973L198.523 544.262C185.05 544.558 171.533 544.227 158.054 544.282C155.377 544.293 152.701 544.305 150.024 544.318C149.045 544.323 147.797 544.106 147.015 544.69C146.972 545.618 146.757 546.869 147.113 547.715C147.12 548.422 147.168 549.145 147.08 549.848L146.736 550.574C150.356 551.506 154.666 550.328 158.386 550.98L124.508 550.993C122.52 543.51 121.453 535.966 122.543 528.216C123.072 524.46 123.812 520.873 124.929 517.241C125.323 515.958 125.933 514.758 126.312 513.476L126.447 513.001Z" fill="#D9EAFA"/>
<path d="M152.771 516.515L173.964 516.646L173.211 526.989C174.441 527.376 175.344 527.454 176.018 528.627L176.933 529.2C179.226 530.351 181.431 531.694 183.737 532.846C189.341 535.646 195.422 538.104 198.511 543.974L147.111 543.999L148.235 532.627L151.481 532.852L153.496 516.843L152.771 516.515Z" fill="#00176E"/>
<path d="M173.551 535.389C174.688 534.08 176.519 531.349 178.004 530.622L178.578 531.255C177.823 533.16 176.226 534.981 174.938 536.56L174.018 536.335C173.244 535.988 173.04 535.778 172.147 535.682L171.871 535.655L171.443 535.088L172.005 533.803C172.677 532.438 174.684 529.087 176.017 528.627L176.933 529.2C175.595 531.23 174.242 533.028 173.551 535.389Z" fill="#FDFEFB"/>
<path d="M152.771 516.515L173.964 516.646L173.211 526.989C172.239 526.715 171.356 526.372 170.338 526.57C167.555 530.291 165.905 533.222 160.901 534.077C158.159 534.547 154.213 533.413 151.48 532.852L153.496 516.843L152.771 516.515Z" fill="#FEAC44"/>
<path d="M426.496 360.02L450.882 368.866L448.031 393.316C449.931 397.136 452.945 399.964 456.571 402.121L483.599 401.816C484.858 404.808 485.885 407.865 487.033 410.899C487.725 412.727 488.638 414.533 488.935 416.478L491.681 423.032C489.441 424.911 487.242 426.864 485.376 429.127L474.814 440.123C475.038 442.537 475.519 445.083 476.776 447.194C483.528 446.747 490.358 445.552 497.123 445.622C506.321 445.716 515.524 448.756 522.489 454.902C529.128 460.761 532.439 468.363 533.696 477.013C534.987 485.897 531.671 495.534 526.307 502.556C524.738 504.61 522.795 506.665 520.82 508.332C511.91 515.845 502.251 522.628 492.983 529.694C490.653 531.47 488.348 533.265 486.074 535.113C484.842 536.113 483.131 537.774 481.592 538.22C481.512 537.679 481.408 537.368 481.12 536.903L409.978 536.946L381.96 536.92C381.991 533.344 381.474 528.909 382.367 525.471L381.157 525.011L380.275 525.306C379.711 525.447 379.238 525.405 378.702 525.197C375.514 523.962 372.466 521.809 369.485 520.122C365.928 518.111 362.293 516.238 358.727 514.24L360.305 489.955L358.739 488.227C357.629 487.278 355.462 485.708 354.06 485.317C352.163 484.789 348.991 485.317 346.965 485.402C341.481 485.63 336.003 485.94 330.518 486.137L327.919 478.947L320.698 460.796C321.797 460.028 322.667 459.152 323.583 458.178C324.678 457.67 326.031 456.164 326.926 455.31C329.417 452.93 331.888 450.52 334.335 448.093C336.049 446.395 337.039 445.248 336.994 442.702C336.974 441.532 336.567 440.676 335.873 439.764C334.132 437.475 331.455 435.548 329.334 433.588C325.719 430.25 322.167 426.901 318.695 423.412L325.879 400.966C330.794 401.442 335.731 402.116 340.635 402.717C343.964 403.123 347.28 403.616 350.645 403.507C355.035 403.364 358.322 400.879 361.201 397.77C360.442 389.071 358.164 380.101 356.236 371.577L364.29 368.531C367.376 367.23 370.403 365.797 373.466 364.443C375.584 363.506 377.736 362.693 379.727 361.494C383.599 365.459 387.359 369.627 391.118 373.706C392.793 375.524 394.47 377.697 396.368 379.265C399.512 381.862 405.499 380.767 409.287 380.353C411.756 378.269 413.653 375.774 415.723 373.323C419.408 368.961 422.966 364.508 426.496 360.02Z" fill="#8FBFE2"/>
<path d="M460.38 459.35C466.866 461.424 473.864 462.483 480.531 463.868C483.019 464.384 486.111 464.751 488.422 465.74L478.581 487.319L457.612 485.358C454.914 486.723 452.724 488.967 450.454 490.924C449.245 491.966 447.956 492.908 446.789 493.999C446.838 494.705 446.895 495.366 447.035 496.061L450.478 517.23L431.734 527.714L419.425 514.004L418.905 515.617C416.071 515.062 412.95 513.351 410.319 512.111C405.297 509.001 400.002 506.285 394.798 503.493C392.992 502.523 391.087 501.856 389.418 500.64C393.095 501.535 396.868 502.723 400.636 503.128C412.15 504.364 424.463 500.927 434.324 495.073C443.059 489.888 451.064 482.058 455.643 472.905C457.803 468.587 459.189 464.009 460.38 459.35Z" fill="#1D88CA"/>
<path d="M355.936 472.292L353.317 465.545C348.237 451.914 348.892 436.733 354.965 423.547C361.219 409.969 373.432 399.466 387.392 394.365C401.349 389.265 417.123 391.157 430.335 397.363C440.945 402.346 449.456 410.943 454.902 421.303C456.927 425.156 458.308 429.115 459.779 433.188C462.143 441.915 461.91 450.528 460.381 459.35C459.19 464.009 457.804 468.588 455.644 472.905C451.065 482.057 443.06 489.887 434.325 495.073C424.464 500.927 412.152 504.362 400.637 503.127C396.869 502.723 393.096 501.534 389.419 500.64C386.797 499.242 383.835 498.385 381.154 497.031C376.84 494.851 372.696 492.281 369.064 489.078C365.583 486.01 362.576 482.458 359.492 479.008L355.936 472.292Z" fill="#FDFEFB"/>
<path d="M384.58 436.328C387.559 431.079 392.904 425.905 398.848 424.208C404.606 422.564 412.346 422.655 417.682 425.602C423.798 428.98 428.334 434.955 430.123 441.666C431.115 445.39 430.851 449.835 429.804 453.519C429.456 454.735 429.104 455.939 428.551 457.08C425.526 463.32 420.73 467.963 414.079 470.109C408.054 472.051 400.726 471.711 395.067 468.788L394.647 468.567C391.612 466.996 388.71 464.419 386.645 461.705C383.123 457.075 381.07 450.966 381.933 445.128L382.012 444.63C382.456 441.686 383.235 438.988 384.58 436.328Z" fill="#8FBFE2"/>
<defs>
<linearGradient id="paint0_linear_49_1702" x1="53.9077" y1="528.403" x2="138.083" y2="412.834" gradientUnits="userSpaceOnUse">
<stop stop-color="#ACD9F7"/>
<stop offset="1" stop-color="#D8ECF8"/>
</linearGradient>
<linearGradient id="paint1_linear_49_1702" x1="207.235" y1="560.542" x2="156.631" y2="432.309" gradientUnits="userSpaceOnUse">
<stop stop-color="#BADEF7"/>
<stop offset="1" stop-color="#F2F6F7"/>
</linearGradient>
</defs>
</svg>
