<svg width="1600" height="1556" viewBox="0 0 1600 1556" fill="none" xmlns="http://www.w3.org/2000/svg">
<mask id="mask0_61_932" style="mask-type:alpha" maskUnits="userSpaceOnUse" x="0" y="0" width="1600" height="1556">
<rect width="1600" height="1556" fill="#F2FCFF"/>
</mask>
<g mask="url(#mask0_61_932)">
<g opacity="0.6" filter="url(#filter0_f_61_932)">
<circle cx="1351" cy="810" r="441" fill="#1FC0F3"/>
</g>
<g opacity="0.6" filter="url(#filter1_f_61_932)">
<ellipse cx="217" cy="810.5" rx="406" ry="405.5" fill="#1FC0F3"/>
</g>
<g opacity="0.6" filter="url(#filter2_f_61_932)">
<circle cx="799.5" cy="880.5" r="321.5" fill="#5DA0FF"/>
</g>
<path opacity="0.15" d="M1655 83.7429V81.1481H1580.13V0H1577.53V81.1481H1476.22V0H1473.62V81.1481H1372.31V0H1369.71V81.1481H1268.4V0H1265.8V81.1481H1164.49V0H1161.89V81.1481H1060.58V0H1057.98V81.1481H956.665V0H954.067V81.1481H852.754V0H850.156V81.1481H748.844V0H746.246V81.1481H644.933V0H642.335V81.1481H541.023V0H538.425V81.1481H437.112V0H434.514V81.1481H333.202V0H330.604V81.1481H229.291V0H226.694V81.1481H125.381V0H122.783V81.1481H21.4704V0H18.8727V81.1481H-56V83.7429H18.8727V184.938H-56V187.533H18.8727V288.728H-56V291.323H18.8727V392.518H-56V395.113H18.8727V496.308H-56V498.902H18.8727V600.098H-56V602.692H18.8727V703.887H-56V706.482H18.8727V807.677H-56V810.272H18.8727V911.467H-56V914.062H18.8727V1015.26H-56V1017.85H18.8727V1099H21.4704V1017.85H122.783V1099H125.381V1017.85H226.694V1099H229.291V1017.85H330.604V1099H333.202V1017.85H434.514V1099H437.112V1017.85H538.425V1099H541.023V1017.85H642.335V1099H644.933V1017.85H746.246V1099H748.844V1017.85H850.156V1099H852.754V1017.85H954.067V1099H956.665V1017.85H1057.98V1099H1060.58V1017.85H1161.89V1099H1164.49V1017.85H1265.8V1099H1268.4V1017.85H1369.71V1099H1372.31V1017.85H1473.62V1099H1476.22V1017.85H1577.53V1099H1580.13V1017.85H1655V1015.26H1580.13V914.062H1655V911.467H1580.13V810.272H1655V807.677H1580.13V706.482H1655V703.887H1580.13V602.692H1655V600.098H1580.13V498.902H1655V496.308H1580.13V395.113H1655V392.518H1580.13V291.323H1655V288.728H1580.13V187.533H1655V184.938H1580.13V83.7429H1655ZM1473.62 83.7429V184.938H1372.31V83.7429H1473.62ZM541.023 498.902H642.335V600.098H541.023V498.902ZM538.425 600.098H437.112V498.902H538.425V600.098ZM644.933 498.902H746.246V600.098H644.933V498.902ZM748.844 498.902H850.156V600.098H748.844V498.902ZM852.754 498.902H954.067V600.098H852.754V498.902ZM956.665 498.902H1057.98V600.098H956.665V498.902ZM1060.58 498.902H1161.89V600.098H1060.58V498.902ZM1060.58 496.308V395.113H1161.89V496.308H1060.58ZM1057.98 496.308H956.665V395.113H1057.98V496.308ZM954.067 496.308H852.754V395.113H954.067V496.308ZM850.156 496.308H748.844V395.113H850.156V496.308ZM746.246 496.308H644.933V395.113H746.246V496.308ZM642.335 496.308H541.023V395.113H642.335V496.308ZM538.425 496.308H437.112V395.113H538.425V496.308ZM434.514 496.308H333.202V395.113H434.514V496.308ZM434.514 498.902V600.098H333.202V498.902H434.514ZM434.514 602.692V703.887H333.202V602.692H434.514ZM437.112 602.692H538.425V703.887H437.112V602.692ZM541.023 602.692H642.335V703.887H541.023V602.692ZM644.933 602.692H746.246V703.887H644.933V602.692ZM748.844 602.692H850.156V703.887H748.844V602.692ZM852.754 602.692H954.067V703.887H852.754V602.692ZM956.665 602.692H1057.98V703.887H956.665V602.692ZM1060.58 602.692H1161.89V703.887H1060.58V602.692ZM1164.49 602.692H1265.8V703.887H1164.49V602.692ZM1164.49 600.098V498.902H1265.8V600.098H1164.49ZM1164.49 496.308V395.113H1265.8V496.308H1164.49ZM1164.49 392.518V291.323H1265.8V392.518H1164.49ZM1161.89 392.518H1060.58V291.323H1161.89V392.518ZM1057.98 392.518H956.665V291.323H1057.98V392.518ZM954.067 392.518H852.754V291.323H954.067V392.518ZM850.156 392.518H748.844V291.323H850.156V392.518ZM746.246 392.518H644.933V291.323H746.246V392.518ZM642.335 392.518H541.023V291.323H642.335V392.518ZM538.425 392.518H437.112V291.323H538.425V392.518ZM434.514 392.518H333.202V291.323H434.514V392.518ZM330.604 392.518H229.291V291.323H330.604V392.518ZM330.604 395.113V496.308H229.291V395.113H330.604ZM330.604 498.902V600.098H229.291V498.902H330.604ZM330.604 602.692V703.887H229.291V602.692H330.604ZM330.604 706.482V807.677H229.291V706.482H330.604ZM333.202 706.482H434.514V807.677H333.202V706.482ZM437.112 706.482H538.425V807.677H437.112V706.482ZM541.023 706.482H642.335V807.677H541.023V706.482ZM644.933 706.482H746.246V807.677H644.933V706.482ZM748.844 706.482H850.156V807.677H748.844V706.482ZM852.754 706.482H954.067V807.677H852.754V706.482ZM956.665 706.482H1057.98V807.677H956.665V706.482ZM1060.58 706.482H1161.89V807.677H1060.58V706.482ZM1164.49 706.482H1265.8V807.677H1164.49V706.482ZM1268.4 706.482H1369.71V807.677H1268.4V706.482ZM1268.4 703.887V602.692H1369.71V703.887H1268.4ZM1268.4 600.098V498.902H1369.71V600.098H1268.4ZM1268.4 496.308V395.113H1369.71V496.308H1268.4ZM1268.4 392.518V291.323H1369.71V392.518H1268.4ZM1268.4 288.728V187.533H1369.71V288.728H1268.4ZM1265.8 288.728H1164.49V187.533H1265.8V288.728ZM1161.89 288.728H1060.58V187.533H1161.89V288.728ZM1057.98 288.728H956.665V187.533H1057.98V288.728ZM954.067 288.728H852.754V187.533H954.067V288.728ZM850.156 288.728H748.844V187.533H850.156V288.728ZM746.246 288.728H644.933V187.533H746.246V288.728ZM642.335 288.728H541.023V187.533H642.335V288.728ZM538.425 288.728H437.112V187.533H538.425V288.728ZM434.514 288.728H333.202V187.533H434.514V288.728ZM330.604 288.728H229.291V187.533H330.604V288.728ZM226.694 288.728H125.381V187.533H226.694V288.728ZM226.694 291.323V392.518H125.381V291.323H226.694ZM226.694 395.113V496.308H125.381V395.113H226.694ZM226.694 498.902V600.098H125.381V498.902H226.694ZM226.694 602.692V703.887H125.381V602.692H226.694ZM226.694 706.482V807.677H125.381V706.482H226.694ZM226.694 810.272V911.467H125.381V810.272H226.694ZM229.291 810.272H330.604V911.467H229.291V810.272ZM333.202 810.272H434.514V911.467H333.202V810.272ZM437.112 810.272H538.425V911.467H437.112V810.272ZM541.023 810.272H642.335V911.467H541.023V810.272ZM644.933 810.272H746.246V911.467H644.933V810.272ZM748.844 810.272H850.156V911.467H748.844V810.272ZM852.754 810.272H954.067V911.467H852.754V810.272ZM956.665 810.272H1057.98V911.467H956.665V810.272ZM1060.58 810.272H1161.89V911.467H1060.58V810.272ZM1164.49 810.272H1265.8V911.467H1164.49V810.272ZM1268.4 810.272H1369.71V911.467H1268.4V810.272ZM1372.31 810.272H1473.62V911.467H1372.31V810.272ZM1372.31 807.677V706.482H1473.62V807.677H1372.31ZM1372.31 703.887V602.692H1473.62V703.887H1372.31ZM1372.31 600.098V498.902H1473.62V600.098H1372.31ZM1372.31 496.308V395.113H1473.62V496.308H1372.31ZM1372.31 392.518V291.323H1473.62V392.518H1372.31ZM1372.31 288.728V187.533H1473.62V288.728H1372.31ZM1369.71 83.7429V184.938H1268.4V83.7429H1369.71ZM1265.8 83.7429V184.938H1164.49V83.7429H1265.8ZM1161.89 83.7429V184.938H1060.58V83.7429H1161.89ZM1057.98 83.7429V184.938H956.665V83.7429H1057.98ZM954.067 83.7429V184.938H852.754V83.7429H954.067ZM850.156 83.7429V184.938H748.844V83.7429H850.156ZM746.246 83.7429V184.938H644.933V83.7429H746.246ZM642.335 83.7429V184.938H541.023V83.7429H642.335ZM538.425 83.7429V184.938H437.112V83.7429H538.425ZM434.514 83.7429V184.938H333.202V83.7429H434.514ZM330.604 83.7429V184.938H229.291V83.7429H330.604ZM226.694 83.7429V184.938H125.381V83.7429H226.694ZM21.4704 83.7429H122.783V184.938H21.4704V83.7429ZM21.4704 187.533H122.783V288.728H21.4704V187.533ZM21.4704 291.323H122.783V392.518H21.4704V291.323ZM21.4704 395.113H122.783V496.308H21.4704V395.113ZM21.4704 498.902H122.783V600.098H21.4704V498.902ZM21.4704 602.692H122.783V703.887H21.4704V602.692ZM21.4704 706.482H122.783V807.677H21.4704V706.482ZM21.4704 810.272H122.783V911.467H21.4704V810.272ZM21.4704 1015.26V914.062H122.783V1015.26H21.4704ZM125.381 1015.26V914.062H226.694V1015.26H125.381ZM229.291 1015.26V914.062H330.604V1015.26H229.291ZM333.202 1015.26V914.062H434.514V1015.26H333.202ZM437.112 1015.26V914.062H538.425V1015.26H437.112ZM541.023 1015.26V914.062H642.335V1015.26H541.023ZM644.933 1015.26V914.062H746.246V1015.26H644.933ZM748.844 1015.26V914.062H850.156V1015.26H748.844ZM852.754 1015.26V914.062H954.067V1015.26H852.754ZM956.665 1015.26V914.062H1057.98V1015.26H956.665ZM1060.58 1015.26V914.062H1161.89V1015.26H1060.58ZM1164.49 1015.26V914.062H1265.8V1015.26H1164.49ZM1268.4 1015.26V914.062H1369.71V1015.26H1268.4ZM1372.31 1015.26V914.062H1473.62V1015.26H1372.31ZM1577.53 1015.26H1476.22V914.062H1577.53V1015.26ZM1577.53 911.467H1476.22V810.272H1577.53V911.467ZM1577.53 807.677H1476.22V706.482H1577.53V807.677ZM1577.53 703.887H1476.22V602.692H1577.53V703.887ZM1577.53 600.098H1476.22V498.902H1577.53V600.098ZM1577.53 496.308H1476.22V395.113H1577.53V496.308ZM1577.53 392.518H1476.22V291.323H1577.53V392.518ZM1577.53 288.728H1476.22V187.533H1577.53V288.728ZM1577.53 184.938H1476.22V83.7429H1577.53V184.938Z" fill="white"/>
</g>
<defs>
<filter id="filter0_f_61_932" x="610" y="69" width="1482" height="1482" filterUnits="userSpaceOnUse" color-interpolation-filters="sRGB">
<feFlood flood-opacity="0" result="BackgroundImageFix"/>
<feBlend mode="normal" in="SourceGraphic" in2="BackgroundImageFix" result="shape"/>
<feGaussianBlur stdDeviation="150" result="effect1_foregroundBlur_61_932"/>
</filter>
<filter id="filter1_f_61_932" x="-489" y="105" width="1412" height="1411" filterUnits="userSpaceOnUse" color-interpolation-filters="sRGB">
<feFlood flood-opacity="0" result="BackgroundImageFix"/>
<feBlend mode="normal" in="SourceGraphic" in2="BackgroundImageFix" result="shape"/>
<feGaussianBlur stdDeviation="150" result="effect1_foregroundBlur_61_932"/>
</filter>
<filter id="filter2_f_61_932" x="228" y="309" width="1143" height="1143" filterUnits="userSpaceOnUse" color-interpolation-filters="sRGB">
<feFlood flood-opacity="0" result="BackgroundImageFix"/>
<feBlend mode="normal" in="SourceGraphic" in2="BackgroundImageFix" result="shape"/>
<feGaussianBlur stdDeviation="125" result="effect1_foregroundBlur_61_932"/>
</filter>
</defs>
</svg>
