<svg width="457" height="422" viewBox="0 0 457 422" fill="none" xmlns="http://www.w3.org/2000/svg">
<g clip-path="url(#clip0_49_2973)">
<path d="M228.5 422C354.697 422 457 406.444 457 387.254C457 368.064 354.697 352.507 228.5 352.507C102.303 352.507 0 368.064 0 387.254C0 406.444 102.303 422 228.5 422Z" fill="#17BEF3"/>
<path d="M164.457 103.362H321.514C323.312 103.362 324.768 104.82 324.768 106.617V394.729C324.768 396.527 323.31 397.984 321.514 397.984H164.457C162.659 397.984 161.203 396.526 161.203 394.729V106.618C161.203 104.82 162.661 103.364 164.457 103.364V103.362Z" fill="#C4D1FF"/>
<path d="M214.911 109.059H267.805C269.603 109.059 271.059 110.517 271.059 112.313V156.262C271.059 158.061 269.601 159.517 267.805 159.517H214.911C213.112 159.517 211.656 158.059 211.656 156.262V112.313C211.656 110.515 213.114 109.059 214.911 109.059Z" fill="#182160"/>
<path d="M214.911 166.031H267.805C269.603 166.031 271.059 167.489 271.059 169.286V213.235C271.059 215.033 269.601 216.49 267.805 216.49H214.911C213.112 216.49 211.656 215.031 211.656 213.235V169.286C211.656 167.488 213.114 166.031 214.911 166.031Z" fill="#182160"/>
<path d="M214.911 223.002H267.805C269.603 223.002 271.059 224.461 271.059 226.257V270.206C271.059 272.004 269.601 273.461 267.805 273.461H214.911C213.112 273.461 211.656 272.003 211.656 270.206V226.257C211.656 224.459 213.114 223.002 214.911 223.002Z" fill="#182160"/>
<path d="M214.911 279.974H267.805C269.603 279.974 271.059 281.432 271.059 283.228V327.177C271.059 328.976 269.601 330.432 267.805 330.432H214.911C213.112 330.432 211.656 328.974 211.656 327.177V283.228C211.656 281.43 213.114 279.974 214.911 279.974Z" fill="#182160"/>
<path d="M214.911 336.945H267.805C269.603 336.945 271.059 338.403 271.059 340.2V387.405C271.059 389.203 269.601 390.66 267.805 390.66H214.911C213.112 390.66 211.656 389.201 211.656 387.405V340.2C211.656 338.401 213.114 336.945 214.911 336.945Z" fill="#182160"/>
<path d="M321.513 103.362C323.311 103.362 324.767 104.82 324.767 106.617V394.729C324.767 396.527 323.309 397.984 321.513 397.984H277.57V103.362H321.513Z" fill="#A1B2F2"/>
<path d="M318.258 117.199H284.895V119.641H318.258V117.199Z" fill="#727FB0"/>
<path d="M318.258 125.337H284.895V127.779H318.258V125.337Z" fill="#727FB0"/>
<path d="M318.258 133.476H284.895V135.917H318.258V133.476Z" fill="#727FB0"/>
<path d="M318.258 174.17H284.895V176.612H318.258V174.17Z" fill="#727FB0"/>
<path d="M318.258 182.309H284.895V184.75H318.258V182.309Z" fill="#727FB0"/>
<path d="M318.258 190.447H284.895V192.889H318.258V190.447Z" fill="#727FB0"/>
<path d="M318.258 231.141H284.895V233.583H318.258V231.141Z" fill="#727FB0"/>
<path d="M318.258 239.28H284.895V241.722H318.258V239.28Z" fill="#727FB0"/>
<path d="M318.258 247.418H284.895V249.86H318.258V247.418Z" fill="#727FB0"/>
<path d="M318.258 288.112H284.895V290.554H318.258V288.112Z" fill="#727FB0"/>
<path d="M318.258 296.251H284.895V298.693H318.258V296.251Z" fill="#727FB0"/>
<path d="M318.258 304.389H284.895V306.831H318.258V304.389Z" fill="#727FB0"/>
<path d="M315.004 336.945H329.652C331.45 336.945 332.906 338.403 332.906 340.2V386.591C332.906 388.389 331.448 389.846 329.652 389.846H315.004C313.206 389.846 311.75 388.387 311.75 386.591V340.2C311.75 338.402 313.208 336.945 315.004 336.945Z" fill="#182160"/>
<path d="M310.121 336.945H319.886C321.684 336.945 323.14 338.403 323.14 340.2V386.591C323.14 388.389 321.682 389.846 319.886 389.846H310.121C308.323 389.846 306.867 388.387 306.867 386.591V340.2C306.867 338.402 308.325 336.945 310.121 336.945Z" fill="#91A0DA"/>
<path d="M379.293 319.039H390.687C392.485 319.039 393.941 320.497 393.941 322.294V368.685C393.941 370.483 392.483 371.939 390.687 371.939H379.293C377.495 371.939 376.039 370.481 376.039 368.685V322.294C376.039 320.495 377.497 319.039 379.293 319.039Z" fill="#182160"/>
<path d="M381.227 353.367L386.41 356.592C388.128 357.661 388.653 359.918 387.586 361.636C386.55 363.302 384.396 363.848 382.699 362.904L382.542 362.812L377.359 359.587C375.641 358.518 375.116 356.261 376.184 354.543C377.186 352.929 379.241 352.367 380.91 353.191L381.07 353.274L381.227 353.367ZM381.227 340.345L386.41 343.57C388.128 344.639 388.653 346.896 387.586 348.614C386.55 350.28 384.396 350.826 382.699 349.882L382.542 349.79L377.359 346.564C375.641 345.495 375.116 343.238 376.184 341.52C377.186 339.907 379.241 339.345 380.91 340.168L381.07 340.252L381.227 340.345ZM376.184 328.498C377.219 326.832 379.373 326.286 381.07 327.23L381.227 327.322L386.41 330.547C388.128 331.617 388.653 333.874 387.586 335.592C386.55 337.257 384.396 337.803 382.699 336.86L382.542 336.767L377.359 333.542C375.641 332.473 375.116 330.216 376.184 328.498Z" fill="#727FB0"/>
<path d="M366.626 357.33C366.626 354.633 368.811 352.446 371.509 352.446H378.643C380.891 352.446 382.712 354.268 382.712 356.515C382.712 358.762 380.889 360.584 378.643 360.584H374.763V376.783C374.763 379.479 372.578 381.667 369.88 381.667H331.077C328.829 381.667 327.008 379.844 327.008 377.597C327.008 375.351 328.83 373.528 331.077 373.528H366.626V357.33Z" fill="#91A0DA"/>
<path d="M350.349 344.308C350.349 341.611 352.534 339.424 355.232 339.424H378.643C380.891 339.424 382.712 341.247 382.712 343.493C382.712 345.74 380.889 347.562 378.643 347.562H358.488V362.133C358.488 364.83 356.303 367.017 353.605 367.017H331.077C328.829 367.017 327.008 365.195 327.008 362.948C327.008 360.701 328.83 358.879 331.077 358.879H350.349V344.308Z" fill="#91A0DA"/>
<path d="M334.074 331.285C334.074 328.589 336.259 326.401 338.957 326.401H378.643C380.891 326.401 382.712 328.224 382.712 330.471C382.712 332.717 380.889 334.54 378.643 334.54H342.212V347.484C342.212 350.18 340.026 352.367 337.328 352.367H331.075C328.827 352.367 327.006 350.545 327.006 348.298C327.006 346.052 328.828 344.229 331.075 344.229H334.072V331.285H334.074Z" fill="#91A0DA"/>
<g opacity="0.1">
<path d="M211.656 223.002H167.713V273.462H211.656V223.002Z" fill="black"/>
</g>
<g opacity="0.1">
<path d="M211.656 166.031H167.713V216.491H211.656V166.031Z" fill="black"/>
</g>
<g opacity="0.1">
<path d="M211.656 109.059H167.713V159.519H211.656V109.059Z" fill="black"/>
</g>
<g opacity="0.1">
<path d="M211.656 279.974H167.713V330.434H211.656V279.974Z" fill="black"/>
</g>
<g opacity="0.1">
<path d="M208.401 336.945H170.967C169.17 336.945 167.713 338.402 167.713 340.2V387.407C167.713 389.204 169.17 390.661 170.967 390.661H208.401C210.199 390.661 211.656 389.204 211.656 387.407V340.2C211.656 338.402 210.199 336.945 208.401 336.945Z" fill="black"/>
</g>
<path d="M184.885 157.891H179.025V159.356H184.885V157.891Z" fill="#91A0DA"/>
<path d="M250.799 157.891H244.939V159.356H250.799V157.891Z" fill="#91A0DA"/>
<path d="M261.784 138.848V155.695C261.784 157.314 260.472 158.625 258.854 158.625H173.897C172.278 158.625 170.967 157.314 170.967 155.695V138.848C170.967 137.229 172.278 135.917 173.897 135.917H258.854C260.472 135.917 261.784 137.229 261.784 138.848Z" fill="#EAEFFF"/>
<path d="M267.481 138.848V155.695C267.481 157.314 266.17 158.625 264.551 158.625H256.902V135.917H264.551C266.17 135.917 267.481 137.229 267.481 138.848Z" fill="#91A0DA"/>
<path d="M184.517 141.044H216.009C216.616 141.044 217.108 141.536 217.108 142.143C217.108 142.75 216.616 143.242 216.009 143.242H184.517C183.91 143.242 183.418 142.75 183.418 142.143C183.418 141.536 183.91 141.044 184.517 141.044Z" fill="#FC60D2"/>
<path d="M184.517 145.439H216.009C216.616 145.439 217.108 145.931 217.108 146.538C217.108 147.145 216.616 147.637 216.009 147.637H184.517C183.91 147.637 183.418 147.145 183.418 146.538C183.418 145.931 183.91 145.439 184.517 145.439Z" fill="#A1B2F2"/>
<path d="M222.603 141.044C223.21 141.044 223.701 141.536 223.701 142.143V146.538C223.701 147.145 223.21 147.637 222.603 147.637C221.996 147.637 221.504 147.145 221.504 146.538V142.143C221.504 141.536 221.996 141.044 222.603 141.044Z" fill="#5DA0FF"/>
<path d="M226.265 141.044C226.872 141.044 227.363 141.536 227.363 142.143V146.538C227.363 147.145 226.872 147.637 226.265 147.637C225.658 147.637 225.166 147.145 225.166 146.538V142.143C225.166 141.536 225.658 141.044 226.265 141.044Z" fill="#5DA0FF"/>
<path d="M229.925 141.044C230.532 141.044 231.024 141.536 231.024 142.143V146.538C231.024 147.145 230.532 147.637 229.925 147.637C229.318 147.637 228.826 147.145 228.826 146.538V142.143C228.826 141.536 229.318 141.044 229.925 141.044Z" fill="#5DA0FF"/>
<path d="M233.587 141.044C234.194 141.044 234.686 141.536 234.686 142.143V146.538C234.686 147.145 234.194 147.637 233.587 147.637C232.98 147.637 232.488 147.145 232.488 146.538V142.143C232.488 141.536 232.98 141.044 233.587 141.044Z" fill="#FFBF29"/>
<path d="M237.249 141.044C237.856 141.044 238.348 141.536 238.348 142.143V146.538C238.348 147.145 237.856 147.637 237.249 147.637C236.642 147.637 236.15 147.145 236.15 146.538V142.143C236.15 141.536 236.642 141.044 237.249 141.044Z" fill="#FC60D2"/>
<path d="M240.911 141.044C241.518 141.044 242.01 141.536 242.01 142.143V146.538C242.01 147.145 241.518 147.637 240.911 147.637C240.304 147.637 239.812 147.145 239.812 146.538V142.143C239.812 141.536 240.304 141.044 240.911 141.044Z" fill="#FC60D2"/>
<path d="M180.49 140.311H176.828V154.961H180.49V140.311Z" fill="#A1B2F2"/>
<path d="M179.026 140.311H175.363V154.961H179.026V140.311Z" fill="#91A0DA"/>
<path d="M184.885 134.29H179.025V135.755H184.885V134.29Z" fill="#91A0DA"/>
<path d="M250.799 134.29H244.939V135.755H250.799V134.29Z" fill="#91A0DA"/>
<path d="M261.784 115.245V132.093C261.784 133.711 260.472 135.023 258.854 135.023H173.897C172.278 135.023 170.967 133.711 170.967 132.093V115.245C170.967 113.627 172.278 112.315 173.897 112.315H258.854C260.472 112.315 261.784 113.627 261.784 115.245Z" fill="#EAEFFF"/>
<path d="M267.481 115.245V132.093C267.481 133.711 266.17 135.023 264.551 135.023H256.902V112.315H264.551C266.17 112.315 267.481 113.627 267.481 115.245Z" fill="#91A0DA"/>
<path d="M184.517 117.443H216.009C216.616 117.443 217.108 117.935 217.108 118.542C217.108 119.149 216.616 119.641 216.009 119.641H184.517C183.91 119.641 183.418 119.149 183.418 118.542C183.418 117.935 183.91 117.443 184.517 117.443Z" fill="#FC60D2"/>
<path d="M184.517 121.836H216.009C216.616 121.836 217.108 122.328 217.108 122.935C217.108 123.542 216.616 124.034 216.009 124.034H184.517C183.91 124.034 183.418 123.542 183.418 122.935C183.418 122.328 183.91 121.836 184.517 121.836Z" fill="#A1B2F2"/>
<path d="M222.603 117.443C223.21 117.443 223.701 117.935 223.701 118.542V122.937C223.701 123.544 223.21 124.036 222.603 124.036C221.996 124.036 221.504 123.544 221.504 122.937V118.542C221.504 117.935 221.996 117.443 222.603 117.443Z" fill="#5DA0FF"/>
<path d="M226.265 117.443C226.872 117.443 227.363 117.935 227.363 118.542V122.937C227.363 123.544 226.872 124.036 226.265 124.036C225.658 124.036 225.166 123.544 225.166 122.937V118.542C225.166 117.935 225.658 117.443 226.265 117.443Z" fill="#5DA0FF"/>
<path d="M229.925 117.443C230.532 117.443 231.024 117.935 231.024 118.542V122.937C231.024 123.544 230.532 124.036 229.925 124.036C229.318 124.036 228.826 123.544 228.826 122.937V118.542C228.826 117.935 229.318 117.443 229.925 117.443Z" fill="#5DA0FF"/>
<path d="M233.587 117.443C234.194 117.443 234.686 117.935 234.686 118.542V122.937C234.686 123.544 234.194 124.036 233.587 124.036C232.98 124.036 232.488 123.544 232.488 122.937V118.542C232.488 117.935 232.98 117.443 233.587 117.443Z" fill="#FFBF29"/>
<path d="M237.249 117.443C237.856 117.443 238.348 117.935 238.348 118.542V122.937C238.348 123.544 237.856 124.036 237.249 124.036C236.642 124.036 236.15 123.544 236.15 122.937V118.542C236.15 117.935 236.642 117.443 237.249 117.443Z" fill="#FC60D2"/>
<path d="M240.911 117.443C241.518 117.443 242.01 117.935 242.01 118.542V122.937C242.01 123.544 241.518 124.036 240.911 124.036C240.304 124.036 239.812 123.544 239.812 122.937V118.542C239.812 117.935 240.304 117.443 240.911 117.443Z" fill="#FC60D2"/>
<path d="M180.49 116.71H176.828V131.36H180.49V116.71Z" fill="#A1B2F2"/>
<path d="M179.026 116.71H175.363V131.36H179.026V116.71Z" fill="#91A0DA"/>
<path d="M184.885 214.862H179.025V216.327H184.885V214.862Z" fill="#91A0DA"/>
<path d="M250.799 214.862H244.939V216.327H250.799V214.862Z" fill="#91A0DA"/>
<path d="M261.784 195.819V212.666C261.784 214.285 260.472 215.597 258.854 215.597H173.897C172.278 215.597 170.967 214.285 170.967 212.666V195.819C170.967 194.2 172.278 192.889 173.897 192.889H258.854C260.472 192.889 261.784 194.2 261.784 195.819Z" fill="#EAEFFF"/>
<path d="M267.481 195.819V212.666C267.481 214.285 266.17 215.597 264.551 215.597H256.902V192.889H264.551C266.17 192.889 267.481 194.2 267.481 195.819Z" fill="#91A0DA"/>
<path d="M184.517 198.017H216.009C216.616 198.017 217.108 198.508 217.108 199.115C217.108 199.722 216.616 200.214 216.009 200.214H184.517C183.91 200.214 183.418 199.722 183.418 199.115C183.418 198.508 183.91 198.017 184.517 198.017Z" fill="#FC60D2"/>
<path d="M184.517 202.41H216.009C216.616 202.41 217.108 202.902 217.108 203.509C217.108 204.116 216.616 204.608 216.009 204.608H184.517C183.91 204.608 183.418 204.116 183.418 203.509C183.418 202.902 183.91 202.41 184.517 202.41Z" fill="#A1B2F2"/>
<path d="M222.603 198.017C223.21 198.017 223.701 198.508 223.701 199.115V203.511C223.701 204.118 223.21 204.61 222.603 204.61C221.996 204.61 221.504 204.118 221.504 203.511V199.115C221.504 198.508 221.996 198.017 222.603 198.017Z" fill="#5DA0FF"/>
<path d="M226.265 198.017C226.872 198.017 227.363 198.508 227.363 199.115V203.511C227.363 204.118 226.872 204.61 226.265 204.61C225.658 204.61 225.166 204.118 225.166 203.511V199.115C225.166 198.508 225.658 198.017 226.265 198.017Z" fill="#5DA0FF"/>
<path d="M229.925 198.017C230.532 198.017 231.024 198.508 231.024 199.115V203.511C231.024 204.118 230.532 204.61 229.925 204.61C229.318 204.61 228.826 204.118 228.826 203.511V199.115C228.826 198.508 229.318 198.017 229.925 198.017Z" fill="#5DA0FF"/>
<path d="M233.587 198.017C234.194 198.017 234.686 198.508 234.686 199.115V203.511C234.686 204.118 234.194 204.61 233.587 204.61C232.98 204.61 232.488 204.118 232.488 203.511V199.115C232.488 198.508 232.98 198.017 233.587 198.017Z" fill="#FFBF29"/>
<path d="M237.249 198.017C237.856 198.017 238.348 198.508 238.348 199.115V203.511C238.348 204.118 237.856 204.61 237.249 204.61C236.642 204.61 236.15 204.118 236.15 203.511V199.115C236.15 198.508 236.642 198.017 237.249 198.017Z" fill="#FC60D2"/>
<path d="M240.911 198.017C241.518 198.017 242.01 198.508 242.01 199.115V203.511C242.01 204.118 241.518 204.61 240.911 204.61C240.304 204.61 239.812 204.118 239.812 203.511V199.115C239.812 198.508 240.304 198.017 240.911 198.017Z" fill="#FC60D2"/>
<path d="M180.49 197.284H176.828V211.934H180.49V197.284Z" fill="#A1B2F2"/>
<path d="M179.026 197.284H175.363V211.934H179.026V197.284Z" fill="#91A0DA"/>
<path d="M184.885 191.262H179.025V192.727H184.885V191.262Z" fill="#91A0DA"/>
<path d="M250.799 191.262H244.939V192.727H250.799V191.262Z" fill="#91A0DA"/>
<path d="M261.784 172.216V189.064C261.784 190.682 260.472 191.994 258.854 191.994H173.897C172.278 191.994 170.967 190.682 170.967 189.064V172.216C170.967 170.598 172.278 169.286 173.897 169.286H258.854C260.472 169.286 261.784 170.598 261.784 172.216Z" fill="#EAEFFF"/>
<path d="M267.481 172.216V189.064C267.481 190.682 266.17 191.994 264.551 191.994H256.902V169.286H264.551C266.17 169.286 267.481 170.598 267.481 172.216Z" fill="#91A0DA"/>
<path d="M184.517 174.414H216.009C216.616 174.414 217.108 174.906 217.108 175.513C217.108 176.12 216.616 176.612 216.009 176.612H184.517C183.91 176.612 183.418 176.12 183.418 175.513C183.418 174.906 183.91 174.414 184.517 174.414Z" fill="#FC60D2"/>
<path d="M184.517 178.808H216.009C216.616 178.808 217.108 179.299 217.108 179.906C217.108 180.513 216.616 181.005 216.009 181.005H184.517C183.91 181.005 183.418 180.513 183.418 179.906C183.418 179.299 183.91 178.808 184.517 178.808Z" fill="#A1B2F2"/>
<path d="M222.603 174.414C223.21 174.414 223.701 174.906 223.701 175.513V179.908C223.701 180.515 223.21 181.007 222.603 181.007C221.996 181.007 221.504 180.515 221.504 179.908V175.513C221.504 174.906 221.996 174.414 222.603 174.414Z" fill="#5DA0FF"/>
<path d="M226.265 174.414C226.872 174.414 227.363 174.906 227.363 175.513V179.908C227.363 180.515 226.872 181.007 226.265 181.007C225.658 181.007 225.166 180.515 225.166 179.908V175.513C225.166 174.906 225.658 174.414 226.265 174.414Z" fill="#5DA0FF"/>
<path d="M229.925 174.414C230.532 174.414 231.024 174.906 231.024 175.513V179.908C231.024 180.515 230.532 181.007 229.925 181.007C229.318 181.007 228.826 180.515 228.826 179.908V175.513C228.826 174.906 229.318 174.414 229.925 174.414Z" fill="#5DA0FF"/>
<path d="M233.587 174.414C234.194 174.414 234.686 174.906 234.686 175.513V179.908C234.686 180.515 234.194 181.007 233.587 181.007C232.98 181.007 232.488 180.515 232.488 179.908V175.513C232.488 174.906 232.98 174.414 233.587 174.414Z" fill="#FFBF29"/>
<path d="M237.249 174.414C237.856 174.414 238.348 174.906 238.348 175.513V179.908C238.348 180.515 237.856 181.007 237.249 181.007C236.642 181.007 236.15 180.515 236.15 179.908V175.513C236.15 174.906 236.642 174.414 237.249 174.414Z" fill="#FC60D2"/>
<path d="M240.911 174.414C241.518 174.414 242.01 174.906 242.01 175.513V179.908C242.01 180.515 241.518 181.007 240.911 181.007C240.304 181.007 239.812 180.515 239.812 179.908V175.513C239.812 174.906 240.304 174.414 240.911 174.414Z" fill="#FC60D2"/>
<path d="M180.49 173.682H176.828V188.331H180.49V173.682Z" fill="#A1B2F2"/>
<path d="M179.026 173.682H175.363V188.331H179.026V173.682Z" fill="#91A0DA"/>
<path d="M184.885 271.835H179.025V273.3H184.885V271.835Z" fill="#91A0DA"/>
<path d="M250.799 271.835H244.939V273.3H250.799V271.835Z" fill="#91A0DA"/>
<path d="M261.784 252.79V269.637C261.784 271.256 260.472 272.568 258.854 272.568H173.897C172.278 272.568 170.967 271.256 170.967 269.637V252.79C170.967 251.172 172.278 249.86 173.897 249.86H258.854C260.472 249.86 261.784 251.172 261.784 252.79Z" fill="#EAEFFF"/>
<path d="M267.481 252.79V269.637C267.481 271.256 266.17 272.568 264.551 272.568H256.902V249.86H264.551C266.17 249.86 267.481 251.172 267.481 252.79Z" fill="#91A0DA"/>
<path d="M184.517 254.988H216.009C216.616 254.988 217.108 255.48 217.108 256.087C217.108 256.694 216.616 257.185 216.009 257.185H184.517C183.91 257.185 183.418 256.694 183.418 256.087C183.418 255.48 183.91 254.988 184.517 254.988Z" fill="#FC60D2"/>
<path d="M184.517 259.381H216.009C216.616 259.381 217.108 259.873 217.108 260.48C217.108 261.087 216.616 261.579 216.009 261.579H184.517C183.91 261.579 183.418 261.087 183.418 260.48C183.418 259.873 183.91 259.381 184.517 259.381Z" fill="#A1B2F2"/>
<path d="M222.603 254.988C223.21 254.988 223.701 255.48 223.701 256.087V260.482C223.701 261.089 223.21 261.581 222.603 261.581C221.996 261.581 221.504 261.089 221.504 260.482V256.087C221.504 255.48 221.996 254.988 222.603 254.988Z" fill="#5DA0FF"/>
<path d="M226.265 254.988C226.872 254.988 227.363 255.48 227.363 256.087V260.482C227.363 261.089 226.872 261.581 226.265 261.581C225.658 261.581 225.166 261.089 225.166 260.482V256.087C225.166 255.48 225.658 254.988 226.265 254.988Z" fill="#5DA0FF"/>
<path d="M229.925 254.988C230.532 254.988 231.024 255.48 231.024 256.087V260.482C231.024 261.089 230.532 261.581 229.925 261.581C229.318 261.581 228.826 261.089 228.826 260.482V256.087C228.826 255.48 229.318 254.988 229.925 254.988Z" fill="#5DA0FF"/>
<path d="M233.587 254.988C234.194 254.988 234.686 255.48 234.686 256.087V260.482C234.686 261.089 234.194 261.581 233.587 261.581C232.98 261.581 232.488 261.089 232.488 260.482V256.087C232.488 255.48 232.98 254.988 233.587 254.988Z" fill="#FFBF29"/>
<path d="M237.249 254.988C237.856 254.988 238.348 255.48 238.348 256.087V260.482C238.348 261.089 237.856 261.581 237.249 261.581C236.642 261.581 236.15 261.089 236.15 260.482V256.087C236.15 255.48 236.642 254.988 237.249 254.988Z" fill="#FC60D2"/>
<path d="M240.911 254.988C241.518 254.988 242.01 255.48 242.01 256.087V260.482C242.01 261.089 241.518 261.581 240.911 261.581C240.304 261.581 239.812 261.089 239.812 260.482V256.087C239.812 255.48 240.304 254.988 240.911 254.988Z" fill="#FC60D2"/>
<path d="M180.49 254.255H176.828V268.905H180.49V254.255Z" fill="#A1B2F2"/>
<path d="M179.026 254.255H175.363V268.905H179.026V254.255Z" fill="#91A0DA"/>
<path d="M184.885 248.233H179.025V249.698H184.885V248.233Z" fill="#91A0DA"/>
<path d="M250.799 248.233H244.939V249.698H250.799V248.233Z" fill="#91A0DA"/>
<path d="M261.784 229.188V246.035C261.784 247.654 260.472 248.965 258.854 248.965H173.897C172.278 248.965 170.967 247.654 170.967 246.035V229.188C170.967 227.569 172.278 226.257 173.897 226.257H258.854C260.472 226.257 261.784 227.569 261.784 229.188Z" fill="#EAEFFF"/>
<path d="M267.481 229.188V246.035C267.481 247.654 266.17 248.965 264.551 248.965H256.902V226.257H264.551C266.17 226.257 267.481 227.569 267.481 229.188Z" fill="#91A0DA"/>
<path d="M184.517 231.385H216.009C216.616 231.385 217.108 231.877 217.108 232.484C217.108 233.091 216.616 233.583 216.009 233.583H184.517C183.91 233.583 183.418 233.091 183.418 232.484C183.418 231.877 183.91 231.385 184.517 231.385Z" fill="#FC60D2"/>
<path d="M184.517 235.779H216.009C216.616 235.779 217.108 236.271 217.108 236.878C217.108 237.485 216.616 237.977 216.009 237.977H184.517C183.91 237.977 183.418 237.485 183.418 236.878C183.418 236.271 183.91 235.779 184.517 235.779Z" fill="#A1B2F2"/>
<path d="M222.603 231.385C223.21 231.385 223.701 231.877 223.701 232.484V236.88C223.701 237.487 223.21 237.978 222.603 237.978C221.996 237.978 221.504 237.487 221.504 236.88V232.484C221.504 231.877 221.996 231.385 222.603 231.385Z" fill="#5DA0FF"/>
<path d="M226.265 231.385C226.872 231.385 227.363 231.877 227.363 232.484V236.88C227.363 237.487 226.872 237.978 226.265 237.978C225.658 237.978 225.166 237.487 225.166 236.88V232.484C225.166 231.877 225.658 231.385 226.265 231.385Z" fill="#5DA0FF"/>
<path d="M229.925 231.385C230.532 231.385 231.024 231.877 231.024 232.484V236.88C231.024 237.487 230.532 237.978 229.925 237.978C229.318 237.978 228.826 237.487 228.826 236.88V232.484C228.826 231.877 229.318 231.385 229.925 231.385Z" fill="#5DA0FF"/>
<path d="M233.587 231.385C234.194 231.385 234.686 231.877 234.686 232.484V236.88C234.686 237.487 234.194 237.978 233.587 237.978C232.98 237.978 232.488 237.487 232.488 236.88V232.484C232.488 231.877 232.98 231.385 233.587 231.385Z" fill="#FFBF29"/>
<path d="M237.249 231.385C237.856 231.385 238.348 231.877 238.348 232.484V236.88C238.348 237.487 237.856 237.978 237.249 237.978C236.642 237.978 236.15 237.487 236.15 236.88V232.484C236.15 231.877 236.642 231.385 237.249 231.385Z" fill="#FC60D2"/>
<path d="M240.911 231.385C241.518 231.385 242.01 231.877 242.01 232.484V236.88C242.01 237.487 241.518 237.978 240.911 237.978C240.304 237.978 239.812 237.487 239.812 236.88V232.484C239.812 231.877 240.304 231.385 240.911 231.385Z" fill="#FC60D2"/>
<path d="M180.49 230.653H176.828V245.302H180.49V230.653Z" fill="#A1B2F2"/>
<path d="M179.026 230.653H175.363V245.302H179.026V230.653Z" fill="#91A0DA"/>
<path d="M184.885 328.806H179.025V330.271H184.885V328.806Z" fill="#91A0DA"/>
<path d="M250.799 328.806H244.939V330.271H250.799V328.806Z" fill="#91A0DA"/>
<path d="M261.784 309.761V326.609C261.784 328.227 260.472 329.539 258.854 329.539H173.897C172.278 329.539 170.967 328.227 170.967 326.609V309.761C170.967 308.143 172.278 306.831 173.897 306.831H258.854C260.472 306.831 261.784 308.143 261.784 309.761Z" fill="#EAEFFF"/>
<path d="M267.481 309.761V326.609C267.481 328.227 266.17 329.539 264.551 329.539H256.902V306.831H264.551C266.17 306.831 267.481 308.143 267.481 309.761Z" fill="#91A0DA"/>
<path d="M184.517 311.959H216.009C216.616 311.959 217.108 312.451 217.108 313.058C217.108 313.665 216.616 314.157 216.009 314.157H184.517C183.91 314.157 183.418 313.665 183.418 313.058C183.418 312.451 183.91 311.959 184.517 311.959Z" fill="#FC60D2"/>
<path d="M184.517 316.353H216.009C216.616 316.353 217.108 316.844 217.108 317.451C217.108 318.058 216.616 318.55 216.009 318.55H184.517C183.91 318.55 183.418 318.058 183.418 317.451C183.418 316.844 183.91 316.353 184.517 316.353Z" fill="#A1B2F2"/>
<path d="M222.603 311.959C223.21 311.959 223.701 312.451 223.701 313.058V317.453C223.701 318.06 223.21 318.552 222.603 318.552C221.996 318.552 221.504 318.06 221.504 317.453V313.058C221.504 312.451 221.996 311.959 222.603 311.959Z" fill="#5DA0FF"/>
<path d="M226.265 311.959C226.872 311.959 227.363 312.451 227.363 313.058V317.453C227.363 318.06 226.872 318.552 226.265 318.552C225.658 318.552 225.166 318.06 225.166 317.453V313.058C225.166 312.451 225.658 311.959 226.265 311.959Z" fill="#5DA0FF"/>
<path d="M229.925 311.959C230.532 311.959 231.024 312.451 231.024 313.058V317.453C231.024 318.06 230.532 318.552 229.925 318.552C229.318 318.552 228.826 318.06 228.826 317.453V313.058C228.826 312.451 229.318 311.959 229.925 311.959Z" fill="#5DA0FF"/>
<path d="M233.587 311.959C234.194 311.959 234.686 312.451 234.686 313.058V317.453C234.686 318.06 234.194 318.552 233.587 318.552C232.98 318.552 232.488 318.06 232.488 317.453V313.058C232.488 312.451 232.98 311.959 233.587 311.959Z" fill="#FFBF29"/>
<path d="M237.249 311.959C237.856 311.959 238.348 312.451 238.348 313.058V317.453C238.348 318.06 237.856 318.552 237.249 318.552C236.642 318.552 236.15 318.06 236.15 317.453V313.058C236.15 312.451 236.642 311.959 237.249 311.959Z" fill="#FC60D2"/>
<path d="M240.911 311.959C241.518 311.959 242.01 312.451 242.01 313.058V317.453C242.01 318.06 241.518 318.552 240.911 318.552C240.304 318.552 239.812 318.06 239.812 317.453V313.058C239.812 312.451 240.304 311.959 240.911 311.959Z" fill="#FC60D2"/>
<path d="M180.49 311.227H176.828V325.876H180.49V311.227Z" fill="#A1B2F2"/>
<path d="M179.026 311.227H175.363V325.876H179.026V311.227Z" fill="#91A0DA"/>
<path d="M184.885 305.204H179.025V306.669H184.885V305.204Z" fill="#91A0DA"/>
<path d="M250.799 305.204H244.939V306.669H250.799V305.204Z" fill="#91A0DA"/>
<path d="M261.784 286.159V303.006C261.784 304.625 260.472 305.936 258.854 305.936H173.897C172.278 305.936 170.967 304.625 170.967 303.006V286.159C170.967 284.54 172.278 283.229 173.897 283.229H258.854C260.472 283.229 261.784 284.54 261.784 286.159Z" fill="#EAEFFF"/>
<path d="M267.481 286.159V303.006C267.481 304.625 266.17 305.936 264.551 305.936H256.902V283.229H264.551C266.17 283.229 267.481 284.54 267.481 286.159Z" fill="#91A0DA"/>
<path d="M184.517 288.356H216.009C216.616 288.356 217.108 288.848 217.108 289.455C217.108 290.062 216.616 290.554 216.009 290.554H184.517C183.91 290.554 183.418 290.062 183.418 289.455C183.418 288.848 183.91 288.356 184.517 288.356Z" fill="#FC60D2"/>
<path d="M184.517 292.752H216.009C216.616 292.752 217.108 293.244 217.108 293.851C217.108 294.458 216.616 294.95 216.009 294.95H184.517C183.91 294.95 183.418 294.458 183.418 293.851C183.418 293.244 183.91 292.752 184.517 292.752Z" fill="#A1B2F2"/>
<path d="M222.603 288.356C223.21 288.356 223.701 288.848 223.701 289.455V293.851C223.701 294.458 223.21 294.95 222.603 294.95C221.996 294.95 221.504 294.458 221.504 293.851V289.455C221.504 288.848 221.996 288.356 222.603 288.356Z" fill="#5DA0FF"/>
<path d="M226.265 288.356C226.872 288.356 227.363 288.848 227.363 289.455V293.851C227.363 294.458 226.872 294.95 226.265 294.95C225.658 294.95 225.166 294.458 225.166 293.851V289.455C225.166 288.848 225.658 288.356 226.265 288.356Z" fill="#5DA0FF"/>
<path d="M229.925 288.356C230.532 288.356 231.024 288.848 231.024 289.455V293.851C231.024 294.458 230.532 294.95 229.925 294.95C229.318 294.95 228.826 294.458 228.826 293.851V289.455C228.826 288.848 229.318 288.356 229.925 288.356Z" fill="#5DA0FF"/>
<path d="M233.587 288.356C234.194 288.356 234.686 288.848 234.686 289.455V293.851C234.686 294.458 234.194 294.95 233.587 294.95C232.98 294.95 232.488 294.458 232.488 293.851V289.455C232.488 288.848 232.98 288.356 233.587 288.356Z" fill="#FFBF29"/>
<path d="M237.249 288.356C237.856 288.356 238.348 288.848 238.348 289.455V293.851C238.348 294.458 237.856 294.95 237.249 294.95C236.642 294.95 236.15 294.458 236.15 293.851V289.455C236.15 288.848 236.642 288.356 237.249 288.356Z" fill="#FC60D2"/>
<path d="M240.911 288.356C241.518 288.356 242.01 288.848 242.01 289.455V293.851C242.01 294.458 241.518 294.95 240.911 294.95C240.304 294.95 239.812 294.458 239.812 293.851V289.455C239.812 288.848 240.304 288.356 240.911 288.356Z" fill="#FC60D2"/>
<path d="M180.49 287.624H176.828V302.274H180.49V287.624Z" fill="#A1B2F2"/>
<path d="M179.026 287.624H175.363V302.274H179.026V287.624Z" fill="#91A0DA"/>
<path d="M179.025 389.033H184.883V390.498H179.025V389.033Z" fill="#91A0DA"/>
<path d="M244.939 389.033H250.799V390.498H244.939V389.033Z" fill="#91A0DA"/>
<path d="M261.784 342.316V386.835C261.784 388.453 260.472 389.765 258.854 389.765H173.897C172.278 389.765 170.967 388.453 170.967 386.835V342.316C170.967 340.697 172.278 339.385 173.897 339.385H258.854C260.472 339.385 261.784 340.697 261.784 342.316Z" fill="#EAEFFF"/>
<path d="M230.657 347.525H249.944C250.551 347.525 251.043 348.017 251.043 348.624C251.043 349.231 250.551 349.723 249.944 349.723H230.657C230.05 349.723 229.559 349.231 229.559 348.624C229.559 348.017 230.05 347.525 230.657 347.525Z" fill="#5DA0FF"/>
<path d="M230.657 351.919H249.944C250.551 351.919 251.043 352.411 251.043 353.018C251.043 353.625 250.551 354.117 249.944 354.117H230.657C230.05 354.117 229.559 353.625 229.559 353.018C229.559 352.411 230.05 351.919 230.657 351.919Z" fill="#5DA0FF"/>
<path d="M230.657 356.479H249.944C250.551 356.479 251.043 356.97 251.043 357.577C251.043 358.184 250.551 358.676 249.944 358.676H230.657C230.05 358.676 229.559 358.184 229.559 357.577C229.559 356.97 230.05 356.479 230.657 356.479Z" fill="#5DA0FF"/>
<path d="M230.657 360.872H249.944C250.551 360.872 251.043 361.364 251.043 361.971C251.043 362.578 250.551 363.07 249.944 363.07H230.657C230.05 363.07 229.559 362.578 229.559 361.971C229.559 361.364 230.05 360.872 230.657 360.872Z" fill="#FFBF29"/>
<path d="M230.657 365.43H249.944C250.551 365.43 251.043 365.922 251.043 366.529C251.043 367.135 250.551 367.627 249.944 367.627H230.657C230.05 367.627 229.559 367.135 229.559 366.529C229.559 365.922 230.05 365.43 230.657 365.43Z" fill="#FFBF29"/>
<path d="M230.657 369.825H249.944C250.551 369.825 251.043 370.317 251.043 370.924C251.043 371.531 250.551 372.023 249.944 372.023H230.657C230.05 372.023 229.559 371.531 229.559 370.924C229.559 370.317 230.05 369.825 230.657 369.825Z" fill="#FFBF29"/>
<path d="M230.657 374.383H249.944C250.551 374.383 251.043 374.875 251.043 375.482C251.043 376.089 250.551 376.581 249.944 376.581H230.657C230.05 376.581 229.559 376.089 229.559 375.482C229.559 374.875 230.05 374.383 230.657 374.383Z" fill="#FC60D2"/>
<path d="M230.657 378.778H249.944C250.551 378.778 251.043 379.27 251.043 379.877C251.043 380.484 250.551 380.976 249.944 380.976H230.657C230.05 380.976 229.559 380.484 229.559 379.877C229.559 379.27 230.05 378.778 230.657 378.778Z" fill="#FC60D2"/>
<path d="M186.43 346.711H189.684C190.134 346.711 190.498 347.075 190.498 347.525V350.78C190.498 351.23 190.134 351.595 189.684 351.595H186.43C185.98 351.595 185.615 351.23 185.615 350.78V347.525C185.615 347.075 185.98 346.711 186.43 346.711Z" fill="#5DA0FF"/>
<path d="M194.568 346.711H197.823C198.273 346.711 198.637 347.075 198.637 347.525V350.78C198.637 351.23 198.273 351.595 197.823 351.595H194.568C194.118 351.595 193.754 351.23 193.754 350.78V347.525C193.754 347.075 194.118 346.711 194.568 346.711Z" fill="#5DA0FF"/>
<path d="M202.705 346.711H205.959C206.409 346.711 206.774 347.075 206.774 347.525V350.78C206.774 351.23 206.409 351.595 205.959 351.595H202.705C202.255 351.595 201.891 351.23 201.891 350.78V347.525C201.891 347.075 202.255 346.711 202.705 346.711Z" fill="#5DA0FF"/>
<path d="M210.842 346.711H214.096C214.546 346.711 214.91 347.075 214.91 347.525V350.78C214.91 351.23 214.546 351.595 214.096 351.595H210.842C210.392 351.595 210.027 351.23 210.027 350.78V347.525C210.027 347.075 210.392 346.711 210.842 346.711Z" fill="#5DA0FF"/>
<path d="M218.98 346.711H222.235C222.685 346.711 223.049 347.075 223.049 347.525V350.78C223.049 351.23 222.685 351.595 222.235 351.595H218.98C218.531 351.595 218.166 351.23 218.166 350.78V347.525C218.166 347.075 218.531 346.711 218.98 346.711Z" fill="#A1B2F2"/>
<path d="M186.43 354.85H189.684C190.134 354.85 190.498 355.214 190.498 355.664V358.919C190.498 359.369 190.134 359.733 189.684 359.733H186.43C185.98 359.733 185.615 359.369 185.615 358.919V355.664C185.615 355.214 185.98 354.85 186.43 354.85Z" fill="#5DA0FF"/>
<path d="M194.568 354.85H197.823C198.273 354.85 198.637 355.214 198.637 355.664V358.919C198.637 359.369 198.273 359.733 197.823 359.733H194.568C194.118 359.733 193.754 359.369 193.754 358.919V355.664C193.754 355.214 194.118 354.85 194.568 354.85Z" fill="#5DA0FF"/>
<path d="M202.705 354.85H205.959C206.409 354.85 206.774 355.214 206.774 355.664V358.919C206.774 359.369 206.409 359.733 205.959 359.733H202.705C202.255 359.733 201.891 359.369 201.891 358.919V355.664C201.891 355.214 202.255 354.85 202.705 354.85Z" fill="#5DA0FF"/>
<path d="M210.842 354.85H214.096C214.546 354.85 214.91 355.214 214.91 355.664V358.919C214.91 359.369 214.546 359.733 214.096 359.733H210.842C210.392 359.733 210.027 359.369 210.027 358.919V355.664C210.027 355.214 210.392 354.85 210.842 354.85Z" fill="#A1B2F2"/>
<path d="M218.98 354.85H222.235C222.685 354.85 223.049 355.214 223.049 355.664V358.919C223.049 359.369 222.685 359.733 222.235 359.733H218.98C218.531 359.733 218.166 359.369 218.166 358.919V355.664C218.166 355.214 218.531 354.85 218.98 354.85Z" fill="#A1B2F2"/>
<path d="M186.43 367.872H189.684C190.134 367.872 190.498 368.236 190.498 368.686V371.941C190.498 372.391 190.134 372.755 189.684 372.755H186.43C185.98 372.755 185.615 372.391 185.615 371.941V368.686C185.615 368.236 185.98 367.872 186.43 367.872Z" fill="#FC60D2"/>
<path d="M194.568 367.872H197.823C198.273 367.872 198.637 368.236 198.637 368.686V371.941C198.637 372.391 198.273 372.755 197.823 372.755H194.568C194.118 372.755 193.754 372.391 193.754 371.941V368.686C193.754 368.236 194.118 367.872 194.568 367.872Z" fill="#FC60D2"/>
<path d="M202.705 367.872H205.959C206.409 367.872 206.774 368.236 206.774 368.686V371.941C206.774 372.391 206.409 372.755 205.959 372.755H202.705C202.255 372.755 201.891 372.391 201.891 371.941V368.686C201.891 368.236 202.255 367.872 202.705 367.872Z" fill="#FC60D2"/>
<path d="M210.842 367.872H214.096C214.546 367.872 214.91 368.236 214.91 368.686V371.941C214.91 372.391 214.546 372.755 214.096 372.755H210.842C210.392 372.755 210.027 372.391 210.027 371.941V368.686C210.027 368.236 210.392 367.872 210.842 367.872Z" fill="#FC60D2"/>
<path d="M218.98 367.872H222.235C222.685 367.872 223.049 368.236 223.049 368.686V371.941C223.049 372.391 222.685 372.755 222.235 372.755H218.98C218.531 372.755 218.166 372.391 218.166 371.941V368.686C218.166 368.236 218.531 367.872 218.98 367.872Z" fill="#FC60D2"/>
<path d="M186.43 376.01H189.684C190.134 376.01 190.498 376.375 190.498 376.825V380.08C190.498 380.53 190.134 380.894 189.684 380.894H186.43C185.98 380.894 185.615 380.53 185.615 380.08V376.825C185.615 376.375 185.98 376.01 186.43 376.01Z" fill="#FFBF29"/>
<path d="M194.568 376.01H197.823C198.273 376.01 198.637 376.375 198.637 376.825V380.08C198.637 380.53 198.273 380.894 197.823 380.894H194.568C194.118 380.894 193.754 380.53 193.754 380.08V376.825C193.754 376.375 194.118 376.01 194.568 376.01Z" fill="#FFBF29"/>
<path d="M202.705 376.01H205.959C206.409 376.01 206.774 376.375 206.774 376.825V380.08C206.774 380.53 206.409 380.894 205.959 380.894H202.705C202.255 380.894 201.891 380.53 201.891 380.08V376.825C201.891 376.375 202.255 376.01 202.705 376.01Z" fill="#FFBF29"/>
<path d="M210.842 376.01H214.096C214.546 376.01 214.91 376.375 214.91 376.825V380.08C214.91 380.53 214.546 380.894 214.096 380.894H210.842C210.392 380.894 210.027 380.53 210.027 380.08V376.825C210.027 376.375 210.392 376.01 210.842 376.01Z" fill="#FFBF29"/>
<path d="M218.98 376.01H222.235C222.685 376.01 223.049 376.375 223.049 376.825V380.08C223.049 380.53 222.685 380.894 222.235 380.894H218.98C218.531 380.894 218.166 380.53 218.166 380.08V376.825C218.166 376.375 218.531 376.01 218.98 376.01Z" fill="#A1B2F2"/>
<path d="M267.481 342.316V386.835C267.481 388.454 266.17 389.765 264.551 389.765H256.902V339.387H264.551C266.17 339.387 267.481 340.699 267.481 342.317V342.316Z" fill="#91A0DA"/>
<path d="M180.49 346.223H176.828V360.872H180.49V346.223Z" fill="#A1B2F2"/>
<path d="M179.026 346.223H175.363V360.872H179.026V346.223Z" fill="#91A0DA"/>
<path d="M180.49 367.383H176.828V382.033H180.49V367.383Z" fill="#A1B2F2"/>
<path d="M179.026 367.383H175.363V382.033H179.026V367.383Z" fill="#91A0DA"/>
<path d="M174.032 84.1807H160.311V128.778H174.032V84.1807Z" fill="#FFE1F7"/>
<path d="M198.534 84.1807H184.812V128.778H198.534V84.1807Z" fill="#FFE1F7"/>
<path d="M223.034 84.1807H209.312V128.778H223.034V84.1807Z" fill="#FFE1F7"/>
<path d="M247.536 84.1807H233.814V128.778H247.536V84.1807Z" fill="#FFE1F7"/>
<path d="M272.036 84.1807H258.314V128.778H272.036V84.1807Z" fill="#FFE1F7"/>
<path d="M162.269 113.586H172.07C173.153 113.586 174.03 114.464 174.03 115.547V126.82C174.03 127.903 173.153 128.78 172.07 128.78H162.269C161.186 128.78 160.309 127.903 160.309 126.82V115.547C160.309 114.464 161.186 113.586 162.269 113.586Z" fill="#FC60D2"/>
<path d="M186.773 103.786H196.574C197.657 103.786 198.534 104.663 198.534 105.746V126.82C198.534 127.903 197.657 128.78 196.574 128.78H186.773C185.69 128.78 184.812 127.903 184.812 126.82V105.746C184.812 104.663 185.69 103.786 186.773 103.786Z" fill="#FC60D2"/>
<path d="M211.273 108.685H221.074C222.157 108.685 223.034 109.562 223.034 110.646V126.818C223.034 127.901 222.157 128.778 221.074 128.778H211.273C210.19 128.778 209.312 127.901 209.312 126.818V110.646C209.312 109.562 210.19 108.685 211.273 108.685Z" fill="#FC60D2"/>
<path d="M235.775 98.8843H245.576C246.659 98.8843 247.536 99.7616 247.536 100.845V126.82C247.536 127.903 246.659 128.78 245.576 128.78H235.775C234.692 128.78 233.814 127.903 233.814 126.82V100.845C233.814 99.7616 234.692 98.8843 235.775 98.8843Z" fill="#FC60D2"/>
<path d="M260.275 89.082H270.076C271.159 89.082 272.036 89.9594 272.036 91.0425V126.82C272.036 127.903 271.159 128.78 270.076 128.78H260.275C259.192 128.78 258.314 127.903 258.314 126.82V91.0425C258.314 89.9594 259.192 89.082 260.275 89.082Z" fill="#FC60D2"/>
<path d="M193.142 46.4448H270.565C271.648 46.4448 272.526 47.3222 272.526 48.4053V48.8954C272.526 49.9786 271.648 50.8559 270.565 50.8559H193.142C192.059 50.8559 191.182 49.9786 191.182 48.8954V48.4053C191.182 47.3222 192.059 46.4448 193.142 46.4448Z" fill="#FC60D2"/>
<path d="M193.142 59.6763H231.364C232.447 59.6763 233.325 60.5536 233.325 61.6368V62.1269C233.325 63.21 232.447 64.0874 231.364 64.0874H193.142C192.059 64.0874 191.182 63.21 191.182 62.1269V61.6368C191.182 60.5536 192.059 59.6763 193.142 59.6763Z" fill="#FFE1F7"/>
<path d="M159.822 141.032H217.645C218.728 141.032 219.605 141.909 219.605 142.992V143.482C219.605 144.566 218.728 145.443 217.645 145.443H159.822C158.739 145.443 157.861 144.566 157.861 143.482V142.992C157.861 141.909 158.739 141.032 159.822 141.032Z" fill="#FFE1F7"/>
<path d="M158.841 45.4644H181.872C182.955 45.4644 183.832 46.3417 183.832 47.4248V70.4589C183.832 71.5421 182.955 72.4194 181.872 72.4194H158.841C157.758 72.4194 156.881 71.5421 156.881 70.4589V47.4248C156.881 46.3417 157.758 45.4644 158.841 45.4644Z" fill="#FFE1F7"/>
<path d="M145.488 37.2544H294.946C296.029 37.2544 296.906 38.1317 296.906 39.2149V160.268C296.906 161.352 296.029 162.229 294.946 162.229H145.488C144.405 162.229 143.527 161.352 143.527 160.268V39.2149C143.527 38.1317 144.405 37.2544 145.488 37.2544Z" fill="#C4D1FF"/>
<path d="M138.749 31.7412H288.207C289.29 31.7412 290.168 32.6186 290.168 33.7017V154.755C290.168 155.838 289.29 156.716 288.207 156.716H138.749C137.666 156.716 136.789 155.838 136.789 154.755V33.7017C136.789 32.6186 137.666 31.7412 138.749 31.7412Z" fill="white"/>
<path d="M288.207 157.202H138.749C137.399 157.202 136.301 156.105 136.301 154.755V33.7015C136.301 32.3515 137.399 31.2544 138.749 31.2544H288.207C289.557 31.2544 290.656 32.3515 290.656 33.7015V154.755C290.656 156.105 289.557 157.202 288.207 157.202ZM138.749 32.2294C137.938 32.2294 137.277 32.8905 137.277 33.7015V154.755C137.277 155.566 137.937 156.227 138.749 156.227H288.207C289.018 156.227 289.679 155.566 289.679 154.755V33.7015C289.679 32.8905 289.018 32.2294 288.207 32.2294H138.749Z" fill="#C4D1FF"/>
<path d="M162.18 41.5068H219.469C220.908 41.5068 222.073 42.6737 222.073 44.1109V44.7615C222.073 46.2005 220.906 47.3656 219.469 47.3656H162.18C160.741 47.3656 159.576 46.1988 159.576 44.7615V44.1109C159.576 42.672 160.743 41.5068 162.18 41.5068Z" fill="#A1B2F2"/>
<path d="M162.18 56.1567H206.449C207.888 56.1567 209.053 57.3236 209.053 58.7609V59.4114C209.053 60.8504 207.886 62.0155 206.449 62.0155H162.18C160.741 62.0155 159.576 60.8487 159.576 59.4114V58.7609C159.576 57.3219 160.743 56.1567 162.18 56.1567Z" fill="#EAEFFF"/>
<path d="M164.886 74.5718C166.787 74.5718 168.329 76.1137 168.329 78.0149V137.213C168.329 139.115 166.787 140.656 164.886 140.656C162.985 140.656 161.443 139.115 161.443 137.213V78.0149C161.443 76.1137 162.985 74.5718 164.886 74.5718Z" fill="#DFE6FF"/>
<path d="M164.886 118.953C166.787 118.953 168.329 120.495 168.329 122.396V135.586C168.329 137.487 166.787 139.029 164.886 139.029C162.985 139.029 161.443 137.487 161.443 135.586V122.396C161.443 120.495 162.985 118.953 164.886 118.953Z" fill="#FC60D2"/>
<path d="M184.415 74.5718C186.316 74.5718 187.858 76.1137 187.858 78.0149V137.213C187.858 139.115 186.316 140.656 184.415 140.656C182.514 140.656 180.973 139.115 180.973 137.213V78.0149C180.973 76.1137 182.514 74.5718 184.415 74.5718Z" fill="#DFE6FF"/>
<path d="M184.415 108.373C186.316 108.373 187.858 109.915 187.858 111.816V125.006C187.858 126.907 186.316 128.449 184.415 128.449C182.514 128.449 180.973 126.907 180.973 125.006V111.816C180.973 109.915 182.514 108.373 184.415 108.373Z" fill="#FC60D2"/>
<path d="M203.946 74.5718C205.847 74.5718 207.389 76.1137 207.389 78.0149V137.213C207.389 139.115 205.847 140.656 203.946 140.656C202.046 140.656 200.504 139.115 200.504 137.213V78.0149C200.504 76.1137 202.046 74.5718 203.946 74.5718Z" fill="#DFE6FF"/>
<path d="M203.946 96.165C205.847 96.165 207.389 97.7069 207.389 99.6081V112.798C207.389 114.699 205.847 116.241 203.946 116.241C202.046 116.241 200.504 114.699 200.504 112.798V99.6081C200.504 97.7069 202.046 96.165 203.946 96.165Z" fill="#FFBF29"/>
<path d="M223.476 74.5718C225.377 74.5718 226.918 76.1137 226.918 78.0149V137.213C226.918 139.115 225.377 140.656 223.476 140.656C221.575 140.656 220.033 139.115 220.033 137.213V78.0149C220.033 76.1137 221.575 74.5718 223.476 74.5718Z" fill="#DFE6FF"/>
<path d="M223.476 105.931C225.377 105.931 226.918 107.473 226.918 109.374V122.564C226.918 124.465 225.377 126.007 223.476 126.007C221.575 126.007 220.033 124.465 220.033 122.564V109.374C220.033 107.473 221.575 105.931 223.476 105.931Z" fill="#FFBF29"/>
<path d="M243.007 74.5718C244.908 74.5718 246.45 76.1137 246.45 78.0149V137.213C246.45 139.115 244.908 140.656 243.007 140.656C241.106 140.656 239.564 139.115 239.564 137.213V78.0149C239.564 76.1137 241.106 74.5718 243.007 74.5718Z" fill="#DFE6FF"/>
<path d="M243.007 86.3975C244.908 86.3975 246.45 87.9393 246.45 89.8405V103.03C246.45 104.931 244.908 106.473 243.007 106.473C241.106 106.473 239.564 104.931 239.564 103.03V89.8405C239.564 87.9393 241.106 86.3975 243.007 86.3975Z" fill="#5DA0FF"/>
<path d="M262.538 74.5718C264.439 74.5718 265.981 76.1137 265.981 78.0149V137.213C265.981 139.115 264.439 140.656 262.538 140.656C260.637 140.656 259.096 139.115 259.096 137.213V78.0149C259.096 76.1137 260.637 74.5718 262.538 74.5718Z" fill="#DFE6FF"/>
<path d="M262.538 91.2812C264.439 91.2812 265.981 92.8231 265.981 94.7243V107.914C265.981 109.815 264.439 111.357 262.538 111.357C260.637 111.357 259.096 109.815 259.096 107.914V94.7243C259.096 92.8231 260.637 91.2812 262.538 91.2812Z" fill="#5DA0FF"/>
<path d="M297.144 1.30273C298.157 1.30273 299.01 2.05798 299.134 3.06264L300.015 10.2244C301.645 10.6796 303.208 11.2988 304.683 12.0628L310.29 7.68481C311.089 7.06212 312.226 7.13189 312.943 7.84702L318.942 13.8471C319.659 14.564 319.728 15.7012 319.104 16.5001L314.864 21.9315C315.722 23.4682 316.42 25.106 316.935 26.8223L323.726 27.6578C324.73 27.7816 325.485 28.6345 325.485 29.6479V38.1335C325.485 39.1469 324.73 39.9998 323.726 40.1237L316.935 40.9592C316.42 42.6755 315.722 44.3133 314.864 45.8499L319.104 51.2814C319.695 52.0401 319.662 53.1041 319.045 53.8227L318.942 53.9326L312.943 59.9327C312.262 60.6129 311.202 60.7106 310.412 60.1839L310.29 60.0949L304.683 55.7169C303.208 56.4809 301.645 57.1001 300.015 57.5553L299.134 64.7171C299.01 65.7217 298.157 66.477 297.144 66.477H288.66C287.646 66.477 286.794 65.7217 286.67 64.7171L285.789 57.5553C284.158 57.1001 282.596 56.4809 281.12 55.7169L275.514 60.0949C274.715 60.7176 273.578 60.6478 272.861 59.9327L266.862 53.9326C266.145 53.2157 266.075 52.0785 266.7 51.2797L270.939 45.8482C270.081 44.3115 269.383 42.6737 268.869 40.9574L262.078 40.1219C261.073 39.9981 260.318 39.1452 260.318 38.1318V29.6462C260.318 28.6328 261.073 27.7799 262.078 27.656L268.869 26.8206C269.383 25.1043 270.081 23.4664 270.939 21.9298L266.7 16.4983C266.108 15.7396 266.141 14.6756 266.759 13.957L266.862 13.8471L272.861 7.84702C273.541 7.16678 274.601 7.0691 275.391 7.59585L275.514 7.68481L281.12 12.0628C282.596 11.2988 284.158 10.6796 285.789 10.2244L286.67 3.06264C286.794 2.05798 287.646 1.30273 288.66 1.30273H297.144ZM292.903 22.3589C286.535 22.3589 281.373 27.5217 281.373 33.8899C281.373 40.258 286.535 45.4208 292.903 45.4208C299.27 45.4208 304.432 40.258 304.432 33.8899C304.432 27.5217 299.27 22.3589 292.903 22.3589Z" fill="#C4D1FF"/>
<path d="M293.238 0C294.251 0 295.104 0.755244 295.228 1.75991L296.108 8.92165C297.739 9.37689 299.302 9.99608 300.777 10.76L306.384 6.38207C307.183 5.75939 308.32 5.82916 309.036 6.54429L315.036 12.5444C315.752 13.2612 315.822 14.3985 315.198 15.1973L310.958 20.6288C311.816 22.1655 312.514 23.8033 313.028 25.5196L319.819 26.3551C320.824 26.4789 321.579 27.3318 321.579 28.3452V36.8308C321.579 37.8442 320.824 38.6971 319.819 38.8209L313.028 39.6564C312.514 41.3727 311.816 43.0105 310.958 44.5472L315.198 49.9787C315.789 50.7374 315.756 51.8014 315.139 52.52L315.036 52.6299L309.036 58.63C308.356 59.3102 307.296 59.4079 306.506 58.8811L306.384 58.7922L300.777 54.4142C299.302 55.1782 297.739 55.7974 296.108 56.2526L295.228 63.4143C295.104 64.419 294.251 65.1742 293.238 65.1742H284.753C283.74 65.1742 282.887 64.419 282.763 63.4143L281.883 56.2526C280.252 55.7974 278.69 55.1782 277.214 54.4142L271.607 58.7922C270.809 59.4149 269.671 59.3451 268.955 58.63L262.955 52.6299C262.239 51.913 262.169 50.7758 262.793 49.9769L267.033 44.5454C266.175 43.0088 265.477 41.371 264.963 39.6547L258.172 38.8192C257.167 38.6954 256.412 37.8424 256.412 36.829V28.3435C256.412 27.3301 257.167 26.4771 258.172 26.3533L264.963 25.5178C265.477 23.8015 266.175 22.1637 267.033 20.6271L262.793 15.1956C262.202 14.4368 262.235 13.3729 262.853 12.6543L262.955 12.5444L268.955 6.54429C269.635 5.86404 270.695 5.76637 271.485 6.29312L271.607 6.38207L277.214 10.76C278.69 9.99608 280.252 9.37689 281.883 8.92165L282.763 1.75991C282.887 0.755244 283.74 0 284.753 0L293.238 0ZM288.996 21.0561C282.629 21.0561 277.467 26.219 277.467 32.5871C277.467 38.9552 282.629 44.1181 288.996 44.1181C295.364 44.1181 300.526 38.9552 300.526 32.5871C300.526 26.219 295.364 21.0561 288.996 21.0561Z" fill="#182160"/>
<path d="M288.996 51.137C299.24 51.137 307.543 42.8328 307.543 32.5873C307.543 22.3418 299.24 14.0376 288.996 14.0376C278.752 14.0376 270.449 22.3418 270.449 32.5873C270.449 42.8328 278.752 51.137 288.996 51.137ZM288.996 49.1329C279.86 49.1329 272.455 41.7252 272.455 32.589C272.455 23.4529 279.861 16.0452 288.996 16.0452C298.131 16.0452 305.538 23.4529 305.538 32.589C305.538 41.7252 298.131 49.1329 288.996 49.1329Z" fill="#DFE6FF"/>
<path d="M126.846 375.002L129.118 387.471H138.014V375.002H126.846Z" fill="#C16F60"/>
<path d="M73.2617 374.214V389.748H82.4786L84.9045 374.214H73.2617Z" fill="#C16F60"/>
<path d="M124.839 223.517L137.783 308.694L139.41 380.88H126.519L117.647 309.678L104.393 260.134L98.0032 311.136L84.9809 382.736H71.7285L78.5631 306.408L80.4414 221.934C85.7622 224.039 91.9551 225.443 99.0216 226.146C106.088 226.849 114.693 225.973 124.838 223.517H124.839Z" fill="#182160"/>
<g opacity="0.27">
<path d="M104.395 260.133L94.62 310.281L81.5664 382.736H84.9828L98.0033 311.136L104.395 260.133Z" fill="black"/>
</g>
<g opacity="0.27">
<path d="M126.909 236.862L124.84 223.517C114.696 225.973 106.089 226.849 99.0243 226.146C94.6592 225.711 90.6289 225.008 86.9299 224.04L80.9062 224.74C88.7 233.796 101.646 238.013 119.746 237.389C122.324 237.3 124.711 237.125 126.912 236.864L126.909 236.862Z" fill="black"/>
</g>
<path d="M138.015 385.778H128.496L128.514 397.168C128.514 397.614 128.876 397.977 129.323 397.98L158.928 398.144C159.378 398.146 159.745 397.785 159.746 397.335C159.746 397.293 159.743 397.251 159.738 397.209L159.445 395.254C159.403 394.973 159.218 394.736 158.956 394.624L138.015 385.778Z" fill="#2A3036"/>
<path d="M82.6789 385.778H72.3477L72.3651 397.168C72.3651 397.614 72.7261 397.977 73.1743 397.98L100.34 398.144C100.79 398.148 101.156 397.785 101.158 397.335C101.158 397.293 101.155 397.251 101.149 397.209L100.851 395.223C100.811 394.961 100.647 394.734 100.41 394.616L82.6824 385.78L82.6789 385.778Z" fill="#2A3036"/>
<path d="M99.3217 134.7L100.518 146.917H85.8164C86.95 143.123 87.5168 139.865 87.5168 137.139C87.5168 133.052 80.1328 123.326 80.1328 116.137C80.1328 108.947 87.0128 100.458 96.2785 104.061C105.544 107.665 106.986 112.899 106.986 118.221C106.986 123.542 105.213 133.272 104.262 134.219C103.629 134.85 101.983 135.011 99.3235 134.7H99.3217Z" fill="#C16F60"/>
<path d="M85.2426 130.587C86.7197 132.401 97.4504 132.042 99.1263 130.587C100.802 129.133 100.483 121.493 102.576 120.291C104.67 119.089 104.412 122.487 105.312 122.487C106.212 122.487 105.858 118.587 106.979 118.121C108.099 117.654 110.612 114.827 108.795 111.832C106.979 108.837 113.155 105.886 111.62 102.856C110.084 99.8263 107.487 101.799 104.672 100.548C101.857 99.2978 101.475 98.2373 99.1281 97.749C96.7807 97.2606 96.0116 99.0885 93.9886 99.0885C91.9656 99.0885 88.8735 97.0199 86.5383 98.4536C84.2049 99.8874 85.7727 103.182 84.5834 104.291C83.3922 105.401 80.5653 104.64 78.9224 106.385C77.2796 108.129 80.0874 110.834 79.5049 111.832C78.9224 112.829 77.6895 113.339 77.6895 116.375C77.6895 119.412 78.5126 120.516 79.5049 122.477C80.4972 124.437 83.7654 128.775 85.2426 130.587Z" fill="#182160"/>
<path d="M68.2235 147.648C65.3634 153.517 48.4173 191.562 53.3318 200.075C58.2463 208.589 91.3887 211.243 94.3726 211.235C95.1522 211.233 95.2324 210.46 95.8602 210.096C96.427 209.766 97.4507 210.394 97.4943 209.283C97.4926 206.225 97.4996 204.057 97.5135 202.78C97.5205 202.119 96.5561 202.275 96.0067 201.814C95.4033 201.31 95.4626 200.87 94.104 200.068C92.7455 199.266 69.9536 192.673 69.1531 191.286C68.6194 190.362 72.0289 178.267 75.9947 167.657C80.1139 154.91 83.5687 149.345 75.8848 146.214C70.632 144.074 68.4363 147.215 68.2253 147.649L68.2235 147.648Z" fill="#3C62FF"/>
<g opacity="0.27">
<path d="M75.5703 168.794L72.2603 158.807L71.2522 162.203C65.0681 183.193 62.6928 194.366 64.1281 195.72L64.2415 195.819C66.0011 197.297 73.8612 200.611 87.8199 205.758L84.9215 197.011L80.2965 195.528C74.7315 193.723 69.5275 191.93 69.1525 191.281C68.638 190.39 71.7894 179.112 75.5703 168.794Z" fill="black"/>
</g>
<path d="M94.2374 145.265C91.3023 145.265 88.3917 144.215 85.5071 142.116C78.8539 141.848 73.7144 142.898 70.0852 145.265C69.2743 145.795 68.6534 146.589 68.2227 147.647C75.713 194.059 79.4573 218.722 79.4573 221.633C79.4573 226.001 97.2231 232.606 107.673 231.357C118.123 230.108 125.461 226.498 126.033 222.769C126.605 219.04 128.267 217.984 129.127 213.49C129.701 210.493 128.395 194.001 125.21 164.015L121.405 143.984C119.64 142.798 118.454 142.176 117.842 142.116C115.066 141.846 109.251 141.846 100.401 142.116C99.2287 144.216 97.1743 145.265 94.2374 145.265Z" fill="#182160"/>
<g opacity="0.27">
<path d="M119.646 155.039L126.568 220.567C127.318 218.382 128.46 216.962 129.125 213.489L129.156 213.294C129.645 209.828 128.328 193.401 125.208 164.015L124.221 158.821L119.646 155.041V155.039Z" fill="black"/>
</g>
<path d="M79.3043 222.345L79.3096 222.453C79.4613 226.774 91.8156 231.418 102.637 230.405L103.617 230.302C113.565 229.217 125.472 226.892 125.926 223.315C125.989 222.818 126.095 222.357 126.235 221.923L126.39 221.843C119.656 225.38 111.8 227.45 102.82 228.056C94.3321 228.628 86.4877 226.641 79.2852 222.094L79.3026 222.343L79.3043 222.345Z" fill="white"/>
<path d="M100.4 142.116C99.2282 144.216 97.1738 145.265 94.237 145.265C91.3002 145.265 88.3912 144.215 85.5067 142.116C84.7516 142.078 84.0156 142.059 83.2988 142.055C83.9964 145.216 88.2395 147.647 93.3703 147.647C98.501 147.647 102.765 145.204 103.447 142.033L101.03 142.099C100.82 142.106 100.611 142.111 100.398 142.118L100.4 142.116Z" fill="white"/>
<path d="M157.775 149.61C156.256 149.781 151.631 155.416 143.898 166.515C129.153 151.049 121.031 143.029 119.533 142.453C115.541 140.92 119.604 159.238 121.163 163.443C124.072 171.295 142.102 187.541 146.027 186.822C151.976 185.734 167.452 158.01 167.452 154.638C167.452 154.227 166.407 153.62 166.355 153.157C166.311 152.772 167.539 151.132 167.452 150.738C167.042 148.882 162.255 148.029 161.106 148.145C159.956 148.26 159.667 149.972 159.435 149.885C158.837 149.659 158.265 149.556 157.778 149.611L157.775 149.61Z" fill="#3C62FF"/>
<g opacity="0.27">
<path d="M167.009 154.003L144.545 186.589C145.15 186.807 145.652 186.892 146.026 186.824C151.974 185.736 167.45 158.012 167.45 154.64C167.45 154.457 167.244 154.235 167.011 154.005L167.009 154.003Z" fill="black"/>
</g>
<path d="M162.704 135.011C163.503 134.885 162.254 138.433 162.838 139.396C163.422 140.359 164.045 141.461 164.893 140.727C165.74 139.992 166.713 138.864 166.501 137.521C166.288 136.178 163.15 129.553 164.062 128.718C164.975 127.882 166.003 129.276 166.635 130.8C167.266 132.325 170.796 137.596 171.035 139.096C171.272 140.596 171.773 141.194 170.662 143.84C169.549 146.486 168.374 146.641 167.72 149.158C167.638 149.476 167.325 150.704 166.788 152.84L159.57 149.619C160.187 148.082 160.508 147.159 160.534 146.852C160.723 144.555 159.235 141.266 159.439 139.938C159.643 138.611 161.909 135.14 162.707 135.013L162.704 135.011Z" fill="#C16F60"/>
<path d="M160.725 148.138C159.774 148.23 159.335 149.261 159.064 149.791L166.757 153.824L166.752 153.787C166.701 153.353 168.112 151.506 168.013 151.061C167.544 148.97 162.045 148.009 160.726 148.138H160.725Z" fill="white"/>
</g>
<defs>
<clipPath id="clip0_49_2973">
<rect width="457" height="422" fill="white"/>
</clipPath>
</defs>
</svg>
