<svg width="476" height="466" viewBox="0 0 476 466" fill="none" xmlns="http://www.w3.org/2000/svg">
<path d="M230.206 31.1582C283.869 24.1436 346.417 38.2961 391.697 76.2314C439.213 116.04 461.302 176.176 463.505 234.811C465.708 293.456 448.015 350.499 416.095 384.104C407.674 392.968 399.707 398.686 393.388 403.22C319.266 456.403 231.533 440.906 212.865 437.114C185.27 431.51 132.094 420.699 93.6543 375.494C35.4978 307.103 44.5172 199.266 89.6924 128.037C97.9723 114.982 141.587 42.7424 230.206 31.1582Z" fill="url(#paint0_linear_49_2874)" stroke="black"/>
<path d="M441.209 74.5322C441.454 72.7195 443.982 72.4412 444.615 74.168C488.773 194.559 473.172 267.172 446.646 309.666C433.377 330.924 417.356 344.676 404.655 353.111C398.305 357.329 392.785 360.217 388.856 362.05C386.892 362.966 385.325 363.618 384.252 364.041C383.716 364.252 383.303 364.406 383.024 364.507C382.984 364.521 382.946 364.534 382.912 364.546C366.129 346.183 362.227 316.407 367.251 284.263C372.293 252 386.308 217.481 405.099 190.036C416.713 173.073 424.975 149.827 430.714 128.032C436.455 106.227 439.683 85.8292 441.209 74.5322Z" fill="#BDD0FB" stroke="black"/>
<path opacity="0.43" d="M444.564 113.194C444.489 115.707 444.375 118.218 444.261 120.734C444.015 125.761 443.706 130.784 443.352 135.806C442.624 145.844 441.623 155.864 440.473 165.868V165.869C439.479 174.621 438.271 183.35 436.895 192.054L436.294 195.782C434.658 205.722 432.881 215.639 430.78 225.489V225.49C426.617 245.197 421.377 264.694 414.783 283.739C411.385 293.229 407.739 302.63 403.558 311.795C400.127 319.172 396.443 326.43 392.38 333.465C396.214 326.301 399.739 318.982 402.969 311.533C406.491 303.47 409.6 295.238 412.486 286.938L413.711 283.376C416.94 273.86 419.784 264.217 422.408 254.521C425.03 244.815 427.249 235.009 429.41 225.202V225.2C433.653 205.547 436.844 185.678 439.485 165.747V165.746C440.785 155.775 441.884 145.776 442.806 135.761C443.274 130.754 443.697 125.741 444.058 120.724V120.72L444.539 113.196V113.191L444.583 112.36L444.564 113.194Z" fill="white" stroke="black"/>
<path d="M343.318 33.585C343.052 31.8786 345.265 30.9453 346.304 32.3379C419.639 130.692 425.138 201.532 412.408 247.729C406.04 270.84 395.101 287.819 385.756 299.018C381.083 304.617 376.81 308.772 373.708 311.523C372.157 312.899 370.899 313.924 370.03 314.604C369.596 314.945 369.259 315.198 369.031 315.366C369.003 315.387 368.976 315.406 368.951 315.424C348.566 303.165 336.871 276.936 332.71 246.096C328.533 215.137 331.968 179.662 341.712 149.37C347.736 130.642 348.972 107.067 348.289 85.5137C347.606 63.9499 345.001 44.3616 343.318 33.585Z" fill="#91B3FA" stroke="black"/>
<path opacity="0.43" d="M356.918 68.1699C357.532 70.4828 358.11 72.8045 358.689 75.1309C359.836 79.8063 360.924 84.4961 361.969 89.1963V89.1973C363.782 97.4258 365.401 105.697 366.899 113.993L367.535 117.551C369.013 125.848 370.286 134.183 371.398 142.54L371.865 146.123C373.077 155.684 374.154 165.263 374.914 174.869V174.87C376.472 194.08 376.985 213.39 376.132 232.656C375.603 242.284 374.823 251.895 373.487 261.438C372.391 268.875 371.047 276.274 369.326 283.581C370.811 276.223 371.995 268.812 372.891 261.365C374.067 251.816 374.686 242.211 375.055 232.611C375.373 224.204 375.396 215.789 375.236 207.38L375.157 203.776C374.914 194.161 374.273 184.563 373.58 174.98L373.579 174.978C372.11 155.797 369.615 136.707 366.604 117.708L366.603 117.707L366.021 114.146C364.841 107.026 363.554 99.9243 362.171 92.8408L361.472 89.3008C360.537 84.5813 359.558 79.8695 358.521 75.1699L358.52 75.166L356.918 68.1699Z" fill="white" stroke="black"/>
<path d="M221.933 68.7324C312.635 68.7324 386.165 142.261 386.165 232.964C386.165 323.667 312.635 397.196 221.933 397.196C131.23 397.196 57.7012 323.666 57.7012 232.964C57.7014 142.261 131.23 68.7326 221.933 68.7324Z" fill="url(#paint1_linear_49_2874)" stroke="black"/>
<path d="M116.835 116.836C180.971 52.7 284.956 52.6995 349.092 116.835C413.228 180.971 413.228 284.957 349.092 349.093C284.956 413.228 180.971 413.228 116.835 349.092C52.6996 284.956 52.6996 180.972 116.835 116.836Z" fill="white" stroke="black"/>
<path d="M232.97 92.8716C310.34 92.8718 373.062 155.594 373.062 232.964C373.061 310.335 310.34 373.056 232.97 373.056C155.599 373.056 92.8772 310.335 92.877 232.964C92.877 155.593 155.599 92.8716 232.97 92.8716Z" fill="url(#paint2_linear_49_2874)" stroke="black"/>
<path d="M232.968 85.8296C314.097 85.8296 380.102 151.834 380.102 232.964C380.101 314.094 314.097 380.098 232.968 380.098C151.839 380.098 85.8342 314.094 85.834 232.964C85.834 151.834 151.839 85.8296 232.968 85.8296ZM232.968 91.8716C155.169 91.8716 91.8762 155.164 91.876 232.963C91.876 310.763 155.169 374.056 232.968 374.056C310.767 374.056 374.06 310.763 374.06 232.963C374.059 155.164 310.767 91.8716 232.968 91.8716Z" fill="white" stroke="black"/>
<path d="M232.968 147.752C280.029 147.752 318.18 185.903 318.18 232.964C318.18 280.025 280.029 318.176 232.968 318.176C185.907 318.176 147.756 280.025 147.756 232.964C147.756 185.903 185.907 147.752 232.968 147.752Z" fill="url(#paint3_linear_49_2874)" stroke="black"/>
<path d="M232.968 140.711C283.836 140.711 325.222 182.096 325.222 232.964C325.222 283.832 283.836 325.218 232.968 325.218C182.1 325.218 140.715 283.832 140.715 232.964C140.715 182.096 182.1 140.711 232.968 140.711ZM232.968 153.794C189.313 153.794 153.798 189.309 153.798 232.964C153.798 276.618 189.313 312.135 232.968 312.135C276.623 312.135 312.139 276.619 312.139 232.964C312.139 189.309 276.623 153.794 232.968 153.794Z" fill="white" stroke="black"/>
<path d="M232.969 200.257C251.032 200.257 265.676 214.9 265.676 232.964C265.676 251.028 251.032 265.671 232.969 265.671C214.905 265.671 200.262 251.028 200.262 232.964C200.262 214.9 214.905 200.257 232.969 200.257Z" fill="url(#paint4_linear_49_2874)" stroke="black"/>
<path d="M232.968 193.214C254.885 193.214 272.717 211.046 272.717 232.963C272.717 254.881 254.885 272.713 232.968 272.713C211.051 272.713 193.219 254.881 193.219 232.963C193.219 211.046 211.051 193.214 232.968 193.214ZM232.968 206.297C218.264 206.297 206.302 218.259 206.302 232.963C206.302 247.668 218.264 259.629 232.968 259.629C247.672 259.629 259.634 247.668 259.634 232.963C259.634 218.259 247.672 206.297 232.968 206.297Z" fill="white" stroke="black"/>
<path d="M462.045 282.912L468.505 295.95L439.706 289.32C430.428 287.184 422.545 281.144 418.06 272.785L462.045 282.912Z" fill="url(#paint5_linear_49_2874)" stroke="black"/>
<path d="M419.264 267.546C426.953 261.989 436.683 260.005 445.962 262.142L474.762 268.771L463.25 277.672L419.264 267.546Z" fill="url(#paint6_linear_49_2874)" stroke="black"/>
<path d="M463.444 277.999L462.491 282.138L269.858 237.787L270.812 233.648L463.444 277.999Z" fill="url(#paint7_linear_49_2874)" stroke="black"/>
<path d="M232.299 225.964L279.328 231.022C279.473 231.064 279.637 231.195 279.784 231.541C279.939 231.905 280.039 232.431 280.071 233.094C280.136 234.414 279.931 236.136 279.539 237.837C279.147 239.539 278.579 241.178 277.943 242.336C277.624 242.918 277.304 243.347 277.006 243.607C276.718 243.857 276.511 243.9 276.362 243.872L231.863 227.858C230.774 227.466 231.148 225.841 232.299 225.964Z" fill="url(#paint8_linear_49_2874)" stroke="black"/>
<path d="M326.617 430.866C326.834 431.248 327.125 431.809 327.421 432.517C328.013 433.935 328.618 435.934 328.676 438.263C328.697 439.111 328.007 439.829 327.136 439.859L308.834 440.498C308.465 440.511 308.299 440.043 308.594 439.82C311.961 437.276 318.503 432.576 323.286 430.627L326.409 430.519C326.465 430.609 326.537 430.725 326.617 430.866Z" fill="url(#paint9_linear_49_2874)" stroke="black"/>
<path d="M326.611 424.466L326.165 431.168C326.13 431.693 325.68 432.083 325.189 432.042C324.765 432.007 324.246 431.897 323.666 431.637C323.256 431.452 322.993 431.022 323.011 430.558L323.3 422.838L326.611 424.466Z" fill="url(#paint10_linear_49_2874)" stroke="black"/>
<path d="M431.241 399.06C432.746 398.747 434.823 398.533 437.12 398.918C437.957 399.059 438.532 399.873 438.396 400.734L435.551 418.824C435.497 419.166 435.062 419.252 434.874 418.989L434.84 418.931L434.074 417.347C432.169 413.339 429.481 407.188 428.602 402.759L429.087 399.674C429.186 399.637 429.313 399.589 429.468 399.537C429.884 399.397 430.49 399.216 431.241 399.06Z" fill="url(#paint11_linear_49_2874)" stroke="black"/>
<path d="M429.68 400.036C430.188 400.17 430.486 400.685 430.353 401.16C430.237 401.57 430.031 402.059 429.665 402.579C429.406 402.947 428.934 403.123 428.481 403.018L420.957 401.268L423.185 398.326L429.68 400.036Z" fill="url(#paint12_linear_49_2874)" stroke="black"/>
<path d="M325.29 248.541C325.305 248.55 325.335 248.571 325.381 248.62C325.484 248.729 325.589 248.884 325.765 249.132C325.93 249.365 326.136 249.646 326.409 249.938L327.254 250.845L327.275 249.606C327.28 249.312 327.397 249.216 327.474 249.17C327.49 249.16 327.507 249.152 327.523 249.145C328.049 249.602 328.35 250.313 328.502 251.079C328.668 251.914 328.638 252.725 328.594 253.104C328.531 253.637 328.691 254.289 328.833 254.751C328.887 254.928 328.944 255.089 328.993 255.224L326.763 256.705C326.699 256.644 326.625 256.573 326.543 256.495C326.225 256.192 325.782 255.772 325.277 255.303C324.271 254.367 323.01 253.228 322.023 252.438C321.837 252.288 321.75 252.153 321.71 252.042C321.671 251.933 321.664 251.811 321.698 251.666C321.773 251.352 322.03 250.971 322.44 250.557C323.251 249.739 324.428 249.016 324.96 248.677C325.184 248.534 325.27 248.535 325.278 248.535C325.28 248.535 325.28 248.535 325.28 248.535C325.281 248.535 325.284 248.537 325.29 248.541Z" fill="url(#paint13_linear_49_2874)" stroke="black"/>
<path d="M385.107 349.706C385.077 350.46 385.04 351.543 385.017 352.869C384.969 355.543 384.974 359.211 385.185 363.185C385.395 367.158 385.81 371.446 386.587 375.358C387.361 379.259 388.504 382.833 390.195 385.342L390.347 385.567L390.618 385.563C397.033 385.46 405.697 388.681 412.82 391.979C416.368 393.621 419.51 395.271 421.765 396.51C422.892 397.13 423.797 397.647 424.42 398.008C424.7 398.171 424.924 398.302 425.084 398.397L424.18 403.28C423.901 403.24 423.504 403.183 423.004 403.111C421.946 402.959 420.423 402.741 418.564 402.475C414.848 401.944 409.79 401.225 404.422 400.473C393.69 398.97 381.705 397.334 376.735 396.805C374.491 396.566 372.526 394.809 370.831 392.107C369.147 389.423 367.799 385.918 366.751 382.414C365.705 378.916 364.966 375.446 364.488 372.849C364.25 371.551 364.077 370.473 363.964 369.719C363.907 369.343 363.865 369.047 363.838 368.846C363.836 368.83 363.833 368.814 363.831 368.798L385.107 349.706Z" fill="url(#paint14_linear_49_2874)" stroke="black"/>
<path d="M329.476 256.15C340.511 273.7 347.4 283.867 351.539 289.655C353.627 292.575 355.017 294.383 355.887 295.464C356.322 296.004 356.628 296.363 356.827 296.589C356.926 296.702 356.999 296.781 357.048 296.834C357.072 296.86 357.092 296.88 357.104 296.894C357.111 296.9 357.115 296.905 357.119 296.909L357.126 296.916L357.48 296.563L357.127 296.917L357.273 297.063H370.164L370.187 297.062C382.525 295.954 390.223 289.528 394.823 283.389C397.121 280.322 398.648 277.326 399.601 275.096C400.077 273.98 400.412 273.056 400.627 272.407C400.7 272.187 400.756 271.997 400.803 271.844L403.584 272.484C402.942 287.542 398.681 295.695 394.63 300.081C392.583 302.297 390.579 303.564 389.096 304.276C388.354 304.633 387.741 304.851 387.319 304.979C387.109 305.042 386.945 305.083 386.837 305.108C386.783 305.121 386.742 305.13 386.717 305.135C386.704 305.137 386.695 305.139 386.689 305.14C386.687 305.14 386.684 305.14 386.684 305.141L386.268 305.211V344.553H364.308C364.227 344.354 364.111 344.064 363.962 343.692C363.661 342.94 363.231 341.855 362.716 340.525C361.685 337.865 360.314 334.225 358.953 330.305C357.592 326.384 356.241 322.189 355.25 318.418C354.255 314.631 353.636 311.323 353.705 309.153L353.716 308.81L353.4 308.677C349.425 306.996 345.89 303.305 342.792 298.554C339.7 293.812 337.079 288.069 334.909 282.364C332.74 276.662 331.029 271.015 329.749 266.471C328.581 262.324 327.759 259.047 327.292 257.542C327.535 257.384 327.762 257.269 328.086 257.084C328.444 256.879 328.87 256.612 329.476 256.15Z" fill="url(#paint15_linear_49_2874)" stroke="black"/>
<path d="M364.136 345.545C373.467 344.573 378.926 344.555 382.041 344.774C383.604 344.885 384.571 345.055 385.137 345.192C385.322 345.237 385.464 345.28 385.568 345.314C385.57 345.441 385.569 345.605 385.561 345.806C385.537 346.338 385.462 347.125 385.256 348.12C384.843 350.109 383.903 352.937 381.786 356.238C377.554 362.838 368.591 371.372 349.639 378.871L349.469 378.938L349.383 379.1C344.727 387.776 339.353 400.187 335.147 410.415C333.044 415.532 331.23 420.108 329.942 423.404C329.299 425.052 328.787 426.381 328.436 427.298C328.26 427.756 328.124 428.112 328.032 428.353C328.026 428.368 328.021 428.383 328.016 428.397H320.903C320.946 428.039 321.009 427.516 321.093 426.847C321.261 425.498 321.513 423.56 321.846 421.203C322.511 416.49 323.499 410.105 324.789 403.42C326.08 396.732 327.672 389.754 329.543 383.849C330.478 380.896 331.481 378.22 332.547 375.986C333.615 373.747 334.734 371.982 335.889 370.827C340.747 365.969 345.812 360.82 350.682 356.286C355.519 351.782 360.136 347.912 364.136 345.545Z" fill="url(#paint16_linear_49_2874)" stroke="black"/>
<path d="M373.438 296.717C373.238 296.816 372.961 296.95 372.619 297.106C371.875 297.446 370.83 297.889 369.622 298.299C367.301 299.087 364.455 299.726 362.014 299.356L360.638 287.061L369.514 282.899L373.438 296.717Z" fill="url(#paint17_linear_49_2874)" stroke="black"/>
<path d="M361.553 271.757C362.007 271.28 362.678 271.19 363.601 271.472C364.55 271.761 365.63 272.412 366.67 273.183C367.701 273.947 368.659 274.804 369.36 275.473C369.711 275.806 369.995 276.092 370.192 276.293C370.209 276.31 370.224 276.326 370.239 276.342L363.235 288.299L355.936 285.542C355.953 285.499 355.971 285.454 355.99 285.406C356.147 285.018 356.37 284.463 356.639 283.797C357.176 282.464 357.894 280.684 358.617 278.899C359.34 277.115 360.068 275.325 360.624 273.972C360.902 273.295 361.137 272.728 361.307 272.325C361.392 272.124 361.459 271.966 361.508 271.856C361.526 271.814 361.541 271.781 361.553 271.757Z" fill="url(#paint18_linear_49_2874)" stroke="black"/>
<path d="M360.8 266.512C361.86 265.654 363.223 265.278 364.799 265.971C365.698 266.366 366.165 266.891 366.403 267.415C366.647 267.951 366.675 268.536 366.604 269.074C366.495 269.914 367.073 270.719 367.921 270.837L368.094 270.852C368.245 270.856 368.325 270.892 368.368 270.921C368.412 270.951 368.45 270.997 368.481 271.066C368.791 271.752 369.537 272.153 370.295 271.97C370.884 271.827 371.617 271.747 372.336 271.92C373.038 272.089 373.753 272.504 374.326 273.406C374.89 274.293 374.894 274.977 374.709 275.499C374.513 276.051 374.077 276.504 373.624 276.843C372.906 277.38 372.774 278.398 373.333 279.101C374.154 280.131 374.143 280.911 373.924 281.474C373.685 282.086 373.156 282.553 372.761 282.827C372.633 282.916 372.477 282.948 372.325 282.917C371.868 282.824 371.073 282.703 370.248 282.767C369.433 282.83 368.496 283.082 367.868 283.829C367.307 284.498 366.256 286.109 365.24 287.725C364.216 289.355 363.2 291.032 362.7 291.864H362.699C362.591 292.045 362.392 292.154 362.174 292.145C359.311 292.025 355.942 291.088 354.339 290.592C354.047 290.502 353.877 290.208 353.938 289.921C354.509 287.273 355.61 284.378 356.126 283.094C356.238 282.816 356.541 282.669 356.829 282.754C357.313 282.897 357.839 283.254 358.424 283.797C359.004 284.336 359.6 285.016 360.238 285.757C360.643 286.227 361.087 286.508 361.55 286.622C362.011 286.735 362.445 286.672 362.816 286.537C363.538 286.274 364.082 285.717 364.298 285.474H364.299C364.396 285.364 364.475 285.245 364.537 285.116V285.115L367.915 278.152V278.151C368.122 277.724 368.13 277.223 367.923 276.789C367.691 276.302 367.267 275.531 366.648 274.866C366.031 274.203 365.172 273.598 364.074 273.557C362.944 273.514 361.438 273.143 360.297 272.481C359.14 271.811 358.527 270.959 358.726 269.969C358.968 268.76 359.717 267.388 360.8 266.512Z" fill="url(#paint19_linear_49_2874)" stroke="black"/>
<path d="M370.052 282.631C370.891 282.627 371.593 283.012 371.872 283.543C372.126 284.026 372.128 284.837 371.113 285.932C370.472 286.624 369.92 286.958 369.476 287.101C369.038 287.241 368.674 287.205 368.378 287.104C368.074 286.999 367.829 286.82 367.655 286.658C367.615 286.621 367.579 286.585 367.548 286.553C367.58 286.439 367.624 286.29 367.679 286.116C367.809 285.703 368.002 285.157 368.251 284.614C368.502 284.067 368.799 283.549 369.129 283.176C369.464 282.797 369.773 282.632 370.052 282.631Z" fill="url(#paint20_linear_49_2874)" stroke="black"/>
<path d="M402.443 263.827C402.962 263.866 403.515 264.011 403.95 264.153C404.162 264.222 404.34 264.288 404.466 264.337C404.851 265.521 404.978 267.393 404.695 268.971C404.546 269.805 404.292 270.501 403.948 270.96C403.62 271.399 403.232 271.601 402.741 271.552C402.122 271.49 401.823 271.308 401.654 271.098C401.47 270.87 401.363 270.52 401.315 269.967C401.268 269.412 401.287 268.768 401.277 267.969C401.268 267.189 401.231 266.306 401.066 265.353C400.924 264.53 401.117 264.198 401.297 264.048C401.515 263.867 401.904 263.786 402.443 263.827Z" fill="url(#paint21_linear_49_2874)" stroke="black"/>
<g opacity="0.3">
<path d="M112.638 94.793C113.217 94.7653 113.714 95.2061 113.755 95.7871C113.874 97.4905 114.069 99.2046 114.331 100.883C114.422 101.466 114.023 102.014 113.439 102.105L113.436 102.106C113.403 102.112 113.366 102.115 113.326 102.117C112.787 102.144 112.302 101.76 112.217 101.215V101.214C111.945 99.4762 111.745 97.7003 111.621 95.9365C111.58 95.3494 112.02 94.8392 112.605 94.7939L112.606 94.7949C112.61 94.7947 112.614 94.7942 112.619 94.7939C112.624 94.7937 112.631 94.7934 112.638 94.793ZM112.187 82.0381C112.276 81.4548 112.818 81.0537 113.407 81.1416C113.991 81.2318 114.391 81.7783 114.302 82.3613C114.045 84.0407 113.857 85.7544 113.743 87.457C113.707 88.0031 113.265 88.426 112.731 88.4531C112.69 88.4552 112.648 88.4559 112.604 88.4531C112.015 88.4137 111.569 87.9036 111.608 87.3145C111.727 85.5516 111.921 83.7759 112.187 82.0381ZM115.822 68.6074C116.027 68.0927 116.586 67.8244 117.108 67.9717L117.212 68.0068C117.761 68.2247 118.03 68.8466 117.812 69.3955C117.185 70.9787 116.62 72.6078 116.131 74.2383C115.997 74.6827 115.6 74.9776 115.16 75C115.042 75.006 114.92 74.9915 114.798 74.9551H114.797C114.232 74.7842 113.912 74.1881 114.081 73.623C114.46 72.3569 114.885 71.0911 115.348 69.8457L115.822 68.6074ZM122.373 56.3252C122.687 55.8693 123.293 55.732 123.769 55.9922L123.861 56.0498C124.348 56.3842 124.471 57.05 124.137 57.5371C123.413 58.5892 122.718 59.6752 122.06 60.7773L121.414 61.8838C121.226 62.213 120.891 62.4058 120.537 62.4238C120.341 62.4338 120.139 62.3899 119.955 62.2852C119.474 62.0116 119.286 61.4198 119.505 60.9238L119.554 60.8262C120.208 59.6759 120.905 58.5365 121.634 57.4258L122.373 56.3252ZM131.484 45.8086C131.918 45.4076 132.595 45.4337 132.996 45.8682C133.397 46.3021 133.37 46.9785 132.936 47.3799C131.682 48.5371 130.465 49.7612 129.318 51.0156C129.12 51.2323 128.855 51.3485 128.583 51.3623C128.307 51.3764 128.027 51.2847 127.808 51.084C127.371 50.6852 127.341 50.008 127.739 49.5723C128.63 48.5982 129.561 47.6422 130.519 46.7197L131.484 45.8086ZM142.693 37.5684C143.206 37.2736 143.86 37.4506 144.154 37.9629C144.449 38.4743 144.273 39.129 143.761 39.4238C142.654 40.0611 141.557 40.739 140.488 41.4482L139.43 42.168C139.259 42.2863 139.067 42.3477 138.875 42.3574C138.516 42.3757 138.159 42.2138 137.94 41.8994C137.603 41.414 137.724 40.7474 138.209 40.4102C139.656 39.4045 141.165 38.4477 142.693 37.5684ZM190.122 32.6191C190.29 32.0531 190.886 31.7308 191.452 31.8994C193.145 32.4033 194.835 32.9868 196.474 33.6328C196.989 33.8361 197.259 34.395 197.111 34.917L197.076 35.0205C196.918 35.4229 196.542 35.6765 196.135 35.6973C195.988 35.7048 195.836 35.6813 195.688 35.623H195.688C194.106 34.9992 192.475 34.4366 190.842 33.9502C190.275 33.7815 189.954 33.1848 190.122 32.6191ZM155.446 32.0303C156.016 31.8588 156.613 32.1762 156.785 32.7393C156.947 33.2688 156.678 33.8275 156.178 34.0381L156.075 34.0762C154.448 34.574 152.823 35.1482 151.244 35.7842C151.129 35.8303 151.012 35.8556 150.899 35.8613C150.455 35.8839 150.027 35.6262 149.853 35.1924C149.632 34.6441 149.897 34.0206 150.445 33.7998C152.079 33.1414 153.762 32.546 155.446 32.0303ZM177.75 29.4521H177.752C179.513 29.5671 181.29 29.7579 183.032 30.0205C183.616 30.1089 184.019 30.6546 183.931 31.2383C183.854 31.749 183.426 32.121 182.929 32.1465C182.893 32.1483 182.856 32.1491 182.82 32.1475L182.713 32.1367C181.03 31.8825 179.314 31.6977 177.613 31.5869C177.06 31.5507 176.633 31.1013 176.613 30.5596L176.614 30.4502C176.653 29.8583 177.164 29.4114 177.75 29.4521ZM169.151 29.4805C169.694 29.4535 170.166 29.8381 170.258 30.3652L170.271 30.4727C170.314 31.0622 169.87 31.5739 169.281 31.6162H169.28C168.005 31.7081 166.723 31.842 165.453 32.0156L164.193 32.2012C164.151 32.2075 164.11 32.212 164.073 32.2139C163.535 32.2413 163.05 31.8576 162.964 31.3135C162.871 30.7302 163.269 30.1811 163.853 30.0879C165.592 29.8123 167.367 29.6088 169.127 29.4824L169.145 29.4805C169.141 29.4808 169.14 29.4815 169.141 29.4814L169.151 29.4805Z" fill="#91B3FA" stroke="black"/>
<path d="M202.841 37.7729C203.132 37.2585 203.786 37.0776 204.299 37.3696L204.3 37.3706C204.669 37.5802 205.039 37.7944 205.405 38.0122L206.494 38.6753C206.996 38.9876 207.149 39.647 206.837 40.1479V40.1489C206.645 40.4574 206.321 40.6336 205.981 40.6509C205.771 40.6615 205.557 40.6115 205.364 40.4917C204.671 40.0601 203.957 39.6364 203.243 39.231L203.151 39.1724C202.738 38.8796 202.588 38.3336 202.792 37.8706L202.841 37.7729Z" fill="#91B3FA" stroke="black"/>
</g>
<g opacity="0.3">
<path d="M232.623 75.252C233.162 75.114 233.706 75.4087 233.893 75.918L233.925 76.0225C234.136 76.8461 234.333 77.6832 234.509 78.5098C234.632 79.0877 234.263 79.6561 233.685 79.7793L233.515 79.8018C232.999 79.828 232.526 79.4758 232.415 78.9551C232.245 78.157 232.056 77.3487 231.853 76.5537C231.706 75.9812 232.051 75.3986 232.623 75.252Z" fill="#91B3FA" stroke="black"/>
<path d="M179.739 151.276C180.329 151.218 180.853 151.648 180.912 152.234C180.967 152.786 180.594 153.281 180.062 153.39L179.954 153.406C178.947 153.508 177.918 153.586 176.896 153.638C176.181 153.674 175.462 153.698 174.739 153.711L174.63 153.707C174.125 153.664 173.718 153.271 173.658 152.769L173.651 152.659C173.641 152.068 174.116 151.579 174.7 151.57H174.702C176.395 151.541 178.084 151.443 179.74 151.277L179.739 151.276ZM160.27 151.185C160.389 150.605 160.956 150.232 161.531 150.352H161.533C163.173 150.688 164.849 150.959 166.516 151.157C167.102 151.227 167.521 151.759 167.451 152.345C167.393 152.837 167.009 153.212 166.54 153.278L166.445 153.287C166.415 153.289 166.385 153.289 166.354 153.288L166.263 153.281L164.967 153.113C163.671 152.931 162.376 152.709 161.103 152.447C160.56 152.336 160.199 151.832 160.253 151.293L160.27 151.185ZM192.665 148.514C193.227 148.327 193.833 148.63 194.02 149.189C194.206 149.75 193.903 150.356 193.343 150.543C192.106 150.955 190.846 151.33 189.583 151.664L188.321 151.983C188.255 151.999 188.187 152.009 188.121 152.013C187.618 152.038 187.152 151.702 187.029 151.195C186.891 150.621 187.244 150.042 187.818 149.903L187.817 149.902C189.443 149.51 191.073 149.043 192.664 148.513L192.665 148.514ZM147.541 146.812C147.784 146.273 148.417 146.033 148.956 146.276C150.482 146.966 152.057 147.599 153.637 148.157L153.638 148.158C154.194 148.355 154.486 148.966 154.289 149.522V149.523C154.141 149.943 153.755 150.214 153.335 150.235C153.235 150.24 153.131 150.232 153.027 150.206L152.924 150.175C151.288 149.596 149.656 148.941 148.075 148.227C147.537 147.983 147.298 147.35 147.541 146.812ZM204.66 142.976C205.166 142.671 205.824 142.833 206.129 143.339C206.434 143.845 206.271 144.502 205.766 144.808C204.65 145.481 203.504 146.125 202.346 146.728L201.184 147.316C201.048 147.383 200.905 147.418 200.765 147.425C200.351 147.446 199.946 147.225 199.751 146.831C199.489 146.301 199.707 145.66 200.236 145.398C201.735 144.658 203.224 143.843 204.66 142.976ZM215.16 134.944C215.56 134.562 216.179 134.551 216.592 134.904L216.672 134.979C217.08 135.407 217.065 136.084 216.638 136.492C215.698 137.39 214.72 138.267 213.72 139.109L212.713 139.94C212.53 140.088 212.314 140.165 212.097 140.176C211.765 140.193 211.433 140.057 211.209 139.78C210.861 139.349 210.902 138.73 211.287 138.349L211.369 138.275C212.673 137.222 213.949 136.102 215.159 134.945L215.16 134.944ZM223.662 124.817C223.99 124.326 224.654 124.194 225.146 124.521C225.637 124.85 225.77 125.514 225.441 126.006C224.479 127.447 223.443 128.867 222.361 130.227C222.162 130.476 221.875 130.614 221.578 130.629C221.327 130.642 221.071 130.567 220.858 130.397V130.396C220.396 130.029 220.32 129.356 220.688 128.894C221.732 127.581 222.733 126.209 223.662 124.817ZM229.745 113.077C229.957 112.526 230.577 112.251 231.127 112.462C231.679 112.674 231.954 113.293 231.742 113.845C231.275 115.059 230.765 116.27 230.219 117.459L229.661 118.64C229.485 119.003 229.13 119.222 228.752 119.241H228.751C228.578 119.25 228.4 119.217 228.231 119.135C227.7 118.877 227.478 118.238 227.736 117.706C228.469 116.197 229.144 114.64 229.745 113.077ZM234.307 99.3809C234.855 99.4608 235.245 99.9433 235.221 100.485L235.211 100.594C234.96 102.312 234.632 104.039 234.238 105.726C234.127 106.2 233.715 106.527 233.251 106.551C233.154 106.556 233.054 106.548 232.953 106.524C232.378 106.39 232.02 105.815 232.154 105.24V105.239C232.535 103.61 232.851 101.944 233.094 100.284C233.179 99.7003 233.724 99.2959 234.307 99.3809ZM234.567 85.9248C235.148 85.8711 235.658 86.3138 235.702 86.9141C235.736 87.3724 235.765 87.8319 235.788 88.293C235.853 89.5656 235.879 90.859 235.866 92.1357C235.861 92.7038 235.412 93.1649 234.853 93.1934C234.833 93.1943 234.811 93.1935 234.785 93.1934C234.195 93.1871 233.721 92.7046 233.727 92.1143C233.739 90.8804 233.714 89.6315 233.651 88.4014C233.629 87.956 233.6 87.5118 233.568 87.0703C233.526 86.4806 233.969 85.9674 234.558 85.9248V85.9258L234.567 85.9248Z" fill="#91B3FA" stroke="black"/>
<path d="M138.155 141.295C138.491 140.808 139.157 140.685 139.644 141.02V141.021C140.321 141.487 141.014 141.943 141.702 142.376V142.377C142.17 142.672 142.333 143.27 142.092 143.756L142.038 143.852C141.845 144.158 141.523 144.333 141.186 144.35C140.973 144.361 140.756 144.31 140.562 144.188C140.206 143.964 139.848 143.733 139.492 143.499L138.431 142.783L138.343 142.716C137.93 142.365 137.842 141.751 138.155 141.295Z" fill="#91B3FA" stroke="black"/>
</g>
<path d="M170.664 44.2954L181.362 44.8315C181.462 44.8368 181.547 44.9039 181.575 44.9995L184.059 53.5718L184.135 53.8364L184.4 53.9126C188.471 55.0839 192.254 56.9037 195.64 59.2466L195.867 59.4038L196.121 59.2954L204.334 55.7905C204.426 55.7514 204.532 55.7752 204.599 55.8491H204.6L211.785 63.7925C211.852 63.8665 211.864 63.9749 211.816 64.062L207.509 71.8843L207.375 72.1255L207.509 72.3677C209.502 75.9702 210.935 79.9157 211.693 84.0835L211.742 84.355L211.999 84.4575L220.279 87.7856C220.372 87.8227 220.431 87.9145 220.426 88.0142L219.89 98.7124C219.884 98.812 219.817 98.8966 219.722 98.9243L211.149 101.409L210.885 101.485L210.809 101.75C209.637 105.821 207.817 109.604 205.475 112.99L205.317 113.217L205.426 113.471L208.931 121.684C208.97 121.775 208.946 121.883 208.872 121.95L200.929 129.135C200.855 129.202 200.746 129.215 200.659 129.167L192.837 124.859L192.596 124.725L192.354 124.859C188.751 126.852 184.805 128.285 180.638 129.043L180.366 129.092L180.264 129.349L176.936 137.629C176.898 137.722 176.807 137.781 176.707 137.776L166.009 137.24H166.01C165.91 137.235 165.825 137.167 165.797 137.072V137.071L163.312 128.5L163.236 128.235L162.971 128.159L162.211 127.931C158.429 126.758 154.905 125.021 151.731 122.825L151.504 122.667L151.25 122.776L143.037 126.28V126.281C142.946 126.32 142.839 126.296 142.772 126.222L135.586 118.28C135.519 118.205 135.507 118.097 135.555 118.01L139.862 110.187L139.995 109.946L139.862 109.705C137.869 106.102 136.436 102.156 135.678 97.9878L135.629 97.7163L135.372 97.6138L127.092 94.2856H127.091C126.999 94.248 126.94 94.1563 126.945 94.0571L127.481 83.3599V83.3589C127.487 83.2597 127.554 83.1746 127.649 83.147L136.222 80.6636L136.486 80.5864L136.562 80.3208C137.734 76.2498 139.554 72.4668 141.896 69.0815L142.054 68.855L141.945 68.6011L138.44 60.3872C138.401 60.2953 138.425 60.1892 138.499 60.1226L146.442 52.937C146.516 52.8701 146.624 52.8572 146.711 52.9048H146.712L154.534 57.2124L154.775 57.3462L155.017 57.2124C158.619 55.2194 162.566 53.7864 166.733 53.0278L167.005 52.979L167.107 52.7222L170.436 44.4419C170.473 44.3492 170.565 44.2904 170.664 44.2954Z" fill="#91B3FA" stroke="black"/>
<path d="M171.674 80.9683C174.364 80.4299 177.1 80.9719 179.382 82.4937C181.664 84.0155 183.217 86.3329 183.754 89.0229V89.0239C184.863 94.5751 181.249 99.9934 175.698 101.103C175.197 101.203 174.696 101.265 174.201 101.291C169.203 101.545 164.627 98.0967 163.618 93.0474C162.509 87.4962 166.123 82.0778 171.674 80.9683ZM173.258 82.2896C172.829 82.3115 172.399 82.3641 171.971 82.4497C167.236 83.3957 164.155 88.0175 165.101 92.7515C166.047 97.4855 170.667 100.569 175.402 99.6206L175.401 99.6196C180.136 98.6737 183.217 94.0538 182.271 89.3198C181.813 87.0272 180.489 85.0484 178.544 83.7515C176.964 82.6979 175.123 82.1944 173.258 82.2896Z" fill="#BDD0FB" stroke="black"/>
<path d="M147.899 89.5698C148.616 75.2652 160.841 64.2113 175.141 64.9272C182.071 65.2742 188.449 68.298 193.104 73.4438C197.157 77.9238 199.478 83.5426 199.782 89.4937C199.816 90.157 199.824 90.8248 199.808 91.4956L199.783 92.1675C199.447 98.8815 196.598 105.076 191.742 109.689L191.267 110.13C186.786 114.184 181.164 116.506 175.212 116.809C174.549 116.843 173.883 116.852 173.213 116.835L172.542 116.81L171.697 116.754C170.31 116.64 168.934 116.415 167.591 116.084C167.581 116.082 167.572 116.08 167.562 116.078C167.553 116.075 167.543 116.073 167.534 116.071C167.482 116.058 167.433 116.045 167.385 116.033L167.38 116.032L167.077 115.953H167.078C167.024 115.938 166.986 115.891 166.983 115.836H166.984C166.984 115.824 166.984 115.81 166.988 115.795C167.006 115.73 167.075 115.687 167.145 115.705V115.706C168.683 116.119 170.269 116.389 171.868 116.511L172.555 116.554C181.658 117.012 189.906 112.653 194.827 105.724C197.565 101.869 199.274 97.2169 199.527 92.1548C199.572 91.2677 199.571 90.3847 199.526 89.5093C199.225 83.6152 196.925 78.0495 192.914 73.6157C188.45 68.6811 182.381 65.716 175.77 65.2231L175.128 65.1831C160.958 64.4749 148.865 75.4196 148.155 89.5825C148.111 90.4555 148.113 91.3276 148.157 92.1948C148.349 95.9536 149.361 99.6298 151.135 102.955C151.144 102.973 151.15 102.99 151.15 103.006V103.008C151.153 103.057 151.127 103.103 151.084 103.126C151.018 103.161 150.941 103.136 150.909 103.075L150.582 102.441C149.099 99.4658 148.207 96.2315 147.947 92.9194L147.901 92.2085C147.856 91.3326 147.855 90.4518 147.899 89.5698Z" fill="#BDD0FB" stroke="black"/>
<g opacity="0.3">
<path d="M61.0488 142.928C61.2951 142.857 61.5555 143 61.627 143.252C61.8439 144.017 62.0871 144.784 62.3496 145.535C62.4346 145.778 62.3069 146.046 62.0625 146.133C62.0188 146.148 61.9743 146.157 61.9297 146.159C61.7515 146.168 61.5818 146.074 61.4951 145.916L61.4629 145.845C61.1943 145.077 60.9458 144.291 60.7236 143.508C60.653 143.259 60.7967 142.999 61.0469 142.928H61.0488Z" fill="#91B3FA" stroke="black"/>
<path d="M59.6396 132.961C59.8619 132.959 60.0509 133.113 60.1006 133.322L60.1133 133.417C60.1218 133.707 60.1328 133.996 60.1475 134.284C60.1996 135.309 60.2923 136.341 60.4229 137.363L60.5654 138.382C60.6046 138.636 60.4323 138.874 60.1787 138.916C60.1542 138.919 60.1372 138.921 60.125 138.922V138.923C59.8876 138.935 59.6744 138.764 59.6377 138.525V138.524C59.4247 137.14 59.2812 135.73 59.21 134.332L59.1738 133.445C59.1675 133.214 59.3723 132.985 59.6396 132.961ZM60.6699 122.948V122.949C60.9236 123.005 61.0843 123.254 61.0293 123.508C60.6762 125.124 60.42 126.782 60.2676 128.434C60.2458 128.669 60.0538 128.848 59.8252 128.859C59.8001 128.861 59.7774 128.86 59.7578 128.858C59.499 128.834 59.3095 128.606 59.333 128.348C59.4886 126.657 59.7502 124.96 60.1113 123.308C60.1661 123.056 60.4171 122.894 60.6699 122.948ZM63.5039 113.703C63.6199 113.471 63.9 113.377 64.1338 113.493C64.3653 113.609 64.4596 113.891 64.3438 114.123C63.6946 115.421 63.1117 116.765 62.6064 118.128L62.3945 118.712C62.329 118.896 62.1605 119.015 61.9756 119.024C61.917 119.027 61.8556 119.02 61.7939 118.998H61.7949C61.5514 118.912 61.4227 118.644 61.5088 118.399C62.0738 116.802 62.7449 115.221 63.5039 113.703ZM69.1455 105.226C69.3145 105.03 69.6113 105.008 69.8076 105.177C70.0036 105.345 70.0263 105.641 69.8564 105.839C68.7775 107.092 67.7639 108.429 66.8447 109.81C66.7593 109.938 66.6221 110.01 66.4766 110.018C66.3808 110.022 66.2825 109.999 66.1943 109.941C65.9781 109.797 65.92 109.505 66.0635 109.29C66.887 108.053 67.7831 106.851 68.7344 105.71L69.1455 105.226ZM76.6777 98.377C76.8885 98.2273 77.1808 98.2768 77.3311 98.4893C77.4623 98.6751 77.4398 98.9223 77.291 99.0811L77.2197 99.1436C75.8681 100.099 74.5609 101.149 73.334 102.265C73.25 102.341 73.147 102.38 73.042 102.386L72.9404 102.38C72.8395 102.363 72.7439 102.314 72.6699 102.232C72.496 102.041 72.5089 101.744 72.7012 101.568C73.9565 100.428 75.2944 99.3541 76.6768 98.377H76.6777ZM85.6436 93.5693C85.8887 93.4761 86.1588 93.5987 86.252 93.8398C86.3451 94.0813 86.2248 94.3532 85.9834 94.4463C84.4396 95.0415 82.9173 95.7407 81.457 96.5234H81.4561C81.3937 96.557 81.3266 96.5747 81.2588 96.5781C81.0828 96.587 80.91 96.4958 80.8213 96.3311C80.7143 96.1315 80.7661 95.8881 80.9346 95.748L81.0127 95.6953C82.507 94.8942 84.0658 94.1791 85.6445 93.5703L85.6436 93.5693ZM95.5156 91.1084C95.7537 91.0838 95.9578 91.2249 96.0254 91.4277L96.0459 91.5186C96.0771 91.7754 95.8938 92.0094 95.6357 92.041C94.1921 92.2154 92.7495 92.4704 91.3379 92.7988L90.7363 92.9434C90.7061 92.9508 90.675 92.9555 90.6445 92.957C90.4245 92.9682 90.2208 92.8215 90.166 92.6016C90.1036 92.3502 90.2569 92.0951 90.5088 92.0322L90.5078 92.0312C92.1451 91.6233 93.8301 91.3134 95.5156 91.1084ZM100.6 90.8096H100.613C100.839 90.8103 101.061 90.812 101.283 90.8174L101.286 90.8184C102.764 90.8452 104.253 90.9502 105.706 91.1328C105.964 91.1653 106.146 91.4001 106.113 91.6572C106.085 91.8857 105.896 92.0568 105.673 92.0684C105.645 92.0698 105.617 92.0687 105.592 92.0654L105.589 92.0645C104.169 91.8863 102.715 91.7828 101.267 91.7568H101.268C101.047 91.7517 100.831 91.7497 100.614 91.75H100.615C100.355 91.7494 100.145 91.5384 100.146 91.2793L100.155 91.1807C100.201 90.9592 100.396 90.8035 100.6 90.8096Z" fill="#91B3FA" stroke="black"/>
</g>
<g opacity="0.3">
<path d="M93.3789 171.991V171.99C94.7825 172.24 96.212 172.418 97.6377 172.52L98.249 172.559C98.5074 172.573 98.7059 172.795 98.6914 173.053C98.6778 173.296 98.4835 173.485 98.248 173.497C98.2319 173.497 98.2151 173.498 98.1963 173.497C96.5311 173.403 94.8541 173.208 93.2129 172.916H93.2139C92.9575 172.87 92.7879 172.626 92.833 172.372V172.371C92.8779 172.117 93.1231 171.946 93.3789 171.991ZM108.014 171.933C108.275 171.887 108.52 172.058 108.566 172.307C108.608 172.53 108.485 172.746 108.282 172.829L108.191 172.856C106.555 173.161 104.881 173.37 103.215 173.477H103.214L103.208 173.478C102.953 173.491 102.733 173.296 102.716 173.039C102.699 172.78 102.896 172.557 103.154 172.541C104.781 172.437 106.416 172.231 108.013 171.932L108.014 171.933ZM117.346 168.972C117.556 168.877 117.794 168.946 117.922 169.122L117.97 169.204C118.077 169.438 117.974 169.717 117.738 169.826C116.414 170.432 115.043 170.973 113.654 171.438L113.059 171.632C113.017 171.645 112.978 171.653 112.939 171.655H112.938C112.73 171.665 112.534 171.535 112.468 171.328C112.389 171.082 112.526 170.818 112.773 170.739C114.329 170.243 115.867 169.649 117.346 168.972ZM83.4004 169.345C83.506 169.111 83.7839 169.003 84.0205 169.108V169.109C85.5082 169.775 87.0528 170.356 88.6113 170.836C88.8591 170.913 88.9981 171.176 88.9219 171.423C88.8625 171.616 88.6885 171.744 88.4961 171.753C88.4435 171.756 88.3883 171.751 88.333 171.734H88.334C86.7394 171.243 85.1591 170.648 83.6377 169.966L83.6367 169.965C83.4009 169.859 83.2947 169.583 83.4004 169.345ZM125.684 163.85C125.886 163.689 126.181 163.722 126.343 163.925C126.504 164.128 126.47 164.424 126.268 164.585C124.962 165.623 123.581 166.592 122.161 167.464C122.091 167.507 122.016 167.53 121.939 167.534L121.877 167.533C121.732 167.521 121.595 167.442 121.515 167.311V167.31C121.379 167.089 121.448 166.8 121.669 166.665C123.057 165.812 124.407 164.865 125.683 163.85H125.684ZM132.557 156.881C132.716 156.676 133.011 156.639 133.215 156.797H133.216C133.395 156.936 133.447 157.179 133.351 157.375L133.3 157.456C132.282 158.773 131.171 160.044 129.999 161.234C129.913 161.321 129.802 161.367 129.688 161.373C129.592 161.377 129.496 161.354 129.413 161.301L129.335 161.239C129.15 161.057 129.148 160.759 129.33 160.575C130.476 159.412 131.562 158.169 132.557 156.882V156.881ZM137.56 148.464C137.665 148.227 137.942 148.12 138.178 148.224H138.179C138.386 148.316 138.494 148.539 138.448 148.752L138.419 148.843C137.748 150.367 136.975 151.868 136.121 153.304C136.038 153.444 135.894 153.526 135.74 153.534C135.651 153.538 135.56 153.517 135.479 153.468L135.477 153.467C135.282 153.352 135.201 153.116 135.273 152.91L135.313 152.824C136.044 151.596 136.715 150.32 137.31 149.022L137.56 148.464Z" fill="#91B3FA" stroke="black"/>
<path d="M76.9707 165.637C77.1003 165.45 77.3406 165.385 77.542 165.47L77.626 165.516C78.2746 165.963 78.9514 166.399 79.6367 166.813C79.8583 166.947 79.929 167.236 79.7949 167.458C79.7113 167.596 79.5679 167.677 79.416 167.685C79.3263 167.689 79.2346 167.668 79.1504 167.617C78.4486 167.193 77.7559 166.745 77.0918 166.288C76.879 166.141 76.8252 165.85 76.9707 165.637Z" fill="#91B3FA" stroke="black"/>
</g>
<path d="M105.666 101.109L107.327 106.839L107.403 107.104L107.669 107.18C110.375 107.959 112.891 109.169 115.142 110.727L115.368 110.884L115.622 110.776L121.111 108.432L125.911 113.739L123.032 118.967L122.899 119.209L123.033 119.451C124.358 121.846 125.31 124.47 125.814 127.241L125.864 127.512L126.12 127.615L131.654 129.838L131.297 136.984L125.567 138.645L125.303 138.721L125.227 138.987C124.448 141.693 123.237 144.209 121.68 146.459L121.523 146.686L121.632 146.94L123.974 152.43L118.667 157.229L113.439 154.351L113.198 154.217L112.956 154.351C110.561 155.676 107.938 156.629 105.167 157.133L104.896 157.182L104.793 157.439L102.568 162.973L95.4229 162.616L93.7627 156.886L93.6855 156.621L93.4209 156.544L92.915 156.394C90.4005 155.614 88.0584 154.459 85.9482 152.999L85.7207 152.841L85.4668 152.95L79.9766 155.292L75.1768 149.986L78.0566 144.757L78.1895 144.516L78.0566 144.274C76.7317 141.879 75.7788 139.256 75.2744 136.485L75.2246 136.213L74.9688 136.111L69.4336 133.886L69.791 126.741L75.5215 125.081L75.7861 125.003L75.8623 124.739C76.6409 122.032 77.8514 119.517 79.4092 117.266L79.5654 117.039L79.458 116.785L77.1143 111.294L82.4199 106.496L87.6494 109.375L87.8916 109.507L88.1328 109.375C90.5279 108.049 93.1512 107.097 95.9219 106.592L96.1934 106.542L96.2969 106.287L98.5205 100.751L105.666 101.109Z" fill="#91B3FA" stroke="black"/>
<path d="M99.2051 125.161C102.908 124.428 106.509 126.83 107.247 130.524C107.583 132.203 107.287 133.909 106.414 135.367L106.231 135.655C105.282 137.079 103.867 138.076 102.218 138.49L101.885 138.565C101.549 138.632 101.212 138.673 100.878 138.69C99.4236 138.764 97.9897 138.372 96.7539 137.548C95.2345 136.535 94.2025 134.993 93.8447 133.202C93.1062 129.508 95.5112 125.901 99.2061 125.162L99.2051 125.161ZM100.249 125.975C99.9643 125.99 99.6776 126.026 99.3906 126.083H99.3896C96.2023 126.721 94.1288 129.83 94.7656 133.018C95.0741 134.56 95.9652 135.895 97.2744 136.767C98.5843 137.64 100.157 137.95 101.7 137.644H101.701C103.148 137.355 104.41 136.552 105.281 135.375L105.45 135.134C106.323 133.825 106.635 132.251 106.326 130.708C105.747 127.807 103.119 125.829 100.249 125.975Z" fill="#BDD0FB" stroke="black"/>
<path d="M101.092 113.992L101.536 114.009C106.276 114.246 110.638 116.314 113.821 119.834C116.594 122.899 118.182 126.741 118.39 130.811C118.42 131.416 118.421 132.026 118.391 132.639C117.931 141.814 110.551 149.036 101.566 149.494C100.971 149.524 100.368 149.524 99.7588 149.494C98.5508 149.433 97.3469 149.251 96.1797 148.949C96.1543 148.942 96.1289 148.935 96.1035 148.928C96.0766 148.921 96.0493 148.914 96.0225 148.907H96.0234C95.8478 148.86 95.7214 148.719 95.6855 148.551L95.6758 148.478C95.6746 148.454 95.6751 148.43 95.6777 148.406L95.6914 148.332C95.7578 148.084 96.0141 147.934 96.2666 148V148C97.4193 148.31 98.6099 148.497 99.8057 148.556C99.8125 148.557 99.8194 148.556 99.8262 148.556L100.002 148.564C102.834 148.679 105.589 148.083 108.066 146.862C109.409 146.2 110.67 145.352 111.817 144.333L111.818 144.334C111.829 144.325 111.845 144.311 111.849 144.307L111.854 144.302C111.861 144.296 111.918 144.244 111.939 144.224C115.164 141.304 117.104 137.336 117.426 133.013L117.452 132.593C117.482 132.013 117.481 131.435 117.452 130.863C117.261 127.127 115.842 123.593 113.368 120.738L113.126 120.464L112.84 120.156C109.852 117.011 105.837 115.165 101.49 114.948H101.489C97.005 114.725 92.693 116.26 89.3604 119.274C86.0286 122.288 84.0685 126.422 83.8438 130.91C83.8147 131.481 83.8148 132.052 83.8438 132.619C83.9617 134.925 84.5516 137.182 85.5811 139.248L85.793 139.659C85.8272 139.723 85.8446 139.789 85.8477 139.853V139.855C85.8566 140.032 85.7644 140.205 85.6006 140.292C85.3695 140.415 85.086 140.328 84.9639 140.099C83.7395 137.804 83.0396 135.265 82.9062 132.668C82.8756 132.069 82.8751 131.467 82.9053 130.864C83.1429 126.123 85.2106 121.762 88.7305 118.578C92.1403 115.494 96.511 113.871 101.092 113.992Z" fill="#BDD0FB" stroke="black"/>
<defs>
<linearGradient id="paint0_linear_49_2874" x1="517.731" y1="564.748" x2="149.603" y2="107.556" gradientUnits="userSpaceOnUse">
<stop stop-color="#DAE3FE"/>
<stop offset="1" stop-color="#E9EFFD"/>
</linearGradient>
<linearGradient id="paint1_linear_49_2874" x1="580.651" y1="261.662" x2="-208.458" y2="198.533" gradientUnits="userSpaceOnUse">
<stop stop-color="#4F52FF"/>
<stop offset="1" stop-color="#4042E2"/>
</linearGradient>
<linearGradient id="paint2_linear_49_2874" x1="562.345" y1="68.7533" x2="-710.216" y2="703.19" gradientUnits="userSpaceOnUse">
<stop stop-color="#4F52FF"/>
<stop offset="1" stop-color="#4042E2"/>
</linearGradient>
<linearGradient id="paint3_linear_49_2874" x1="693.514" y1="-85.4582" x2="-400.151" y2="670.702" gradientUnits="userSpaceOnUse">
<stop stop-color="#4F52FF"/>
<stop offset="1" stop-color="#4042E2"/>
</linearGradient>
<linearGradient id="paint4_linear_49_2874" x1="460.746" y1="-253.171" x2="161.985" y2="384.462" gradientUnits="userSpaceOnUse">
<stop stop-color="#FF928E"/>
<stop offset="1" stop-color="#FE7062"/>
</linearGradient>
<linearGradient id="paint5_linear_49_2874" x1="436.045" y1="281.278" x2="585.265" y2="330.609" gradientUnits="userSpaceOnUse">
<stop stop-color="#4F52FF"/>
<stop offset="1" stop-color="#4042E2"/>
</linearGradient>
<linearGradient id="paint6_linear_49_2874" x1="439.152" y1="267.772" x2="594.918" y2="288.671" gradientUnits="userSpaceOnUse">
<stop stop-color="#4F52FF"/>
<stop offset="1" stop-color="#4042E2"/>
</linearGradient>
<linearGradient id="paint7_linear_49_2874" x1="222.678" y1="185.179" x2="379.421" y2="264.343" gradientUnits="userSpaceOnUse">
<stop stop-color="#09005D"/>
<stop offset="1" stop-color="#1A0F91"/>
</linearGradient>
<linearGradient id="paint8_linear_49_2874" x1="249.572" y1="228.1" x2="380.767" y2="271.472" gradientUnits="userSpaceOnUse">
<stop stop-color="#09005D"/>
<stop offset="1" stop-color="#1A0F91"/>
</linearGradient>
<linearGradient id="paint9_linear_49_2874" x1="329.067" y1="435.109" x2="307.792" y2="435.852" gradientUnits="userSpaceOnUse">
<stop stop-color="#09005D"/>
<stop offset="1" stop-color="#1A0F91"/>
</linearGradient>
<linearGradient id="paint10_linear_49_2874" x1="327.499" y1="426.829" x2="322.078" y2="427.574" gradientUnits="userSpaceOnUse">
<stop stop-color="#FEBBBA"/>
<stop offset="1" stop-color="#FF928E"/>
</linearGradient>
<linearGradient id="paint11_linear_49_2874" x1="434.098" y1="397.936" x2="430.792" y2="418.966" gradientUnits="userSpaceOnUse">
<stop stop-color="#09005D"/>
<stop offset="1" stop-color="#1A0F91"/>
</linearGradient>
<linearGradient id="paint12_linear_49_2874" x1="425.672" y1="397.903" x2="425.376" y2="403.367" gradientUnits="userSpaceOnUse">
<stop stop-color="#FEBBBA"/>
<stop offset="1" stop-color="#FF928E"/>
</linearGradient>
<linearGradient id="paint13_linear_49_2874" x1="321.367" y1="251.061" x2="330.093" y2="253.934" gradientUnits="userSpaceOnUse">
<stop stop-color="#FEBBBA"/>
<stop offset="1" stop-color="#FF928E"/>
</linearGradient>
<linearGradient id="paint14_linear_49_2874" x1="385.391" y1="370.96" x2="425.907" y2="449.179" gradientUnits="userSpaceOnUse">
<stop stop-color="#09005D"/>
<stop offset="1" stop-color="#1A0F91"/>
</linearGradient>
<linearGradient id="paint15_linear_49_2874" x1="276.153" y1="400.85" x2="342.846" y2="318.375" gradientUnits="userSpaceOnUse">
<stop stop-color="#FF928E"/>
<stop offset="1" stop-color="#FE7062"/>
</linearGradient>
<linearGradient id="paint16_linear_49_2874" x1="328.658" y1="381.874" x2="376.875" y2="391.709" gradientUnits="userSpaceOnUse">
<stop stop-color="#09005D"/>
<stop offset="1" stop-color="#1A0F91"/>
</linearGradient>
<linearGradient id="paint17_linear_49_2874" x1="352.717" y1="259.071" x2="384.003" y2="336.017" gradientUnits="userSpaceOnUse">
<stop stop-color="#FEBBBA"/>
<stop offset="1" stop-color="#FF928E"/>
</linearGradient>
<linearGradient id="paint18_linear_49_2874" x1="363.648" y1="273.829" x2="361.332" y2="302.839" gradientUnits="userSpaceOnUse">
<stop stop-color="#FEBBBA"/>
<stop offset="1" stop-color="#FF928E"/>
</linearGradient>
<linearGradient id="paint19_linear_49_2874" x1="369.94" y1="286.921" x2="354.277" y2="272.989" gradientUnits="userSpaceOnUse">
<stop stop-color="#09005D"/>
<stop offset="1" stop-color="#1A0F91"/>
</linearGradient>
<linearGradient id="paint20_linear_49_2874" x1="370.636" y1="304.649" x2="369.716" y2="284.503" gradientUnits="userSpaceOnUse">
<stop stop-color="#FEBBBA"/>
<stop offset="1" stop-color="#FF928E"/>
</linearGradient>
<linearGradient id="paint21_linear_49_2874" x1="399.998" y1="267.15" x2="405.357" y2="268.243" gradientUnits="userSpaceOnUse">
<stop stop-color="#FEBBBA"/>
<stop offset="1" stop-color="#FF928E"/>
</linearGradient>
</defs>
</svg>
