<svg width="435" height="436" viewBox="0 0 435 436" fill="none" xmlns="http://www.w3.org/2000/svg">
<g clip-path="url(#clip0_49_2728)">
<path d="M20.9853 83.0463C54.5746 26.1388 118.506 12.2253 142.619 6.97805C224.678 -10.8792 346.1 10.5775 404.685 107.571C456.102 192.699 427.473 283.621 423.323 296.086C416.365 316.992 398.943 367.133 349.55 401.098C272.655 453.973 155.452 442.111 115.344 387.531C96.5065 361.895 111.75 350.071 89.8101 304.748C60.4278 244.041 23.9594 245.499 6.96763 196.897C-12.2144 142.029 17.8806 88.3054 20.9853 83.0463Z" fill="#CADDFF"/>
<path d="M227.991 345.816C226.794 344.078 226.794 341.835 227.991 340.097C229.642 337.696 230.542 335.108 230.542 332.411C230.542 319.87 211.104 309.701 187.126 309.701C163.148 309.701 143.709 319.868 143.709 332.411C143.709 335.108 144.609 337.696 146.26 340.097C147.458 341.835 147.458 344.078 146.26 345.816C144.609 348.217 143.709 350.805 143.709 353.502C143.709 359.452 148.087 364.865 155.244 368.916C155.088 369.593 154.995 370.279 154.995 370.977C154.995 380.258 169.381 387.782 187.126 387.782C204.87 387.782 219.256 380.258 219.256 370.977C219.256 370.279 219.166 369.593 219.007 368.916C226.167 364.868 230.545 359.452 230.545 353.502C230.545 350.805 229.644 348.217 227.993 345.816H227.991Z" fill="white"/>
<path d="M187.125 388.566C168.974 388.566 154.208 380.674 154.208 370.974C154.208 370.435 154.258 369.88 154.36 369.312C146.977 364.996 142.922 359.397 142.922 353.502C142.922 350.703 143.827 347.965 145.611 345.372C146.62 343.905 146.62 342.01 145.611 340.543C143.827 337.948 142.922 335.213 142.922 332.411C142.922 319.457 162.752 308.917 187.125 308.917C211.497 308.917 231.328 319.457 231.328 332.411C231.328 335.21 230.423 337.948 228.639 340.543C227.629 342.01 227.629 343.905 228.639 345.372C230.423 347.967 231.328 350.703 231.328 353.502C231.328 359.397 227.273 364.998 219.89 369.312C219.99 369.88 220.042 370.435 220.042 370.974C220.042 380.674 205.276 388.566 187.125 388.566ZM187.125 310.486C163.619 310.486 144.494 320.321 144.494 332.408C144.494 334.885 145.307 337.321 146.908 339.648C148.288 341.656 148.288 344.252 146.908 346.258C145.307 348.585 144.494 351.021 144.494 353.497C144.494 358.934 148.45 364.165 155.631 368.225C155.935 368.396 156.089 368.747 156.011 369.087C155.856 369.745 155.783 370.36 155.783 370.967C155.783 379.8 169.843 386.987 187.127 386.987C204.411 386.987 218.472 379.8 218.472 370.967C218.472 370.36 218.398 369.745 218.244 369.087C218.165 368.747 218.317 368.396 218.624 368.223C225.805 364.16 229.76 358.93 229.76 353.495C229.76 351.018 228.947 348.582 227.346 346.255C225.964 344.247 225.964 341.652 227.346 339.645C228.947 337.316 229.76 334.883 229.76 332.406C229.76 320.318 210.635 310.484 187.13 310.484L187.125 310.486Z" fill="black"/>
<path d="M184.94 351.709C174.055 351.709 163.411 350.19 151.897 347.153C151.476 347.041 151.227 346.612 151.336 346.191C151.448 345.771 151.88 345.522 152.298 345.631C175.046 351.633 194.378 351.633 219.021 345.626C219.441 345.519 219.869 345.783 219.971 346.203C220.073 346.626 219.814 347.051 219.394 347.153C206.937 350.19 195.819 351.707 184.94 351.707V351.709Z" fill="#99B9FF"/>
<path d="M186.602 373.087C177.072 373.087 167.748 371.758 157.664 369.096C157.244 368.985 156.995 368.555 157.104 368.135C157.215 367.714 157.648 367.465 158.066 367.574C177.953 372.821 194.855 372.821 216.4 367.569C216.823 367.465 217.249 367.726 217.351 368.146C217.453 368.569 217.194 368.994 216.773 369.096C205.865 371.755 196.131 373.085 186.602 373.085V373.087Z" fill="#99B9FF"/>
<mask id="mask0_49_2728" style="mask-type:luminance" maskUnits="userSpaceOnUse" x="69" y="39" width="236" height="294">
<path d="M304.971 158.303C304.971 93.9896 251.413 39.1216 187.069 39.1216C122.845 39.1216 69.8673 92.5009 69.4397 156.693C69.2212 189.38 84.9991 219.785 106.507 241.062C122.023 256.409 133.331 275.485 138.825 296.602L139.091 297.623C144.422 318.118 162.934 332.425 184.121 332.425H192.808C213.995 332.425 232.507 318.118 237.837 297.623L237.999 297.005C243.453 276.038 254.307 256.782 269.821 241.653C291.507 220.507 304.973 190.978 304.973 158.305L304.971 158.303Z" fill="white"/>
</mask>
<g mask="url(#mask0_49_2728)">
<path d="M262.358 146.446C259.84 145.819 258.02 143.475 258.284 140.757C258.412 139.439 259.078 138.221 260.063 137.314C264.363 133.354 266.912 127.584 266.446 121.247C265.727 111.398 257.579 103.435 247.535 102.756C235.608 101.951 225.676 111.199 225.676 122.724C225.676 128.517 228.187 133.736 232.197 137.39C233.299 138.394 233.917 139.807 233.917 141.281C233.917 143.775 232.173 145.859 229.819 146.448H186.15V186.966H186.184V187.792C186.184 190.176 187.706 192.377 190.034 193.061C192.068 193.659 194.21 193.061 195.593 191.603C199.714 187.255 205.781 184.705 212.435 185.292C222.319 186.163 230.225 194.096 230.909 203.804C231.733 215.503 222.3 225.244 210.547 225.244C204.603 225.244 199.251 222.751 195.522 218.774C195.096 218.321 194.609 217.917 194.035 217.67C190.041 215.963 186.184 218.789 186.184 222.497V223.487H186.15V264.005H304.53C305.354 264.005 306.024 263.35 306.024 262.54V146.446H262.356H262.358Z" fill="#CADDFF"/>
<path d="M291.435 28.8887H186.152V71.3746C185.684 73.8558 183.47 75.7339 180.804 75.7339C179.301 75.7339 177.861 75.1261 176.837 74.0457C172.813 69.7981 166.929 67.2671 160.458 67.6992C150.189 68.383 141.968 76.6409 141.495 86.7246C140.956 98.2091 150.291 107.687 161.884 107.687C167.791 107.687 173.11 105.225 176.837 101.293C177.861 100.213 179.301 99.6052 180.804 99.6052C183.47 99.6052 185.681 101.486 186.152 103.964V146.448H229.82C232.174 145.862 233.918 143.775 233.918 141.282C233.918 139.807 233.298 138.394 232.198 137.39C228.188 133.736 225.677 128.517 225.677 122.724C225.677 111.356 235.341 102.2 247.052 102.727C257.335 103.19 265.754 111.254 266.452 121.325C266.892 127.674 264.312 133.442 259.981 137.39C258.879 138.394 258.259 139.807 258.259 141.282C258.259 143.775 260.003 145.859 262.357 146.448H306.025V43.1963C306.025 35.2946 299.493 28.8887 291.435 28.8887Z" fill="#99B9FF"/>
<path d="M306.026 147.231H262.357C262.293 147.231 262.229 147.224 262.167 147.208C259.405 146.519 257.473 144.081 257.473 141.279C257.473 139.581 258.193 137.953 259.452 136.806C263.809 132.836 266.073 127.214 265.669 121.377C264.994 111.64 256.975 103.959 247.017 103.511C241.515 103.264 236.32 105.194 232.391 108.95C228.569 112.602 226.464 117.493 226.464 122.721C226.464 127.95 228.747 133.178 232.728 136.806C233.985 137.95 234.705 139.581 234.705 141.277C234.705 144.078 232.773 146.517 230.011 147.205C229.949 147.222 229.885 147.229 229.821 147.229H186.152C185.717 147.229 185.366 146.878 185.366 146.443V104.035C184.931 101.915 183.026 100.386 180.805 100.386C179.515 100.386 178.277 100.911 177.408 101.827C173.408 106.049 167.749 108.468 161.882 108.468C156.014 108.468 150.404 106.07 146.41 101.887C142.467 97.7554 140.441 92.3562 140.707 86.684C141.201 76.1278 149.67 67.6254 160.404 66.9107C166.837 66.4904 173.032 68.8861 177.408 73.5018C178.277 74.4183 179.515 74.9454 180.805 74.9454C183.024 74.9454 184.931 73.4139 185.366 71.2961V28.8884C185.366 28.4539 185.717 28.1025 186.152 28.1025H291.436C299.914 28.1025 306.812 34.8741 306.812 43.1961V146.448C306.812 146.882 306.461 147.234 306.026 147.234V147.231ZM262.457 145.66H305.24V43.1961C305.24 35.7407 299.047 29.6743 291.436 29.6743H186.938V71.372C186.938 71.4219 186.934 71.4694 186.924 71.5169C186.378 74.4135 183.803 76.5172 180.805 76.5172C179.085 76.5172 177.432 75.812 176.265 74.5821C172.213 70.306 166.474 68.0765 160.509 68.4777C150.572 69.1402 142.735 76.9992 142.277 86.7552C142.032 91.9953 143.904 96.9814 147.548 100.799C151.247 104.672 156.47 106.894 161.882 106.894C167.293 106.894 172.562 104.653 176.265 100.745C177.429 99.5148 179.083 98.812 180.803 98.812C183.8 98.812 186.375 100.916 186.922 103.812C186.931 103.86 186.936 103.91 186.936 103.957V145.655H229.716C231.73 145.111 233.13 143.323 233.13 141.274C233.13 140.018 232.595 138.812 231.666 137.964C227.36 134.04 224.889 128.481 224.889 122.717C224.889 116.952 227.167 111.759 231.3 107.811C235.545 103.755 241.147 101.668 247.086 101.937C257.842 102.421 266.505 110.731 267.234 121.266C267.671 127.584 265.22 133.669 260.507 137.964C259.576 138.812 259.041 140.021 259.041 141.274C259.041 143.323 260.44 145.111 262.455 145.655L262.457 145.66Z" fill="black"/>
<path d="M160.458 67.6968C166.931 67.2647 172.813 69.7957 176.837 74.0434C177.861 75.1237 179.3 75.7315 180.804 75.7315C183.469 75.7315 185.681 73.8511 186.151 71.3723V28.8887H80.8675C72.8099 28.8887 66.2773 35.2946 66.2773 43.1963V146.448H107.592V146.474H108.601C111.606 146.474 114.043 148.863 114.043 151.812C114.043 153.286 113.423 154.699 112.321 155.703C108.311 159.357 105.801 164.576 105.801 170.369C105.801 181.738 115.464 190.893 127.175 190.366C137.459 189.903 145.877 181.84 146.576 171.768C147.015 165.419 144.435 159.652 140.102 155.703C139 154.699 138.38 153.286 138.38 151.812C138.38 148.865 140.815 146.474 143.822 146.474H144.832V146.448H186.146V103.964C185.678 101.483 183.464 99.6052 180.799 99.6052C179.295 99.6052 177.856 100.213 176.832 101.293C173.105 105.228 167.784 107.687 161.878 107.687C150.286 107.687 140.951 98.2091 141.49 86.7246C141.962 76.6409 150.184 68.383 160.453 67.6992L160.458 67.6968Z" fill="#99B9FF"/>
<path d="M126.2 191.17C120.644 191.17 115.43 189.098 111.427 185.273C107.292 181.322 105.016 176.027 105.016 170.367C105.016 164.706 107.486 159.046 111.793 155.119C112.724 154.271 113.259 153.065 113.259 151.809C113.259 149.299 111.171 147.26 108.603 147.26H107.593C107.524 147.26 107.455 147.25 107.391 147.234H66.2765C65.8418 147.234 65.4902 146.882 65.4902 146.448V43.196C65.4902 34.8741 72.3886 28.1025 80.8667 28.1025H186.15C186.585 28.1025 186.937 28.4539 186.937 28.8884V71.3744C186.937 71.4243 186.932 71.4718 186.922 71.5192C186.376 74.4159 183.801 76.5195 180.803 76.5195C179.083 76.5195 177.43 75.8144 176.264 74.5845C172.211 70.3083 166.472 68.0789 160.507 68.4801C150.57 69.1426 142.734 77.0015 142.275 86.7576C142.031 91.9977 143.902 96.9838 147.546 100.802C151.245 104.674 156.469 106.897 161.88 106.897C167.291 106.897 172.56 104.655 176.264 100.747C177.428 99.5172 179.081 98.8144 180.801 98.8144C183.799 98.8144 186.374 100.918 186.92 103.815C186.929 103.862 186.934 103.912 186.934 103.959V146.443C186.934 146.878 186.583 147.229 186.148 147.229H145.028C144.967 147.246 144.9 147.255 144.834 147.255H143.824C141.256 147.255 139.17 149.297 139.17 151.804C139.17 153.06 139.705 154.266 140.634 155.114C145.347 159.409 147.798 165.495 147.361 171.813C146.632 182.347 137.968 190.658 127.212 191.142C126.875 191.156 126.535 191.166 126.2 191.166V191.17ZM107.795 145.686H108.603C112.038 145.686 114.831 148.433 114.831 151.809C114.831 153.507 114.112 155.135 112.853 156.28C108.871 159.908 106.588 165.041 106.588 170.364C106.588 175.688 108.693 180.484 112.515 184.135C116.444 187.891 121.639 189.819 127.143 189.575C137.101 189.126 145.119 181.445 145.796 171.708C146.199 165.872 143.933 160.25 139.577 156.28C138.32 155.133 137.6 153.504 137.6 151.807C137.6 148.43 140.394 145.683 143.829 145.683H144.644C144.705 145.667 144.772 145.657 144.838 145.657H185.366V104.035C184.932 101.915 183.027 100.386 180.805 100.386C179.516 100.386 178.278 100.911 177.409 101.827C173.408 106.049 167.75 108.468 161.882 108.468C156.015 108.468 150.404 106.07 146.411 101.887C142.468 97.7554 140.441 92.3562 140.707 86.684C141.201 76.1278 149.67 67.6254 160.405 66.9107C166.838 66.4904 173.033 68.8861 177.409 73.5018C178.278 74.4183 179.516 74.9454 180.805 74.9454C183.024 74.9454 184.932 73.4139 185.366 71.2961V29.6743H80.8691C73.258 29.6743 67.0652 35.7407 67.0652 43.196V145.662H107.593C107.662 145.662 107.731 145.671 107.795 145.688V145.686Z" fill="black"/>
<path d="M306.183 263.618L282.478 263.872C282.449 263.874 282.269 263.877 282.24 263.879L275.551 263.884V263.927H274.836C271.831 263.927 269.391 261.507 269.389 258.561C269.389 257.086 270.007 255.657 271.107 254.65C275.114 250.991 277.62 245.763 277.615 239.97C277.606 228.602 264.752 224.843 259.901 224.304C249.67 223.167 241.192 226.083 240.503 236.154C240.069 242.503 238.99 250.711 243.325 254.655C244.428 255.659 245.048 257.07 245.05 258.544C245.05 259.247 245.463 261.011 243.888 262.585C242.807 263.666 239.316 264.224 237.786 264.183C232.317 264.043 228.697 263.91 228.697 263.91L187.383 263.941L187.418 306.427C187.889 308.906 190.103 310.784 192.768 310.781C194.272 310.781 195.711 310.171 196.735 309.091C200.46 305.154 205.779 302.69 211.684 302.685C223.276 302.675 232.619 312.147 232.089 323.631C231.626 333.715 223.412 341.98 213.14 342.673C206.667 343.11 200.783 340.584 196.754 336.339C195.73 335.258 194.288 334.653 192.785 334.653C190.119 334.653 187.908 336.536 187.442 339.017L187.478 381.503L292.761 381.42C300.819 381.412 307.344 375.002 307.34 367.1L306.185 263.616L306.183 263.618Z" fill="#99B9FF"/>
<path d="M187.479 382.291C187.044 382.291 186.692 381.94 186.692 381.505L186.657 339.019C186.657 338.972 186.661 338.922 186.671 338.874C187.217 335.978 189.787 333.872 192.785 333.869H192.79C194.51 333.869 196.163 334.572 197.327 335.799C201.382 340.073 207.124 342.291 213.089 341.892C223.025 341.222 230.855 333.356 231.304 323.598C231.546 318.358 229.669 313.372 226.023 309.559C222.324 305.691 217.105 303.473 211.699 303.473H211.685C206.247 303.478 201.005 305.724 197.306 309.635C196.142 310.864 194.489 311.57 192.769 311.572H192.764C189.768 311.572 187.196 309.473 186.647 306.576C186.638 306.529 186.633 306.479 186.633 306.432L186.6 263.946C186.6 263.737 186.683 263.537 186.83 263.39C186.977 263.243 187.177 263.16 187.386 263.16L228.7 263.126C228.767 263.126 232.408 263.259 237.81 263.399C239.402 263.421 242.523 262.844 243.336 262.03C244.428 260.937 244.343 259.753 244.288 258.969C244.276 258.805 244.267 258.66 244.267 258.544C244.267 257.288 243.732 256.084 242.799 255.237C238.57 251.39 239.138 243.88 239.594 237.847C239.639 237.254 239.682 236.669 239.722 236.102C239.996 232.108 241.459 228.977 244.072 226.795C247.554 223.886 253.061 222.758 259.992 223.525C265.112 224.093 278.395 228.155 278.407 239.972C278.412 245.742 275.946 251.305 271.642 255.232C270.711 256.079 270.178 257.293 270.181 258.561C270.181 261.087 272.274 263.141 274.839 263.141H275.309C275.385 263.112 275.469 263.098 275.554 263.098L282.234 263.093C282.27 263.093 282.312 263.091 282.353 263.088H282.434L306.179 262.832C306.623 262.849 306.97 263.176 306.975 263.608L308.129 367.093C308.134 371.136 306.535 374.928 303.63 377.782C300.729 380.631 296.872 382.203 292.767 382.205L187.483 382.289L187.479 382.291ZM188.232 339.095L188.265 380.717L292.762 380.636C296.451 380.634 299.919 379.221 302.525 376.664C305.126 374.109 306.559 370.714 306.554 367.105L305.407 264.413L282.493 264.658C282.464 264.658 282.426 264.66 282.388 264.66H282.296C282.284 264.663 282.255 264.665 282.244 264.665L275.799 264.67C275.723 264.698 275.64 264.712 275.554 264.712H274.839C271.404 264.712 268.611 261.954 268.606 258.561C268.606 256.854 269.323 255.215 270.58 254.071C274.559 250.44 276.837 245.3 276.832 239.972C276.823 229.309 264.549 225.612 259.817 225.088C253.322 224.368 248.224 225.372 245.079 228.001C242.808 229.898 241.533 232.659 241.29 236.209C241.252 236.781 241.207 237.368 241.162 237.966C240.708 243.954 240.195 250.744 243.858 254.076C245.117 255.22 245.837 256.849 245.839 258.546C245.839 258.634 245.846 258.739 245.856 258.862C245.918 259.734 246.046 261.545 244.447 263.143C243.058 264.532 239.167 265.024 237.767 264.971C232.356 264.831 228.707 264.701 228.669 264.698L188.17 264.731L188.203 306.353C188.64 308.471 190.545 310 192.762 310H192.766C194.056 310 195.294 309.473 196.161 308.554C200.156 304.333 205.812 301.906 211.682 301.901H211.699C217.533 301.901 223.165 304.295 227.161 308.471C231.107 312.6 233.138 317.997 232.876 323.669C232.392 334.225 223.93 342.735 213.195 343.459C206.772 343.894 200.565 341.495 196.187 336.88C195.318 335.966 194.08 335.441 192.792 335.441H192.79C190.571 335.441 188.666 336.975 188.234 339.095H188.232Z" fill="black"/>
<path d="M230.909 203.809C230.218 193.961 222.096 185.971 212.055 185.261C205.584 184.805 199.698 187.31 195.657 191.534C194.761 192.472 193.559 193.111 192.258 193.255C188.97 193.619 186.184 191.107 186.184 187.954V186.963H186.15V146.446H144.836V146.472H143.993C141.563 146.472 139.318 147.963 138.619 150.247C138.009 152.242 138.619 154.343 140.106 155.701C144.437 159.647 147.019 165.417 146.58 171.765C145.881 181.837 137.462 189.901 127.179 190.363C115.468 190.891 105.804 181.735 105.804 170.367C105.804 164.538 108.346 159.291 112.401 155.632C112.864 155.214 113.275 154.739 113.527 154.174C115.266 150.257 112.387 146.474 108.605 146.474H107.596V146.448H66.2812V264.008H112.964L102.453 295.581L125.578 313.313L153.328 297.644L142.817 264.01H186.155V223.492H186.188V222.666C186.188 220.285 187.709 218.084 190.034 217.397C192.07 216.797 194.213 217.395 195.595 218.853C199.322 222.787 204.643 225.247 210.549 225.247C222.3 225.247 231.731 215.507 230.911 203.812L230.909 203.809Z" fill="#99B9FF"/>
<path d="M125.573 314.096C125.405 314.096 125.236 314.041 125.093 313.934L101.968 296.203C101.702 295.999 101.595 295.65 101.702 295.332L111.869 264.793H66.2765C65.8418 264.793 65.4902 264.442 65.4902 264.007V146.448C65.4902 146.014 65.8418 145.662 66.2765 145.662H107.591C107.66 145.662 107.729 145.672 107.793 145.688H108.6C110.736 145.688 112.698 146.745 113.85 148.516C115 150.283 115.142 152.462 114.24 154.492C113.974 155.093 113.541 155.658 112.921 156.216C108.895 159.849 106.584 165.008 106.584 170.367C106.584 175.726 108.688 180.486 112.51 184.138C116.44 187.894 121.635 189.822 127.139 189.577C137.097 189.129 145.114 181.448 145.791 171.711C146.195 165.875 143.929 160.252 139.572 156.282C137.824 154.689 137.168 152.289 137.864 150.019C138.645 147.469 141.163 145.688 143.99 145.688H144.636C144.698 145.672 144.765 145.662 144.831 145.662H186.146C186.58 145.662 186.932 146.014 186.932 146.448V186.75C186.953 186.818 186.965 186.892 186.965 186.966V187.956C186.965 189.228 187.516 190.451 188.478 191.313C189.485 192.213 190.794 192.631 192.167 192.474C193.248 192.355 194.286 191.828 195.087 190.993C199.479 186.401 205.681 184.022 212.11 184.477C222.555 185.213 230.973 193.502 231.691 203.754C232.094 209.519 230.139 215.03 226.184 219.271C222.177 223.568 216.476 226.03 210.544 226.03C204.613 226.03 199.018 223.611 195.018 219.389C193.806 218.112 191.977 217.637 190.25 218.145C188.317 218.715 186.967 220.572 186.967 222.661V223.487C186.967 223.566 186.956 223.642 186.934 223.713V264.005C186.934 264.44 186.583 264.791 186.148 264.791H143.879L154.072 297.405C154.183 297.758 154.031 298.141 153.708 298.323L125.958 313.991C125.837 314.06 125.704 314.094 125.571 314.094L125.573 314.096ZM103.372 295.296L125.64 312.37L152.385 297.269L142.064 264.24C141.99 264.003 142.033 263.741 142.18 263.54C142.327 263.338 142.563 263.219 142.814 263.219H185.366V223.487C185.366 223.409 185.378 223.333 185.4 223.262V222.661C185.4 219.881 187.212 217.404 189.811 216.64C192.113 215.961 194.548 216.602 196.165 218.309C199.869 222.217 205.111 224.458 210.549 224.458C215.986 224.458 221.326 222.177 225.039 218.197C228.695 214.28 230.5 209.189 230.128 203.864C229.462 194.388 221.671 186.728 212.005 186.044C206.045 185.629 200.299 187.823 196.229 192.078C195.175 193.182 193.795 193.875 192.348 194.036C190.55 194.233 188.763 193.668 187.438 192.481C186.143 191.323 185.402 189.672 185.402 187.953V187.179C185.381 187.111 185.369 187.037 185.369 186.963V147.232H145.036C144.974 147.248 144.907 147.258 144.841 147.258H143.997C141.857 147.258 139.957 148.58 139.375 150.477C138.859 152.161 139.344 153.939 140.638 155.119C145.351 159.414 147.803 165.5 147.366 171.818C146.637 182.352 137.973 190.662 127.217 191.147C121.288 191.415 115.677 189.328 111.432 185.273C107.296 181.322 105.021 176.027 105.021 170.367C105.021 164.706 107.52 158.98 111.879 155.048C112.332 154.639 112.636 154.25 112.812 153.853C113.494 152.317 113.394 150.684 112.541 149.371C111.681 148.048 110.211 147.258 108.61 147.258H107.6C107.531 147.258 107.463 147.248 107.398 147.232H67.0723V263.219H112.969C113.221 263.219 113.458 263.34 113.608 263.547C113.755 263.751 113.796 264.015 113.715 264.254L103.381 295.296H103.372Z" fill="black"/>
<path d="M82.1934 381.588L187.477 381.505L187.441 339.019C187.907 336.538 190.119 334.658 192.784 334.655C194.288 334.655 195.729 335.261 196.753 336.341C200.782 340.586 206.666 343.113 213.139 342.676C223.409 341.982 231.623 333.72 232.089 323.634C232.618 312.149 223.275 302.678 211.681 302.687C205.773 302.692 200.454 305.157 196.732 309.093C195.71 310.174 194.271 310.784 192.765 310.784C190.1 310.784 187.886 308.908 187.415 306.429L187.38 263.946L143.711 263.979C141.357 264.568 139.614 266.657 139.616 269.148C139.616 270.622 140.238 272.035 141.34 273.037C145.355 276.689 147.868 281.905 147.873 287.698C147.883 299.067 138.226 308.229 126.515 307.712C116.232 307.256 107.806 299.2 107.1 289.13C106.656 282.784 109.231 277.012 113.559 273.061C114.659 272.056 115.279 270.644 115.277 269.169C115.277 266.676 113.528 264.592 111.174 264.008L67.5059 264.041L67.589 367.293C67.5961 375.194 74.1334 381.595 82.1911 381.588H82.1934Z" fill="#99B9FF"/>
<path d="M82.1818 382.374C73.7085 382.374 66.8149 375.612 66.8077 367.292L66.7246 264.041C66.7246 263.832 66.8077 263.632 66.955 263.485C67.1023 263.338 67.3019 263.255 67.5109 263.255L111.179 263.221C111.243 263.221 111.308 263.229 111.369 263.245C114.134 263.934 116.068 266.37 116.068 269.172C116.068 270.867 115.351 272.498 114.094 273.645C109.742 277.617 107.481 283.244 107.889 289.078C108.571 298.815 116.595 306.489 126.556 306.93C132.069 307.182 137.25 305.237 141.177 301.479C144.997 297.825 147.097 292.934 147.092 287.703C147.087 282.38 144.799 277.249 140.816 273.623C139.557 272.479 138.835 270.85 138.835 269.152C138.832 266.351 140.761 263.912 143.524 263.219C143.586 263.205 143.65 263.195 143.714 263.195L187.382 263.162C187.817 263.162 188.169 263.514 188.169 263.948L188.204 306.356C188.641 308.474 190.546 310.003 192.763 310.003H192.767C194.057 310.003 195.295 309.475 196.162 308.557C200.158 304.333 205.814 301.909 211.681 301.904H211.698C217.532 301.904 223.166 304.297 227.16 308.476C231.108 312.602 233.136 317.999 232.875 323.674C232.388 334.232 223.929 342.74 213.194 343.464C206.766 343.894 200.564 341.5 196.186 336.887C195.316 335.97 194.079 335.446 192.791 335.446H192.789C190.57 335.446 188.665 336.98 188.233 339.1L188.266 381.507C188.266 381.716 188.183 381.916 188.036 382.063C187.888 382.21 187.689 382.293 187.48 382.293L82.1961 382.374H82.1842H82.1818ZM68.2948 264.824L68.3779 367.29C68.3851 374.741 74.5756 380.8 82.1795 380.8H82.1913L186.689 380.719L186.655 339.021C186.655 338.974 186.66 338.924 186.67 338.877C187.216 335.98 189.786 333.874 192.784 333.872H192.789C194.509 333.872 196.162 334.574 197.326 335.802C201.381 340.073 207.123 342.296 213.087 341.892C223.022 341.222 230.854 333.359 231.303 323.598C231.545 318.36 229.668 313.372 226.022 309.559C222.323 305.691 217.102 303.473 211.698 303.473H211.683C206.246 303.478 201.006 305.724 197.305 309.635C196.141 310.864 194.487 311.57 192.767 311.572H192.763C189.767 311.572 187.195 309.471 186.646 306.576C186.636 306.529 186.632 306.479 186.632 306.432L186.598 264.734L143.818 264.767C141.804 265.313 140.407 267.101 140.41 269.15C140.41 270.406 140.944 271.612 141.878 272.458C146.187 276.38 148.662 281.936 148.667 287.698C148.671 293.361 146.398 298.656 142.267 302.609C138.027 306.667 132.428 308.749 126.487 308.495C115.731 308.018 107.06 299.715 106.321 289.182C105.88 282.867 108.324 276.776 113.035 272.479C113.966 271.629 114.498 270.423 114.498 269.167C114.498 267.118 113.096 265.332 111.082 264.789L68.2995 264.822L68.2948 264.824Z" fill="black"/>
</g>
<path d="M192.805 333.211H184.117C162.577 333.211 143.746 318.659 138.328 297.82L138.062 296.799C132.696 276.173 121.593 257.093 105.952 241.62C82.0456 217.969 68.4507 187.013 68.6526 156.686C68.8617 125.385 81.3329 95.7634 103.774 73.2787C126.263 50.744 155.845 38.3335 187.07 38.3335C251.405 38.3335 305.759 93.2727 305.759 158.3C305.759 190.159 293.19 219.959 270.369 242.211C255.199 257.003 244.267 276.019 238.758 297.2L238.599 297.818C233.178 318.654 214.348 333.209 192.807 333.209L192.805 333.211ZM187.068 39.9077C123.07 39.9077 70.6551 92.2993 70.2252 156.698C70.0256 186.605 83.4518 217.15 107.059 240.504C122.901 256.174 134.147 275.506 139.584 296.405L139.85 297.426C145.091 317.572 163.294 331.64 184.12 331.64H192.807C213.63 331.64 231.836 317.569 237.076 297.426L237.236 296.808C242.818 275.349 253.895 256.082 269.271 241.09C291.786 219.135 304.186 189.734 304.186 158.303C304.186 94.1275 250.555 39.9077 187.07 39.9077H187.068Z" fill="black"/>
<path d="M187.695 31.7327H187.68C187.246 31.7256 186.901 31.3671 186.908 30.9326L187.448 0.771652C187.455 0.341901 187.806 0 188.234 0H188.248C188.683 0.00712294 189.027 0.365644 189.02 0.800144L188.481 30.9611C188.474 31.3908 188.122 31.7327 187.695 31.7327Z" fill="black"/>
<path d="M63.5789 103.755C63.4388 103.755 63.2986 103.717 63.1703 103.641L14.6749 74.2282C14.3044 74.0027 14.1856 73.5183 14.4113 73.1479C14.6369 72.7775 15.1192 72.6588 15.4921 72.8843L63.9875 102.297C64.3581 102.523 64.4768 103.007 64.2512 103.378C64.1039 103.622 63.845 103.755 63.5789 103.755Z" fill="black"/>
<path d="M95.5129 64.5125C95.3134 64.5125 95.1138 64.4365 94.9618 64.2869L64.9452 34.7101C64.6364 34.4062 64.6317 33.9076 64.9381 33.5989C65.2422 33.2903 65.741 33.2855 66.0498 33.5918L96.0664 63.1686C96.3752 63.4726 96.38 63.9712 96.0735 64.2798C95.9191 64.4365 95.7172 64.5149 95.5129 64.5149V64.5125Z" fill="black"/>
<path d="M308.738 81.4792C308.481 81.4792 308.227 81.3534 308.077 81.1207C307.842 80.7574 307.944 80.2707 308.31 80.0333L343.025 57.5461C343.389 57.3111 343.876 57.4132 344.113 57.7788C344.349 58.1421 344.246 58.6288 343.881 58.8663L309.165 81.3534C309.032 81.4389 308.885 81.4792 308.738 81.4792Z" fill="black"/>
<path d="M279.875 50.2617C279.716 50.2617 279.557 50.2142 279.419 50.1168C279.065 49.8652 278.982 49.3737 279.233 49.0199L303.694 14.7111C303.946 14.3573 304.437 14.2742 304.791 14.5259C305.145 14.7776 305.228 15.269 304.977 15.6228L280.516 49.9316C280.362 50.1477 280.122 50.2617 279.875 50.2617Z" fill="black"/>
<path d="M80.9637 402.625V417.048L74.0202 416.626L72.6543 402.625H80.9637Z" fill="white"/>
<path d="M80.9642 417.834C80.9475 417.834 80.9333 417.834 80.9167 417.834L73.9731 417.412C73.5859 417.388 73.2747 417.089 73.2367 416.704L71.8708 402.703C71.8494 402.482 71.9231 402.263 72.0704 402.097C72.22 401.933 72.4314 401.838 72.6524 401.838H80.9618C81.3965 401.838 81.7481 402.19 81.7481 402.624V417.048C81.7481 417.264 81.6578 417.471 81.501 417.62C81.3537 417.758 81.1613 417.834 80.9618 417.834H80.9642ZM74.738 415.882L80.1779 416.212V403.41H73.5218L74.738 415.88V415.882Z" fill="black"/>
<path d="M72.9797 435.033C75.8065 435.337 80.3983 435.304 85.8263 434.604C88.1614 434.302 89.3325 429.85 88.5154 428.255C84.8737 421.151 84.4034 417.159 82.7002 412.228L80.7974 415.096L79.7712 412.627C79.5954 412.335 79.2914 412.143 78.9517 412.112L76.2888 411.862C75.7329 411.81 75.0654 412.356 74.9704 412.907L73.2173 415.096L71.716 412.344L69.5424 430.249C69.483 432.949 71.3359 434.853 72.9797 435.031V435.033Z" fill="white"/>
<path d="M76.8752 436C75.4024 436 74.0531 435.938 72.8939 435.815C70.8415 435.594 68.6869 433.3 68.7535 430.235C68.7535 430.209 68.7558 430.183 68.7582 430.157L70.9318 412.252C70.9722 411.912 71.2287 411.639 71.5637 411.575C71.9033 411.514 72.2383 411.673 72.4022 411.972L73.3358 413.686L74.2456 412.549C74.5235 411.692 75.4903 410.998 76.3574 411.084L79.0179 411.333C79.6046 411.388 80.1367 411.722 80.4384 412.228C80.4574 412.261 80.4764 412.295 80.4907 412.33L80.9492 413.437L82.0371 411.798C82.2034 411.549 82.4932 411.416 82.7925 411.454C83.0895 411.492 83.3389 411.694 83.4363 411.977C83.9494 413.463 84.3603 414.89 84.7571 416.272C85.7049 419.57 86.6836 422.979 89.2087 427.901C89.8952 429.238 89.4724 431.617 88.6671 433.144C87.9782 434.449 87.0019 435.247 85.9187 435.387C82.7664 435.793 79.6046 436.005 76.8681 436.005L76.8752 436ZM70.326 430.306C70.2928 432.654 71.9176 434.129 73.0626 434.25C76.2576 434.592 80.9895 434.433 85.7239 433.823C86.4817 433.725 87.0233 432.894 87.2798 432.407C87.9972 431.045 88.154 429.281 87.8119 428.613C85.2179 423.554 84.2178 420.071 83.2486 416.701C82.9873 415.79 82.7331 414.909 82.4552 414.016L81.448 415.533C81.2889 415.775 81.0038 415.911 80.7164 415.882C80.4266 415.854 80.1771 415.669 80.0655 415.4L79.0702 413.002C79.0226 412.943 78.9514 412.905 78.873 412.898L76.2101 412.648C76.1032 412.637 75.7682 412.879 75.7374 413.047C75.7136 413.178 75.659 413.299 75.5758 413.404L73.8227 415.593C73.6588 415.799 73.3999 415.904 73.1386 415.885C72.8773 415.861 72.6421 415.709 72.5162 415.479L72.1908 414.883L70.3189 430.311L70.326 430.306Z" fill="black"/>
<path d="M78.7704 432.866C74.991 432.866 72.3874 432.023 72.2259 431.971C71.815 431.833 71.5917 431.389 71.7271 430.978C71.8625 430.565 72.3114 430.342 72.72 430.48C72.7747 430.499 78.1931 432.237 84.6117 430.551C85.0297 430.442 85.4621 430.691 85.5714 431.111C85.6806 431.531 85.4312 431.961 85.0107 432.07C82.7493 432.664 80.6161 432.866 78.768 432.866H78.7704Z" fill="black"/>
<path d="M82.0748 425.311H75.7394C75.3047 425.311 74.9531 424.96 74.9531 424.525C74.9531 424.091 75.3047 423.739 75.7394 423.739H82.0748C82.5095 423.739 82.8611 424.091 82.8611 424.525C82.8611 424.96 82.5095 425.311 82.0748 425.311Z" fill="black"/>
<path d="M29.8909 394.993L27.8385 412.744L21.332 412.513V394.993H29.8909Z" fill="white"/>
<path d="M27.8381 413.529C27.8381 413.529 27.8191 413.529 27.8096 413.529L21.3007 413.299C20.8779 413.285 20.543 412.936 20.543 412.513V394.995C20.543 394.561 20.8945 394.209 21.3293 394.209H29.8905C30.1138 394.209 30.3276 394.304 30.4772 394.473C30.6269 394.639 30.6958 394.862 30.672 395.086L28.6196 412.836C28.5745 413.235 28.2371 413.532 27.8381 413.532V413.529ZM22.1179 411.753L27.142 411.931L29.0092 395.779H22.1179V411.753Z" fill="black"/>
<path d="M29.9668 408.52C29.9668 408.52 30.2233 416.39 29.9668 419.56C29.7815 421.83 26.729 428.682 25.0091 432.396C24.3012 433.925 22.952 434.903 21.4554 434.969C19.6287 435.05 17.0893 435.143 15.0416 435.145C12.2243 435.148 10.2859 431.88 11.2931 428.834C12.2219 426.023 13.7636 422.932 16.3149 419.13C18.163 416.374 19.852 408.211 19.852 408.211H25.154L26.653 412.739L29.9691 408.517L29.9668 408.52Z" fill="white"/>
<path d="M15.0345 435.933C13.5902 435.933 12.2385 435.211 11.3287 433.955C10.2289 432.436 9.93671 430.432 10.5425 428.592C11.5497 425.543 13.1745 422.4 15.6569 418.696C17.3981 416.098 19.0609 408.135 19.0776 408.054C19.1536 407.688 19.4743 407.427 19.8472 407.427H25.1493C25.489 407.427 25.7883 407.646 25.8952 407.966L26.9333 411.103L29.3444 408.035C29.5487 407.774 29.8955 407.672 30.2067 407.774C30.5202 407.876 30.7364 408.166 30.7483 408.496C30.7602 408.819 31.0025 416.447 30.7435 419.626C30.5582 421.887 27.9072 427.998 25.7146 432.728C24.8856 434.518 23.2631 435.677 21.4815 435.758C19.6857 435.838 17.1107 435.933 15.0345 435.936H15.0297L15.0345 435.933ZM20.4862 408.999C20.0444 410.996 18.593 417.145 16.9681 419.569C14.5665 423.15 13.0011 426.172 12.039 429.083C11.5948 430.425 11.8133 431.937 12.6044 433.032C13.2244 433.889 14.089 434.359 15.0369 434.359H15.0416C17.0893 434.359 19.6405 434.262 21.4198 434.183C22.6123 434.131 23.7145 433.319 24.2941 432.063C27.273 425.636 29.0546 421.053 29.1828 419.494C29.3515 417.43 29.2969 413.275 29.2398 410.718L27.273 413.223C27.0948 413.451 26.805 413.56 26.5199 413.513C26.2349 413.463 25.9997 413.261 25.9094 412.986L24.5887 408.997H20.4886L20.4862 408.999Z" fill="black"/>
<path d="M14.7707 432.547C14.3407 432.547 13.9892 432.201 13.9844 431.769C13.9797 431.334 14.3289 430.98 14.7636 430.976L19.3958 430.935C20.8496 430.942 21.8021 430.128 22.8592 427.946C23.5077 426.609 24.1729 425.083 24.6598 423.967C25.4651 422.117 25.5364 421.977 25.7454 421.801C26.0804 421.524 26.5768 421.571 26.8524 421.903C27.0947 422.195 27.0899 422.609 26.8643 422.894C26.755 423.093 26.4224 423.855 26.1017 424.594C25.61 425.721 24.9378 427.267 24.275 428.632C23.2987 430.646 22.0302 432.507 19.4076 432.507H19.4005L14.7755 432.547H14.7683H14.7707Z" fill="black"/>
<path d="M21.6369 426.142H15.8312C15.3965 426.142 15.0449 425.79 15.0449 425.356C15.0449 424.921 15.3965 424.57 15.8312 424.57H21.6369C22.0716 424.57 22.4232 424.921 22.4232 425.356C22.4232 425.79 22.0716 426.142 21.6369 426.142Z" fill="black"/>
<path d="M92.1187 258.432C92.1187 258.432 91.4274 311.503 89.1968 346.054C87.306 375.317 83.8615 398.747 82.8496 405.231C82.6785 406.326 81.8067 407.178 80.7069 407.316C78.9134 407.537 76.0699 407.727 73.2906 407.247C72.3001 407.076 71.5162 406.319 71.3 405.336C69.8985 398.984 64.67 374.669 64.67 365.305C64.67 355.017 66.5158 352.438 66.7248 344.055C66.8816 337.777 64.7769 315.451 63.7103 304.627C63.5702 303.205 61.5938 302.967 61.1234 304.318C57.7027 314.134 50.41 335.348 43.5877 357.125C43.2385 358.241 41.5044 367.757 41.1647 368.857C36.8508 382.735 32.2424 395.952 30.7862 402.565C30.6057 403.379 29.9738 404.02 29.1566 404.194C27.28 404.59 23.7857 405.044 20.6097 403.89C19.7782 403.588 19.2414 402.776 19.2461 401.891C19.277 395.148 19.4433 365.832 20.0538 361.34C21.3342 351.918 28.6958 342.644 30.0189 332.637C31.3421 322.631 32.1093 297.516 35.751 282.453C39.3926 267.39 46.5356 250.466 46.5356 250.466L92.1211 258.434L92.1187 258.432Z" fill="#5479F7"/>
<path d="M77.0467 408.33C75.8067 408.33 74.4764 408.247 73.1557 408.019C71.8492 407.793 70.8182 406.805 70.5308 405.504C68.9701 398.438 63.8818 374.66 63.8818 365.302C63.8818 359.623 64.4377 356.268 64.9769 353.022C65.4235 350.33 65.8439 347.787 65.939 344.033C66.0981 337.699 63.8865 314.416 62.9269 304.7C62.8865 304.292 62.5492 304.221 62.4446 304.209C62.3425 304.195 61.998 304.188 61.8626 304.572C58.2044 315.067 51.0637 335.88 44.334 357.356C44.1701 357.878 43.6142 360.715 43.1249 363.218C42.4811 366.504 42.0797 368.539 41.911 369.085C40.4715 373.715 39.0248 378.195 37.6233 382.528C34.8796 391.021 32.5112 398.355 31.5492 402.729C31.3021 403.847 30.4256 404.721 29.3138 404.956C27.4111 405.357 23.7148 405.851 20.3345 404.621C19.2038 404.21 18.4484 403.109 18.4531 401.881C18.4912 393.474 18.6622 365.692 19.2679 361.226C19.9117 356.484 22.0829 351.728 24.1804 347.129C26.3397 342.395 28.5727 337.502 29.2307 332.525C29.6512 329.341 30.017 324.607 30.4398 319.127C31.352 307.291 32.4875 292.558 34.9794 282.261C38.5948 267.31 45.7331 250.324 45.8044 250.153C45.9469 249.816 46.3033 249.619 46.6643 249.685L92.2498 257.653C92.6298 257.72 92.9054 258.052 92.9006 258.437C92.8935 258.969 92.1832 311.923 89.9764 346.099C88.0855 375.367 84.634 398.847 83.622 405.348C83.3987 406.784 82.2371 407.914 80.7976 408.09C79.769 408.216 78.4672 408.327 77.042 408.327L77.0467 408.33ZM62.3639 302.632C62.4518 302.632 62.542 302.637 62.6323 302.649C63.6466 302.77 64.3925 303.532 64.4947 304.546C65.6872 316.65 67.6659 337.881 67.5139 344.071C67.4165 347.934 66.9866 350.529 66.5305 353.279C66.0031 356.46 65.4567 359.754 65.4567 365.302C65.4567 374.501 70.5165 398.139 72.0677 405.165C72.2174 405.841 72.7495 406.352 73.4265 406.471C76.0728 406.929 78.7951 406.758 80.6099 406.535C81.3558 406.442 81.9568 405.858 82.0732 405.11C83.0828 398.628 86.5272 375.206 88.4134 346.002C90.4824 313.956 91.2354 265.353 91.3257 259.09L47.0207 251.345C45.7474 254.436 39.7256 269.354 36.5139 282.634C34.0529 292.81 32.9222 307.471 32.0148 319.253C31.5895 324.756 31.2237 329.51 30.7985 332.736C30.1096 337.946 27.8268 342.948 25.62 347.787C23.4749 352.491 21.4486 356.933 20.8334 361.444C20.2229 365.927 20.059 395.926 20.0328 401.893C20.0305 402.46 20.3702 402.964 20.8785 403.149C23.8906 404.244 27.2567 403.792 28.9955 403.424C29.5039 403.318 29.9053 402.914 30.0194 402.396C30.998 397.949 33.3783 390.582 36.1338 382.051C37.533 377.722 38.9797 373.245 40.4144 368.622C40.5712 368.118 41.1105 365.357 41.5879 362.921C42.2293 359.642 42.6616 357.453 42.8398 356.888C49.5767 335.391 56.7221 314.561 60.3851 304.057C60.6892 303.181 61.4683 302.632 62.3686 302.632H62.3639Z" fill="black"/>
<path d="M58.2394 161.05C60.1303 159.364 62.2207 156.944 67.9171 155.665C73.0505 154.513 77.6257 157.008 78.3906 163.443C79.0153 168.7 73.9176 171.326 71.9602 174.583C65.6271 185.118 75.3025 193.3 70.7297 203.464C66.3754 213.147 56.0777 209.094 45.7563 221.257C37.6298 230.833 44.9344 232.507 34.2661 243.02C25.7547 251.409 21.2817 247.871 13.4165 243.942C-0.26151 237.106 -3.9625 217.641 4.53221 207.47C12.1694 198.326 10.8534 205.06 19.1842 196.254C27.3962 187.571 15.2052 183.154 26.7857 175.554C35.67 169.723 42.4092 172.793 45.5971 171.879C52.1701 169.998 52.391 166.264 58.237 161.05H58.2394Z" fill="black"/>
<path d="M172.682 203.196L165.394 205.647C163.094 206.421 161.303 208.246 160.576 210.559L158.783 216.269C156.263 217.948 153.749 219.313 151.26 220.41C151.713 221.379 152.165 222.35 152.59 223.33C153.284 224.924 153.949 226.526 154.609 228.131C157.975 224.786 160.251 221.735 161.391 220.08C161.935 219.292 162.778 218.784 163.717 218.601C169.278 217.518 168.838 212.435 168.513 211.124C168.161 209.704 169.663 209.125 172.931 206.978C173.729 206.454 174.252 205.936 174.577 205.449C175.418 204.196 174.076 202.617 172.682 203.196Z" fill="white"/>
<path d="M154.607 228.919C154.554 228.919 154.502 228.915 154.452 228.905C154.196 228.853 153.98 228.677 153.88 228.433C153.248 226.901 152.573 225.27 151.865 223.646C151.466 222.727 151.048 221.823 150.545 220.747C150.454 220.555 150.447 220.336 150.521 220.137C150.594 219.94 150.747 219.778 150.939 219.693C153.383 218.615 155.794 217.295 158.113 215.768L159.823 210.324C160.624 207.778 162.612 205.751 165.142 204.901L172.406 202.458C173.356 202.075 174.432 202.353 175.09 203.153C175.751 203.956 175.803 205.029 175.228 205.886C174.812 206.503 174.185 207.092 173.361 207.634C172.758 208.028 172.216 208.372 171.734 208.676C169.62 210.01 169.137 210.381 169.275 210.932C169.558 212.074 169.698 214.533 168.432 216.514C167.479 218.005 165.942 218.964 163.864 219.37C163.094 219.519 162.446 219.93 162.035 220.524C160.952 222.098 158.616 225.249 155.16 228.687C155.01 228.834 154.811 228.915 154.607 228.915V228.919ZM152.307 220.802C152.673 221.587 152.996 222.297 153.31 223.019C153.856 224.273 154.381 225.526 154.882 226.737C157.795 223.724 159.778 221.037 160.743 219.638C161.386 218.703 162.389 218.062 163.565 217.831C165.204 217.513 166.396 216.787 167.106 215.673C168.088 214.137 167.954 212.15 167.748 211.314C167.325 209.604 168.667 208.757 170.893 207.351C171.368 207.052 171.903 206.712 172.496 206.323C173.145 205.898 173.625 205.456 173.922 205.012C174.197 204.604 173.953 204.25 173.872 204.153C173.694 203.937 173.366 203.763 172.981 203.923C172.964 203.93 172.948 203.937 172.929 203.942L165.641 206.392C163.586 207.083 161.971 208.728 161.322 210.796L159.529 216.506C159.474 216.677 159.365 216.827 159.215 216.924C156.982 218.411 154.661 219.714 152.305 220.799L152.307 220.802Z" fill="black"/>
<path d="M156.523 219.026L159.077 222.962C159.657 223.858 159.757 224.978 159.336 225.959C157.469 230.309 151.162 242.213 136.56 246.95C118.54 252.796 99.0393 239.001 99.0393 239.001C99.0393 239.001 101.277 280.369 94.5639 285.737C82.0119 295.773 38.8661 290.951 34.4097 278.258C29.5304 264.359 42.7048 201.689 60.5138 194.616C72.3342 189.921 97.0249 190.952 106.061 202.928C109.344 207.278 115.696 224.655 129.331 224.879C139.125 225.038 147.974 220.562 152.186 218.026C153.666 217.136 155.58 217.577 156.521 219.028L156.523 219.026Z" fill="white"/>
<path d="M71.6211 291.924C64.0481 291.924 56.0879 290.865 49.4579 288.966C40.766 286.475 35.1599 282.764 33.6705 278.521C28.8102 264.674 41.7328 201.233 60.2283 193.889C72.6236 188.967 97.5946 190.399 106.695 202.458C107.384 203.372 108.154 204.744 109.128 206.485C112.781 213.007 118.898 223.926 129.35 224.095C138.888 224.271 147.494 219.94 151.784 217.354C153.637 216.241 156.008 216.787 157.186 218.601L159.74 222.537C160.464 223.656 160.583 225.052 160.06 226.27C157.977 231.12 151.539 242.918 136.804 247.7C121.107 252.791 104.638 243.519 99.9036 240.518C100.288 248.859 101.36 281.313 95.0576 286.352C90.2259 290.215 81.2371 291.924 71.6211 291.924ZM76.6263 192.763C70.6567 192.763 64.9912 193.685 60.8056 195.347C53.3109 198.324 45.4267 212.803 39.7137 234.081C34.7774 252.466 32.8177 271.346 35.1528 277.999C36.4688 281.748 41.7043 285.105 49.8902 287.453C64.2595 291.573 85.9381 291.63 94.0741 285.124C99.3216 280.929 98.8702 250.44 98.255 239.046L98.1671 237.424L99.495 238.362C99.6874 238.497 118.891 251.86 136.317 246.204C150.437 241.622 156.613 230.304 158.614 225.65C158.929 224.914 158.856 224.069 158.419 223.392L155.865 219.455C155.152 218.356 153.718 218.026 152.596 218.7C148.161 221.372 139.234 225.826 129.324 225.667C117.964 225.481 111.572 214.071 107.755 207.251C106.847 205.632 106.063 204.234 105.438 203.405C99.799 195.931 87.6936 192.768 76.6286 192.768L76.6263 192.763Z" fill="black"/>
<path d="M110.967 251.684L73.9141 252.112L86.7987 206.176H127.942L110.967 251.684Z" fill="black"/>
<path d="M86.3258 228.466C87.314 229.555 85.3732 231.068 84.5965 232.307C84.119 233.067 84.7152 233.608 85.5443 233.262C87.9411 232.257 95.8349 228.781 97.5785 230.951C98.189 231.711 97.778 233.309 96.557 234.803C93.9986 237.927 86.1168 241.728 81.6936 242.745C79.0735 243.348 74.8119 245.765 74.3581 245.644C72.415 245.119 71.6834 241.213 72.2273 240.451C72.3604 240.266 75.7573 238.046 79.5177 232.63C81.4751 229.809 85.4136 227.456 86.3258 228.466Z" fill="white"/>
<path d="M74.396 246.437C74.3105 246.437 74.2297 246.425 74.1513 246.404C73.1061 246.121 72.2343 245.145 71.7022 243.654C71.2627 242.429 71.0394 240.76 71.5858 239.995C71.6713 239.877 71.7592 239.805 72.0229 239.599C72.9469 238.875 75.7571 236.669 78.869 232.184C80.5366 229.781 83.6366 227.568 85.5037 227.45C86.2425 227.402 86.6796 227.689 86.9076 227.941C88.0882 229.245 86.8269 230.769 85.9931 231.776C85.7983 232.011 85.6106 232.239 85.4538 232.45L85.6178 232.381C90.8296 230.182 96.4 228.233 98.1912 230.463C99.0606 231.545 98.6496 233.49 97.165 235.304C94.5424 238.509 86.6535 242.415 81.8692 243.514C80.4416 243.842 78.4034 244.784 76.914 245.473C75.3842 246.18 74.8046 246.439 74.396 246.439V246.437ZM72.8567 240.945C72.7807 241.251 72.8424 242.481 73.4007 243.642C73.6976 244.26 74.061 244.68 74.434 244.841C74.7666 244.732 75.5837 244.355 76.256 244.044C77.8951 243.286 79.9332 242.346 81.5201 241.98C86.0382 240.943 93.5851 237.196 95.9511 234.307C97.0438 232.972 97.2433 231.787 96.9678 231.445C96.4856 230.847 94.4522 230.358 86.233 233.827L85.8505 233.988C85.1189 234.295 84.373 234.171 83.9502 233.675C83.6342 233.302 83.4632 232.64 83.9335 231.892C84.1687 231.517 84.4823 231.139 84.7863 230.771C85.4372 229.985 85.9598 229.311 85.7674 229.021C85.1236 228.822 82.0118 230.425 80.1684 233.081C76.9211 237.764 73.9708 240.078 73.0016 240.838C72.9469 240.881 72.8994 240.919 72.8614 240.947L72.8567 240.945Z" fill="black"/>
<path d="M78.6122 245.492L73.2626 236.619C73.2626 236.619 62.3639 242.859 56.3064 240.2C45.7261 235.553 47.7286 219.32 49.5268 211.243C51.3274 203.163 59.8198 196.256 59.8198 196.256C59.8198 196.256 43.7354 201.026 36.103 213.738C29.0265 225.529 24.5273 254.909 46.5717 259.79C60.9933 262.984 78.6098 245.494 78.6098 245.494L78.6122 245.492Z" fill="white"/>
<path d="M50.3934 260.977C49.0465 260.977 47.7138 260.844 46.4026 260.555C43.4095 259.892 40.7584 258.791 38.5278 257.283C38.1668 257.038 38.0741 256.552 38.3164 256.191C38.5587 255.83 39.0481 255.737 39.4091 255.979C41.4758 257.376 43.9439 258.399 46.7423 259.019C58.4249 261.602 72.9913 250.215 77.1769 246.66C77.7423 246.181 77.8634 245.35 77.4619 244.725L73.8702 238.965C73.4878 238.369 72.7205 238.127 72.0577 238.402L71.9009 238.466C68.3068 239.95 60.8288 243.042 55.99 240.917C45.7089 236.401 46.7375 221.794 48.2673 213.489C48.3457 213.061 48.759 212.781 49.1842 212.857C49.6118 212.936 49.8945 213.346 49.8161 213.774C48.3718 221.623 47.3337 235.399 56.6242 239.478C60.8478 241.332 67.9078 238.417 71.2999 237.013L71.4567 236.949C72.8226 236.384 74.4 236.878 75.2005 238.125L78.7922 243.885C79.6117 245.16 79.3599 246.874 78.196 247.859C73.255 252.052 61.4393 260.975 50.3934 260.975V260.977Z" fill="black"/>
<path d="M64.3194 176.577C64.7018 176.611 65.032 176.316 65.0107 175.934C64.9085 174.125 64.4999 170.711 66.3029 169.281C68.6142 167.448 72.4506 164.677 73.7857 166.558C74.9568 168.206 76.0614 171.487 79.0236 172.836C79.3087 172.964 79.3158 173.384 79.1709 173.659L78.4559 175.231C78.2943 175.542 78.3846 176.285 78.5034 176.615C78.8716 177.636 79.7362 179.771 79.5272 180.198C79.1186 181.034 75.7383 182.39 75.7383 182.39L77.4083 192.692C77.4724 193.084 77.6981 193.737 78.0829 193.661L81.4228 194.079C81.81 194.126 82.0523 194.513 81.9359 194.883C81.4537 196.415 79.6294 199.919 72.9162 200.767C65.3147 201.726 62.1411 199.592 60.8773 198.089C60.4093 197.531 60.6683 196.674 61.3643 196.455C64.2054 195.562 70.6025 192.428 67.3101 182.827C67.2175 182.558 66.9894 182.361 66.7139 182.304C65.6568 182.088 62.7373 181.362 62.2741 179.438C61.7824 177.406 63.0248 176.463 64.317 176.575L64.3194 176.577Z" fill="white"/>
<path d="M69.3195 201.795C64.1742 201.795 61.5802 200.14 60.2808 198.594C59.8936 198.134 59.763 197.512 59.9316 196.932C60.1027 196.346 60.5516 195.888 61.1313 195.705C62.6136 195.239 65.2979 194.064 66.6281 191.431C67.7375 189.237 67.7185 186.428 66.5711 183.078C64.9059 182.734 62.0482 181.839 61.5137 179.621C61.231 178.448 61.4163 177.408 62.0339 176.691C62.5613 176.081 63.3381 175.753 64.2146 175.782L64.1956 175.473C64.065 173.51 63.8488 170.224 65.8181 168.664C69.1461 166.026 71.3292 164.946 72.8875 165.171C73.5289 165.261 74.0634 165.584 74.4316 166.102C74.7499 166.548 75.0539 167.092 75.3746 167.664C76.2631 169.245 77.3677 171.216 79.3536 172.121C79.6481 172.254 79.869 172.503 79.9783 172.819C80.109 173.196 80.0709 173.647 79.8738 174.025L79.1778 175.559C79.135 175.699 79.1778 176.15 79.249 176.349C79.306 176.504 79.3726 176.687 79.4462 176.884C80.2847 179.132 80.5175 179.977 80.2396 180.547C79.8287 181.383 77.9924 182.297 76.6194 182.881L78.1896 192.568C78.2109 192.694 78.2466 192.813 78.2822 192.896L81.5271 193.302C81.9428 193.354 82.311 193.585 82.5367 193.936C82.7624 194.287 82.8218 194.722 82.6935 195.123C82.1804 196.754 80.2135 200.643 73.0229 201.55C71.6618 201.721 70.4336 201.8 69.3219 201.8L69.3195 201.795ZM64.1125 177.354C63.7467 177.354 63.4283 177.484 63.2264 177.717C62.9437 178.047 62.8796 178.579 63.0435 179.253C63.2811 180.241 64.7159 181.093 66.8752 181.533C67.4239 181.644 67.8776 182.043 68.0582 182.57C69.348 186.336 69.3385 189.555 68.032 192.141C66.4405 195.289 63.3214 196.664 61.604 197.203C61.4947 197.236 61.4543 197.322 61.4401 197.369C61.4234 197.424 61.4187 197.505 61.4828 197.581C62.5708 198.877 65.4974 200.912 72.821 199.983C78.8357 199.224 80.6149 196.258 81.1257 194.829L78.0756 194.446C77.8356 194.458 77.5957 194.387 77.389 194.245C76.8569 193.877 76.6835 193.119 76.6336 192.813L74.9637 182.511C74.9043 182.148 75.1062 181.794 75.4459 181.656C76.9187 181.065 78.3962 180.281 78.7692 179.906C78.7074 179.405 78.1967 178.035 77.9687 177.427C77.8926 177.223 77.8237 177.038 77.7644 176.879C77.629 176.504 77.4389 175.478 77.7596 174.865L78.4176 173.412C76.1419 172.251 74.9067 170.053 73.9968 168.431C73.6952 167.894 73.4125 167.389 73.1417 167.011C73.0229 166.843 72.878 166.757 72.6595 166.726C71.9302 166.627 70.3267 167.09 66.7896 169.894C65.4665 170.943 65.6494 173.714 65.7611 175.369L65.7943 175.889C65.8181 176.29 65.6637 176.682 65.3762 176.962C65.0793 177.252 64.6707 177.396 64.2503 177.359C64.2028 177.354 64.1576 177.351 64.1101 177.351L64.1125 177.354Z" fill="black"/>
<path d="M288.416 172.147C288.416 172.147 302.049 187.345 333.47 195.007L335.795 217.314C335.795 217.314 294.88 207.211 276.881 183.675L288.416 172.145V172.147Z" fill="white"/>
<path d="M335.796 218.102C335.732 218.102 335.67 218.095 335.608 218.078C335.195 217.976 294.218 207.639 276.259 184.154C276.019 183.841 276.05 183.399 276.328 183.121L287.863 171.592C288.015 171.44 288.217 171.359 288.441 171.361C288.657 171.366 288.861 171.461 289.006 171.623C289.141 171.772 302.876 186.737 333.66 194.245C333.983 194.323 334.221 194.596 334.257 194.926L336.582 217.233C336.608 217.487 336.508 217.739 336.316 217.907C336.171 218.033 335.988 218.1 335.801 218.1L335.796 218.102ZM277.929 183.743C294.109 204.3 328.356 214.474 334.896 216.264L332.746 195.641C305.323 188.834 291.322 176.155 288.41 173.268L277.929 183.743Z" fill="black"/>
<path d="M329.232 192.813L333.309 219.546L347.892 221.046C347.892 221.046 356.391 232.538 361.91 258.867C361.91 258.867 364.337 260.277 368.466 260.728C376.595 261.616 383.163 257.924 385.215 256.832C391.199 253.643 402.003 250.528 423.145 251.461C422.598 241.553 419.935 206.508 402.715 187.362C397.197 181.224 392.643 179.458 391.254 178.964C380.072 174.996 367.499 180.365 357.47 184.646C351.695 187.11 346.894 189.864 338.2 191.619C334.485 192.369 331.356 192.673 329.232 192.813Z" fill="black"/>
<path d="M376.187 215.621C376.03 215.621 375.876 215.576 375.738 215.481L373.184 213.7C373.011 213.579 372.895 213.396 372.859 213.187C372.823 212.981 372.873 212.767 372.994 212.596C376.873 207.187 378.757 200.993 379.964 196.204C380.071 195.783 380.496 195.525 380.919 195.634C381.339 195.741 381.596 196.168 381.489 196.588C380.294 201.325 378.453 207.401 374.728 212.862L376.636 214.192C376.992 214.441 377.08 214.93 376.831 215.286C376.679 215.505 376.434 215.623 376.185 215.623L376.187 215.621Z" fill="#CADDFF"/>
<path d="M400.184 229.895C400.077 229.895 399.966 229.874 399.863 229.826L397.386 228.715C396.989 228.537 396.811 228.072 396.989 227.675C397.167 227.279 397.63 227.103 398.03 227.279L399.949 228.138C405.234 221.184 405.132 210.868 405.13 210.763C405.123 210.329 405.47 209.972 405.904 209.965C405.909 209.965 405.914 209.965 405.919 209.965C406.346 209.965 406.698 210.31 406.705 210.737C406.712 211.202 406.828 222.205 400.799 229.603C400.647 229.791 400.422 229.893 400.189 229.893L400.184 229.895Z" fill="#CADDFF"/>
<path d="M241.544 254.716L279.694 252.739C279.694 252.739 280.628 252.724 282.241 252.694L290.096 252.292C291.498 251.998 293.049 251.476 293.66 250.799C295.04 249.27 294.577 247.66 294.541 247.012C294.47 245.649 293.831 244.376 292.766 243.503C288.578 240.065 285.918 234.862 286.02 228.981C286.182 219.648 293.569 211.803 303.043 210.882C313.83 209.835 323.194 217.829 323.738 228.326C324.016 233.675 321.949 238.621 318.419 242.187C317.45 243.168 316.946 244.516 317.018 245.877C317.158 248.598 319.524 250.716 322.301 250.576L322.961 250.542V250.502L329.135 250.182C329.161 250.177 329.327 250.167 329.354 250.163L350.626 248.847C350.894 248.586 351.054 248.22 351.035 247.821L345.554 140.619L305.231 142.677C302.876 142.217 301.085 140.139 301.202 137.615C301.259 136.393 301.815 135.236 302.682 134.353C306.466 130.492 308.547 125.046 307.817 119.214C306.687 110.154 298.788 103.185 289.481 103.031C278.43 102.848 269.696 111.859 270.24 122.5C270.513 127.85 273.078 132.549 276.953 135.735C278.017 136.611 278.656 137.884 278.725 139.246C278.844 141.547 277.331 143.556 275.183 144.209L234.859 146.267L236.772 183.682H236.803L236.841 184.444C236.952 186.645 238.463 188.606 240.644 189.128C242.551 189.584 244.499 188.934 245.708 187.521C249.307 183.311 254.79 180.671 260.963 180.899C270.133 181.239 277.806 188.191 278.896 197.123C280.21 207.885 271.957 217.326 261.106 217.881C255.616 218.162 250.559 216.112 246.927 212.615C246.513 212.216 246.046 211.867 245.502 211.665C241.734 210.279 238.304 213.069 238.48 216.492L238.527 217.406H238.496L240.408 254.821L241.544 254.764V254.709V254.716Z" fill="#5479F7"/>
<path d="M240.408 255.616C239.992 255.616 239.646 255.291 239.624 254.871L237.712 217.456C237.707 217.383 237.714 217.309 237.731 217.24L237.695 216.54C237.598 214.631 238.47 212.807 240.028 211.661C241.665 210.457 243.757 210.193 245.774 210.934C246.359 211.15 246.915 211.516 247.473 212.055C251.072 215.519 256.02 217.359 261.068 217.1C266.127 216.841 270.881 214.493 274.109 210.656C277.287 206.876 278.71 202.106 278.116 197.222C277.076 188.691 269.688 182.012 260.937 181.69C255.267 181.478 249.938 183.793 246.311 188.036C244.881 189.705 242.641 190.418 240.465 189.898C238.004 189.309 236.192 187.084 236.059 184.489L236.03 183.933C236.006 183.869 235.992 183.798 235.99 183.727L234.077 146.312C234.066 146.103 234.139 145.899 234.279 145.745C234.419 145.59 234.614 145.498 234.823 145.486L275.045 143.432C276.85 142.841 278.036 141.151 277.941 139.289C277.881 138.145 277.34 137.071 276.454 136.343C272.277 132.912 269.726 127.88 269.453 122.541C269.18 117.213 271.092 112.146 274.838 108.271C278.682 104.294 283.891 102.131 289.493 102.245C299.204 102.404 307.416 109.658 308.596 119.117C309.323 124.934 307.37 130.689 303.239 134.904C302.477 135.682 302.03 136.661 301.985 137.653C301.893 139.683 303.277 141.45 305.29 141.889L345.511 139.835C345.941 139.823 346.314 140.146 346.335 140.581L351.816 247.783C351.847 248.386 351.611 248.98 351.172 249.41C351.036 249.543 350.858 249.621 350.671 249.633L329.405 250.946C329.379 250.948 329.346 250.951 329.31 250.953L329.225 250.96L323.224 251.274C323.153 251.302 323.077 251.321 322.999 251.326L322.338 251.359C319.153 251.525 316.395 249.082 316.231 245.917C316.148 244.324 316.742 242.762 317.858 241.631C321.348 238.103 323.203 233.267 322.949 228.364C322.699 223.551 320.528 219.149 316.834 215.97C313.038 212.7 308.164 211.167 303.114 211.661C293.97 212.549 286.958 219.999 286.801 228.991C286.709 234.38 289.063 239.447 293.26 242.892C294.488 243.901 295.239 245.385 295.322 246.969C295.327 247.047 295.339 247.142 295.353 247.254C295.453 248.063 295.659 249.749 294.239 251.323C293.369 252.287 291.367 252.826 290.253 253.061C290.212 253.071 290.172 253.076 290.129 253.078L282.274 253.479C280.632 253.513 279.698 253.524 279.698 253.524L241.869 255.486C241.779 255.526 241.681 255.55 241.582 255.557L240.446 255.614C240.432 255.614 240.42 255.614 240.406 255.614L240.408 255.616ZM239.294 217.589L241.156 254.004H241.218C241.306 253.959 241.403 253.935 241.503 253.93L279.653 251.953C279.684 251.953 280.615 251.938 282.226 251.908L289.994 251.511C291.476 251.193 292.683 250.708 293.077 250.272C294.018 249.232 293.885 248.156 293.799 247.446C293.78 247.294 293.766 247.161 293.759 247.052C293.7 245.908 293.156 244.837 292.27 244.108C287.699 240.356 285.134 234.839 285.236 228.965C285.407 219.173 293.03 211.062 302.969 210.096C308.451 209.562 313.741 211.226 317.868 214.778C321.889 218.24 324.253 223.036 324.526 228.281C324.804 233.625 322.783 238.894 318.982 242.736C318.174 243.552 317.747 244.68 317.806 245.832C317.925 248.13 319.906 249.892 322.262 249.785L322.685 249.763C322.759 249.735 322.837 249.716 322.918 249.711L329.082 249.393C329.116 249.391 329.154 249.386 329.194 249.384L329.268 249.377L350.21 248.082C350.236 248.018 350.253 247.945 350.248 247.859L344.808 141.443L305.271 143.461C305.206 143.461 305.142 143.461 305.08 143.446C302.247 142.893 300.284 140.424 300.415 137.577C300.479 136.198 301.083 134.856 302.118 133.8C305.91 129.93 307.703 124.649 307.035 119.309C305.952 110.624 298.398 103.962 289.466 103.814C284.297 103.729 279.508 105.7 275.969 109.361C272.529 112.92 270.774 117.571 271.023 122.46C271.273 127.358 273.617 131.976 277.451 135.127C278.677 136.136 279.428 137.622 279.508 139.206C279.641 141.82 277.957 144.187 275.411 144.961C275.349 144.98 275.287 144.992 275.221 144.995L235.683 147.013L237.546 183.432C237.569 183.499 237.584 183.568 237.586 183.639L237.624 184.403C237.721 186.308 239.037 187.934 240.826 188.364C242.425 188.746 244.066 188.226 245.112 187.008C249.052 182.397 254.846 179.887 260.992 180.111C270.51 180.462 278.542 187.735 279.675 197.025C280.323 202.346 278.774 207.543 275.311 211.661C271.802 215.83 266.638 218.382 261.144 218.662C255.675 218.943 250.29 216.943 246.378 213.178C245.979 212.793 245.601 212.539 245.226 212.401C243.715 211.846 242.159 212.033 240.957 212.919C239.824 213.752 239.192 215.072 239.261 216.452L239.308 217.366C239.313 217.44 239.306 217.513 239.289 217.582L239.294 217.589Z" fill="black"/>
<path d="M327.801 238.78C327.801 238.78 371.431 248.135 375.976 215.994L397.298 229.268C397.298 229.268 379.909 275.848 326.737 247.073C326.737 247.073 314.539 247.85 312.261 246.302C309.983 244.756 305.481 237.771 306.129 236.714L305.175 233.241C305.068 232.847 305.101 232.429 305.272 232.058C305.709 231.116 306.911 230.828 307.726 231.469L316.658 238.49L317.546 238.486C318.881 238.481 319.872 237.241 319.579 235.938L318.313 230.275C318.176 229.66 318.644 229.078 319.273 229.078L327.801 238.78Z" fill="white"/>
<path d="M358.632 257.252C348.89 257.252 338.16 254.12 326.558 247.871C324.035 248.023 314.12 248.517 311.816 246.952C309.839 245.613 305.105 239.069 305.321 236.75L304.414 233.447C304.257 232.875 304.307 232.262 304.559 231.726C304.867 231.058 305.457 230.576 306.174 230.403C306.891 230.235 307.635 230.396 308.212 230.849L316.928 237.702H317.541C317.937 237.697 318.308 237.519 318.557 237.208C318.804 236.897 318.897 236.498 318.811 236.109L317.545 230.446C317.427 229.919 317.552 229.375 317.892 228.955C318.229 228.535 318.733 228.292 319.272 228.292C319.498 228.292 319.714 228.39 319.864 228.558L328.216 238.06C330.763 238.552 352.04 242.303 365.117 233.174C370.739 229.249 374.129 223.43 375.198 215.879C375.236 215.616 375.402 215.39 375.645 215.276C375.887 215.165 376.167 215.181 376.393 215.321L397.715 228.596C398.034 228.793 398.167 229.187 398.036 229.539C397.967 229.722 390.976 247.971 372.97 254.718C368.471 256.404 363.684 257.247 358.636 257.247L358.632 257.252ZM326.734 246.29C326.864 246.29 326.993 246.323 327.109 246.385C344.386 255.735 359.629 258.045 372.414 253.254C387.947 247.432 394.972 232.718 396.316 229.586L376.564 217.29C375.255 224.719 371.709 230.493 366.01 234.47C351.588 244.535 328.606 239.76 327.634 239.551C327.468 239.516 327.32 239.428 327.209 239.302L319.075 230.049C319.075 230.068 319.075 230.087 319.08 230.109L320.346 235.771C320.536 236.626 320.334 237.509 319.788 238.193C319.241 238.877 318.424 239.274 317.548 239.276L316.659 239.281H316.655C316.479 239.281 316.308 239.221 316.168 239.112L307.236 232.091C307.036 231.935 306.78 231.88 306.537 231.939C306.29 231.999 306.088 232.162 305.981 232.393C305.889 232.595 305.867 232.823 305.927 233.036L306.882 236.51C306.929 236.683 306.915 236.866 306.846 237.03C306.841 238.205 310.542 244.196 312.697 245.656C314.194 246.672 322.068 246.586 326.681 246.292C326.698 246.292 326.715 246.292 326.731 246.292L326.734 246.29Z" fill="black"/>
<path d="M376.996 159.447L379.02 174.942C379.27 176.535 380.474 177.815 382.061 178.169L383.959 178.594C384.878 178.8 385.016 179.482 384.56 180.306C382.536 183.95 379.595 185.629 363.558 185.797L360.869 185.579C359.786 185.491 359.461 184.062 360.401 183.516L362.969 182.02C366.245 180.844 365.953 175.825 366.186 174.263L366.243 157.042L376.996 159.447Z" fill="white"/>
<path d="M363.558 186.583C363.536 186.583 363.515 186.583 363.494 186.581L360.805 186.362C359.961 186.294 359.296 185.717 359.108 184.893C358.921 184.069 359.272 183.262 360.004 182.837L362.572 181.343C362.612 181.319 362.657 181.298 362.703 181.281C364.952 180.474 365.175 177.195 365.311 175.236C365.337 174.835 365.363 174.486 365.399 174.206L365.456 157.037C365.456 156.8 365.565 156.574 365.753 156.425C365.938 156.275 366.18 156.221 366.415 156.273L377.169 158.678C377.492 158.749 377.735 159.015 377.777 159.343L379.801 174.838C379.998 176.101 380.956 177.114 382.236 177.399L384.134 177.824C384.951 178.007 385.308 178.458 385.464 178.805C385.633 179.183 385.733 179.814 385.251 180.683C382.913 184.89 379.286 186.415 363.57 186.578H363.562L363.558 186.583ZM363.306 182.734L360.797 184.195C360.619 184.299 360.624 184.458 360.645 184.546C360.664 184.632 360.729 184.781 360.935 184.798L363.586 185.011C379.968 184.838 382.179 182.974 383.873 179.926C384.027 179.648 384.037 179.489 384.027 179.453C384.022 179.453 383.965 179.403 383.79 179.363L381.892 178.938C379.977 178.511 378.545 176.989 378.245 175.065L376.29 160.095L367.028 158.023L366.976 174.265C366.976 174.303 366.974 174.341 366.967 174.379C366.933 174.607 366.91 174.949 366.883 175.343C366.736 177.516 366.461 181.545 363.308 182.734H363.306Z" fill="black"/>
<path d="M356.248 141.146C359.652 140.248 356.029 144.634 368.026 138.363C372.803 135.865 371.418 142.243 372.658 141.599C377.24 139.218 378.499 138.617 380.998 138.75C382.651 138.838 386.599 141.236 386.502 143.439C386.184 150.631 382.746 149.446 381.863 155.843C381.243 160.335 380.309 161.855 378.734 162.812C377.14 163.78 375.411 161.757 373.591 162.686C371.235 163.887 372.591 168.059 370.517 170.326C369.211 171.756 365.752 173 359.483 171.414C358.467 171.157 357.782 170.215 357.856 169.172C357.951 167.838 358.082 166.152 358.343 164.552C359.583 156.923 361.811 154.803 360.517 153.155C358.533 150.631 353.48 153.338 352.124 151.211C350.715 149 351.585 142.371 356.246 141.141L356.248 141.146Z" fill="black"/>
<path d="M370.729 150.899L370.111 152.92C369.819 153.872 369.595 154.841 369.439 155.821C369.144 157.664 368.515 160.805 368.182 162.576C367.113 168.27 359.407 163.823 359.407 163.823L358.659 162.467L357.709 162.291C357.526 162.258 357.347 162.187 357.205 162.066C356.851 161.764 356.754 161.287 356.922 160.888C357.849 158.701 359.721 153.834 359.925 149.765C359.925 149.765 365.248 147.188 370.731 150.902L370.729 150.899Z" fill="white"/>
<path d="M364.762 166.254C362.09 166.254 359.168 164.59 359.013 164.502C358.89 164.431 358.788 164.326 358.719 164.201L358.151 163.172L357.567 163.066C357.232 163.001 356.93 162.864 356.695 162.664C356.089 162.149 355.89 161.313 356.198 160.582C357.016 158.652 358.94 153.732 359.139 149.727C359.153 149.439 359.325 149.183 359.581 149.06C359.814 148.946 365.38 146.331 371.171 150.251C371.456 150.446 371.582 150.802 371.482 151.132L370.865 153.153C370.584 154.067 370.366 155.007 370.216 155.95C370 157.298 369.603 159.359 369.285 161.014C369.161 161.651 369.05 162.239 368.957 162.724C368.667 164.267 367.919 165.326 366.736 165.87C366.13 166.147 365.456 166.259 364.764 166.259L364.762 166.254ZM359.987 163.246C361.256 163.935 364.337 165.24 366.078 164.438C366.781 164.115 367.216 163.457 367.408 162.432C367.501 161.945 367.615 161.354 367.736 160.715C368.054 159.07 368.449 157.023 368.66 155.7C368.822 154.687 369.057 153.675 369.359 152.692L369.803 151.242C365.741 148.77 361.919 149.841 360.676 150.304C360.358 154.29 358.659 158.804 357.645 161.195C357.614 161.268 357.614 161.382 357.714 161.468C357.733 161.484 357.78 161.508 357.852 161.52L358.8 161.696C359.032 161.738 359.232 161.883 359.346 162.09L359.985 163.248L359.987 163.246Z" fill="black"/>
<path d="M370.619 157.533C370.619 157.533 372.099 152.673 374.178 153.803C376.254 154.933 374.489 160.242 370.619 157.533Z" fill="white"/>
<path d="M361.634 160.601C361.197 160.601 360.786 160.482 360.425 160.25C359.575 159.704 359.04 158.59 358.795 156.845C358.722 156.32 358.494 154.72 359.634 153.934C360.192 153.552 360.838 153.409 361.454 153.53C361.971 153.635 362.413 153.92 362.667 154.314C363.934 156.277 363.948 158.153 363.539 159.252C363.299 159.901 362.905 160.335 362.425 160.478C362.154 160.558 361.891 160.599 361.634 160.599V160.601ZM361.016 155.064C360.879 155.064 360.71 155.104 360.525 155.233C360.309 155.38 360.247 155.89 360.351 156.629C360.582 158.265 361.028 158.773 361.275 158.929C361.385 159.001 361.57 159.081 361.919 158.991C362.216 158.675 362.57 157.07 361.344 155.171C361.316 155.133 361.195 155.066 361.016 155.066V155.064Z" fill="black"/>
<path d="M361.009 155.036C360.603 155.036 360.258 154.722 360.225 154.309C360.192 153.877 360.517 153.5 360.949 153.466L371.993 152.628C372.421 152.595 372.803 152.92 372.836 153.352C372.87 153.785 372.544 154.162 372.112 154.195L361.068 155.033C361.049 155.033 361.028 155.033 361.009 155.033V155.036Z" fill="black"/>
<path d="M357.068 160.414C357.009 160.414 356.947 160.407 356.888 160.392C356.479 160.295 356.08 159.899 355.702 159.215C355.429 158.719 354.584 156.964 355.197 155.181C355.389 154.62 355.764 154.214 356.282 154.003C357.448 153.528 358.94 154.248 359.107 154.331C359.496 154.526 359.653 154.998 359.458 155.385C359.263 155.774 358.793 155.929 358.406 155.736C358.002 155.537 357.237 155.311 356.878 155.459C356.814 155.485 356.745 155.525 356.688 155.691C356.227 157.033 357.09 158.609 357.394 158.911C357.731 159.063 357.926 159.436 357.836 159.808C357.75 160.169 357.427 160.414 357.071 160.414H357.068Z" fill="black"/>
<path d="M417.869 398.469L420.366 415.989L426.753 416.013L427.053 398.783L417.869 398.469Z" fill="white"/>
<path d="M426.754 416.799H426.751L420.363 416.775C419.974 416.775 419.644 416.485 419.587 416.101L417.09 398.581C417.057 398.35 417.128 398.118 417.282 397.944C417.437 397.771 417.665 397.674 417.895 397.683L427.081 397.997C427.511 398.011 427.849 398.367 427.841 398.797L427.54 416.027C427.533 416.457 427.181 416.799 426.754 416.799ZM421.048 415.203L425.981 415.222L426.255 399.54L418.779 399.286L421.048 415.203Z" fill="black"/>
<path d="M420.151 432.738C422.657 433.006 426.389 433.113 431.377 432.674C433.161 432.517 434.418 430.864 434.13 429.098C433.356 424.342 431.194 415.956 427.788 412.107L426.104 414.505L425.106 412.029C424.944 411.761 420.711 411.585 420.623 412.088L420.367 414.508L417.963 411.815L418.096 420.655C418.11 421.631 418.017 422.606 417.82 423.561L417.188 426.617C416.808 428.457 417.279 430.404 418.564 431.774C419.067 432.31 419.626 432.683 420.151 432.74V432.738Z" fill="white"/>
<path d="M425.001 433.756C422.887 433.756 421.25 433.645 420.067 433.519C419.381 433.445 418.663 433.028 417.991 432.31C416.564 430.791 415.974 428.602 416.419 426.455L417.051 423.4C417.236 422.502 417.324 421.581 417.309 420.662L417.176 411.823C417.172 411.495 417.371 411.198 417.678 411.079C417.982 410.961 418.331 411.044 418.549 411.288L419.773 412.658L419.842 412.003C419.842 411.984 419.846 411.967 419.849 411.948C419.968 411.272 420.709 411.136 420.951 411.091C420.991 411.084 425.203 410.661 425.78 411.623C425.802 411.659 425.821 411.694 425.835 411.735L426.294 412.87L427.144 411.656C427.282 411.459 427.503 411.336 427.743 411.322C427.982 411.312 428.215 411.407 428.374 411.585C432.781 416.562 434.7 427.714 434.905 428.97C435.078 430.036 434.798 431.135 434.137 431.988C433.475 432.84 432.517 433.362 431.444 433.455C428.945 433.673 426.799 433.754 424.999 433.754L425.001 433.756ZM418.78 413.91L418.88 420.641C418.894 421.674 418.797 422.709 418.587 423.718L417.956 426.774C417.616 428.419 418.058 430.086 419.134 431.233C419.528 431.653 419.939 431.923 420.231 431.954C422.353 432.182 425.997 432.356 431.306 431.89C431.938 431.836 432.503 431.527 432.895 431.024C433.289 430.518 433.456 429.86 433.351 429.224C432.684 425.119 430.802 417.473 427.828 413.416L426.745 414.957C426.581 415.192 426.298 415.325 426.011 415.287C425.723 415.253 425.479 415.066 425.372 414.8L424.51 412.663C423.792 412.549 422.091 412.511 421.353 412.616L421.143 414.591C421.11 414.9 420.899 415.161 420.602 415.256C420.305 415.351 419.982 415.263 419.773 415.03L418.773 413.912L418.78 413.91Z" fill="black"/>
<path d="M424.718 430.629C421.908 430.629 420.169 430.288 420.055 430.264C419.63 430.178 419.354 429.763 419.442 429.338C419.528 428.913 419.941 428.637 420.369 428.723C420.411 428.732 424.78 429.582 430.885 428.512C431.312 428.438 431.721 428.723 431.795 429.15C431.871 429.578 431.583 429.986 431.156 430.06C428.678 430.494 426.485 430.629 424.72 430.629H424.718Z" fill="black"/>
<path d="M428.469 423.912H422.675C422.24 423.912 421.889 423.561 421.889 423.126C421.889 422.692 422.24 422.34 422.675 422.34H428.469C428.903 422.34 429.255 422.692 429.255 423.126C429.255 423.561 428.903 423.912 428.469 423.912Z" fill="black"/>
<path d="M372.019 400.031L369.772 420.453L361.18 422.25L361.702 398.308L372.019 400.031Z" fill="white"/>
<path d="M361.179 423.036C360.996 423.036 360.818 422.972 360.678 422.856C360.492 422.701 360.388 422.473 360.393 422.234L360.915 398.291C360.92 398.063 361.025 397.849 361.2 397.702C361.376 397.557 361.607 397.496 361.832 397.531L372.151 399.255C372.562 399.324 372.85 399.701 372.805 400.117L370.557 420.536C370.519 420.873 370.27 421.149 369.937 421.22L361.345 423.017C361.291 423.029 361.238 423.034 361.184 423.034L361.179 423.036ZM362.469 399.234L361.987 421.279L369.051 419.8L371.156 400.684L362.467 399.234H362.469Z" fill="black"/>
<path d="M373.405 430.19C373.593 426.612 373.6 420.023 371.419 416.846L364.545 419.292V417.825C364.545 417.352 364.207 416.963 363.777 416.937L359.943 416.716C358.513 416.633 357.088 416.93 355.779 417.573C351.926 419.468 340.198 424.326 338.574 429.786C338.094 431.399 339.355 433.008 341.035 433.056C344.892 433.167 354.173 433.289 370.823 432.719C372.21 432.671 373.332 431.572 373.405 430.188V430.19Z" fill="white"/>
<path d="M348.722 433.937C345.192 433.937 342.667 433.889 341.013 433.842C339.952 433.811 338.944 433.279 338.32 432.417C337.711 431.579 337.531 430.539 337.821 429.563C339.353 424.418 348.722 420.025 353.753 417.665C354.404 417.359 354.974 417.093 355.433 416.868C356.858 416.167 358.433 415.844 359.989 415.932L363.823 416.153C364.668 416.2 365.334 416.936 365.334 417.824V418.178L371.158 416.105C371.493 415.984 371.868 416.105 372.07 416.402C374.377 419.762 374.391 426.507 374.194 430.233C374.099 432.039 372.662 433.447 370.854 433.507C361.079 433.842 353.843 433.939 348.724 433.939L348.722 433.937ZM359.48 417.49C358.333 417.49 357.181 417.76 356.126 418.278C355.661 418.506 355.083 418.779 354.421 419.088C349.952 421.182 340.657 425.541 339.327 430.012C339.177 430.515 339.275 431.056 339.593 431.496C339.933 431.966 340.481 432.255 341.059 432.272C345.094 432.388 354.323 432.498 370.797 431.935C371.785 431.902 372.567 431.132 372.619 430.147C372.914 424.584 372.353 420.147 371.08 417.801L364.806 420.033C364.566 420.12 364.298 420.082 364.089 419.935C363.88 419.788 363.756 419.548 363.756 419.292V417.824C363.756 417.76 363.728 417.725 363.716 417.718L359.896 417.502C359.758 417.494 359.618 417.49 359.48 417.49Z" fill="black"/>
<path d="M351.386 430.544C346.26 430.544 343.027 430.306 342.965 430.302C342.533 430.268 342.207 429.891 342.241 429.459C342.274 429.027 342.659 428.694 343.084 428.735C343.205 428.744 355.287 429.627 369.901 427.932C370.333 427.88 370.723 428.191 370.772 428.623C370.822 429.055 370.514 429.444 370.081 429.494C362.874 430.33 356.27 430.544 351.386 430.544Z" fill="black"/>
<path d="M353.52 424.701C353.275 424.701 353.035 424.587 352.881 424.373C352.627 424.019 352.707 423.53 353.059 423.276L359.677 418.518C360.031 418.266 360.52 418.345 360.775 418.696C361.029 419.05 360.948 419.539 360.596 419.793L353.978 424.551C353.838 424.651 353.679 424.698 353.52 424.698V424.701Z" fill="black"/>
<path d="M369.339 257.359C369.339 257.359 357.019 352.001 359.644 408.372L363.488 408.757C365.554 408.964 367.633 409.016 369.707 408.911L373.351 408.728C373.351 408.728 388.041 312.913 395.376 298.693C395.376 298.693 415.323 385.028 416.093 405.658C416.093 405.658 424.96 406.549 428.493 405.279C430.391 385.368 430.94 354.575 431.035 341.637C431.305 304.608 427.766 287.788 425.825 279.808C424.043 272.481 422.131 266.526 420.734 262.499L416.071 249.201L369.341 257.359H369.339Z" fill="#5479F7"/>
<path d="M367.63 409.749C366.219 409.749 364.808 409.678 363.411 409.541L359.568 409.156C359.181 409.118 358.879 408.8 358.86 408.41C356.261 352.614 368.435 258.204 368.559 257.259C368.604 256.917 368.865 256.647 369.203 256.587L415.933 248.429C416.313 248.36 416.684 248.581 416.81 248.944L421.473 262.243C423.442 267.917 425.162 273.765 426.587 279.625C428.958 289.369 432.077 306.4 431.818 341.647C431.787 345.752 431.459 382.416 429.274 405.357C429.245 405.661 429.043 405.92 428.758 406.022C425.1 407.34 416.382 406.482 416.014 406.444C415.624 406.406 415.323 406.084 415.306 405.692C414.619 387.265 398.321 315.121 395.143 301.198C387.696 320.717 374.27 407.933 374.129 408.852C374.072 409.22 373.766 409.498 373.391 409.517L369.747 409.7C369.044 409.735 368.336 409.752 367.63 409.752V409.749ZM360.399 407.66L363.566 407.976C365.585 408.178 367.637 408.228 369.668 408.128L372.673 407.976C374.07 398.92 387.601 312.054 394.68 298.332C394.829 298.04 395.148 297.867 395.475 297.912C395.803 297.952 396.069 298.195 396.145 298.515C396.343 299.37 415.688 383.297 416.85 404.937C418.85 405.101 424.782 405.495 427.763 404.685C429.899 381.782 430.222 345.7 430.252 341.633C430.509 306.562 427.414 289.657 425.064 279.996C423.651 274.183 421.945 268.385 419.995 262.758L415.553 250.091L370.051 258.036C369.036 266.008 358.043 354.205 360.406 407.662L360.399 407.66Z" fill="black"/>
<path d="M395.162 300.863C394.789 300.863 394.457 300.597 394.39 300.217L393.252 293.888C392.768 292.173 391.388 290.889 389.642 290.528L387.725 290.131C387.299 290.044 387.026 289.628 387.114 289.203C387.202 288.778 387.62 288.503 388.043 288.593L389.96 288.989C392.3 289.474 394.146 291.202 394.777 293.505C394.785 293.529 394.789 293.55 394.794 293.574L395.939 299.942C396.015 300.369 395.732 300.778 395.305 300.856C395.257 300.863 395.21 300.868 395.165 300.868L395.162 300.863Z" fill="black"/>
<path d="M420.442 289.994C420.399 289.994 420.356 289.989 420.311 289.982C408.766 288.059 406.476 279.141 406.384 278.763C406.281 278.341 406.54 277.916 406.963 277.814C407.386 277.712 407.809 277.97 407.913 278.391C408.001 278.745 410.094 286.684 420.572 288.432C421 288.503 421.29 288.909 421.218 289.336C421.154 289.721 420.822 289.994 420.444 289.994H420.442Z" fill="black"/>
<path d="M368.782 282.515C368.478 282.515 368.188 282.339 368.06 282.042C367.886 281.644 368.069 281.181 368.468 281.007C374.317 278.469 374.179 273.044 374.176 272.989C374.16 272.555 374.5 272.191 374.932 272.175C375.348 272.161 375.73 272.498 375.747 272.93C375.749 272.994 375.915 279.488 369.093 282.451C368.991 282.496 368.884 282.515 368.779 282.515H368.782Z" fill="black"/>
<path d="M375.144 99.6854C375.042 99.6854 374.939 99.6664 374.84 99.6237L371.687 98.2988C371.286 98.1302 371.098 97.6696 371.267 97.2707C371.436 96.8694 371.896 96.6819 372.296 96.8505L375.448 98.1753C375.849 98.3439 376.037 98.8045 375.868 99.2034C375.742 99.5049 375.45 99.6854 375.144 99.6854Z" fill="black"/>
<path d="M364.107 95.0487C364.005 95.0487 363.903 95.0297 363.803 94.9869L360.648 93.6621C360.247 93.4935 360.059 93.0329 360.228 92.634C360.397 92.2327 360.857 92.0452 361.257 92.2137L364.411 93.5386C364.813 93.7072 365 94.1678 364.832 94.5667C364.706 94.8682 364.414 95.0487 364.107 95.0487Z" fill="black"/>
<path d="M369.683 92.7549C369.583 92.7549 369.481 92.7359 369.384 92.6955C368.982 92.5293 368.792 92.0711 368.959 91.6698L370.265 88.5096C370.431 88.1083 370.89 87.916 371.291 88.0846C371.693 88.2508 371.883 88.709 371.717 89.1103L370.41 92.2705C370.284 92.5744 369.992 92.7572 369.683 92.7572V92.7549Z" fill="black"/>
<path d="M365.107 103.812C365.007 103.812 364.905 103.793 364.808 103.753C364.406 103.586 364.216 103.128 364.382 102.727L365.689 99.5667C365.855 99.1655 366.314 98.9731 366.715 99.1417C367.117 99.3079 367.307 99.7662 367.14 100.167L365.834 103.328C365.708 103.632 365.416 103.814 365.107 103.814V103.812Z" fill="black"/>
<path d="M283.046 402.242L282.906 395.779L276.143 394.371C275.849 392.88 275.44 391.434 274.918 390.045L279.875 385.154L276.597 379.627L270.055 381.868C269.081 380.743 268.019 379.703 266.879 378.756L268.784 371.97L263.244 368.857L258.684 374.138C257.306 373.663 255.876 373.309 254.405 373.072L252.738 366.219L246.424 366.357L245.055 373.273C243.599 373.572 242.186 373.99 240.829 374.522L236.045 369.444L230.646 372.794L232.841 379.489C231.741 380.484 230.724 381.569 229.802 382.735L223.17 380.779L220.134 386.444L225.299 391.116C224.835 392.527 224.491 393.989 224.261 395.492L217.566 397.19L217.707 403.653L224.47 405.061C224.764 406.552 225.173 407.998 225.695 409.387L220.738 414.278L224.016 419.805L230.558 417.564C231.529 418.689 232.594 419.729 233.734 420.676L231.829 427.462L237.368 430.575L241.929 425.295C243.307 425.769 244.737 426.123 246.205 426.361L247.873 433.213L254.187 433.075L255.555 426.159C257.011 425.86 258.425 425.442 259.781 424.91L264.565 429.989L269.965 426.638L267.767 419.943C268.867 418.948 269.882 417.863 270.806 416.697L277.438 418.654L280.474 412.988L275.31 408.316C275.773 406.905 276.117 405.443 276.348 403.94L283.042 402.242H283.046ZM250.666 416.353C241.687 416.548 234.247 409.256 234.05 400.07C233.85 390.884 240.967 383.279 249.947 383.084C258.926 382.889 266.366 390.181 266.563 399.367C266.763 408.553 259.646 416.158 250.666 416.353Z" fill="#99B9FF"/>
<path d="M330.943 367.558L330.841 362.795L325.857 361.758C325.641 360.659 325.34 359.593 324.955 358.569L328.608 354.965L326.192 350.891L321.37 352.541C320.653 351.712 319.871 350.945 319.03 350.247L320.434 345.247L316.351 342.953L312.99 346.845C311.973 346.496 310.92 346.232 309.837 346.059L308.609 341.009L303.956 341.109L302.946 346.206C301.872 346.427 300.832 346.733 299.832 347.127L296.304 343.385L292.325 345.855L293.943 350.791C293.133 351.525 292.385 352.325 291.703 353.184L286.814 351.743L284.576 355.917L288.384 359.36C288.045 360.4 287.788 361.478 287.619 362.584L282.686 363.835L282.788 368.598L287.771 369.636C287.988 370.735 288.289 371.801 288.674 372.825L285.021 376.429L287.437 380.503L292.259 378.853C292.976 379.682 293.758 380.451 294.599 381.147L293.195 386.147L297.278 388.44L300.639 384.549C301.656 384.898 302.708 385.162 303.792 385.335L305.02 390.385L309.673 390.285L310.683 385.188C311.757 384.967 312.797 384.661 313.797 384.266L317.325 388.008L321.304 385.539L319.686 380.603C320.496 379.869 321.244 379.069 321.926 378.21L326.815 379.651L329.052 375.477L325.245 372.034C325.584 370.994 325.841 369.916 326.01 368.81L330.943 367.558ZM307.079 377.958C300.461 378.1 294.979 372.727 294.831 365.956C294.684 359.184 299.929 353.581 306.547 353.436C313.165 353.293 318.648 358.667 318.795 365.438C318.942 372.21 313.697 377.813 307.079 377.958Z" fill="white"/>
<path d="M333.333 347.79C333.152 347.79 332.969 347.728 332.819 347.6C332.489 347.317 332.451 346.821 332.736 346.491C334.071 344.94 335.378 343.302 336.623 341.621C336.881 341.272 337.376 341.199 337.722 341.457C338.072 341.716 338.145 342.208 337.886 342.557C336.62 344.269 335.288 345.938 333.929 347.517C333.772 347.697 333.553 347.79 333.333 347.79ZM340.815 337.694C340.67 337.694 340.523 337.654 340.392 337.571C340.027 337.338 339.92 336.851 340.153 336.486C341.252 334.767 342.324 332.962 343.34 331.122C343.549 330.742 344.029 330.604 344.409 330.813C344.789 331.022 344.927 331.502 344.718 331.882C343.687 333.75 342.597 335.583 341.48 337.333C341.331 337.568 341.077 337.696 340.818 337.696L340.815 337.694ZM346.901 326.691C346.787 326.691 346.673 326.668 346.564 326.616C346.172 326.428 346.006 325.96 346.193 325.568C347.077 323.712 347.927 321.791 348.721 319.856C348.885 319.455 349.341 319.262 349.747 319.426C350.149 319.59 350.341 320.051 350.177 320.452C349.374 322.413 348.512 324.362 347.614 326.245C347.479 326.528 347.198 326.694 346.904 326.694L346.901 326.691ZM351.676 315.057C351.59 315.057 351.503 315.043 351.417 315.012C351.006 314.87 350.79 314.421 350.935 314.01C351.617 312.063 352.26 310.062 352.852 308.06C352.975 307.645 353.412 307.407 353.828 307.528C354.244 307.652 354.484 308.089 354.36 308.504C353.764 310.532 353.111 312.557 352.422 314.53C352.308 314.853 352.004 315.057 351.678 315.057H351.676ZM355.237 302.993C355.175 302.993 355.113 302.986 355.052 302.972C354.629 302.87 354.37 302.445 354.472 302.022C354.964 299.995 355.413 297.939 355.8 295.911C355.881 295.484 356.296 295.203 356.719 295.286C357.147 295.367 357.425 295.78 357.344 296.205C356.95 298.257 356.498 300.339 355.999 302.39C355.911 302.751 355.591 302.991 355.234 302.991L355.237 302.993ZM357.598 290.64C357.562 290.64 357.527 290.638 357.489 290.633C357.059 290.573 356.757 290.177 356.817 289.747C356.89 289.22 356.954 288.71 357.016 288.218C357.068 287.786 357.47 287.489 357.893 287.534C358.323 287.587 358.631 287.981 358.577 288.41C358.515 288.909 358.448 289.427 358.375 289.963C358.32 290.357 357.983 290.642 357.596 290.642L357.598 290.64Z" fill="#5479F7"/>
<path d="M205.846 420.519C204.275 420.519 202.558 420.448 200.741 420.308C200.308 420.275 199.983 419.897 200.016 419.465C200.049 419.031 200.437 418.698 200.859 418.741C203.123 418.914 205.209 418.981 207.069 418.933C207.489 418.912 207.865 419.263 207.877 419.698C207.889 420.132 207.546 420.493 207.112 420.505C206.698 420.517 206.276 420.522 205.846 420.522V420.519ZM213.314 419.698C212.974 419.698 212.661 419.475 212.559 419.13C212.438 418.715 212.677 418.278 213.093 418.157C213.4 418.067 213.692 417.969 213.963 417.863C214.366 417.706 214.823 417.905 214.982 418.309C215.138 418.713 214.939 419.168 214.535 419.328C214.222 419.451 213.884 419.563 213.533 419.665C213.459 419.686 213.385 419.696 213.312 419.696L213.314 419.698ZM194.541 419.615C194.503 419.615 194.467 419.612 194.429 419.608C192.427 419.325 190.324 418.976 188.182 418.573C187.754 418.492 187.474 418.081 187.554 417.654C187.635 417.226 188.049 416.948 188.474 417.027C190.595 417.428 192.671 417.772 194.65 418.05C195.08 418.112 195.379 418.508 195.317 418.938C195.263 419.33 194.926 419.615 194.541 419.615ZM182.164 417.293C182.105 417.293 182.046 417.286 181.986 417.274C179.953 416.806 177.889 416.291 175.848 415.742C175.428 415.631 175.181 415.199 175.292 414.781C175.404 414.36 175.839 414.114 176.254 414.225C178.276 414.766 180.323 415.277 182.338 415.742C182.761 415.84 183.024 416.262 182.927 416.685C182.844 417.048 182.518 417.295 182.162 417.295L182.164 417.293ZM170.002 414.03C169.926 414.03 169.848 414.019 169.772 413.995C167.733 413.37 165.71 412.71 163.757 412.031C163.346 411.889 163.13 411.44 163.272 411.032C163.415 410.621 163.864 410.405 164.272 410.547C166.208 411.219 168.213 411.872 170.235 412.492C170.651 412.618 170.883 413.059 170.755 413.475C170.651 413.812 170.339 414.03 170.004 414.03H170.002ZM158.108 409.897C158.013 409.897 157.916 409.88 157.821 409.842C155.813 409.054 153.846 408.23 151.979 407.394C151.583 407.216 151.404 406.751 151.583 406.354C151.761 405.958 152.226 405.78 152.623 405.958C154.469 406.784 156.41 407.598 158.395 408.377C158.799 408.536 158.999 408.992 158.84 409.396C158.718 409.707 158.422 409.894 158.108 409.894V409.897ZM146.63 404.73C146.506 404.73 146.383 404.702 146.266 404.64C144.287 403.612 142.43 402.553 140.741 401.499C140.373 401.268 140.261 400.784 140.491 400.416C140.722 400.048 141.206 399.937 141.575 400.167C143.228 401.2 145.05 402.237 146.993 403.249C147.378 403.448 147.528 403.923 147.328 404.308C147.188 404.576 146.915 404.73 146.63 404.73ZM136.014 397.994C135.84 397.994 135.667 397.937 135.52 397.821C133.671 396.332 132.118 394.82 130.902 393.329C130.626 392.992 130.678 392.498 131.016 392.222C131.353 391.947 131.847 391.999 132.123 392.336C133.27 393.744 134.745 395.178 136.508 396.598C136.845 396.871 136.9 397.365 136.627 397.705C136.472 397.897 136.244 397.997 136.014 397.997V397.994Z" fill="#5479F7"/>
</g>
<rect x="0.5" y="0.5" width="434" height="435" stroke="black"/>
<defs>
<clipPath id="clip0_49_2728">
<rect width="435" height="436" fill="white"/>
</clipPath>
</defs>
</svg>
