<svg width="419" height="341" viewBox="0 0 419 341" fill="none" xmlns="http://www.w3.org/2000/svg">
<path d="M244.78 3.73683C243.306 3.50437 241.77 4.05275 240.643 5.00037C239.05 6.32098 238.844 8.79526 239.735 10.5678C240.792 12.6867 243.565 13.6652 245.737 12.7658C247.421 12.0507 248.676 10.2914 248.584 8.42694C248.707 6.20249 246.925 4.14483 244.78 3.73683Z" fill="#D1EACF"/>
<path d="M193.585 60.2129C190.694 60.0637 187.794 60.1031 184.903 60.2568C184.903 60.5507 184.908 61.1342 184.912 61.4237C187.803 61.5027 190.699 61.5553 193.59 61.4852C193.59 61.1648 193.59 60.5288 193.585 60.2129Z" fill="#F8FEF9"/>
<path d="M180.152 60.3445C177.494 60.055 174.813 60.0987 172.146 60.2216C172.146 60.5375 172.146 61.1692 172.146 61.4895C174.458 61.5291 176.779 61.7045 179.077 61.4193C179.648 61.3754 179.801 60.6867 180.152 60.3445Z" fill="#FAFFFB"/>
<path d="M167.311 60.1647C165.766 60.0726 164.183 60.0419 162.726 60.6604C163.889 61.9767 165.766 61.4764 167.302 61.5335C167.302 61.1914 167.306 60.5069 167.311 60.1647Z" fill="#FCFFFD"/>
<path d="M162.445 79.898C161.19 79.9112 159.633 79.6348 159.247 81.1879C160.321 81.2318 161.396 81.2624 162.467 81.302C162.462 80.951 162.449 80.249 162.445 79.898Z" fill="#FCFFFD"/>
<path d="M158.471 60.2042C157.19 60.1911 155.909 60.1911 154.623 60.2042C154.623 60.5245 154.623 61.1649 154.619 61.4852C155.904 61.4896 157.19 61.4896 158.471 61.4809C158.471 61.1606 158.471 60.5245 158.471 60.2042Z" fill="#F8FEF8"/>
<path d="M149.301 60.1955C144.773 60.0332 140.237 60.1911 135.705 60.1384C130.015 60.178 124.32 59.9716 118.634 60.2261C118.634 60.5331 118.639 61.1475 118.643 61.4545C128.856 61.6211 139.079 61.5072 149.292 61.4984C149.296 61.1737 149.296 60.5201 149.301 60.1955Z" fill="#FAFEFB"/>
<path d="M90.0684 60.6915C89.0988 59.8842 87.7343 60.187 86.5674 60.1035C81.6054 60.2132 76.6435 60.0071 71.6859 60.2133C71.6903 60.5292 71.6947 61.1565 71.6947 61.4724C76.9506 61.6128 82.202 61.4505 87.4579 61.5645C88.3837 61.4768 89.6735 61.8102 90.0684 60.6915Z" fill="#FAFEFB"/>
<path d="M364.023 172.898C363.594 171.156 361.676 171.643 360.325 171.578C354.49 171.687 348.651 171.573 342.816 171.639C342.675 172.056 342.517 172.472 342.342 172.885C346.141 173.153 349.945 172.96 353.749 173.025C357.175 172.982 360.606 173.205 364.023 172.898Z" fill="#FAFEFB"/>
<path d="M111.527 60.2351C105.995 60.0552 100.454 60.0991 94.9174 60.2089C94.9174 60.5248 94.9218 61.1565 94.9262 61.468C100.458 61.5339 105.995 61.604 111.527 61.4593C111.527 61.1521 111.527 60.5423 111.527 60.2351Z" fill="#FBFFFC"/>
<path d="M68.3359 61.0512C67.8226 60.5247 67.2084 60.0553 66.4232 60.1298C63.2162 60.0597 60.0003 60.0947 56.7932 60.2351C56.7932 60.5378 56.7888 61.1388 56.7888 61.4416C59.5528 61.5424 62.3167 61.5161 65.0763 61.56C66.1906 61.604 67.2786 61.3714 68.3359 61.0512Z" fill="#F9FEFA"/>
<path d="M180.012 66.7855C174.629 66.7066 169.237 66.711 163.854 66.8776C163.854 67.1671 163.85 67.7419 163.845 68.0314C169.237 68.207 174.638 68.2289 180.025 68.1191C180.025 67.7857 180.017 67.119 180.012 66.7855Z" fill="#F9FEFA"/>
<path d="M160.242 66.8158C156.891 66.75 153.543 66.7325 150.191 66.7983C150.187 67.123 150.178 67.7766 150.174 68.1013C153.534 68.2241 156.899 68.246 160.26 68.0881C160.255 67.7678 160.247 67.1317 160.242 66.8158Z" fill="#FCFEFC"/>
<path d="M146.818 67.9739C146.441 67.2149 145.88 66.5875 144.945 66.7674C119.776 66.7849 94.6063 66.7543 69.437 66.7893C68.5421 66.6577 67.8357 67.171 67.5374 68.0045C74.4561 68.3467 81.3966 68.0747 88.3239 68.1537C101.779 68.1843 115.231 68.1581 128.686 68.1712C134.732 68.0836 140.786 68.3819 146.818 67.9739Z" fill="#FBFEFC"/>
<path d="M363.686 178.795C359.821 178.325 355.89 178.729 351.999 178.575C350.398 178.685 348.586 178.22 347.155 179.137C347.699 180.339 349.182 179.883 350.235 180.01C354.478 179.918 358.725 180.063 362.963 179.948C363.717 180.111 364.928 179.128 363.686 178.795Z" fill="#FBFEFC"/>
<path d="M142.706 72.971C126.468 72.835 110.227 72.9491 93.9901 72.9314C94.0033 73.2736 94.0384 73.9536 94.0516 74.2958C98.2853 74.8442 102.545 74.2739 106.792 74.4757C116.282 74.4538 125.771 74.3529 135.261 74.366C137.757 74.3879 140.249 74.4187 142.736 74.2608C142.732 73.9406 142.714 73.2956 142.706 72.971Z" fill="#F9FDFB"/>
<path d="M247.455 296.863C246.543 296.284 246.495 298.1 247.289 298.201C247.947 298.153 247.881 297.161 247.455 296.863Z" fill="#F9FDFB"/>
<path d="M179.744 81.1306C179.183 79.538 177.397 79.9592 176.068 79.8978C172.848 79.9944 169.623 79.8057 166.403 79.9153C165.569 79.753 165.328 80.6172 164.946 81.1614C169.868 81.4026 174.822 81.3982 179.744 81.1306Z" fill="#FAFEFC"/>
<path d="M154.536 79.9903C147.385 79.8103 140.229 79.9551 133.074 79.9026C128.563 79.9201 124.053 79.7797 119.548 80.0034C119.543 80.2973 119.539 80.894 119.539 81.1924C124.049 81.4292 128.563 81.2845 133.074 81.2932C140.233 81.1968 147.393 81.4248 154.549 81.2274C154.544 80.9204 154.54 80.2974 154.536 79.9903Z" fill="#FCFFFC"/>
<path d="M142.988 87.9711C142.167 87.6464 141.25 87.8922 140.513 88.3308C140.246 90.1252 143.953 90.1296 143.624 88.3308C143.466 88.2431 143.146 88.0588 142.988 87.9711Z" fill="#F5FBF6"/>
<path d="M136.175 88.3525C135.486 87.6374 134.415 87.8568 133.525 87.791C126.641 87.9183 119.753 87.7559 112.874 87.8744C112.879 88.4315 112.879 88.9931 112.874 89.5547C119.315 89.6863 125.755 89.4801 132.196 89.6161C133.327 89.6161 134.473 89.695 135.587 89.4757C136.118 89.2739 136.311 88.8965 136.175 88.3525Z" fill="#F6FCF6"/>
<path d="M108.085 88.3348C107.163 87.782 106.049 87.8478 105.005 87.817C99.4419 87.8697 93.8789 87.8566 88.316 87.8127C87.2543 87.7951 86.2058 87.9838 85.1705 88.2031C85.1924 88.5322 85.245 89.1903 85.2713 89.5192C92.1461 89.6684 99.0208 89.4886 105.891 89.6113C106.79 89.6465 108.221 89.5939 108.085 88.3348Z" fill="#F6FBF6"/>
<path d="M258.213 111.513C252.65 113.408 247.644 116.611 242.182 118.756C242.564 119.405 242.919 120.068 243.274 120.73C245.793 119.528 248.197 118.102 250.654 116.786C253.277 115.194 256.291 114.022 258.213 111.513Z" fill="#80CA83"/>
<path d="M264.672 116.619C264.018 116.825 263.29 117.001 262.856 117.597C261.237 119.51 259.675 121.594 258.968 124.042C260.083 123.547 260.653 122.445 261.285 121.48C262.039 122.191 262.781 122.919 263.518 123.656C263.693 123.555 264.04 123.358 264.215 123.261C263.483 122.336 262.671 121.48 261.851 120.638C262.715 119.243 263.737 117.957 264.672 116.619Z" fill="#030303"/>
<path d="M152.952 146.491C149.767 145.022 146.726 143.249 143.453 141.968C143.427 143.087 143.405 144.21 143.383 145.329C146.467 146.983 149.753 148.203 152.803 149.914C149.67 151.436 146.507 152.892 143.326 154.305C143.304 155.533 143.3 156.766 143.295 157.999C147.713 155.876 152.057 153.608 156.426 151.392C156.453 150.405 156.505 149.409 156.4 148.426C155.426 147.518 154.114 147.097 152.952 146.491Z" fill="#030303"/>
<path d="M65.2696 117.431C63.4841 116.321 61.3737 117.461 60.1103 118.835C57.7061 121.384 55.4028 124.547 55.5038 128.214C55.495 130.987 56.4646 133.984 55.0256 136.563C53.7139 139.161 50.6297 140.069 49.0239 142.407C47.62 144.746 48.2912 147.672 49.4494 149.971C50.2084 151.69 51.4719 153.366 51.3228 155.336C50.8094 157.868 48.7124 160.079 49.3353 162.812C50.1688 167.054 54.1744 169.393 56.6883 172.565C57.7894 173.793 57.8684 175.491 58.0045 177.053C58.0791 177.268 58.2282 177.698 58.3027 177.908C58.6932 176.307 58.974 174.543 60.1849 173.324C62.4925 170.933 65.6074 169.367 67.4851 166.559C69.2225 164.146 67.7089 160.649 69.8498 158.438C71.653 156.385 74.3818 154.52 74.2722 151.467C74.2897 147.944 69.7182 146.637 69.7621 143.114C69.8104 139.249 73.7194 136.84 74.0177 133.023C74.4476 130.443 72.7541 128.281 71.3064 126.355C69.139 123.489 68.5205 119.414 65.2696 117.431Z" fill="#000100"/>
<path d="M233.881 126.578C233.495 125.503 232.333 125.293 231.328 125.49C231.104 126.964 231.021 129.039 232.692 129.706C234.456 130.022 234.592 127.657 233.881 126.578Z" fill="#000100"/>
<path d="M82.0718 171.735C81.1594 170.323 79.15 169.709 77.6846 170.647C75.6226 171.797 75.3595 174.416 73.916 176.096C72.455 177.505 70.0903 177.72 68.9453 179.496C67.831 181.532 68.7918 184.077 67.6949 186.117C66.2295 187.946 63.2637 188.012 62.2065 190.258C61.0833 192.908 63.0533 195.646 62.5137 198.344C61.6758 200.379 59.4734 201.783 59.4295 204.148C59.3329 207.28 61.623 209.851 61.8556 212.936C61.9872 215.177 61.3466 217.59 59.6708 219.174C59.8243 219.17 60.1315 219.161 60.285 219.157C76.9301 218.634 93.597 219.064 110.251 218.744C123.816 218.722 137.386 218.678 150.951 218.45C152.644 218.266 154.311 217.915 155.996 217.704C134.587 217.696 113.173 218.007 91.7632 217.976C92.5967 216.226 93.8953 214.484 93.7243 212.457C93.5049 210.514 91.3377 209.746 89.6399 209.803C87.6174 209.658 86.0949 211.128 84.4981 212.115C82.7257 213.269 80.4795 212.922 78.5666 213.681C76.5528 214.598 76.8775 218.205 74.3067 218.086C70.13 218.24 65.9446 218.191 61.768 218.029C62.2023 216.388 62.5972 214.625 63.8212 213.37C65.712 211.343 68.713 211.102 70.8275 209.408C72.657 207.833 72.3893 205.047 73.8943 203.27C75.6974 201.709 78.4306 201.02 79.3212 198.576C80.8348 195.33 77.7067 192.219 78.5052 188.942C79.2818 186.34 82.2167 185.27 83.2828 182.848C83.8751 181.225 83.6996 179.457 83.6031 177.768C83.4012 175.71 83.2564 173.503 82.0718 171.735Z" fill="#000100"/>
<path d="M16.4438 189.516C14.1317 188.797 11.7406 188.27 9.30577 188.341C6.55058 188.692 5.63811 192.263 7.2745 194.272C8.04673 195.444 8.9767 196.576 9.25308 197.988C9.62606 199.348 9.6303 200.897 10.5342 202.046C12.3065 203.88 15.3513 203.67 17.0009 205.67C17.966 207.171 17.7292 209.061 18.1591 210.733C18.7601 213.488 21.3968 215.682 24.2441 215.607C25.5997 215.704 26.9993 215.506 28.311 215.901C29.5614 216.757 29.9123 218.371 30.6888 219.604C31.8032 221.736 34.1548 223.065 36.537 223.118C38.8446 223.285 41.3497 222.71 43.4732 223.881C45.4386 224.996 46.2371 227.251 47.1014 229.208C47.2199 228.94 47.4613 228.405 47.584 228.137C46.6847 226 45.2237 224.026 45.0481 221.657C44.7936 217.546 45.8597 212.852 43.1572 209.325C41.626 207.333 38.8753 207.276 36.9362 205.898C35.0278 204.034 35.5104 200.699 33.2422 199.085C30.7985 197.352 27.4993 198.734 24.9547 197.282C22.8664 195.834 22.7831 192.864 20.8702 191.263C19.5499 190.354 17.9487 189.999 16.4438 189.516Z" fill="#000100"/>
<path d="M241.699 119.612C236.957 117.883 231.376 117.102 226.766 119.647C224.998 120.454 224.146 122.305 222.76 123.556C221.571 124.065 220.233 124.126 218.952 124.144C217.5 124.227 216.741 122.753 215.802 121.902C212.942 120.958 209.901 120.748 206.927 121.23C205.413 122.073 203.913 122.941 202.425 123.836C204.206 127.153 204.259 131.233 206.813 134.142C205.812 131.062 203.557 127.855 204.887 124.525C206.734 121.529 211.007 120.985 214.073 122.213C216.723 123.328 217.627 126.425 217.838 129.049C218.092 131.466 217.509 134.471 215.131 135.656C212.573 136.792 209.844 135.647 207.383 134.84C210.002 137.314 214.578 137.801 217.258 135.182C219.294 132.984 218.601 129.781 218.921 127.074C219.044 124.868 222.545 124.679 223.392 126.482C224.546 128.548 225.147 130.961 226.831 132.707C229.249 135.432 233.272 136.134 236.698 135.309C238.984 134.756 241.283 133.405 242.169 131.119C243.34 128.237 242.358 125.109 242.48 122.117C242.344 121.283 242.766 119.923 241.699 119.612ZM235.123 119.199C237.273 119.436 239.677 120.357 240.502 122.547C241.814 125.692 242.081 129.851 239.616 132.519C236.909 135.23 232.394 135.217 229.209 133.392C226.981 132.014 225.884 129.474 224.949 127.136C223.831 124.608 224.962 121.094 227.691 120.186C230.047 119.282 232.614 118.896 235.123 119.199Z" fill="#82CF86"/>
<path d="M235.123 119.198C232.613 118.896 230.047 119.282 227.691 120.185C224.962 121.094 223.83 124.608 224.949 127.135C225.883 129.473 226.98 132.013 229.209 133.391C232.394 135.216 236.908 135.229 239.615 132.518C242.081 129.85 241.813 125.691 240.501 122.546C239.677 120.357 237.272 119.435 235.123 119.198ZM235.557 120.12C237.365 120.387 239.277 121.344 239.865 123.2C240.721 125.757 241.076 128.824 239.655 131.25C237.948 133.751 234.46 134.26 231.701 133.558C228.283 132.658 226.274 129.236 225.541 125.994C225.129 124.41 225.493 122.506 226.954 121.581C229.45 119.9 232.657 119.729 235.557 120.12Z" fill="#030604"/>
<path d="M214.491 127.468C213.872 127.271 213.043 127.53 213.034 128.293C212.924 129.609 213.183 131.434 214.662 131.882C216.768 131.434 215.855 128.341 214.491 127.468Z" fill="#030604"/>
<path d="M235.558 120.12C232.658 119.73 229.451 119.901 226.954 121.581C225.493 122.507 225.129 124.411 225.542 125.995C226.274 129.237 228.284 132.659 231.701 133.558C234.461 134.26 237.949 133.751 239.655 131.251C241.077 128.825 240.721 125.758 239.866 123.2C239.278 121.344 237.365 120.388 235.558 120.12ZM233.882 126.578C234.592 127.658 234.456 130.022 232.693 129.706C231.021 129.04 231.105 126.964 231.328 125.49C232.333 125.293 233.495 125.504 233.882 126.578Z" fill="#FEFFFE"/>
<path d="M5.70847 119.98C3.69473 119.471 1.39149 120.484 0.426349 122.327C-0.40279 124.323 -0.0649918 126.982 1.7951 128.298C3.98424 129.983 7.49414 129.149 8.75755 126.705C10.2712 124.165 8.59527 120.528 5.70847 119.98Z" fill="#D1ECCF"/>
<path d="M216.001 125.121C214.759 122.511 211.495 122.16 208.955 122.555C209.727 126.911 210.977 131.193 212.508 135.343C213.983 135.229 215.659 134.887 216.378 133.426C217.664 130.838 217.12 127.675 216.001 125.121ZM214.492 127.468C215.856 128.341 216.769 131.434 214.663 131.882C213.184 131.434 212.925 129.609 213.035 128.293C213.044 127.53 213.873 127.271 214.492 127.468Z" fill="#FEFEFE"/>
<path d="M246.719 170.783C246.114 167.577 244.701 164.576 242.881 161.891C240.906 167.901 239.617 174.157 238.98 180.453C240.898 178.461 241.986 175.873 243.701 173.727C245.807 175.482 246.974 178.027 248.852 179.988C248.264 176.891 247.299 173.881 246.719 170.783Z" fill="#FEFEFE"/>
<path d="M207.923 122.937C206.664 123.722 205.269 124.77 205.357 126.438C205.458 130.118 207.44 134.317 211.279 135.308C210.314 131.145 208.862 127.109 207.923 122.937Z" fill="#D8F0D1"/>
<path d="M133.052 138.695C131.986 138.722 130.915 138.744 129.845 138.761C131.788 144.456 134.263 149.957 136.377 155.59C137.193 157.446 137.693 159.473 138.821 161.171C139.826 161.25 140.826 161.202 141.826 161.184C140.545 157.411 139.08 153.7 137.575 150.01C136.039 146.246 134.723 142.398 133.052 138.695Z" fill="#000101"/>
<path d="M128.327 141.684C123.83 143.737 119.429 146.014 115.095 148.392C115.134 149.383 115.156 150.375 115.174 151.37C119.443 153.661 123.83 155.714 128.243 157.714C128.248 156.569 128.441 155.385 128.09 154.279C125.172 152.594 122.005 151.384 118.986 149.888C121.992 148.12 125.181 146.702 128.327 145.22C128.344 144.04 128.344 142.859 128.327 141.684Z" fill="#040404"/>
<path d="M235.07 144.355C233.447 145.32 231.982 146.592 230.174 147.22C228.31 147.931 226.283 147.896 224.317 148.014C224.444 148.233 224.695 148.663 224.822 148.878C228.055 148.957 231.394 148.185 233.982 146.189C234.627 145.781 234.851 145.031 235.07 144.355Z" fill="#040404"/>
<path d="M316.189 173.28C311.451 173.486 306.95 175.662 303.475 178.821C299.891 182.138 297.246 186.359 295.293 190.812C294.394 192.909 293.424 195.01 293.078 197.287C294.315 196.853 294.438 195.427 294.877 194.387C297.32 187.626 301.177 180.962 307.371 177.014C309.903 175.342 312.864 174.636 315.795 174.066C315.891 173.868 316.089 173.473 316.189 173.28Z" fill="#040404"/>
<path d="M176.709 175.083C174.748 175.856 173.502 177.663 172.44 179.392C171.019 181.792 170.299 184.604 170.462 187.394C170.453 187.942 170.712 188.329 171.238 188.548C171.352 185.867 171.497 183.086 172.827 180.682C173.721 178.545 175.586 177.066 176.709 175.083Z" fill="#040404"/>
<path d="M120.636 252.579C118.662 252.096 116.363 252.421 114.885 253.917C113.029 255.711 112.836 258.602 113.503 260.976C114.692 265.025 118.114 268.574 122.387 269.219C124.458 269.592 126.783 268.715 127.836 266.837C129.393 264.235 128.955 260.906 127.507 258.361C126.015 255.711 123.633 253.373 120.636 252.579ZM120.206 253.408C123.918 254.316 126.743 257.589 127.7 261.208C128.235 263.244 128.011 265.688 126.44 267.223C125.094 268.5 123.018 268.623 121.321 268.079C117.526 266.868 114.604 263.318 114.091 259.379C113.849 257.475 114.406 255.325 115.995 254.136C117.166 253.189 118.789 253.105 120.206 253.408Z" fill="#040404"/>
<path d="M403.583 303.65L403.377 303.812C403.105 304.023 402.833 304.233 402.561 304.453C402.772 307.813 402.693 311.178 402.737 314.543C272.332 314.635 141.922 314.587 11.5218 314.578C11.2147 314.596 10.6005 314.635 10.2934 314.653C10.0258 314.785 9.49056 315.052 9.21856 315.184C11.1313 315.666 13.1144 315.412 15.058 315.451C29.9569 315.478 44.8558 315.443 59.759 315.469C165.091 315.465 270.428 315.443 375.76 315.482C385.043 315.403 394.326 315.539 403.605 315.399C403.592 311.481 403.575 307.563 403.583 303.65Z" fill="#040404"/>
<path d="M32.6992 153.353C30.8479 153.217 28.9964 153.09 27.1407 152.989C28.4042 154.042 29.8169 154.911 31.3348 155.543C31.7911 154.814 32.2474 154.082 32.6992 153.353Z" fill="#F6FAF7"/>
<path d="M247.088 302.421C244.556 303.387 241.828 303.294 239.165 303.435C241.771 303.795 244.412 303.738 247.031 303.615C247.048 303.317 247.075 302.72 247.088 302.421Z" fill="#F6FAF7"/>
<path d="M181.809 159.684C179.844 160.337 178.607 162.132 178.124 164.075C177.168 167.497 178.234 171.103 177.348 174.534C176.33 173.591 176.009 172.205 175.365 171.029C174.439 169.296 173.017 167.918 171.789 166.405C171.723 167.563 172.048 168.914 171.241 169.888C170.552 170.779 169.306 170.674 168.31 170.893C169.459 172.687 170.762 174.626 170.67 176.851C170.67 177.833 169.876 178.698 168.951 178.939C168.047 178.97 167.204 178.562 166.358 178.298C166.222 179.483 166.367 181.146 165.015 181.69C163.502 182.269 162.133 181.027 160.861 180.382C160.72 181.957 159.558 183.782 157.733 182.984C155.561 181.786 153.451 179.992 152.538 177.623C154.653 178.829 155.908 181.15 158.149 182.155C159.216 182.62 160.071 181.475 159.632 180.505C158.667 177.807 157.276 175.196 155.333 173.073C154.649 172.362 153.543 171.441 152.547 172.165C150.906 173.503 151.121 176.021 151.986 177.754C154.047 182.159 156.184 186.551 158.764 190.683C160.312 193.202 162.633 195.167 165.331 196.36C165.748 198.229 166.292 200.063 166.919 201.871C172.667 201.138 178.107 198.866 183.139 196.067C182.862 194.452 182.165 192.952 181.814 191.359C181.91 190.306 182.371 189.341 182.704 188.354C184.126 184.489 185.139 180.338 184.591 176.197C184.117 172.735 183.183 169.353 182.674 165.891C182.318 163.83 182.542 161.68 181.809 159.684ZM176.707 175.083C175.584 177.066 173.72 178.544 172.825 180.681C171.495 183.085 171.35 185.866 171.236 188.547C170.71 188.328 170.451 187.942 170.46 187.393C170.297 184.603 171.017 181.791 172.438 179.391C173.5 177.662 174.746 175.855 176.707 175.083Z" fill="#D5D5D5"/>
<path d="M185.723 195.303C183.188 197.343 180.196 198.69 177.23 199.976C173.233 201.612 168.999 202.775 164.674 203.011C165.582 207.157 166.582 211.295 167.819 215.357C175.896 215.572 183.771 212.159 190.01 207.188C188.553 203.235 187.299 199.208 185.723 195.303ZM170.184 207.32C171.189 207.535 171.64 208.798 171.171 209.671C170.719 210.895 168.732 210.838 168.271 209.641C167.578 208.43 168.837 206.811 170.184 207.32Z" fill="#D5D5D5"/>
<path d="M24.0774 174.03C22.068 172.762 19.9226 171.608 18.3389 169.792C15.3951 174.82 12.697 179.983 10.2665 185.279C9.83657 186.262 9.56019 187.301 9.3057 188.341C11.7406 188.271 14.1315 188.797 16.4437 189.517C17.9485 189.999 19.5498 190.355 20.8703 191.263C22.7831 192.864 22.8665 195.834 24.9548 197.282C27.4994 198.734 30.7986 197.352 33.2423 199.085C35.5105 200.7 35.0279 204.034 36.9363 205.899C38.8755 207.276 41.6262 207.333 43.1573 209.325C45.8598 212.852 44.7937 217.547 45.0482 221.657C45.2237 224.027 46.6846 226.001 47.5841 228.137C51.1771 236.486 52.8356 245.528 53.8138 254.522C54.156 256.939 53.827 259.475 54.7 261.796C55.0072 256.593 54.4807 251.381 54.3622 246.177C53.9892 236.328 53.1996 226.479 51.5587 216.757C50.7734 211.466 49.1896 206.35 48.1279 201.121C47.5839 199.923 46.9697 198.633 45.7676 197.958C43.245 196.361 40.0686 196.615 37.4364 195.321C35.5411 193.878 36.2211 190.75 34.1591 189.412C31.6715 187.937 28.5259 188.104 26.1305 186.433C24.731 185.525 23.8667 183.831 24.0949 182.16C24.3932 180.269 25.7444 178.751 26.1087 176.886C26.2622 175.557 25.0513 174.679 24.0774 174.03Z" fill="#F0F0F0"/>
<path d="M378.738 171.66C375.093 171.595 371.451 171.625 367.81 171.665C367.81 171.981 367.801 172.617 367.801 172.937C371.451 173.029 375.106 173.073 378.756 172.963C378.751 172.639 378.743 171.985 378.738 171.66Z" fill="#FAFEFA"/>
<path d="M337.489 171.67C331.448 171.613 325.398 171.446 319.366 171.832C319.936 172.328 320.485 172.846 320.998 173.403C326.469 172.648 332.001 173.289 337.498 172.951C337.494 172.631 337.494 171.99 337.489 171.67Z" fill="#FCFEFD"/>
<path d="M343.654 178.663C339.706 178.571 335.757 178.755 331.813 178.606C329.554 178.514 327.286 178.536 325.031 178.733C325.39 179.251 325.741 179.777 326.079 180.313C331.91 179.558 337.797 180.093 343.654 179.975C343.654 179.646 343.654 178.992 343.654 178.663Z" fill="#F9FEFB"/>
<path d="M170.184 207.32C168.837 206.811 167.578 208.43 168.271 209.641C168.732 210.838 170.719 210.895 171.171 209.671C171.641 208.798 171.189 207.535 170.184 207.32Z" fill="#030103"/>
<path d="M209.949 301.013C208.615 300.964 207.277 300.982 205.944 301.07C205.996 301.728 206.04 302.399 206.08 303.07C207.339 303.097 208.598 303.119 209.857 303.136C209.901 302.425 209.927 301.715 209.949 301.013ZM208.646 302.009C208.681 302.71 207.067 302.702 207.102 302.004C207.484 301.587 208.273 301.592 208.646 302.009Z" fill="#030103"/>
<path d="M204.553 301.179C202.644 301.131 200.731 301.232 198.854 301.587C198.889 302.228 198.88 302.877 198.832 303.531C200.74 303.561 202.649 303.504 204.531 303.184C204.544 302.513 204.548 301.846 204.553 301.179ZM203.579 302.083C203.583 302.228 203.587 302.517 203.592 302.658C202.262 302.666 200.929 302.688 199.599 302.57C200.749 301.728 202.263 302.18 203.579 302.083Z" fill="#030103"/>
<path d="M366.954 215.871C357.281 213.993 347.405 213.229 337.565 213.273C339.719 222.666 340.877 232.248 341.864 241.821C343.29 253.614 344.395 265.516 343.558 277.401C343.022 283.319 342.026 289.422 338.955 294.612C336.222 299.152 330.826 301.03 325.93 302.175C324.315 302.671 322.31 302.32 321.034 303.601C327.399 303.926 333.778 303.597 340.149 303.724C348.046 303.768 355.943 303.737 363.839 303.755C366.875 303.733 369.916 303.908 372.943 303.619C375.896 292.936 378.686 282.205 381.195 271.408C383.016 263.015 385.315 254.728 386.754 246.26C387.57 240.509 388.338 234.481 386.499 228.843C385.411 225.373 382.959 222.429 379.879 220.534C375.97 218.06 371.464 216.739 366.954 215.871Z" fill="#87BA8B"/>
<path d="M203.579 302.083C202.263 302.18 200.749 301.728 199.599 302.57C200.929 302.689 202.262 302.667 203.592 302.658C203.587 302.517 203.583 302.228 203.579 302.083Z" fill="#87BA8B"/>
<path d="M165.336 222.868C164.682 220.56 162.66 218.784 160.251 218.569C157.163 218.292 154.052 218.52 150.95 218.45C137.385 218.678 123.816 218.722 110.25 218.744C93.5966 219.064 76.9296 218.634 60.2846 219.156C60.1661 219.472 59.9292 220.104 59.8107 220.42C90.8106 220.209 121.815 220.165 152.815 219.986C154.881 219.999 156.992 219.801 159.014 220.319C160.795 220.784 162.173 222.175 162.949 223.802C163.748 223.487 164.546 223.175 165.336 222.868Z" fill="#84C586"/>
<path d="M208.648 302.009C208.275 301.592 207.485 301.587 207.104 302.004C207.069 302.702 208.683 302.711 208.648 302.009Z" fill="#84C586"/>
<path d="M390.114 223.864C387.425 222.385 384.679 220.885 381.66 220.214C383.192 222.14 385.113 223.785 386.228 226.018C388.917 230.892 388.693 236.705 388.184 242.08C387.281 251.109 384.683 259.839 382.788 268.688C380.12 280.411 377.071 292.05 373.93 303.654C377.712 303.799 381.498 303.628 385.28 303.575C387.982 293.778 389.979 283.797 392.453 273.939C394.506 265.349 396.744 256.768 397.726 247.972C398.327 243.238 398.827 238.377 397.959 233.652C397.156 229.313 393.822 225.97 390.114 223.864Z" fill="#89B98D"/>
<path d="M160.397 221.956C158.853 220.789 156.852 220.802 155.009 220.841C124.15 221.096 93.2904 221.083 62.4353 221.197C61.1717 221.35 59.4037 220.912 58.636 222.228C58.7939 224.14 59.7592 225.86 60.3426 227.668C66.0635 244.203 71.8809 260.708 77.378 277.322C79.5277 283.161 81.423 289.088 83.406 294.985C83.8402 296.477 84.9722 297.828 86.591 298.012C89.6313 298.455 92.7199 298.152 95.7778 298.262C108.935 298.587 122.097 298.714 135.249 299.113C143.594 299.056 151.925 299.622 160.265 299.587C166.85 299.644 173.427 299.995 180.007 300.017C182.583 300.013 185.176 300.285 187.725 299.815C187.567 298.995 187.404 298.179 187.181 297.38C178.99 273.918 171.141 250.332 163.02 226.839C162.38 225.123 162.068 223.017 160.397 221.956ZM120.636 252.578C123.632 253.372 126.015 255.711 127.506 258.361C128.954 260.905 129.393 264.235 127.835 266.837C126.782 268.714 124.457 269.592 122.386 269.219C118.113 268.574 114.691 265.025 113.502 260.975C112.835 258.602 113.028 255.711 114.884 253.916C116.363 252.42 118.662 252.096 120.636 252.578Z" fill="#73CC76"/>
<path d="M181.517 270.167C176.076 254.417 170.777 238.618 165.337 222.868C164.547 223.175 163.748 223.487 162.95 223.803C166.306 233.74 169.728 243.659 173.08 253.601C178.411 268.872 183.443 284.25 188.931 299.469C189.137 299.324 189.558 299.043 189.769 298.903C191.44 298.038 190.282 295.963 189.979 294.612C186.966 286.531 184.228 278.353 181.517 270.167Z" fill="#78CB7B"/>
<path d="M246.495 224.465C245.188 224.057 243.999 225.579 244.53 226.79C245.017 228.058 247.162 228.15 247.623 226.817C248.123 225.891 247.5 224.676 246.495 224.465Z" fill="#010101"/>
<path d="M29.6969 227.584C28.1922 227.194 26.7268 227.984 25.2703 228.282C22.853 229.05 20.6595 226.808 18.2244 227.461C16.316 227.812 14.3331 229.488 14.7892 231.616C15.1402 233.994 17.6584 234.814 19.5713 235.609C21.5982 236.258 22.0632 238.649 23.7084 239.768C26.0072 240.961 28.6835 239.412 31.0394 240.277C32.9128 241.509 33.0971 244.396 35.3477 245.217C38.4144 246.305 41.6697 245.151 44.8108 245.458C45.9954 245.519 46.614 246.664 47.193 247.537C47.2895 247.296 47.4869 246.809 47.5879 246.564C45.6706 242.018 45.3636 236.495 41.3931 233.064C39.4979 231.292 36.791 232.503 34.5404 231.998C32.6013 230.905 31.8642 228.361 29.6969 227.584Z" fill="#010101"/>
<path d="M63.1979 238.469C61.987 235.455 61.3026 232.244 59.8637 229.326C58.4773 234.841 58.2186 240.562 57.6525 246.204C57.2577 251.315 56.8365 256.43 56.7663 261.563C57.3279 261.528 57.885 261.502 58.4335 261.48C59.2934 254.855 60.7542 248.209 63.6981 242.176C64.3737 240.961 63.5182 239.654 63.1979 238.469Z" fill="#D1EFCE"/>
<path d="M66.4352 247.915C65.8517 246.125 65.2683 244.326 64.4346 242.633C61.7365 248.599 60.0212 255.009 59.3148 261.52C63.1931 261.55 67.0713 261.546 70.9453 261.485C69.7608 256.865 67.9313 252.443 66.4352 247.915Z" fill="#D4EED1"/>
<path d="M246.086 247.244C245.064 246.91 243.823 247.718 243.902 248.841C243.814 250.214 245.661 251.043 246.666 250.153C247.631 249.363 247.315 247.551 246.086 247.244Z" fill="#000001"/>
<path d="M120.206 253.407C118.789 253.105 117.166 253.188 115.994 254.136C114.406 255.325 113.849 257.474 114.09 259.378C114.604 263.318 117.526 266.867 121.32 268.078C123.018 268.622 125.093 268.499 126.44 267.223C128.011 265.687 128.235 263.244 127.699 261.208C126.743 257.588 123.918 254.315 120.206 253.407Z" fill="#EAFDE9"/>
<path d="M81.0764 290.783C79.5277 286.593 78.3652 282.258 76.6586 278.13C75.7374 285.241 74.8993 292.371 74.0088 299.491C73.8903 301.303 72.5346 302.584 71.2492 303.703C76.3251 303.769 81.3967 303.716 86.4727 303.703C86.0296 303.172 85.5469 302.667 85.196 302.066C84.6388 300.794 85.3364 299.149 84.2746 298.083C82.3575 296.095 82.0504 293.248 81.0764 290.783Z" fill="#D2EECF"/>
<path d="M198.039 286.149C196.021 288.382 194.336 290.91 192.09 292.936C191.656 293.494 190.708 294.007 190.914 294.819C191.748 295.415 192.88 295.205 193.849 295.363C193.889 291.778 196.732 289.269 198.039 286.149Z" fill="#FAF9F6"/>
<path d="M230.49 294.485C226.177 294.783 221.917 293.748 217.881 292.326C217.846 293.572 217.806 294.818 217.78 296.068C225.225 295.989 232.661 296.419 240.098 296.643C238.646 296.266 237.904 295.02 237.584 293.638C235.197 293.717 232.876 294.379 230.49 294.485Z" fill="#FDFEFC"/>
<path d="M199.321 296.362C196.71 296.441 194.104 296.208 191.516 295.884C191.533 296.16 191.56 296.709 191.573 296.981C193.284 297.125 194.995 297.165 196.706 297.143C197.526 297.196 198.671 296.95 199.031 297.924C196.943 298.117 194.841 297.959 192.744 298.073C192.13 298.029 191.665 298.472 191.222 298.841C195.973 299.205 200.733 298.648 205.493 298.674C212.965 298.174 220.449 297.889 227.916 297.331C225.876 296.875 223.788 296.827 221.704 296.836C214.241 296.831 206.788 296.261 199.321 296.362Z" fill="#7FCC7D"/>
<path d="M246.302 297.499C239.414 297.192 232.535 298.061 225.656 298.394C217.434 298.697 209.23 299.372 201.009 299.588C197.385 300.026 193.722 299.658 190.102 300.092C190.067 301.887 190.076 303.681 190.124 305.48C199.947 305.449 209.735 304.453 219.536 303.957C226.722 303.641 233.882 302.9 241.068 302.514C242.718 302.316 244.521 302.505 246.034 301.715C246.723 300.426 246.32 298.89 246.302 297.499ZM209.95 301.013C209.928 301.715 209.902 302.426 209.858 303.137C208.599 303.119 207.34 303.097 206.08 303.071C206.041 302.4 205.997 301.729 205.944 301.07C207.278 300.983 208.616 300.965 209.95 301.013ZM204.554 301.18C204.549 301.847 204.545 302.514 204.532 303.185C202.65 303.505 200.741 303.563 198.833 303.532C198.881 302.878 198.89 302.229 198.855 301.588C200.732 301.233 202.645 301.132 204.554 301.18Z" fill="#76CD7A"/>
<path d="M130.889 299.868C115.867 299.469 100.846 299.223 85.8239 299.021C85.8765 300.079 85.5606 301.316 86.3108 302.202C86.9777 303.093 88.1446 303.29 89.18 303.334C94.449 303.505 99.7223 303.496 104.991 303.619C113.63 304.036 122.281 303.97 130.924 304.343C138.22 304.356 145.511 304.65 152.803 304.826C160.998 304.795 169.185 305.33 177.38 305.304C181.293 305.264 185.198 305.668 189.107 305.444C189.111 303.825 189.111 302.206 189.094 300.592C185.514 301.303 181.877 300.759 178.266 300.785C171.093 300.833 163.933 300.434 156.764 300.337C148.14 300.355 139.519 299.86 130.889 299.868Z" fill="#77CD7C"/>
<path d="M320.328 303.272C318.841 303.092 317.336 303.206 315.866 303.469C317.319 303.825 319.008 304.219 320.328 303.272Z" fill="#9C9B9D"/>
<path d="M237.181 115.676C234.101 114.948 230.723 114.878 227.863 116.404C225.143 117.624 224.599 120.985 222.335 122.731C221.185 123.165 219.909 123.345 218.685 123.222C217.908 122.876 217.233 122.349 216.522 121.888C216.342 121.893 215.982 121.897 215.802 121.902C216.741 122.753 217.5 124.227 218.952 124.143C220.233 124.126 221.572 124.064 222.76 123.555C224.147 122.305 224.998 120.454 226.766 119.646C231.377 117.102 236.957 117.883 241.7 119.611C242.766 119.923 242.345 121.283 242.481 122.116C242.358 125.109 243.341 128.237 242.169 131.119C241.283 133.405 238.984 134.756 236.698 135.309C233.272 136.133 229.249 135.432 226.832 132.707C225.147 130.961 224.546 128.548 223.392 126.482C222.545 124.678 219.044 124.867 218.922 127.074C218.601 129.781 219.295 132.984 217.259 135.181C214.578 137.801 210.002 137.314 207.383 134.839C209.844 135.647 212.573 136.792 215.131 135.655C217.509 134.471 218.092 131.466 217.838 129.048C217.627 126.425 216.724 123.327 214.074 122.213C211.007 120.985 206.734 121.529 204.887 124.525C203.558 127.855 205.813 131.062 206.813 134.142C204.259 131.233 204.207 127.153 202.426 123.836C203.913 122.941 205.413 122.072 206.927 121.23L207.019 120.809C205.119 121.388 202.952 121.923 201.653 123.542C201.702 124.99 202.505 126.258 202.935 127.613C203.856 130.32 204.527 133.286 206.593 135.401C208.107 136.984 210.327 137.463 212.367 137.963C214.775 143.802 217.452 149.716 221.848 154.358C224.629 157.306 228.253 159.719 232.381 160.079C235.501 160.465 238.528 159.447 241.463 158.552C241.717 159.473 242.16 160.386 242.108 161.364C241.897 162.483 240.748 162.979 239.849 163.466C234.259 166.08 228.85 169.204 224.151 173.227C219.588 177.079 217.132 182.708 214.938 188.113C211.823 196.102 209.875 204.473 207.484 212.69C205.949 217.906 204.847 223.241 203.163 228.409C201.798 225.391 200.899 222.193 199.64 219.135C198.368 215.835 196.959 212.44 194.309 209.987C192.958 208.566 191.015 207.561 190.365 205.596C188.997 201.757 187.873 197.817 186.11 194.132C185.149 193.807 183.684 194.057 183.206 192.939C182.425 191.609 183.021 190.087 183.495 188.771C184.614 185.805 185.539 182.712 185.605 179.523C185.767 174.24 183.793 169.213 183.372 163.987C183.206 162.535 183.276 161.026 182.758 159.64C182.31 158.815 181.174 158.969 180.455 159.315C178.954 160.07 178.151 161.636 177.243 162.97C174.857 160.631 172.483 158.074 169.193 157.043C169.215 157.222 169.254 157.587 169.272 157.766C171.943 159.394 174.655 161.145 176.497 163.733C176.989 164.347 176.866 165.172 176.884 165.905C176.831 167.703 176.774 169.506 176.769 171.31C174.571 168.142 172.224 164.957 169.066 162.68C169.715 164.795 171.711 166.962 170.662 169.248C169.474 170.472 167.679 169.265 166.275 169.129C167.613 171.977 170.268 174.543 169.588 177.961C167.219 178.224 165.626 176.254 164.323 174.596C162.853 172.801 161.914 170.516 159.896 169.23C161.392 173.157 165.24 175.96 165.556 180.374C164.788 180.523 163.95 181.106 163.182 180.641C161.072 179.417 159.699 177.307 158.242 175.412C156.909 173.692 155.904 171.748 155.206 169.686C155.049 169.669 154.733 169.629 154.579 169.607C154.562 170.042 154.544 170.476 154.522 170.915C153.298 171.191 151.719 171.218 151.061 172.499C149.797 174.662 150.574 177.307 151.631 179.387C153.908 183.664 155.887 188.13 158.668 192.123C159.607 193.478 160.796 194.658 162.187 195.558C163.296 196.348 164.814 197.019 164.972 198.563C165.657 200.366 163.156 201.498 163.704 203.275C164.573 207.166 165.832 210.97 166.622 214.883C166.832 217.419 166.056 219.938 166.315 222.487C165.635 221.109 164.893 219.635 163.511 218.836C161.3 217.358 158.527 217.59 155.996 217.704C154.311 217.915 152.644 218.266 150.951 218.45C154.052 218.52 157.163 218.292 160.252 218.569C162.66 218.784 164.683 220.561 165.336 222.868C170.776 238.618 176.076 254.417 181.516 270.167C184.228 278.353 186.965 286.531 189.979 294.612C190.282 295.963 191.44 298.038 189.769 298.903C189.558 299.043 189.137 299.324 188.931 299.469C183.442 284.249 178.41 268.872 173.08 253.6C169.728 243.659 166.306 233.74 162.95 223.803C162.173 222.175 160.796 220.784 159.014 220.319C156.992 219.801 154.882 219.999 152.815 219.986C121.815 220.166 90.8111 220.209 59.8111 220.42C59.9296 220.104 60.1664 219.472 60.2849 219.157C60.1314 219.161 59.8243 219.17 59.6708 219.174C58.6661 220.012 57.4639 221.056 57.6351 222.517C57.9554 224.623 59.6445 226.501 59.0082 228.725C57.306 236.833 56.8147 245.124 56.3453 253.377C55.8319 250.718 56.2181 248.02 56.2049 245.344C56.4374 226.172 56.4067 206.982 57.6747 187.845C57.8721 184.533 58.3765 181.234 58.302 177.908C58.2274 177.698 58.0783 177.268 58.0037 177.053C57.0254 181.326 57.0122 185.726 56.67 190.078C55.9768 201.753 55.6082 213.449 55.5468 225.145C55.3758 231.612 55.6697 238.087 55.2046 244.541C54.6913 236.534 54.3359 228.497 53.0374 220.565C51.8967 213.611 50.8218 206.561 48.2861 199.954C48.2465 200.248 48.1676 200.831 48.1282 201.121C49.1899 206.35 50.7737 211.466 51.559 216.757C53.1998 226.479 53.9895 236.328 54.3625 246.177C54.481 251.381 55.0073 256.593 54.7003 261.796C53.8272 259.475 54.1563 256.939 53.8141 254.522C52.8358 245.528 51.1774 236.486 47.5843 228.137C47.4615 228.405 47.2203 228.94 47.1018 229.208C49.7253 235.775 51.3398 242.707 52.3314 249.7C52.8579 253.636 53.3579 257.589 53.3535 261.568C52.7218 261.537 52.0856 261.511 51.4452 261.48C50.5896 256.413 49.664 251.302 47.5889 246.564C47.4879 246.809 47.2904 247.296 47.194 247.537C48.7777 252.065 49.7999 256.768 50.5063 261.506C43.8202 261.655 37.1298 261.498 30.4436 261.598C30.5356 265.643 30.6279 269.697 30.9305 273.733C31.7378 273.847 32.5406 273.961 33.3391 274.08C34.2516 282.196 35.3791 290.291 36.217 298.42C36.296 300.451 37.2086 302.312 38.7002 303.672C28.9343 303.698 19.1641 303.492 9.40255 303.737C9.16572 307.55 9.42008 311.371 9.21826 315.184C9.49027 315.052 10.0255 314.784 10.2931 314.653C10.1309 311.292 10.1615 307.923 10.2361 304.562C21.7875 304.404 33.3391 304.558 44.8906 304.518C62.1455 304.466 79.4046 304.606 96.6594 304.483C125.913 304.891 155.158 305.747 184.408 306.313C190.414 306.65 196.416 306.093 202.413 305.826C210.889 305.413 219.352 304.698 227.837 304.43C244.214 304.689 260.596 304.382 276.973 304.518C318.836 304.492 360.698 304.562 402.561 304.452C402.833 304.233 403.105 304.022 403.377 303.812C398.819 303.435 394.252 303.786 389.693 303.755C388.544 303.746 387.394 303.724 386.245 303.698C389.272 291.958 391.834 280.103 394.734 268.333C397.051 258.782 399.06 249.073 399.262 239.21C399.336 235.968 399.034 232.59 397.445 229.699C395.717 226.417 392.598 224.171 389.399 222.451C382.511 218.828 374.948 216.761 367.393 215.055C357.487 213.089 347.37 212.514 337.293 212.229C336.314 208.254 335.446 204.249 334.231 200.34C332.076 193.461 330.028 186.424 326.079 180.312C325.741 179.777 325.39 179.251 325.03 178.733C323.745 176.917 322.455 175.092 320.999 173.403C320.485 172.845 319.937 172.328 319.367 171.832C316.37 169.305 313.058 167.173 309.557 165.409C302.959 162.062 296.088 159.272 289.095 156.876C287.024 156.148 284.721 155.705 283.106 154.108C280.562 151.673 278.022 149.22 275.253 147.04C273.836 145.86 271.897 146.031 270.173 145.921C268.624 143.162 267.339 140.235 265.457 137.673C265.395 137.875 265.273 138.274 265.216 138.472C267.216 142.622 269.607 146.571 271.832 150.602C270.151 153.287 268.234 155.81 266.26 158.28C262.438 162.922 258.591 167.555 254.41 171.88C253.524 172.802 252.734 173.877 252.466 175.158C251.817 177.803 251.475 180.51 250.856 183.16C248.579 177.106 248.281 170.463 245.578 164.554C247.882 162.079 250.176 159.566 251.922 156.653C253.484 154.038 255.191 151.392 255.744 148.343C250.084 152.704 244.175 157.205 237.098 158.921C232.676 160.009 227.916 158.614 224.524 155.643C219.133 151.015 215.934 144.421 213.442 137.897C215.338 137.432 217.167 136.673 218.633 135.361C218.711 137.186 218.475 139.459 220.12 140.701C222.024 141.898 224.625 141.407 226.271 139.968C224.547 140.007 222.796 140.622 221.094 140.214C219.4 139.49 219.492 137.362 219.751 135.844C220.256 133.212 220.782 130.575 220.909 127.89C220.357 127.868 219.804 127.846 219.247 127.824C219.856 126.859 220.743 125.653 222.032 126.354C223.16 127.302 223.463 128.864 224.138 130.123C225.424 133.111 228.06 135.598 231.329 136.169C235.308 137.007 240.226 135.997 242.45 132.295C244.324 129.167 243.398 125.376 242.959 121.989C245.71 120.326 248.694 119.063 251.317 117.185C251.15 117.084 250.821 116.887 250.655 116.786C248.198 118.102 245.794 119.528 243.275 120.73C242.92 120.068 242.565 119.405 242.183 118.756C242.095 118.62 241.924 118.352 241.841 118.216C239.072 118.471 236.462 117.106 233.698 116.988C234.975 116.913 236.247 116.891 237.519 116.852C237.436 116.558 237.269 115.97 237.181 115.676ZM216 125.122C217.119 127.675 217.663 130.838 216.377 133.427C215.658 134.888 213.982 135.23 212.508 135.344C210.976 131.194 209.726 126.912 208.954 122.555C211.494 122.16 214.758 122.511 216 125.122ZM207.923 122.937C208.862 127.109 210.314 131.146 211.279 135.309C207.44 134.317 205.457 130.119 205.356 126.438C205.269 124.771 206.664 123.722 207.923 122.937ZM274.797 147.909C277.772 150.173 280.584 152.704 283.058 155.503C282.602 157.504 281.229 159.14 280.32 160.952C275.78 168.555 271.028 176.105 265.224 182.818C262.631 180.186 260.038 177.553 257.41 174.952C256.871 174.377 256.151 174.044 255.419 173.794C255.954 174.847 256.765 175.711 257.625 176.505C260.245 178.988 262.714 181.625 265.237 184.204C267.102 182.454 268.449 180.269 270.028 178.286C275.279 171.319 279.86 163.865 284.032 156.21C290.472 158.105 296.75 160.522 302.884 163.242C308.653 165.778 314.439 168.59 319.116 172.903C321.806 175.276 323.67 178.378 325.636 181.335C328.378 185.547 329.997 190.338 331.633 195.054C335.818 207.961 338.767 221.285 340.197 234.78C341.307 245.3 342.834 255.803 342.943 266.398C343.031 274.133 342.899 282.065 340.333 289.453C339.302 292.344 337.986 295.332 335.489 297.262C332.809 299.285 329.562 300.377 326.342 301.206C318.954 302.952 311.298 303.071 303.744 302.926C293.644 302.549 283.563 301.882 273.463 301.531C270.594 301.351 267.681 301.482 264.864 300.802C261.767 300.083 258.933 298.499 256.458 296.529C258.156 288.264 257.195 279.433 253.383 271.869C255.835 270.386 258.275 268.736 261.113 268.105C264.667 267.337 268.304 267.1 271.906 266.657C280.838 265.626 289.841 264.801 298.58 262.599C301.366 262.581 304.033 263.674 306.709 264.345C309.521 265.042 312.022 266.587 314.808 267.337C314.505 266.859 314.255 266.293 313.689 266.082C308.982 263.752 303.8 262.708 298.746 261.423C298.216 255.176 297.47 248.95 296.75 242.725C295.443 233.047 293.548 223.456 292.385 213.756C292.249 212.738 292.249 211.571 291.358 210.878C291.218 212.721 291.613 214.537 291.85 216.358C292.736 222.873 293.762 229.37 294.846 235.859C296.285 244.457 297.114 253.144 297.887 261.822C293.929 263.024 289.805 263.45 285.738 264.099C279.903 264.968 274.029 265.512 268.172 266.192C264.68 266.613 261.047 266.762 257.81 268.284C255.138 269.403 252.979 271.939 249.838 271.601C250.031 243.975 251.053 216.366 251.365 188.745C251.167 184.752 252.299 180.892 252.992 177C253.26 175.688 253.501 174.271 254.471 173.267C261.218 165.918 267.887 158.42 273.362 150.054C273.893 149.348 273.796 148.457 273.691 147.641C273.239 148.246 272.805 148.865 272.362 149.484C271.849 148.65 271.37 147.79 270.94 146.913C272.305 146.817 273.727 146.979 274.797 147.909ZM181.81 159.684C182.543 161.68 182.319 163.83 182.675 165.892C183.184 169.353 184.118 172.736 184.592 176.197C185.14 180.339 184.127 184.489 182.705 188.354C182.372 189.342 181.911 190.307 181.815 191.36C182.166 192.952 182.863 194.453 183.14 196.067C178.108 198.866 172.667 201.139 166.92 201.871C166.293 200.064 165.749 198.23 165.332 196.361C162.634 195.168 160.313 193.202 158.765 190.684C156.185 186.551 154.048 182.16 151.986 177.755C151.122 176.022 150.907 173.504 152.548 172.166C153.544 171.442 154.649 172.363 155.334 173.074C157.277 175.197 158.668 177.807 159.633 180.506C160.072 181.475 159.217 182.62 158.15 182.155C155.909 181.151 154.654 178.83 152.539 177.623C153.452 179.992 155.562 181.787 157.734 182.984C159.559 183.783 160.721 181.958 160.862 180.383C162.134 181.028 163.503 182.269 165.016 181.69C166.368 181.146 166.223 179.483 166.359 178.299C167.205 178.562 168.048 178.97 168.952 178.94C169.877 178.698 170.671 177.834 170.671 176.851C170.763 174.627 169.46 172.688 168.311 170.893C169.307 170.674 170.553 170.779 171.242 169.889C172.049 168.915 171.724 167.564 171.79 166.405C173.018 167.919 174.44 169.296 175.365 171.029C176.01 172.205 176.331 173.592 177.349 174.535C178.235 171.104 177.169 167.498 178.125 164.076C178.608 162.132 179.845 160.338 181.81 159.684ZM246.719 170.784C247.298 173.881 248.263 176.891 248.851 179.988C246.973 178.027 245.806 175.482 243.701 173.728C241.985 175.873 240.897 178.461 238.98 180.453C239.616 174.158 240.906 167.901 242.88 161.891C244.701 164.576 246.113 167.577 246.719 170.784ZM241.138 163.791C239.739 169.977 238.107 176.202 238.024 182.581C238.287 182.55 238.809 182.484 239.072 182.449C240.643 179.975 242.231 177.514 243.819 175.052C245.67 177.049 247.057 179.405 248.513 181.686C249.47 183.309 250.707 184.972 250.527 186.964C250.058 215.178 249.369 243.387 248.794 271.597C244.802 272.119 240.744 272.044 236.782 272.764C235.461 272.891 235.317 274.422 234.799 275.374C229.539 274.361 224.353 273.018 219.106 271.948C219.409 250.161 219.896 228.374 220.383 206.587C219.786 206.706 219.492 207.052 219.492 207.636C218.86 228.971 218.716 250.319 218.062 271.654C214.219 270.965 210.402 270.127 206.524 269.64C203.812 269.281 201.145 270.083 198.6 270.939C195.92 271.873 193.283 273.053 190.997 274.764C188.922 276.3 187.641 278.595 185.948 280.499C180.139 263.288 174.133 246.142 168.377 228.914C167.539 224.742 166.447 220.333 167.754 216.134C176.077 216.582 184.114 212.967 190.581 207.97C193.257 209.975 195.775 212.383 197.131 215.498C199.153 220.048 200.794 224.759 202.479 229.44C205.019 236.837 207.423 244.313 208.862 252.008C208.932 252.671 209.292 253.197 209.95 253.403C209.779 250.71 208.972 248.121 208.344 245.515C207.204 241.339 206.085 237.149 204.637 233.064C206.581 234.911 208.138 237.096 209.779 239.202C209.902 238.987 210.147 238.553 210.27 238.338C208.792 236.328 207.247 234.363 205.493 232.59C204.843 231.735 203.514 230.923 203.869 229.699C205.817 222.307 207.774 214.914 209.849 207.557C212.069 199.888 213.991 192.083 217.325 184.801C218.948 181.348 220.664 177.825 223.458 175.149C228.503 170.2 234.821 166.818 241.138 163.791ZM185.724 195.304C187.299 199.208 188.553 203.236 190.01 207.189C183.771 212.159 175.896 215.572 167.82 215.358C166.582 211.295 165.582 207.158 164.674 203.012C169 202.775 173.233 201.612 177.23 199.976C180.196 198.691 183.188 197.344 185.724 195.304ZM366.954 215.871C371.464 216.74 375.97 218.06 379.879 220.534C382.959 222.43 385.411 225.374 386.499 228.844C388.338 234.481 387.57 240.509 386.754 246.261C385.315 254.728 383.016 263.016 381.195 271.408C378.686 282.205 375.896 292.936 372.943 303.619C369.916 303.909 366.876 303.733 363.84 303.755C355.943 303.738 348.046 303.768 340.149 303.724C333.779 303.597 327.4 303.926 321.034 303.602C322.311 302.321 324.316 302.671 325.93 302.176C330.826 301.031 336.222 299.153 338.956 294.612C342.027 289.422 343.023 283.32 343.558 277.401C344.396 265.516 343.29 253.614 341.864 241.821C340.877 232.248 339.719 222.667 337.565 213.274C347.405 213.23 357.281 213.993 366.954 215.871ZM390.114 223.864C393.822 225.97 397.156 229.313 397.959 233.652C398.827 238.377 398.327 243.238 397.726 247.972C396.743 256.768 394.506 265.35 392.453 273.94C389.978 283.798 387.982 293.779 385.28 303.575C381.498 303.628 377.712 303.799 373.93 303.654C377.071 292.05 380.121 280.411 382.788 268.688C384.683 259.839 387.28 251.109 388.184 242.08C388.693 236.706 388.917 230.893 386.227 226.019C385.113 223.786 383.191 222.14 381.66 220.214C384.679 220.886 387.425 222.386 390.114 223.864ZM160.396 221.956C162.068 223.018 162.38 225.123 163.02 226.839C171.141 250.332 178.989 273.918 187.18 297.381C187.404 298.179 187.566 298.995 187.724 299.815C185.175 300.285 182.583 300.013 180.007 300.017C173.426 299.995 166.85 299.644 160.265 299.587C151.925 299.623 143.594 299.056 135.249 299.114C122.096 298.714 108.935 298.587 95.7775 298.262C92.7197 298.153 89.631 298.455 86.5907 298.012C84.9718 297.828 83.8399 296.477 83.4056 294.985C81.4227 289.089 79.5274 283.162 77.3777 277.322C71.8804 260.708 66.0631 244.203 60.3423 227.668C59.7587 225.86 58.7936 224.141 58.6357 222.228C59.4034 220.912 61.1716 221.35 62.435 221.197C93.2901 221.083 124.15 221.096 155.009 220.842C156.852 220.802 158.852 220.789 160.396 221.956ZM63.1981 238.469C63.5184 239.654 64.3738 240.961 63.6982 242.177C60.7545 248.209 59.2935 254.856 58.4336 261.48C57.8852 261.502 57.3279 261.528 56.7664 261.563C56.8366 256.43 57.2578 251.315 57.6526 246.204C58.2187 240.562 58.4774 234.841 59.8638 229.326C61.3029 232.244 61.9873 235.455 63.1981 238.469ZM66.4359 247.915C67.9319 252.443 69.7614 256.865 70.946 261.485C67.0721 261.546 63.1938 261.55 59.3154 261.52C60.0218 255.009 61.7372 248.599 64.4353 242.633C65.2689 244.326 65.8525 246.125 66.4359 247.915ZM71.5251 262.533C72.6131 266.074 74.0039 269.518 74.9999 273.089C70.6697 273.242 66.3351 273.124 62.0005 273.168C51.9012 273.119 41.7974 273.251 31.6982 273.08C31.5271 269.544 31.3998 266.003 31.3165 262.467C33.5056 262.397 35.6905 262.397 37.8709 262.406C49.089 262.494 60.3114 262.178 71.5251 262.533ZM208.125 270.72C214.122 271.742 220.076 273.01 226.003 274.357C229.934 275.238 233.829 276.379 237.87 276.616C239.485 281.74 239.967 287.176 239.673 292.524C236.422 292.502 233.281 293.502 230.039 293.612C224.436 293.849 218.917 292.138 214.061 289.422C211.613 288.163 208.792 286.167 205.962 287.531C202.917 289.69 200.947 293.121 197.732 295.086C196.793 295.551 195.025 295.885 194.884 294.411C195.099 292.748 196.148 291.362 196.99 289.971C198.355 287.979 199.565 285.86 201.197 284.07C202.869 282.241 205.273 281.319 207.647 280.828C208.91 280.516 210.354 280.521 211.332 279.538C206.05 279.24 201.206 282.109 197.425 285.553C194.998 288.018 193.257 291.142 190.396 293.182C189.887 291.734 189.238 290.317 189.041 288.786C189.554 287.435 190.436 286.268 191.19 285.048C192.625 282.881 194.011 280.591 196.087 278.968C198.583 277.059 201.597 276.05 204.541 275.059C205.172 274.892 205.616 274.409 206.006 273.922C204.093 274.102 202.281 274.787 200.518 275.506C197.986 276.568 195.472 277.893 193.643 279.99C191.673 282.113 190.423 284.86 188.08 286.636C187.514 285.048 186.781 283.486 186.593 281.802C187.15 280.288 188.282 279.082 189.242 277.818C192.27 273.971 197.1 272.299 201.614 270.926C203.72 270.228 205.975 270.334 208.125 270.72ZM255.533 296.187C250.413 296.108 245.306 295.643 240.186 295.591C240.586 292.599 240.849 289.571 240.581 286.557C240.191 282.091 239.555 277.546 237.585 273.47C242.551 273.054 247.504 272.492 252.479 272.286C256.34 279.529 257.296 288.211 255.533 296.187ZM75.535 274.019C75.807 275.217 76.0527 276.449 75.8596 277.686C74.9339 284.859 73.9819 292.028 73.1879 299.214C73.0782 301.934 70.2836 303.742 67.7302 303.562C59.3814 303.505 51.0281 303.606 42.675 303.637C41.2667 303.689 39.7839 303.404 38.7266 302.399C37.2657 301.25 37.2174 299.245 36.998 297.56C36.182 289.698 34.9447 281.876 34.3832 273.992C48.1019 274.045 61.8163 274.019 75.535 274.019ZM81.076 290.782C82.0499 293.248 82.357 296.095 84.2742 298.083C85.3359 299.149 84.6382 300.794 85.1955 302.066C85.5465 302.667 86.029 303.172 86.4722 303.703C81.3963 303.716 76.3247 303.768 71.2488 303.703C72.5342 302.584 73.8898 301.303 74.0083 299.491C74.8989 292.37 75.7369 285.241 76.6581 278.13C78.3647 282.258 79.5273 286.593 81.076 290.782ZM198.039 286.149C196.731 289.269 193.888 291.778 193.849 295.363C192.879 295.205 191.747 295.415 190.914 294.819C190.708 294.007 191.655 293.494 192.09 292.936C194.336 290.909 196.021 288.382 198.039 286.149ZM209.165 288.119C211.902 289.062 214.333 290.694 216.961 291.883C216.93 293.204 216.855 294.52 216.781 295.841C210.932 295.784 205.089 295.591 199.241 295.538C201.114 293.375 203.198 291.41 205.119 289.291C206.107 288.137 207.704 287.597 209.165 288.119ZM230.491 294.485C232.877 294.38 235.198 293.717 237.585 293.638C237.905 295.02 238.647 296.266 240.099 296.644C232.662 296.42 225.226 295.99 217.781 296.069C217.807 294.818 217.847 293.573 217.882 292.327C221.918 293.748 226.178 294.783 230.491 294.485ZM199.32 296.363C206.787 296.262 214.241 296.832 221.703 296.837C223.787 296.828 225.875 296.876 227.915 297.332C220.448 297.89 212.964 298.175 205.493 298.675C200.732 298.649 195.972 299.206 191.221 298.842C191.664 298.473 192.129 298.03 192.743 298.074C194.841 297.96 196.942 298.118 199.03 297.925C198.671 296.951 197.526 297.196 196.705 297.144C194.994 297.166 193.283 297.126 191.572 296.981C191.559 296.709 191.533 296.161 191.515 295.885C194.103 296.209 196.709 296.442 199.32 296.363ZM255.774 297.267C257.805 298.434 259.644 299.96 261.864 300.794C265.65 302.483 269.87 302.141 273.902 302.421C282.106 302.737 290.301 303.251 298.51 303.448C293.096 303.755 287.665 303.667 282.242 303.65C278 303.843 273.757 303.602 269.515 303.606C262.324 303.571 255.134 303.641 247.943 303.632C248.105 301.355 248.333 299.083 248.39 296.801C250.847 297.016 253.357 296.762 255.774 297.267ZM247.456 296.863C247.881 297.161 247.947 298.153 247.289 298.201C246.495 298.1 246.543 296.284 247.456 296.863ZM246.302 297.499C246.32 298.89 246.723 300.425 246.034 301.715C244.521 302.505 242.718 302.316 241.068 302.514C233.882 302.9 226.722 303.641 219.536 303.957C209.735 304.453 199.947 305.449 190.124 305.479C190.076 303.681 190.067 301.886 190.102 300.092C193.722 299.658 197.385 300.026 201.009 299.587C209.23 299.372 217.434 298.697 225.656 298.394C232.535 298.061 239.414 297.192 246.302 297.499ZM130.888 299.868C139.518 299.859 148.139 300.355 156.764 300.338C163.933 300.434 171.093 300.833 178.266 300.785C181.876 300.759 185.513 301.303 189.093 300.592C189.111 302.207 189.111 303.825 189.106 305.444C185.197 305.668 181.293 305.264 177.379 305.304C169.184 305.33 160.998 304.795 152.802 304.826C145.511 304.65 138.219 304.356 130.924 304.343C122.281 303.97 113.629 304.036 104.991 303.619C99.7219 303.497 94.4485 303.505 89.1795 303.334C88.1442 303.29 86.9771 303.093 86.3104 302.202C85.5602 301.316 85.8761 300.079 85.8234 299.022C100.845 299.223 115.866 299.469 130.888 299.868ZM247.087 302.421C247.074 302.72 247.048 303.316 247.03 303.615C244.411 303.738 241.77 303.795 239.164 303.435C241.827 303.295 244.556 303.387 247.087 302.421ZM320.327 303.273C319.007 304.22 317.318 303.825 315.865 303.47C317.335 303.207 318.84 303.093 320.327 303.273Z" fill="#020202"/>
<path d="M147.296 0.297173C133.78 -0.632942 120.074 0.595445 107.035 4.33342C92.009 8.46612 77.7725 15.7489 66.0676 26.094C59.9343 31.7578 54.3845 38.1632 50.4536 45.5731C47.3035 51.3072 45.3425 57.6336 44.3378 64.0827C43.5087 70.3345 43.684 76.6784 44.3422 82.9344C42.0389 83.0835 39.7269 82.8992 37.4191 82.9827C35.6818 83.009 34.5017 84.4437 33.3785 85.5755C37.1734 85.7948 40.9772 85.5886 44.7721 85.7115C44.9914 87.1373 45.1932 88.5719 45.36 90.0066C40.0822 90.2084 34.8001 90.0241 29.5178 90.068C27.8331 89.9057 26.9381 91.5421 25.9641 92.6214C30.812 92.7969 35.6599 92.6476 40.5032 92.6959C42.2976 92.7486 44.1446 92.4766 45.8907 92.9636C46.3557 94.2359 46.4566 95.5959 46.6234 96.9296C38.6344 97.2718 30.6321 96.8507 22.6429 97.1139C22.191 97.9431 21.7172 98.7678 21.2346 99.5883C29.2763 99.72 37.3136 99.5708 45.3553 99.6454C45.9914 99.6893 46.6583 99.6542 47.2287 99.9569C47.5884 101.159 47.6673 102.418 47.8166 103.655C38.6561 103.761 29.4913 103.699 20.3309 103.717C18.9709 103.603 18.7252 105.296 18.1372 106.191C28.0918 106.266 38.0507 106.165 48.0053 106.24C48.0886 107.573 49.1285 109.583 47.7947 110.491C37.4848 110.675 27.1442 110.478 16.8255 110.644C16.6589 111.351 16.4921 112.057 16.3254 112.768C26.9819 112.948 37.6428 112.706 48.3037 112.921C48.2993 114.308 48.2862 115.698 48.2642 117.085C37.2084 117.427 26.1439 117.089 15.0882 117.282C15.0794 117.988 15.0619 118.699 15.0355 119.41C25.9771 119.651 36.9188 119.256 47.856 119.599C47.7332 121.007 47.5971 122.411 47.4524 123.819C36.4887 123.907 25.5252 123.828 14.5615 123.819C14.5528 124.569 14.5396 125.324 14.522 126.079C25.2443 126.237 35.9754 126.158 46.6977 126.079C46.5134 127.5 46.6758 129.172 45.6491 130.312C35.3216 130.536 24.9635 130.387 14.6272 130.435C14.636 131.164 14.6403 131.892 14.6316 132.624C24.6914 132.866 34.76 132.695 44.8243 132.703C44.3857 134.094 43.9162 135.472 43.4247 136.849C34.102 137.235 24.7616 136.862 15.4301 137.029C15.4827 137.687 15.5046 138.358 15.6187 139.017C15.9784 139.556 16.6805 139.49 17.2332 139.547C25.468 139.635 33.7071 139.372 41.9375 139.613C41.4374 140.991 40.7925 142.307 40.016 143.553C32.2946 143.645 24.5731 143.483 16.8517 143.57C17.2509 144.505 17.1412 146.33 18.5757 146.19C25.0425 146.334 31.5136 145.988 37.9803 146.238C37.2258 147.752 36.243 149.133 35.12 150.397C31.5838 150.752 27.8943 149.928 24.4678 151.029C25.4023 151.625 26.2754 152.301 27.1397 152.99C28.9955 153.091 30.8469 153.218 32.6982 153.354C32.2463 154.082 31.7901 154.815 31.3338 155.543C33.1239 156.328 35.1112 157.127 36.1422 158.904C38.0682 162.102 36.6949 166.134 38.3533 169.411C39.3097 171.258 41.6569 171.096 43.4161 171.368C45.1666 171.495 47.1496 172.122 47.8867 173.881C49.1238 176.799 47.4699 179.953 48.0753 182.937C49.0712 185.165 51.2254 186.951 51.0981 189.601C51.5895 193.391 48.5448 196.304 48.2859 199.955C50.8218 206.562 51.8965 213.612 53.0372 220.565C54.3357 228.498 54.6912 236.535 55.2044 244.542C55.6695 238.088 55.3756 231.612 55.5466 225.146C55.6081 213.45 55.9765 201.753 56.6698 190.079C57.012 185.727 57.0251 181.326 58.0035 177.053C57.8675 175.491 57.7886 173.794 56.6873 172.565C54.1735 169.393 50.1679 167.055 49.3344 162.812C48.7114 160.079 50.8085 157.868 51.3218 155.337C51.471 153.367 50.2074 151.691 49.4485 149.971C48.2903 147.672 47.6191 144.746 49.023 142.408C50.6287 140.069 53.7128 139.161 55.0247 136.564C56.4636 133.984 55.4941 130.988 55.5028 128.215C55.4019 124.547 57.7051 121.384 60.1094 118.835C61.3729 117.462 63.4831 116.321 65.2686 117.431C68.5195 119.414 69.1381 123.49 71.3055 126.355C72.7532 128.281 74.4466 130.444 74.0167 133.023C73.7185 136.84 69.8095 139.249 69.7612 143.114C69.7173 146.637 74.2887 147.944 74.2712 151.467C74.3809 154.521 71.6521 156.385 69.8489 158.438C67.7079 160.649 69.2216 164.146 67.4842 166.559C65.6064 169.367 62.4916 170.933 60.1839 173.324C58.9731 174.544 58.6923 176.307 58.3018 177.909C58.3764 181.234 57.8719 184.533 57.6745 187.845C56.4066 206.982 56.4374 226.172 56.2048 245.344C56.2179 248.02 55.8318 250.718 56.3451 253.377C56.8146 245.125 57.3059 236.833 59.0081 228.725C59.6443 226.501 57.9551 224.623 57.6349 222.518C57.4638 221.057 58.6659 220.012 59.6706 219.175C61.3465 217.591 61.987 215.178 61.8553 212.936C61.6229 209.852 59.3326 207.281 59.4292 204.148C59.4731 201.784 61.6754 200.38 62.5135 198.344C63.0531 195.646 61.0833 192.908 62.2063 190.259C63.2637 188.012 66.2294 187.946 67.6946 186.117C68.7914 184.077 67.8306 181.532 68.945 179.497C70.0901 177.72 72.4548 177.505 73.9158 176.097C75.3591 174.416 75.6224 171.797 77.6844 170.648C79.1498 169.709 81.1591 170.323 82.0716 171.736C83.2562 173.504 83.401 175.711 83.6028 177.768C83.6992 179.457 83.8748 181.225 83.2825 182.849C82.2164 185.27 79.2814 186.341 78.5048 188.942C77.7063 192.22 80.8344 195.33 79.3208 198.577C78.4302 201.02 75.6969 201.709 73.8939 203.271C72.3891 205.048 72.6567 207.834 70.8271 209.409C68.7126 211.102 65.7117 211.343 63.8208 213.37C62.5968 214.625 62.2019 216.389 61.7676 218.029C65.9443 218.192 70.1296 218.24 74.3062 218.087C76.8771 218.205 76.5525 214.599 78.5662 213.682C80.479 212.923 82.7253 213.269 84.4977 212.116C86.0947 211.128 87.617 209.659 89.6395 209.804C91.3373 209.747 93.5046 210.514 93.7239 212.458C93.8949 214.485 92.5963 216.226 91.7628 217.977C113.172 218.008 134.586 217.696 155.996 217.705C158.527 217.591 161.3 217.358 163.511 218.837C164.893 219.635 165.634 221.109 166.314 222.487C166.056 219.938 166.832 217.42 166.622 214.884C165.832 210.971 164.573 207.167 163.704 203.275C163.156 201.499 165.656 200.367 164.972 198.564C164.814 197.019 163.296 196.348 162.186 195.558C160.795 194.659 159.607 193.479 158.668 192.123C155.886 188.131 153.908 183.665 151.631 179.387C150.573 177.307 149.797 174.662 151.06 172.499C151.718 171.218 153.298 171.192 154.522 170.915C154.544 170.477 154.561 170.042 154.579 169.608C139.811 169.318 125.031 169.529 110.259 169.481C107.666 169.389 104.543 169.99 102.494 167.989C100.757 166.326 101.029 163.72 100.989 161.536C101.112 153.051 100.976 144.561 101.051 136.077C100.976 133.826 102.327 131.409 104.644 130.922C107.223 130.465 109.856 130.795 112.453 130.746C129.423 130.724 146.392 130.799 163.362 130.729C164.911 130.72 166.609 130.966 167.679 132.198C168.886 133.286 169.114 134.976 169.114 136.511C169.122 143.355 168.982 150.204 169.193 157.043C172.483 158.074 174.856 160.632 177.243 162.97C178.151 161.636 178.954 160.07 180.455 159.316C181.174 158.969 182.31 158.816 182.758 159.64C183.276 161.027 183.205 162.536 183.372 163.988C183.793 169.213 185.767 174.241 185.605 179.523C185.539 182.712 184.613 185.806 183.495 188.771C183.021 190.087 182.424 191.61 183.205 192.939C183.684 194.058 185.149 193.808 186.11 194.132C187.873 197.818 188.996 201.757 190.365 205.596C191.014 207.562 192.958 208.566 194.309 209.988C196.959 212.44 198.367 215.836 199.64 219.135C200.899 222.193 201.798 225.391 203.163 228.41C204.847 223.242 205.948 217.907 207.484 212.69C209.875 204.473 211.823 196.102 214.938 188.113C217.131 182.708 219.588 177.08 224.151 173.228C228.85 169.205 234.259 166.081 239.848 163.466C240.748 162.979 241.897 162.483 242.108 161.365C242.16 160.386 241.717 159.474 241.463 158.552C238.528 159.447 235.501 160.465 232.381 160.079C228.253 159.719 224.629 157.306 221.848 154.358C217.452 149.717 214.775 143.803 212.367 137.963C210.327 137.463 208.107 136.985 206.593 135.401C204.527 133.287 203.856 130.321 202.934 127.614C202.504 126.258 201.702 124.99 201.653 123.543C202.952 121.924 205.119 121.389 207.019 120.809C207.673 118.375 206.216 116.199 204.874 114.316C203.088 111.754 202.329 108.679 201.776 105.652C198.644 105.059 195.59 103.515 193.857 100.747C189.396 93.8589 192.212 83.4526 199.504 79.6839C202.776 77.8589 206.62 77.8764 210.252 77.6614C214.806 77.4069 219.228 76.0688 223.339 74.1385C227.639 72.1204 232.228 70.4445 237.032 70.348C241.551 70.2383 246.333 70.8481 250.185 73.384C252.505 74.8844 254.098 77.2184 255.322 79.6445C257.858 79.763 260.56 79.9472 262.688 81.4915C267.273 84.6459 269.409 90.3361 269.668 95.7279C269.9 101.453 269.519 107.205 268.615 112.86C268.045 115.668 269.707 118.37 269.155 121.187C268.619 124.267 267.29 127.136 266.671 130.203C266.193 132.686 264.197 135.112 265.456 137.674C267.338 140.236 268.624 143.162 270.172 145.922C271.897 146.032 273.836 145.86 275.253 147.041C278.021 149.221 280.561 151.674 283.106 154.108C284.72 155.705 287.024 156.148 289.094 156.877C296.088 159.272 302.958 162.062 309.556 165.41C313.057 167.174 316.369 169.306 319.366 171.833C325.398 171.447 331.448 171.613 337.489 171.67C337.494 171.991 337.494 172.631 337.498 172.952C332.001 173.289 326.469 172.649 320.998 173.403C322.454 175.092 323.744 176.918 325.03 178.734C327.285 178.536 329.553 178.515 331.812 178.607C335.756 178.756 339.705 178.571 343.653 178.664C343.653 178.993 343.653 179.646 343.653 179.975C337.796 180.094 331.909 179.559 326.078 180.313C330.027 186.425 332.076 193.462 334.23 200.341C335.445 204.25 336.314 208.255 337.292 212.23C347.369 212.515 357.486 213.09 367.392 215.055C374.947 216.762 382.511 218.828 389.399 222.452C392.597 224.172 395.716 226.418 397.445 229.7C399.033 232.591 399.335 235.969 399.261 239.211C399.059 249.074 397.05 258.783 394.733 268.333C391.833 280.104 389.271 291.958 386.244 303.699C387.394 303.725 388.543 303.747 389.692 303.756C389.512 303.576 389.157 303.216 388.982 303.036C397.326 294.02 404.425 283.798 409.54 272.607C416.055 258.537 419.477 242.953 418.946 227.436C418.315 208.562 411.194 189.969 398.923 175.601C396.08 172.074 392.421 169.284 389.793 165.581C390.065 165.002 390.333 164.427 390.605 163.857C389.403 163.655 387.885 163.975 386.999 162.931C386.139 162.032 385.512 160.944 384.849 159.895C387.459 159.689 390.079 159.729 392.698 159.676C393.246 158.439 393.737 157.175 394.15 155.885C389.938 155.71 385.718 155.837 381.506 155.728C380.576 154.539 379.756 153.262 379.093 151.906C384.516 151.617 389.951 151.959 395.378 151.783C395.703 150.533 395.997 149.278 396.26 148.015C389.728 147.817 383.191 148.212 376.663 147.888C376.075 146.65 375.566 145.378 375.167 144.075C382.362 143.733 389.565 143.996 396.765 143.948C396.769 142.68 396.756 141.412 396.725 140.144C389.561 140.113 382.392 140.214 375.223 140.052C374.548 139.934 373.574 140.188 373.254 139.385C372.771 138.385 372.74 137.253 372.561 136.178C380.633 136.086 388.705 136.099 396.773 136.073C396.756 134.915 396.738 133.761 396.73 132.607C388.977 132.515 381.221 132.484 373.464 132.567C372.846 132.524 372.17 132.589 371.6 132.291C371.108 131.124 371.165 129.821 371.038 128.584C374.039 128.211 377.057 128.632 380.071 128.549C385.349 128.54 390.627 128.593 395.905 128.527C395.769 127.276 395.584 126.026 395.352 124.789C387.192 124.64 379.027 124.824 370.867 124.675C370.876 123.389 370.893 122.104 370.915 120.819C378.659 120.608 386.411 120.805 394.154 120.691C393.742 119.511 393.277 118.349 392.772 117.208C385.626 116.975 378.435 117.642 371.328 116.738C371.455 115.475 371.626 114.216 371.832 112.965C378.123 112.768 384.419 113.022 390.706 112.816C390.175 111.619 389.521 110.482 388.767 109.412C383.362 109.254 377.952 109.517 372.552 109.315C372.797 107.999 373.126 106.705 373.526 105.433C377.658 105.376 381.795 105.639 385.924 105.349C385.064 104.029 384.266 102.524 382.831 101.743C380.041 101.607 377.211 102.015 374.438 101.414C374.697 100.269 374.974 99.1239 375.263 97.9875C376.584 97.9436 377.9 97.8734 379.22 97.8076C378.075 96.8425 376.97 95.8245 375.847 94.8375C381.234 67.3605 370.731 37.1326 348.892 19.4435C334.559 7.90078 316.435 1.06558 298.026 0.503927C283.948 0.008223 269.791 3.55738 257.515 10.4453C252.075 13.3935 246.951 17.0217 241.063 19.0661C233.232 21.9003 224.717 23.0936 216.433 21.9704C208.19 21.0886 200.324 18.101 193.037 14.2402C179.064 6.31638 163.323 1.50367 147.296 0.297173ZM193.586 60.2131C193.59 60.529 193.59 61.1651 193.59 61.4854C190.699 61.5556 187.803 61.5029 184.912 61.424C184.908 61.1344 184.903 60.5509 184.903 60.257C187.795 60.1035 190.695 60.064 193.586 60.2131ZM180.152 60.3447C179.801 60.6869 179.648 61.3757 179.077 61.4196C176.778 61.7047 174.458 61.5293 172.145 61.4898C172.145 61.1695 172.145 60.5378 172.145 60.2218C174.813 60.0991 177.493 60.0552 180.152 60.3447ZM167.311 60.1648C167.306 60.507 167.302 61.1914 167.302 61.5336C165.766 61.4765 163.889 61.9767 162.726 60.6605C164.183 60.0421 165.767 60.0727 167.311 60.1648ZM158.471 60.2043C158.471 60.5246 158.471 61.1607 158.471 61.481C157.19 61.4898 155.904 61.4898 154.619 61.4854C154.623 61.1651 154.623 60.5246 154.623 60.2043C155.908 60.1912 157.19 60.1912 158.471 60.2043ZM149.301 60.1956C149.297 60.5203 149.297 61.1738 149.293 61.4985C139.079 61.5073 128.857 61.6214 118.644 61.4546C118.639 61.1474 118.635 60.5332 118.635 60.2262C124.321 59.9717 130.015 60.1779 135.706 60.1385C140.237 60.1912 144.774 60.0332 149.301 60.1956ZM111.528 60.235C111.528 60.5421 111.528 61.1519 111.528 61.459C105.995 61.6037 100.459 61.5335 94.9265 61.4677C94.9222 61.1562 94.9178 60.5245 94.9178 60.2086C100.454 60.0991 105.995 60.0552 111.528 60.235ZM90.0699 60.6913C89.6751 61.8101 88.3852 61.4766 87.4595 61.5643C82.2036 61.4502 76.9521 61.6126 71.6963 61.4722C71.6963 61.1563 71.6919 60.529 71.6875 60.2131C76.645 60.0069 81.607 60.2131 86.5689 60.1033C87.7359 60.1868 89.1003 59.884 90.0699 60.6913ZM68.3358 61.0511C67.2784 61.3714 66.1904 61.6039 65.0761 61.5601C62.3166 61.5162 59.5526 61.5426 56.7887 61.4416C56.7887 61.1388 56.7931 60.5379 56.7931 60.2351C60 60.0947 63.2159 60.0596 66.423 60.1299C67.2083 60.0552 67.8224 60.5246 68.3358 61.0511ZM180.012 66.7852C180.016 67.1186 180.025 67.7855 180.025 68.1189C174.637 68.2287 169.237 68.2066 163.845 68.0312C163.849 67.7417 163.854 67.1669 163.854 66.8774C169.237 66.7105 174.629 66.7061 180.012 66.7852ZM160.243 66.8158C160.247 67.1317 160.256 67.7678 160.261 68.0881C156.9 68.246 153.535 68.2241 150.174 68.1013C150.179 67.7766 150.188 67.1228 150.192 66.7983C153.544 66.7325 156.891 66.75 160.243 66.8158ZM146.818 67.974C140.786 68.382 134.732 68.0838 128.686 68.1715C115.23 68.1583 101.779 68.1846 88.3238 68.1539C81.3964 68.075 74.4558 68.347 67.5373 68.0048C67.8357 67.1713 68.542 66.6579 69.4369 66.7896C94.6062 66.7544 119.776 66.7852 144.945 66.7677C145.879 66.5878 146.441 67.2151 146.818 67.974ZM142.707 72.971C142.716 73.2957 142.734 73.9405 142.738 74.2608C140.251 74.4187 137.759 74.3881 135.262 74.3661C125.773 74.3529 116.283 74.4538 106.794 74.4758C102.547 74.274 98.2872 74.8442 94.0535 74.2959C94.0404 73.9537 94.0052 73.2737 93.9921 72.9315C110.229 72.9491 126.47 72.835 142.707 72.971ZM179.744 81.1312C174.822 81.3988 169.869 81.4032 164.946 81.162C165.328 80.618 165.569 79.7537 166.403 79.916C169.623 79.8062 172.848 79.9949 176.068 79.8984C177.397 79.9599 179.183 79.5387 179.744 81.1312ZM162.445 79.8984C162.45 80.2494 162.463 80.9514 162.467 81.3024C161.397 81.2628 160.322 81.2322 159.247 81.1883C159.633 79.6352 161.191 79.9116 162.445 79.8984ZM154.535 79.9905C154.54 80.2977 154.544 80.9206 154.548 81.2277C147.393 81.4251 140.233 81.197 133.073 81.2935C128.563 81.2847 124.049 81.4295 119.539 81.1927C119.539 80.8944 119.543 80.2977 119.547 80.0037C124.053 79.78 128.563 79.9203 133.073 79.9028C140.229 79.9555 147.384 79.8107 154.535 79.9905ZM142.988 87.9709C143.146 88.0586 143.466 88.2429 143.624 88.3306C143.953 90.1294 140.246 90.1251 140.514 88.3306C141.251 87.8919 142.168 87.6463 142.988 87.9709ZM136.175 88.3525C136.311 88.8965 136.118 89.2739 135.587 89.4757C134.473 89.695 133.327 89.6161 132.196 89.6161C125.755 89.4801 119.315 89.6863 112.875 89.5546C112.879 88.9931 112.879 88.4315 112.875 87.8743C119.754 87.7559 126.642 87.9183 133.525 87.791C134.416 87.8568 135.486 87.6375 136.175 88.3525ZM108.084 88.335C108.22 89.5942 106.79 89.6467 105.89 89.6117C99.0199 89.4888 92.1451 89.6687 85.2704 89.5196C85.2441 89.1906 85.1914 88.5325 85.1695 88.2035C86.2049 87.9842 87.2535 87.7955 88.3151 87.813C93.8781 87.857 99.441 87.8701 105.004 87.8174C106.048 87.8481 107.162 87.7823 108.084 88.335ZM378.738 171.661C378.743 171.986 378.752 172.639 378.756 172.964C375.106 173.074 371.451 173.03 367.801 172.938C367.801 172.617 367.81 171.981 367.81 171.665C371.451 171.626 375.093 171.595 378.738 171.661ZM364.024 172.898C360.606 173.205 357.175 172.981 353.749 173.025C349.945 172.96 346.142 173.153 342.342 172.885C342.518 172.473 342.676 172.056 342.816 171.639C348.651 171.573 354.491 171.687 360.325 171.578C361.677 171.643 363.594 171.157 364.024 172.898ZM363.686 178.795C364.928 179.128 363.717 180.111 362.962 179.948C358.724 180.063 354.477 179.918 350.235 180.01C349.182 179.883 347.699 180.339 347.155 179.137C348.585 178.22 350.397 178.685 351.998 178.575C355.89 178.729 359.821 178.325 363.686 178.795Z" fill="#F0F0F0"/>
<path d="M250.184 73.383C246.332 70.8471 241.55 70.2373 237.031 70.347C232.227 70.4435 227.638 72.1194 223.339 74.1375C219.228 76.0679 214.806 77.4059 210.252 77.6604C206.619 77.8754 202.776 77.8578 199.503 79.6829C192.212 83.4515 189.395 93.8579 193.857 100.746C195.59 103.514 198.643 105.058 201.776 105.651C202.328 108.678 203.087 111.753 204.873 114.315C206.216 116.197 207.672 118.374 207.018 120.808L206.926 121.23C209.901 120.747 212.941 120.958 215.802 121.901C215.982 121.896 216.341 121.892 216.521 121.888C215.727 120.835 215.109 119.479 213.792 118.979C211.946 118.202 209.919 118.703 208.072 119.207C207.286 114.662 206.514 110.042 206.628 105.423C208.431 104.067 210.511 103.106 212.187 101.575C213.836 102.242 215.521 102.948 217.32 103.062C220.325 103.286 223.273 102.457 226.085 101.5C231.64 99.6226 236.781 96.7447 242.283 94.7354C241.261 98.833 241.204 103.308 243.13 107.164C244.367 110.205 246.955 112.319 249.469 114.28C246.986 115.706 244.376 116.891 241.84 118.216C241.923 118.352 242.094 118.619 242.182 118.755C247.644 116.61 252.65 113.407 258.213 111.512C256.291 114.021 253.277 115.193 250.654 116.785C250.82 116.886 251.149 117.084 251.316 117.185C252.163 117.816 252.843 118.676 253.782 119.181C254.563 119.128 255.326 118.962 256.094 118.826C256.396 116.474 256.774 113.772 258.906 112.328C261.569 110.415 265.377 111.889 266.987 114.495C269.176 117.996 268.619 122.678 266.557 126.113C265.324 128.232 263.192 129.565 261.043 130.605C262.231 133.334 263.736 135.896 265.215 138.472C265.272 138.274 265.395 137.875 265.456 137.673C264.197 135.111 266.193 132.685 266.671 130.202C267.29 127.135 268.619 124.266 269.154 121.186C269.707 118.369 268.044 115.667 268.615 112.859C269.518 107.204 269.9 101.452 269.668 95.727C269.409 90.3352 267.272 84.645 262.688 81.4906C260.56 79.9463 257.857 79.762 255.322 79.6436C254.097 77.2174 252.505 74.8835 250.184 73.383Z" fill="black"/>
<path d="M24.4665 151.027C22.4572 149.996 19.86 149.501 17.8069 150.69C16.4556 151.431 15.6879 152.988 15.78 154.515C15.8195 156.604 17.0128 158.402 17.5436 160.368C17.921 161.833 17.2804 163.285 17.0611 164.724C16.697 166.492 17.1752 168.405 18.3378 169.792C19.9215 171.608 22.0668 172.762 24.0762 174.03C25.0501 174.679 26.261 175.556 26.1075 176.886C25.7434 178.75 24.3921 180.268 24.0937 182.159C23.8656 183.831 24.7298 185.524 26.1294 186.432C28.5247 188.104 31.6704 187.937 34.1579 189.411C36.22 190.749 35.5398 193.877 37.4352 195.32C40.0675 196.615 43.2438 196.36 45.7664 197.957C46.9685 198.633 47.5827 199.923 48.1267 201.12C48.1663 200.831 48.2452 200.247 48.2846 199.953C48.5435 196.303 51.5882 193.39 51.0968 189.6C51.2241 186.95 49.07 185.164 48.0741 182.935C47.4686 179.952 49.1226 176.798 47.8854 173.88C47.1483 172.121 45.1654 171.494 43.4149 171.367C41.6556 171.095 39.3084 171.257 38.352 169.41C36.6938 166.133 38.0669 162.101 36.1409 158.902C35.1099 157.126 33.1224 156.327 31.3325 155.542C29.8146 154.91 28.4019 154.041 27.1384 152.988C26.2741 152.3 25.401 151.624 24.4665 151.027Z" fill="black"/>
<path d="M247.368 206.048C246.561 205.67 245.205 205.802 244.968 206.824C244.407 207.939 245.433 209.386 246.679 209.149C248.245 209.105 248.737 206.714 247.368 206.048Z" fill="black"/>
<path d="M9.25324 197.988C8.97686 196.576 8.04674 195.444 7.27466 194.272C5.64703 197.409 5.19511 200.959 4.37473 204.354C2.76461 213.071 1.89153 222.013 2.75584 230.862C4.61169 255.333 15.72 278.884 33.1679 296.104C34.0453 297.042 35.0763 297.828 36.217 298.42C35.3791 290.291 34.2515 282.196 33.3391 274.08C32.5406 273.961 31.7377 273.847 30.9305 273.733C30.6278 269.697 30.5356 265.643 30.4435 261.598C37.1296 261.497 43.82 261.655 50.5062 261.506C49.7998 256.768 48.7776 252.065 47.1939 247.537C46.6147 246.664 45.9962 245.519 44.8117 245.458C41.6704 245.151 38.4152 246.304 35.3486 245.216C33.098 244.396 32.9137 241.509 31.0403 240.276C28.6844 239.412 26.0081 240.961 23.7093 239.767C22.0641 238.649 21.5991 236.258 19.5722 235.608C17.6594 234.814 15.1411 233.994 14.7902 231.616C14.3339 229.488 16.317 227.812 18.2253 227.461C20.6602 226.808 22.8539 229.05 25.2712 228.282C26.7277 227.983 28.1931 227.194 29.6978 227.584C31.8651 228.361 32.6022 230.905 34.5413 231.998C36.7919 232.502 39.4989 231.291 41.3941 233.064C45.3645 236.495 45.6715 242.018 47.5888 246.563C49.664 251.301 50.5896 256.412 51.4451 261.48C52.0857 261.51 52.7218 261.537 53.3535 261.567C53.3579 257.588 52.8578 253.635 52.3313 249.7C51.3398 242.707 49.7253 235.775 47.1017 229.207C46.2374 227.251 45.439 224.996 43.4734 223.881C41.3501 222.71 38.845 223.285 36.5373 223.118C34.1551 223.065 31.8035 221.736 30.6891 219.604C29.9125 218.371 29.5616 216.757 28.3113 215.901C26.9996 215.506 25.6 215.704 24.2444 215.607C21.3971 215.682 18.7604 213.488 18.1594 210.733C17.7295 209.061 17.9663 207.17 17.0012 205.67C15.3517 203.669 12.3068 203.88 10.5344 202.046C9.63046 200.897 9.62608 199.348 9.25324 197.988Z" fill="#F0F0F0"/>
<path d="M375.76 315.482C270.428 315.442 165.091 315.464 59.7589 315.469C62.2948 317.592 65.4447 318.733 68.4148 320.106C81.3833 325.875 95.4662 329.113 109.637 329.788C115.608 330.284 121.588 329.771 127.545 329.35C141.132 328.064 154.487 324.949 167.548 321.067C174.901 319.093 182.464 317.645 190.107 317.719C194.345 317.763 198.609 317.636 202.821 318.228C211.529 319.386 220.001 321.791 228.459 324.09C243.801 328.45 259.029 333.285 274.613 336.729C291.986 340.528 310.158 341.651 327.685 338.181C343.154 335.031 357.93 328.556 370.824 319.461C372.562 318.25 374.461 317.197 375.76 315.482Z" fill="#F0F0F0"/>
<path d="M402.736 314.543C402.692 311.178 402.771 307.813 402.561 304.453C360.698 304.562 318.836 304.492 276.973 304.518C260.596 304.382 244.214 304.689 227.836 304.431C219.352 304.698 210.889 305.413 202.413 305.826C196.415 306.093 190.414 306.651 184.408 306.313C155.158 305.747 125.913 304.891 96.6593 304.483C79.4044 304.606 62.1453 304.466 44.8904 304.519C33.339 304.558 21.7874 304.404 10.2359 304.562C10.1614 307.923 10.1306 311.292 10.293 314.653C10.6002 314.636 11.2144 314.596 11.5214 314.578C141.922 314.587 272.331 314.635 402.736 314.543Z" fill="#E3EFDF"/>
</svg>
