<svg width="493" height="439" viewBox="0 0 493 439" fill="none" xmlns="http://www.w3.org/2000/svg">
<path d="M181.8 168.14C181.413 159.052 179.378 149.944 175.588 141.32L188.723 131.931L170.71 106.736L157.575 116.125C150.641 109.762 142.695 104.906 134.21 101.579L136.838 85.6442L106.281 80.562L103.644 96.5078L76.8343 102.71L67.4347 89.5845L42.2295 107.609L51.6182 120.744C45.2551 127.667 40.3881 135.613 37.0722 144.108L21.1373 141.449L16.0664 172.005L32.0012 174.664C32.3996 183.773 34.4237 192.871 38.2138 201.484L25.0783 210.873L43.091 236.068L56.2269 226.679C63.1715 233.053 71.1174 237.919 79.602 241.225L76.9639 257.171L107.52 262.242L110.158 246.307C119.267 245.909 128.354 243.874 136.978 240.094L146.367 253.23L171.583 235.206L162.183 222.071C168.546 215.137 173.413 207.191 176.729 198.696L192.664 201.355L197.735 170.799L181.8 168.14ZM131.121 200.031C113.398 214.954 86.7074 210.529 74.7347 190.675C65.3245 175.063 68.7375 154.509 82.6914 142.773C100.435 127.861 127.126 132.296 139.077 152.151C148.477 167.763 145.064 188.295 131.121 200.031Z" fill="#E6F3FC"/>
<path d="M380.267 192.819L350.683 227.581L345.271 233.931L313.984 206.766L330.537 183.967L350.683 163.082H350.694C352.044 161.474 354.24 160.781 356.212 161.451C359.699 162.613 360.873 166.569 359.158 169.293L362.058 165.853L362.07 165.83C363.502 164.151 365.85 163.482 367.893 164.315C371.45 165.736 372.272 169.962 370.041 172.603L366.625 176.606C368.492 174.423 371.638 174.341 373.986 176.031C378.224 179.095 374.326 183.674 372.46 185.869C374.538 183.415 378.4 183.368 380.537 186.01C382.122 187.982 381.91 190.894 380.267 192.819Z" fill="white"/>
<path d="M345.271 234.812C345.06 234.812 344.855 234.736 344.694 234.597L313.408 207.431C313.064 207.131 313.005 206.618 313.274 206.249L329.826 183.45C329.849 183.417 329.876 183.386 329.904 183.356L350.05 162.471C350.067 162.454 350.084 162.437 350.103 162.421C351.71 160.584 354.266 159.86 356.497 160.617C358.358 161.238 359.802 162.635 360.452 164.45C360.632 164.953 360.744 165.472 360.791 165.993L361.343 165.338C361.362 165.309 361.383 165.281 361.402 165.259C363.122 163.241 365.87 162.537 368.227 163.5C370.128 164.259 371.497 165.801 371.979 167.727C372.456 169.635 371.983 171.67 370.716 173.172L370.029 173.978C371.526 173.872 373.105 174.31 374.503 175.317C375.821 176.27 376.573 177.447 376.738 178.815C376.92 180.33 376.336 181.862 375.538 183.214C375.857 183.167 376.189 183.147 376.507 183.149C378.335 183.17 380.054 184.011 381.223 185.456C383.018 187.689 382.895 191.099 380.939 193.39L345.942 234.503C345.79 234.682 345.572 234.792 345.338 234.81C345.315 234.812 345.293 234.812 345.271 234.812ZM315.172 206.63L345.177 232.685L379.597 192.249C379.597 192.248 379.598 192.248 379.598 192.247C381.015 190.589 381.123 188.145 379.851 186.562C379.015 185.528 377.788 184.925 376.486 184.909C376.469 184.909 376.452 184.909 376.435 184.909C375.165 184.909 373.968 185.459 373.144 186.424C373.141 186.428 373.139 186.431 373.135 186.434C373.135 186.435 373.133 186.434 373.132 186.438C372.817 186.804 372.262 186.851 371.893 186.538C371.522 186.223 371.474 185.671 371.788 185.3C371.793 185.294 371.798 185.288 371.803 185.282C373.02 183.851 375.251 181.216 374.988 179.025C374.882 178.153 374.386 177.407 373.471 176.745C371.39 175.246 368.792 175.428 367.296 177.177L367.295 177.178C366.978 177.549 366.422 177.59 366.053 177.276C365.684 176.96 365.64 176.405 365.956 176.035L369.372 172.032C370.272 170.965 370.61 169.514 370.269 168.154C369.926 166.783 368.942 165.682 367.567 165.133C365.925 164.463 364.012 164.952 362.785 166.35C362.768 166.376 362.75 166.4 362.732 166.42L359.832 169.86C359.534 170.214 359.012 170.276 358.639 170.003C358.266 169.73 358.167 169.215 358.413 168.823C359.105 167.724 359.247 166.311 358.793 165.043C358.319 163.722 357.305 162.742 355.934 162.285C354.34 161.744 352.507 162.292 351.368 163.648C351.329 163.695 351.286 163.737 351.239 163.774L331.214 184.534L315.172 206.63Z" fill="#030047"/>
<path d="M358.291 187.284C358.089 187.284 357.886 187.215 357.72 187.074C357.35 186.759 357.305 186.203 357.62 185.833L365.958 176.038C366.275 175.668 366.83 175.624 367.2 175.939C367.57 176.254 367.615 176.809 367.3 177.179L358.962 186.974C358.787 187.179 358.54 187.284 358.291 187.284Z" fill="#030047"/>
<path d="M350.348 180.521C350.146 180.521 349.943 180.452 349.777 180.311C349.406 179.996 349.362 179.44 349.677 179.07L358.489 168.72C358.805 168.35 359.359 168.306 359.73 168.621C360.101 168.936 360.145 169.492 359.83 169.862L351.019 180.212C350.844 180.416 350.597 180.521 350.348 180.521Z" fill="#030047"/>
<path d="M366.244 194.054C366.042 194.054 365.84 193.985 365.673 193.844C365.303 193.528 365.258 192.973 365.573 192.603L373.898 182.825C374.214 182.454 374.769 182.41 375.139 182.725C375.51 183.04 375.554 183.596 375.239 183.966L366.915 193.744C366.74 193.949 366.493 194.054 366.244 194.054Z" fill="#030047"/>
<path d="M461.937 438.184H27.5661C27.0801 438.184 26.6855 437.79 26.6855 437.304C26.6855 436.818 27.0797 436.423 27.5661 436.423H461.937C462.424 436.423 462.818 436.818 462.818 437.304C462.818 437.79 462.424 438.184 461.937 438.184Z" fill="#030047"/>
<path d="M254.078 437.545L245.053 382.528H120V437.545H254.078Z" fill="#030047"/>
<path d="M351.728 237.645L304.996 296.996C298.601 307.778 287.557 314.974 275.112 316.469L273.9 316.615C262.741 317.956 251.528 314.582 242.962 307.304L189.467 261.852L187.291 224.299L208.577 219.722C208.634 219.71 208.691 219.698 208.748 219.686C216.516 218.054 224.608 220.063 230.954 224.832L267.213 252.083L306.814 201.541L351.728 237.645Z" fill="#605EFD"/>
<path d="M310.931 289.515C310.738 289.515 310.544 289.452 310.381 289.322C310.002 289.018 309.94 288.464 310.244 288.084L350.49 237.781L306.964 202.791L259.477 264.693C259.183 265.079 258.629 265.153 258.244 264.856C257.857 264.56 257.784 264.007 258.081 263.621L306.115 201.004C306.259 200.816 306.473 200.694 306.708 200.666C306.952 200.638 307.18 200.706 307.365 200.854L352.277 236.958C352.656 237.263 352.716 237.816 352.414 238.194L311.619 289.184C311.445 289.402 311.19 289.515 310.931 289.515Z" fill="#030047"/>
<g opacity="0.4">
<path d="M249.907 287.661C249.767 287.661 249.626 287.65 249.485 287.628C248.471 287.466 247.55 286.768 246.958 285.714C246.565 285.016 246.361 284.281 246.164 283.57L246.061 283.202C245.86 282.499 245.679 282.432 245.658 282.427C245.607 282.414 245.459 282.439 245.27 282.568C245.096 282.687 244.944 282.836 244.792 282.982C244.685 283.083 244.579 283.183 244.468 283.28C243.669 283.978 242.698 284.402 241.734 284.474C240.605 284.557 239.512 284.151 238.803 283.387C237.865 282.378 237.755 281.004 237.754 280.059C237.752 278.241 238.136 276.391 238.866 274.711C239.06 274.264 239.577 274.06 240.024 274.253C240.47 274.447 240.674 274.966 240.48 275.412C239.846 276.872 239.513 278.479 239.515 280.057C239.516 281.074 239.705 281.771 240.092 282.188C240.438 282.559 241.018 282.763 241.604 282.717C242.191 282.674 242.796 282.402 243.311 281.954C243.402 281.874 243.49 281.79 243.578 281.706C243.799 281.495 244.024 281.287 244.277 281.114C244.871 280.707 245.523 280.568 246.113 280.726C247.275 281.036 247.635 282.302 247.755 282.718L247.861 283.099C248.038 283.737 248.206 284.34 248.493 284.852C248.816 285.426 249.291 285.814 249.763 285.89C250.171 285.954 250.65 285.704 250.71 285.404C250.804 284.927 251.266 284.616 251.744 284.709C252.221 284.803 252.532 285.265 252.439 285.743C252.22 286.853 251.112 287.661 249.907 287.661Z" fill="white"/>
</g>
<g opacity="0.4">
<path d="M301.413 278.092C300.014 278.092 298.604 277.872 297.27 277.443C296.808 277.293 296.554 276.797 296.703 276.334C296.852 275.872 297.345 275.617 297.811 275.766C299.327 276.255 300.959 276.431 302.529 276.276C303.555 276.175 304.211 275.926 304.593 275.495C304.927 275.117 305.074 274.52 304.973 273.939C304.873 273.36 304.545 272.783 304.047 272.314C303.959 272.231 303.866 272.152 303.774 272.072C303.542 271.872 303.313 271.67 303.117 271.435C302.654 270.881 302.453 270.245 302.553 269.644C302.748 268.461 303.973 267.977 304.376 267.818L304.738 267.677C305.358 267.438 305.944 267.212 306.429 266.874C306.968 266.497 307.308 265.987 307.337 265.509C307.362 265.104 307.067 264.644 306.763 264.615C306.279 264.569 305.923 264.139 305.97 263.655C306.018 263.17 306.457 262.815 306.93 262.862C308.189 262.983 309.179 264.244 309.096 265.618C309.032 266.641 308.427 267.626 307.437 268.318C306.776 268.779 306.062 269.054 305.371 269.32L305.022 269.456C304.342 269.724 304.294 269.91 304.291 269.931C304.282 269.985 304.322 270.131 304.467 270.305C304.603 270.466 304.764 270.601 304.925 270.738C305.036 270.835 305.147 270.932 305.255 271.033C306.027 271.761 306.544 272.687 306.708 273.639C306.9 274.751 306.602 275.881 305.91 276.662C304.999 277.692 303.642 277.936 302.701 278.029C302.275 278.071 301.845 278.092 301.413 278.092Z" fill="white"/>
</g>
<g opacity="0.4">
<path d="M327.735 252.586C327.445 252.586 327.151 252.54 326.865 252.442C325.894 252.111 325.104 251.267 324.698 250.127C324.429 249.368 324.352 248.603 324.278 247.863L324.24 247.497C324.162 246.787 324.006 246.681 323.976 246.667C323.928 246.645 323.777 246.644 323.569 246.739C323.376 246.828 323.203 246.948 323.028 247.065C322.905 247.147 322.783 247.229 322.656 247.306C321.753 247.858 320.726 248.113 319.76 248.019C318.637 247.91 317.626 247.324 317.054 246.45C316.301 245.298 316.426 243.925 316.585 242.994C316.89 241.203 317.583 239.445 318.586 237.911C318.853 237.504 319.399 237.39 319.805 237.656C320.212 237.922 320.326 238.468 320.06 238.875C319.188 240.209 318.586 241.735 318.321 243.29C318.148 244.306 318.214 245.005 318.529 245.487C318.805 245.91 319.343 246.209 319.93 246.266C320.517 246.322 321.157 246.157 321.74 245.802C321.846 245.738 321.947 245.67 322.047 245.602C322.302 245.432 322.558 245.265 322.836 245.138C323.491 244.838 324.157 244.812 324.709 245.066C325.8 245.566 325.943 246.876 325.99 247.306L326.03 247.687C326.097 248.351 326.159 248.978 326.358 249.536C326.578 250.157 326.98 250.62 327.433 250.775C327.814 250.904 328.339 250.743 328.448 250.456C328.621 250.001 329.129 249.773 329.584 249.946C330.039 250.119 330.267 250.628 330.094 251.082C329.744 252.005 328.766 252.586 327.735 252.586Z" fill="white"/>
</g>
<g opacity="0.4">
<path d="M274.319 301.133C272.92 301.133 271.51 300.914 270.177 300.484C269.715 300.335 269.46 299.839 269.609 299.376C269.758 298.914 270.249 298.659 270.718 298.808C272.233 299.297 273.867 299.472 275.435 299.318C276.462 299.217 277.119 298.968 277.499 298.538C277.834 298.158 277.981 297.561 277.88 296.981C277.78 296.402 277.451 295.825 276.954 295.356C276.865 295.273 276.774 295.194 276.682 295.114C276.45 294.914 276.221 294.711 276.025 294.476C275.562 293.924 275.361 293.288 275.46 292.688C275.655 291.502 276.88 291.018 277.283 290.86L277.647 290.718C278.267 290.48 278.852 290.254 279.335 289.917C279.876 289.539 280.216 289.029 280.245 288.551C280.27 288.146 279.975 287.687 279.671 287.657C279.186 287.611 278.831 287.181 278.878 286.697C278.925 286.212 279.35 285.857 279.838 285.905C281.097 286.025 282.087 287.287 282.004 288.66C281.94 289.683 281.335 290.668 280.343 291.36C279.685 291.82 278.971 292.096 278.279 292.362L277.929 292.498C277.25 292.765 277.201 292.952 277.197 292.973C277.188 293.025 277.23 293.173 277.375 293.347C277.51 293.509 277.673 293.644 277.834 293.783C277.944 293.878 278.055 293.974 278.162 294.075C278.934 294.804 279.451 295.73 279.615 296.682C279.807 297.793 279.508 298.923 278.817 299.705C277.907 300.735 276.549 300.978 275.608 301.071C275.181 301.112 274.751 301.133 274.319 301.133Z" fill="white"/>
</g>
<g opacity="0.4">
<path d="M280.896 271.396C279.975 271.396 279.074 270.843 278.617 270.091C278.083 269.213 278.018 268.06 278.438 266.926C278.715 266.173 279.144 265.54 279.56 264.928L279.771 264.614C280.176 264.006 280.109 263.824 280.1 263.806C280.078 263.76 279.96 263.661 279.741 263.601C279.539 263.546 279.326 263.527 279.117 263.505C278.971 263.489 278.825 263.474 278.681 263.452C277.631 263.295 276.678 262.83 275.998 262.142C275.206 261.337 274.806 260.239 274.928 259.204C275.09 257.836 276.065 256.862 276.785 256.249C278.168 255.071 279.825 254.165 281.578 253.631C282.047 253.489 282.536 253.752 282.678 254.217C282.819 254.682 282.556 255.174 282.092 255.316C280.567 255.78 279.127 256.567 277.926 257.59C277.153 258.25 276.743 258.845 276.677 259.41C276.617 259.912 276.838 260.485 277.253 260.905C277.665 261.323 278.265 261.609 278.94 261.71C279.06 261.728 279.181 261.741 279.301 261.753C279.606 261.785 279.91 261.822 280.206 261.902C280.901 262.093 281.428 262.499 281.69 263.047C282.207 264.134 281.475 265.23 281.236 265.59L281.017 265.915C280.645 266.465 280.293 266.983 280.089 267.535C279.86 268.154 279.873 268.767 280.12 269.176C280.333 269.524 280.841 269.732 281.104 269.582C281.531 269.343 282.066 269.495 282.304 269.918C282.541 270.342 282.391 270.879 281.966 271.117C281.624 271.31 281.258 271.396 280.896 271.396Z" fill="white"/>
</g>
<g opacity="0.4">
<path d="M305.241 248.395C305.065 248.395 304.889 248.343 304.735 248.234C304.338 247.954 304.242 247.405 304.522 247.008C305.439 245.706 306.092 244.201 306.41 242.654C306.618 241.643 306.575 240.943 306.277 240.452C306.014 240.019 305.488 239.702 304.903 239.626C304.321 239.548 303.672 239.692 303.077 240.028C302.972 240.087 302.868 240.151 302.765 240.215C302.505 240.377 302.244 240.535 301.962 240.654C301.295 240.932 300.63 240.934 300.086 240.662C299.012 240.125 298.913 238.811 298.881 238.379L298.855 237.993C298.811 237.329 298.769 236.702 298.59 236.139C298.39 235.51 298.004 235.034 297.556 234.864C297.176 234.72 296.651 234.867 296.532 235.148C296.344 235.597 295.829 235.806 295.379 235.619C294.93 235.43 294.721 234.914 294.909 234.466C295.398 233.302 296.895 232.729 298.182 233.218C299.141 233.582 299.902 234.452 300.269 235.604C300.513 236.372 300.563 237.137 300.613 237.878L300.638 238.248C300.691 238.961 300.844 239.072 300.874 239.087C300.923 239.111 301.073 239.116 301.283 239.029C301.478 238.948 301.656 238.832 301.836 238.721C301.961 238.643 302.085 238.566 302.213 238.494C303.137 237.972 304.169 237.753 305.133 237.88C306.251 238.026 307.241 238.646 307.784 239.538C308.497 240.714 308.325 242.082 308.135 243.009C307.768 244.791 307.017 246.524 305.962 248.022C305.79 248.265 305.518 248.395 305.241 248.395Z" fill="white"/>
</g>
<path d="M113.994 397.33L250.84 385.487L208.698 232.748C206.663 226.259 200.142 222.275 193.439 223.425C193.439 223.425 158.345 228.254 146.991 231.399C135.717 234.522 110.359 248.34 110.359 248.34C104.829 250.488 101.333 255.976 101.723 261.895L113.994 397.33Z" fill="#605EFD"/>
<g opacity="0.4">
<path d="M186.608 297.25C186.517 297.25 186.424 297.236 186.332 297.206C185.009 296.769 184.488 295.216 184.831 294.04C185.12 293.055 185.928 292.229 187.049 291.773C187.794 291.47 188.552 291.36 189.286 291.254L189.656 291.199C190.377 291.089 190.466 290.917 190.473 290.898C190.494 290.848 190.487 290.697 190.384 290.496C190.286 290.305 190.158 290.136 190.032 289.966C189.946 289.848 189.86 289.731 189.778 289.61C189.187 288.728 188.889 287.712 188.938 286.747C188.998 285.619 189.539 284.583 190.386 283.975C191.505 283.171 192.883 283.236 193.82 283.354C195.623 283.581 197.409 284.194 198.984 285.13C199.403 285.378 199.54 285.918 199.291 286.337C199.045 286.754 198.504 286.893 198.085 286.644C196.716 285.832 195.165 285.298 193.599 285.101C192.577 284.973 191.881 285.069 191.413 285.405C191.003 285.7 190.728 286.25 190.697 286.839C190.667 287.426 190.859 288.062 191.24 288.629C191.307 288.728 191.379 288.825 191.45 288.922C191.632 289.17 191.811 289.419 191.951 289.693C192.28 290.334 192.335 290.999 192.104 291.563C191.653 292.675 190.35 292.874 189.922 292.94L189.538 292.997C188.879 293.092 188.258 293.182 187.711 293.404C187.101 293.653 186.655 294.075 186.521 294.534C186.408 294.923 186.595 295.437 186.885 295.533C187.347 295.686 187.597 296.184 187.444 296.645C187.323 297.016 186.977 297.25 186.608 297.25Z" fill="white"/>
</g>
<path d="M240.516 352.808C240.126 352.808 239.769 352.546 239.666 352.15L211.705 245.271C211.582 244.801 211.863 244.319 212.334 244.196C212.801 244.075 213.286 244.354 213.408 244.825L241.369 351.704C241.492 352.175 241.211 352.656 240.74 352.779C240.665 352.799 240.591 352.808 240.516 352.808Z" fill="#030047"/>
<path d="M166.034 191.904L169.374 226.231C169.374 226.231 191.942 243.482 171.196 252.736C141.486 265.989 134.632 237.213 134.632 237.213L129.432 193.283L166.034 191.904Z" fill="white"/>
<path d="M156.804 257.109C153.291 257.109 150.052 256.38 147.099 254.923C136.842 249.857 133.896 237.923 133.775 237.418L128.557 193.386C128.528 193.142 128.603 192.897 128.762 192.71C128.923 192.524 129.153 192.412 129.398 192.403L166 191.024C166.509 191.014 166.865 191.355 166.909 191.819L170.213 225.771C172.11 227.29 181.731 235.431 180.781 243.539C180.299 247.66 177.194 251.025 171.554 253.541C166.223 255.918 161.293 257.109 156.804 257.109ZM130.417 194.127L135.507 237.11C135.516 237.125 138.378 248.66 147.892 253.349C154.123 256.421 161.843 255.944 170.836 251.932C175.869 249.687 178.626 246.796 179.032 243.337C179.948 235.532 168.949 227.015 168.838 226.93C168.644 226.782 168.52 226.559 168.497 226.316L165.238 192.815L130.417 194.127Z" fill="#030047"/>
<path d="M145.817 145.282C146.555 150.748 152.521 154.454 159.142 153.559C165.763 152.665 170.532 147.509 169.794 142.043C169.056 136.577 158.583 125.326 151.962 126.22C145.341 127.114 145.078 139.816 145.817 145.282Z" fill="#030047"/>
<path d="M128.752 200.715C127.23 199.361 125.797 197.884 124.472 196.287C118.528 189.127 113.852 180.443 107.607 171.865L149.925 135.257C150.957 135.732 171.575 147.956 181.43 175.923C188.198 195.129 181.759 205.503 167.544 209.549C160.839 211.457 153.89 211.599 147.318 210.155" fill="white"/>
<path d="M156.232 212.001C153.179 212.001 150.124 211.673 147.129 211.015C146.655 210.91 146.354 210.441 146.459 209.965C146.563 209.49 147.031 209.191 147.508 209.295C154.045 210.732 160.891 210.527 167.304 208.702C174.121 206.762 178.81 203.399 181.237 198.707C184.113 193.145 183.899 185.578 180.6 176.215C171.417 150.161 153.198 138.232 150.03 136.33L108.794 172.003C111.245 175.415 113.46 178.835 115.606 182.149C118.76 187.018 121.74 191.618 125.149 195.726C126.431 197.271 127.84 198.728 129.337 200.057C129.701 200.38 129.734 200.937 129.411 201.3C129.086 201.664 128.53 201.697 128.168 201.374C126.605 199.985 125.133 198.464 123.794 196.851C120.318 192.662 117.312 188.02 114.128 183.106C111.857 179.599 109.508 175.973 106.895 172.383C106.626 172.013 106.685 171.499 107.031 171.2L149.349 134.591C149.61 134.365 149.978 134.313 150.292 134.457C150.501 134.553 171.956 146.39 182.26 175.63C185.727 185.469 185.909 193.506 182.8 199.516C180.14 204.657 175.089 208.317 167.785 210.396C164.031 211.465 160.133 212.001 156.232 212.001Z" fill="#030047"/>
<path d="M131.522 215.542L131.847 207.602L134.517 189.479C135.887 190.842 138.206 190.121 138.589 188.228C139.275 184.839 134.402 175.07 129.034 169.325C129.034 169.325 165.829 157.057 161.041 139.688C152.653 109.268 135.636 113.24 117.801 138.516C108.969 151.035 84.1137 163.627 102.732 182.904C97.3304 200.877 121.001 216.732 131.522 215.542Z" fill="#030047"/>
<path d="M139.19 203.409C139.19 203.409 135.101 207.706 128.262 208.266C121.422 208.826 112.665 191.139 117.209 187.366C121.753 183.593 134.518 189.481 134.518 189.481" fill="white"/>
<path d="M127.944 209.159C123.622 209.159 119.016 203.403 116.624 197.539C114.557 192.473 114.566 188.416 116.647 186.688C121.559 182.607 134.345 188.431 134.888 188.681C135.33 188.885 135.522 189.408 135.318 189.849C135.116 190.29 134.599 190.485 134.15 190.281C130.738 188.708 121.142 185.241 117.773 188.043C116.355 189.219 116.545 192.685 118.254 196.874C120.451 202.261 124.783 207.673 128.19 207.388C134.59 206.864 138.515 202.841 138.554 202.8C138.89 202.45 139.445 202.437 139.798 202.772C140.149 203.108 140.163 203.663 139.828 204.015C139.653 204.201 135.427 208.562 128.335 209.143C128.206 209.154 128.075 209.159 127.944 209.159Z" fill="#030047"/>
<path d="M130.977 193.669C129.743 192.594 128.285 191.778 126.724 191.289C125.745 190.983 124.703 190.805 123.692 190.974C122.68 191.144 121.7 191.702 121.195 192.595C120.481 193.859 120.844 195.449 121.376 196.8C122.347 199.264 124.214 201.618 126.984 202.23" fill="white"/>
<path d="M126.987 203.111C126.924 203.111 126.86 203.105 126.796 203.091C124.091 202.492 121.818 200.317 120.558 197.123C119.747 195.068 119.705 193.445 120.429 192.163C121.03 191.102 122.196 190.333 123.548 190.106C124.575 189.934 125.7 190.046 126.988 190.449C128.657 190.971 130.237 191.855 131.557 193.005C131.923 193.325 131.962 193.881 131.642 194.248C131.322 194.614 130.767 194.652 130.399 194.333C129.262 193.342 127.901 192.58 126.463 192.13C125.442 191.811 124.585 191.718 123.839 191.843C123.005 191.983 122.304 192.426 121.962 193.03C121.516 193.819 121.593 194.947 122.196 196.477C122.689 197.727 124.16 200.704 127.176 201.371C127.651 201.476 127.95 201.946 127.846 202.421C127.755 202.831 127.391 203.111 126.987 203.111Z" fill="#030047"/>
<path d="M155.826 177.067C156.586 178.688 156.321 180.415 155.234 180.925C154.147 181.435 152.649 180.534 151.889 178.913C151.129 177.293 151.394 175.566 152.481 175.056C153.568 174.546 155.065 175.446 155.826 177.067Z" fill="#030047"/>
<path d="M162.398 174.72C162.961 176.374 166.471 181.134 167.963 182.044C169.454 182.955 173.28 183.263 173.759 184.943C174.202 186.498 173.799 188.268 172.726 189.477" fill="white"/>
<path d="M172.724 190.358C172.516 190.358 172.308 190.285 172.139 190.136C171.776 189.814 171.743 189.257 172.065 188.893C172.94 187.907 173.272 186.452 172.91 185.185C172.733 184.562 171.039 184.053 169.917 183.716C168.997 183.439 168.127 183.178 167.503 182.796C165.834 181.777 162.179 176.815 161.563 175.004C161.406 174.543 161.653 174.043 162.113 173.887C162.573 173.729 163.073 173.976 163.23 174.437C163.721 175.879 167.114 180.496 168.42 181.294C168.851 181.557 169.652 181.797 170.426 182.03C172.177 182.556 174.162 183.154 174.604 184.702C175.126 186.533 174.647 188.637 173.383 190.062C173.209 190.258 172.967 190.358 172.724 190.358Z" fill="#030047"/>
<path d="M162.517 198.37C161.532 198.37 160.547 198.172 159.65 197.775C157.864 196.987 156.422 195.414 155.793 193.567C155.636 193.107 155.883 192.607 156.344 192.45C156.805 192.292 157.303 192.539 157.46 192.999C157.933 194.389 159.017 195.571 160.361 196.164C161.703 196.758 163.308 196.76 164.653 196.174C165.099 195.98 165.617 196.182 165.812 196.628C166.007 197.074 165.803 197.593 165.357 197.788C164.467 198.176 163.493 198.37 162.517 198.37Z" fill="#030047"/>
<path d="M148.52 175.329C148.393 175.329 148.263 175.301 148.141 175.242C147.703 175.032 147.517 174.506 147.727 174.068C149.005 171.402 151.135 170.217 154.387 170.344C154.873 170.363 155.252 170.772 155.233 171.258C155.216 171.744 154.792 172.115 154.32 172.104C151.108 171.978 150.028 173.341 149.316 174.828C149.165 175.144 148.849 175.329 148.52 175.329Z" fill="#030047"/>
<path d="M170.519 169.212C171.279 170.833 171.014 172.56 169.927 173.07C168.84 173.58 167.343 172.68 166.582 171.059C165.822 169.439 166.087 167.711 167.174 167.201C168.261 166.691 169.759 167.592 170.519 169.212Z" fill="#030047"/>
<path d="M163.217 167.474C163.048 167.474 162.877 167.425 162.726 167.323C162.322 167.051 162.217 166.503 162.489 166.1C164.081 163.748 166.283 162.533 169.037 162.489C169.517 162.487 169.923 162.87 169.931 163.356C169.939 163.842 169.55 164.242 169.064 164.25C166.889 164.285 165.215 165.213 163.947 167.087C163.778 167.339 163.501 167.474 163.217 167.474Z" fill="#030047"/>
<g opacity="0.4">
<path d="M168.532 286.874C168.336 286.874 168.138 286.853 167.942 286.809C166.941 286.583 166.065 285.828 165.54 284.739C165.19 284.014 165.033 283.263 164.88 282.537L164.804 282.173C164.65 281.476 164.483 281.387 164.45 281.376C164.398 281.359 164.248 281.377 164.055 281.491C163.872 281.601 163.71 281.741 163.547 281.877C163.436 281.97 163.325 282.063 163.21 282.151C162.367 282.799 161.372 283.16 160.404 283.171C160.391 283.171 160.377 283.171 160.362 283.171C159.249 283.171 158.199 282.698 157.546 281.9C156.675 280.836 156.652 279.458 156.711 278.514C156.824 276.699 157.323 274.878 158.156 273.247C158.378 272.814 158.906 272.641 159.34 272.863C159.774 273.084 159.946 273.614 159.724 274.047C159 275.465 158.567 277.047 158.469 278.623C158.405 279.638 158.549 280.345 158.909 280.785C159.226 281.172 159.78 281.41 160.363 281.41C160.37 281.41 160.378 281.41 160.386 281.41C160.973 281.403 161.595 281.171 162.137 280.755C162.232 280.682 162.323 280.605 162.415 280.528C162.651 280.33 162.89 280.135 163.154 279.978C163.771 279.609 164.43 279.513 165.009 279.706C166.148 280.087 166.43 281.374 166.523 281.797L166.603 282.175C166.74 282.827 166.869 283.442 167.126 283.974C167.411 284.568 167.862 284.985 168.328 285.091C168.723 285.181 169.226 284.962 169.303 284.666C169.425 284.195 169.914 283.916 170.377 284.037C170.848 284.16 171.129 284.641 171.006 285.112C170.735 286.155 169.672 286.874 168.532 286.874Z" fill="white"/>
</g>
<g opacity="0.4">
<path d="M185.347 272.612C185.331 272.612 185.315 272.611 185.3 272.611C184.036 272.544 182.992 271.326 183.018 269.95C183.036 268.926 183.598 267.916 184.56 267.181C185.198 266.693 185.899 266.388 186.578 266.092L186.923 265.941C187.59 265.644 187.63 265.456 187.633 265.436C187.639 265.382 187.592 265.237 187.44 265.069C187.296 264.913 187.128 264.785 186.963 264.654C186.848 264.563 186.733 264.472 186.622 264.376C185.819 263.681 185.263 262.778 185.058 261.834C184.818 260.732 185.067 259.59 185.725 258.779C186.592 257.711 187.936 257.41 188.873 257.276C190.672 257.02 192.558 257.142 194.323 257.628C194.792 257.758 195.067 258.242 194.938 258.711C194.81 259.179 194.325 259.456 193.856 259.326C192.319 258.902 190.683 258.797 189.12 259.019C188.099 259.165 187.455 259.441 187.091 259.889C186.772 260.282 186.653 260.883 186.778 261.46C186.903 262.034 187.256 262.596 187.773 263.043C187.865 263.122 187.96 263.197 188.056 263.273C188.296 263.463 188.533 263.656 188.74 263.882C189.227 264.416 189.454 265.042 189.381 265.646C189.238 266.838 188.034 267.374 187.638 267.55L187.281 267.706C186.672 267.971 186.097 268.222 185.628 268.58C185.104 268.98 184.787 269.505 184.779 269.983C184.77 270.389 185.086 270.835 185.391 270.851C185.877 270.877 186.25 271.291 186.224 271.777C186.2 272.247 185.811 272.612 185.347 272.612Z" fill="white"/>
</g>
<g opacity="0.4">
<path d="M197.255 248.091C197.059 248.091 196.861 248.069 196.665 248.025C195.664 247.799 194.788 247.045 194.263 245.955C193.913 245.23 193.756 244.479 193.604 243.753L193.527 243.389C193.373 242.692 193.206 242.603 193.174 242.592C193.122 242.576 192.97 242.593 192.776 242.708C192.595 242.816 192.435 242.955 192.273 243.092C192.16 243.186 192.049 243.278 191.933 243.367C191.088 244.015 190.092 244.376 189.127 244.387C187.963 244.394 186.93 243.924 186.27 243.117C185.4 242.052 185.375 240.675 185.433 239.731C185.545 237.916 186.046 236.095 186.88 234.463C187.101 234.031 187.628 233.857 188.064 234.079C188.497 234.3 188.669 234.831 188.448 235.264C187.723 236.683 187.289 238.265 187.191 239.839C187.127 240.869 187.268 241.556 187.633 242.001C187.948 242.388 188.504 242.626 189.086 242.626C189.093 242.626 189.1 242.626 189.108 242.626C189.695 242.62 190.318 242.387 190.861 241.971C190.956 241.898 191.048 241.82 191.141 241.743C191.375 241.545 191.612 241.352 191.876 241.195C192.497 240.825 193.154 240.729 193.733 240.922C194.872 241.304 195.154 242.59 195.246 243.013L195.327 243.392C195.464 244.043 195.593 244.659 195.85 245.19C196.135 245.784 196.586 246.202 197.052 246.307C197.45 246.396 197.95 246.178 198.027 245.882C198.15 245.411 198.638 245.132 199.101 245.253C199.572 245.376 199.853 245.858 199.73 246.328C199.458 247.372 198.395 248.091 197.255 248.091Z" fill="white"/>
</g>
<g opacity="0.4">
<path d="M223.495 328.771C223.301 328.771 223.11 328.751 222.925 328.709C221.924 328.483 221.048 327.729 220.523 326.64C220.174 325.915 220.017 325.165 219.864 324.439L219.788 324.074C219.634 323.377 219.467 323.287 219.434 323.277C219.385 323.26 219.233 323.277 219.039 323.392C218.855 323.502 218.694 323.641 218.531 323.778C218.42 323.871 218.308 323.964 218.194 324.052C217.351 324.699 216.355 325.061 215.388 325.071C214.258 325.06 213.189 324.609 212.53 323.801C211.659 322.736 211.636 321.358 211.696 320.414C211.808 318.599 212.307 316.778 213.14 315.147C213.361 314.715 213.893 314.542 214.324 314.763C214.758 314.985 214.93 315.515 214.709 315.948C213.984 317.366 213.551 318.947 213.453 320.524C213.389 321.539 213.533 322.246 213.893 322.686C214.214 323.077 214.729 323.301 215.37 323.31C215.957 323.304 216.579 323.072 217.121 322.656C217.216 322.583 217.308 322.506 217.399 322.428C217.635 322.231 217.874 322.036 218.139 321.879C218.756 321.51 219.415 321.413 219.994 321.607C221.132 321.988 221.414 323.275 221.507 323.698L221.587 324.077C221.725 324.728 221.853 325.343 222.11 325.875C222.395 326.469 222.846 326.886 223.312 326.991C223.705 327.079 224.209 326.863 224.287 326.567C224.411 326.095 224.898 325.817 225.361 325.938C225.833 326.061 226.113 326.542 225.991 327.013C225.693 328.154 224.56 328.771 223.495 328.771Z" fill="white"/>
</g>
<g opacity="0.4">
<path d="M191.507 335.245C190.564 335.245 189.6 334.667 189.143 333.73C188.693 332.806 188.736 331.652 189.257 330.561C189.602 329.839 190.087 329.251 190.555 328.681L190.799 328.383C191.259 327.815 191.21 327.629 191.203 327.609C191.184 327.559 191.077 327.452 190.865 327.372C190.666 327.297 190.458 327.259 190.25 327.218C190.107 327.189 189.964 327.16 189.821 327.125C188.79 326.871 187.885 326.319 187.273 325.571C186.56 324.698 186.263 323.568 186.48 322.547C186.766 321.201 187.828 320.322 188.602 319.778C190.089 318.732 191.823 317.985 193.618 317.616C194.104 317.518 194.56 317.825 194.657 318.301C194.756 318.777 194.449 319.243 193.973 319.341C192.412 319.661 190.905 320.31 189.615 321.218C188.77 321.812 188.322 322.35 188.201 322.913C188.097 323.409 188.263 324 188.637 324.456C189.009 324.911 189.579 325.252 190.241 325.415C190.359 325.444 190.479 325.467 190.597 325.491C190.897 325.552 191.196 325.616 191.484 325.723C192.16 325.978 192.648 326.432 192.856 327.003C193.27 328.131 192.441 329.155 192.168 329.491L191.916 329.8C191.495 330.311 191.099 330.793 190.847 331.322C190.562 331.917 190.516 332.529 190.726 332.959C190.904 333.323 191.381 333.578 191.668 333.454C192.108 333.258 192.632 333.455 192.83 333.9C193.027 334.345 192.828 334.865 192.383 335.063C192.104 335.186 191.807 335.245 191.507 335.245Z" fill="white"/>
</g>
<g opacity="0.4">
<path d="M148.023 329.618C147.931 329.618 147.837 329.603 147.746 329.573C146.251 329.077 145.668 327.314 146.06 325.98C146.394 324.848 147.329 323.898 148.626 323.372C149.503 323.016 150.405 322.887 151.276 322.761L151.725 322.696C152.546 322.57 152.789 322.371 152.848 322.225C152.904 322.086 152.86 321.837 152.734 321.591C152.613 321.355 152.454 321.144 152.298 320.932C152.195 320.791 152.092 320.651 151.995 320.506C151.305 319.477 150.959 318.292 151.019 317.168C151.089 315.866 151.714 314.671 152.69 313.97C153.985 313.042 155.595 313.121 156.696 313.26C158.84 313.532 160.965 314.265 162.841 315.38C163.259 315.628 163.397 316.169 163.148 316.587C162.901 317.005 162.36 317.142 161.942 316.894C160.272 315.901 158.381 315.249 156.473 315.007C155.195 314.845 154.318 314.971 153.715 315.402C153.177 315.788 152.817 316.501 152.777 317.262C152.737 318.008 152.979 318.812 153.458 319.526C153.541 319.65 153.629 319.77 153.717 319.89C153.919 320.164 154.128 320.449 154.302 320.789C154.673 321.514 154.735 322.261 154.479 322.89C153.972 324.135 152.532 324.354 151.989 324.437L151.528 324.504C150.725 324.62 149.966 324.729 149.287 325.004C148.503 325.322 147.928 325.873 147.75 326.477C147.585 327.037 147.863 327.756 148.301 327.901C148.762 328.054 149.013 328.553 148.859 329.014C148.736 329.384 148.392 329.618 148.023 329.618Z" fill="white"/>
</g>
<g opacity="0.4">
<path d="M126.556 309.115C125.908 309.115 125.296 308.996 124.803 308.875C122.891 308.409 121.046 307.529 119.468 306.33C119.08 306.036 119.004 305.484 119.298 305.097C119.592 304.71 120.145 304.633 120.531 304.928C121.92 305.982 123.541 306.755 125.221 307.165C126.332 307.436 127.11 307.414 127.676 307.099C128.177 306.82 128.557 306.239 128.668 305.583C128.776 304.937 128.643 304.209 128.294 303.534C128.233 303.415 128.166 303.299 128.099 303.183C127.937 302.898 127.777 302.613 127.661 302.306C127.393 301.59 127.415 300.889 127.721 300.328C128.326 299.22 129.726 299.167 130.186 299.149L130.609 299.135C131.337 299.114 132.024 299.093 132.649 298.918C133.364 298.719 133.916 298.301 134.129 297.799C134.316 297.35 134.162 296.731 133.82 296.573C133.379 296.369 133.187 295.846 133.391 295.405C133.597 294.962 134.121 294.773 134.561 294.976C135.895 295.594 136.254 297.289 135.751 298.483C135.325 299.491 134.368 300.267 133.123 300.614C132.291 300.846 131.463 300.871 130.662 300.895L130.252 300.909C129.476 300.938 129.304 301.103 129.266 301.173C129.223 301.252 129.218 301.445 129.309 301.685C129.391 301.903 129.51 302.104 129.627 302.307C129.706 302.446 129.786 302.584 129.858 302.725C130.381 303.736 130.576 304.855 130.404 305.875C130.203 307.064 129.505 308.097 128.534 308.638C127.892 308.995 127.205 309.115 126.556 309.115Z" fill="white"/>
</g>
<g opacity="0.4">
<path d="M134.365 340.435C134.33 340.435 134.294 340.433 134.258 340.428C133.776 340.37 133.432 339.932 133.489 339.449C133.698 337.716 133.547 335.926 133.052 334.273C132.725 333.177 132.313 332.514 131.756 332.186C131.26 331.895 130.568 331.86 129.947 332.097C129.333 332.33 128.773 332.812 128.366 333.455C128.295 333.566 128.229 333.681 128.164 333.797C128.015 334.055 127.847 334.348 127.623 334.623C127.145 335.214 126.528 335.55 125.889 335.568C125.87 335.568 125.85 335.569 125.832 335.569C124.602 335.569 123.869 334.418 123.626 334.035L123.396 333.67C123.01 333.056 122.647 332.477 122.181 332.026C121.651 331.51 121.009 331.246 120.471 331.316C119.987 331.379 119.532 331.825 119.567 332.2C119.615 332.684 119.26 333.114 118.777 333.161C118.302 333.206 117.861 332.854 117.816 332.37C117.672 330.904 118.955 329.739 120.241 329.57C121.328 329.426 122.478 329.862 123.407 330.761C124.025 331.36 124.464 332.059 124.887 332.734L125.111 333.088C125.528 333.743 125.745 333.818 125.839 333.807C125.927 333.805 126.094 333.711 126.257 333.512C126.406 333.329 126.518 333.124 126.635 332.92C126.713 332.783 126.792 332.646 126.877 332.513C127.486 331.55 128.354 330.818 129.32 330.451C130.446 330.022 131.69 330.104 132.65 330.669C133.914 331.414 134.447 332.794 134.739 333.768C135.302 335.651 135.474 337.688 135.238 339.659C135.185 340.106 134.804 340.435 134.365 340.435Z" fill="white"/>
</g>
<g opacity="0.4">
<path d="M191.073 378.258C190.13 378.258 189.165 377.681 188.709 376.743C188.259 375.82 188.302 374.665 188.823 373.575C189.172 372.85 189.658 372.259 190.128 371.687L190.367 371.396C190.816 370.84 190.78 370.654 190.769 370.622C190.751 370.572 190.643 370.465 190.431 370.385C190.233 370.311 190.024 370.273 189.816 370.231C189.673 370.202 189.53 370.173 189.388 370.138C188.357 369.885 187.451 369.333 186.839 368.585C186.126 367.711 185.829 366.581 186.046 365.561C186.333 364.215 187.394 363.336 188.168 362.791C189.655 361.746 191.39 360.998 193.184 360.629C193.669 360.531 194.126 360.838 194.224 361.314C194.322 361.791 194.015 362.256 193.539 362.354C191.979 362.675 190.471 363.324 189.181 364.232C188.337 364.826 187.888 365.364 187.768 365.927C187.664 366.422 187.83 367.014 188.204 367.471C188.575 367.925 189.145 368.265 189.809 368.429C189.927 368.458 190.046 368.481 190.164 368.505C190.465 368.565 190.764 368.629 191.051 368.737C191.727 368.991 192.214 369.445 192.423 370.017C192.836 371.143 192.009 372.167 191.736 372.504L191.489 372.807C191.067 373.32 190.668 373.805 190.412 374.336C190.129 374.93 190.083 375.542 190.293 375.973C190.471 376.337 190.953 376.593 191.234 376.467C191.676 376.271 192.2 376.469 192.397 376.914C192.594 377.359 192.393 377.879 191.95 378.076C191.67 378.2 191.373 378.258 191.073 378.258Z" fill="white"/>
</g>
<g opacity="0.4">
<path d="M215.876 367.07C214.159 367.07 212.416 366.728 210.815 366.077C210.364 365.894 210.147 365.38 210.331 364.929C210.513 364.478 211.031 364.263 211.477 364.446C212.955 365.047 214.576 365.34 216.144 365.306C217.175 365.281 217.848 365.083 218.26 364.681C218.623 364.328 218.813 363.744 218.757 363.157C218.7 362.573 218.416 361.973 217.954 361.468C217.872 361.379 217.786 361.293 217.702 361.208C217.485 360.99 217.272 360.771 217.093 360.522C216.672 359.934 216.52 359.285 216.664 358.693C216.946 357.528 218.204 357.137 218.617 357.008L218.993 356.894C219.628 356.702 220.227 356.521 220.735 356.221C221.302 355.885 221.679 355.401 221.743 354.928C221.799 354.525 221.538 354.044 221.237 353.992C220.757 353.91 220.435 353.455 220.518 352.975C220.602 352.496 221.051 352.174 221.535 352.257C222.782 352.472 223.677 353.804 223.488 355.167C223.35 356.182 222.673 357.119 221.633 357.736C220.942 358.145 220.209 358.366 219.502 358.58L219.14 358.69C218.458 358.902 218.383 359.077 218.375 359.11C218.363 359.162 218.392 359.311 218.524 359.495C218.648 359.667 218.801 359.815 218.95 359.965C219.053 360.068 219.156 360.172 219.255 360.279C219.971 361.065 220.417 362.027 220.51 362.987C220.619 364.111 220.237 365.217 219.489 365.944C218.504 366.903 217.133 367.043 216.187 367.066C216.083 367.069 215.979 367.07 215.876 367.07Z" fill="white"/>
</g>
<g opacity="0.4">
<path d="M172.419 364.832C171.858 364.832 171.299 364.797 170.745 364.727C170.263 364.667 169.921 364.226 169.982 363.744C170.042 363.261 170.473 362.922 170.965 362.98C172.545 363.179 174.181 363.049 175.696 362.605C176.686 362.315 177.285 361.95 177.578 361.455C177.838 361.02 177.871 360.407 177.665 359.854C177.458 359.304 177.028 358.798 176.452 358.431C176.35 358.364 176.245 358.304 176.139 358.243C175.876 358.089 175.613 357.933 175.377 357.739C174.819 357.281 174.504 356.694 174.489 356.085C174.461 354.885 175.575 354.182 175.941 353.951L176.271 353.746C176.836 353.396 177.371 353.065 177.783 352.643C178.244 352.173 178.484 351.608 178.424 351.133C178.374 350.73 177.998 350.334 177.694 350.361C177.213 350.403 176.781 350.049 176.736 349.565C176.693 349.08 177.049 348.652 177.533 348.608C178.791 348.493 179.999 349.548 180.171 350.914C180.298 351.933 179.887 353.012 179.042 353.876C178.479 354.45 177.828 354.853 177.197 355.243L176.88 355.441C176.263 355.83 176.249 356.023 176.25 356.043C176.252 356.097 176.318 356.234 176.493 356.377C176.657 356.511 176.842 356.614 177.024 356.72C177.151 356.794 177.277 356.868 177.401 356.947C178.294 357.518 178.974 358.332 179.313 359.237C179.709 360.296 179.625 361.463 179.09 362.358C178.387 363.539 177.099 364.029 176.191 364.295C174.978 364.651 173.697 364.832 172.419 364.832Z" fill="white"/>
</g>
<g opacity="0.4">
<path d="M151.58 378.817C151.214 378.817 150.841 378.744 150.491 378.59C149.552 378.178 148.836 377.27 148.528 376.1C148.324 375.326 148.313 374.562 148.301 373.824L148.294 373.442C148.278 372.712 148.119 372.601 148.101 372.591C148.056 372.566 147.903 372.553 147.689 372.629C147.489 372.701 147.307 372.806 147.121 372.909C146.994 372.98 146.866 373.05 146.735 373.116C145.783 373.59 144.737 373.755 143.786 373.58C142.678 373.378 141.719 372.708 141.224 371.789C140.572 370.578 140.812 369.22 141.05 368.305C141.506 366.544 142.345 364.852 143.474 363.409C143.775 363.027 144.326 362.958 144.711 363.26C145.094 363.559 145.161 364.113 144.862 364.496C143.879 365.749 143.15 367.219 142.753 368.747C142.495 369.745 142.501 370.447 142.774 370.953C143.015 371.399 143.524 371.742 144.104 371.848C144.684 371.954 145.339 371.845 145.948 371.54C146.056 371.486 146.161 371.428 146.268 371.369C146.537 371.22 146.806 371.075 147.095 370.971C147.774 370.728 148.439 370.759 148.968 371.058C150.015 371.652 150.045 372.968 150.055 373.401L150.062 373.797C150.072 374.459 150.081 375.084 150.232 375.652C150.399 376.29 150.761 376.785 151.199 376.978C151.57 377.141 152.104 377.023 152.237 376.747C152.447 376.309 152.968 376.124 153.412 376.335C153.85 376.546 154.035 377.072 153.824 377.51C153.429 378.331 152.526 378.817 151.58 378.817Z" fill="white"/>
</g>
<g opacity="0.4">
<path d="M228.751 238.528C228.555 238.528 228.357 238.507 228.161 238.462C227.16 238.236 226.284 237.482 225.759 236.393C225.409 235.668 225.252 234.917 225.099 234.192L225.023 233.828C224.869 233.129 224.702 233.041 224.669 233.03C224.617 233.013 224.465 233.031 224.272 233.146C224.092 233.253 223.931 233.393 223.77 233.528C223.657 233.622 223.545 233.716 223.429 233.805C222.585 234.452 221.589 234.814 220.623 234.825C220.609 234.825 220.595 234.825 220.58 234.825C219.468 234.825 218.419 234.352 217.766 233.555C216.896 232.49 216.871 231.112 216.929 230.168C217.041 228.354 217.542 226.533 218.376 224.9C218.597 224.468 219.124 224.295 219.56 224.516C219.993 224.738 220.165 225.268 219.944 225.701C219.219 227.12 218.785 228.702 218.687 230.276C218.623 231.306 218.764 231.994 219.129 232.439C219.449 232.83 219.972 233.069 220.604 233.064C221.191 233.057 221.814 232.824 222.357 232.408C222.452 232.335 222.545 232.257 222.638 232.179C222.872 231.982 223.109 231.789 223.372 231.632C223.992 231.263 224.65 231.167 225.229 231.36C226.367 231.741 226.649 233.028 226.742 233.451L226.823 233.83C226.96 234.481 227.088 235.096 227.345 235.628C227.631 236.222 228.081 236.639 228.548 236.744C228.943 236.835 229.445 236.615 229.523 236.32C229.646 235.849 230.136 235.57 230.597 235.691C231.068 235.814 231.349 236.295 231.226 236.766C230.954 237.809 229.891 238.528 228.751 238.528Z" fill="white"/>
</g>
<path d="M235.186 350.544L227.238 309.162L252.166 293.159C255.16 291.237 259.13 291.953 261.264 294.799C263.148 297.313 263.062 300.791 261.054 303.208L254.686 310.875" fill="white"/>
<path d="M235.184 351.425C234.77 351.425 234.401 351.132 234.321 350.71L226.373 309.328C226.306 308.974 226.459 308.615 226.762 308.421L251.689 292.418C255.053 290.259 259.568 291.071 261.967 294.271C264.105 297.123 264.008 301.029 261.731 303.77L255.362 311.438C255.051 311.812 254.496 311.863 254.122 311.553C253.748 311.242 253.696 310.687 254.007 310.313L260.376 302.645C262.13 300.533 262.204 297.524 260.558 295.328C258.71 292.863 255.233 292.237 252.641 293.9L228.214 309.581L236.049 350.379C236.141 350.856 235.828 351.317 235.351 351.409C235.295 351.42 235.239 351.425 235.184 351.425Z" fill="#030047"/>
<path d="M124.458 241.036L113.944 245.767C98.7597 252.28 94.3521 263.702 92.8365 280.154C91.81 291.296 94.9674 302.422 101.693 311.364L136.665 355.012C145.273 364.891 158.443 369.516 171.338 367.188L240.516 351.926L232.232 304.408L170.855 314.058L124.458 241.036Z" fill="#605EFD"/>
<g opacity="0.4">
<path d="M133.244 270.367C132.855 270.367 132.498 270.105 132.394 269.71C131.942 267.993 131.125 266.344 130.03 264.943C129.299 264.009 128.65 263.519 127.986 263.4C127.397 263.295 126.726 263.506 126.223 263.947C125.732 264.38 125.381 265.03 125.238 265.778C125.212 265.91 125.193 266.043 125.173 266.175C125.13 266.472 125.081 266.808 124.972 267.147C124.735 267.88 124.275 268.417 123.673 268.66C122.499 269.131 121.394 268.314 120.977 268.007L120.63 267.747C120.028 267.295 119.46 266.868 118.84 266.599C118.131 266.293 117.414 266.264 116.927 266.522C116.497 266.749 116.237 267.329 116.411 267.673C116.632 268.106 116.46 268.636 116.027 268.857C115.591 269.078 115.061 268.905 114.843 268.472C114.223 267.258 114.802 265.651 116.106 264.964C117.077 264.453 118.328 264.46 119.54 264.983C120.351 265.335 121.031 265.846 121.688 266.34L122.024 266.592C122.68 267.076 122.935 267.06 123.016 267.026C123.094 266.994 123.217 266.849 123.295 266.608C123.367 266.385 123.397 266.152 123.431 265.92C123.455 265.762 123.478 265.603 123.509 265.445C123.725 264.317 124.277 263.315 125.061 262.625C125.97 261.825 127.179 261.468 128.295 261.667C129.762 261.928 130.779 263.043 131.417 263.859C132.657 265.447 133.585 267.315 134.097 269.262C134.221 269.732 133.94 270.214 133.47 270.338C133.395 270.357 133.319 270.367 133.244 270.367Z" fill="white"/>
</g>
<g opacity="0.4">
<path d="M129.855 312.352C128.531 312.352 127.467 311.556 126.78 310.954C125.444 309.787 124.332 308.323 123.565 306.721C123.355 306.282 123.541 305.757 123.979 305.547C124.42 305.336 124.944 305.522 125.154 305.961C125.818 307.348 126.781 308.617 127.939 309.629C128.686 310.283 129.308 310.597 129.873 310.591C130.358 310.585 130.87 310.31 131.21 309.875C131.546 309.441 131.731 308.85 131.731 308.21C131.731 308.091 131.727 307.975 131.722 307.859C131.71 307.564 131.7 307.269 131.737 306.977C131.823 306.276 132.149 305.71 132.653 305.385C133.633 304.754 134.799 305.312 135.182 305.496L135.531 305.666C136.113 305.951 136.663 306.22 137.224 306.345C137.848 306.485 138.434 306.4 138.787 306.118C139.071 305.892 139.191 305.421 139.022 305.202C138.722 304.819 138.791 304.265 139.175 303.967C139.559 303.667 140.113 303.738 140.411 304.121C141.181 305.108 140.94 306.654 139.885 307.495C139.107 308.116 137.993 308.322 136.841 308.064C136.076 307.893 135.406 307.565 134.757 307.248L134.421 307.084C133.771 306.773 133.613 306.862 133.606 306.867C133.583 306.881 133.51 306.987 133.484 307.192C133.46 307.389 133.473 307.587 133.481 307.785C133.487 307.928 133.492 308.071 133.492 308.213C133.492 309.24 133.175 310.215 132.599 310.956C131.93 311.817 130.918 312.339 129.895 312.352C129.881 312.352 129.867 312.352 129.855 312.352Z" fill="white"/>
</g>
<g opacity="0.4">
<path d="M152.714 328.865C151.649 328.865 150.625 328.063 150.343 326.923C150.102 325.959 150.378 324.864 151.097 323.92C151.57 323.296 152.149 322.823 152.708 322.365L152.995 322.13C153.553 321.667 153.535 321.488 153.534 321.481C153.53 321.452 153.464 321.342 153.289 321.234C153.119 321.129 152.932 321.057 152.748 320.981C152.617 320.928 152.488 320.875 152.359 320.816C151.422 320.385 150.669 319.69 150.237 318.858C149.733 317.893 149.681 316.756 150.097 315.819C150.64 314.593 151.824 313.949 152.665 313.571C154.285 312.844 156.079 312.444 157.854 312.415C157.86 312.415 157.864 312.415 157.869 312.415C158.349 312.415 158.741 312.8 158.75 313.281C158.758 313.767 158.37 314.168 157.884 314.176C156.345 314.201 154.791 314.547 153.386 315.177C152.481 315.584 151.93 316.028 151.707 316.533C151.51 316.978 151.545 317.557 151.799 318.046C152.053 318.533 152.513 318.948 153.095 319.216C153.199 319.264 153.306 319.308 153.413 319.351C153.688 319.463 153.961 319.579 154.213 319.734C154.815 320.105 155.193 320.638 155.277 321.233C155.442 322.389 154.447 323.214 154.12 323.485L153.823 323.729C153.321 324.14 152.846 324.528 152.499 324.986C152.11 325.496 151.943 326.061 152.052 326.499C152.14 326.854 152.53 327.159 152.787 327.096C153.254 326.987 153.734 327.278 153.846 327.752C153.957 328.225 153.663 328.699 153.19 328.811C153.032 328.847 152.872 328.865 152.714 328.865Z" fill="white"/>
</g>
<g opacity="0.4">
<path d="M140.591 345.403C140.444 345.403 140.295 345.39 140.148 345.36C139.304 345.191 138.557 344.583 138.101 343.691C137.807 343.117 137.668 342.529 137.533 341.96L137.462 341.666C137.385 341.351 137.314 341.23 137.283 341.189C137.278 341.205 137.225 341.224 137.158 341.266C137.027 341.347 136.915 341.452 136.799 341.554C136.711 341.632 136.621 341.71 136.53 341.784C135.854 342.329 135.045 342.646 134.249 342.674C133.352 342.712 132.414 342.333 131.844 341.672C131.286 341.024 131.035 340.122 131.082 338.916C131.134 337.474 131.495 336.019 132.125 334.708C132.335 334.269 132.858 334.084 133.299 334.294C133.738 334.505 133.922 335.03 133.711 335.469C133.186 336.565 132.885 337.779 132.84 338.981C132.813 339.723 132.924 340.226 133.179 340.523C133.4 340.779 133.792 340.93 134.187 340.915C134.602 340.9 135.042 340.722 135.423 340.414C135.497 340.355 135.567 340.293 135.635 340.232C135.822 340.068 136.01 339.908 136.22 339.776C136.744 339.446 137.31 339.35 137.82 339.506C138.821 339.814 139.085 340.892 139.172 341.246L139.246 341.553C139.361 342.042 139.472 342.503 139.669 342.888C139.876 343.293 140.185 343.571 140.493 343.633C140.709 343.678 140.991 343.538 141.016 343.429C141.128 342.955 141.611 342.664 142.075 342.774C142.549 342.885 142.842 343.359 142.731 343.833C142.512 344.754 141.587 345.403 140.591 345.403Z" fill="white"/>
</g>
<g opacity="0.4">
<path d="M182.57 349.921C182.272 349.921 181.981 349.77 181.815 349.496C181.254 348.566 181.611 347.239 182.594 346.598C183.313 346.13 184.273 346.044 185.223 346.361C185.84 346.567 186.354 346.893 186.851 347.208L187.098 347.363C187.373 347.534 187.508 347.571 187.559 347.579C187.551 347.564 187.576 347.513 187.594 347.437C187.63 347.286 187.638 347.131 187.649 346.976C187.658 346.86 187.666 346.744 187.68 346.628C187.783 345.764 188.141 344.972 188.688 344.396C189.337 343.717 190.238 343.358 191.109 343.431C191.962 343.504 192.772 343.975 193.583 344.868C194.553 345.938 195.312 347.231 195.779 348.608C195.934 349.069 195.687 349.569 195.226 349.724C194.771 349.879 194.267 349.634 194.11 349.172C193.721 348.022 193.088 346.943 192.279 346.051C191.78 345.502 191.348 345.219 190.958 345.185C190.638 345.156 190.241 345.319 189.964 345.611C189.677 345.912 189.487 346.347 189.43 346.834L189.406 347.106C189.387 347.355 189.366 347.602 189.307 347.845C189.163 348.448 188.823 348.914 188.35 349.158C187.419 349.637 186.478 349.051 186.167 348.858L185.909 348.695C185.481 348.425 185.079 348.169 184.666 348.031C184.235 347.887 183.82 347.903 183.555 348.074C183.359 348.202 183.265 348.491 183.323 348.586C183.575 349.003 183.44 349.544 183.024 349.795C182.882 349.881 182.725 349.921 182.57 349.921Z" fill="white"/>
</g>
<g opacity="0.4">
<path d="M162.537 361.425C162.341 361.425 162.143 361.404 161.947 361.359C160.946 361.134 160.071 360.38 159.546 359.29C159.199 358.568 159.04 357.821 158.888 357.098L158.809 356.726C158.655 356.026 158.488 355.938 158.456 355.927C158.405 355.91 158.254 355.927 158.059 356.043C157.878 356.15 157.72 356.288 157.559 356.423C157.446 356.518 157.331 356.614 157.214 356.704C156.372 357.349 155.377 357.711 154.41 357.722C154.396 357.722 154.382 357.722 154.367 357.722C153.255 357.722 152.206 357.249 151.553 356.452C150.683 355.39 150.659 354.01 150.716 353.065C150.828 351.251 151.329 349.43 152.163 347.797C152.384 347.365 152.911 347.192 153.347 347.414C153.78 347.635 153.952 348.165 153.731 348.598C153.006 350.018 152.572 351.599 152.475 353.174C152.41 354.204 152.551 354.892 152.915 355.336C153.231 355.722 153.787 355.961 154.369 355.961C154.376 355.961 154.383 355.96 154.391 355.96C154.978 355.954 155.601 355.721 156.142 355.306C156.241 355.231 156.334 355.152 156.427 355.073C156.661 354.877 156.897 354.685 157.16 354.529C157.779 354.16 158.441 354.064 159.015 354.257C160.153 354.638 160.435 355.925 160.528 356.348L160.611 356.734C160.747 357.383 160.877 357.995 161.133 358.525C161.418 359.119 161.867 359.536 162.334 359.641C162.726 359.729 163.231 359.513 163.309 359.217C163.433 358.746 163.922 358.468 164.383 358.588C164.854 358.711 165.135 359.192 165.013 359.663C164.74 360.706 163.677 361.425 162.537 361.425Z" fill="white"/>
</g>
<g opacity="0.4">
<path d="M218.061 342.112C217.104 342.112 216.128 341.511 215.682 340.55C215.251 339.617 215.316 338.464 215.86 337.384C216.222 336.665 216.72 336.083 217.203 335.519L217.444 335.236C217.914 334.679 217.868 334.49 217.861 334.47C217.844 334.421 217.739 334.311 217.528 334.227C217.331 334.148 217.124 334.107 216.918 334.061C216.775 334.029 216.631 333.997 216.49 333.959C215.463 333.686 214.57 333.116 213.973 332.356C213.276 331.469 213.001 330.332 213.238 329.317C213.552 327.977 214.63 327.119 215.413 326.59C216.92 325.574 218.669 324.86 220.471 324.527C220.943 324.438 221.409 324.753 221.497 325.232C221.585 325.71 221.27 326.17 220.792 326.258C219.225 326.548 217.706 327.168 216.398 328.05C215.543 328.627 215.083 329.157 214.953 329.718C214.838 330.21 214.993 330.804 215.357 331.268C215.72 331.731 216.284 332.082 216.944 332.258C217.061 332.289 217.18 332.315 217.298 332.341C217.597 332.407 217.896 332.477 218.18 332.591C218.848 332.857 219.327 333.321 219.526 333.896C219.918 335.034 219.068 336.04 218.79 336.371L218.54 336.665C218.106 337.17 217.698 337.648 217.432 338.176C217.136 338.764 217.079 339.375 217.28 339.81C217.449 340.178 217.931 340.44 218.21 340.323C218.658 340.135 219.175 340.343 219.364 340.792C219.552 341.24 219.342 341.756 218.895 341.946C218.628 342.058 218.346 342.112 218.061 342.112Z" fill="white"/>
</g>
<g opacity="0.4">
<path d="M190.735 329.754C189.44 329.754 188.136 329.566 186.894 329.198C186.428 329.059 186.162 328.57 186.301 328.103C186.439 327.638 186.93 327.37 187.394 327.51C188.923 327.963 190.558 328.1 192.122 327.909C193.147 327.783 193.796 327.52 194.168 327.08C194.494 326.693 194.626 326.093 194.513 325.515C194.399 324.938 194.056 324.369 193.548 323.912C193.457 323.83 193.363 323.753 193.269 323.675C193.032 323.481 192.8 323.284 192.599 323.054C192.123 322.512 191.908 321.883 191.992 321.28C192.159 320.09 193.373 319.578 193.771 319.409L194.132 319.259C194.746 319.006 195.327 318.767 195.8 318.419C196.332 318.029 196.661 317.511 196.68 317.032C196.694 316.626 196.388 316.174 196.082 316.151C195.597 316.116 195.233 315.694 195.268 315.209C195.304 314.724 195.747 314.362 196.211 314.395C197.471 314.487 198.491 315.725 198.438 317.099C198.399 318.125 197.818 319.124 196.842 319.838C196.196 320.314 195.488 320.605 194.804 320.887L194.456 321.032C193.784 321.316 193.739 321.504 193.737 321.524C193.729 321.576 193.774 321.723 193.923 321.893C194.062 322.051 194.227 322.183 194.389 322.316C194.504 322.41 194.617 322.505 194.726 322.603C195.516 323.313 196.055 324.226 196.241 325.175C196.459 326.281 196.187 327.418 195.514 328.216C194.628 329.267 193.276 329.542 192.337 329.656C191.808 329.722 191.273 329.754 190.735 329.754Z" fill="white"/>
</g>
<g opacity="0.4">
<path d="M120.141 297.322C119.945 297.322 119.748 297.301 119.552 297.256C118.551 297.031 117.675 296.276 117.15 295.187C116.802 294.465 116.644 293.717 116.492 292.995L116.413 292.622C116.257 291.908 116.08 291.83 116.061 291.824C116.01 291.807 115.858 291.824 115.663 291.94C115.482 292.047 115.322 292.186 115.162 292.321C115.048 292.416 114.935 292.51 114.818 292.6C113.976 293.246 112.98 293.608 112.013 293.619C111.999 293.619 111.986 293.619 111.971 293.619C110.859 293.619 109.81 293.146 109.156 292.349C108.286 291.286 108.262 289.907 108.319 288.963C108.432 287.148 108.933 285.327 109.766 283.694C109.986 283.263 110.514 283.089 110.95 283.311C111.384 283.532 111.556 284.063 111.335 284.496C110.61 285.915 110.175 287.496 110.078 289.071C110.014 290.101 110.155 290.789 110.518 291.233C110.839 291.624 111.364 291.858 111.995 291.858C112.582 291.851 113.205 291.619 113.746 291.203C113.843 291.129 113.936 291.05 114.03 290.972C114.264 290.775 114.5 290.582 114.764 290.426C115.384 290.057 116.044 289.961 116.62 290.154C117.76 290.537 118.04 291.824 118.132 292.247L118.215 292.632C118.352 293.28 118.481 293.893 118.736 294.422C119.022 295.016 119.472 295.433 119.939 295.539C120.337 295.628 120.837 295.41 120.914 295.113C121.039 294.642 121.526 294.362 121.989 294.486C122.46 294.609 122.741 295.091 122.617 295.561C122.342 296.603 121.279 297.322 120.141 297.322Z" fill="white"/>
</g>
<path d="M170.856 314.939C170.569 314.939 170.287 314.798 170.118 314.539L146.085 277.671C145.819 277.264 145.934 276.718 146.342 276.452C146.747 276.187 147.294 276.302 147.559 276.709L171.592 313.578C171.858 313.985 171.743 314.53 171.335 314.796C171.188 314.893 171.02 314.939 170.856 314.939Z" fill="#030047"/>
<path d="M164.809 368.65C153.885 368.65 143.279 363.941 136.004 355.591L101.008 311.915C100.703 311.536 100.765 310.982 101.145 310.678C101.523 310.374 102.08 310.434 102.382 310.814L137.354 354.462C145.689 364.028 158.653 368.582 171.184 366.323L239.505 351.248L231.517 305.422L162.538 317.006C162.05 317.085 161.605 316.762 161.525 316.283C161.444 315.803 161.768 315.349 162.247 315.269L232.089 303.541C232.569 303.46 233.019 303.781 233.102 304.258L241.385 351.775C241.465 352.239 241.167 352.685 240.706 352.786L171.529 368.049C169.293 368.452 167.043 368.65 164.809 368.65Z" fill="#030047"/>
<path d="M481.733 159.608C481.028 159.879 480.3 160.113 479.572 160.301C475.604 161.299 471.39 160.9 467.703 159.174C465.485 158.141 462.996 157.647 460.495 157.765L457.619 157.882L467.246 196.013C469.159 203.609 464.569 211.322 456.973 213.236L423.574 221.665C422.153 222.029 420.78 220.995 420.709 219.54V219.493C420.604 216.992 421.085 214.491 422.118 212.273C424.196 207.835 424.349 202.857 422.552 198.243C419.617 190.706 411.669 186.034 403.651 187.138C402.982 187.232 402.313 187.361 401.667 187.525C392.17 189.92 386.394 199.606 388.789 209.115C389.775 213.001 391.97 216.358 395.128 218.812C397.241 220.444 398.955 222.498 400.071 224.741C400.235 225.069 400.305 225.421 400.305 225.75C400.305 226.771 399.636 227.722 398.568 227.981L365.192 236.41C357.608 238.324 349.895 233.722 347.981 226.126L324.806 134.356C322.893 126.76 327.495 119.048 335.09 117.134L371.226 108.012L369.958 105.476C368.842 103.222 367.14 101.168 365.015 99.5361C361.857 97.0827 359.662 93.7251 358.676 89.8393C356.281 80.3301 362.057 70.6446 371.554 68.2499C372.212 68.0852 372.869 67.9566 373.539 67.8624C381.557 66.7588 389.517 71.4314 392.452 78.9681C394.236 83.582 394.083 88.5714 392.017 93.009C390.984 95.2165 390.491 97.717 390.608 100.217L390.726 103.093L426.861 93.9717C434.457 92.0462 442.169 96.6482 444.083 104.244L452.7 138.384L455.236 137.116C457.49 136 459.533 134.298 461.176 132.184C463.63 129.015 466.976 126.82 470.873 125.845C475.768 124.601 480.981 125.516 485.172 128.346C489.351 131.163 492.145 135.672 492.838 140.708C493.941 148.726 489.281 156.673 481.733 159.608Z" fill="#605EFD"/>
<path d="M373.825 268.715L375.92 363.349C376.094 371.18 369.886 377.668 362.056 377.841L324.803 378.667L325.463 381.423C326.041 383.845 327.241 386.205 328.909 388.258C330.282 389.948 331.422 391.83 332.076 393.907C335.846 405.88 327.099 417.084 315.596 417.339C314.927 417.354 314.246 417.334 313.575 417.279C305.515 416.565 298.799 410.232 297.624 402.225C296.905 397.333 298.172 392.514 301.186 388.642C302.682 386.719 303.711 384.395 304.173 381.93L304.686 379.112L267.433 379.937C259.603 380.11 253.114 373.903 252.941 366.073L250.845 271.427C250.672 263.602 256.874 257.12 264.698 256.946L299.148 256.183C300.602 256.151 301.72 257.461 301.461 258.892L301.45 258.951C301 261.415 299.959 263.74 298.452 265.664C295.449 269.535 294.182 274.354 294.901 279.246C296.088 287.252 302.793 293.585 310.852 294.3C311.523 294.355 312.204 294.375 312.873 294.36C322.662 294.144 330.454 285.998 330.237 276.197C330.148 272.183 328.762 268.421 326.228 265.33C324.538 263.254 323.323 260.874 322.74 258.444C322.401 257.02 323.462 255.645 324.926 255.613L359.333 254.851C367.163 254.677 373.652 260.884 373.825 268.715Z" fill="#FFCC3D"/>
<path d="M244.096 308.962L278.953 311.239C281.125 311.039 283.074 312.589 283.367 314.749C283.472 315.606 283.308 316.428 282.932 317.156C282.392 318.236 281.395 319.246 280.127 319.516L265.288 320.36L285.691 319.386C287.887 319.186 289.847 320.724 290.117 322.896C290.235 323.742 290.082 324.575 289.695 325.303C289.143 326.383 288.156 327.404 286.901 327.663L265.781 328.942L279.927 328.132C282.087 327.932 284.036 329.599 284.33 331.76C284.459 332.617 284.295 333.462 283.919 334.19C283.919 334.19 283.919 334.201 283.907 334.225C283.167 335.634 281.676 336.491 280.103 336.597L266.274 337.465L273.693 337.031C275.889 336.82 277.849 338.499 278.119 340.659C278.248 341.516 278.084 342.349 277.708 343.077C277.18 344.169 276.171 345.155 274.903 345.425L241.219 349.227" fill="white"/>
<path d="M241.217 350.108C240.775 350.108 240.394 349.776 240.344 349.327C240.289 348.843 240.636 348.407 241.12 348.353L274.803 344.551C275.781 344.338 276.55 343.45 276.915 342.694C277.232 342.078 277.343 341.427 277.248 340.79C277.028 339.028 275.481 337.744 273.776 337.908L266.324 338.345C265.827 338.371 265.423 338.004 265.393 337.519C265.365 337.035 265.733 336.617 266.218 336.587L280.048 335.718C281.357 335.631 282.523 334.921 283.101 333.863C283.111 333.838 283.123 333.812 283.135 333.787C283.444 333.189 283.555 332.534 283.458 331.892C283.221 330.142 281.655 328.857 280.008 329.009L265.83 329.822C265.348 329.848 264.929 329.48 264.901 328.994C264.872 328.509 265.242 328.093 265.727 328.064L286.779 326.789C287.61 326.594 288.403 325.894 288.91 324.903C289.222 324.317 289.335 323.67 289.244 323.019C289.032 321.31 287.49 320.11 285.771 320.264L265.33 321.241C264.838 321.262 264.433 320.892 264.408 320.407C264.383 319.923 264.753 319.509 265.237 319.482L280.003 318.641C281.009 318.399 281.766 317.518 282.144 316.763C282.458 316.155 282.574 315.517 282.492 314.857C282.262 313.168 280.753 311.962 279.032 312.117C278.985 312.121 278.941 312.122 278.895 312.118L244.039 309.841C243.554 309.809 243.186 309.39 243.218 308.905C243.249 308.42 243.675 308.047 244.153 308.084L278.944 310.357C281.566 310.15 283.883 312.018 284.238 314.631C284.363 315.646 284.181 316.655 283.713 317.561C283.519 317.949 283.287 318.309 283.024 318.633L285.648 318.508C288.317 318.262 290.662 320.145 290.99 322.789C291.13 323.797 290.952 324.815 290.471 325.718C289.718 327.189 288.448 328.244 287.078 328.526C287.036 328.535 286.995 328.54 286.953 328.543L283.77 328.736C284.521 329.5 285.047 330.509 285.201 331.643C285.349 332.622 285.186 333.628 284.726 334.544C284.713 334.579 284.698 334.612 284.682 334.642C283.833 336.258 282.101 337.346 280.161 337.476L277.585 337.638C278.333 338.404 278.85 339.414 278.992 340.551C279.141 341.533 278.968 342.554 278.491 343.481C277.791 344.926 276.514 345.982 275.085 346.287L241.317 350.103C241.284 350.106 241.251 350.108 241.217 350.108Z" fill="#030047"/>
<path d="M313.986 206.766L319.083 178.294C319.847 174.026 322.657 170.405 326.601 168.605L337.467 163.645C342.745 161.237 348.889 164.382 350.021 170.072C350.722 173.595 349.258 177.198 346.299 179.234L334.84 187.118L332.581 204.653" fill="white"/>
<path d="M313.988 207.646C313.936 207.646 313.883 207.642 313.832 207.632C313.352 207.547 313.033 207.089 313.119 206.611L318.216 178.139C319.031 173.587 322.029 169.724 326.235 167.804L337.101 162.844C339.866 161.584 342.997 161.655 345.7 163.038C348.402 164.421 350.291 166.922 350.884 169.899C351.654 173.773 350.05 177.721 346.797 179.959L335.664 187.621L333.455 204.765C333.391 205.248 332.941 205.588 332.469 205.526C331.986 205.464 331.645 205.023 331.707 204.54L333.967 187.005C333.999 186.758 334.136 186.534 334.342 186.393L345.8 178.509C348.472 176.67 349.791 173.425 349.158 170.243C348.67 167.796 347.118 165.741 344.897 164.605C342.677 163.469 340.101 163.41 337.833 164.446L326.967 169.406C323.287 171.085 320.663 174.466 319.949 178.449L314.853 206.921C314.776 207.347 314.406 207.646 313.988 207.646Z" fill="#030047"/>
<path d="M48.5717 262.615L48.6394 256.564L37.0242 256.435L36.9568 262.486C33.4978 263.173 30.2659 264.497 27.3828 266.333L23.1512 262L14.8497 270.119L19.0813 274.452C17.1868 277.294 15.7854 280.495 15.0215 283.938L8.97104 283.87L8.8418 295.48L14.8922 295.547C15.5794 299.012 16.909 302.244 18.7397 305.122L14.4126 309.359L22.5314 317.661L26.8584 313.424C29.7003 315.324 32.9015 316.719 36.3444 317.483L36.2771 323.539L47.8922 323.669L47.9596 317.612C51.4187 316.925 54.6502 315.601 57.5336 313.765L61.7652 318.098L70.0667 309.979L65.8351 305.646C67.7296 302.81 69.1307 299.609 69.8949 296.16L75.9454 296.227L76.0746 284.618L70.0242 284.55C69.337 281.091 68.0075 277.86 66.1767 274.976L70.5038 270.739L62.385 262.437L58.058 266.675M43.4437 304.071C34.7793 304.66 27.6868 297.412 28.4632 288.757C29.0737 281.949 34.6562 276.49 41.4756 276.031C50.1452 275.449 57.2332 282.7 56.4519 291.349C55.8372 298.152 50.2593 303.607 43.4437 304.071Z" fill="#030047"/>
<path d="M252.565 166.483C251.408 173.599 244.702 178.43 237.586 177.274C230.47 176.117 225.639 169.411 226.796 162.295C227.953 155.179 234.659 150.348 241.775 151.505C248.89 152.661 253.721 159.367 252.565 166.483Z" fill="#030047"/>
<path d="M278.654 127.444C269.919 131.616 263.783 139.826 262.231 149.374L262.035 150.576L222.834 144.204L223.029 143.002C224.607 133.294 221.105 123.582 214.07 116.684C201.249 104.108 194.523 85.7 197.624 66.6197C202.903 34.1467 234.537 12.5189 267.131 20.0858C295.351 26.6462 314.371 53.8932 310.865 82.6425C308.398 102.977 295.658 119.339 278.654 127.444Z" fill="#FFCC3D"/>
<path d="M251.304 145.501C251.25 145.501 251.196 145.496 251.141 145.486C250.663 145.396 250.348 144.936 250.437 144.458L259.185 97.587C253.467 97.4549 247.803 96.534 242.338 94.8483L235.789 142.077C235.721 142.559 235.272 142.896 234.796 142.829C234.314 142.762 233.977 142.317 234.044 141.835L240.636 94.2965C238.29 93.4985 235.984 92.558 233.73 91.4763L225.55 87.5518C223.542 86.5887 222.039 84.8988 221.316 82.7932C220.592 80.6878 220.74 78.431 221.732 76.4381C222.84 74.2116 224.866 72.6191 227.292 72.0685C229.712 71.518 232.232 72.0789 234.193 73.6095C240.123 78.2363 243.278 85.6257 242.563 93.0746C248.06 94.8009 253.771 95.7289 259.532 95.8333C261.211 88.541 266.545 82.5308 273.635 80.0206C275.979 79.1904 278.544 79.4543 280.669 80.7449C282.796 82.0351 284.213 84.1878 284.559 86.6506C284.869 88.8549 284.294 91.0428 282.941 92.8107C281.588 94.5789 279.627 95.7054 277.418 95.9832L268.41 97.1158C265.931 97.4275 263.448 97.5893 260.973 97.6035L252.168 144.782C252.089 145.205 251.719 145.501 251.304 145.501ZM276.394 81.3057C275.664 81.3057 274.931 81.4291 274.223 81.6799C267.827 83.9448 262.984 89.3052 261.341 95.8385C263.623 95.8114 265.907 95.6554 268.19 95.3679L277.198 94.2353C278.936 94.0171 280.479 93.1307 281.543 91.7399C282.607 90.3492 283.058 88.6287 282.814 86.8946C282.543 84.9578 281.428 83.2647 279.756 82.2494C278.726 81.6242 277.565 81.3057 276.394 81.3057ZM229.128 73.6227C228.646 73.6227 228.163 73.6762 227.682 73.7852C225.775 74.2184 224.181 75.4709 223.31 77.2223C222.529 78.7897 222.413 80.565 222.982 82.2211C223.55 83.8771 224.733 85.2063 226.311 85.9638L234.491 89.8886C236.568 90.8848 238.688 91.7577 240.845 92.5064C241.356 85.7891 238.46 79.1717 233.111 74.9974C231.956 74.0969 230.558 73.6227 229.128 73.6227Z" fill="white"/>
<path d="M261.5 166.63L218.272 159.604C216.311 159.285 214.98 157.437 215.299 155.476L217.573 141.489C217.891 139.529 219.739 138.197 221.7 138.516L264.928 145.542C266.889 145.861 268.22 147.709 267.902 149.67L265.628 163.657C265.309 165.618 263.461 166.949 261.5 166.63Z" fill="#030047"/>
<path d="M267.942 0.753308L263.307 0L261.756 9.54368L266.391 10.297L267.942 0.753308Z" fill="#FFCC3D"/>
<path d="M228.569 3.52166L224.178 5.18701L227.606 14.2276L231.998 12.5622L228.569 3.52166Z" fill="#FFCC3D"/>
<path d="M303.46 18.0921L299.822 15.1216L293.706 22.6115L297.344 25.582L303.46 18.0921Z" fill="#FFCC3D"/>
<path d="M83.5308 365.366L78.0006 368.846C75.405 370.464 71.9942 369.689 70.3717 367.111L66.8908 361.581C65.2686 359.003 66.044 355.593 68.6219 353.97L74.156 350.471C76.7335 348.849 80.1442 349.625 81.7848 352.206L85.2616 357.755C86.8841 360.332 86.1087 363.743 83.5308 365.366Z" fill="#FFCC3D"/>
<path d="M406.742 273.034L402.976 275.404C401.209 276.506 398.886 275.978 397.782 274.223L395.411 270.458C394.307 268.702 394.835 266.38 396.59 265.275L400.358 262.892C402.114 261.787 404.436 262.316 405.553 264.074L407.921 267.851C409.025 269.607 408.497 271.929 406.742 273.034Z" fill="#FFCC3D"/>
<path d="M10.9601 193.59L7.49431 195.772C5.86728 196.786 3.73002 196.3 2.71313 194.684L0.531398 191.218C-0.485499 189.602 0.000860361 187.465 1.61629 186.448L5.08472 184.255C6.70047 183.239 8.83772 183.725 9.8659 185.343L12.0451 188.82C13.0619 190.436 12.5759 192.573 10.9601 193.59Z" fill="#FFCC3D"/>
<path d="M169.123 95.3611L166.872 96.778C165.815 97.4368 164.427 97.1209 163.766 96.0718L162.349 93.8208C161.689 92.771 162.004 91.3828 163.054 90.7221L165.307 89.2978C166.356 88.6373 167.745 88.9529 168.412 90.0039L169.828 92.2627C170.488 93.3118 170.172 94.7004 169.123 95.3611Z" fill="#FFCC3D"/>
</svg>
