<svg width="588" height="405" viewBox="0 0 588 405" fill="none" xmlns="http://www.w3.org/2000/svg">
<rect width="588" height="405" rx="8" fill="#161C2D"/>
<path d="M82.498 247.875C82.498 250.221 81.9072 252.19 80.7256 253.784C79.5439 255.359 77.9415 256.55 75.9184 257.355C73.8953 258.143 71.6036 258.537 69.0434 258.537C67.45 258.537 65.9998 258.457 64.6928 258.295C63.4038 258.152 62.2311 257.955 61.1748 257.705C60.1364 257.454 59.1875 257.167 58.3281 256.845V254.079C59.7246 254.616 61.3359 255.091 63.1621 255.502C65.0062 255.896 67.0114 256.093 69.1777 256.093C71.2187 256.093 73.027 255.798 74.6025 255.207C76.1959 254.616 77.4492 253.721 78.3623 252.521C79.2754 251.322 79.7319 249.809 79.7319 247.983C79.7319 246.372 79.347 245.056 78.5771 244.035C77.8252 242.997 76.6883 242.111 75.1665 241.376C73.6447 240.625 71.729 239.864 69.4194 239.094C67.8081 238.539 66.34 237.957 65.0151 237.348C63.7081 236.722 62.5892 236.005 61.6582 235.2C60.7272 234.376 60.011 233.391 59.5097 232.246C59.0263 231.082 58.7846 229.712 58.7846 228.137C58.7846 225.97 59.3307 224.153 60.4228 222.685C61.5328 221.199 63.0278 220.08 64.9077 219.328C66.8055 218.558 68.936 218.173 71.2993 218.173C73.1792 218.173 74.9606 218.352 76.6435 218.71C78.3444 219.051 79.9826 219.57 81.5581 220.268L80.5913 222.658C79.0158 221.978 77.4402 221.477 75.8647 221.154C74.2892 220.832 72.7316 220.671 71.1919 220.671C69.3478 220.671 67.7007 220.948 66.2505 221.503C64.8182 222.041 63.6813 222.855 62.8398 223.947C61.9983 225.039 61.5776 226.418 61.5776 228.083C61.5776 229.802 61.9625 231.189 62.7324 232.246C63.5202 233.302 64.6302 234.179 66.0625 234.877C67.5127 235.576 69.2225 236.256 71.1919 236.918C73.5193 237.706 75.5245 238.539 77.2075 239.416C78.8904 240.275 80.1884 241.368 81.1015 242.692C82.0325 244.017 82.498 245.745 82.498 247.875ZM100.903 228.244C103.392 228.244 105.46 228.826 107.107 229.99C108.772 231.153 110.007 232.747 110.813 234.77C111.637 236.793 112.048 239.112 112.048 241.726V243.686H90.9668C90.9668 247.696 91.8888 250.776 93.7329 252.924C95.5949 255.073 98.2536 256.147 101.709 256.147C103.517 256.147 105.084 256.004 106.409 255.717C107.751 255.413 109.237 254.903 110.867 254.187V256.684C109.434 257.329 108.002 257.794 106.57 258.081C105.138 258.385 103.49 258.537 101.628 258.537C98.6743 258.537 96.1947 257.928 94.1895 256.711C92.2022 255.476 90.6982 253.739 89.6777 251.501C88.6751 249.263 88.1738 246.649 88.1738 243.659C88.1738 240.741 88.6572 238.118 89.624 235.791C90.6087 233.463 92.041 231.628 93.9209 230.285C95.8187 228.924 98.1462 228.244 100.903 228.244ZM100.876 230.581C98.0835 230.581 95.8187 231.512 94.082 233.374C92.3633 235.218 91.3517 237.885 91.0474 241.376H109.229C109.229 239.246 108.924 237.366 108.315 235.737C107.707 234.108 106.785 232.845 105.549 231.95C104.332 231.037 102.774 230.581 100.876 230.581ZM132.575 228.244C135.852 228.244 138.367 229.104 140.122 230.822C141.876 232.541 142.753 235.236 142.753 238.906V258H140.068V239.067C140.068 236.167 139.405 234.036 138.081 232.675C136.756 231.315 134.831 230.634 132.307 230.634C129.102 230.634 126.649 231.574 124.948 233.454C123.265 235.316 122.424 238.136 122.424 241.914V258H119.711V228.808H121.914L122.316 234.125H122.478C122.997 233.033 123.704 232.049 124.599 231.171C125.512 230.276 126.631 229.569 127.956 229.05C129.281 228.513 130.821 228.244 132.575 228.244ZM162.421 258.537C158.428 258.537 155.385 257.284 153.29 254.777C151.213 252.253 150.175 248.583 150.175 243.767C150.175 238.718 151.276 234.868 153.478 232.219C155.68 229.569 158.751 228.244 162.69 228.244C164.372 228.244 165.832 228.504 167.067 229.023C168.32 229.542 169.368 230.249 170.209 231.145C171.068 232.022 171.731 233.024 172.196 234.152H172.411C172.34 233.203 172.286 232.183 172.25 231.091C172.214 229.999 172.196 228.996 172.196 228.083V216.213H174.909V258H172.707L172.357 252.656H172.196C171.713 253.73 171.042 254.715 170.182 255.61C169.341 256.505 168.284 257.221 167.013 257.758C165.742 258.278 164.211 258.537 162.421 258.537ZM162.716 256.174C166.154 256.174 168.598 255.109 170.048 252.978C171.498 250.83 172.223 247.768 172.223 243.793V243.364C172.223 239.246 171.498 236.095 170.048 233.911C168.598 231.708 166.234 230.607 162.958 230.607C159.718 230.607 157.238 231.735 155.519 233.991C153.818 236.247 152.968 239.523 152.968 243.82C152.968 247.867 153.765 250.937 155.358 253.032C156.969 255.126 159.422 256.174 162.716 256.174ZM227.779 218.737V244.143C227.779 247.204 227.188 249.809 226.006 251.958C224.825 254.088 223.124 255.717 220.904 256.845C218.702 257.973 216.061 258.537 212.982 258.537C208.309 258.537 204.719 257.275 202.213 254.75C199.706 252.208 198.453 248.636 198.453 244.035V218.737H201.192V244.035C201.192 247.974 202.213 250.973 204.254 253.032C206.312 255.073 209.267 256.093 213.116 256.093C215.64 256.093 217.789 255.646 219.561 254.75C221.334 253.837 222.685 252.513 223.616 250.776C224.547 249.021 225.013 246.9 225.013 244.411V218.737H227.779ZM255.637 250.346C255.637 252.083 255.199 253.569 254.321 254.804C253.462 256.022 252.2 256.953 250.535 257.597C248.87 258.224 246.82 258.537 244.385 258.537C242.362 258.537 240.554 258.358 238.96 258C237.367 257.642 236.033 257.203 234.959 256.684V253.999C236.301 254.661 237.787 255.198 239.417 255.61C241.046 256.022 242.72 256.228 244.439 256.228C247.446 256.228 249.613 255.717 250.938 254.697C252.263 253.676 252.925 252.28 252.925 250.507C252.925 249.344 252.594 248.386 251.931 247.634C251.287 246.864 250.356 246.201 249.138 245.646C247.921 245.091 246.453 244.528 244.734 243.955C242.944 243.346 241.35 242.746 239.954 242.155C238.575 241.547 237.492 240.75 236.704 239.765C235.917 238.763 235.523 237.402 235.523 235.683C235.523 233.338 236.463 231.512 238.342 230.205C240.222 228.898 242.747 228.244 245.916 228.244C247.67 228.244 249.299 228.414 250.803 228.754C252.325 229.077 253.704 229.497 254.939 230.017L253.972 232.326C252.862 231.807 251.582 231.386 250.132 231.064C248.682 230.742 247.232 230.581 245.781 230.581C243.4 230.581 241.538 231.001 240.195 231.843C238.853 232.684 238.181 233.92 238.181 235.549C238.181 236.802 238.504 237.787 239.148 238.503C239.793 239.201 240.715 239.792 241.914 240.275C243.114 240.741 244.537 241.26 246.184 241.833C247.885 242.424 249.452 243.042 250.884 243.686C252.334 244.331 253.489 245.163 254.348 246.184C255.208 247.204 255.637 248.592 255.637 250.346ZM286.755 228.298C289.959 228.298 292.358 229.104 293.952 230.715C295.545 232.326 296.342 234.895 296.342 238.422V258H294.247L293.764 252.897H293.603C292.976 253.99 292.215 254.965 291.32 255.825C290.425 256.666 289.324 257.329 288.017 257.812C286.728 258.295 285.152 258.537 283.29 258.537C281.41 258.537 279.799 258.224 278.456 257.597C277.131 256.971 276.102 256.057 275.368 254.858C274.652 253.658 274.294 252.199 274.294 250.48C274.294 247.58 275.493 245.378 277.892 243.874C280.291 242.352 283.738 241.493 288.232 241.296L293.656 241.027V238.906C293.656 235.916 293.066 233.785 291.884 232.514C290.702 231.243 288.957 230.607 286.647 230.607C285.143 230.607 283.693 230.804 282.297 231.198C280.918 231.574 279.513 232.12 278.08 232.836L277.221 230.581C278.617 229.918 280.112 229.372 281.706 228.942C283.317 228.513 285 228.298 286.755 228.298ZM293.63 243.149L288.527 243.364C284.821 243.543 282.001 244.205 280.068 245.351C278.134 246.497 277.167 248.216 277.167 250.507C277.167 252.351 277.74 253.766 278.886 254.75C280.05 255.735 281.661 256.228 283.72 256.228C286.925 256.228 289.369 255.314 291.051 253.488C292.752 251.662 293.612 249.174 293.63 246.022V243.149ZM318.212 228.244C321.488 228.244 324.004 229.104 325.758 230.822C327.513 232.541 328.39 235.236 328.39 238.906V258H325.704V239.067C325.704 236.167 325.042 234.036 323.717 232.675C322.392 231.315 320.468 230.634 317.943 230.634C314.738 230.634 312.286 231.574 310.585 233.454C308.902 235.316 308.06 238.136 308.06 241.914V258H305.348V228.808H307.55L307.953 234.125H308.114C308.633 233.033 309.34 232.049 310.236 231.171C311.149 230.276 312.268 229.569 313.593 229.05C314.917 228.513 316.457 228.244 318.212 228.244ZM373.553 258H352.095V218.737H373.553V221.235H354.861V236.113H372.505V238.61H354.861V255.502H373.553V258ZM394.294 228.244C397.571 228.244 400.086 229.104 401.841 230.822C403.595 232.541 404.473 235.236 404.473 238.906V258H401.787V239.067C401.787 236.167 401.125 234.036 399.8 232.675C398.475 231.315 396.55 230.634 394.026 230.634C390.821 230.634 388.368 231.574 386.667 233.454C384.984 235.316 384.143 238.136 384.143 241.914V258H381.431V228.808H383.633L384.036 234.125H384.197C384.716 233.033 385.423 232.049 386.318 231.171C387.231 230.276 388.35 229.569 389.675 229.05C391 228.513 392.54 228.244 394.294 228.244ZM433.808 270.917V258.134C433.808 257.329 433.826 256.362 433.862 255.234C433.898 254.106 433.933 253.139 433.969 252.333H433.781C433.083 254.124 431.865 255.619 430.129 256.818C428.392 258 426.217 258.591 423.603 258.591C419.861 258.591 416.952 257.32 414.875 254.777C412.816 252.217 411.787 248.448 411.787 243.471C411.787 240.463 412.243 237.823 413.156 235.549C414.087 233.257 415.475 231.467 417.319 230.178C419.181 228.889 421.481 228.244 424.221 228.244C426.727 228.244 428.759 228.799 430.317 229.909C431.892 231.001 433.038 232.326 433.754 233.884H433.915L434.345 228.808H436.52V270.917H433.808ZM423.952 256.228C426.262 256.228 428.133 255.744 429.565 254.777C431.015 253.793 432.08 252.378 432.761 250.534C433.459 248.672 433.817 246.416 433.835 243.767V243.068C433.835 238.986 433.092 235.889 431.606 233.776C430.12 231.664 427.739 230.607 424.462 230.607C421.204 230.607 418.742 231.744 417.077 234.018C415.412 236.292 414.579 239.461 414.579 243.525C414.579 247.643 415.358 250.794 416.916 252.978C418.474 255.144 420.819 256.228 423.952 256.228ZM468.649 228.808V258H466.447L466.044 252.736H465.883C465.381 253.811 464.674 254.786 463.761 255.664C462.848 256.541 461.729 257.239 460.404 257.758C459.079 258.278 457.54 258.537 455.785 258.537C453.547 258.537 451.667 258.152 450.145 257.382C448.642 256.595 447.505 255.413 446.735 253.837C445.965 252.262 445.58 250.292 445.58 247.929V228.808H448.292V247.661C448.292 250.579 448.946 252.727 450.253 254.106C451.578 255.485 453.511 256.174 456.054 256.174C458.202 256.174 460.001 255.762 461.452 254.938C462.92 254.115 464.03 252.871 464.782 251.206C465.552 249.523 465.936 247.428 465.936 244.921V228.808H468.649ZM480.797 228.808V258H478.084V228.808H480.797ZM479.481 218.012C480.161 218.012 480.663 218.218 480.985 218.63C481.307 219.024 481.468 219.561 481.468 220.241C481.468 220.922 481.307 221.459 480.985 221.853C480.663 222.246 480.161 222.443 479.481 222.443C478.836 222.443 478.353 222.246 478.031 221.853C477.708 221.459 477.547 220.922 477.547 220.241C477.547 219.561 477.708 219.024 478.031 218.63C478.353 218.218 478.836 218.012 479.481 218.012ZM501.807 228.298C502.577 228.298 503.302 228.343 503.982 228.432C504.663 228.522 505.298 228.647 505.889 228.808L505.459 231.306C504.869 231.145 504.269 231.028 503.66 230.957C503.051 230.867 502.398 230.822 501.7 230.822C500.321 230.822 499.086 231.082 497.994 231.601C496.919 232.12 496.006 232.863 495.254 233.83C494.502 234.797 493.93 235.961 493.536 237.321C493.142 238.682 492.945 240.204 492.945 241.887V258H490.206V228.808H492.542L492.811 234.313H492.972C493.419 233.186 494.046 232.174 494.852 231.279C495.675 230.366 496.669 229.641 497.833 229.104C498.996 228.566 500.321 228.298 501.807 228.298ZM506.436 228.808H509.309L516.399 247.338C516.829 248.431 517.205 249.442 517.527 250.373C517.867 251.286 518.162 252.128 518.413 252.897C518.664 253.649 518.87 254.339 519.031 254.965H519.192C519.46 254.142 519.819 253.085 520.266 251.796C520.714 250.489 521.224 249.039 521.797 247.446L528.806 228.808H531.707L518.386 263.479C517.742 265.161 517.035 266.585 516.265 267.749C515.495 268.93 514.591 269.816 513.552 270.407C512.514 271.016 511.261 271.32 509.793 271.32C509.13 271.32 508.53 271.267 507.993 271.159C507.456 271.07 506.937 270.944 506.436 270.783V268.447C506.901 268.59 507.376 268.706 507.859 268.796C508.36 268.903 508.906 268.957 509.497 268.957C510.518 268.957 511.395 268.742 512.129 268.312C512.881 267.901 513.552 267.256 514.143 266.379C514.734 265.502 515.289 264.383 515.808 263.022L517.795 257.839L506.436 228.808Z" fill="white"/>
<path d="M266.668 62.5419C266.668 63.7021 265.745 64.6243 264.585 64.6243C263.425 64.6243 262.503 63.7021 262.503 62.5419C262.503 56.6816 267.263 51.922 273.123 51.922C280.857 51.922 285.974 59.9241 282.821 66.9446C281.631 69.5327 279.876 70.8416 277.793 72.5074C274.997 74.7385 275.205 74.7385 275.205 76.9696C275.205 78.1298 274.283 79.0519 273.123 79.0519C271.963 79.0519 271.041 78.1298 271.041 76.9696V75.631C271.041 72.5967 272.587 71.377 275.205 69.2649C276.544 68.194 278.21 67.0338 279.013 65.249C280.917 61.0248 277.853 56.1164 273.123 56.1164C269.553 56.0867 266.668 58.9722 266.668 62.5419ZM271.041 84.9718C271.041 83.8116 271.963 82.8894 273.123 82.8894C274.283 82.8894 275.205 83.8116 275.205 84.9718V85.9832C275.205 87.1433 274.283 88.0655 273.123 88.0655C271.963 88.0655 271.041 87.1433 271.041 85.9832V84.9718ZM318.756 55.7892C319.916 55.7892 320.838 56.7114 320.838 57.8715C320.838 59.0317 319.916 59.9539 318.756 59.9539H300.461C299.301 59.9539 298.379 59.0317 298.379 57.8715C298.379 56.7114 299.301 55.7892 300.461 55.7892H318.756ZM292.191 86.6079C291.031 86.6079 290.109 85.6857 290.109 84.5255C290.109 83.3654 291.031 82.4432 292.191 82.4432H303.644C304.804 82.4432 305.726 83.3654 305.726 84.5255C305.726 85.6857 304.804 86.6079 303.644 86.6079H292.191ZM318.756 82.4432C319.916 82.4432 320.838 83.3654 320.838 84.5255C320.838 85.6857 319.916 86.6079 318.756 86.6079H313.104C311.944 86.6079 311.022 85.6857 311.022 84.5255C311.022 83.3654 311.944 82.4432 313.104 82.4432H318.756ZM318.756 69.1162C319.916 69.1162 320.838 70.0384 320.838 71.1985C320.838 72.3587 319.916 73.2809 318.756 73.2809H305.042C303.882 73.2809 302.96 72.3587 302.96 71.1985C302.96 70.0384 303.882 69.1162 305.042 69.1162H318.756ZM292.191 73.2809C291.031 73.2809 290.109 72.3587 290.109 71.1985C290.109 70.0384 291.031 69.1162 292.191 69.1162H296.505C297.665 69.1162 298.587 70.0384 298.587 71.1985C298.587 72.3587 297.665 73.2809 296.505 73.2809H292.191ZM266.995 38H322.296C330.923 38 337.943 45.0502 337.943 53.6473V86.1319C337.943 86.5781 337.914 86.9946 337.884 87.4408C345.053 93.0037 356.238 99.102 356.238 109.186V162.524C356.238 169.931 350.17 176 342.762 176H244.476C237.069 176 231 169.931 231 162.524V109.216C231 107.164 231.476 105.171 232.368 103.356C235.819 96.3057 243.167 92.2897 249.503 87.3516L251.347 85.9237V53.6473C251.347 45.0502 258.368 38 266.995 38ZM336.872 91.8732C334.522 97.7633 328.811 101.809 322.296 101.809H284.397L268.542 118.706C267.263 120.074 264.942 119.152 264.942 117.278V101.66C258.844 100.857 253.787 96.4544 252.032 90.6238C250.336 91.9625 248.819 93.0334 247.361 94.1043C243.078 97.1981 239.27 99.9646 236.92 103.683L276.722 134.71L292.37 122.513C293.143 121.919 294.214 121.948 294.958 122.543L310.575 134.71L350.378 103.683C347.433 99.0722 341.781 95.562 336.872 91.8732ZM322.296 42.1647H266.995C260.688 42.1647 255.512 47.3408 255.512 53.6473V86.1319C255.512 92.4682 260.688 97.6443 266.995 97.6443C268.155 97.6443 269.077 98.5665 269.077 99.7267V112.042L281.869 98.4178C282.255 97.9418 282.821 97.6443 283.475 97.6443H322.266C328.573 97.6443 333.749 92.4682 333.749 86.1319V53.6473C333.779 47.3408 328.603 42.1647 322.296 42.1647ZM236.027 166.481L273.331 137.387L235.284 107.699C235.194 108.175 235.165 108.681 235.165 109.186V162.524C235.165 163.952 235.492 165.291 236.027 166.481ZM313.907 137.387L351.211 166.481C351.776 165.291 352.074 163.982 352.074 162.554V109.216C352.074 108.71 352.044 108.205 351.955 107.729L313.907 137.387ZM348.653 169.753L293.619 126.827L238.586 169.753C240.192 171.092 242.245 171.865 244.476 171.865H342.792C344.994 171.865 347.046 171.062 348.653 169.753Z" fill="#737373"/>
<path opacity="0.7" d="M86.6808 301V287.437H88.2579V299.59H94.2789V301H86.6808ZM100.091 290.646C100.957 290.646 101.699 290.838 102.317 291.222C102.936 291.605 103.409 292.143 103.737 292.836C104.064 293.522 104.228 294.326 104.228 295.248V296.204H97.2054C97.2239 297.397 97.5208 298.306 98.096 298.931C98.6712 299.556 99.4814 299.868 100.527 299.868C101.17 299.868 101.739 299.809 102.234 299.692C102.728 299.574 103.242 299.401 103.774 299.172V300.527C103.26 300.756 102.75 300.923 102.243 301.028C101.742 301.133 101.148 301.186 100.462 301.186C99.4845 301.186 98.631 300.988 97.9012 300.592C97.1775 300.19 96.6147 299.602 96.2127 298.829C95.8107 298.056 95.6097 297.11 95.6097 295.99C95.6097 294.896 95.7921 293.949 96.157 293.151C96.5281 292.347 97.0476 291.729 97.7156 291.296C98.3898 290.863 99.1814 290.646 100.091 290.646ZM100.072 291.908C99.2495 291.908 98.5939 292.177 98.1053 292.715C97.6167 293.253 97.326 294.005 97.2332 294.97H102.614C102.608 294.364 102.512 293.832 102.326 293.374C102.147 292.91 101.872 292.551 101.501 292.298C101.13 292.038 100.653 291.908 100.072 291.908ZM109.929 299.924C110.182 299.924 110.442 299.902 110.708 299.859C110.974 299.816 111.19 299.763 111.357 299.701V300.898C111.178 300.978 110.928 301.046 110.606 301.102C110.291 301.158 109.981 301.186 109.678 301.186C109.14 301.186 108.652 301.093 108.212 300.907C107.773 300.715 107.421 300.394 107.155 299.942C106.895 299.491 106.765 298.866 106.765 298.068V292.038H105.318V291.287L106.774 290.684L107.387 288.476H108.314V290.832H111.292V292.038H108.314V298.022C108.314 298.659 108.46 299.135 108.75 299.451C109.047 299.766 109.44 299.924 109.929 299.924ZM126.349 290.832V301H125.087L124.864 299.571H124.781C124.57 299.924 124.298 300.221 123.964 300.462C123.63 300.703 123.253 300.882 122.832 301C122.418 301.124 121.976 301.186 121.506 301.186C120.702 301.186 120.028 301.056 119.483 300.796C118.939 300.536 118.528 300.134 118.249 299.59C117.977 299.046 117.841 298.347 117.841 297.493V290.832H119.4V297.382C119.4 298.229 119.592 298.863 119.975 299.284C120.358 299.698 120.943 299.905 121.728 299.905C122.483 299.905 123.083 299.763 123.528 299.479C123.98 299.194 124.304 298.777 124.502 298.226C124.7 297.669 124.799 296.989 124.799 296.185V290.832H126.349ZM135.983 298.217C135.983 298.866 135.819 299.414 135.491 299.859C135.169 300.298 134.705 300.629 134.099 300.852C133.499 301.074 132.782 301.186 131.947 301.186C131.236 301.186 130.62 301.13 130.101 301.019C129.581 300.907 129.127 300.75 128.737 300.545V299.126C129.151 299.33 129.646 299.516 130.221 299.683C130.796 299.85 131.384 299.933 131.984 299.933C132.862 299.933 133.499 299.791 133.895 299.506C134.291 299.222 134.489 298.835 134.489 298.347C134.489 298.068 134.408 297.824 134.248 297.614C134.093 297.397 133.83 297.19 133.459 296.992C133.088 296.788 132.575 296.565 131.919 296.324C131.27 296.077 130.707 295.833 130.231 295.591C129.761 295.344 129.396 295.044 129.136 294.691C128.882 294.339 128.755 293.881 128.755 293.318C128.755 292.459 129.102 291.8 129.795 291.342C130.493 290.878 131.409 290.646 132.541 290.646C133.153 290.646 133.725 290.708 134.257 290.832C134.795 290.95 135.296 291.11 135.76 291.314L135.24 292.548C134.82 292.369 134.371 292.217 133.895 292.094C133.419 291.97 132.933 291.908 132.439 291.908C131.727 291.908 131.18 292.026 130.796 292.261C130.419 292.496 130.231 292.817 130.231 293.226C130.231 293.541 130.317 293.801 130.49 294.005C130.67 294.209 130.954 294.401 131.344 294.58C131.733 294.759 132.247 294.97 132.884 295.211C133.521 295.446 134.071 295.69 134.535 295.944C134.999 296.191 135.355 296.494 135.602 296.853C135.856 297.206 135.983 297.66 135.983 298.217ZM144.526 286.564V294.061C144.526 294.308 144.517 294.611 144.498 294.97C144.479 295.322 144.464 295.635 144.452 295.907H144.517C144.646 295.746 144.835 295.508 145.083 295.192C145.336 294.877 145.549 294.623 145.723 294.432L149.1 290.832H150.909L146.817 295.174L151.206 301H149.35L145.76 296.185L144.526 297.317V301H142.995V286.564H144.526ZM157.592 290.646C158.799 290.646 159.711 290.943 160.329 291.537C160.948 292.125 161.257 293.071 161.257 294.376V301H159.736V294.478C159.736 293.631 159.541 292.997 159.151 292.576C158.768 292.156 158.177 291.945 157.379 291.945C156.253 291.945 155.462 292.264 155.004 292.901C154.546 293.538 154.318 294.463 154.318 295.675V301H152.778V290.832H154.021L154.253 292.298H154.336C154.553 291.939 154.828 291.639 155.162 291.398C155.496 291.151 155.87 290.965 156.284 290.841C156.699 290.711 157.135 290.646 157.592 290.646ZM172.997 295.897C172.997 296.732 172.889 297.478 172.672 298.133C172.456 298.789 172.143 299.342 171.735 299.794C171.327 300.245 170.832 300.592 170.251 300.833C169.676 301.068 169.023 301.186 168.293 301.186C167.613 301.186 166.988 301.068 166.419 300.833C165.857 300.592 165.368 300.245 164.954 299.794C164.545 299.342 164.227 298.789 163.998 298.133C163.775 297.478 163.664 296.732 163.664 295.897C163.664 294.784 163.853 293.838 164.23 293.059C164.607 292.273 165.145 291.676 165.844 291.268C166.549 290.854 167.387 290.646 168.358 290.646C169.286 290.646 170.096 290.854 170.789 291.268C171.488 291.682 172.029 292.282 172.412 293.068C172.802 293.847 172.997 294.79 172.997 295.897ZM165.26 295.897C165.26 296.714 165.368 297.422 165.584 298.022C165.801 298.622 166.135 299.086 166.586 299.414C167.038 299.741 167.619 299.905 168.33 299.905C169.036 299.905 169.614 299.741 170.065 299.414C170.523 299.086 170.86 298.622 171.077 298.022C171.293 297.422 171.401 296.714 171.401 295.897C171.401 295.087 171.293 294.388 171.077 293.801C170.86 293.207 170.526 292.749 170.075 292.428C169.623 292.106 169.039 291.945 168.321 291.945C167.264 291.945 166.487 292.295 165.993 292.994C165.504 293.693 165.26 294.66 165.26 295.897ZM183.735 300.981L181.926 295.062C181.845 294.809 181.768 294.562 181.694 294.32C181.626 294.073 181.561 293.838 181.499 293.615C181.443 293.386 181.391 293.176 181.341 292.984C181.298 292.786 181.261 292.616 181.23 292.474H181.165C181.14 292.616 181.106 292.786 181.063 292.984C181.02 293.176 180.967 293.386 180.905 293.615C180.85 293.844 180.788 294.085 180.72 294.339C180.652 294.586 180.574 294.837 180.488 295.09L178.595 300.981H176.86L174.059 290.813H175.654L177.12 296.426C177.219 296.797 177.312 297.165 177.399 297.53C177.491 297.889 177.569 298.229 177.63 298.551C177.698 298.866 177.748 299.141 177.779 299.376H177.853C177.89 299.222 177.93 299.036 177.974 298.82C178.023 298.603 178.076 298.375 178.131 298.133C178.193 297.886 178.258 297.642 178.326 297.4C178.394 297.153 178.462 296.921 178.53 296.705L180.404 290.813H182.065L183.874 296.695C183.967 296.992 184.057 297.301 184.143 297.623C184.236 297.945 184.319 298.257 184.394 298.56C184.468 298.857 184.52 299.123 184.551 299.358H184.626C184.65 299.148 184.697 298.888 184.765 298.579C184.833 298.269 184.91 297.929 184.997 297.558C185.089 297.187 185.185 296.81 185.284 296.426L186.769 290.813H188.337L185.525 300.981H183.735ZM203.003 300.981L201.194 295.062C201.113 294.809 201.036 294.562 200.962 294.32C200.894 294.073 200.829 293.838 200.767 293.615C200.711 293.386 200.659 293.176 200.609 292.984C200.566 292.786 200.529 292.616 200.498 292.474H200.433C200.408 292.616 200.374 292.786 200.331 292.984C200.288 293.176 200.235 293.386 200.173 293.615C200.118 293.844 200.056 294.085 199.988 294.339C199.92 294.586 199.842 294.837 199.756 295.09L197.863 300.981H196.128L193.327 290.813H194.922L196.388 296.426C196.487 296.797 196.58 297.165 196.666 297.53C196.759 297.889 196.837 298.229 196.898 298.551C196.966 298.866 197.016 299.141 197.047 299.376H197.121C197.158 299.222 197.198 299.036 197.242 298.82C197.291 298.603 197.344 298.375 197.399 298.133C197.461 297.886 197.526 297.642 197.594 297.4C197.662 297.153 197.73 296.921 197.798 296.705L199.672 290.813H201.333L203.142 296.695C203.235 296.992 203.325 297.301 203.411 297.623C203.504 297.945 203.587 298.257 203.662 298.56C203.736 298.857 203.788 299.123 203.819 299.358H203.894C203.918 299.148 203.965 298.888 204.033 298.579C204.101 298.269 204.178 297.929 204.265 297.558C204.357 297.187 204.453 296.81 204.552 296.426L206.037 290.813H207.604L204.793 300.981H203.003ZM210.8 286.564V290.878C210.8 291.126 210.794 291.376 210.781 291.63C210.769 291.877 210.747 292.106 210.716 292.316H210.819C211.029 291.958 211.295 291.658 211.616 291.417C211.944 291.169 212.315 290.984 212.73 290.86C213.144 290.73 213.583 290.665 214.047 290.665C214.863 290.665 215.544 290.795 216.088 291.055C216.639 291.314 217.05 291.716 217.322 292.261C217.6 292.805 217.739 293.51 217.739 294.376V301H216.218V294.478C216.218 293.631 216.023 292.997 215.633 292.576C215.25 292.156 214.659 291.945 213.862 291.945C213.107 291.945 212.504 292.091 212.052 292.381C211.607 292.666 211.286 293.086 211.088 293.643C210.896 294.2 210.8 294.88 210.8 295.684V301H209.26V286.564H210.8ZM224.516 290.665C225.728 290.665 226.628 290.937 227.216 291.481C227.803 292.026 228.097 292.895 228.097 294.088V301H226.975L226.678 299.497H226.603C226.319 299.868 226.022 300.181 225.713 300.434C225.404 300.681 225.045 300.87 224.637 301C224.235 301.124 223.74 301.186 223.152 301.186C222.534 301.186 221.983 301.077 221.501 300.861C221.025 300.644 220.647 300.317 220.369 299.877C220.097 299.438 219.961 298.882 219.961 298.208C219.961 297.193 220.363 296.414 221.167 295.87C221.971 295.325 223.196 295.028 224.841 294.979L226.594 294.905V294.283C226.594 293.405 226.405 292.79 226.028 292.437C225.651 292.084 225.119 291.908 224.433 291.908C223.901 291.908 223.393 291.986 222.911 292.14C222.429 292.295 221.971 292.477 221.538 292.688L221.065 291.519C221.523 291.284 222.048 291.083 222.642 290.916C223.236 290.749 223.86 290.665 224.516 290.665ZM226.576 295.99L225.026 296.055C223.758 296.105 222.865 296.312 222.345 296.677C221.826 297.042 221.566 297.558 221.566 298.226C221.566 298.807 221.742 299.237 222.095 299.516C222.447 299.794 222.914 299.933 223.495 299.933C224.398 299.933 225.138 299.683 225.713 299.182C226.288 298.681 226.576 297.929 226.576 296.927V295.99ZM234.354 299.924C234.608 299.924 234.867 299.902 235.133 299.859C235.399 299.816 235.616 299.763 235.783 299.701V300.898C235.603 300.978 235.353 301.046 235.031 301.102C234.716 301.158 234.407 301.186 234.104 301.186C233.566 301.186 233.077 301.093 232.638 300.907C232.199 300.715 231.846 300.394 231.58 299.942C231.32 299.491 231.191 298.866 231.191 298.068V292.038H229.743V291.287L231.2 290.684L231.812 288.476H232.74V290.832H235.718V292.038H232.74V298.022C232.74 298.659 232.885 299.135 233.176 299.451C233.473 299.766 233.865 299.924 234.354 299.924ZM240.773 290.832H242.424L244.669 296.732C244.799 297.079 244.92 297.413 245.031 297.734C245.143 298.05 245.242 298.353 245.328 298.644C245.415 298.934 245.483 299.216 245.532 299.488H245.597C245.684 299.179 245.807 298.773 245.968 298.272C246.129 297.765 246.302 297.249 246.488 296.723L248.612 290.832H250.273L245.848 302.494C245.613 303.118 245.337 303.663 245.022 304.126C244.713 304.59 244.335 304.946 243.89 305.193C243.445 305.447 242.907 305.574 242.276 305.574C241.985 305.574 241.729 305.555 241.506 305.518C241.283 305.487 241.091 305.45 240.931 305.407V304.173C241.067 304.204 241.231 304.232 241.422 304.256C241.62 304.281 241.824 304.293 242.035 304.293C242.418 304.293 242.749 304.219 243.027 304.071C243.312 303.929 243.556 303.718 243.76 303.44C243.964 303.162 244.141 302.831 244.289 302.447L244.846 301.019L240.773 290.832ZM260.464 295.897C260.464 296.732 260.355 297.478 260.139 298.133C259.922 298.789 259.61 299.342 259.202 299.794C258.794 300.245 258.299 300.592 257.717 300.833C257.142 301.068 256.49 301.186 255.76 301.186C255.08 301.186 254.455 301.068 253.886 300.833C253.323 300.592 252.834 300.245 252.42 299.794C252.012 299.342 251.693 298.789 251.465 298.133C251.242 297.478 251.131 296.732 251.131 295.897C251.131 294.784 251.319 293.838 251.696 293.059C252.074 292.273 252.612 291.676 253.311 291.268C254.016 290.854 254.854 290.646 255.825 290.646C256.753 290.646 257.563 290.854 258.256 291.268C258.954 291.682 259.496 292.282 259.879 293.068C260.269 293.847 260.464 294.79 260.464 295.897ZM252.726 295.897C252.726 296.714 252.834 297.422 253.051 298.022C253.267 298.622 253.601 299.086 254.053 299.414C254.504 299.741 255.086 299.905 255.797 299.905C256.502 299.905 257.08 299.741 257.532 299.414C257.99 299.086 258.327 298.622 258.543 298.022C258.76 297.422 258.868 296.714 258.868 295.897C258.868 295.087 258.76 294.388 258.543 293.801C258.327 293.207 257.993 292.749 257.541 292.428C257.09 292.106 256.505 291.945 255.788 291.945C254.73 291.945 253.954 292.295 253.459 292.994C252.971 293.693 252.726 294.66 252.726 295.897ZM271.322 290.832V301H270.06L269.838 299.571H269.754C269.544 299.924 269.272 300.221 268.938 300.462C268.604 300.703 268.227 300.882 267.806 301C267.392 301.124 266.949 301.186 266.479 301.186C265.675 301.186 265.001 301.056 264.457 300.796C263.913 300.536 263.501 300.134 263.223 299.59C262.951 299.046 262.815 298.347 262.815 297.493V290.832H264.373V297.382C264.373 298.229 264.565 298.863 264.949 299.284C265.332 299.698 265.917 299.905 266.702 299.905C267.457 299.905 268.057 299.763 268.502 299.479C268.953 299.194 269.278 298.777 269.476 298.226C269.674 297.669 269.773 296.989 269.773 296.185V290.832H271.322ZM275.594 287.437L275.733 287.641C275.622 288.092 275.479 288.578 275.306 289.097C275.133 289.611 274.944 290.124 274.74 290.637C274.536 291.151 274.332 291.633 274.128 292.084H272.996C273.089 291.732 273.182 291.355 273.275 290.953C273.373 290.551 273.466 290.142 273.553 289.728C273.639 289.314 273.717 288.912 273.785 288.522C273.859 288.132 273.921 287.771 273.97 287.437H275.594ZM282.027 290.646C282.231 290.646 282.445 290.659 282.667 290.684C282.89 290.702 283.088 290.73 283.261 290.767L283.066 292.196C282.899 292.153 282.714 292.118 282.51 292.094C282.305 292.069 282.114 292.057 281.934 292.057C281.526 292.057 281.14 292.14 280.775 292.307C280.416 292.468 280.101 292.703 279.828 293.012C279.556 293.315 279.343 293.683 279.188 294.116C279.034 294.543 278.956 295.019 278.956 295.545V301H277.407V290.832H278.687L278.854 292.706H278.919C279.13 292.329 279.383 291.986 279.68 291.676C279.977 291.361 280.32 291.11 280.71 290.925C281.106 290.739 281.545 290.646 282.027 290.646ZM288.896 290.646C289.762 290.646 290.505 290.838 291.123 291.222C291.742 291.605 292.215 292.143 292.542 292.836C292.87 293.522 293.034 294.326 293.034 295.248V296.204H286.011C286.03 297.397 286.327 298.306 286.902 298.931C287.477 299.556 288.287 299.868 289.333 299.868C289.976 299.868 290.545 299.809 291.04 299.692C291.534 299.574 292.048 299.401 292.58 299.172V300.527C292.066 300.756 291.556 300.923 291.049 301.028C290.548 301.133 289.954 301.186 289.268 301.186C288.29 301.186 287.437 300.988 286.707 300.592C285.983 300.19 285.421 299.602 285.019 298.829C284.617 298.056 284.416 297.11 284.416 295.99C284.416 294.896 284.598 293.949 284.963 293.151C285.334 292.347 285.854 291.729 286.521 291.296C287.196 290.863 287.987 290.646 288.896 290.646ZM288.878 291.908C288.055 291.908 287.4 292.177 286.911 292.715C286.423 293.253 286.132 294.005 286.039 294.97H291.42C291.414 294.364 291.318 293.832 291.132 293.374C290.953 292.91 290.678 292.551 290.307 292.298C289.936 292.038 289.459 291.908 288.878 291.908ZM301.735 301H300.186V286.564H301.735V301ZM313.559 295.897C313.559 296.732 313.45 297.478 313.234 298.133C313.018 298.789 312.705 299.342 312.297 299.794C311.889 300.245 311.394 300.592 310.813 300.833C310.237 301.068 309.585 301.186 308.855 301.186C308.175 301.186 307.55 301.068 306.981 300.833C306.418 300.592 305.93 300.245 305.515 299.794C305.107 299.342 304.789 298.789 304.56 298.133C304.337 297.478 304.226 296.732 304.226 295.897C304.226 294.784 304.414 293.838 304.792 293.059C305.169 292.273 305.707 291.676 306.406 291.268C307.111 290.854 307.949 290.646 308.92 290.646C309.848 290.646 310.658 290.854 311.351 291.268C312.05 291.682 312.591 292.282 312.974 293.068C313.364 293.847 313.559 294.79 313.559 295.897ZM305.821 295.897C305.821 296.714 305.93 297.422 306.146 298.022C306.363 298.622 306.697 299.086 307.148 299.414C307.6 299.741 308.181 299.905 308.892 299.905C309.597 299.905 310.176 299.741 310.627 299.414C311.085 299.086 311.422 298.622 311.638 298.022C311.855 297.422 311.963 296.714 311.963 295.897C311.963 295.087 311.855 294.388 311.638 293.801C311.422 293.207 311.088 292.749 310.636 292.428C310.185 292.106 309.6 291.945 308.883 291.945C307.825 291.945 307.049 292.295 306.554 292.994C306.066 293.693 305.821 294.66 305.821 295.897ZM324.788 295.897C324.788 296.732 324.68 297.478 324.464 298.133C324.247 298.789 323.935 299.342 323.527 299.794C323.118 300.245 322.624 300.592 322.042 300.833C321.467 301.068 320.815 301.186 320.085 301.186C319.404 301.186 318.78 301.068 318.211 300.833C317.648 300.592 317.159 300.245 316.745 299.794C316.337 299.342 316.018 298.789 315.789 298.133C315.567 297.478 315.455 296.732 315.455 295.897C315.455 294.784 315.644 293.838 316.021 293.059C316.399 292.273 316.937 291.676 317.636 291.268C318.341 290.854 319.179 290.646 320.15 290.646C321.077 290.646 321.888 290.854 322.58 291.268C323.279 291.682 323.82 292.282 324.204 293.068C324.594 293.847 324.788 294.79 324.788 295.897ZM317.051 295.897C317.051 296.714 317.159 297.422 317.376 298.022C317.592 298.622 317.926 299.086 318.378 299.414C318.829 299.741 319.411 299.905 320.122 299.905C320.827 299.905 321.405 299.741 321.857 299.414C322.314 299.086 322.651 298.622 322.868 298.022C323.084 297.422 323.193 296.714 323.193 295.897C323.193 295.087 323.084 294.388 322.868 293.801C322.651 293.207 322.318 292.749 321.866 292.428C321.415 292.106 320.83 291.945 320.113 291.945C319.055 291.945 318.279 292.295 317.784 292.994C317.295 293.693 317.051 294.66 317.051 295.897ZM328.782 286.564V294.061C328.782 294.308 328.772 294.611 328.754 294.97C328.735 295.322 328.72 295.635 328.708 295.907H328.772C328.902 295.746 329.091 295.508 329.338 295.192C329.592 294.877 329.805 294.623 329.979 294.432L333.355 290.832H335.165L331.073 295.174L335.461 301H333.606L330.016 296.185L328.782 297.317V301H327.251V286.564H328.782ZM338.573 290.832V301H337.033V290.832H338.573ZM337.822 287.028C338.076 287.028 338.292 287.112 338.471 287.279C338.657 287.44 338.75 287.693 338.75 288.04C338.75 288.38 338.657 288.633 338.471 288.8C338.292 288.967 338.076 289.051 337.822 289.051C337.556 289.051 337.333 288.967 337.154 288.8C336.981 288.633 336.894 288.38 336.894 288.04C336.894 287.693 336.981 287.44 337.154 287.279C337.333 287.112 337.556 287.028 337.822 287.028ZM346.454 290.646C347.66 290.646 348.572 290.943 349.191 291.537C349.809 292.125 350.119 293.071 350.119 294.376V301H348.597V294.478C348.597 293.631 348.402 292.997 348.013 292.576C347.629 292.156 347.038 291.945 346.241 291.945C345.115 291.945 344.323 292.264 343.866 292.901C343.408 293.538 343.179 294.463 343.179 295.675V301H341.639V290.832H342.882L343.114 292.298H343.198C343.414 291.939 343.689 291.639 344.023 291.398C344.357 291.151 344.731 290.965 345.146 290.841C345.56 290.711 345.996 290.646 346.454 290.646ZM355.93 305.564C354.594 305.564 353.565 305.314 352.841 304.813C352.117 304.318 351.755 303.622 351.755 302.726C351.755 302.089 351.956 301.544 352.358 301.093C352.767 300.641 353.33 300.341 354.047 300.193C353.781 300.069 353.552 299.884 353.36 299.636C353.175 299.389 353.082 299.104 353.082 298.783C353.082 298.412 353.184 298.087 353.388 297.809C353.599 297.524 353.917 297.252 354.344 296.992C353.812 296.776 353.379 296.411 353.045 295.897C352.717 295.378 352.553 294.775 352.553 294.088C352.553 293.359 352.705 292.737 353.008 292.224C353.311 291.704 353.75 291.308 354.325 291.036C354.9 290.764 355.596 290.628 356.413 290.628C356.592 290.628 356.771 290.637 356.951 290.656C357.136 290.668 357.313 290.69 357.48 290.721C357.647 290.745 357.792 290.776 357.916 290.813H361.404V291.806L359.53 292.038C359.715 292.279 359.87 292.57 359.994 292.91C360.117 293.25 360.179 293.628 360.179 294.042C360.179 295.056 359.836 295.863 359.15 296.463C358.463 297.057 357.52 297.354 356.32 297.354C356.035 297.354 355.745 297.329 355.448 297.28C355.145 297.447 354.913 297.632 354.752 297.836C354.597 298.041 354.52 298.276 354.52 298.542C354.52 298.739 354.579 298.897 354.696 299.015C354.82 299.132 354.996 299.219 355.225 299.274C355.454 299.324 355.729 299.349 356.051 299.349H357.841C358.948 299.349 359.796 299.581 360.383 300.044C360.977 300.508 361.274 301.186 361.274 302.076C361.274 303.202 360.816 304.065 359.901 304.665C358.986 305.264 357.662 305.564 355.93 305.564ZM355.977 304.358C356.818 304.358 357.514 304.272 358.064 304.099C358.621 303.932 359.035 303.687 359.307 303.366C359.586 303.05 359.725 302.673 359.725 302.234C359.725 301.826 359.632 301.516 359.446 301.306C359.261 301.102 358.989 300.966 358.63 300.898C358.271 300.824 357.832 300.787 357.313 300.787H355.55C355.092 300.787 354.693 300.858 354.353 301C354.013 301.142 353.75 301.353 353.565 301.631C353.385 301.909 353.296 302.256 353.296 302.67C353.296 303.22 353.527 303.638 353.991 303.922C354.455 304.213 355.117 304.358 355.977 304.358ZM356.376 296.231C357.112 296.231 357.665 296.046 358.036 295.675C358.407 295.304 358.593 294.763 358.593 294.051C358.593 293.291 358.404 292.722 358.027 292.344C357.65 291.961 357.093 291.769 356.357 291.769C355.652 291.769 355.108 291.967 354.724 292.363C354.347 292.752 354.158 293.325 354.158 294.079C354.158 294.772 354.35 295.304 354.733 295.675C355.117 296.046 355.664 296.231 356.376 296.231ZM372.471 292.038H369.938V301H368.398V292.038H366.598V291.296L368.398 290.786V290.108C368.398 289.255 368.525 288.562 368.778 288.03C369.032 287.492 369.4 287.096 369.882 286.843C370.365 286.589 370.952 286.462 371.645 286.462C372.035 286.462 372.39 286.496 372.712 286.564C373.04 286.632 373.327 286.71 373.575 286.796L373.176 288.012C372.965 287.944 372.727 287.882 372.461 287.826C372.202 287.764 371.936 287.733 371.664 287.733C371.076 287.733 370.64 287.925 370.355 288.309C370.077 288.686 369.938 289.28 369.938 290.09V290.832H372.471V292.038ZM382.912 295.897C382.912 296.732 382.804 297.478 382.587 298.133C382.371 298.789 382.058 299.342 381.65 299.794C381.242 300.245 380.747 300.592 380.166 300.833C379.591 301.068 378.938 301.186 378.208 301.186C377.528 301.186 376.903 301.068 376.334 300.833C375.771 300.592 375.283 300.245 374.868 299.794C374.46 299.342 374.142 298.789 373.913 298.133C373.69 297.478 373.579 296.732 373.579 295.897C373.579 294.784 373.767 293.838 374.145 293.059C374.522 292.273 375.06 291.676 375.759 291.268C376.464 290.854 377.302 290.646 378.273 290.646C379.201 290.646 380.011 290.854 380.704 291.268C381.403 291.682 381.944 292.282 382.327 293.068C382.717 293.847 382.912 294.79 382.912 295.897ZM375.174 295.897C375.174 296.714 375.283 297.422 375.499 298.022C375.716 298.622 376.05 299.086 376.501 299.414C376.953 299.741 377.534 299.905 378.245 299.905C378.95 299.905 379.529 299.741 379.98 299.414C380.438 299.086 380.775 298.622 380.991 298.022C381.208 297.422 381.316 296.714 381.316 295.897C381.316 295.087 381.208 294.388 380.991 293.801C380.775 293.207 380.441 292.749 379.989 292.428C379.538 292.106 378.953 291.945 378.236 291.945C377.178 291.945 376.402 292.295 375.907 292.994C375.419 293.693 375.174 294.66 375.174 295.897ZM389.995 290.646C390.199 290.646 390.412 290.659 390.635 290.684C390.857 290.702 391.055 290.73 391.228 290.767L391.034 292.196C390.867 292.153 390.681 292.118 390.477 292.094C390.273 292.069 390.081 292.057 389.902 292.057C389.494 292.057 389.107 292.14 388.742 292.307C388.383 292.468 388.068 292.703 387.796 293.012C387.524 293.315 387.31 293.683 387.156 294.116C387.001 294.543 386.924 295.019 386.924 295.545V301H385.374V290.832H386.655L386.822 292.706H386.887C387.097 292.329 387.35 291.986 387.647 291.676C387.944 291.361 388.288 291.11 388.677 290.925C389.073 290.739 389.512 290.646 389.995 290.646ZM401.488 290.665C402.7 290.665 403.6 290.937 404.188 291.481C404.775 292.026 405.069 292.895 405.069 294.088V301H403.947L403.65 299.497H403.575C403.291 299.868 402.994 300.181 402.685 300.434C402.376 300.681 402.017 300.87 401.609 301C401.207 301.124 400.712 301.186 400.124 301.186C399.506 301.186 398.955 301.077 398.473 300.861C397.997 300.644 397.619 300.317 397.341 299.877C397.069 299.438 396.933 298.882 396.933 298.208C396.933 297.193 397.335 296.414 398.139 295.87C398.943 295.325 400.168 295.028 401.813 294.979L403.566 294.905V294.283C403.566 293.405 403.378 292.79 403 292.437C402.623 292.084 402.091 291.908 401.405 291.908C400.873 291.908 400.366 291.986 399.883 292.14C399.401 292.295 398.943 292.477 398.51 292.688L398.037 291.519C398.495 291.284 399.02 291.083 399.614 290.916C400.208 290.749 400.832 290.665 401.488 290.665ZM403.548 295.99L401.998 296.055C400.73 296.105 399.837 296.312 399.317 296.677C398.798 297.042 398.538 297.558 398.538 298.226C398.538 298.807 398.714 299.237 399.067 299.516C399.419 299.794 399.886 299.933 400.468 299.933C401.371 299.933 402.11 299.683 402.685 299.182C403.26 298.681 403.548 297.929 403.548 296.927V295.99ZM412.857 290.646C414.063 290.646 414.975 290.943 415.594 291.537C416.212 292.125 416.521 293.071 416.521 294.376V301H415V294.478C415 293.631 414.805 292.997 414.416 292.576C414.032 292.156 413.441 291.945 412.644 291.945C411.518 291.945 410.726 292.264 410.269 292.901C409.811 293.538 409.582 294.463 409.582 295.675V301H408.042V290.832H409.285L409.517 292.298H409.601C409.817 291.939 410.092 291.639 410.426 291.398C410.76 291.151 411.134 290.965 411.549 290.841C411.963 290.711 412.399 290.646 412.857 290.646ZM423.112 301.186C421.826 301.186 420.806 300.746 420.051 299.868C419.303 298.99 418.928 297.685 418.928 295.953C418.928 294.203 419.312 292.882 420.079 291.992C420.846 291.095 421.866 290.646 423.14 290.646C423.678 290.646 424.148 290.718 424.55 290.86C424.952 291.002 425.299 291.194 425.59 291.435C425.88 291.67 426.125 291.939 426.322 292.242H426.434C426.409 292.05 426.384 291.788 426.36 291.454C426.335 291.12 426.322 290.847 426.322 290.637V286.564H427.862V301H426.619L426.387 299.553H426.322C426.131 299.856 425.886 300.131 425.59 300.378C425.299 300.626 424.949 300.824 424.541 300.972C424.139 301.114 423.663 301.186 423.112 301.186ZM423.354 299.905C424.442 299.905 425.212 299.596 425.664 298.978C426.115 298.359 426.341 297.441 426.341 296.222V295.944C426.341 294.651 426.125 293.659 425.692 292.966C425.265 292.273 424.486 291.927 423.354 291.927C422.407 291.927 421.699 292.292 421.229 293.021C420.759 293.745 420.524 294.735 420.524 295.99C420.524 297.24 420.756 298.204 421.22 298.885C421.69 299.565 422.401 299.905 423.354 299.905ZM443.939 300.981L442.13 295.062C442.05 294.809 441.972 294.562 441.898 294.32C441.83 294.073 441.765 293.838 441.703 293.615C441.648 293.386 441.595 293.176 441.546 292.984C441.502 292.786 441.465 292.616 441.434 292.474H441.369C441.344 292.616 441.31 292.786 441.267 292.984C441.224 293.176 441.171 293.386 441.109 293.615C441.054 293.844 440.992 294.085 440.924 294.339C440.856 294.586 440.779 294.837 440.692 295.09L438.799 300.981H437.065L434.263 290.813H435.858L437.324 296.426C437.423 296.797 437.516 297.165 437.603 297.53C437.695 297.889 437.773 298.229 437.835 298.551C437.903 298.866 437.952 299.141 437.983 299.376H438.057C438.094 299.222 438.135 299.036 438.178 298.82C438.227 298.603 438.28 298.375 438.336 298.133C438.397 297.886 438.462 297.642 438.53 297.4C438.598 297.153 438.666 296.921 438.734 296.705L440.608 290.813H442.269L444.078 296.695C444.171 296.992 444.261 297.301 444.347 297.623C444.44 297.945 444.524 298.257 444.598 298.56C444.672 298.857 444.725 299.123 444.755 299.358H444.83C444.854 299.148 444.901 298.888 444.969 298.579C445.037 298.269 445.114 297.929 445.201 297.558C445.294 297.187 445.389 296.81 445.488 296.426L446.973 290.813H448.541L445.73 300.981H443.939ZM454.111 290.646C454.977 290.646 455.719 290.838 456.338 291.222C456.956 291.605 457.429 292.143 457.757 292.836C458.085 293.522 458.249 294.326 458.249 295.248V296.204H451.226C451.244 297.397 451.541 298.306 452.116 298.931C452.692 299.556 453.502 299.868 454.547 299.868C455.19 299.868 455.759 299.809 456.254 299.692C456.749 299.574 457.262 299.401 457.794 299.172V300.527C457.281 300.756 456.771 300.923 456.263 301.028C455.762 301.133 455.169 301.186 454.482 301.186C453.505 301.186 452.651 300.988 451.922 300.592C451.198 300.19 450.635 299.602 450.233 298.829C449.831 298.056 449.63 297.11 449.63 295.99C449.63 294.896 449.813 293.949 450.178 293.151C450.549 292.347 451.068 291.729 451.736 291.296C452.41 290.863 453.202 290.646 454.111 290.646ZM454.093 291.908C453.27 291.908 452.614 292.177 452.126 292.715C451.637 293.253 451.346 294.005 451.254 294.97H456.635C456.628 294.364 456.533 293.832 456.347 293.374C456.168 292.91 455.892 292.551 455.521 292.298C455.15 292.038 454.674 291.908 454.093 291.908ZM461.88 287.437L462.02 287.641C461.908 288.092 461.766 288.578 461.593 289.097C461.42 289.611 461.231 290.124 461.027 290.637C460.823 291.151 460.619 291.633 460.415 292.084H459.283C459.375 291.732 459.468 291.355 459.561 290.953C459.66 290.551 459.753 290.142 459.839 289.728C459.926 289.314 460.003 288.912 460.071 288.522C460.146 288.132 460.207 287.771 460.257 287.437H461.88ZM465.243 301H463.694V286.564H465.243V301ZM469.849 301H468.299V286.564H469.849V301ZM480.479 305.564C479.143 305.564 478.114 305.314 477.39 304.813C476.666 304.318 476.304 303.622 476.304 302.726C476.304 302.089 476.505 301.544 476.908 301.093C477.316 300.641 477.879 300.341 478.596 300.193C478.33 300.069 478.101 299.884 477.909 299.636C477.724 299.389 477.631 299.104 477.631 298.783C477.631 298.412 477.733 298.087 477.937 297.809C478.148 297.524 478.466 297.252 478.893 296.992C478.361 296.776 477.928 296.411 477.594 295.897C477.266 295.378 477.102 294.775 477.102 294.088C477.102 293.359 477.254 292.737 477.557 292.224C477.86 291.704 478.299 291.308 478.874 291.036C479.449 290.764 480.145 290.628 480.962 290.628C481.141 290.628 481.32 290.637 481.5 290.656C481.685 290.668 481.862 290.69 482.029 290.721C482.196 290.745 482.341 290.776 482.465 290.813H485.953V291.806L484.079 292.038C484.264 292.279 484.419 292.57 484.543 292.91C484.666 293.25 484.728 293.628 484.728 294.042C484.728 295.056 484.385 295.863 483.699 296.463C483.012 297.057 482.069 297.354 480.869 297.354C480.584 297.354 480.294 297.329 479.997 297.28C479.694 297.447 479.462 297.632 479.301 297.836C479.146 298.041 479.069 298.276 479.069 298.542C479.069 298.739 479.128 298.897 479.245 299.015C479.369 299.132 479.545 299.219 479.774 299.274C480.003 299.324 480.278 299.349 480.6 299.349H482.39C483.498 299.349 484.345 299.581 484.932 300.044C485.526 300.508 485.823 301.186 485.823 302.076C485.823 303.202 485.365 304.065 484.45 304.665C483.535 305.264 482.211 305.564 480.479 305.564ZM480.526 304.358C481.367 304.358 482.063 304.272 482.613 304.099C483.17 303.932 483.584 303.687 483.856 303.366C484.135 303.05 484.274 302.673 484.274 302.234C484.274 301.826 484.181 301.516 483.995 301.306C483.81 301.102 483.538 300.966 483.179 300.898C482.82 300.824 482.381 300.787 481.862 300.787H480.099C479.641 300.787 479.242 300.858 478.902 301C478.562 301.142 478.299 301.353 478.114 301.631C477.934 301.909 477.845 302.256 477.845 302.67C477.845 303.22 478.076 303.638 478.54 303.922C479.004 304.213 479.666 304.358 480.526 304.358ZM480.925 296.231C481.661 296.231 482.214 296.046 482.585 295.675C482.956 295.304 483.142 294.763 483.142 294.051C483.142 293.291 482.953 292.722 482.576 292.344C482.199 291.961 481.642 291.769 480.906 291.769C480.201 291.769 479.657 291.967 479.273 292.363C478.896 292.752 478.707 293.325 478.707 294.079C478.707 294.772 478.899 295.304 479.283 295.675C479.666 296.046 480.213 296.231 480.925 296.231ZM491.672 290.646C492.538 290.646 493.28 290.838 493.898 291.222C494.517 291.605 494.99 292.143 495.318 292.836C495.646 293.522 495.81 294.326 495.81 295.248V296.204H488.787C488.805 297.397 489.102 298.306 489.677 298.931C490.252 299.556 491.063 299.868 492.108 299.868C492.751 299.868 493.32 299.809 493.815 299.692C494.31 299.574 494.823 299.401 495.355 299.172V300.527C494.842 300.756 494.331 300.923 493.824 301.028C493.323 301.133 492.729 301.186 492.043 301.186C491.066 301.186 490.212 300.988 489.482 300.592C488.759 300.19 488.196 299.602 487.794 298.829C487.392 298.056 487.191 297.11 487.191 295.99C487.191 294.896 487.373 293.949 487.738 293.151C488.109 292.347 488.629 291.729 489.297 291.296C489.971 290.863 490.763 290.646 491.672 290.646ZM491.653 291.908C490.831 291.908 490.175 292.177 489.687 292.715C489.198 293.253 488.907 294.005 488.814 294.97H494.195C494.189 294.364 494.093 293.832 493.908 293.374C493.728 292.91 493.453 292.551 493.082 292.298C492.711 292.038 492.235 291.908 491.653 291.908ZM501.51 299.924C501.764 299.924 502.023 299.902 502.289 299.859C502.555 299.816 502.772 299.763 502.939 299.701V300.898C502.759 300.978 502.509 301.046 502.187 301.102C501.872 301.158 501.563 301.186 501.259 301.186C500.721 301.186 500.233 301.093 499.794 300.907C499.355 300.715 499.002 300.394 498.736 299.942C498.476 299.491 498.346 298.866 498.346 298.068V292.038H496.899V291.287L498.356 290.684L498.968 288.476H499.896V290.832H502.874V292.038H499.896V298.022C499.896 298.659 500.041 299.135 500.332 299.451C500.629 299.766 501.021 299.924 501.51 299.924ZM202.39 318.564V322.173C202.39 322.588 202.377 322.99 202.352 323.379C202.334 323.769 202.318 324.072 202.306 324.289H202.39C202.668 323.831 203.07 323.444 203.596 323.129C204.121 322.813 204.792 322.656 205.609 322.656C206.883 322.656 207.897 323.098 208.652 323.982C209.413 324.861 209.793 326.169 209.793 327.907C209.793 329.051 209.62 330.016 209.273 330.801C208.927 331.587 208.438 332.181 207.808 332.583C207.177 332.985 206.431 333.186 205.572 333.186C204.768 333.186 204.106 333.037 203.586 332.74C203.073 332.437 202.677 332.069 202.399 331.636H202.278L201.963 333H200.85V318.564H202.39ZM205.358 323.945C204.622 323.945 204.038 324.091 203.605 324.381C203.172 324.666 202.86 325.099 202.668 325.68C202.482 326.255 202.39 326.985 202.39 327.87V327.953C202.39 329.233 202.603 330.214 203.03 330.894C203.456 331.568 204.233 331.905 205.358 331.905C206.305 331.905 207.013 331.559 207.483 330.866C207.959 330.174 208.197 329.184 208.197 327.897C208.197 326.586 207.962 325.6 207.492 324.938C207.028 324.276 206.317 323.945 205.358 323.945ZM216.087 322.665C217.299 322.665 218.199 322.937 218.787 323.481C219.374 324.026 219.668 324.895 219.668 326.088V333H218.546L218.249 331.497H218.174C217.89 331.868 217.593 332.181 217.284 332.434C216.975 332.681 216.616 332.87 216.208 333C215.806 333.124 215.311 333.186 214.723 333.186C214.105 333.186 213.554 333.077 213.072 332.861C212.596 332.644 212.218 332.317 211.94 331.877C211.668 331.438 211.532 330.882 211.532 330.208C211.532 329.193 211.934 328.414 212.738 327.87C213.542 327.325 214.767 327.028 216.412 326.979L218.165 326.905V326.283C218.165 325.405 217.977 324.79 217.599 324.437C217.222 324.084 216.69 323.908 216.004 323.908C215.472 323.908 214.964 323.986 214.482 324.14C214 324.295 213.542 324.477 213.109 324.688L212.636 323.519C213.094 323.284 213.619 323.083 214.213 322.916C214.807 322.749 215.431 322.665 216.087 322.665ZM218.147 327.99L216.597 328.055C215.329 328.105 214.436 328.312 213.916 328.677C213.397 329.042 213.137 329.558 213.137 330.226C213.137 330.807 213.313 331.237 213.666 331.516C214.018 331.794 214.485 331.933 215.067 331.933C215.97 331.933 216.709 331.683 217.284 331.182C217.859 330.681 218.147 329.929 218.147 328.927V327.99ZM226.714 333.186C225.798 333.186 224.991 332.997 224.292 332.62C223.593 332.242 223.049 331.667 222.659 330.894C222.27 330.121 222.075 329.147 222.075 327.972C222.075 326.741 222.279 325.736 222.687 324.957C223.102 324.171 223.671 323.59 224.394 323.212C225.118 322.835 225.941 322.646 226.862 322.646C227.369 322.646 227.858 322.699 228.328 322.804C228.804 322.903 229.194 323.03 229.497 323.185L229.033 324.474C228.724 324.35 228.365 324.239 227.957 324.14C227.555 324.041 227.178 323.992 226.825 323.992C226.12 323.992 225.532 324.143 225.062 324.446C224.598 324.749 224.249 325.195 224.014 325.782C223.785 326.37 223.671 327.093 223.671 327.953C223.671 328.776 223.782 329.478 224.005 330.059C224.234 330.64 224.571 331.086 225.016 331.395C225.467 331.698 226.03 331.85 226.704 331.85C227.242 331.85 227.728 331.794 228.161 331.683C228.594 331.565 228.987 331.429 229.339 331.274V332.647C228.999 332.821 228.619 332.954 228.198 333.046C227.784 333.139 227.289 333.186 226.714 333.186ZM233.082 318.564V326.061C233.082 326.308 233.073 326.611 233.054 326.97C233.036 327.322 233.02 327.635 233.008 327.907H233.073C233.203 327.746 233.391 327.508 233.639 327.192C233.892 326.877 234.106 326.623 234.279 326.432L237.656 322.832H239.465L235.374 327.174L239.762 333H237.906L234.316 328.185L233.082 329.317V333H231.551V318.564H233.082ZM254.345 332.981L252.536 327.062C252.455 326.809 252.378 326.562 252.304 326.32C252.236 326.073 252.171 325.838 252.109 325.615C252.053 325.386 252.001 325.176 251.951 324.984C251.908 324.786 251.871 324.616 251.84 324.474H251.775C251.75 324.616 251.716 324.786 251.673 324.984C251.629 325.176 251.577 325.386 251.515 325.615C251.459 325.844 251.398 326.085 251.329 326.339C251.261 326.586 251.184 326.837 251.098 327.09L249.205 332.981H247.47L244.668 322.813H246.264L247.73 328.426C247.829 328.797 247.922 329.165 248.008 329.53C248.101 329.889 248.178 330.229 248.24 330.551C248.308 330.866 248.358 331.141 248.389 331.376H248.463C248.5 331.222 248.54 331.036 248.583 330.82C248.633 330.603 248.685 330.375 248.741 330.133C248.803 329.886 248.868 329.642 248.936 329.4C249.004 329.153 249.072 328.921 249.14 328.705L251.014 322.813H252.675L254.484 328.695C254.577 328.992 254.666 329.301 254.753 329.623C254.846 329.945 254.929 330.257 255.003 330.56C255.078 330.857 255.13 331.123 255.161 331.358H255.235C255.26 331.148 255.306 330.888 255.374 330.579C255.442 330.269 255.52 329.929 255.606 329.558C255.699 329.187 255.795 328.81 255.894 328.426L257.378 322.813H258.946L256.135 332.981H254.345ZM262.142 322.832V333H260.602V322.832H262.142ZM261.39 319.028C261.644 319.028 261.86 319.112 262.04 319.279C262.225 319.44 262.318 319.693 262.318 320.04C262.318 320.38 262.225 320.633 262.04 320.8C261.86 320.967 261.644 321.051 261.39 321.051C261.124 321.051 260.902 320.967 260.722 320.8C260.549 320.633 260.463 320.38 260.463 320.04C260.463 319.693 260.549 319.44 260.722 319.279C260.902 319.112 261.124 319.028 261.39 319.028ZM268.492 331.924C268.745 331.924 269.005 331.902 269.271 331.859C269.537 331.816 269.753 331.763 269.92 331.701V332.898C269.741 332.978 269.49 333.046 269.169 333.102C268.853 333.158 268.544 333.186 268.241 333.186C267.703 333.186 267.214 333.093 266.775 332.907C266.336 332.715 265.984 332.394 265.718 331.942C265.458 331.491 265.328 330.866 265.328 330.068V324.038H263.881V323.287L265.337 322.684L265.95 320.476H266.877V322.832H269.855V324.038H266.877V330.022C266.877 330.659 267.023 331.135 267.313 331.451C267.61 331.766 268.003 331.924 268.492 331.924ZM273.32 318.564V322.878C273.32 323.126 273.314 323.376 273.301 323.63C273.289 323.877 273.267 324.106 273.236 324.316H273.338C273.549 323.958 273.815 323.658 274.136 323.417C274.464 323.169 274.835 322.984 275.25 322.86C275.664 322.73 276.103 322.665 276.567 322.665C277.383 322.665 278.064 322.795 278.608 323.055C279.158 323.314 279.57 323.716 279.842 324.261C280.12 324.805 280.259 325.51 280.259 326.376V333H278.738V326.478C278.738 325.631 278.543 324.997 278.153 324.576C277.77 324.156 277.179 323.945 276.381 323.945C275.627 323.945 275.024 324.091 274.572 324.381C274.127 324.666 273.805 325.086 273.607 325.643C273.416 326.2 273.32 326.88 273.32 327.684V333H271.78V318.564H273.32ZM284.772 322.832V333H283.232V322.832H284.772ZM284.021 319.028C284.274 319.028 284.491 319.112 284.67 319.279C284.856 319.44 284.948 319.693 284.948 320.04C284.948 320.38 284.856 320.633 284.67 320.8C284.491 320.967 284.274 321.051 284.021 321.051C283.755 321.051 283.532 320.967 283.353 320.8C283.18 320.633 283.093 320.38 283.093 320.04C283.093 319.693 283.18 319.44 283.353 319.279C283.532 319.112 283.755 319.028 284.021 319.028ZM292.653 322.646C293.859 322.646 294.771 322.943 295.39 323.537C296.008 324.125 296.317 325.071 296.317 326.376V333H294.796V326.478C294.796 325.631 294.601 324.997 294.211 324.576C293.828 324.156 293.237 323.945 292.439 323.945C291.314 323.945 290.522 324.264 290.064 324.901C289.607 325.538 289.378 326.463 289.378 327.675V333H287.838V322.832H289.081L289.313 324.298H289.396C289.613 323.939 289.888 323.639 290.222 323.398C290.556 323.151 290.93 322.965 291.345 322.841C291.759 322.711 292.195 322.646 292.653 322.646ZM312.227 333H303.339V331.71L306.967 328.027C307.641 327.347 308.207 326.741 308.664 326.209C309.128 325.677 309.481 325.154 309.722 324.641C309.963 324.122 310.084 323.553 310.084 322.934C310.084 322.167 309.855 321.583 309.397 321.181C308.946 320.772 308.349 320.568 307.607 320.568C306.957 320.568 306.382 320.68 305.881 320.902C305.38 321.125 304.867 321.44 304.341 321.849L303.515 320.81C303.874 320.507 304.264 320.237 304.684 320.002C305.111 319.767 305.566 319.582 306.048 319.446C306.537 319.31 307.056 319.242 307.607 319.242C308.442 319.242 309.162 319.387 309.768 319.678C310.374 319.968 310.841 320.383 311.169 320.921C311.503 321.459 311.67 322.099 311.67 322.841C311.67 323.559 311.528 324.227 311.243 324.845C310.959 325.458 310.56 326.067 310.047 326.673C309.533 327.273 308.933 327.91 308.247 328.584L305.297 331.525V331.59H312.227V333ZM323.577 329.855H321.545V333H320.042V329.855H313.483V328.556L319.94 319.362H321.545V328.463H323.577V329.855ZM320.042 328.463V324.029C320.042 323.689 320.046 323.382 320.052 323.11C320.058 322.832 320.067 322.575 320.08 322.34C320.092 322.099 320.101 321.87 320.107 321.654C320.12 321.437 320.129 321.224 320.135 321.014H320.061C319.944 321.261 319.807 321.524 319.653 321.802C319.504 322.074 319.353 322.319 319.198 322.535L315.014 328.463H320.042ZM331.647 318.564V322.878C331.647 323.126 331.641 323.376 331.629 323.63C331.616 323.877 331.595 324.106 331.564 324.316H331.666C331.876 323.958 332.142 323.658 332.464 323.417C332.792 323.169 333.163 322.984 333.577 322.86C333.991 322.73 334.431 322.665 334.894 322.665C335.711 322.665 336.391 322.795 336.935 323.055C337.486 323.314 337.897 323.716 338.169 324.261C338.448 324.805 338.587 325.51 338.587 326.376V333H337.065V326.478C337.065 325.631 336.871 324.997 336.481 324.576C336.097 324.156 335.507 323.945 334.709 323.945C333.954 323.945 333.351 324.091 332.9 324.381C332.454 324.666 332.133 325.086 331.935 325.643C331.743 326.2 331.647 326.88 331.647 327.684V333H330.107V318.564H331.647ZM350.327 327.897C350.327 328.732 350.219 329.478 350.002 330.133C349.786 330.789 349.473 331.342 349.065 331.794C348.657 332.245 348.162 332.592 347.581 332.833C347.005 333.068 346.353 333.186 345.623 333.186C344.943 333.186 344.318 333.068 343.749 332.833C343.186 332.592 342.698 332.245 342.283 331.794C341.875 331.342 341.557 330.789 341.328 330.133C341.105 329.478 340.994 328.732 340.994 327.897C340.994 326.784 341.182 325.838 341.56 325.059C341.937 324.273 342.475 323.676 343.174 323.268C343.879 322.854 344.717 322.646 345.688 322.646C346.616 322.646 347.426 322.854 348.119 323.268C348.818 323.682 349.359 324.282 349.742 325.068C350.132 325.847 350.327 326.79 350.327 327.897ZM342.589 327.897C342.589 328.714 342.698 329.422 342.914 330.022C343.131 330.622 343.465 331.086 343.916 331.414C344.368 331.741 344.949 331.905 345.66 331.905C346.365 331.905 346.944 331.741 347.395 331.414C347.853 331.086 348.19 330.622 348.406 330.022C348.623 329.422 348.731 328.714 348.731 327.897C348.731 327.087 348.623 326.388 348.406 325.801C348.19 325.207 347.856 324.749 347.404 324.428C346.953 324.106 346.368 323.945 345.651 323.945C344.593 323.945 343.817 324.295 343.322 324.994C342.834 325.693 342.589 326.66 342.589 327.897ZM361.185 322.832V333H359.924L359.701 331.571H359.617C359.407 331.924 359.135 332.221 358.801 332.462C358.467 332.703 358.09 332.882 357.669 333C357.255 333.124 356.813 333.186 356.343 333.186C355.539 333.186 354.864 333.056 354.32 332.796C353.776 332.536 353.365 332.134 353.086 331.59C352.814 331.046 352.678 330.347 352.678 329.493V322.832H354.237V329.382C354.237 330.229 354.428 330.863 354.812 331.284C355.195 331.698 355.78 331.905 356.565 331.905C357.32 331.905 357.92 331.763 358.365 331.479C358.817 331.194 359.141 330.777 359.339 330.226C359.537 329.669 359.636 328.989 359.636 328.185V322.832H361.185ZM368.862 322.646C369.066 322.646 369.279 322.659 369.502 322.684C369.725 322.702 369.923 322.73 370.096 322.767L369.901 324.196C369.734 324.153 369.548 324.118 369.344 324.094C369.14 324.069 368.948 324.057 368.769 324.057C368.361 324.057 367.974 324.14 367.609 324.307C367.251 324.468 366.935 324.703 366.663 325.012C366.391 325.315 366.178 325.683 366.023 326.116C365.868 326.543 365.791 327.019 365.791 327.545V333H364.242V322.832H365.522L365.689 324.706H365.754C365.964 324.329 366.218 323.986 366.515 323.676C366.812 323.361 367.155 323.11 367.544 322.925C367.94 322.739 368.379 322.646 368.862 322.646ZM378.394 330.217C378.394 330.866 378.23 331.414 377.902 331.859C377.58 332.298 377.117 332.629 376.51 332.852C375.911 333.074 375.193 333.186 374.358 333.186C373.647 333.186 373.031 333.13 372.512 333.019C371.992 332.907 371.538 332.75 371.148 332.545V331.126C371.563 331.33 372.057 331.516 372.633 331.683C373.208 331.85 373.795 331.933 374.395 331.933C375.273 331.933 375.911 331.791 376.306 331.506C376.702 331.222 376.9 330.835 376.9 330.347C376.9 330.068 376.82 329.824 376.659 329.614C376.504 329.397 376.241 329.19 375.87 328.992C375.499 328.788 374.986 328.565 374.33 328.324C373.681 328.077 373.118 327.833 372.642 327.591C372.172 327.344 371.807 327.044 371.547 326.691C371.293 326.339 371.167 325.881 371.167 325.318C371.167 324.459 371.513 323.8 372.206 323.342C372.905 322.878 373.82 322.646 374.952 322.646C375.564 322.646 376.136 322.708 376.668 322.832C377.206 322.95 377.707 323.11 378.171 323.314L377.652 324.548C377.231 324.369 376.783 324.217 376.306 324.094C375.83 323.97 375.345 323.908 374.85 323.908C374.139 323.908 373.591 324.026 373.208 324.261C372.83 324.496 372.642 324.817 372.642 325.226C372.642 325.541 372.728 325.801 372.902 326.005C373.081 326.209 373.365 326.401 373.755 326.58C374.145 326.759 374.658 326.97 375.295 327.211C375.932 327.446 376.483 327.69 376.946 327.944C377.41 328.191 377.766 328.494 378.013 328.853C378.267 329.206 378.394 329.66 378.394 330.217ZM380.439 332.035C380.439 331.602 380.544 331.296 380.754 331.117C380.965 330.931 381.221 330.838 381.524 330.838C381.84 330.838 382.106 330.931 382.322 331.117C382.539 331.296 382.647 331.602 382.647 332.035C382.647 332.462 382.539 332.774 382.322 332.972C382.106 333.164 381.84 333.26 381.524 333.26C381.221 333.26 380.965 333.164 380.754 332.972C380.544 332.774 380.439 332.462 380.439 332.035Z" fill="white"/>
</svg>
