<svg width="454" height="415" viewBox="0 0 454 415" fill="none" xmlns="http://www.w3.org/2000/svg">
<path d="M226.667 414.391C351.852 414.391 453.334 408.895 453.334 402.116C453.334 395.337 351.852 389.841 226.667 389.841C101.482 389.841 0 395.337 0 402.116C0 408.895 101.482 414.391 226.667 414.391Z" fill="#2FCEFF"/>
<path d="M394.913 106.696C394.913 106.696 401.813 111.108 400.957 112.507C400.51 113.238 397.958 111.627 397.958 111.627C397.958 111.627 403.049 117.36 402.584 118.403C402.034 119.636 396.756 114.947 396.756 114.947C396.756 114.947 402.896 120.419 402.11 121.249C401.394 122.006 395.401 116.37 395.401 116.37C395.401 116.37 400.08 121.632 399.002 122.266C398.057 122.821 394.046 116.912 394.046 116.912C394.046 116.912 396.358 120.449 395.266 121.046C394.374 121.533 390.113 111.208 390.113 111.208L394.913 106.696Z" fill="#FFDDD7"/>
<path d="M385.99 137.419L382.898 226.758L393.313 234.162H374.355L375.25 227.246C375.25 227.246 372.809 195.025 371.995 183.309C371.181 171.592 364.021 137.419 364.021 137.419H385.99Z" fill="#FFDEDC"/>
<path d="M389.975 231.789L375.25 227.247L374.355 234.163H393.313L389.975 231.789Z" fill="#0E2E51"/>
<path d="M382.789 137.419L379.697 226.758L390.112 234.162H371.154L372.049 227.246C372.049 227.246 369.608 195.025 368.794 183.309C367.98 171.592 360.82 137.419 360.82 137.419H382.789Z" fill="#FFE6E3"/>
<path d="M383.825 91.8086L395.736 107.081L390.052 112.073L377.217 100.705L383.825 91.8086Z" fill="#1C4070"/>
<path d="M360.745 46.0446L383.38 44.2656C383.38 44.2656 388.026 49.7016 387.729 59.8826C387.432 70.0636 386.098 83.4566 386.098 83.4566L387.852 143.603L359.591 144.295C359.591 144.295 353.479 124.823 354.814 108.217C356.148 91.6106 363.71 84.3456 363.71 84.3456L356.89 51.2826L360.745 46.0446Z" fill="#0E2E51"/>
<path d="M360.032 93.7698C360.032 93.7698 372.305 96.7348 386.687 93.7698C386.687 93.7698 394.609 59.1418 386.097 49.8748L355.703 48.4658C355.703 48.4658 363.709 80.6398 358.426 92.8658" fill="#1C4070"/>
<path d="M372.209 9.47189C372.209 9.47189 377.843 22.2229 378.93 27.5599C380.017 32.8979 378.436 34.6769 371.022 37.2469L372.505 43.7709H357.678C357.678 43.7709 362.423 37.4449 360.149 34.0839C357.876 30.7229 349.474 31.5139 351.649 22.1239C353.824 12.7339 362.028 5.41989 372.209 9.47189Z" fill="#FFE6E3"/>
<path d="M377.215 7.86682C377.16 13.1058 373.593 14.6118 369.54 14.9078C365.487 15.2048 362.621 13.0298 360.644 14.2158C358.667 15.4018 361.83 20.8388 360.644 22.5188C359.458 24.1988 357.481 20.2458 355.405 21.5308C353.329 22.8158 355.158 29.9818 360.347 28.6478C360.347 28.6478 364.501 31.7118 365.266 36.6048C366.031 41.4978 360.743 48.8618 349.178 46.8348C337.613 44.8088 338.108 34.8748 342.555 28.1038C347.003 21.3328 344.779 17.1818 346.954 10.4108C349.129 3.63982 355.705 -1.66718 368.861 0.485821C373.392 1.22782 377.251 4.38182 377.215 7.86682Z" fill="#0C223D"/>
<path d="M347.622 29.3908C352.07 22.6198 349.846 18.4688 352.021 11.6978C354.101 5.2218 360.224 0.1018 372.264 1.5518C371.217 1.0538 370.065 0.683798 368.863 0.486798C355.707 -1.6662 349.13 3.6408 346.956 10.4118C344.781 17.1828 347.005 21.3338 342.558 28.1048C338.11 34.8758 337.616 44.8098 349.18 46.8358C349.61 46.9118 350.014 46.9478 350.427 46.9978C342.869 43.6368 343.736 35.3068 347.622 29.3908Z" fill="#081828"/>
<path d="M386.939 50.9648L361.201 48.9058C360.901 49.0908 360.715 49.2688 360.67 49.4388C359.78 52.7748 361.856 57.8898 370.455 58.6318C375.798 58.7258 383.144 58.1778 389.227 56.9828C388.739 54.6148 388.001 52.5488 386.939 50.9648Z" fill="#0E2E51"/>
<path d="M399.341 13.1299C399.341 13.1299 399.094 10.1649 397.414 9.02788C395.734 7.89088 386.245 2.15789 384.416 4.03589C382.587 5.91389 395.289 15.1559 395.289 15.1559L399.341 13.1299Z" fill="#FFDDD7"/>
<path d="M359.779 47.651C360.536 44.813 398.921 39.645 398.921 39.645L393.806 14.069L399.885 12.438C399.885 12.438 409.745 35.123 410.115 42.388C410.486 49.653 386.318 57.14 369.564 56.844C360.965 56.102 358.89 50.987 359.779 47.651Z" fill="#1C4070"/>
<path d="M371.196 40.979C371.196 40.979 377.868 35.493 380.759 36.235C383.65 36.976 377.494 42.662 374.828 42.462C374.828 42.462 382.908 43.722 382.241 45.946C381.574 48.17 373.568 45.131 373.568 45.131C373.568 45.131 363.857 52.174 360.891 64.776C357.926 77.379 347.399 99.47 332.72 116.965C318.042 134.46 291.947 146.766 291.947 146.766C291.947 146.766 282.458 135.35 279.344 122.006C276.23 108.662 270.003 97.839 245.984 93.984C245.984 93.984 253.397 78.12 288.685 65.369C323.973 52.618 358.371 40.905 371.196 40.979Z" fill="#F26759"/>
<path d="M373.568 45.1298C373.568 45.1298 374.151 45.3498 375.005 45.6258C374.749 44.9528 374.277 44.7608 373.568 45.1298Z" fill="#C62A32"/>
<path d="M279.345 122.006C282.459 135.35 291.948 146.766 291.948 146.766C291.948 146.766 318.043 134.46 332.721 116.965C347.399 99.4699 357.926 77.3779 360.892 64.7759C363.857 52.1729 373.569 45.1309 373.569 45.1309C364.599 49.8009 357.63 57.9559 352.589 73.2269C347.548 88.4979 334.204 103.325 323.232 110.59C312.26 117.855 297.73 116.224 281.866 103.325C266.002 90.4259 245.986 93.9839 245.986 93.9839C270.004 97.8389 276.231 108.662 279.345 122.006Z" fill="#E84138"/>
<path d="M422.109 336.859V234.163H324.087V285.511H232.25V336.859H144.535V399.106C144.535 399.48 144.838 399.783 145.212 399.783H421.436C421.81 399.783 422.113 399.48 422.113 399.106L422.109 336.859Z" fill="white"/>
<path d="M422.11 336.859V234.163H387.943H399.342C399.345 309.599 406.746 369.331 268.724 386.519C223.639 392.134 144.535 399.783 144.535 399.783H421.437C421.811 399.783 422.114 399.48 422.114 399.106L422.11 336.859Z" fill="#EFEFEF"/>
<path d="M199.054 237.414C199.054 237.414 199.71 254.065 196.588 270.092C192.382 291.678 181.379 330.754 181.379 330.754H191.247C191.247 330.754 221.867 285.711 221.867 237.414H199.054Z" fill="#173D66"/>
<path d="M191.247 330.754C191.247 330.754 221.867 285.711 221.867 237.414H210.327C210.99 247.792 210.429 280.617 186.639 330.754H191.247Z" fill="#1C4070"/>
<path d="M214.365 146.676L218.784 134.653C218.784 134.653 213.851 127.563 218.27 124.788C222.689 122.013 225.155 125.507 225.155 125.507C225.155 125.507 226.183 118.519 231.629 118.827C237.075 119.135 248.585 125.917 248.585 125.917C248.585 125.917 239.85 146.058 237.59 149.038C235.329 152.018 227.519 147.805 227.519 147.805L226.389 151.093L214.365 146.676Z" fill="#FFE6E3"/>
<path d="M167.505 214.601C167.505 214.601 158.154 223.599 156.098 229.09C155.556 230.537 158.77 232.789 159.489 232.584C160.208 232.379 165.601 227.549 165.601 227.549C165.601 227.549 163.805 231.248 164.525 231.968C165.244 232.687 173.157 220.562 173.157 220.562L167.505 214.601Z" fill="#FFE6E3"/>
<path d="M199.053 170.517C199.053 170.517 165.759 213.214 165.604 214.447C165.45 215.68 172.232 221.846 173.465 222.308C174.698 222.77 194.274 199.649 194.274 199.649L199.053 170.517Z" fill="#022E49"/>
<path d="M247.221 184.757C247.221 184.757 255.986 178.591 257.152 178.977C258.319 179.362 255.005 182.137 255.005 182.137C255.005 182.137 262.866 178.551 263.637 178.957C264.408 179.363 265.255 181.136 265.333 182.06C265.41 182.985 262.327 189.305 250.69 191.386L247.221 184.757Z" fill="#FFE6E3"/>
<path d="M214.365 146.676C214.365 146.676 205.065 153.561 197.512 171.596C189.959 189.631 191.346 218.609 191.346 218.609L228.229 212.803C228.229 212.803 235.123 182.642 226.388 151.095L214.365 146.676Z" fill="#053456"/>
<path d="M230.766 189.082C226.09 190.251 222.494 191.172 222.494 191.172C222.494 191.172 224.755 185.52 226.707 175.347C227.476 171.341 227.432 167.24 227.182 163.185C227.047 160.99 226.877 158.782 226.367 156.636C225.923 154.765 225.402 152.249 223.377 151.557C219.164 150.118 215.711 153.561 212.834 161.474C209.957 169.387 200.708 202.527 211.909 202.63C215.968 202.667 222.701 201.028 229.655 198.892C230.154 194.929 230.624 194.998 230.766 189.082Z" fill="#022E49"/>
<path d="M191.347 218.608C191.347 218.608 246.941 205.557 257.422 208.846C267.904 212.134 267.493 250.063 257.422 279.453H248.585C248.585 279.453 247.146 236.002 245.913 232.597C244.68 229.193 231.064 241.113 213.004 244.196C194.943 247.278 186.311 239.057 191.347 218.608Z" fill="#1C4070"/>
<path d="M215.366 143.954C215.366 143.954 213.004 137.454 213.004 134.217C213.004 130.98 216.241 120.19 220.711 113.408C225.181 106.626 232.195 108.398 236.896 110.865C241.597 113.331 242.83 114.796 244.141 114.95C245.451 115.104 250.923 114.565 253.775 117.647C256.627 120.73 252.619 128.976 244.372 126.973C236.125 124.969 231.809 121.501 229.112 122.426C226.415 123.351 225.336 130.595 224.565 130.673C223.794 130.75 223.794 126.511 220.557 126.511C217.32 126.511 218.63 132.137 222.021 134.218L215.366 143.954Z" fill="#1F4F84"/>
<path d="M221.478 150.735C226.398 152.415 226.077 163.202 224.125 173.376C222.173 183.549 219.912 189.201 219.912 189.201C219.912 189.201 248.788 181.802 249.404 182.316C250.02 182.83 252.898 191.873 252.487 192.592C252.076 193.311 220.528 205.951 209.327 205.848C198.126 205.745 207.375 167.416 210.252 159.503C213.13 151.591 217.265 149.297 221.478 150.735Z" fill="#053456"/>
<path d="M212.573 201.532C201.372 201.429 210.621 163.099 213.498 155.187C214.07 153.614 214.718 152.198 215.417 150.94C213.444 152.793 211.634 155.704 210.252 159.503C207.375 167.416 198.126 205.745 209.327 205.848C220.528 205.951 252.076 193.311 252.487 192.592C252.616 192.366 252.421 191.32 252.074 189.976C243.379 193.591 221.509 201.614 212.573 201.532Z" fill="#022E49"/>
<path d="M254.688 219.534C251.338 216.451 224.538 225.905 207.275 229.604C197.293 231.743 192.538 227.733 190.299 223.969C187.991 240.481 196.615 246.994 213.004 244.196C231.064 241.113 244.68 229.193 245.913 232.597C247.146 236.001 248.585 279.453 248.585 279.453H252.529C254.622 252.735 258.039 222.616 254.688 219.534Z" fill="#173D66"/>
<path d="M181.378 330.753L180.967 336.816H201.108L191.246 330.753H181.378Z" fill="#081828"/>
<path d="M248.631 279.453L248.738 285.516H268.725L257.886 279.453H248.631Z" fill="#081828"/>
<path d="M75.7632 333.044L43.7582 392.502H33.3652C33.3652 392.502 49.7372 347.15 53.1992 337.139C56.6622 327.128 64.5172 304.225 64.5172 304.225L75.7632 333.044Z" fill="#0A3454"/>
<path d="M69.0362 314.916L65.0682 304.225C65.0682 304.225 57.2122 327.129 53.7502 337.139C50.2872 347.15 33.3672 392.502 33.3672 392.502H36.5282L69.0362 314.916Z" fill="#0F3A60"/>
<path d="M40.8994 280.19C40.8994 280.19 35.4014 284.642 33.9224 287.789C33.0504 289.457 37.4114 286.121 37.4114 286.121C37.4114 286.121 33.0504 293.098 33.3164 293.705C33.5814 294.312 35.8574 296.018 36.4634 295.639C37.0704 295.26 43.4674 290.747 45.4634 283.012L40.8994 280.19Z" fill="#FFE6E3"/>
<path d="M87.296 263.773L90.089 392.501H78.605C78.605 392.501 72.254 352.458 70.916 333.953C69.579 315.448 55.458 293.251 57.407 271.424L87.296 263.773Z" fill="#0A3454"/>
<path d="M78.7734 399.782V392.501H90.0904L101.17 399.782H78.7734Z" fill="#081828"/>
<path d="M53.1997 399.782L43.7597 392.501H33.3657L31.2207 399.782H53.1997Z" fill="#081828"/>
<path d="M77.7138 334.458C75.2518 313.073 73.3458 280.37 72.6508 267.522L57.4068 271.424C55.4588 293.25 69.5788 315.448 70.9158 333.953C72.2528 352.458 78.6048 392.501 78.6048 392.501H83.6198C82.7368 382.937 80.2268 356.279 77.7138 334.458Z" fill="#0F3A60"/>
<path d="M58.1442 245.169C58.1442 245.169 50.0542 263.371 44.4932 271.561C38.9322 279.751 39.0832 279.752 39.6392 280.358C40.1952 280.965 45.6562 285.111 46.3132 285.01C46.9702 284.909 55.0602 274.19 59.5602 266.859C64.0602 259.528 64.8692 255.635 64.3632 253.258C63.8572 250.881 58.1442 245.169 58.1442 245.169Z" fill="#053456"/>
<path d="M51.873 211.435C51.873 211.435 52.935 236.879 56.727 245.828C60.519 254.777 60.974 253.715 58.547 259.479C56.12 265.243 54.3 272.372 54.3 272.372C54.3 272.372 77.052 275.102 91.31 269.187C91.31 269.187 86.52 244.918 86.261 235.211L77.659 207.454H62.794L51.873 211.435Z" fill="#1C4070"/>
<path d="M79.8878 166.604C81.0298 169.29 86.6158 182.968 86.2768 192.76C86.2348 193.982 85.3818 195.021 84.2138 195.381C81.9488 196.078 79.7658 196.488 78.5378 196.686C77.9508 196.781 77.5248 197.29 77.5328 197.885L77.6448 206.238C77.6538 206.906 77.1148 207.452 76.4468 207.452H64.4848C63.6848 207.452 63.1088 206.691 63.3348 205.924C64.1168 203.262 65.2248 197.298 62.7958 189.435C59.4588 178.634 60.5208 177.42 63.8578 175.448C67.1098 173.527 73.1488 163.916 79.2098 165.952C79.5188 166.055 79.7598 166.302 79.8878 166.604Z" fill="#FFE6E3"/>
<path d="M77.6594 207.453L73.1094 213.47L78.6454 215.366C78.6454 215.366 78.4934 221.357 78.6454 222.268C78.7974 223.178 86.2614 235.211 86.2614 235.211C86.2614 235.211 83.5744 218.222 77.6594 207.453Z" fill="#053456"/>
<path d="M42.3142 274.791C39.0012 279.748 39.1682 279.847 39.6382 280.36C40.1942 280.967 45.6552 285.113 46.3122 285.011C46.5892 284.968 48.1932 283.029 50.2852 280.262L42.3142 274.791Z" fill="#00243A"/>
<path d="M45.4627 281.931C45.9879 281.931 46.4137 281.505 46.4137 280.98C46.4137 280.455 45.9879 280.029 45.4627 280.029C44.9375 280.029 44.5117 280.455 44.5117 280.98C44.5117 281.505 44.9375 281.931 45.4627 281.931Z" fill="white"/>
<path d="M86.8092 241.824C86.5482 241.887 86.3942 241.925 86.3942 241.925C86.3942 241.925 77.2532 226.302 73.7642 220.387C70.2752 214.471 63.6042 207.407 59.4442 210.073C55.8932 212.348 54.3492 215.382 55.8662 222.814C57.3832 230.246 73.0062 253.453 76.7982 255.577C78.0482 256.277 82.7992 255.556 88.6192 254.252C87.9302 250.095 87.2602 245.672 86.8092 241.824Z" fill="#0F3A60"/>
<path d="M57.7508 210.943C61.9108 208.278 68.5828 215.342 72.0708 221.257C75.5598 227.172 84.7008 242.796 84.7008 242.796C84.7008 242.796 112.014 236.122 112.772 236.729C113.53 237.336 116.058 246.133 115.452 246.892C114.845 247.65 78.8968 258.571 75.1048 256.448C71.3128 254.325 55.6898 231.117 54.1728 223.685C52.6558 216.251 54.1998 213.218 57.7508 210.943Z" fill="#1C4070"/>
<path d="M57.7508 210.943C61.9108 208.278 68.5828 215.342 72.0708 221.257C75.5598 227.172 84.7008 242.796 84.7008 242.796C84.7008 242.796 112.014 236.122 112.772 236.729C113.53 237.336 116.058 246.133 115.452 246.892C114.845 247.65 78.8968 258.571 75.1048 256.448C71.3128 254.325 55.6898 231.117 54.1728 223.685C52.6558 216.251 54.1998 213.218 57.7508 210.943Z" fill="#1C4070"/>
<path d="M111.811 239.166C111.811 239.166 117.878 232.253 119.167 232.784C120.456 233.315 117.119 236.955 117.119 236.955C117.119 236.955 126.447 231.967 127.357 232.755C128.267 233.543 128.95 235.109 129.026 235.918C129.102 236.728 126.523 243.022 113.175 244.691L111.811 239.166Z" fill="#FFE6E3"/>
<path d="M75.1047 256.447C78.8967 258.571 114.845 247.65 115.452 246.891C115.666 246.624 115.487 245.354 115.138 243.803C105.68 246.385 80.7017 253.001 78.7967 251.391C63.7587 238.683 58.9387 219.156 57.5367 211.089C54.1427 213.349 52.6887 216.407 54.1737 223.684C55.6887 231.116 71.3127 254.323 75.1047 256.447Z" fill="#0F3A60"/>
<path d="M109.662 248.928C113.041 247.869 115.304 247.076 115.452 246.891C116.059 246.133 113.531 237.335 112.772 236.728C112.547 236.548 109.972 237.012 106.473 237.751C107.282 240.607 108.671 245.502 109.662 248.928Z" fill="#053456"/>
<path d="M111.009 240.768C111.009 241.293 110.583 241.719 110.058 241.719C109.533 241.719 109.107 241.293 109.107 240.768C109.107 240.243 109.533 239.817 110.058 239.817C110.583 239.817 111.009 240.243 111.009 240.768Z" fill="white"/>
<path d="M86.2621 158.612C89.4531 163.042 87.3681 169.533 80.0871 171.353C72.8061 173.173 71.2891 172.718 70.9861 175.752C70.6831 178.786 71.4411 184.474 70.3031 184.701C69.1651 184.929 69.0141 180.075 65.2221 179.771C61.4301 179.468 62.5681 185.383 65.7531 187.734C68.9381 190.085 74.3231 212.155 71.1381 227.778C67.9531 243.401 50.0541 246.89 41.5601 233.693C33.0661 220.497 52.6331 201.537 49.7511 191.678C46.8691 181.819 42.4701 179.089 45.2011 170.746C47.9311 162.404 60.8241 164.679 64.9191 160.887C69.0141 157.095 80.9091 151.179 86.2621 158.612Z" fill="#FF8206"/>
<path d="M386.774 231.789L372.05 227.247L371.154 234.163H390.113L386.774 231.789Z" fill="#1C4070"/>
</svg>
