<svg width="543" height="288" viewBox="0 0 543 288" fill="none" xmlns="http://www.w3.org/2000/svg">
<path d="M2.78516 287.738H539.246C515.306 133.236 429.579 -3.12481 254.996 17.0733C96.86 24.4476 6.96796 133.412 2.78516 287.738Z" fill="#DCECFD"/>
<mask id="mask0_49_1448" style="mask-type:luminance" maskUnits="userSpaceOnUse" x="2" y="15" width="538" height="273">
<path d="M2.78516 287.738H539.246C515.306 133.236 429.579 -3.12481 254.996 17.0733C96.86 24.4476 6.96796 133.412 2.78516 287.738Z" fill="white"/>
</mask>
<g mask="url(#mask0_49_1448)">
<path d="M7.72276 216.259C7.72276 216.259 18.6428 236.647 19.6319 251.953C19.6319 251.953 29.8399 224.793 49.9248 212.602C49.9248 212.602 49.6412 243.277 41.5654 256.995C41.5654 256.995 51.918 244.432 79.3251 239.59C79.3251 239.59 66.6369 266.145 53.42 271.967C53.42 271.967 63.7199 269.371 86.4433 272.175C86.4433 272.175 62.099 287.657 49.9246 287.738H-2.21875L7.72276 216.259Z" fill="#BEDBFA"/>
</g>
<mask id="mask1_49_1448" style="mask-type:luminance" maskUnits="userSpaceOnUse" x="2" y="15" width="538" height="273">
<path d="M2.78516 287.738H539.246C515.306 133.236 429.579 -3.12481 254.996 17.0733C96.86 24.4476 6.96796 133.412 2.78516 287.738Z" fill="white"/>
</mask>
<g mask="url(#mask1_49_1448)">
<path d="M518.257 200.154C518.257 200.154 506.883 226.017 511.637 247.538C511.637 247.538 498.145 234.574 475.858 229.026C475.858 229.026 484.659 257.023 504.479 264.111C504.479 264.111 495.617 255.791 465.513 259.429C465.513 259.429 476.199 275.12 496.82 275.559C496.82 275.559 465.537 274.856 456.99 287.738H547.133L518.257 200.154Z" fill="#BEDBFA"/>
</g>
<path d="M243.995 268.798C240.161 269.386 236.806 266.189 237.202 262.325L243.995 195.952L256.102 194.098L248.995 263.536C248.72 266.226 246.664 268.39 243.995 268.798Z" fill="#152E60"/>
<path d="M209.939 287.738C205.378 288.068 203.243 282.138 204.326 280.3C204.858 278.384 231.474 182.564 231.474 182.564H243.586L215.56 283.461C214.857 285.989 212.559 287.738 209.939 287.738Z" fill="#152E60"/>
<path d="M316.073 287.738C319.933 287.738 322.729 284.053 321.695 280.329L294.538 182.564H282.426L310.453 283.461C311.155 285.989 313.453 287.738 316.073 287.738Z" fill="#152E60"/>
<path d="M354.522 150.338C343.473 45.6297 165.472 31.1916 174.153 151.374C185.203 256.078 363.205 270.516 354.522 150.338Z" fill="#F08F3C"/>
<path d="M279.492 228.836C169.27 231.165 132.553 64.2929 258.282 57.5671C368.5 55.2401 405.218 222.112 279.492 228.836Z" fill="#F9CE68"/>
<path d="M277.161 210.013C191.167 211.83 162.521 81.6392 260.613 76.3919C346.604 74.5765 375.25 204.767 277.161 210.013Z" fill="white"/>
<path d="M274.83 191.189C213.064 192.494 192.489 98.9841 262.944 95.2152C324.707 93.9111 345.283 187.421 274.83 191.189Z" fill="#F9CE68"/>
<path d="M272.498 172.366C234.962 173.159 222.458 116.33 265.275 114.039C302.811 113.247 315.315 170.076 272.498 172.366Z" fill="white"/>
<path d="M279.774 143.141C280.835 157.655 259.317 155.91 257.997 143.265C256.936 128.751 278.454 130.496 279.774 143.141Z" fill="#F9CE68"/>
<path d="M268.887 58.0908C268.887 58.0908 297.882 156.734 359.165 161.873C365.039 142.504 342.063 63.8916 268.887 58.0908Z" fill="#F08F3C"/>
<path d="M253.283 52.9318C254.284 52.4755 255.093 51.6864 255.574 50.6969C257.151 47.4558 260.842 40.1435 262.199 39.8254C263.945 39.4161 257.935 54.8803 259.855 54.1767C261.27 53.6583 263.366 50.8157 264.964 51.0391C266.561 51.2622 265.171 54.1422 263.272 56.7696C262.055 58.4544 254.2 62.2624 254.2 62.2624L251.064 53.944L253.283 52.9318Z" fill="#F4D2C6"/>
<path d="M68.592 13.9829C68.592 13.9829 67.9634 4.92966 66.0565 3.71436C64.1494 2.49905 56.4347 1.28375 55.0477 3.28035C53.6608 5.27696 52.7073 11.5273 53.4874 12.3956C54.2676 13.2638 62.3826 19.4264 62.3826 19.4264L68.592 13.9829Z" fill="#F4D2C6"/>
<path d="M164.692 287.737C164.978 284.049 159.399 283.015 156.988 281.732L152.137 278.236L151.891 274.057L143.448 272.175L139.67 284.692L153.335 287.738L153.373 287.684L164.692 287.737Z" fill="#152E60"/>
<path d="M117.072 119.882L120.022 274.698H130.42L152.211 119.534L117.072 119.882Z" fill="#324D90"/>
<mask id="mask2_49_1448" style="mask-type:luminance" maskUnits="userSpaceOnUse" x="117" y="119" width="36" height="156">
<path d="M117.072 119.882L120.022 274.698H130.42L152.211 119.534L117.072 119.882Z" fill="white"/>
</mask>
<g mask="url(#mask2_49_1448)">
<path d="M146.373 161.117C131.264 181.214 126.715 247.872 125.521 276.8H134.643L145.925 205.872L146.373 161.117Z" fill="#2A437D"/>
</g>
<path d="M140.664 119.534L153.156 210.549L153.263 210.567L142.554 272.673L152.936 275.975L170.375 224.426C176.829 210.268 174.48 136.064 175.803 119.882L140.664 119.534Z" fill="#324D90"/>
<mask id="mask3_49_1448" style="mask-type:luminance" maskUnits="userSpaceOnUse" x="140" y="119" width="36" height="157">
<path d="M140.664 119.534L153.156 210.549L153.263 210.567L142.554 272.673L152.936 275.975L170.375 224.426C176.829 210.268 174.48 136.064 175.803 119.882L140.664 119.534Z" fill="white"/>
</mask>
<g mask="url(#mask3_49_1448)">
<path d="M146.371 161.117C169.868 224.306 162.436 213.298 146.418 274.698L138.232 272.175L148.209 207.337L146.371 161.117Z" fill="#2A437D"/>
</g>
<path d="M121.771 274.698L120.624 278.724L108.229 284.042C106.752 284.676 105.795 286.129 105.795 287.738H131.392L130.421 274.698L121.771 274.698Z" fill="#152E60"/>
<path d="M117.328 135.278H175.511L117.581 146.55L117.328 135.278Z" fill="#2A437D"/>
<path d="M147.578 59.1815L104.837 51.2035L69.4629 10.5049L59.7871 18.9868L89.7485 67.223C91.4733 69.9997 94.1368 72.0641 97.2539 73.0402L135.169 81.2068L147.578 59.1815Z" fill="#4292F3"/>
<path d="M162.833 23.1782C163.686 24.0271 166.954 30.7498 164.466 34.6559L160.287 25.4367L162.833 23.1782Z" fill="#1A1949"/>
<path d="M140.232 34.6555C140.534 54.0741 164.169 54.0719 164.468 34.6551C164.166 15.2367 140.532 15.2392 140.232 34.6555Z" fill="#F4D2C6"/>
<mask id="mask4_49_1448" style="mask-type:luminance" maskUnits="userSpaceOnUse" x="140" y="20" width="25" height="30">
<path d="M140.232 34.6555C140.534 54.0741 164.169 54.0719 164.468 34.6551C164.166 15.2367 140.532 15.2392 140.232 34.6555Z" fill="white"/>
</mask>
<g mask="url(#mask4_49_1448)">
<path d="M164.468 29.818C164.468 29.818 150.821 34.193 146.146 27.6577L161.844 24.0566L164.468 29.818Z" fill="#EDA19D"/>
</g>
<path d="M140.259 33.6831C140.259 33.6831 141.445 56.4739 139.045 63.2267C139.045 63.2267 146.589 65.5157 154.02 63.2267C154.02 63.2267 149.333 43.7693 150.247 39.3056L140.259 33.6831Z" fill="#F4D2C6"/>
<path d="M151.125 49.3416C151.125 49.3416 148.551 49.3044 145.162 46.5405C145.162 46.5405 145.898 52.6928 151.81 53.0466L151.125 49.3416Z" fill="#EDA19D"/>
<path d="M162.108 25.9066C159.306 27.1529 145.264 30.1229 141.051 25.3069C141.051 25.3076 138.21 19.8078 141.717 17.7773C145.224 15.7468 163.359 14.1597 163.359 14.1597C163.359 14.1597 165.329 23.0926 162.108 25.9066Z" fill="#59445A"/>
<path d="M145.725 24.0566C148.02 33.4837 145.607 35.7796 140.529 42.6361C137.089 35.5813 131.198 29.8333 139.966 22.0029L145.725 24.0566Z" fill="#59445A"/>
<path d="M139.965 35.6139C139.983 39.6597 146.127 39.6593 146.144 35.6137C146.126 31.5681 139.982 31.5683 139.965 35.6139Z" fill="#F4D2C6"/>
<path d="M170.739 77.9086C168.402 62.3437 156.534 54.5407 143.23 56.2685C132.666 56.2676 123.613 65.3752 121.718 77.9086L113.047 135.265H179.41L170.739 77.9086Z" fill="#4292F3"/>
<path d="M139.326 56.6894C141.721 63.802 150.763 63.7993 153.156 56.6894C153.156 56.6894 147.241 53.4837 139.326 56.6894Z" fill="#F4D2C6"/>
<path d="M139.326 56.6895L145.924 62.044L143.192 63.7733C138.799 66.0497 138.148 60.0451 137.068 57.333C137.068 57.333 138.216 56.8301 139.326 56.6895Z" fill="white"/>
<path d="M147.576 61.916L150.145 63.512C151.948 64.6319 154.312 63.5963 154.714 61.5105L155.511 57.378C155.511 57.378 153.71 56.7801 153.155 56.689L147.576 61.916Z" fill="white"/>
<path d="M145.924 62.0442L141.547 101.216L147.574 112.333L152.539 101.179L147.577 61.9165L145.924 62.0442Z" fill="#2A437D"/>
<path d="M159.094 59.1091L200.544 72.2452L250.902 53.0464L255.442 65.0935L206.31 93.4945C203.482 95.1295 200.161 95.6931 196.952 95.0827L170.104 89.9752L159.094 59.1091Z" fill="#4292F3"/>
<path d="M172.636 90.4569L170.705 76.8105L196.953 95.0829L172.636 90.4569Z" fill="#3C7ED7"/>
<path d="M121.717 77.9089L123.303 68.3774L97.2539 73.0398L121.717 77.9089Z" fill="#3C7ED7"/>
<path d="M57.1777 4.12489C57.1777 4.12489 64.6804 5.02723 64.0356 7.75632C62.8866 12.6184 58.8854 13.0172 57.1777 12.8803C57.1777 12.8803 59.1158 14.7274 61.9588 14.6587C64.8019 14.5903 66.5031 8.03964 65.4438 6.60566C63.4426 3.89619 57.1777 4.12489 57.1777 4.12489Z" fill="#EDA19D"/>
<path d="M473.443 28.1228C453.514 32.632 449.864 36.2875 445.361 56.2455C440.858 36.2875 437.208 32.632 417.279 28.1228C437.208 23.6135 440.858 19.958 445.361 0C449.863 19.9582 453.514 23.6135 473.443 28.1228Z" fill="#DCECFD"/>
<path d="M422.824 15.2248C413.684 17.293 412.009 18.9695 409.944 28.1235C407.879 18.9697 406.205 17.293 397.064 15.2248C406.205 13.1567 407.879 11.4802 409.944 2.32617C412.009 11.48 413.684 13.1567 422.824 15.2248Z" fill="#DCECFD"/>
<path d="M16.2633 109.492C21.2897 91.2985 19.913 86.7328 5.67188 74.3662C23.8388 79.4 28.3977 78.0213 40.7463 63.7593C35.7199 81.9527 37.0966 86.5184 51.3377 98.885C33.1708 93.8512 28.6119 95.2299 16.2633 109.492Z" fill="#DCECFD"/>
<path d="M48.8013 73.897C51.1066 65.5526 50.4753 63.4583 43.9434 57.7864C52.2756 60.0951 54.3665 59.4629 60.0304 52.9214C57.7251 61.2658 58.3564 63.36 64.8883 69.032C56.5559 66.7233 54.4649 67.3557 48.8013 73.897Z" fill="#DCECFD"/>
<path d="M474.233 216.106L467.928 215.561L468.934 205.771L476.786 207.182C484.346 211.843 479.432 214.731 474.233 216.106Z" fill="#F4D2C6"/>
<path d="M481.095 230.9L484.688 206.146C480.867 204.962 476.795 205.399 473.051 206.661C479.563 207.469 477.807 213.567 474.101 215.885C474.101 215.885 474.846 229.698 481.095 230.9Z" fill="#152E60"/>
<path d="M411.554 193.759L402.94 114.007L368.039 118.113L389.776 197.833C391.059 202.538 393.899 206.668 397.833 209.545C403.816 216.727 460.663 214.569 469.472 216.125L471.341 205.881L411.554 193.759Z" fill="#324D90"/>
<path d="M384.38 115.588L378.597 208.518L378.494 208.549L396.961 268.8L387.08 273.39L363.269 224.465C353.869 211.207 352.787 139.057 350.379 122.984L384.38 115.588Z" fill="#324D90"/>
<mask id="mask5_49_1448" style="mask-type:luminance" maskUnits="userSpaceOnUse" x="350" y="115" width="47" height="159">
<path d="M384.38 115.588L378.597 208.518L378.494 208.549L396.961 268.8L387.08 273.39L363.269 224.465C353.869 211.207 352.787 139.057 350.379 122.984L384.38 115.588Z" fill="white"/>
</mask>
<g mask="url(#mask5_49_1448)">
<path d="M393.988 271.023C393.61 271.195 393.382 271.298 393.382 271.298C393.382 271.298 370.697 217.53 369.507 213.701C368.318 209.872 381.199 166.688 381.199 166.688L383.097 204.706L401.183 267.759C401.183 267.759 395.822 270.191 393.988 271.023Z" fill="#2A437D"/>
</g>
<path d="M332.123 74.423L318.563 79.8422L283.079 55.2612L278.898 63.0448L309.072 93.9987C310.96 95.8589 313.346 97.1308 315.941 97.6603C321.464 99.4743 335.407 92.009 340.616 90.547L332.123 74.423Z" fill="#F4D2C6"/>
<mask id="mask6_49_1448" style="mask-type:luminance" maskUnits="userSpaceOnUse" x="278" y="55" width="63" height="43">
<path d="M332.123 74.423L318.563 79.8422L283.079 55.2612L278.898 63.0448L309.072 93.9987C310.96 95.8589 313.346 97.1308 315.941 97.6603C321.464 99.4743 335.407 92.009 340.616 90.547L332.123 74.423Z" fill="white"/>
</mask>
<g mask="url(#mask6_49_1448)">
<path d="M322.197 76.5995L325.038 101.793L341.956 92.5179L330.224 71.8096L322.197 76.5995Z" fill="#EDA19D"/>
</g>
<path d="M366.675 16.9667C366.53 25.4261 353.965 25.4247 353.822 16.9664C353.967 8.50723 366.531 8.50857 366.675 16.9667Z" fill="#59445A"/>
<path d="M349.577 22.6138C339.015 26.6536 337.717 37.5964 346.88 44.0439C349.851 40.5649 359.062 27.9248 349.577 22.6138Z" fill="#59445A"/>
<path d="M369.195 34.9985C372.594 54.119 349.392 58.6267 345.403 39.6227C342.005 20.5026 365.207 15.9949 369.195 34.9985Z" fill="#F4D2C6"/>
<mask id="mask7_49_1448" style="mask-type:luminance" maskUnits="userSpaceOnUse" x="345" y="22" width="25" height="30">
<path d="M369.195 34.9985C372.594 54.119 349.392 58.6267 345.403 39.6227C342.005 20.5026 365.207 15.9949 369.195 34.9985Z" fill="white"/>
</mask>
<g mask="url(#mask7_49_1448)">
<path d="M343.971 33.3899C361.31 41.6857 370.2 29.0048 353.53 17.8096C349.53 22.2539 345.166 27.3662 343.971 33.3899Z" fill="#EDA19D"/>
</g>
<path d="M368.983 34.0483C368.983 34.0483 372.155 56.6478 375.796 62.8189C375.796 62.8189 368.826 66.5058 361.096 65.6764C361.096 65.6764 361.995 45.6811 360.248 41.4737L368.983 34.0483Z" fill="#F4D2C6"/>
<path d="M361.295 51.493C361.295 51.493 363.814 50.9652 366.615 47.6055C366.615 47.6055 367.064 53.7854 361.327 55.2609L361.295 51.493Z" fill="#EDA19D"/>
<path d="M348.344 26.5587C348.344 26.5587 349.084 33.7339 358.051 34.7265L354.542 31.31C354.542 31.31 360.488 36.2332 365.361 37.3101C370.235 38.3869 370.423 42.9009 370.423 42.9009C384.769 23.8925 350.812 9.13537 348.344 26.5587Z" fill="#59445A"/>
<path d="M407.973 84.13L386.169 63.3824C380.238 57.0471 369.939 54.8452 361.782 58.5397C361.065 58.8671 327.774 74.1068 326.982 74.4686L337.833 95.0675L347.929 90.9292L345.919 130.261C380.067 148.234 407.231 122.431 407.231 122.431L397.753 92.3767L407.973 84.13Z" fill="#4292F3"/>
<path d="M397.753 92.3775L390.44 98.4698L378.779 86.062L404.123 124.979L407.231 122.432L397.753 92.3775Z" fill="#3C7ED7"/>
<path d="M347.75 91.0032C347.75 91.0032 348.1 80.7023 350.161 71.8091C350.161 71.8091 339.454 80.7114 337.832 95.0679L347.75 91.0032Z" fill="#3C7ED7"/>
<path d="M357.297 60.5924C362.801 56.4336 372.627 55.0219 378.779 58.3774C374.638 60.9065 361.03 68.997 357.297 60.5924Z" fill="#F4D2C6"/>
<path d="M283.615 55.6905C282.725 55.0458 282.087 54.1125 281.809 53.0472C280.901 49.5584 278.721 41.6612 277.453 41.0814C275.822 40.3358 278.672 56.6826 276.928 55.614C275.643 54.8262 274.147 51.6259 272.537 51.5296C270.927 51.4333 271.723 54.5311 273.067 57.4815C273.93 59.3734 280.881 64.657 280.881 64.657L285.592 57.1204L283.615 55.6905Z" fill="#F4D2C6"/>
<path d="M390.802 278.647L388.045 272.942L396.96 268.8L399.766 276.28C399.632 285.169 394.64 282.417 390.802 278.647Z" fill="#F4D2C6"/>
<path d="M376.971 287.738H401.633C403.054 287.738 404.014 286.284 403.458 284.974L399.765 276.279C399.904 282.849 393.625 281.987 390.801 278.647C390.801 278.647 377.259 281.372 376.971 287.738Z" fill="#152E60"/>
<path d="M470.258 129.76C470.258 129.76 475.53 129.539 476.193 128.432C476.856 127.325 464.297 126.573 464.297 126.573C456.305 121.124 410.135 93.9065 405.62 86.0298L392.09 97.1091L405.371 108.669C416.021 112.787 461.164 135.001 471.339 138.285C475.772 138.616 477.961 135.959 478.403 135.406C478.845 134.852 470.258 129.76 470.258 129.76Z" fill="#F4D2C6"/>
<mask id="mask8_49_1448" style="mask-type:luminance" maskUnits="userSpaceOnUse" x="392" y="86" width="87" height="53">
<path d="M470.258 129.76C470.258 129.76 475.53 129.539 476.193 128.432C476.856 127.325 464.297 126.573 464.297 126.573C456.305 121.124 410.135 93.9065 405.62 86.0298L392.09 97.1091L405.371 108.669C416.021 112.787 461.164 135.001 471.339 138.285C475.772 138.616 477.961 135.959 478.403 135.406C478.845 134.852 470.258 129.76 470.258 129.76Z" fill="white"/>
</mask>
<g mask="url(#mask8_49_1448)">
<path d="M408.925 87.9528L399.125 105.963L388.258 96.1468L404.725 83.3154L408.925 87.9528Z" fill="#EDA19D"/>
</g>
<path d="M373.67 136.626C373.67 136.626 390.233 135.585 404.125 124.979L405.813 140.604C405.813 140.604 385.326 145.168 373.67 136.626Z" fill="#2A437D"/>
<path d="M299.03 113.612L315.585 97.8643L312.007 83.9097L295.189 99.9075L299.03 113.612Z" fill="#4292F3"/>
<path d="M300.068 114.706L316.624 98.9585L330.355 103.254L313.537 119.252L300.068 114.706Z" fill="#4292F3"/>
<path d="M317.289 99.6854L314.906 97.1729L267.399 142.361L269.782 144.874L317.289 99.6854Z" fill="#152E60"/>
<path d="M532.855 286.553C531.924 286.23 493.745 273.656 465.25 253.563L465.43 253.309C492.196 272.269 528.761 284.848 532.378 286.067C531.269 282.549 520.29 248.151 508.01 225.433L508.284 225.285C521.352 249.577 532.568 285.653 532.855 286.553Z" fill="#324D90"/>
<path d="M520.665 281.938C520.665 281.938 522.509 270.145 513.774 263.613C513.774 263.613 510.67 274.838 520.665 281.938Z" fill="#324D90"/>
<path d="M531.166 281.196C531.166 281.196 538.639 271.895 534.322 261.871C534.322 261.871 526.04 270.049 531.166 281.196Z" fill="#324D90"/>
<path d="M528.267 274.082C528.267 274.082 519.48 266.016 509.213 269.685C509.213 269.685 516.829 278.488 528.267 274.082Z" fill="#324D90"/>
<path d="M524.658 262.75C524.658 262.75 517.238 255.939 508.568 259.037C508.568 259.037 514.999 266.47 524.658 262.75Z" fill="#324D90"/>
<path d="M525.912 266.873C525.912 266.873 533.928 260.777 532.43 251.681C532.43 251.681 523.98 256.693 525.912 266.873Z" fill="#324D90"/>
<path d="M521.467 255.394C521.467 255.394 528.051 250.386 526.821 242.914C526.821 242.914 519.879 247.031 521.467 255.394Z" fill="#324D90"/>
<path d="M517.842 245.71C517.842 245.71 523.339 241.529 522.312 235.291C522.312 235.291 516.516 238.728 517.842 245.71Z" fill="#324D90"/>
<path d="M507.145 239.611C507.145 239.611 511.262 243.655 516.287 242.05C516.287 242.05 512.747 237.668 507.145 239.611Z" fill="#324D90"/>
<path d="M515.865 229.984C515.865 229.984 512.686 233.715 514.34 237.883C514.34 237.883 517.838 234.623 515.865 229.984Z" fill="#324D90"/>
<path d="M512.699 234.578C512.699 234.578 509.805 231.482 506.068 232.503C506.068 232.503 508.528 235.829 512.699 234.578Z" fill="#324D90"/>
<path d="M511.587 231.933C511.587 231.933 513.839 229.133 512.541 226.113C512.541 226.113 510.045 228.575 511.587 231.933Z" fill="#324D90"/>
<path d="M509.087 226.966C509.087 226.966 509.32 223.378 506.522 221.657C506.522 221.657 505.896 225.109 509.087 226.966Z" fill="#324D90"/>
<path d="M509.168 247.616C509.168 247.616 513.776 252.999 520.091 251.568C520.091 251.568 516.226 245.834 509.168 247.616Z" fill="#324D90"/>
<path d="M510.531 278.015C510.531 278.015 512.155 267.625 504.46 261.871C504.46 261.871 501.725 271.76 510.531 278.015Z" fill="#324D90"/>
<path d="M515.439 279.745C515.439 279.745 505.836 275.488 498.297 281.444C498.297 281.444 507.129 286.647 515.439 279.745Z" fill="#324D90"/>
<path d="M502.555 274.279C502.555 274.279 492.657 270.765 485.592 277.279C485.592 277.279 494.793 281.793 502.555 274.279Z" fill="#324D90"/>
<path d="M492.135 269.239C492.135 269.239 483.826 266.819 478.322 272.512C478.322 272.512 486.105 275.789 492.135 269.239Z" fill="#324D90"/>
<path d="M482.515 264.1C482.515 264.1 475.973 262.194 471.639 266.677C471.639 266.677 477.767 269.257 482.515 264.1Z" fill="#324D90"/>
<path d="M474.014 259.224C474.014 259.224 469.374 257.872 466.301 261.052C466.301 261.052 470.647 262.882 474.014 259.224Z" fill="#324D90"/>
<path d="M499.436 273.236C499.436 273.236 500.84 264.253 494.187 259.278C494.187 259.278 491.823 267.828 499.436 273.236Z" fill="#324D90"/>
<path d="M489.27 268.028C489.27 268.028 490.464 260.387 484.805 256.156C484.805 256.156 482.794 263.428 489.27 268.028Z" fill="#324D90"/>
<path d="M478.657 262.092C478.657 262.092 479.507 256.657 475.482 253.647C475.482 253.647 474.051 258.82 478.657 262.092Z" fill="#324D90"/>
<path d="M470.173 256.768C470.173 256.768 468.64 251.485 463.721 250.47C463.721 250.47 464.616 255.761 470.173 256.768Z" fill="#324D90"/>
<path d="M515.836 287.819C513.555 279.626 547.208 264.891 542.559 287.699L515.836 287.819Z" fill="#2A437D"/>
<path d="M53.3525 240.417C47.8582 249.89 50.7516 256.26 50.7516 256.26C58.0098 247.995 53.3525 240.417 53.3525 240.417Z" fill="#324D90"/>
<path d="M62.1967 237.054C57.5761 245.021 60.0094 250.378 60.0094 250.378C66.1134 243.427 62.1967 237.054 62.1967 237.054Z" fill="#324D90"/>
<path d="M86.5767 236.839C79.0444 237.379 76.539 241.507 76.539 241.507C76.6022 241.514 76.6623 241.518 76.7249 241.525C74.1273 242.719 71.5727 243.983 69.0695 245.299C73.6076 239.746 70.5415 234.75 70.5415 234.75C67.194 240.521 68.3563 244.622 68.6755 245.506C59.7735 250.201 51.5819 255.589 44.3722 260.763C44.3764 260.766 44.3807 260.769 44.3849 260.773C43.4977 261.416 42.6271 262.057 41.7731 262.694C48.9733 253.327 43.8736 245.026 43.8736 245.026C38.1572 254.882 40.0572 261.919 40.633 263.55C36.9726 266.314 33.6423 268.99 30.7026 271.452C38.1853 261.941 35.6985 253.243 34.2876 249.951C34.68 249.368 35.0586 248.745 35.4159 248.071C35.4159 248.071 26.1468 246.263 21.4333 256.425C21.6163 254.878 21.7915 253.307 21.9542 251.72C21.9597 251.721 21.9646 251.722 21.9702 251.722C22.079 250.203 22.2705 248.662 22.3858 247.121C23.8513 247.036 29.9859 246.273 33.5884 239.48C33.5884 239.48 26.1891 238.038 22.4639 246.189C22.6818 243.508 22.8556 240.82 22.9687 238.17C24.4925 238.05 29.618 237.216 32.6736 231.454C32.6736 231.454 26.3288 230.221 23.0108 237.088C23.0437 236.185 23.0693 235.287 23.0869 234.397C23.1363 234.404 23.1828 234.414 23.2329 234.421C22.9391 233.362 23.1913 231.941 23.1123 230.834C24.0663 230.786 28.4309 230.299 30.9822 225.488C30.9822 225.488 25.6829 224.457 23.1096 230.389C23.0969 229.076 23.0638 227.788 23.0072 226.53C23.011 226.53 23.0146 226.531 23.0181 226.531C22.9531 225.744 22.9358 224.951 22.8714 224.184C23.8702 223.793 26.9073 222.277 27.7636 218.083C27.7636 218.083 23.8281 218.457 22.7699 222.898C22.5082 219.913 22.0853 217.165 21.4685 214.757C21.8208 213.705 22.3461 211.136 20.3847 208.419C17.9381 211.943 21.3717 213.954 21.7465 218.894C21.3459 217.849 20.1205 215.549 16.8997 214.699C16.8997 214.699 17.0535 218.687 21.8231 219.409C22.0748 221.151 22.2569 223.005 22.3786 224.944C21.6056 223.505 19.9836 221.484 16.7533 220.632C16.7533 220.632 16.9333 225.365 22.4599 226.438C22.5545 228.482 22.5872 230.608 22.5681 232.787C21.785 231.351 20.1635 229.364 16.9678 228.521C16.9678 228.521 17.1481 233.178 22.5469 234.3C22.5031 236.585 22.406 238.921 22.2667 241.273C21.5506 239.474 19.4712 235.754 14.1944 234.363C14.1944 234.363 14.4491 240.909 22.2088 242.211C22.0341 244.949 21.8046 247.703 21.5375 250.421C20.6253 248.155 18.0175 243.558 11.466 241.83C11.466 241.83 11.7827 249.975 21.4162 251.631C21.0692 255.014 20.6681 258.329 20.247 261.474C19.396 259.052 16.4051 252.735 7.83609 250.474C7.83609 250.474 8.21804 260.477 20.125 262.375C19.6506 265.85 19.1558 269.101 18.6882 271.983C17.7462 269.429 14.6883 263.383 6.34855 261.183C6.34855 261.183 6.7265 271.116 18.5112 273.064C18.162 275.18 17.8326 277.07 17.543 278.678C5.7981 272.535 1.14431 280.994 0 287.819C0.580278 287.819 30.0667 287.819 30.6459 287.819C30.6459 287.819 26.4444 283.858 21.1426 280.635C22.2493 279.598 23.5548 278.398 25.0494 277.062C38.0662 287.582 49.2951 280.022 49.2951 280.022C35.7673 272.866 26.6396 276.3 25.1988 276.929C30.0318 272.618 36.7667 266.966 44.8325 261.124C53.7027 267.883 61.1395 263 61.1395 263C54.0061 259.222 48.6792 259.621 46.1001 260.212C48.9189 258.198 51.89 256.17 54.9935 254.172C62.5587 260.092 68.9391 255.909 68.9391 255.909C62.4229 252.457 57.6923 253.139 55.7601 253.682C58.4157 251.989 61.1646 250.322 63.9926 248.708C69.2278 252.763 73.6332 249.876 73.6332 249.876C69.4446 247.657 66.3186 247.896 64.8099 248.243C67.5165 246.717 70.2946 245.243 73.1301 243.845C77.2586 247.076 80.741 244.793 80.741 244.793C77.446 243.048 74.9887 243.239 73.8068 243.512C80.2544 240.116 83.7356 242.262 86.5767 236.839ZM21.2791 257.709C22.6026 257.633 27.018 257.112 31.0844 253.592C30.062 256.036 29.4045 258.298 29.0041 260.347C26.0451 261.048 22.3281 263.025 19.8292 268.248C20.3222 265.007 20.8223 261.443 21.2791 257.709ZM20.6556 280.342C19.8098 279.842 18.9388 279.364 18.0552 278.926C18.3516 277.282 18.6915 275.334 19.0523 273.147H19.0528C19.2293 272.07 19.4129 270.935 19.5975 269.751C20.8508 269.677 24.7018 269.21 28.4721 266.368C28.5522 269.592 29.2327 271.719 29.5096 272.457C25.8372 275.571 22.8432 278.289 20.6556 280.342Z" fill="#324D90"/>
<path d="M35.166 268.544C45.7069 277.015 54.6495 271.143 54.6495 271.143C42.7481 264.839 35.166 268.544 35.166 268.544Z" fill="#324D90"/>
</svg>
