<svg width="532" height="464" viewBox="0 0 532 464" fill="none" xmlns="http://www.w3.org/2000/svg">
<path d="M33.1408 313.306C17.8243 280.02 18.7496 240.816 29.9545 205.928C37.4038 182.728 50.3019 159.819 71.5926 148.014C96.3044 134.312 126.865 138.178 154.01 130.354C196.663 118.058 225.194 79.3593 258.324 49.783C284.931 26.0297 316.901 7.00166 352.119 1.49552C387.338 -4.01062 425.979 5.6111 450.384 31.6269C474.788 57.6426 481.173 100.85 460.586 129.988C448.192 147.53 427.02 160.399 423.509 181.598C420.274 201.128 433.806 219.436 448.606 232.564C463.404 245.69 480.805 257.072 489.803 274.699C505.8 306.03 487.874 346.273 458.953 366.259C430.033 386.246 393.436 390.742 358.387 393.274C288.765 398.306 216.389 400.274 146.949 391.712C102.563 386.24 52.0525 354.401 33.1423 313.306H33.1408Z" fill="#EBEBFF"/>
<path d="M426.468 275.08C426.229 275.08 425.994 274.96 425.86 274.74L416.115 258.953C415.907 258.616 416.012 258.175 416.346 257.967C416.682 257.759 417.122 257.864 417.331 258.199L427.076 273.987C427.283 274.323 427.179 274.765 426.844 274.972C426.727 275.045 426.597 275.08 426.468 275.08Z" fill="white"/>
<path d="M413.714 272.065C413.474 272.065 413.24 271.946 413.105 271.726C412.897 271.389 413.002 270.948 413.336 270.74L429.103 260.982C429.439 260.774 429.88 260.879 430.087 261.214C430.295 261.551 430.19 261.992 429.855 262.2L414.089 271.958C413.973 272.031 413.842 272.065 413.714 272.065Z" fill="white"/>
<path d="M265.999 464.001C412.907 464.001 531.998 458.01 531.998 450.62C531.998 443.23 412.907 437.239 265.999 437.239C119.092 437.239 0 443.23 0 450.62C0 458.01 119.092 464.001 265.999 464.001Z" fill="#D7D5F0"/>
<path d="M309.159 70.5489L330.586 65.4659L324.577 40.0703L303.151 45.1534C301.856 42.9803 300.383 40.9453 298.755 39.0604L310.317 20.2931L288.136 6.5907L276.574 25.358C274.163 24.7468 271.684 24.342 269.164 24.16L264.088 2.7041L238.726 8.72127L243.802 30.1756C241.632 31.4722 239.6 32.9477 237.718 34.5778L218.976 22.9999L205.292 45.211L224.034 56.7889C223.425 59.2045 223.019 61.6854 222.836 64.2088L201.41 69.2918L207.419 94.6873L228.846 89.6043C230.14 91.7773 231.613 93.8139 233.24 95.6973L221.677 114.465L243.858 128.167L255.421 109.4C257.833 110.009 260.311 110.416 262.831 110.599L267.907 132.054L293.268 126.036L288.192 104.581C290.362 103.285 292.396 101.81 294.277 100.181L313.019 111.759L326.703 89.5482L307.961 77.9703C308.571 75.5561 308.976 73.0738 309.157 70.5504L309.159 70.5489ZM288.406 62.0615C288.737 63.4642 288.934 64.8669 289.002 66.2574C289.166 69.5375 288.621 72.7447 287.479 75.6926C286.457 78.3342 284.956 80.7711 283.057 82.8699C280.937 85.2158 278.32 87.1416 275.318 88.467C274.046 89.0311 272.708 89.483 271.307 89.8151C269.907 90.1472 268.505 90.3443 267.119 90.4125C263.844 90.5763 260.641 90.0304 257.697 88.887C255.059 87.8634 252.625 86.3607 250.529 84.4591C248.187 82.3361 246.263 79.7157 244.94 76.7101C244.376 75.4379 243.925 74.0958 243.593 72.6931C243.262 71.292 243.065 69.8878 242.997 68.5002C242.833 65.2202 243.378 62.013 244.52 59.065C245.542 56.4234 247.042 53.9865 248.942 51.8878C251.062 49.5419 253.679 47.616 256.681 46.2907C257.95 45.7281 259.292 45.2747 260.691 44.9426C262.092 44.6105 263.492 44.4133 264.881 44.3451C268.157 44.1813 271.36 44.7272 274.304 45.8706C276.943 46.8927 279.375 48.397 281.471 50.2986C283.814 52.4216 285.737 55.042 287.061 58.0475C287.623 59.3183 288.076 60.6618 288.407 62.063L288.406 62.0615Z" fill="#BFBFFF"/>
<path d="M409.879 232.195C409.782 232.195 409.685 232.18 409.591 232.151L404.635 230.599C404.127 230.439 403.844 229.898 404.003 229.39C404.162 228.882 404.701 228.598 405.21 228.758L409.248 230.022L414.001 214.805C414.127 214.403 414.498 214.129 414.919 214.129C416.774 214.126 418.646 213.957 420.484 213.628C420.898 213.552 421.313 213.757 421.507 214.13L428.892 228.257L444.892 219.87L437.506 205.743C437.311 205.37 437.38 204.913 437.677 204.615C438.995 203.291 440.2 201.846 441.259 200.32C441.499 199.974 441.936 199.824 442.337 199.95L457.534 204.71L462.925 187.45L447.73 182.692C447.328 182.566 447.056 182.194 447.054 181.774C447.05 179.917 446.882 178.042 446.553 176.201C446.479 175.787 446.682 175.373 447.054 175.178L461.162 167.782L452.786 151.761L438.678 159.157C438.306 159.352 437.85 159.283 437.551 158.985C436.229 157.666 434.786 156.461 433.263 155.399C432.917 155.158 432.768 154.721 432.893 154.319L437.647 139.102L420.41 133.704L418.114 141.055C417.955 141.563 417.416 141.847 416.907 141.688C416.4 141.528 416.117 140.989 416.276 140.479L418.859 132.207C419.018 131.699 419.558 131.415 420.066 131.575L439.142 137.548C439.385 137.624 439.588 137.795 439.706 138.021C439.825 138.247 439.849 138.512 439.773 138.756L434.941 154.227C436.154 155.111 437.314 156.082 438.403 157.123L452.745 149.605C453.216 149.358 453.798 149.54 454.045 150.011L463.314 167.741C463.432 167.967 463.457 168.233 463.381 168.477C463.305 168.721 463.134 168.924 462.908 169.042L448.566 176.561C448.8 178.051 448.935 179.559 448.97 181.06L464.418 185.899C464.926 186.058 465.209 186.598 465.05 187.108L459.085 206.208C459.009 206.453 458.838 206.656 458.612 206.774C458.386 206.892 458.121 206.917 457.878 206.841L442.428 202.002C441.545 203.217 440.576 204.378 439.535 205.468L447.044 219.83C447.29 220.302 447.109 220.884 446.638 221.132L428.932 230.414C428.706 230.532 428.441 230.556 428.197 230.48C427.953 230.404 427.75 230.233 427.632 230.007L420.124 215.647C418.637 215.882 417.13 216.017 415.631 216.052L410.798 231.522C410.723 231.766 410.551 231.969 410.326 232.088C410.186 232.161 410.034 232.198 409.879 232.198V232.195ZM420.019 199.729C419.607 199.729 419.227 199.462 419.1 199.048C418.944 198.538 419.229 197.999 419.736 197.842C421.705 197.234 423.527 196.28 425.147 195.007C426.998 193.554 428.489 191.766 429.584 189.69C430.06 188.792 430.455 187.838 430.764 186.853C431.071 185.867 431.289 184.857 431.409 183.85C431.691 181.518 431.482 179.196 430.788 176.949C430.181 174.975 429.227 173.152 427.956 171.531C426.506 169.678 424.72 168.184 422.647 167.088C422.177 166.839 421.997 166.255 422.246 165.785C422.494 165.315 423.077 165.135 423.546 165.383C425.86 166.607 427.853 168.275 429.472 170.34C430.89 172.148 431.953 174.18 432.63 176.38C433.404 178.889 433.637 181.48 433.322 184.081C433.189 185.203 432.946 186.33 432.602 187.428C432.259 188.525 431.816 189.59 431.288 190.591C430.067 192.906 428.402 194.902 426.337 196.523C424.531 197.944 422.501 199.007 420.306 199.685C420.212 199.714 420.115 199.727 420.021 199.727L420.019 199.729Z" fill="#2B0C0C"/>
<path d="M158.56 250.638C158.56 250.638 153.313 257.652 164.116 260.182C164.116 260.182 167.961 261.226 165.084 263.66C162.207 266.094 154.741 268.527 151.963 263.66C149.186 258.792 150.434 247.956 150.434 247.956L158.562 250.64L158.56 250.638Z" fill="#EB7A52"/>
<path d="M175.252 199.55L179.014 210.031C180.532 214.259 179.611 218.978 176.617 222.323L158.559 250.64L150.432 247.956C150.432 247.956 156.012 226.166 157.169 221.897C158.054 218.637 158.308 213.713 157.48 210.439L155.096 201.016L175.251 199.551L175.252 199.55Z" fill="#EB7A52"/>
<path d="M150.922 290.723L182.405 435.37H162.497C162.497 435.37 138.884 389.473 139.81 365.829L114.809 290.723H150.922Z" fill="#746DDD"/>
<path d="M114.808 435.37L120.365 290.723H74.9922C74.9922 290.723 87.0301 344.966 86.1033 360.729C85.178 376.492 87.9553 427.025 91.6595 435.37H114.808Z" fill="#746DDD"/>
<path d="M73.6583 283.769C73.1343 283.769 72.7284 283.314 72.7845 282.792C73.4917 276.35 77.3064 239.265 74.9894 208.895C72.4422 175.516 77.3049 167.865 84.9435 163.694C92.5821 159.521 143.974 158.13 152.308 163.694C156.056 166.196 155.756 184.584 153.003 208.201C150.945 225.847 159.489 272.138 151.24 283.361C151.05 283.62 150.744 283.769 150.421 283.769H73.6568H73.6583Z" fill="#D0CDF5"/>
<path d="M129.809 170.401C126.316 171.885 122.38 171.779 118.586 171.647C116.84 171.585 115.058 171.517 113.43 170.886C111.803 170.254 110.33 168.941 109.991 167.225C109.435 164.414 108.032 162.051 109.776 159.781C110.39 158.978 110.928 158.121 111.382 157.226C112.489 155.05 113.122 152.639 113.278 150.199C113.369 148.789 113.219 147.331 113.439 145.979C113.596 144.992 113.952 144.062 114.737 143.249C116.204 141.727 119.73 140.502 121.786 140.63C126.326 140.916 124.67 144.976 124.629 148.044C124.591 150.898 126.532 153.139 128.413 155.431C129.971 157.326 131.49 159.255 131.817 161.593C132.347 165.357 133.299 168.918 129.806 170.404L129.809 170.401Z" fill="#EB7A52"/>
<path d="M152.867 164.218C152.867 164.218 160.528 166.305 167.01 180.032C168.971 184.185 172.964 192.41 176.847 198.465C176.847 198.465 169.187 204.795 153.365 204.995L152.865 164.218H152.867Z" fill="#CECBF3"/>
<path d="M78.3425 250.638C78.3425 250.638 83.5899 257.652 72.7862 260.182C72.7862 260.182 68.9412 261.226 71.8185 263.66C74.6959 266.094 82.1618 268.527 84.9392 263.66C87.7166 258.792 86.4687 247.956 86.4687 247.956L78.341 250.64L78.3425 250.638Z" fill="#EB7A52"/>
<path d="M61.6513 199.55L57.8896 210.031C56.3722 214.259 57.2929 218.978 60.2869 222.323L78.3445 250.64L86.4722 247.956C86.4722 247.956 80.8917 226.166 79.7347 221.897C78.8503 218.637 78.5958 213.713 79.4242 210.439L81.8079 201.016L61.6529 199.551L61.6513 199.55Z" fill="#EB7A52"/>
<path d="M85.6422 163.391C85.6422 163.391 76.3757 166.305 69.8941 180.032C67.933 184.185 63.9395 192.41 60.0566 198.466C60.0566 198.466 67.7164 204.795 83.5387 204.995L85.6437 163.391H85.6422Z" fill="#D0CDF5"/>
<path d="M128.417 155.428C128.417 155.428 122.974 160.206 111.385 157.225C112.492 155.049 113.125 152.638 113.281 150.198C113.372 148.787 113.222 147.33 113.441 145.978L128.417 155.428Z" fill="#BD5B39"/>
<path d="M74.9905 290.723C74.9905 290.723 73.4852 287.361 73.8336 283.769H149.532L150.92 290.723H74.9905Z" fill="#746DDD"/>
<path d="M136.599 132.727C137.046 137.845 136.078 144.467 133.697 149.426C133.673 149.479 133.646 149.532 133.622 149.582C132.457 151.964 130.959 153.948 129.133 155.174C129.012 155.256 128.888 155.335 128.764 155.409C127.769 156.005 126.686 156.383 125.506 156.486C117.318 157.202 109.505 144.294 108.71 135.167C107.915 126.039 112.146 118.215 120.335 117.499C128.523 116.783 135.804 123.601 136.601 132.728L136.599 132.727Z" fill="#EB7A52"/>
<path d="M109.774 435.37H96.2305V443.541H109.774V435.37Z" fill="#EB7A52"/>
<path d="M181.446 443.541H170.68L166.514 435.37H178.406L181.446 443.541Z" fill="#EB7A52"/>
<path d="M172.441 442.246C175.135 443.189 176.116 443.323 178.713 442.134C180.214 441.447 181.613 440.364 183.176 439.933C185.785 439.213 193.062 443.97 199.168 447.396C200.535 448.163 200.331 450.198 198.833 450.661C198.808 450.668 198.782 450.676 198.756 450.683C197.225 451.132 195.629 451.3 194.034 451.29C189.652 451.261 179.084 451.317 174.703 451.287C172.975 451.275 171.221 451.26 169.563 450.771C165.826 449.669 163.795 445.167 165.146 441.463C167.005 436.364 169.145 441.092 172.442 442.244L172.441 442.246Z" fill="#471414"/>
<path d="M106.465 439.186H99.5386C97.2004 439.186 95.1439 440.299 94.4987 441.917L92.6754 446.486C91.7138 448.895 94.2292 451.297 97.7153 451.297H108.289C111.775 451.297 114.29 448.895 113.329 446.486L111.505 441.917C110.86 440.3 108.804 439.186 106.465 439.186Z" fill="#471414"/>
<path d="M120.548 303.696C120.519 303.696 120.489 303.693 120.458 303.688C120.152 303.64 119.945 303.352 119.993 303.045C120.778 298.147 120.849 293.17 120.207 288.253C120.166 287.945 120.383 287.664 120.69 287.623C120.999 287.584 121.278 287.799 121.318 288.107C121.974 293.132 121.901 298.219 121.1 303.223C121.056 303.499 120.819 303.696 120.548 303.696Z" fill="#471414"/>
<path d="M121.266 297.599C121.072 297.599 120.884 297.497 120.78 297.318C120.625 297.05 120.718 296.707 120.986 296.552C122.288 295.8 123.306 294.549 123.778 293.121C124.251 291.692 124.178 290.08 123.58 288.699C123.457 288.414 123.588 288.085 123.871 287.96C124.155 287.837 124.484 287.968 124.608 288.251C125.314 289.882 125.4 291.785 124.843 293.473C124.286 295.16 123.085 296.636 121.546 297.524C121.458 297.576 121.361 297.6 121.268 297.6L121.266 297.599Z" fill="#471414"/>
<path d="M112.608 144.294C112.045 141.96 109.331 140.856 108.115 138.787C107.102 137.062 107.325 134.698 108.644 133.195C109.961 131.693 112.275 131.165 114.112 131.949C115.421 132.507 116.603 133.67 118.012 133.485C119.275 133.318 120.127 132.114 120.63 130.944C121.133 129.773 121.486 128.472 122.411 127.597C123.682 126.394 125.691 126.355 127.356 126.886C129.021 127.416 130.493 128.417 132.099 129.11C133.704 129.803 135.601 130.169 137.169 129.394C139.254 128.363 139.973 125.782 140.331 123.481C140.635 121.528 140.832 119.493 140.251 117.605C139.669 115.716 138.135 113.998 136.174 113.764C133.145 113.402 130.663 116.503 127.615 116.629C125.188 116.729 123.152 114.957 120.991 113.849C118.392 112.518 115.331 112.108 112.475 112.712C110.428 113.144 108.259 114.369 107.871 116.428C107.652 117.59 108.053 118.785 107.959 119.965C107.767 122.389 105.629 124.124 103.696 125.6C101.765 127.075 99.6862 128.942 99.7044 131.374C99.7256 134.284 102.809 136.657 102.386 139.537C102.093 141.534 100.198 142.919 99.5378 144.826C96.4287 153.805 114.309 151.338 112.607 144.297L112.608 144.294Z" fill="#5B2319"/>
<path d="M110.336 143.777C112.577 143.741 114.352 141.17 114.302 138.034C114.251 134.898 112.395 132.385 110.154 132.421C107.914 132.457 106.138 135.028 106.189 138.164C106.239 141.3 108.096 143.813 110.336 143.777Z" fill="#EB7A52"/>
<path d="M105.252 120.156C105.357 120.923 105.657 121.675 105.587 122.447C105.487 123.556 105.171 124.412 103.243 125.952C102.375 126.645 102.722 127.362 103.163 128.384C103.52 129.215 104.51 129.661 105.407 129.541C106.303 129.421 107.083 128.824 107.598 128.081C108.113 127.338 108.395 126.458 108.61 125.58C109.355 122.534 109.378 119.305 108.667 116.25C108.478 115.435 108.982 114.439 108.982 114.439C108.113 115.261 106.638 116.228 106.276 116.679C105.501 117.643 105.083 118.918 105.251 120.156H105.252Z" fill="#5B2319"/>
<path d="M340.756 403.97C356.938 387.767 356.938 361.495 340.756 345.291C324.574 329.088 298.338 329.088 282.156 345.291C265.974 361.495 265.974 387.767 282.156 403.97C298.338 420.174 324.574 420.174 340.756 403.97Z" fill="#BFBBF0"/>
<path d="M311.455 417.088C288.075 417.088 269.055 398.042 269.055 374.632C269.055 351.221 288.075 332.175 311.455 332.175C334.834 332.175 353.854 351.221 353.854 374.632C353.854 398.042 334.834 417.088 311.455 417.088ZM311.455 334.102C289.137 334.102 270.981 352.283 270.981 374.632C270.981 396.981 289.137 415.161 311.455 415.161C333.772 415.161 351.93 396.981 351.93 374.632C351.93 352.283 333.772 334.102 311.455 334.102Z" fill="#2B0C0C"/>
<path d="M413.712 159.789C413.712 103.237 367.929 57.394 311.455 57.394C254.98 57.394 209.197 103.239 209.197 159.789C209.197 184.445 217.899 207.065 232.396 224.738C246.428 241.846 254.241 263.218 254.241 285.357V285.539H368.668V285.357C368.668 263.218 376.481 241.846 390.513 224.738C405.011 207.065 413.712 184.445 413.712 159.789Z" fill="#FFC040"/>
<path d="M368.669 286.503H254.242C253.71 286.503 253.279 286.071 253.279 285.539V285.357C253.279 263.663 245.598 242.351 231.653 225.35C224.231 216.303 218.446 206.163 214.457 195.213C210.329 183.881 208.236 171.963 208.236 159.789C208.236 145.837 210.965 132.299 216.349 119.557C221.548 107.25 228.991 96.1949 238.47 86.7036C247.948 77.2123 258.988 69.7591 271.279 64.5532C284.004 59.1638 297.523 56.4297 311.457 56.4297C325.391 56.4297 338.91 59.1623 351.635 64.5532C363.926 69.7591 374.966 77.2123 384.444 86.7036C393.925 96.1964 401.366 107.25 406.565 119.557C411.947 132.299 414.678 145.837 414.678 159.789C414.678 171.961 412.585 183.881 408.457 195.213C404.468 206.163 398.681 216.303 391.261 225.35C377.315 242.352 369.634 263.663 369.634 285.357V285.539C369.634 286.071 369.202 286.503 368.671 286.503H368.669ZM255.202 284.574H367.709C367.891 262.704 375.709 241.267 389.769 224.125C404.587 206.06 412.75 183.21 412.75 159.789C412.75 103.86 367.309 58.3586 311.455 58.3586C255.602 58.3586 210.161 103.86 210.161 159.789C210.161 183.212 218.322 206.06 233.142 224.125C247.203 241.267 255.02 262.704 255.202 284.574Z" fill="#2B0C0C"/>
<path d="M368.669 285.539H254.242V307.812H368.669V285.539Z" fill="#BFBBF0"/>
<path d="M368.67 308.776H254.242C253.711 308.776 253.279 308.344 253.279 307.812V285.539C253.279 285.006 253.711 284.574 254.242 284.574H368.67C369.201 284.574 369.633 285.006 369.633 285.539V307.812C369.633 308.344 369.201 308.776 368.67 308.776ZM255.206 306.847H367.706V286.503H255.206V306.847Z" fill="#2B0C0C"/>
<path d="M249.2 307.812H373.711C379.849 307.812 384.833 312.803 384.833 318.949C384.833 325.095 379.849 330.085 373.711 330.085H249.2C243.062 330.085 238.078 325.095 238.078 318.949C238.078 312.803 243.062 307.812 249.2 307.812Z" fill="#746DDD"/>
<path d="M373.711 352.358H249.2C243.057 352.358 238.078 347.372 238.078 341.222C238.078 335.071 243.057 330.085 249.2 330.085H373.711C379.854 330.085 384.833 335.071 384.833 341.222C384.833 347.372 379.854 352.358 373.711 352.358Z" fill="#746DDD"/>
<path d="M249.2 352.358H373.711C379.849 352.358 384.833 357.349 384.833 363.495C384.833 369.641 379.849 374.632 373.711 374.632H249.2C243.062 374.632 238.078 369.641 238.078 363.495C238.078 357.349 243.062 352.358 249.2 352.358Z" fill="#746DDD"/>
<path d="M373.71 331.049H249.198C242.535 331.049 237.113 325.621 237.113 318.948C237.113 312.276 242.535 306.847 249.198 306.847H373.71C380.373 306.847 385.794 312.276 385.794 318.948C385.794 325.621 380.373 331.049 373.71 331.049ZM249.198 308.776C243.596 308.776 239.04 313.339 239.04 318.948C239.04 324.557 243.596 329.12 249.198 329.12H373.71C379.311 329.12 383.868 324.557 383.868 318.948C383.868 313.339 379.311 308.776 373.71 308.776H249.198Z" fill="#2B0C0C"/>
<path d="M373.71 353.323H249.198C242.535 353.323 237.113 347.894 237.113 341.222C237.113 334.549 242.535 329.121 249.198 329.121H373.71C380.373 329.121 385.794 334.549 385.794 341.222C385.794 347.894 380.373 353.323 373.71 353.323ZM249.198 331.049C243.596 331.049 239.04 335.612 239.04 341.222C239.04 346.831 243.596 351.394 249.198 351.394H373.71C379.311 351.394 383.868 346.831 383.868 341.222C383.868 335.612 379.311 331.049 373.71 331.049H249.198Z" fill="#2B0C0C"/>
<path d="M373.71 375.596H249.198C242.535 375.596 237.113 370.167 237.113 363.495C237.113 356.823 242.535 351.394 249.198 351.394H373.71C380.373 351.394 385.794 356.823 385.794 363.495C385.794 370.167 380.373 375.596 373.71 375.596ZM249.198 353.323C243.596 353.323 239.04 357.886 239.04 363.495C239.04 369.104 243.596 373.667 249.198 373.667H373.71C379.311 373.667 383.868 369.104 383.868 363.495C383.868 357.886 379.311 353.323 373.71 353.323H249.198Z" fill="#2B0C0C"/>
<path d="M289.101 286.503C289.092 286.503 289.084 286.503 289.077 286.503C288.545 286.49 288.124 286.047 288.138 285.515C288.362 276.592 288.759 267.963 289.142 259.619C289.773 245.857 290.37 232.858 290.197 219.459C290.084 210.715 290.374 202.522 290.655 194.597C290.78 191.044 290.904 187.546 290.991 184.069C286.276 183.399 281.568 182.255 277.052 180.361C265.049 175.33 253.835 162.849 255.627 148.735C256.366 142.913 260.026 137.278 265.18 134.028C269.368 131.387 273.977 130.695 278.156 132.084C288.024 135.361 291.213 147.153 292.151 156.468C293.044 165.355 293.134 173.821 292.956 182.378C299.281 183.129 305.6 183.072 311.429 182.907C311.961 182.891 312.404 183.311 312.419 183.844C312.435 184.377 312.017 184.821 311.483 184.836C305.632 185.003 299.288 185.059 292.911 184.317C292.825 187.735 292.704 191.175 292.579 194.667C292.299 202.569 292.01 210.74 292.122 219.436C292.296 232.893 291.698 245.919 291.065 259.71C290.682 268.044 290.287 276.663 290.062 285.565C290.049 286.089 289.62 286.505 289.101 286.505V286.503ZM273.818 133.316C271.278 133.316 268.667 134.109 266.206 135.661C261.527 138.612 258.206 143.715 257.538 148.979C255.868 162.138 266.465 173.833 277.797 178.582C282.07 180.373 286.542 181.471 291.036 182.125C291.207 173.703 291.112 165.371 290.237 156.662C289.516 149.502 286.91 137.023 277.552 133.916C276.344 133.514 275.091 133.316 273.819 133.316H273.818Z" fill="#2B0C0C"/>
<path d="M331.463 286.503C330.949 286.503 330.521 286.095 330.502 285.575C329.589 261.101 328.893 239.209 329.619 219.118C329.92 210.78 329.829 202.457 329.742 194.408C329.705 191.085 329.669 187.732 329.66 184.355C323.396 185.056 317.175 184.998 311.427 184.834C310.895 184.819 310.475 184.375 310.491 183.843C310.506 183.31 310.956 182.892 311.481 182.906C317.219 183.069 323.433 183.125 329.658 182.411C329.666 173.871 329.882 165.186 330.759 156.467C331.697 147.153 334.884 135.361 344.754 132.083C348.933 130.695 353.542 131.385 357.73 134.027C362.884 137.276 366.544 142.911 367.283 148.733C369.075 162.848 357.861 175.328 345.858 180.359C341.234 182.297 336.411 183.45 331.585 184.114C331.592 187.564 331.63 190.99 331.666 194.385C331.754 202.457 331.845 210.805 331.542 219.186C330.818 239.212 331.513 261.067 332.425 285.502C332.445 286.035 332.03 286.482 331.498 286.502C331.486 286.502 331.474 286.502 331.462 286.502L331.463 286.503ZM349.094 133.315C347.823 133.315 346.569 133.514 345.361 133.914C336.002 137.023 333.397 149.5 332.676 156.661C331.816 165.213 331.595 173.755 331.585 182.166C336.178 181.517 340.751 180.41 345.114 178.581C356.446 173.83 367.044 162.137 365.374 148.977C364.706 143.714 361.383 138.611 356.705 135.66C354.244 134.109 351.634 133.315 349.094 133.315Z" fill="#2B0C0C"/>
<path d="M419.349 403.128C415.848 397.976 413.823 391.479 415.336 385.433C416.85 379.387 422.579 374.244 428.783 374.742C426.603 370.337 424.392 365.836 423.712 360.967C423.032 356.098 424.137 350.709 427.745 347.374C431.352 344.039 437.738 343.669 440.936 347.4C438.563 338.618 441.306 328.642 447.834 322.315C452.02 318.259 457.861 315.667 463.651 316.31C469.44 316.952 474.906 321.263 476.002 326.99C477.002 332.208 474.362 337.589 470.509 341.242C466.657 344.895 461.721 347.145 456.886 349.33C462.494 346.419 470.405 350.745 470.988 357.044C471.451 362.052 467.883 366.733 463.467 369.129C459.051 371.525 453.915 372.108 448.922 372.648C459.174 377.135 464.965 389.904 461.594 400.587C454.587 422.789 430.105 418.963 419.349 403.13V403.128Z" fill="#746DDD"/>
<path d="M439.05 455.484C438.597 455.484 438.193 455.163 438.105 454.7C432.848 427.064 434.224 398.179 442.082 371.17C442.23 370.659 442.765 370.365 443.275 370.513C443.785 370.662 444.079 371.197 443.931 371.708C436.157 398.427 434.797 427.001 439.998 454.34C440.098 454.863 439.754 455.368 439.232 455.468C439.171 455.48 439.11 455.484 439.05 455.484Z" fill="#2B0C0C"/>
<path d="M192.187 303.851C187.437 303.851 183.574 299.982 183.574 295.227C183.574 290.471 187.437 286.603 192.187 286.603C196.936 286.603 200.799 290.471 200.799 295.227C200.799 299.982 196.936 303.851 192.187 303.851ZM192.187 288.035C188.226 288.035 185.004 291.261 185.004 295.227C185.004 299.192 188.226 302.419 192.187 302.419C196.147 302.419 199.369 299.192 199.369 295.227C199.369 291.261 196.147 288.035 192.187 288.035Z" fill="white"/>
<path d="M392.73 49.9075C387.98 49.9075 384.117 46.0391 384.117 41.2836C384.117 36.5281 387.98 32.6597 392.73 32.6597C397.479 32.6597 401.342 36.5281 401.342 41.2836C401.342 46.0391 397.479 49.9075 392.73 49.9075ZM392.73 34.0912C388.769 34.0912 385.547 37.3181 385.547 41.2836C385.547 45.249 388.769 48.476 392.73 48.476C396.69 48.476 399.912 45.249 399.912 41.2836C399.912 37.3181 396.69 34.0912 392.73 34.0912Z" fill="white"/>
</svg>
