<?xml version="1.0" encoding="UTF-8"?>
<svg xmlns="http://www.w3.org/2000/svg" version="1.1" viewBox="0 0 4000 4000">
  <!-- Generator: Adobe Illustrator 28.7.7, SVG Export Plug-In . SVG Version: 1.2.0 Build 194)  -->
  <g>
    <g id="Layer_1">
      <g>
        <path d="M3268.623,2729.052c-2.859-.233-4.789.924-4.32,2.599l59.96,403.369,10.916,2.718-60.498-405.218c-.47-1.676-3.185-3.223-6.058-3.468Z" style="fill: #fdd089;"/>
        <polygon points="3275.163 2547.896 3563.471 3234.853 3584.675 3224.694 3336.334 2535.44 3275.163 2547.896" style="fill: #fdd089;"/>
        <polygon points="3173.015 2545.658 3364.672 3199.892 3387.065 3192.724 3235.313 2541.668 3173.015 2545.658" style="fill: #fdd089;"/>
        <polygon points="2904.347 3246.463 2927.394 3251.118 3045.712 2579.734 2983.353 2582.641 2904.347 3246.463" style="fill: #fdd089;"/>
        <polygon points="2690.756 3193.816 2712.789 3202.022 2934.812 2557.46 2872.768 2550.563 2690.756 3193.816" style="fill: #fdd089;"/>
        <path d="M3343.267,1751.99c-189.145-15.905-243.26,157.116-284.207,283.621-22.037,68.105-41.456,122.52-62.11,166.581-.93,1.978-1.86,3.941-2.79,5.883-.599,1.225-1.184,2.451-1.77,3.663-1.226,2.492-2.452,4.957-3.691,7.367-1.225,2.397-2.451,4.766-3.676,7.108-.626,1.171-1.239,2.329-1.866,3.472-.613,1.158-1.239,2.302-1.865,3.431-.626,1.131-1.252,2.261-1.879,3.378-.558,1.008-1.117,2.002-1.675,2.982-4.03,7.068-8.156,13.808-12.378,20.235-.477.722-.954,1.443-1.43,2.166-1.389,2.096-2.805,4.166-4.248,6.209-.6.858-1.198,1.716-1.811,2.56-.79,1.117-1.593,2.233-2.41,3.35-.572.776-1.144,1.539-1.716,2.302-4.848,6.482-9.859,12.623-15.06,18.452-58.323,65.431-181.138,41.179-237.922,140.408-.34.585-.667,1.185-.98,1.811-11.425,21.393-11.847,49.444-2.029,77.809,17.212,49.771,65.921,100.537,142.029,118.103,10.118,2.342,20.726,4.099,31.81,5.175,143.214,13.971,456.057-8.974,548.097-190.479,65.636-129.446,112.711-679.681-76.42-695.585Z" style="fill: #8595b6;"/>
        <polygon points="2685.17 3053.728 2726.539 3288.281 2878.489 3251.816 2817.488 3024.191 2685.17 3053.728" style="fill: #fcc0a9; fill-rule: evenodd;"/>
        <path d="M2894.1,3288.519c-9.444-38.489-19.8-75.393-33.189-107.298-58.322,4.677-59.462,49.034-101.189,61.109-4.856-17.471-5.933-31.769-16.562-38.106-10.16-6.207-32.337-.329-38.725.782-2.667,13.194-4.16,23.945-7.791,33.506-12.974,34.17-51.703,54.835-84.091,74.928-22.956,14.211-42.109,30.596-50.8,55.938-.466,1.329-.855,2.656-1.244,3.982.004.076-.069.157-.064.233-4.18,15.042,9.999,28.864,25.232,25.203,98.813-23.979,199.457-46.752,296.605-71.717,11.052-2.899,17.665-14.079,15.073-25.147-1.086-4.472-2.171-8.942-3.256-13.414Z" style="fill: #0a0a0c; fill-rule: evenodd;"/>
        <path d="M2894.1,3288.519c-42.732,26.178-162.556,56.279-242.089,71.927-59.86,11.748-81.46,11.223-90.258,8.933-.466,1.329-.855,2.656-1.244,3.982.004.076-.069.157-.064.233-4.18,15.042,9.999,28.864,25.232,25.203,98.813-23.979,199.457-46.752,296.605-71.717,11.052-2.899,17.665-14.079,15.073-25.147-1.086-4.472-2.171-8.942-3.256-13.414Z" style="fill: #0a0a0c;"/>
        <polygon points="2336.474 3016.621 2316.634 3253.966 2472.859 3257.474 2471.949 3021.818 2336.474 3016.621" style="fill: #fcc0a9; fill-rule: evenodd;"/>
        <path d="M2360.442,3218.001c-.238-18.132,2.368-32.231-6.293-41.07-8.24-8.594-31.183-8.568-37.643-9.123-5.944,12.077-10.131,22.091-16.081,30.41-21.263,29.729-63.982,39.829-100.425,50.995-25.821,7.884-48.522,18.84-63.39,41.127-.79,1.166-1.504,2.349-2.218,3.533-.016.074-.107.135-.122.209-7.879,13.478,2.305,30.459,17.968,30.806,101.661,2.024,204.784,5.68,305.087,6.326,11.426.017,20.672-9.107,20.989-20.469.091-4.601.182-9.2.274-13.8.688-39.625.09-77.951-4.717-112.215-57.585-10.357-70.004,32.242-113.43,33.271Z" style="fill: #0a0a0c; fill-rule: evenodd;"/>
        <path d="M2226.161,3304.729c-60.876-3.912-81.628-9.931-89.551-14.389-.79,1.166-1.504,2.349-2.218,3.533-.016.074-.107.135-.122.209-7.879,13.478,2.305,30.459,17.968,30.806,101.661,2.024,204.784,5.68,305.087,6.326,11.426.017,20.672-9.107,20.989-20.469.091-4.601.182-9.2.274-13.8-47.996,14.41-171.535,12.945-252.428,7.784Z" style="fill: #0a0a0c;"/>
        <path d="M2850.631,2182.065s-410.106,68.971-504.139,138.614c-52.029,38.529-54.67,113.293-68.885,301.944-2.631,34.794-3.702,413.84,3.746,496.918,1.895,21.132,230.059,17.888,243.938,12.442,7.73-3.02-29.271-347.091-9.286-519.482,5.369-46.303,13.24-79.462,24.704-89.173,0,0,28.689,4.731,74.2,6.192,94.608,3.032,261.943-8.108,395.415-105.367,130.408-95.04-159.692-242.088-159.692-242.088Z" style="fill: #171431;"/>
        <path d="M2493.334,2414.668c-19.747,25.414,13.803,146.518,22.669,197.833,5.369-46.303,13.24-79.462,24.704-89.173,0,0,28.689,4.731,74.2,6.192l224.843-253.942c-2.609.758-262.95,31.673-346.417,139.091Z" style="fill: #171431;"/>
        <path d="M2735.174,2314.443c-79.098,30.424-139.996,67.172-169.088,88.717-59.336,43.941-.932,321.692,44.878,535.288,27.694,129.128,40.467,214.736,45.859,244.565,4.402,24.347,241.618-30.973,241.618-30.973l-119.546-580.309s61.534-17.068,129.287-25.138c78.261-9.321,159.047-28.484,228.978-79.448,130.41-95.039-33.79-276.948-33.79-276.948,0,0-191.61,56.327-368.196,124.246Z" style="fill: #171431;"/>
        <path d="M3155.067,1526.128c-63.468-22.252-130.914-34.061-156.771-36.736-75.726-7.833-138.733,5.212-179.453,18.171-30.49,9.704-54.739,33.01-65.716,63.066l-98.302,269.147-100.067-236.503-165.16,52.444s40.283,444.892,198.32,474.602c42.475,7.986,85.674-19.064,125.855-64.323-1.005,2.967-1.837,5.839-2.407,8.565-6.761,32.365-29.058,82.724-36.601,110.19-13.34,48.569,191.957,98.851,191.957,98.851,0,0,326.007,163.326,336.581,140.178,28.64-62.697,18.439-210.821,24.624-238.122,7.1-31.343,51.086-429.128,47.736-497.85-3.579-73.412-51.237-137.364-120.596-161.682Z" style="fill: #3ba871;"/>
        <path d="M2674.228,2028.076c-14.349,32.563-42.274,82.269-53.372,101.714,47.648-10.022,94.994-58.437,136.802-121.737-.853-68.75-6.561-143.696-11.393-157.914,0,0-53.874,136.716-72.037,177.937Z" style="fill: #2c7e55;"/>
        <path d="M2984.198,1483.231c-13.801,2.243-35.811,8.661-48.917,44.329-49.297,134.167-79.866,456.907-65.547,444.743,18.126-15.398,217.478-452.942,192.307-475.493-20.094-18.002-62.167-16.127-77.843-13.579Z" style="fill: #b2d4bb;"/>
        <path d="M3080.45,2122.947c-54.712-1.479-269.838-167.621-301.63-228.247,0,0,81.907,251.695,125.899,313.912,43.991,62.218,125.456,106.565,197.912,105.825,72.456-.739,129.476-210.702,132.019-268.007,2.543-57.306-99.487,77.995-154.199,76.516Z" style="fill: #2c7e55;"/>
        <path d="M3030.557,1907.326c-16.356.661-59.726-24.494-59.726-24.494l79.306,121.08,87.579-367.593c-48.769,57.862-90.802,270.347-107.158,271.008Z" style="fill: #2c7e55;"/>
        <path d="M2792.373,1717.693c.046.09.076.149.076.149,0,0-.027-.053-.076-.149Z" style="fill: #faba97;"/>
        <path d="M2810.83,1629.718c-27.749-24.007-4.056,46.841-4.056,46.841,0,0-19.413-33.388-36.774-34.611-16.938-1.193,20.533,72.164,22.373,75.746.05.096.076.149.076.149,0,0-.031-.06-.076-.149-1.502-2.911-25.219-48.446-39.723-49.175-11.408-.573,8.639,45.715,18.857,67.844,3.395,6.442,5.443,11.505,5.443,11.505,0,0-2.24-4.569-5.443-11.505-5.472-10.383-14.451-24.354-24.049-26.521-15.551-3.512,5.345,59.284,13.356,81.599,8.011,22.314,8.069,55.218,43.164,62.902,47.911,10.489,68.527-24.525,68.527-24.525,0,0,1.966-84.749-.682-97.624-2.647-12.874-33.244-78.467-60.993-102.474Z" style="fill: #faba97;"/>
        <path d="M2771.507,1736.361c3.203,6.936,5.443,11.505,5.443,11.505,0,0-2.048-5.063-5.443-11.505Z" style="fill: #faba97;"/>
        <path d="M3148.276,1591.994l-98.139,411.918-152.501-233.361-127.216,91.785s166.043,410.751,327.035,401.826c160.991-8.925,177.827-499.981,143.325-573.823-34.502-73.843-92.504-98.346-92.504-98.346Z" style="fill: #3ba871;"/>
        <polygon points="2402.369 1577.964 2422.405 1645.3 2531.246 1611.004 2486.002 1516.214 2402.369 1577.964" style="fill: #faba97;"/>
        <polygon points="1000.95 3375.314 1056.756 3375.314 1387.54 2335.777 1249.446 2327.008 1000.95 3375.314" style="fill: #b2d4bb;"/>
        <polygon points="2271.435 2298.545 2641.633 3375.314 2704.257 3375.314 2430.153 2295.761 2271.435 2298.545" style="fill: #b2d4bb;"/>
        <path d="M927.847,2332.354c235.583,132.239,1654.373,138.94,1877.25,0v-112.4H927.847v112.4Z" style="fill: #4db09a;"/>
        <ellipse cx="1866.472" cy="2219.954" rx="938.625" ry="112.4" style="fill: #66ebcd;"/>
        <path d="M2328.138,1483.016c27.051,33.806,43.762,111.397,153.476,146.445l25.741-51.499-47.537-132.047-131.68,37.101Z" style="fill: #faba97;"/>
        <path d="M2375.685,1440.744c-.454-.084-.907-.167-1.349-.198l-46.071-4.698c-.572-.062-1.146-.124-1.706-.133l-.06.01c-10.367-.281-19.638,6.125-21.624,15.348-.54,2.52-.52,5.05.024,7.429,1.016,4.443,3.772,8.351,7.754,11.103,2.81,1.972,6.226,3.339,10.068,3.858l26.815,3.541,18.998,2.469c3.007.394,6.013.239,8.837-.435,7.379-1.659,13.482-6.723,15.654-13.502.225-.647.39-1.281.542-1.97.541-2.52.461-5.038-.083-7.418-1.755-7.669-8.598-13.979-17.799-15.406Z" style="fill: #faba97;"/>
        <path d="M2361.027,1327.98c-8.015-6.393-20.492-5.282-26.915,2.397-5.192,6.207-4.726,14.804,1.113,20.541l45.074,44.291,26.937,100.387,66.99-38.223-44.132-74.299-69.067-55.094Z" style="fill: #faba97;"/>
        <path d="M2361.112,1498.598l-37.191-24.511c-5.329-3.425-11.952-4.465-17.97-3.067-.857.188-1.731.455-2.602.722-3.109.967-6.004,2.693-8.303,5.08-2.641,2.736-4.269,5.875-4.911,9.087-1.329,6.66,1.362,13.71,7.739,18.268l36.337,25.591c9.348,6.559,22.972,5.387,30.688-2.694,2.195-2.322,3.64-5.005,4.469-7.784.198-.534.291-1.004.385-1.474.078-.392.173-.862.163-1.267.888-6.73-2.189-13.678-8.804-17.95Z" style="fill: #faba97;"/>
        <path d="M2377.371,1479.039l-28.806-29.062c-3.626-3.641-8.584-5.777-13.655-6.24-2.29-.248-4.629-.157-6.893.25-2.968.591-5.757,1.697-8.351,3.377-4.523,3.017-7.277,7.257-8.205,11.884-.704,3.43-.311,7.049,1.191,10.358.781,1.786,1.907,3.455,3.32,5.018l29.531,31.684c7.589,8.214,21.18,9.565,30.559,3.086,3.641-2.528,6.124-5.783,7.413-9.374l.06-.011c.141-.465.343-.943.472-1.462.153-.413.235-.869.33-1.271,1.115-5.707-.503-11.693-5.111-16.369l-1.855-1.869Z" style="fill: #faba97;"/>
        <path d="M2402.684,1422.85l-14.862-3.656-15.377-3.728-14.468-3.561c-10.709-2.586-21.941,2.575-25.716,11.845-1.396,3.39-1.648,6.904-.886,10.235.629,2.751,1.901,5.329,3.83,7.515,2.575,3.115,6.305,5.582,10.806,6.809l29.956,8.316,14.303,3.921c11.39,3.125,23.611-2.325,27.514-12.388,1.325-3.433,1.517-6.936.754-10.268-1.609-7.033-7.45-13.03-15.855-15.04Z" style="fill: #faba97;"/>
        <path d="M2375.636,1428.642c-2.973-4.095-7.488-6.893-12.443-8.057-5.094-1.292-10.686-.8-15.669,1.559-4.984,2.357-8.447,6.185-10.158,10.628-1.942,5.046-1.507,10.811,1.799,15.765l23.733,35.359c6.051,9.149,19.243,12.304,29.637,7.213,4.586-2.31,7.876-5.687,9.696-9.676.229-.351.403-.803.549-1.179,2.115-5.498,1.542-11.641-2.216-16.901l-24.929-34.712Z" style="fill: #faba97;"/>
        <path d="M2404.339,1413.857l-9.941,44.601,21.392,24.255s-38.032,95.769,91.566,95.248l-33.13-120.589-69.886-43.516Z" style="fill: #faba97;"/>
        <path d="M2345.088,1449.985h0c2.948,8.07,12.001,13.098,21.472,11.925l27.838-3.451,9.941-44.601-46.872,14.195c-10.186,3.084-15.697,12.849-12.38,21.933Z" style="fill: #faba97;"/>
        <path d="M2937.414,1432.627l-.929,41.311-1.1,49.093-.103,4.529s10.62,12.09,58.686,12.103c39.903.014,72.119-26.997,72.119-26.997l9.086-138.653-136.057,7.941-1.703,50.673Z" style="fill: #fcc0a9;"/>
        <path d="M2937.681,1448.363l-2.103,66.031c141.269-52.759,119.578-103.9,119.578-103.9l-117.475,37.869Z" style="fill: #fc9a73;"/>
        <path d="M3066.333,1085.994c-5.548,2.129-9.831,4.905-12.503,7.975-18.005,20.698,11.742,57.373,38.693,91.108,26.952,33.735,64.474,58.098,84.618,39.767,8.859-8.057,15.407-24.124,17.317-42.089,2.436-22.902-2.68-48.898-20.18-65.298-40.633-38.076-85.037-40.271-107.945-31.463Z" style="fill: #0a0a0c;"/>
        <path d="M3107.278,1155.648c-.065-.006-.102-.008-.102-.008-2.854-10.484-7.545-20.231-13.645-28.893-13.198-18.778-33.426-30.772-54.594-37.957-72.768-24.701-120.043,41.416-120.043,41.416,0,0-51.799,6.023-79.462,61.364-13.463,26.933-9.784,62.144,4.633,87.995,3.976,7.133,8.402,14.101,12.901,20.966,2.475,3.803,4.988,7.558,7.451,11.296,12.666,19.204,78.458,38.983,96.302,52.764l17.332,12.898,68.235,50.764,20.246-49.563s128.512,47.469,117.378-132.219c-5.125-82.714-73.743-90.483-76.632-90.824Z" style="fill: #0a0a0c;"/>
        <path d="M3084.942,1306.719c-.276.444-2.713,3.515-6.351,3.362-1.97-.082-4.311-1.108-6.756-3.972-7.426-8.631-8.566-44.402-15.15-46.668-6.568-2.31-31.565,5.461-84.034-26.331-52.47-31.777-50.36-48.039-50.36-48.039l-9.655,8.309c-9.734,8.381-33.879,34.558-33.879,34.558,0,0-7.585,61.35-3.512,118.376.618,8.802,1.513,17.492,2.74,25.864,4.665,30.62,9.467,54.399,29.64,67.861,18.426,12.388,35.878,17.994,50.54,19.52,1.517.018,46.744,6.982,79.178-15.947,32.873-23.245,56.5-76.962,56.5-76.962,0,0,24.199-2.158,32.718-19.562,3.477-7.248,7.152-25.707-9.874-43.258-12.78-13.092-25.279-9.381-31.745,2.888Z" style="fill: #fcc0a9;"/>
        <polygon points="1941.419 2102.136 2355.185 2326.169 2670.757 2239.007 2185.27 2025.81 1941.419 2102.136" style="fill: #d1d1d1;"/>
        <polygon points="2487.75 2225.185 2528.49 2243.983 2571.99 2234.992 2530.16 2217.111 2487.75 2225.185" style="fill: #b2b2b2;"/>
        <polygon points="2438.645 2236.131 2479.385 2254.93 2522.884 2245.938 2481.055 2228.058 2438.645 2236.131" style="fill: #b2b2b2;"/>
        <polygon points="2389.539 2247.078 2430.28 2265.876 2473.779 2256.885 2431.95 2239.004 2389.539 2247.078" style="fill: #b2b2b2;"/>
        <polygon points="2437.099 2203.657 2477.84 2222.455 2521.339 2213.464 2479.51 2195.584 2437.099 2203.657" style="fill: #b2b2b2;"/>
        <polygon points="2387.994 2214.604 2428.734 2233.401 2472.234 2224.41 2430.405 2206.53 2387.994 2214.604" style="fill: #b2b2b2;"/>
        <polygon points="2338.889 2225.55 2379.629 2244.348 2423.128 2235.356 2381.299 2217.476 2338.889 2225.55" style="fill: #b2b2b2;"/>
        <polygon points="2386.448 2182.129 2427.189 2200.927 2470.688 2191.935 2428.859 2174.056 2386.448 2182.129" style="fill: #b2b2b2;"/>
        <polygon points="2337.343 2193.075 2378.084 2211.873 2421.583 2202.882 2379.754 2185.002 2337.343 2193.075" style="fill: #b2b2b2;"/>
        <polygon points="2288.238 2204.022 2328.979 2222.819 2372.478 2213.828 2330.648 2195.949 2288.238 2204.022" style="fill: #b2b2b2;"/>
        <polygon points="2335.798 2160.601 2376.539 2179.399 2420.038 2170.408 2378.208 2152.527 2335.798 2160.601" style="fill: #b2b2b2;"/>
        <polygon points="2286.693 2171.547 2327.433 2190.346 2370.932 2181.354 2329.103 2163.474 2286.693 2171.547" style="fill: #b2b2b2;"/>
        <polygon points="2237.587 2182.494 2278.328 2201.292 2321.827 2192.3 2279.998 2174.42 2237.587 2182.494" style="fill: #b2b2b2;"/>
        <path d="M1959.833,1748.501c.128,6.694-10.427,204.692-15.61,301.439-1.684,31.442-2.804,52.194-2.804,52.194l413.764,224.035,19.636-368.826-91.974-46.285-323.012-162.557Z" style="fill: #d1d1d1;"/>
        <path d="M2359.392,2224.299c-2.994,56.243-4.877,101.843-4.207,101.87.67.026,3.64-45.531,6.634-101.774,2.993-56.223,4.876-101.833,4.206-101.86-.67-.027-3.64,45.54-6.633,101.764Z" style="fill: #375a64;"/>
        <path d="M2143.754,2006.66c-12.997,2.212-21.758,16.769-19.569,32.513,2.189,15.744,14.499,26.713,27.495,24.5,12.997-2.213,21.758-16.77,19.57-32.514-2.189-15.743-14.499-26.712-27.495-24.499Z" style="fill: #969696;"/>
        <polygon points="1937.372 2120.643 2351.139 2344.676 2355.183 2326.168 1941.42 2102.133 1937.372 2120.643" style="fill: #969696;"/>
        <polygon points="2351.139 2344.676 2667.855 2259.844 2670.757 2239.007 2355.183 2326.168 2351.139 2344.676" style="fill: #969696;"/>
        <polygon points="2355.183 2326.168 2367.63 2323.24 2388.766 1948.694 2374.819 1957.343 2355.183 2326.168" style="fill: #969696;"/>
        <polygon points="1959.833 1748.501 2374.819 1957.343 2388.766 1948.694 1974.081 1744.795 1959.833 1748.501" style="fill: #fff;"/>
        <g>
          <path d="M3309.373,1210.816h388.025c29.032,0,52.602,23.57,52.602,52.602v64.803c0,29.032-23.57,52.602-52.602,52.602h-388.025c-29.032,0-52.602-23.57-52.602-52.602v-64.803c0-29.032,23.57-52.603,52.603-52.603Z" style="fill: #b2d4bb;"/>
          <polygon points="3346.139 1380.824 3346.139 1478.601 3462.805 1380.824 3346.139 1380.824" style="fill: #b2d4bb;"/>
          <g>
            <circle cx="3624.768" cy="1295.82" r="29.594" transform="translate(-160.763 597.357) rotate(-9.217)" style="fill: #8c8c91;"/>
            <circle cx="3503.385" cy="1295.82" r="29.593" transform="translate(-225.185 1070.824) rotate(-16.845)" style="fill: #8c8c91;"/>
            <circle cx="3382.002" cy="1295.82" r="29.593" transform="translate(1561.182 4426.587) rotate(-80.783)" style="fill: #8c8c91;"/>
          </g>
        </g>
        <g>
          <rect x="838.672" y="1132.334" width="493.229" height="170.008" rx="52.602" ry="52.602" style="fill: #b2d4bb;"/>
          <polygon points="1242.533 1302.342 1242.533 1400.119 1125.867 1302.342 1242.533 1302.342" style="fill: #b2d4bb;"/>
          <g>
            <circle cx="963.904" cy="1217.338" r="29.593" transform="translate(-318.702 2092.522) rotate(-85.935)" style="fill: #8c8c91;"/>
            <circle cx="1085.287" cy="1217.338" r="29.593" transform="translate(-454.709 1754.156) rotate(-67.5)" style="fill: #8c8c91;"/>
            <circle cx="1206.67" cy="1217.338" r="29.593" transform="translate(-507.363 1209.795) rotate(-45)" style="fill: #8c8c91;"/>
          </g>
        </g>
        <g>
          <g>
            <path d="M1608.771,536.759h877.232c21.295,0,38.584,17.289,38.584,38.584v492.807c0,21.295-17.289,38.583-38.583,38.583h-877.233c-21.295,0-38.583-17.289-38.583-38.583v-492.807c0-21.295,17.289-38.584,38.584-38.584Z" style="fill: #8595b6;"/>
            <path d="M2469.538,1126.894h-844.302c-41.47,0-75.21-33.739-75.21-75.21v-459.876c0-41.471,33.739-75.21,75.21-75.21h844.302c41.472,0,75.211,33.739,75.211,75.21v459.876c0,41.471-33.739,75.21-75.211,75.21ZM1625.236,556.92c-19.237,0-34.888,15.651-34.888,34.888v459.876c0,19.237,15.651,34.888,34.888,34.888h844.302c19.238,0,34.889-15.651,34.889-34.888v-459.876c0-19.237-15.651-34.888-34.889-34.888h-844.302Z" style="fill: #8c8c91;"/>
          </g>
          <path d="M1900.457,953.345c-27.295,20.386-61.164,32.457-97.852,32.457-90.398,0-163.68-73.281-163.68-163.679s73.281-163.68,163.68-163.68v177.771l97.852,117.131Z" style="fill: #b2d4bb;"/>
          <path d="M1982.297,806.224c0,53.709-25.869,101.376-65.827,131.222l-97.853-117.131v-177.771c90.398,0,163.68,73.282,163.68,163.68Z" style="fill: #66ebcd;"/>
          <path d="M2425.048,685.189h-379.247c-7.572,0-13.71-6.138-13.71-13.709h0c0-7.572,6.138-13.71,13.71-13.71h379.247c7.571,0,13.709,6.138,13.709,13.71h0c0,7.571-6.138,13.709-13.709,13.709Z" style="fill: #fdd089;"/>
          <path d="M2039.936,713.068h390.977c4.329,0,7.845,3.515,7.845,7.845v11.73c0,4.329-3.515,7.844-7.844,7.844h-390.977c-4.329,0-7.844-3.515-7.844-7.844v-11.73c0-4.329,3.515-7.844,7.844-7.844Z" style="fill: #fdd089;"/>
          <path d="M2039.936,768.367h390.977c4.329,0,7.845,3.515,7.845,7.845v11.73c0,4.33-3.515,7.845-7.845,7.845h-390.977c-4.329,0-7.844-3.515-7.844-7.844v-11.73c0-4.329,3.515-7.844,7.844-7.844Z" style="fill: #fdd089;"/>
          <path d="M2425.048,851.085h-379.247c-7.572,0-13.71-6.138-13.71-13.709h0c0-7.572,6.138-13.71,13.71-13.71h379.247c7.571,0,13.709,6.138,13.709,13.71h0c0,7.572-6.138,13.709-13.709,13.709Z" style="fill: #fdd089;"/>
          <path d="M2425.048,906.384h-379.247c-7.572,0-13.71-6.138-13.71-13.71h0c0-7.571,6.138-13.71,13.71-13.71h379.247c7.571,0,13.709,6.138,13.709,13.71h0c0,7.572-6.138,13.71-13.709,13.71Z" style="fill: #fdd089;"/>
          <path d="M2425.048,961.682h-379.247c-7.572,0-13.71-6.138-13.71-13.709h0c0-7.572,6.138-13.709,13.71-13.709h379.247c7.571,0,13.709,6.138,13.709,13.709h0c0,7.572-6.138,13.709-13.709,13.709Z" style="fill: #fdd089;"/>
        </g>
        <g>
          <polygon points="1011.762 2681.478 1123.475 3480.103 1098.008 3480.103 943.455 2681.478 1011.762 2681.478" style="fill: #8595b6;"/>
          <polygon points="806.73 2681.478 695.017 3480.103 720.484 3480.103 875.037 2681.478 806.73 2681.478" style="fill: #8595b6;"/>
          <polygon points="738.901 2681.478 850.614 3480.103 825.147 3480.103 670.594 2681.478 738.901 2681.478" style="fill: #8595b6;"/>
          <polygon points="533.868 2681.478 422.155 3480.103 447.623 3480.103 602.176 2681.478 533.868 2681.478" style="fill: #8595b6;"/>
          <path d="M1140.033,2648.067c-40.297,101.895-653.955,89.097-731.916,0-71.624-81.856-357.132-850.912,78.438-850.912,387.235,0,323.709,774.437,328.674,783.347,4.964,8.91,322.408,14.849,324.804,67.565Z" style="fill: #b2d4bb;"/>
          <path d="M664.047,2647.678c170.407,60.489,602.567,71.914,602.567,71.914l16.447,545.713,2.587,85.342c52.634,18.972,116.848.831,116.848.831,0,0,3.665-33.663,9.271-85.681,17.586-162.491,54.389-504.044,59.409-558.925,10.904-118.944-42.162-168.805-107.947-191.073-36.496-12.35-440.537-121.929-440.537-121.929l-21.158-28.55h-391.26s-16.601,221.871,153.774,282.358Z" style="fill: #fabda3;"/>
          <path d="M664.047,2647.678c170.407,60.489,594.224,75.759,594.224,75.759l7.348,540.968c42.81,3.295,116.987,6.496,159.827,3.51,17.586-162.492,48.767-504.535,53.786-559.417,10.902-118.944-50.219-170.43-116.004-192.698-36.496-12.35-440.537-121.929-440.537-121.929l-21.158-28.55h-391.26s-16.601,221.871,153.774,282.358Z" style="fill: #171431;"/>
          <path d="M547.415,2651.867c121.899,55.068,529.205,50.355,529.205,50.355l-220.977,380.419-53.743,92.518s29.997,44.411,97.907,63.815c0,0,31.26-36.005,75.918-89.316,104.744-125.04,283.189-345.249,304.563-419.133,21.282-73.67-.955-174.133-117.68-222.147-97.353-40.039-356.181-142.258-356.181-142.258h-399.052c-28.18,146.476,55.652,247.649,140.04,285.745Z" style="fill: #fabda3;"/>
          <path d="M547.415,2651.867c121.899,55.068,529.205,50.355,529.205,50.355l-237.992,378.569c36.959,27.349,102.031,70.621,144.687,87.714,104.745-125.041,275.599-364.094,296.973-437.979,21.282-73.67-.955-174.133-117.68-222.147-97.353-40.039-356.181-142.258-356.181-142.258h-399.052c-28.18,146.476,55.652,247.649,140.04,285.745Z" style="fill: #171431;"/>
          <path d="M727.368,3253.674l-1.042,2.289c-1.7,3.302-3.257,6.516-4.789,10.109-1.096,3.065-2.485,6.301-3.85,9.641l318.676,207.664s2.645-2.956,6.021-8.136c1.603-2.736,3.43-5.955,5.207-9.924.285-.715.716-1.514.916-2.373,8.218-20.204,11.277-53.485-27.058-89.806-1.754-1.864-3.802-3.557-5.996-5.435l-.189-.125c-3.082-2.728-6.287-5.268-9.746-7.97-1.16-.844-2.276-1.754-3.435-2.6-82.723-63.625-102.262-118.022-102.262-118.022,0,0-57.119-22.822-97.908-63.801,0,0-11.567,5.601-26.951,18.433-2.529,2.222-5.242,4.593-8.018,7.193-.559.448-1.097.996-1.74,1.567-1.099.995-2.255,2.219-3.415,3.444-.308.337-.765.762-1.013,1.141-.206.315-.477.318-.642.571-5.542,5.746-11.184,12.331-16.625,19.85-5.647,7.84-11.225,16.535-16.141,26.291Z" style="fill: #0a0a0c;"/>
          <path d="M726.258,3255.979c-1.591,3.245-3.221,6.551-4.646,10.081-1.247,3.119-2.636,6.322-3.88,9.706l318.603,207.616s2.671-2.891,6.07-8.105c1.633-2.779,3.489-6.027,5.155-9.924l-321.302-209.374Z" style="fill: #0a0a0c;"/>
          <path d="M1265.309,3456.964l.359,2.489c.352,3.697.779,7.242,1.43,11.093.733,3.171,1.313,6.646,1.968,10.193l380.357,2.642s.631-3.917.674-10.099c-.129-3.168-.33-6.863-.978-11.164-.147-.756-.216-1.661-.511-2.492-3.998-21.441-19.398-51.102-71.279-60.964-2.482-.622-5.12-.942-7.981-1.335l-.227-.003c-4.068-.631-8.135-1.038-12.507-1.445-1.431-.084-2.861-.247-4.296-.332-103.985-8.866-149.808-44.093-149.808-44.093,0,0-60.397,11.645-116.859-.811,0,0-6.709,10.962-12.725,30.071-.928,3.235-1.931,6.695-2.863,10.383-.228.679-.385,1.43-.618,2.258-.386,1.432-.699,3.087-1.013,4.743-.078.45-.233,1.054-.237,1.505-.003.378-.229.526-.233.828-1.561,7.829-2.752,16.419-3.27,25.686-.519,9.648-.516,19.978.616,30.844Z" style="fill: #0a0a0c;"/>
          <path d="M1265.619,3459.503c.414,3.591.828,7.253,1.536,10.994.635,3.299,1.196,6.745,1.977,10.264l380.271,2.641s.687-3.876.731-10.099c-.125-3.22-.32-6.957-1.022-11.136l-383.492-2.664Z" style="fill: #0a0a0c;"/>
          <path d="M815.649,1719.01c84.825,28.314,175.774,374.366,175.774,374.366l373.722,54.137-8.757,79.613s-327.471-13.268-369.666-16.454c-42.195-3.184-110.662-23.088-129.769-84.39-19.108-61.301-41.303-407.272-41.303-407.272Z" style="fill: #fcc0a9;"/>
          <path d="M815.649,1719.01c106.055,38.928,162.882,284.138,162.882,284.138,0,0-68.736,27.599-141.333,30.783l-21.549-314.921Z" style="fill: #4f9bbd;"/>
          <path d="M527.03,1703.933l99.968-22.27,94.329,3.284,94.322,34.061,85.886,646.32c-100.487,52.74-485.476,19.713-494.177.772l119.672-662.168Z" style="fill: #4f9bbd;"/>
          <path d="M527.03,1703.933c-91.361,19.867-163.504,329.789-172.7,362.722-13.201,47.27-8.414,131.04,72.363,144.503,62.513,10.418,405.684,29.154,405.684,29.154l9.434-95.521-358.246-44.384,71.475-210.564-28.01-185.91Z" style="fill: #fcc0a9;"/>
          <path d="M807.98,2160.2c5.921-7.16,17.416-3.752,28.112-14.591,10.696-10.838,17.535-36.229,27.836-42.179,10.299-5.951,94.415-30.004,98.357-10.937,2.346,11.343-44.764,22.364-45.243,23.553-.48,1.189,59.931-6.211,61.464,9.74,1.532,15.95-68.814,15.383-69.114,17.073-.298,1.689,54.327,6.531,52.304,21.497-2.024,14.964-54.52,4.913-55.387,6.278-.868,1.366,39.627,20.623,36.148,30.684-3.478,10.061-54.003-11.329-55.303-9.28-1.299,2.047-4.364,25.673-17.648,38.643-13.285,12.972-53.453,12.518-61.571.584-8.118-11.934-7.654-61.75.046-71.064Z" style="fill: #fcc0a9;"/>
          <path d="M527.03,1703.933c-108.863,29.067-178.33,308.871-178.33,308.871,0,0,53.76,44.876,160.565,60.134l51.458-184.503-33.694-184.502Z" style="fill: #4f9bbd;"/>
          <path d="M618.902,1606.332c-44.926-17.922-78.405-61.76-83.867-109.819-1.152-10.141-1.124-20.576,1.796-30.356,2.919-9.78,8.974-18.892,17.799-24.018-4.732-1-5.944-8.115-4.975-12.853.969-4.738,6.143-8.179,10.887-7.24,2.158-51.516,50.216-82.82,94.687-97.128,21.253-6.837,44.022-11.453,66.377-11.96,36.925-.836,73.397,12.15,92.974,45.138,10.632,17.914,14.78,39.586,11.517,60.159,16.558,31.81,14.805,70.963-6.684,99.671-6.189,8.267-14.309,14.704-23.424,19.559-17.063,9.087-34.126,18.174-51.189,27.261-19.46,10.363-38.994,20.76-59.69,28.359-20.697,7.598-45.728,21.397-66.207,13.228Z" style="fill: #0a0a0c;"/>
          <path d="M625.667,1713.372c24.205,44.374,85.607,33.239,97.994-8.895" style="fill: #fabda3;"/>
          <g>
            <polygon points="1072.721 2195.696 1593.693 2195.696 1641.093 1841.252 1120.122 1841.252 1072.721 2195.696" style="fill: #0a0a0c;"/>
            <rect x="907.389" y="2195.696" width="686.303" height="31.691" style="fill: #0a0a0c;"/>
            <path d="M1311.756,2018.474c-3.334,24.936,14.176,45.151,39.113,45.151s47.854-20.215,51.189-45.151c3.334-24.936-14.177-45.151-39.113-45.151s-47.854,20.215-51.189,45.151Z" style="fill: #ff9902;"/>
          </g>
          <path d="M621.057,1585.774l-1.34,113.562c-.379,32.116,25.824,58.21,57.937,57.698h0c32.384-.516,57.839-27.863,56.036-60.201l-1.956-35.073.462-.038c22.78-1.884,44.347-11.546,60.392-27.826.107-.109.214-.218.322-.327,15.652-15.827,26.707-36.877,29.489-68.817.075-.384.107-.766.138-1.192.072-.469.103-.936.132-1.403.061-.85.083-1.615.103-2.422.075-.384.066-.722.099-1.063,1.614-31.189-4-72.322-19.91-128.537-16.517-58.276-161.885-70.709-195.868,7.608-13.974,32.33-5.72,148.835-5.72,148.835" style="fill: #fcc0a9;"/>
          <path d="M807.771,1423.439c-45.742,29.851-105.65,36.825-157.025,18.28.892,7.503-1.813,15.354-7.136,20.716-5.324,5.362-13.157,8.122-20.665,7.282,11.606,37.761,5.162,80.644-17.03,113.325-19.214-36.216-27.93-78.431-18.4-118.306,7.957-33.297,27.127-64.932,56.518-82.49,30.446-18.189,68.699-19.532,103.1-10.908,14.134,3.544,28.095,8.784,39.648,17.664,11.553,8.881,19.097,19.99,20.99,34.437Z" style="fill: #0a0a0c;"/>
          <path d="M570.26,1592.077c13.6,13.512,33.319,15.713,44.044,4.92,10.725-10.793,8.394-30.499-5.204-44.011-13.6-13.512-33.318-15.714-44.044-4.92-10.724,10.795-8.394,30.499,5.205,44.01Z" style="fill: #fcc0a9;"/>
          <path d="M731.734,1661.762l1.533,27.498c-67.803,8.902-93.37-29.491-112.227-75.4,27.682,30.429,60.341,53.048,110.694,47.902Z" style="fill: #fc9a73;"/>
        </g>
      </g>
    </g>
  </g>
</svg>