<svg width="202" height="152" viewBox="0 0 202 152" fill="none" xmlns="http://www.w3.org/2000/svg">
<path d="M11.4086 149.044C11.5296 150.437 54.1202 147.592 106.537 142.69C158.954 137.788 201.348 132.685 201.227 131.293C201.106 129.9 158.515 132.745 106.099 137.647C53.682 142.549 11.2875 147.652 11.4086 149.044Z" fill="#D5D8EF"/>
<path d="M160.56 135.326L80.6519 142.799C79.7619 142.882 78.9776 142.228 78.9003 141.338L68.7064 24.0309C68.6291 23.141 69.288 22.352 70.1779 22.2688L150.086 14.7958C150.976 14.7126 151.761 15.3666 151.838 16.2565L162.032 133.564C162.109 134.454 161.45 135.243 160.56 135.326Z" fill="#1F143F"/>
<path d="M159.138 135.459L79.23 142.932C78.34 143.015 77.5558 142.361 77.4784 141.471L67.2846 24.1637C67.2072 23.2738 67.8661 22.4848 68.7561 22.4016L148.664 14.9286C149.554 14.8454 150.339 15.4994 150.416 16.3893L160.61 133.697C160.687 134.587 160.028 135.376 159.138 135.459Z" fill="#4266B0"/>
<path d="M146.538 20.388L74.6309 27.1126L84.1979 137.207L156.105 130.482L146.538 20.388Z" fill="#C1C6E0"/>
<path d="M145.116 20.5209L73.209 27.2456L82.776 137.34L154.683 130.615L145.116 20.5209Z" fill="white"/>
<path d="M126.837 24.735L91.9221 28.0002L91.1789 19.4486C91.0823 18.3364 91.906 17.35 93.0183 17.246L123.905 14.3575C125.017 14.2535 125.997 15.0711 126.094 16.1834L126.837 24.735Z" fill="#1F143F"/>
<path d="M107.753 7.67463C103.264 8.09443 99.9412 12.0737 100.331 16.5622C100.721 21.0507 104.677 24.3493 109.166 23.9295C113.655 23.5097 116.977 19.5304 116.587 15.0419C116.197 10.553 112.242 7.2548 107.753 7.67463ZM108.812 19.8656C106.568 20.0755 104.591 18.4264 104.396 16.1821C104.2 13.9378 105.862 11.948 108.106 11.7381C110.351 11.5282 112.328 13.1773 112.523 15.422C112.719 17.6658 111.057 19.6556 108.812 19.8656Z" fill="#1F143F"/>
<path d="M136.672 52.5488L129.538 53.2159C129.093 53.2575 128.701 52.9307 128.663 52.4855L128.043 45.3528C128.004 44.908 128.333 44.5133 128.778 44.4717L135.912 43.8046C136.357 43.763 136.749 44.0902 136.788 44.5349L137.407 51.6677C137.446 52.1129 137.116 52.5072 136.672 52.5488Z" stroke="#D5D8EF" stroke-miterlimit="10"/>
<path d="M125.785 47.9368C127.353 49.2444 128.922 50.5525 130.49 51.8601C130.908 52.2089 131.562 52.1485 131.914 51.7269C135.001 48.0305 138.087 44.3345 141.174 40.6381C142.012 39.6346 140.465 38.3429 139.626 39.3473C136.539 43.0433 133.453 46.7397 130.366 50.4361C130.84 50.3917 131.315 50.3473 131.79 50.3029C130.222 48.9953 128.653 47.6872 127.085 46.3795C126.088 45.5473 124.787 47.1042 125.785 47.9368Z" fill="#E95A4F"/>
<path d="M138.146 69.5125L131.013 70.1796C130.568 70.2213 130.176 69.8944 130.137 69.4493L129.517 62.3165C129.479 61.8714 129.808 61.4771 130.253 61.4355L137.386 60.7684C137.831 60.7268 138.224 61.0535 138.262 61.4987L138.882 68.6315C138.921 69.0766 138.591 69.4709 138.146 69.5125Z" stroke="#D5D8EF" stroke-miterlimit="10"/>
<path d="M127.26 64.9005C128.828 66.2082 130.396 67.5162 131.964 68.8239C132.383 69.1726 133.037 69.1122 133.389 68.6907C136.475 64.9943 139.562 61.2983 142.649 57.6018C143.487 56.5983 141.939 55.3066 141.1 56.311C138.014 60.0074 134.927 63.7034 131.84 67.3995C132.315 67.3551 132.79 67.3106 133.264 67.2663C131.696 65.9586 130.128 64.6506 128.56 63.3429C127.563 62.511 126.261 64.0679 127.26 64.9005Z" fill="#E95A4F"/>
<path d="M139.551 85.6896L132.417 86.3568C131.972 86.3984 131.58 86.0716 131.541 85.6264L130.922 78.4936C130.883 78.0485 131.212 77.6542 131.657 77.6126L138.791 76.9455C139.235 76.9039 139.628 77.2307 139.666 77.6758L140.286 84.8086C140.325 85.2533 139.995 85.6481 139.551 85.6896Z" stroke="#D5D8EF" stroke-miterlimit="10"/>
<path d="M128.666 81.0773C130.234 82.3849 131.803 83.693 133.371 85.0006C133.789 85.3494 134.443 85.289 134.795 84.8674C137.882 81.171 140.968 77.475 144.055 73.7786C144.893 72.7751 143.345 71.4834 142.507 72.4878C139.42 76.1838 136.333 79.8802 133.247 83.5766C133.721 83.5322 134.196 83.4878 134.671 83.4434C133.103 82.1357 131.534 80.8277 129.966 79.52C128.969 78.6877 127.668 80.2451 128.666 81.0773Z" fill="#E95A4F"/>
<path d="M140.98 102.129L133.847 102.796C133.402 102.837 133.01 102.511 132.971 102.065L132.351 94.9326C132.313 94.4879 132.642 94.0932 133.087 94.0515L140.22 93.3844C140.665 93.3428 141.058 93.67 141.096 94.1148L141.716 101.248C141.755 101.693 141.425 102.087 140.98 102.129Z" stroke="#D5D8EF" stroke-miterlimit="10"/>
<path d="M130.094 97.5162C131.662 98.8239 133.23 100.132 134.798 101.44C135.217 101.788 135.871 101.728 136.223 101.306C139.309 97.61 142.396 93.914 145.483 90.2176C146.321 89.2141 144.773 87.9223 143.934 88.9267C140.848 92.6232 137.761 96.3191 134.674 100.016C135.149 99.9712 135.624 99.9268 136.098 99.8824C134.53 98.5747 132.962 97.2667 131.394 95.959C130.397 95.1271 129.095 96.684 130.094 97.5162Z" fill="#E95A4F"/>
<path d="M121.363 46.2225L85.2645 49.5983C85.0421 49.6191 84.846 49.4555 84.8266 49.2331L84.7713 48.5966C84.752 48.3743 84.9168 48.1769 85.1392 48.1561L121.237 44.7803C121.46 44.7595 121.656 44.9231 121.675 45.1454L121.73 45.7819C121.75 46.0043 121.585 46.2017 121.363 46.2225Z" fill="#C1C6E0"/>
<path d="M121.689 49.9392L85.5907 53.3151C85.3683 53.3359 85.1721 53.1723 85.1528 52.9499L85.0975 52.3134C85.0782 52.0911 85.243 51.8937 85.4654 51.8729L121.563 48.4971C121.786 48.4763 121.982 48.6399 122.001 48.8622L122.057 49.4987C122.076 49.7211 121.911 49.9185 121.689 49.9392Z" fill="#C1C6E0"/>
<path d="M113.31 54.4692L85.913 57.0313C85.6906 57.0521 85.4944 56.8885 85.4751 56.6661L85.4198 56.0296C85.4004 55.8073 85.5653 55.6099 85.7876 55.5891L113.184 53.027C113.407 53.0062 113.603 53.1698 113.622 53.3922L113.677 54.0287C113.697 54.2514 113.532 54.4484 113.31 54.4692Z" fill="#C1C6E0"/>
<path d="M122.839 63.1864L86.7411 66.5623C86.5187 66.5831 86.3225 66.4195 86.3032 66.1971L86.2479 65.5606C86.2286 65.3383 86.3934 65.1409 86.6158 65.1201L122.714 61.7443C122.936 61.7235 123.132 61.8871 123.152 62.1094L123.207 62.7459C123.226 62.9683 123.061 63.1656 122.839 63.1864Z" fill="#C1C6E0"/>
<path d="M123.161 66.9026L87.0634 70.2785C86.841 70.2993 86.6448 70.1357 86.6255 69.9133L86.5702 69.2768C86.5508 69.0544 86.7156 68.8571 86.938 68.8363L123.036 65.4604C123.258 65.4396 123.455 65.6032 123.474 65.8256L123.529 66.4621C123.549 66.6849 123.384 66.8818 123.161 66.9026Z" fill="#C1C6E0"/>
<path d="M114.782 71.433L87.3856 73.9952C87.1632 74.016 86.9671 73.8524 86.9477 73.63L86.8924 72.9935C86.8731 72.7711 87.0379 72.5738 87.2603 72.553L114.657 69.9909C114.879 69.9701 115.075 70.1337 115.095 70.356L115.15 70.9925C115.169 71.2149 115.005 71.4123 114.782 71.433Z" fill="#C1C6E0"/>
<path d="M124.243 79.3631L88.1454 82.7389C87.923 82.7597 87.7268 82.5961 87.7075 82.3738L87.6522 81.7373C87.6329 81.5149 87.7977 81.3175 88.0201 81.2967L124.118 77.9209C124.34 77.9001 124.537 78.0637 124.556 78.2861L124.611 78.9226C124.631 79.1449 124.466 79.3423 124.243 79.3631Z" fill="#C1C6E0"/>
<path d="M124.568 83.0798L88.4696 86.4556C88.2472 86.4764 88.051 86.3128 88.0317 86.0904L87.9764 85.4539C87.9571 85.2316 88.1219 85.0342 88.3443 85.0134L124.442 81.6376C124.665 81.6168 124.861 81.7804 124.88 82.0027L124.935 82.6392C124.955 82.8616 124.79 83.059 124.568 83.0798Z" fill="#C1C6E0"/>
<path d="M116.189 87.61L88.7919 90.1722C88.5695 90.193 88.3733 90.0294 88.354 89.807L88.2987 89.1705C88.2794 88.9481 88.4442 88.7508 88.6666 88.73L116.063 86.1679C116.286 86.1471 116.482 86.3107 116.501 86.533L116.556 87.1695C116.576 87.3919 116.411 87.5892 116.189 87.61Z" fill="#C1C6E0"/>
<path d="M125.671 95.802L89.5731 99.1779C89.3507 99.1987 89.1546 99.0351 89.1352 98.8127L89.0799 98.1762C89.0606 97.9539 89.2254 97.7565 89.4478 97.7357L125.546 94.3599C125.768 94.3391 125.964 94.5027 125.984 94.725L126.039 95.3615C126.058 95.5839 125.894 95.7813 125.671 95.802Z" fill="#C1C6E0"/>
<path d="M125.995 99.5187L89.8973 102.895C89.675 102.915 89.4788 102.752 89.4595 102.529L89.4041 101.893C89.3848 101.671 89.5496 101.473 89.772 101.452L125.87 98.0765C126.092 98.0557 126.289 98.2193 126.308 98.4417L126.363 99.0782C126.383 99.3006 126.218 99.4979 125.995 99.5187Z" fill="#C1C6E0"/>
<path d="M117.618 104.049L90.2216 106.611C89.9992 106.632 89.803 106.468 89.7837 106.246L89.7284 105.609C89.709 105.387 89.8738 105.19 90.0962 105.169L117.493 102.607C117.715 102.586 117.911 102.75 117.931 102.972L117.986 103.608C118.005 103.831 117.841 104.028 117.618 104.049Z" fill="#C1C6E0"/>
<path d="M74.3122 54.7366C76.1499 54.7118 79.5164 55.673 79.08 58.1623C79.0607 58.2721 79.0291 58.3855 78.9525 58.4662C78.8479 58.5763 78.6853 58.6025 78.535 58.621C77.7227 58.7197 76.8332 58.7469 76.1647 58.2802C75.7449 57.9872 75.4579 57.5263 75.0162 57.2671C74.7616 57.1175 74.4696 57.0437 74.1828 56.9722C73.6854 56.8482 73.188 56.7237 72.6907 56.5997C72.4275 56.5341 72.1283 56.4382 72.0284 56.186C71.9192 55.9103 72.1148 55.6053 72.339 55.4085C72.8729 54.939 73.6039 54.746 74.3122 54.7366Z" fill="#1F143F"/>
<path d="M39.5576 146.671C39.567 146.672 39.5765 146.673 39.5855 146.674C40.3603 146.757 41.1358 146.655 41.9087 146.59C43.3153 146.47 44.7169 146.353 46.1158 146.158C46.9758 146.038 47.2894 145.576 47.3802 144.76C47.475 143.911 47.4639 143.05 47.3466 142.205C47.3354 142.122 47.3214 142.037 47.2718 141.971C47.2085 141.887 47.1002 141.851 46.9979 141.824C46.6454 141.731 46.2812 141.68 45.9159 141.674C45.6653 141.669 45.201 141.622 45.0041 141.8C44.809 141.977 44.6794 142.364 44.551 142.593C44.3876 142.885 44.2179 143.176 43.9997 143.431C43.5739 143.93 42.988 144.269 42.3807 144.515C41.7733 144.761 41.1368 144.923 40.5155 145.13C40.0533 145.285 39.5889 145.47 39.2222 145.793C39.0705 145.926 38.9278 146.116 38.9724 146.312C39.0269 146.551 39.3108 146.64 39.5576 146.671Z" fill="#1F143F"/>
<path d="M73.9263 143.457C73.9172 143.459 73.9081 143.462 73.8994 143.465C73.1514 143.691 72.3709 143.734 71.5992 143.813C70.1945 143.956 68.7953 144.101 67.3853 144.169C66.5186 144.21 66.1304 143.814 65.9005 143.029C65.6608 142.21 65.5233 141.361 65.493 140.508C65.4898 140.425 65.4888 140.338 65.5262 140.264C65.574 140.169 65.6744 140.114 65.7704 140.069C66.1012 139.911 66.4508 139.794 66.8091 139.72C67.0549 139.669 67.5035 139.537 67.728 139.675C67.9499 139.812 68.1446 140.17 68.3103 140.371C68.5216 140.628 68.7386 140.883 68.9974 141.094C69.5023 141.505 70.1371 141.73 70.7771 141.859C71.4171 141.989 72.0713 142.03 72.7187 142.119C73.2001 142.185 73.6889 142.281 74.1054 142.53C74.2776 142.634 74.4507 142.794 74.4406 142.995C74.4278 143.24 74.1638 143.381 73.9263 143.457Z" fill="#1F143F"/>
<path d="M48.7774 51.7156C48.7815 51.9268 48.7767 52.1376 48.7456 52.346C48.6046 53.2892 47.9827 54.0358 47.5496 54.8568C47.1796 55.5583 47.1589 56.3993 47.3419 57.1542C47.7345 58.7745 48.8607 60.2274 50.0604 61.3389C50.3183 61.5779 50.6157 61.8827 50.9339 62.0385C51.3016 62.2182 51.7866 62.2882 52.1845 62.3805C53.3161 62.6426 54.4767 62.7814 55.6398 62.7937C56.2118 62.7999 56.7831 62.7704 57.3532 62.726C57.8752 62.6853 58.3521 62.3398 58.7983 62.0674C59.3128 61.7533 59.7991 61.3857 60.2056 60.94C60.6394 60.4636 60.974 59.9068 61.2981 59.3502C61.5489 58.919 61.8004 58.4707 61.8623 57.9767C61.9361 57.387 61.7338 56.7744 61.9011 56.204C62.0074 55.842 62.2511 55.5386 62.4268 55.2045C63.0103 54.0957 61.9429 52.9171 62.3962 51.7773C62.6778 51.0691 63.3321 50.5876 63.5644 49.8576C63.7842 49.1673 63.7078 48.3765 63.3766 47.7382C62.8259 46.6777 61.7267 46.0036 60.5914 45.6289C59.2935 45.2004 57.6955 45.1659 56.7235 46.1372C56.5173 46.3433 56.3498 46.5852 56.156 46.8036C54.6024 48.5518 52.3016 47.4905 50.4177 48.4046C49.6363 48.7839 48.9737 49.4835 48.8056 50.3346C48.7162 50.7873 48.768 51.2531 48.7774 51.7156Z" fill="#1F143F"/>
<path d="M106.637 53.7845L91.3164 52.9527L93.3407 61.3934L106.637 53.7845Z" fill="#EEEAED"/>
<mask id="mask0_61_2998" style="mask-type:luminance" maskUnits="userSpaceOnUse" x="91" y="52" width="16" height="10">
<path d="M106.637 53.7845L91.3164 52.9527L93.3407 61.3934L106.637 53.7845Z" fill="white"/>
</mask>
<g mask="url(#mask0_61_2998)">
<path d="M100.979 56.3089C101.154 56.8156 101.414 57.273 101.751 57.6313C102.935 58.8872 105.375 57.7517 106.581 57.0679C108.002 56.2625 108.929 54.8714 108.926 53.2183C108.925 52.7688 108.828 52.3089 108.573 51.9408C108.008 51.1261 106.781 51.0623 105.883 50.9467C104.788 50.8055 103.652 50.8768 102.618 51.2944C100.803 52.0278 100.347 54.4852 100.979 56.3089Z" fill="#E95A4F"/>
</g>
<path d="M90.9185 52.9708L24.3657 67.7586L24.3648 77.2034L93.0415 61.5099L90.9185 52.9708Z" fill="#FFBB00"/>
<path opacity="0.2" d="M23.1645 70.9821L91.6469 55.8948L90.9201 52.9709L24.3673 67.7587L23.1645 70.9821Z" fill="white"/>
<path opacity="0.2" d="M23.814 74.3504L92.4156 58.9901L93.042 61.5099L24.3653 77.2034L23.814 74.3504Z" fill="#231F20"/>
<path d="M24.3669 67.7586L26.3488 76.7451L17.065 78.891C16.2217 79.086 15.3845 78.5612 15.1947 77.7188L13.7983 71.5204C13.6045 70.6597 14.1609 69.8043 15.028 69.6307L24.3669 67.7586Z" fill="#68838C"/>
<mask id="mask1_61_2998" style="mask-type:luminance" maskUnits="userSpaceOnUse" x="13" y="67" width="14" height="12">
<path d="M24.3669 67.7586L26.3488 76.7451L17.065 78.891C16.2217 79.086 15.3845 78.5612 15.1947 77.7188L13.7983 71.5204C13.6045 70.6597 14.1609 69.8043 15.028 69.6307L24.3669 67.7586Z" fill="white"/>
</mask>
<g mask="url(#mask1_61_2998)">
<path d="M17.268 68.122L19.6863 78.9577L14.8784 79.7533L12.4242 69.7352L17.268 68.122Z" fill="#C95B59"/>
</g>
<mask id="mask2_61_2998" style="mask-type:luminance" maskUnits="userSpaceOnUse" x="13" y="67" width="14" height="12">
<path d="M24.3669 67.7586L26.3488 76.7451L17.065 78.891C16.2217 79.086 15.3845 78.5612 15.1947 77.7188L13.7983 71.5204C13.6045 70.6597 14.1609 69.8043 15.028 69.6307L24.3669 67.7586Z" fill="white"/>
</mask>
<g mask="url(#mask2_61_2998)">
<path d="M19.386 67.7477L21.8499 78.7757L24.1996 78.37L21.6555 67.3397" stroke="#506D75" stroke-miterlimit="10"/>
</g>
<path d="M92.6909 59.0016C91.8892 59.315 90.9698 58.8681 90.6372 58.0041C90.3046 57.1397 90.6847 56.1851 91.4864 55.8718C92.2881 55.5584 93.2075 56.0053 93.5401 56.8696C93.8728 57.734 93.4927 58.6886 92.6909 59.0016Z" fill="#EEEAED"/>
<path d="M93.2042 61.4465C92.4755 61.7311 91.6718 61.4091 91.409 60.7266C91.1462 60.0441 91.524 59.2599 92.2527 58.9753C92.9814 58.6903 93.7851 59.0127 94.0479 59.6952C94.3111 60.3776 93.9333 61.1618 93.2042 61.4465Z" fill="#EEEAED"/>
<path d="M91.8333 55.8808C91.1047 56.1658 90.2693 55.7606 89.9673 54.9767C89.6656 54.1922 90.0114 53.3257 90.7401 53.0411C91.4688 52.7565 92.3045 53.1612 92.6062 53.9452C92.9083 54.7292 92.562 55.5958 91.8333 55.8808Z" fill="#EEEAED"/>
<path d="M47.2368 127.547C48.1873 121.294 49.027 115.023 49.2778 108.711C49.3579 106.689 49.4291 104.666 49.5337 102.645C49.6469 100.457 49.8145 98.3704 49.9773 95.2658C50.0361 94.1435 52.3287 93.9498 53.3965 93.5953C56.0628 92.7104 58.8958 92.7813 61.6595 92.5691C62.6766 92.491 64.0165 91.9349 64.763 92.7614C65.5602 93.6444 65.6895 95.319 65.8516 96.4409C67.2914 106.406 66.9578 116.518 67.5469 126.55C67.7944 130.763 68.2288 134.926 68.8027 139.104C68.9164 139.931 68.7792 140.773 67.8442 140.983C67.4139 141.08 66.5249 141.122 66.1082 140.931C65.1692 140.501 64.4598 138.853 64.075 137.977C63.5213 136.719 63.1668 135.383 62.8176 134.056C62.1711 131.599 61.7387 129.09 61.3495 126.58C60.0818 118.399 59.1918 113.126 59.027 104.12C58.6091 109.014 58.8989 112.157 57.8264 116.954C56.8095 121.503 55.1302 125.871 53.3746 130.182C52.4008 132.572 51.4874 134.989 50.4086 137.335C49.8699 138.507 49.2916 139.662 48.6454 140.778C48.0779 141.759 47.6488 142.738 46.4477 142.994C45.9301 143.104 45.3965 143.092 44.8686 143.078C44.7225 143.075 44.5525 143.058 44.4732 142.936C44.423 142.858 44.4257 142.758 44.431 142.666C44.5758 140.185 45.5828 137.682 46.0315 135.227C46.4976 132.678 46.8474 130.109 47.2368 127.547Z" fill="#4266B0"/>
<path d="M48.9864 95.5978C49.1316 95.4737 49.3016 95.373 49.4714 95.2844C49.8074 95.1088 50.1591 94.9626 50.5199 94.8476C51.3609 94.5797 51.3332 95.0973 51.5564 95.675C51.8263 96.3735 52.3168 97.0408 52.6528 97.7152C53.0223 98.4571 53.6304 99.0752 52.7881 99.6596C52.359 99.9572 51.8681 100.164 51.3565 100.264C51.2562 100.283 51.1511 100.298 51.0542 100.267C50.9631 100.238 50.8898 100.171 50.8222 100.102C50.3857 99.6597 49.9547 99.1684 49.5499 98.6937C48.9706 98.0145 48.4978 97.4296 48.5674 96.4736C48.5802 96.2982 48.6132 96.1217 48.6917 95.9641C48.7622 95.821 48.8655 95.7013 48.9864 95.5978Z" fill="#FAB594"/>
<path d="M49.8992 100.747C51.0077 100.711 52.0509 100.592 52.9549 99.8888C53.8109 99.2232 54.3571 98.2876 54.7041 97.2755C54.788 97.0309 54.4229 96.8584 54.3387 97.1046C54.0151 98.0491 53.5222 98.9342 52.7216 99.5598C51.8818 100.216 50.8893 100.311 49.8646 100.344C49.6038 100.353 49.6396 100.756 49.8992 100.747Z" fill="#4C83C3"/>
<path d="M66.0541 100.755C63.8243 101.307 63.0733 97.6984 62.6815 96.1675C62.6171 95.9164 62.2385 96.0607 62.3025 96.3109C62.6535 97.6817 63.0727 99.1548 63.9149 100.317C64.5139 101.143 65.1903 101.383 66.1954 101.134C66.4471 101.071 66.3049 100.693 66.0541 100.755Z" fill="#4C83C3"/>
<path opacity="0.2" d="M61.7153 92.5634C61.6819 92.5669 61.6481 92.5709 61.6154 92.5736C58.8517 92.7857 56.0187 92.7148 53.3525 93.5997C52.2846 93.9542 49.9921 94.1479 49.9332 95.2702C49.8862 96.1681 49.8388 96.9787 49.7923 97.7335C50.3229 98.1002 51.0046 98.3398 51.5127 98.4994C53.3934 99.0899 55.353 99.3745 57.3166 99.5226C59.5685 99.693 62.5637 99.0315 63.9218 101.334C64.5587 102.415 64.7036 103.708 64.8346 104.958C65.4485 110.822 66.0819 116.826 66.082 122.781C66.0822 125.817 65.9182 128.856 65.5159 131.868C65.1983 134.248 64.5284 136.845 64.6564 139.299C65.0321 139.996 65.5075 140.68 66.0646 140.936C66.4808 141.126 67.3703 141.084 67.8005 140.987C68.7355 140.777 68.8723 139.935 68.759 139.108C68.1852 134.931 67.7508 130.768 67.5032 126.554C66.9138 116.523 67.2478 106.41 65.8079 96.4453C65.7384 95.9629 65.6742 95.3784 65.5612 94.7984C64.575 93.6845 63.187 92.944 61.7153 92.5634Z" fill="#231F20"/>
<path d="M64.3346 67.9677C64.0862 68.138 63.8578 68.332 63.6696 68.5685C62.8866 69.5514 63.3087 71.2347 64.533 71.6384C65.9986 72.1219 67.6752 71.5423 69.0579 71.0207C72.3531 69.778 75.3978 67.9903 78.3163 66.0303C78.7353 65.7491 79.382 65.4084 79.8471 64.9791C80.0719 64.7716 80.249 64.5427 80.3433 64.2906L64.3346 67.9677Z" fill="#FAB594"/>
<path d="M65.2316 74.0242C64.8686 72.7874 64.4075 71.5841 63.8102 70.4322C63.1368 69.1326 62.0833 67.5949 60.7221 66.9347C59.4471 66.3165 57.1175 67.2385 55.8007 67.6768C54.5596 68.0902 52.6913 68.6641 51.7376 69.6082C50.8568 70.4796 51.1336 72.4255 51.3458 73.5456C51.5903 74.8353 52.0197 76.0842 52.2487 77.3774C52.6663 79.7389 52.4023 82.1694 52.0406 84.5454C51.6074 87.3901 51.0345 90.2191 50.1939 92.9737C50.0693 93.3817 49.9378 93.8082 50.018 94.2259C50.1552 94.9401 50.8516 95.3875 51.5078 95.6985C55.8272 97.7455 60.8239 96.9017 65.4184 96.2434C65.7987 96.1888 66.2005 96.1207 66.4936 95.8708C66.86 95.5583 66.9659 95.0436 67.031 94.5672C67.3817 91.9852 67.1737 89.3669 66.9368 86.7761C66.5529 82.5741 66.4319 78.1153 65.2316 74.0242Z" fill="#DFEAE5"/>
<path d="M57.6472 68.483C56.7014 68.288 55.7625 68.0602 54.8326 67.8008C54.7364 67.774 54.6373 67.7451 54.5618 67.6803C54.3573 67.5053 54.3531 67.0736 54.3163 66.8228C54.2678 66.4939 54.2514 66.1608 54.2461 65.8283C54.2358 65.2196 54.2844 64.6047 54.2276 63.9984C54.182 63.5113 54.139 63.002 54.3237 62.5473C54.5448 62.0023 55.0663 61.6234 55.6229 61.4344C56.1792 61.2456 56.7748 61.2203 57.3609 61.1964C57.5309 61.1894 57.7146 61.1864 57.8531 61.2844C58.3178 61.6129 58.2811 62.3539 58.379 62.8544C58.5225 63.585 58.7521 64.2965 58.9761 65.005C59.0803 65.3352 59.2133 65.6553 59.3239 65.9833C59.4109 66.2416 59.5772 66.5806 59.497 66.8488C59.3181 67.4447 58.8586 68.0188 58.3983 68.4229C58.336 68.4775 58.2696 68.5316 58.1894 68.5525C58.1064 68.5745 58.0193 68.5579 57.9354 68.5413C57.8387 68.522 57.7427 68.5025 57.6472 68.483Z" fill="#FAB594"/>
<path d="M55.0359 65.4672C56.248 66.0946 57.896 66.3827 59.2265 65.868C59.1468 65.5818 59.063 65.2948 58.9712 65.0049C58.7472 64.2965 58.5176 63.5849 58.3745 62.8543C58.2761 62.3534 58.3133 61.6124 57.8486 61.2843C57.7101 61.1863 57.5264 61.1893 57.3564 61.1963C56.7703 61.2198 56.1746 61.2451 55.6184 61.4343C55.0622 61.6232 54.5403 62.0022 54.3192 62.5472C54.1349 63.0018 54.1775 63.5112 54.2231 63.9983C54.2526 64.3139 54.2658 64.653 54.2763 65.0029C54.5182 65.1736 54.771 65.3299 55.0359 65.4672Z" fill="#EB977D"/>
<path d="M51.2244 59.4894C51.7054 61.5656 53.0395 63.4706 54.9507 64.4603C56.4133 65.2174 58.5111 65.4842 59.9189 64.4379C61.8089 63.0335 61.9536 60.0386 61.7179 57.9196C61.4392 55.4139 60.2078 52.6948 57.6761 51.805C55.896 51.1795 53.2076 51.3509 52.1268 53.1033C51.0075 54.9173 50.7237 57.3261 51.2244 59.4894Z" fill="#FAB594"/>
<path d="M74.6281 55.5127C75.6679 56.3121 76.4436 57.3776 75.5037 58.0551C75.1976 58.2759 74.7763 58.0127 74.5455 57.7167C74.3146 57.4207 74.0923 57.0492 73.72 56.9995C73.4311 56.9612 73.1605 57.1371 72.9208 57.3049C72.0226 57.9335 71.1248 58.5621 70.2266 59.1907C70.083 59.2915 69.9367 59.3933 69.7716 59.4518C69.2555 59.6349 68.6548 59.3271 68.395 58.8475C68.1353 58.3678 68.1683 57.7713 68.3563 57.2566C69.0247 55.4271 70.2365 55.1355 71.9695 54.9113C72.9954 54.7796 73.7999 54.8762 74.6281 55.5127Z" fill="#FAB594"/>
<path d="M58.321 51.6319C57.8058 51.7422 57.3164 51.9756 56.908 52.3102C56.0882 52.9815 55.6353 53.9997 54.9118 54.774C54.2303 55.5034 53.3364 55.9891 52.4776 56.4966C52.3161 56.5921 52.1499 56.6938 52.0478 56.8511C51.917 57.0522 51.9138 57.31 51.9486 57.5463C52.1466 58.8855 53.1531 59.9935 52.5758 61.4031C52.5158 61.5496 52.4381 61.6933 52.3198 61.799C51.5993 62.4447 50.7838 61.0663 50.4653 60.5649C49.9896 59.8162 49.6644 58.9722 49.5025 58.0992C49.1782 56.3495 49.3202 53.9876 50.6311 52.6678C51.9013 51.3891 53.5657 50.4626 55.3718 50.2848C55.9775 50.2249 56.6206 50.2501 57.2162 50.3649C57.5719 50.4336 57.8235 50.5486 58.1144 50.7504C58.2881 50.8706 58.4567 50.9499 58.5967 51.1171C58.6266 51.1529 58.8552 51.5632 58.8419 51.5641C58.6671 51.5719 58.4928 51.5951 58.321 51.6319Z" fill="#1F143F"/>
<path d="M56.4222 61.4968C57.1841 61.361 57.929 61.3047 58.6763 61.0618C59.4276 60.8181 60.1477 60.4767 60.8113 60.0463C60.8102 60.0472 60.8098 60.8704 60.7919 60.9586C60.7237 61.2952 60.5993 61.6256 60.4206 61.9201C59.841 62.8738 58.3722 63.2687 57.3874 62.7658C57.1252 62.632 56.8964 62.4349 56.7223 62.1981C56.6892 62.1533 56.3354 61.5122 56.4222 61.4968Z" fill="white"/>
<path d="M58.5835 55.2658C59.1754 54.9213 59.9691 54.7772 60.5112 55.2756C60.7027 55.4514 60.962 55.1396 60.7713 54.9641C60.0897 54.3371 59.0952 54.5032 58.3499 54.9372C58.1249 55.0683 58.3594 55.3968 58.5835 55.2658Z" fill="#1F143F"/>
<g opacity="0.2">
<path d="M58.8475 104.478C58.6802 105.241 58.578 106.031 58.4355 106.804C57.7883 110.321 56.8715 113.919 55.4103 117.244C53.8115 120.882 51.3688 123.853 49.0907 127.069C48.2875 128.203 47.502 129.376 46.7839 130.586C46.5522 132.136 46.314 133.685 46.0322 135.228C45.5838 137.682 44.5764 140.185 44.4317 142.666C44.4263 142.759 44.4236 142.859 44.4739 142.936C44.5528 143.059 44.7227 143.075 44.8692 143.079C45.3972 143.092 45.9312 143.105 46.4484 142.995C47.6498 142.738 48.0785 141.759 48.646 140.779C49.2922 139.662 49.8706 138.507 50.4093 137.336C51.488 134.989 52.4014 132.572 53.3752 130.182C55.1309 125.872 56.8101 121.504 57.827 116.955C58.8995 112.158 58.6093 109.015 59.0277 104.121C58.9788 104.125 58.8579 104.43 58.8475 104.478Z" fill="#231F20"/>
<path d="M59.0273 104.12C59.0285 104.181 59.03 104.24 59.0312 104.3C59.0429 104.211 59.0531 104.118 59.0273 104.12Z" fill="#231F20"/>
</g>
<path d="M56.1674 75.4019C56.2323 76.0363 56.2968 76.6707 56.3617 77.3051C56.4025 77.7054 56.4431 78.1113 56.3769 78.509C56.3108 78.9067 56.1233 79.3015 55.7921 79.5327C55.0978 80.0172 53.8922 79.4968 53.4255 78.8976C52.7146 77.9845 52.3962 76.9104 52.2587 75.7626C53.5609 75.6375 54.8631 75.5121 56.1657 75.387C56.1662 75.3919 56.1666 75.3967 56.1674 75.4019Z" fill="#72C384"/>
<path d="M52.3915 60.9174C52.9408 61.6998 52.9936 62.6111 52.5092 62.9532C52.0247 63.2954 51.1867 62.9384 50.6374 62.156C50.0881 61.3737 50.0353 60.4624 50.5198 60.1202C51.0042 59.778 51.8423 60.135 52.3915 60.9174Z" fill="#FAB594"/>
<path d="M55.7522 58.2667C55.915 58.7944 55.8199 59.2939 55.5396 59.3819C55.2593 59.4702 54.9006 59.1135 54.7377 58.5857C54.5749 58.058 54.67 57.5585 54.9503 57.4705C55.2302 57.3822 55.5894 57.7389 55.7522 58.2667Z" fill="#1F143F"/>
<path d="M60.2447 56.9272C60.336 57.4726 60.1753 57.9555 59.8864 58.0056C59.5971 58.0558 59.2889 57.6546 59.1976 57.1092C59.1064 56.5638 59.2667 56.0813 59.556 56.0307C59.8453 55.9809 60.1535 56.3822 60.2447 56.9272Z" fill="#1F143F"/>
<path d="M55.2304 55.9146C54.2469 55.8985 53.4623 56.6611 53.192 57.5563C53.1166 57.8058 53.5153 57.8741 53.5897 57.6271C53.8108 56.8953 54.4751 56.3044 55.2654 56.3174C55.5249 56.3216 55.4879 55.9189 55.2304 55.9146Z" fill="#1F143F"/>
<path d="M59.4508 66.4084L58.2464 68.4956L60.4479 70.0401L60.1577 66.7009L59.4508 66.4084Z" fill="white"/>
<path d="M52.6189 68.6663L54.3849 67.1902L58.2451 68.4955L57.4959 71.0023L52.6189 68.6663Z" fill="white"/>
<path d="M51.0017 95.9104C49.9447 96.058 49.1739 95.2265 49.043 94.1369C48.997 93.7525 48.9683 93.3662 48.9562 92.979C48.8586 89.9305 49.8536 87.0177 50.6748 84.1188C51.3905 81.5912 51.7336 78.9397 51.4341 76.3255C51.1945 74.2316 50.61 72.1655 49.6514 70.2899C49.6313 70.2504 49.6106 70.2084 49.6148 70.1642C49.6184 70.1261 49.6403 70.0924 49.6619 70.0607C50.0937 69.4306 50.7146 68.9941 51.3212 68.5527C51.9801 68.0732 52.6167 67.6311 53.3739 67.3142C53.5083 67.2582 54.007 66.9906 54.1135 67.0058C54.7429 67.0976 55.5906 68.9771 55.8812 69.4937C58.929 74.9155 58.4845 81.7697 56.3626 87.4662C55.3272 90.2458 54.1025 93.0152 52.1574 95.2581C51.9997 95.4398 51.8312 95.6229 51.6134 95.7236C51.4014 95.8227 51.1967 95.8832 51.0017 95.9104Z" fill="#1F143F"/>
<path d="M43.7491 80.8656C43.1308 82.1584 42.3867 83.5653 42.2703 84.9692C42.1199 86.7621 42.7487 88.3806 43.4467 90.0092C44.7591 93.0725 46.5723 95.8643 48.6377 98.4454C48.7225 98.5512 48.8337 98.6679 48.9683 98.6464C49.034 98.6358 49.0895 98.5924 49.1416 98.551C49.9778 97.8823 50.8141 97.2136 51.6499 96.5449C51.7821 96.4391 51.9204 96.3251 51.978 96.1658C52.0621 95.9325 51.9492 95.6799 51.8386 95.4592C50.8575 93.5016 49.8758 91.5438 48.8946 89.5862C48.4623 88.7243 48.0255 87.8477 47.8507 86.8979C47.5899 85.4805 47.9407 83.9979 48.5917 82.7065C49.2426 81.4151 50.1793 80.2898 51.1497 79.2159C51.4942 78.8344 51.853 78.4434 52.0242 77.9592C52.5725 76.4081 52.3096 74.686 52.0224 73.1151C51.8699 72.281 51.7525 69.4772 50.421 69.6293C50.1745 69.6577 49.9681 69.8252 49.7858 69.9945C48.3626 71.3163 47.5074 73.0902 46.6876 74.817C45.8019 76.6831 44.8317 78.5031 43.9753 80.3839C43.9026 80.5426 43.8272 80.7031 43.7491 80.8656Z" fill="#1F143F"/>
<path d="M67.7139 89.3268C67.4149 85.1758 67.1155 81.0196 66.5219 76.8998C66.3716 75.8571 66.1993 74.8185 66.0106 73.7827C65.8884 73.1102 65.8077 73.149 66.2719 72.7564C66.6128 72.4682 67.2281 72.3047 67.6339 72.1128C70.1002 70.9469 72.5663 69.7773 75.0118 68.5666C77.1897 67.4881 79.3109 66.1782 80.7459 64.1641C78.4546 64.8864 76.0888 65.331 73.7293 65.7738C70.5514 66.3704 67.3647 66.9677 64.1408 67.1851C62.8273 67.2734 61.3759 67.187 60.1562 66.7008C60.7019 67.8531 61.3841 69.1275 61.5329 70.3908C61.7096 71.8924 61.9428 73.3882 62.126 74.8892C62.4855 77.8336 62.7907 80.7852 63.0415 83.7415C63.4295 88.3191 63.4888 92.7776 63.4498 97.3627C64.4499 97.35 65.4489 97.166 66.39 96.8213C66.5561 96.7603 66.7259 96.6908 66.848 96.5624C66.973 96.4305 67.033 96.2519 67.0871 96.0791C67.4916 94.7848 67.7609 93.4437 67.8123 92.0906C67.8467 91.168 67.78 90.2466 67.7139 89.3268Z" fill="#1F143F"/>
<path d="M56.3627 87.4664C58.4846 81.77 58.9291 74.9157 55.8813 69.494C55.5911 68.9773 54.7434 67.0979 54.1136 67.0061C54.0066 66.9905 53.508 67.2581 53.374 67.3141C53.3301 67.3324 53.2902 67.3548 53.2476 67.3742C53.3251 67.6301 53.4914 67.8099 53.6502 68.0911C53.9518 68.6262 54.1382 69.22 54.3223 69.8054C55.138 72.3957 55.4546 75.1468 55.238 77.8613C55.6192 77.7834 56.0168 77.7925 56.3926 77.8877C56.3708 78.3101 56.0826 78.6668 55.9263 79.0604C55.6167 79.8394 55.8358 80.7112 56.0028 81.5297C56.4346 83.6483 56.4867 85.8454 56.1635 87.9878C56.2296 87.8139 56.2978 87.6406 56.3627 87.4664Z" fill="#274169"/>
<path d="M64.7269 77.5003C64.2749 75.6171 63.8423 73.7289 63.3788 71.8485C62.9627 70.0615 62.2161 68.5361 61.301 67.0309C60.9066 66.9512 60.5213 66.8455 60.1582 66.7008C60.7039 67.8531 61.3861 69.1274 61.5349 70.3908C61.7116 71.8923 61.9448 73.3882 62.128 74.8891C62.4875 77.8336 62.7927 80.7847 63.0435 83.7414C63.1132 84.5621 63.1687 85.3781 63.2183 86.1926C63.6307 84.3809 64.3463 82.6087 64.4182 80.7533C64.4609 79.6463 64.2719 78.5467 64.0838 77.4568C64.2873 77.5316 64.5137 77.5474 64.7269 77.5003Z" fill="#274169"/>
<path d="M58.7443 69.6259C60.5004 73.6163 60.5745 78.3203 60.7423 82.6257C60.9141 87.0287 60.1808 91.2799 59.7569 95.6467C59.7318 95.9045 60.1296 95.977 60.1546 95.7175C60.5821 91.3081 61.318 87.0311 61.1448 82.5881C60.9757 78.2495 60.8967 73.5122 59.1233 69.4824C59.0195 69.246 58.6394 69.3871 58.7443 69.6259Z" fill="white"/>
<path d="M177.011 99.6994L171.547 98.3175L169.187 103.556L169.361 103.6C168.31 103.629 167.276 103.782 166.279 104.051L166.435 103.959L162.734 99.6083L157.868 102.504L159.891 107.852L160.046 107.76C159.332 108.509 158.702 109.345 158.171 110.258L158.216 110.084L152.507 109.646L151.09 115.123L156.31 117.448L156.355 117.274C156.378 118.326 156.524 119.359 156.786 120.355L156.695 120.2L152.322 123.931L155.184 128.781L160.544 126.722L160.452 126.567C161.196 127.276 162.028 127.901 162.936 128.426L162.762 128.383L162.287 134.097L167.752 135.479L170.112 130.241L169.938 130.197C170.989 130.168 172.023 130.014 173.02 129.745L172.864 129.838L176.565 134.188L181.431 131.293L179.408 125.944L179.253 126.037C179.967 125.288 180.597 124.451 181.128 123.539L181.083 123.713L186.791 124.151L188.209 118.674L182.988 116.348L182.944 116.523C182.921 115.47 182.775 114.437 182.513 113.442L182.604 113.596L186.976 109.865L184.114 105.016L178.755 107.075L178.847 107.229C178.103 106.52 177.271 105.895 176.363 105.37L176.537 105.414L177.011 99.6994Z" fill="#6A8FBC"/>
<path d="M177.77 125.032C182.291 120.514 182.319 113.208 177.833 108.715C173.346 104.221 166.044 104.241 161.524 108.76C157.003 113.278 156.975 120.584 161.461 125.077C165.948 129.571 173.25 129.55 177.77 125.032Z" fill="#A0B3D9"/>
<path d="M171.825 108.495C176.456 109.666 179.237 114.377 178.036 119.019C176.835 123.66 172.107 126.473 167.476 125.302C162.844 124.131 160.064 119.419 161.265 114.778C162.466 110.137 167.194 107.323 171.825 108.495Z" fill="#5A82AD"/>
<path d="M171.162 111.052C174.384 111.866 176.318 115.144 175.483 118.374C174.647 121.602 171.358 123.56 168.136 122.745C164.914 121.93 162.979 118.652 163.815 115.423C164.651 112.194 167.94 110.237 171.162 111.052Z" fill="white"/>
<path d="M167.098 75.3196L163.563 73.9956L161.607 77.3125L161.72 77.3548C161.017 77.2966 160.318 77.3226 159.635 77.4283L159.745 77.3782L157.603 74.2057L154.151 75.7766L155.103 79.4905L155.213 79.4404C154.683 79.8867 154.202 80.3979 153.782 80.9668L153.825 80.8539L150.058 80.141L148.711 83.6864L152.014 85.6218L152.057 85.5089C151.994 86.2121 152.015 86.9111 152.116 87.5941L152.067 87.4841L148.882 89.6485L150.429 93.0919L154.148 92.1151L154.098 92.0052C154.541 92.5327 155.048 93.0108 155.614 93.4278L155.502 93.3855L154.764 97.1591L158.299 98.483L160.255 95.1661L160.143 95.1238C160.845 95.182 161.544 95.156 162.227 95.0503L162.117 95.1004L164.259 98.2729L167.711 96.7021L166.759 92.9882L166.649 93.0383C167.179 92.5919 167.66 92.0811 168.081 91.5122L168.038 91.6251L171.805 92.3381L173.151 88.7926L169.849 86.8572L169.806 86.9701C169.869 86.2673 169.847 85.568 169.746 84.885L169.795 84.9949L172.98 82.8305L171.433 79.3871L167.715 80.3639L167.764 80.4738C167.321 79.9463 166.814 79.4686 166.248 79.0517L166.361 79.0939L167.098 75.3196Z" fill="#6A8FBC"/>
<path d="M168.191 88.8586C169.661 84.8407 167.606 80.4121 163.6 78.967C159.593 77.5219 155.153 79.6076 153.683 83.6255C152.212 87.6434 154.267 92.0721 158.274 93.5172C162.28 94.9622 166.72 92.8766 168.191 88.8586Z" fill="#A0B3D9"/>
<path d="M162.998 80.7985C165.993 81.9208 167.496 85.2659 166.355 88.2707C165.214 91.2751 161.86 92.8014 158.865 91.6792C155.869 90.557 154.366 87.2115 155.507 84.2071C156.648 81.2023 160.002 79.6763 162.998 80.7985Z" fill="#5A82AD"/>
<path d="M162.368 82.4538C164.452 83.2344 165.498 85.562 164.704 87.6526C163.91 89.7428 161.577 90.8045 159.493 90.024C157.409 89.2434 156.363 86.9158 157.157 84.8256C157.951 82.7349 160.284 81.6732 162.368 82.4538Z" fill="white"/>
</svg>
