<svg width="140" height="104" viewBox="0 0 140 104" fill="none" xmlns="http://www.w3.org/2000/svg">
<path d="M23.9937 100.585C23.9937 100.585 5.98304 90.136 13.7948 69.9969C20.7254 52.1282 33.2388 49.1533 43.6963 52.1157C48.1504 53.3778 58.6584 47.6136 64.4113 29.8516C72.2567 5.62908 119.746 3.43625 119.305 36.9452C119.091 53.1612 135.091 48.5776 130.715 66.1318L23.9936 100.585L23.9937 100.585Z" fill="#DDE8FD"/>
<path d="M30.4588 76.4503L22.627 88.852L34.3877 95.7746L42.2196 83.3729L30.4588 76.4503Z" fill="#D5E2FC"/>
<path d="M30.4588 76.4516L22.627 88.8533L24.9953 90.2473L32.8272 77.8457L30.4588 76.4516Z" fill="#ABC4F6"/>
<path d="M50.2556 27.8136L57.4227 26.5468L52.0623 24.9527L52.0738 26.0152L50.4637 26.8593L50.2556 27.8136Z" fill="#6D89CF"/>
<path d="M57.4212 26.5467L50.9328 25.4885L45.2148 27.0345L57.4212 26.5467Z" fill="#BED2FA"/>
<path d="M52.063 24.9526L57.4234 26.5467L52.6712 22.8839L52.063 24.9526Z" fill="#BED2FA"/>
<path d="M92.3145 28.7279L90.8775 30.5193L88.8248 29.8699C89.0796 29.2074 89.6328 28.6458 90.3546 28.4125C91.0764 28.1793 91.7942 28.3211 92.3145 28.7279Z" fill="white"/>
<path d="M89.613 25.4178C87.8619 25.9836 86.5263 27.34 85.9123 28.9523L87.2073 29.358C87.6622 28.1662 88.6526 27.1661 89.9434 26.749C91.2342 26.3319 92.5167 26.5884 93.4482 27.3172L94.3569 26.1852C93.0935 25.1989 91.3465 24.8582 89.6131 25.4184L89.613 25.4178Z" fill="white"/>
<path d="M88.2004 19.7265C84.4954 20.9238 81.6674 23.7929 80.3687 27.2027L81.6637 27.6084C82.8044 24.6233 85.2854 22.1065 88.5302 21.058C91.775 20.0094 94.9924 20.6562 97.3325 22.4827L98.2364 21.3522C95.5687 19.2676 91.8732 18.5403 88.2 19.7273L88.2004 19.7265Z" fill="white"/>
<path d="M88.9736 22.8407C86.3382 23.6923 84.3179 25.73 83.384 28.1544L84.679 28.56C85.4549 26.5604 87.1238 24.8758 89.3033 24.1715C91.4828 23.4672 93.6417 23.8954 95.2208 25.1106L96.1263 23.9841C94.2186 22.5065 91.5865 21.9963 88.973 22.8409L88.9736 22.8407Z" fill="white"/>
<path d="M56.2872 48.424L54.6812 48.904C55.3568 49.3917 55.6213 49.9571 55.4281 50.5698C55.2374 51.1928 54.579 51.8676 53.5182 52.5601C53.8217 50.0215 53.6648 47.498 53.058 45.053C51.7458 39.7659 48.3678 35.2665 43.4574 32.6711C38.7012 30.1491 32.9908 29.6376 27.399 31.4446C24.2587 32.4594 21.3946 34.124 18.9596 36.3236C18.959 36.3238 18.9579 36.3248 18.9575 36.3256C18.0046 36.346 17.0862 36.4072 16.2114 36.5108C11.7945 37.0316 8.95147 38.5766 8.20806 40.8615C7.50036 43.035 8.80124 45.5419 11.8771 47.9625C11.8771 47.9625 11.8774 47.9637 11.8768 47.9639C11.5953 49.0587 11.3764 50.3208 11.2767 51.4939C7.03471 53.1372 4.91525 54.6261 4.41202 56.2455C3.82738 58.1301 5.68082 59.8069 10.4462 60.4797C11.1032 60.5731 11.8005 60.6482 12.529 60.7132C14.1319 64.953 17.2329 68.5628 21.4007 70.7726C23.7577 72.018 26.3251 72.7672 29.035 72.9979C37.3331 73.6862 45.9391 69.3269 50.574 61.3452C51.9677 58.9377 52.9047 56.3553 53.3564 53.6851C55.3504 52.5793 56.5669 51.4633 56.8966 50.4003C57.1271 49.6639 56.9109 49.0005 56.2871 48.4234L56.2872 48.424ZM52.1837 53.3359C50.8466 54.0347 49.1386 54.7424 47.1066 55.4211C43.9549 56.4805 40.2642 57.4084 36.3152 58.1492C36.4662 57.356 36.606 56.5465 36.7344 55.723C38.0182 55.73 39.2471 55.667 40.4003 55.5306C41.7217 55.3748 42.9009 55.1281 43.9265 54.7966C46.3297 54.02 47.8828 52.7816 48.4037 51.1799C48.4893 50.916 48.5461 50.6472 48.5734 50.3742L47.348 50.7702C47.3369 50.8134 47.3238 50.8566 47.3106 50.8991C46.9239 52.0889 45.6384 53.054 43.6561 53.6939C42.7082 54.0002 41.5999 54.2325 40.3554 54.379C39.2708 54.5069 38.1147 54.5677 36.9063 54.5643C37.0214 53.7433 37.1246 52.9117 37.2151 52.0713C37.4597 49.8061 37.601 47.5931 37.6399 45.4994C41.9822 44.7523 46.3653 43.3554 50.4941 41.6843C51.0747 42.8666 51.5314 44.1213 51.8585 45.4393C52.4959 48.0074 52.6063 50.6628 52.1834 53.3347L52.1837 53.3359ZM29.1532 71.6359C28.5045 71.6158 27.9934 70.8731 27.6791 70.2531C27.1818 69.2737 26.7718 67.8053 26.4924 66.0066C26.3512 65.097 26.2436 64.1156 26.1688 63.0775C28.7699 62.928 31.3927 62.9695 33.9942 63.1995C33.6869 64.2703 33.3571 65.2769 33.0086 66.2058C32.3441 67.976 31.6205 69.4097 30.9157 70.3525C30.4695 70.949 29.8025 71.6558 29.1538 71.6357L29.1532 71.6359ZM34.2997 62.084C31.5756 61.8365 28.8269 61.7929 26.1019 61.9538C26.079 61.468 26.0622 60.9719 26.0527 60.4655C26.8042 60.3946 27.5642 60.3152 28.332 60.2273C30.578 59.9662 32.8023 59.6419 34.9645 59.2618C34.7595 60.2365 34.5374 61.1798 34.3004 62.0844L34.2997 62.084ZM28.6135 59.3129C27.7457 59.4129 26.8876 59.5014 26.0425 59.5785C26.0366 57.916 26.101 56.1593 26.235 54.3477C29.4652 55.137 32.6653 55.5948 35.613 55.7006C35.4714 56.6062 35.3152 57.4957 35.146 58.3622C33.0193 58.7366 30.8282 59.0566 28.6135 59.3129ZM16.5896 40.7266C18.9316 43.3662 22.5835 44.9848 26.2488 45.6569C25.881 47.5908 25.5792 49.6253 25.3544 51.7096C25.3123 52.0983 25.2742 52.485 25.2377 52.8699C20.4819 51.5704 16.2595 49.6805 13.2567 47.5011C13.2567 47.5011 13.2559 47.5007 13.2552 47.5003C13.9573 45.0943 15.0831 42.8072 16.589 40.7268L16.5896 40.7266ZM33.4153 32.146C34.064 32.1661 34.5751 32.9088 34.8893 33.5282C35.3866 34.5076 35.7966 35.976 36.0761 37.7753C36.382 39.7445 36.5316 42.0446 36.5256 44.5474C33.5516 44.9874 30.5022 45.113 27.5651 44.7092C28.1148 42.0534 28.7904 39.6255 29.5599 37.5761C30.2244 35.8059 30.948 34.3722 31.6528 33.4294C32.0206 32.9374 32.5389 32.3708 33.0731 32.1982C33.1867 32.1615 33.3009 32.1427 33.4147 32.1462L33.4153 32.146ZM36.5132 45.6786C36.4719 47.7042 36.3331 49.8451 36.0965 52.0383C36.0052 52.8835 35.9013 53.7204 35.7851 54.5451C32.8264 54.4428 29.596 53.9722 26.3322 53.1567C26.3745 52.6888 26.4207 52.2177 26.4714 51.7438C26.6914 49.7065 26.9858 47.7192 27.3426 45.8317C30.3334 46.2415 33.4351 46.1276 36.5127 45.6794L36.5132 45.6786ZM42.8142 33.7744C45.9488 35.4369 48.3588 37.8716 49.9767 40.7088C45.5778 42.4781 41.4486 43.7035 37.6507 44.3669C37.6522 41.8408 37.4988 39.5147 37.1883 37.5164C36.846 35.3098 36.1921 32.7762 34.9522 31.6325C37.7559 31.7725 40.4085 32.4928 42.8148 33.7742L42.8142 33.7744ZM27.6903 32.6184C29.0362 32.1835 30.3931 31.889 31.7531 31.7344C30.389 32.8806 29.2816 35.2021 28.512 37.2509C27.7246 39.3482 27.0338 41.8264 26.4721 44.5322C22.9819 43.8821 19.4446 42.2997 17.316 39.7774C20.0007 36.4563 23.5966 33.9413 27.6903 32.6184ZM9.30107 41.1423C9.68837 39.9523 10.9735 38.988 12.9556 38.3475C13.9035 38.0412 15.0118 37.8089 16.2563 37.6624C16.7289 37.6064 17.2148 37.5636 17.7131 37.5336C17.7131 37.5336 17.7137 37.5334 17.7143 37.5332C15.2838 40.0565 13.3691 43.1897 12.2372 46.7079C12.2372 46.7079 12.2369 46.7093 12.2364 46.7101C9.85035 44.7201 8.78617 42.7227 9.30061 41.1431L9.30107 41.1423ZM12.9356 48.745C12.9356 48.745 12.9354 48.7444 12.9353 48.7438C16.0672 50.9166 20.3529 52.7879 25.1345 54.0661C24.9835 56.0085 24.9113 57.8935 24.9176 59.6747C21.2883 59.9669 17.0192 60.1019 13.5487 59.81C12.6514 57.3305 12.2915 54.6435 12.4668 51.9425C12.535 50.8951 12.6955 49.7862 12.9348 48.7446L12.9356 48.745ZM11.2483 59.5645C7.09339 58.9838 4.97001 57.8127 5.4269 56.3472C5.79405 55.1611 7.85881 53.7709 11.2123 52.4206C11.0908 54.9263 11.4404 57.3779 12.1655 59.6795C11.8518 59.6472 11.5479 59.6065 11.2489 59.5643L11.2483 59.5645ZM24.9281 60.5655C24.9376 61.064 24.9533 61.5528 24.9752 62.0324C24.7227 62.0523 24.4706 62.0741 24.219 62.0977C19.965 62.4983 16.8947 63.2926 15.4849 63.7144C14.8827 62.7987 14.3661 61.8294 13.9383 60.808C16.942 60.9587 20.28 60.9559 24.9281 60.5655ZM16.1618 64.6728C17.6714 64.2486 20.4991 63.5755 24.2364 63.2237C24.504 63.1982 24.7718 63.1759 25.0399 63.1549C25.1171 64.2584 25.2304 65.3002 25.3802 66.2655C25.6643 68.0938 26.1615 70.1478 27.0296 71.4481C25.2834 71.0948 23.6143 70.4986 22.042 69.6647C19.6988 68.4219 17.711 66.7224 16.1617 64.6722L16.1618 64.6728ZM31.0578 71.8296C32.3115 70.6244 33.3336 68.457 34.0572 66.5308C34.4304 65.5368 34.7818 64.4576 35.108 63.3088C38.7317 63.7068 42.3124 64.477 45.7756 65.6038C41.5506 69.7257 36.1515 71.7825 31.0584 71.8294L31.0578 71.8296ZM49.5182 60.7857C48.707 62.1912 47.7528 63.4937 46.6676 64.6809C43.0193 63.4575 39.239 62.6227 35.41 62.195C35.6719 61.1889 35.9151 60.1363 36.1375 59.0482C39.3939 58.4398 42.4877 57.706 45.2724 56.8756C45.9999 56.6626 46.7015 56.4358 47.3812 56.211C49.1406 55.6204 50.6864 55.0093 51.9863 54.3893C51.5204 56.6138 50.69 58.7614 49.5182 60.7857Z" fill="#93B3F4"/>
<path d="M47.5285 54.6732L52.9501 88.932C52.9501 88.932 53.1527 91.0494 54.6828 90.5589C57.1988 89.7523 67.1982 86.5145 67.1982 86.5145C67.1982 86.5145 65.2016 86.7055 64.9892 85.7514C64.7392 84.6272 59.8079 50.3644 59.8079 50.3644L47.5285 54.6732Z" fill="#9E332E"/>
<path d="M67.8603 85.6472C67.3661 85.8082 57.8211 88.9245 55.3645 89.6852C54.294 90.0169 53.8788 89.1576 53.722 88.5658C53.6469 88.2819 53.6312 88.0592 53.6312 88.0592L53.4902 87.169L53.131 84.8997L52.8135 82.8946L52.4057 80.3178L52.0614 78.143L48.2089 53.8L60.4889 49.491C60.4889 49.491 62.5437 63.8324 64.0682 74.2629C64.2378 75.4249 64.4015 76.5393 64.5551 77.5786C64.6039 77.9106 64.652 78.2351 64.6981 78.5512C64.8446 79.5376 64.9788 80.4429 65.0986 81.2419C65.1616 81.6635 65.2204 82.0546 65.2749 82.4127C65.4875 83.817 65.6303 84.7118 65.6701 84.8774C65.6941 84.9741 65.7243 85.061 65.7609 85.1394C66.2275 86.1365 67.6729 85.7064 67.8587 85.6464L67.8603 85.6472Z" fill="#EE6D6B"/>
<path d="M13.0137 46.2313L26.7706 71.4177L28.6541 74.8673L35.0615 86.5985L95.1844 67.1697L72.3444 27.0585L13.0137 46.2313Z" fill="#EE6D6B"/>
<path d="M13.0134 46.2307L12.1292 46.8578L34.0185 87.9666L35.0615 86.5991L13.0134 46.2307Z" fill="#ED6966"/>
<path d="M34.02 87.9666L93.7725 68.6575L95.1859 67.1703L35.063 86.5991L34.02 87.9666Z" fill="#9E332E"/>
<path d="M57.1352 89.7799L70.0723 85.5992L69.9223 84.9949L56.9852 89.1755L57.1352 89.7799Z" fill="#EF7674"/>
<path d="M90.2611 60.0095L71.7489 27.8785L13.0623 46.8432L12.918 46.2617L72.3447 27.0579L90.9495 59.7027L90.2611 60.0095Z" fill="#EF7674"/>
<path d="M64.6496 78.0679L64.6977 78.5514L53.1302 84.8987L52.8128 82.8936L52.6623 81.9416L64.6496 78.0679Z" fill="#9E332E"/>
<path opacity="0.4" d="M67.8601 85.6473C67.366 85.8083 57.821 88.9246 55.3643 89.6853C54.2939 90.017 53.8786 89.1577 53.7218 88.5659L65.2755 82.4132C65.4881 83.8175 65.6309 84.7123 65.6707 84.8779C65.6947 84.9746 65.7249 85.0616 65.7615 85.1399C66.2282 86.137 67.6736 85.7069 67.8594 85.6469L67.8601 85.6473Z" fill="#9E332E"/>
<path opacity="0.4" d="M59.2641 69.1631L35.0618 86.5991L28.6543 74.8673L59.2641 69.1631Z" fill="#9E332E"/>
<path d="M13.0137 46.2307L72.3445 27.0579L90.7406 59.2822L30.4276 78.7724L13.0137 46.2307Z" fill="#3662C1"/>
<path d="M65.6849 72.2047C65.2987 71.3938 64.2705 70.9668 63.3885 71.2518C62.5066 71.5368 62.1051 72.4251 62.492 73.2365C62.8783 74.0481 63.9064 74.4744 64.7884 74.1894C65.6703 73.9044 66.0718 73.0161 65.6849 72.2047Z" fill="#9E332E"/>
<path d="M87.563 58.6557L32.0118 76.6071L19.6065 54.0072L18.6561 52.2742L17.8443 50.7961L17.1946 49.6122L15.9414 47.3294L70.6925 29.6365L70.765 29.761L72.0075 31.8994L72.6895 33.0728L73.5417 34.5378L74.5404 36.2553L87.563 58.6557Z" fill="#DDE8FD"/>
<path d="M87.5845 58.7398L32.0333 76.6913L19.628 54.0914L18.6776 52.3583L17.8658 50.8803L17.2161 49.6964L15.9629 47.4136L70.714 29.7206L70.7865 29.8452L72.0289 31.9835L72.711 33.157L73.5632 34.622L74.5618 36.3394L87.5845 58.7398Z" fill="#DDE8FD"/>
<path d="M72.0075 31.8994L17.1946 49.6122L15.9414 47.3294L70.6711 29.6434L70.765 29.761L72.0075 31.8994Z" fill="#97B6F4"/>
<path d="M17.7726 48.0814C17.6419 47.842 17.7507 47.5784 18.016 47.4927C18.2813 47.407 18.6027 47.5315 18.7334 47.7709C18.8641 48.0103 18.7552 48.2739 18.49 48.3596C18.2247 48.4453 17.9033 48.3208 17.7726 48.0814Z" fill="#DDE8FD"/>
<path d="M19.3702 47.5653C19.2395 47.3259 19.3484 47.0623 19.6137 46.9766C19.8789 46.8909 20.2003 47.0154 20.331 47.2548C20.4618 47.4942 20.3529 47.7578 20.0876 47.8435C19.8224 47.9292 19.501 47.8047 19.3702 47.5653Z" fill="#DDE8FD"/>
<path d="M21.089 47.0099C20.9583 46.7705 21.0672 46.5069 21.3324 46.4212C21.5977 46.3354 21.9191 46.46 22.0498 46.6994C22.1805 46.9388 22.0716 47.2024 21.8064 47.2881C21.5411 47.3738 21.2197 47.2493 21.089 47.0099Z" fill="#DDE8FD"/>
<path d="M49.3357 71.0993L43.8429 72.8743C43.6857 72.4696 43.5285 72.0382 43.3715 71.5867C43.0905 70.7762 42.8115 69.8969 42.5381 68.9761C42.4748 68.7636 42.4118 68.5497 42.3494 68.333C42.2698 68.0577 42.1908 67.7789 42.1126 67.4985C41.9799 67.0223 41.8487 66.539 41.7192 66.052C41.7192 66.052 41.7189 66.0508 41.7188 66.0502C41.5543 65.4298 41.394 64.8028 41.237 64.178C41.1981 64.0213 41.1593 63.8651 41.1207 63.7095C41.0842 63.5623 41.0479 63.4163 41.0129 63.2699C40.6835 61.9215 40.3758 60.594 40.1003 59.356C39.4887 56.618 39.0293 54.32 38.8135 53.2139C38.7245 52.7593 38.6769 52.5066 38.6769 52.5066L38.6782 52.5062C38.6908 52.5041 38.7783 52.492 38.9168 52.481C39.0185 52.4728 39.1486 52.4652 39.2978 52.4624C39.4323 52.4591 39.5825 52.4606 39.7414 52.4676L39.7426 52.4672C40.0134 52.481 40.3096 52.5144 40.5974 52.5836C40.6016 52.5842 40.6057 52.5848 40.6104 52.5852C41.0827 52.7032 41.5354 52.9151 41.8134 53.2984C42.0505 53.6234 42.8862 55.5142 43.9561 58.0373C43.9865 58.1093 44.017 58.1818 44.0477 58.255C44.6148 59.5954 45.2416 61.102 45.8786 62.6418C46.553 64.2739 47.2364 65.942 47.8679 67.4887C48.4084 68.8156 48.9114 70.0521 49.3356 71.0987L49.3357 71.0993Z" fill="#0B0754"/>
<path d="M47.7982 71.5964L41.4045 73.6625C41.1536 73.1836 40.9147 72.7209 40.6962 72.2847C40.0942 71.0828 39.6466 70.0828 39.5152 69.5107C39.4539 69.2424 39.504 69.0004 39.6409 68.7829C39.734 68.634 39.8675 68.4962 40.0327 68.3694C40.5225 67.9938 41.2887 67.7105 42.113 67.4993C42.3928 67.427 42.6787 67.3632 42.9631 67.307C44.5274 66.9968 46.0299 66.911 46.0299 66.911C46.0299 66.911 46.2171 67.2554 46.4916 67.8747C46.6973 68.339 46.9523 68.9594 47.2119 69.7048C47.3628 70.1375 47.5159 70.613 47.6629 71.1255C47.707 71.2794 47.7521 71.4374 47.7985 71.5976L47.7982 71.5964Z" fill="#060632"/>
<path d="M43.7531 68.1489L43.8023 68.6236L44.0396 70.9284L44.0803 71.3215L44.2276 72.7502L37.5644 74.9034C37.2882 74.0167 37.0221 73.152 36.8226 72.3878C36.8002 72.3029 36.7796 72.22 36.7592 72.1377C36.4724 70.9825 36.3631 70.0925 36.6461 69.7668C36.9672 69.3983 38.2509 69.0561 39.6407 68.7822C39.7792 68.755 39.9192 68.7286 40.0586 68.7023C40.871 68.5521 41.6895 68.4264 42.3495 68.3325C42.692 68.2841 42.9917 68.2438 43.2252 68.2137C43.5547 68.1715 43.7523 68.1485 43.7523 68.1485L43.7531 68.1489Z" fill="#B15252"/>
<path d="M32.6728 55.6747C32.6728 55.6747 35.7558 52.1652 38.6768 52.5068C39.1426 52.5613 39.7506 52.9359 40.1841 53.1955C41.3883 53.9167 47.2951 69.6453 47.2951 69.6453C47.2951 69.6453 42.4659 73.0988 36.8208 72.3877L32.6728 55.6747Z" fill="white"/>
<path d="M38.8717 52.3799C38.8717 52.3799 42.9479 52.6753 43.7343 53.6599C44.5207 54.6445 47.9001 61.161 48.1051 61.987C48.3101 62.813 45.3107 63.0892 44.523 61.9051C43.8689 60.9218 41.7444 57.9375 40.5356 56.0063L38.8711 52.3801L38.8717 52.3799Z" fill="#0B0754"/>
<path d="M38.3822 53.7666C37.6118 54.1843 36.3823 54.4019 35.3722 54.1196C35.5363 53.0705 35.5163 52.2905 35.4569 51.8009C35.4537 51.7747 35.4508 51.7497 35.4474 51.7255C35.4124 51.4727 35.3677 51.3087 35.3366 51.2363L37.4281 50.5604C37.4281 50.5604 38.0639 50.6327 38.1079 50.8099C38.1315 50.9048 38.1546 50.9953 38.1781 51.0819C38.2411 51.3172 38.302 51.52 38.3582 51.6933C38.5411 52.2572 38.6758 52.5076 38.6758 52.5076C38.6758 52.5076 39.1599 53.3459 38.3818 53.7674L38.3822 53.7666Z" fill="#FC9290"/>
<path d="M38.3597 51.6925C36.8502 52.5054 35.7191 51.9514 35.4584 51.8001C35.4213 51.7783 35.4014 51.7646 35.4014 51.7646C35.4158 51.7509 35.4317 51.738 35.4483 51.7248C35.9798 51.2994 37.3647 51.0536 38.1789 51.0812C38.242 51.3165 38.3029 51.5194 38.3591 51.6927L38.3597 51.6925Z" fill="#FA7269"/>
<path d="M34.7178 51.0705C35.3725 52.4767 37.3272 51.7925 38.1534 51.4236C38.3858 51.32 38.5288 51.2419 38.5288 51.2419C38.7808 51.084 38.8275 50.6179 38.7621 50.0485C38.6323 48.9217 38.0625 47.3895 37.776 47.0434C37.3442 46.5223 36.6528 46.032 34.7909 47.1489C32.9292 48.2664 33.8779 49.2693 34.7179 51.0711L34.7178 51.0705Z" fill="#FC9290"/>
<path d="M37.6419 46.1839C37.2798 45.9032 36.5942 45.6387 36.0047 45.53C34.7373 45.2965 33.4564 46.3736 33.4517 46.3784C32.0078 47.5997 31.8874 48.9526 33.2152 50.5702C34.6194 52.2806 35.4265 51.7764 35.4265 51.7764C35.4265 51.7764 35.2153 51.7233 35.0769 51.0938C35.0693 51.058 35.0631 51.0276 35.0586 51.0017C35.0354 50.871 34.9577 50.7573 34.8387 50.7036C34.594 50.5925 34.3638 50.0907 34.495 49.888C34.6535 49.6434 34.9929 49.7686 35.1254 49.9062C35.2342 49.9989 35.3876 49.9941 35.4996 49.8684C35.9255 49.3926 35.4433 48.8729 35.8294 48.3348C36.2154 47.7967 37.2713 47.8027 37.9173 47.2643C38.7757 46.6131 37.9156 46.3953 37.6432 46.1835L37.6419 46.1839Z" fill="#0B0754"/>
<path d="M44.4961 72.6637L36.5255 75.2394C36.1792 73.5967 35.7711 71.6332 35.3607 69.6445C35.254 69.1294 35.1477 68.6109 35.0421 68.0973C34.9979 67.8793 34.9529 67.6635 34.9084 67.4468C34.0019 63.0286 33.1994 59.0344 33.1835 58.8105C33.1481 58.3034 33.1255 57.8694 33.1236 57.4866C33.1177 56.3723 33.2882 55.7053 33.8457 54.9989C33.8995 54.9283 34.3756 54.4844 34.796 54.0954C35.1393 53.7788 35.4458 53.5 35.455 53.4918C35.5432 53.5042 35.6574 53.5841 35.7889 53.7149C35.9204 53.8456 36.0707 54.0281 36.2316 54.2454C36.8241 55.0474 37.567 56.3277 38.1012 57.2907C38.1015 57.2919 38.103 57.2927 38.1031 57.2933C38.1034 57.2945 38.1034 57.2945 38.1036 57.2951C38.4482 57.9177 38.7058 58.4048 38.7796 58.5452C38.9042 58.7813 39.1079 59.2509 39.3696 59.8905L39.3701 59.8923C39.7261 60.7655 40.1877 61.9576 40.6999 63.3138C40.7525 63.4539 40.806 63.5949 40.859 63.7368C40.9199 63.8995 40.9818 64.0637 41.0449 64.2302C41.0649 64.2841 41.0848 64.338 41.1047 64.3913C41.3063 64.9296 41.5119 65.4842 41.7202 66.0496C41.7202 66.0496 41.7205 66.0508 41.7207 66.0514C41.8943 66.517 42.7254 66.6254 42.8995 67.1007C42.9119 67.1349 42.9342 67.2062 42.9636 67.3058C43.0249 67.5105 43.1178 67.8367 43.2265 68.2136C43.2742 68.3819 43.3257 68.5599 43.378 68.7415C43.6103 69.5497 43.868 70.4339 44.016 70.852C44.0229 70.8718 44.0312 70.8971 44.0408 70.9277C44.067 71.012 44.1021 71.1376 44.1453 71.2956C44.2358 71.6311 44.3595 72.1135 44.4967 72.6635L44.4961 72.6637Z" fill="#0B0754"/>
<path d="M35.4716 59.9696C35.4715 59.98 36.439 64.4207 39.9392 63.8665C43.4389 63.3131 41.237 64.1771 41.237 64.1771C41.237 64.1771 34.8356 65.9596 34.6904 65.8293C34.5451 65.6985 35.4722 59.9694 35.4722 59.9694L35.4716 59.9696Z" fill="#060632"/>
<path d="M40.0114 65.8834C40.0114 65.8834 39.9593 65.9476 39.8568 66.0638C39.8551 66.065 39.8531 66.0676 39.8516 66.0694C39.4182 66.5579 38.1113 67.9289 36.0377 69.2356C35.8202 69.3727 35.594 69.5094 35.3594 69.6443C35.2527 69.1291 35.1466 68.6112 35.0408 68.0971C34.7418 68.169 34.4521 68.2231 34.1783 68.2531C34.1702 68.1831 34.1628 68.1134 34.1553 68.0432C34.4093 67.8378 34.6627 67.6378 34.9077 67.4464C35.1073 67.2904 35.3006 67.141 35.4837 67.0007C36.311 66.3654 36.9298 65.9163 36.9298 65.9163L39.8374 65.8845L40.0119 65.8826L40.0114 65.8834Z" fill="#060632"/>
<path d="M40.7093 65.5787C40.7093 65.5787 40.3839 65.776 39.8585 66.0639C39.8567 66.0645 39.8548 66.0651 39.8527 66.0671C38.8844 66.5974 37.243 67.4321 35.7101 67.9113C35.4839 67.9817 35.26 68.045 35.0413 68.0975C34.7422 68.1695 34.4526 68.2235 34.1788 68.2536C33.5914 68.3182 33.0746 68.2736 32.6922 68.0656C29.8529 66.5238 31.3403 57.2159 31.8819 56.1818C32.5145 54.9748 34.0086 54.1396 34.8506 53.7468C34.8861 53.7302 34.9192 53.7149 34.9524 53.6996C35.2491 53.5648 35.4435 53.4942 35.4543 53.4901C35.4543 53.4901 35.4394 53.7278 35.4164 54.1298C35.4068 54.2854 35.3962 54.466 35.3854 54.6674C35.2779 56.5593 35.0861 60.2714 35.1043 62.3239C35.1112 63.0751 35.146 63.6037 35.2233 63.7397C35.562 64.333 37.4829 64.0737 38.6835 63.846C39.1847 63.7509 39.5604 63.6606 39.6438 63.6401C39.6499 63.6382 39.6554 63.6364 39.6612 63.6358L39.7959 63.8856L40.1187 64.4841L40.4356 65.0721L40.7076 65.5773L40.7093 65.5787Z" fill="#0B0754"/>
<path d="M48.0231 67.4463L40.1325 69.6471L39.342 59.5673L47.2334 57.3669L48.0231 67.4463Z" fill="#EE6D6B"/>
<path d="M39.6615 63.6374C39.6615 63.6374 41.1562 63.0414 41.3184 63.3654C41.6979 64.1201 40.3782 65.2668 39.8858 65.3766C39.3935 65.4864 39.2978 63.6965 39.6609 63.6376L39.6615 63.6374Z" fill="#FC9290"/>
<path d="M47.2898 59.4477C47.2898 59.4477 45.7243 59.4709 45.6476 59.8428C45.4694 60.7102 47.002 61.2805 47.4972 61.1905C47.9919 61.1008 47.6498 59.3606 47.2898 59.4477Z" fill="#FC9290"/>
<path d="M35.4914 52.9597C35.4914 52.9597 34.9259 53.4663 34.7179 54.0221C34.7179 54.0221 38.1216 57.3296 38.1018 57.2952C38.0818 57.2601 36.2337 53.2851 35.4922 52.9601L35.4914 52.9597Z" fill="#060632"/>
<path d="M38.4844 52.0543C38.7146 52.0643 39.2189 52.3406 39.3658 52.5359L40.5341 56.0064C40.5341 56.0064 39.2783 53.5881 38.6764 52.5062C38.523 52.2313 38.515 52.1353 38.4844 52.0543Z" fill="#060632"/>
<path d="M41.9593 58.8379C41.9593 58.8379 41.9551 58.5525 42.3184 58.4681C42.6818 58.3838 44.7031 57.8351 44.7031 57.8351C44.7031 57.8351 45.0867 57.7047 45.1115 57.9588L41.9599 58.8377L41.9593 58.8379Z" fill="#B15252"/>
<path d="M37.4293 50.5596C37.4293 50.5596 37.7462 50.7083 38.147 50.501C38.3845 50.3781 38.4445 50.0161 38.4445 50.0161C38.4445 50.0161 37.9469 50.0861 37.4293 50.5596Z" fill="white"/>
<path d="M75.1788 41.5766L69.4143 43.4621L65.7961 37.0261L71.5607 35.1412L75.1788 41.5766Z" fill="white"/>
<path d="M70.3579 36.5287L67.9403 37.319L67.887 37.224L70.3039 36.4332L70.3579 36.5287Z" fill="#93B3F4"/>
<path d="M70.8155 36.6928L67.7807 37.6859L67.7273 37.5902L70.7616 36.598L70.8155 36.6928Z" fill="#93B3F4"/>
<path d="M72.0063 37.8558L68.0647 39.1451L68.0114 39.0501L71.953 37.7607L72.0063 37.8558Z" fill="#93B3F4"/>
<path d="M72.1823 38.17L68.2406 39.4594L68.1872 39.3637L72.1288 38.0744L72.1823 38.17Z" fill="#93B3F4"/>
<path d="M72.3579 38.4836L68.4169 39.7727L68.363 39.6779L72.3046 38.3885L72.3579 38.4836Z" fill="#93B3F4"/>
<path d="M72.5358 38.7975L68.594 40.0863L68.5407 39.9912L72.4817 38.7021L72.5358 38.7975Z" fill="#93B3F4"/>
<path d="M72.7114 39.1111L68.7698 40.4005L68.7163 40.3048L72.6581 39.0161L72.7114 39.1111Z" fill="#93B3F4"/>
<path d="M73.1413 39.875L69.1995 41.1638L69.1462 41.0687L73.0878 39.7794L73.1413 39.875Z" fill="#93B3F4"/>
<path d="M73.3169 40.1887L69.3758 41.4778L69.3218 41.3823L73.2636 40.0936L73.3169 40.1887Z" fill="#93B3F4"/>
<path d="M73.4946 40.5021L69.553 41.7914L69.4997 41.6964L73.4407 40.4072L73.4946 40.5021Z" fill="#93B3F4"/>
<path d="M73.6706 40.8162L69.7289 42.1055L69.6755 42.0099L73.6171 40.7206L73.6706 40.8162Z" fill="#93B3F4"/>
<path d="M73.8462 41.1298L69.9045 42.4191L69.8512 42.3241L73.7929 41.0348L73.8462 41.1298Z" fill="#93B3F4"/>
<path d="M79.675 49.5737L73.9106 51.4592L70.2923 45.0232L76.0568 43.1377L79.675 49.5737Z" fill="white"/>
<path d="M74.8572 44.5254L72.4403 45.3161L72.3869 45.2205L74.8039 44.4304L74.8572 44.5254Z" fill="#93B3F4"/>
<path d="M75.3149 44.6902L72.2806 45.6824L72.2273 45.5873L75.2616 44.5951L75.3149 44.6902Z" fill="#93B3F4"/>
<path d="M76.5044 45.8528L72.5627 47.1422L72.5093 47.0465L76.4511 45.7578L76.5044 45.8528Z" fill="#93B3F4"/>
<path d="M76.6823 46.167L72.7405 47.4557L72.6872 47.3607L76.6288 46.0713L76.6823 46.167Z" fill="#93B3F4"/>
<path d="M76.8581 46.4806L72.9164 47.77L72.863 47.6743L76.8046 46.385L76.8581 46.4806Z" fill="#93B3F4"/>
<path d="M77.0343 46.7939L73.0926 48.0832L73.0387 47.9884L76.9804 46.6991L77.0343 46.7939Z" fill="#93B3F4"/>
<path d="M77.2116 47.1081L73.2698 48.3969L73.2165 48.3018L77.1581 47.0125L77.2116 47.1081Z" fill="#93B3F4"/>
<path d="M77.6411 47.8715L73.6995 49.1608L73.6462 49.0657L77.5878 47.7764L77.6411 47.8715Z" fill="#93B3F4"/>
<path d="M77.817 48.1857L73.8754 49.475L73.8219 49.3794L77.7636 48.0901L77.817 48.1857Z" fill="#93B3F4"/>
<path d="M77.9952 48.4991L74.0536 49.7885L73.9995 49.693L77.9413 48.4043L77.9952 48.4991Z" fill="#93B3F4"/>
<path d="M78.1686 48.8133L74.2268 50.102L74.1735 50.007L78.1145 48.7178L78.1686 48.8133Z" fill="#93B3F4"/>
<path d="M78.3463 49.1269L74.4047 50.4162L74.3512 50.3206L78.2929 49.0312L78.3463 49.1269Z" fill="#93B3F4"/>
<path d="M84.2022 57.6242L78.4378 59.5097L74.8197 53.0743L80.5841 51.1888L84.2022 57.6242Z" fill="white"/>
<path d="M79.3833 52.5765L76.9664 53.3672L76.9124 53.2718L79.3299 52.4808L79.3833 52.5765Z" fill="#93B3F4"/>
<path d="M79.8411 52.7413L76.8061 53.7337L76.7528 53.6387L79.7876 52.6456L79.8411 52.7413Z" fill="#93B3F4"/>
<path d="M81.0319 53.9043L77.0901 55.193L77.0368 55.098L80.9784 53.8086L81.0319 53.9043Z" fill="#93B3F4"/>
<path d="M81.2095 54.2179L77.2684 55.507L77.2145 55.4122L81.1562 54.1228L81.2095 54.2179Z" fill="#93B3F4"/>
<path d="M81.3854 54.5319L77.4436 55.8206L77.3903 55.7256L81.3313 54.4365L81.3854 54.5319Z" fill="#93B3F4"/>
<path d="M81.563 54.8454L77.6213 56.1347L77.5679 56.0391L81.5097 54.7503L81.563 54.8454Z" fill="#93B3F4"/>
<path d="M81.7388 55.1589L77.7971 56.4483L77.7438 56.3532L81.6855 55.0639L81.7388 55.1589Z" fill="#93B3F4"/>
<path d="M82.1673 55.9227L78.2256 57.212L78.1715 57.1166L82.1132 55.8273L82.1673 55.9227Z" fill="#93B3F4"/>
<path d="M82.3462 56.2363L78.4045 57.5256L78.3512 57.4305L82.2923 56.1414L82.3462 56.2363Z" fill="#93B3F4"/>
<path d="M82.5221 56.5505L78.5805 57.8398L78.527 57.7441L82.4687 56.4548L82.5221 56.5505Z" fill="#93B3F4"/>
<path d="M82.6958 56.8641L78.7541 58.1535L78.7007 58.0578L82.6425 56.7691L82.6958 56.8641Z" fill="#93B3F4"/>
<path d="M82.8737 57.1782L78.9325 58.4667L78.8786 58.3719L82.8202 57.0826L82.8737 57.1782Z" fill="#93B3F4"/>
<path d="M76.6298 60.1351L56.4689 66.7292L45.2369 46.7527L47.1757 43.1205L63.9745 37.6264L76.6298 60.1351Z" fill="white"/>
<path d="M59.3336 43.1159L52.2282 45.4399L52.0709 45.1598L59.1763 42.8358L59.3336 43.1159Z" fill="#93B3F4"/>
<path d="M60.6794 43.5997L51.7591 46.5174L51.6018 46.2373L60.522 43.3196L60.6794 43.5997Z" fill="#93B3F4"/>
<path d="M64.1805 47.018L52.5935 50.8078L52.4362 50.5277L64.0231 46.7379L64.1805 47.018Z" fill="#93B3F4"/>
<path d="M64.6987 47.9407L53.1117 51.7305L52.9538 51.4506L64.5413 47.6606L64.6987 47.9407Z" fill="#93B3F4"/>
<path d="M65.2162 48.8632L53.6287 52.6531L53.4714 52.373L65.0589 48.5831L65.2162 48.8632Z" fill="#93B3F4"/>
<path d="M65.7358 49.7857L54.1482 53.5756L53.9909 53.2955L65.5778 49.5058L65.7358 49.7857Z" fill="#93B3F4"/>
<path d="M66.2526 50.7078L54.6658 54.4981L54.5085 54.218L66.0954 50.4283L66.2526 50.7078Z" fill="#93B3F4"/>
<path d="M67.517 52.9527L55.9301 56.7424L55.7723 56.4631L67.3597 52.6726L67.517 52.9527Z" fill="#93B3F4"/>
<path d="M68.0346 53.8751L56.4471 57.6651L56.2897 57.385L67.8773 53.595L68.0346 53.8751Z" fill="#93B3F4"/>
<path d="M68.5541 54.7978L56.9666 58.5877L56.8093 58.3076L68.3968 54.5177L68.5541 54.7978Z" fill="#93B3F4"/>
<path d="M69.0717 55.7202L57.4842 59.5102L57.3268 59.2301L68.9138 55.4403L69.0717 55.7202Z" fill="#93B3F4"/>
<path d="M69.5906 56.6429L58.0037 60.4327L57.8464 60.1526L69.4333 56.3628L69.5906 56.6429Z" fill="#93B3F4"/>
<path d="M45.2375 46.7528L48.5996 45.6527L47.1762 43.1205L45.2375 46.7528Z" fill="#93B3F4"/>
<path d="M102.941 70.1475L87.0736 75.2749L85.6582 69.5722L101.59 64.4238C103.174 63.9118 104.772 64.759 105.158 66.3161C105.553 67.9086 104.56 69.6241 102.94 70.1476L102.941 70.1475Z" fill="white"/>
<path d="M119.063 61.3112L119.276 62.1691C119.39 62.6274 119.371 63.0974 119.243 63.5372C118.987 64.4221 118.292 65.186 117.354 65.4889L86.5712 75.4366C86.3676 75.5024 86.1624 75.3935 86.1127 75.1935L86.0808 75.0649C86.0312 74.8649 86.1559 74.6493 86.3595 74.5836L105.125 68.5195C105.195 68.3669 105.252 68.208 105.292 68.0451C105.387 67.6626 105.394 67.26 105.296 66.8659L105.025 65.775C104.976 65.5743 104.901 65.3882 104.806 65.2191C104.643 64.9322 104.422 64.6936 104.16 64.5127L85.3672 70.5857C85.1637 70.6515 84.9584 70.5426 84.9088 70.3425L84.877 70.2146C84.8274 70.0145 84.9521 69.799 85.1557 69.7333L116.094 59.7354C117.185 59.3831 118.282 59.8045 118.811 60.6933C118.922 60.8793 119.008 61.0857 119.064 61.3098L119.063 61.3112Z" fill="#3A49CD"/>
<path d="M118.812 60.6948L104.806 65.2208C104.643 64.9339 104.422 64.6954 104.16 64.5144L85.3672 70.5874C85.1637 70.6532 84.9584 70.5443 84.9088 70.3443L84.877 70.2163C84.8274 70.0163 84.9521 69.8007 85.1557 69.735L116.094 59.7371C117.185 59.3848 118.282 59.8062 118.811 60.695L118.812 60.6948Z" fill="#3864C2"/>
<path d="M86.3652 72.423L88.6682 71.7826L86.4034 72.5768L86.3652 72.423Z" fill="#EA8888"/>
<path d="M86.5879 73.3181L92.0341 71.6613L86.6259 73.4713L86.5879 73.3181Z" fill="#EA8888"/>
<path d="M92.0885 78.4326L109.577 72.7814L108.476 68.3456L90.8458 74.0427C89.6387 74.4327 88.8989 75.7107 89.1933 76.8972C89.5069 78.1605 90.8032 78.848 92.0885 78.4326Z" fill="#0B0754"/>
<path d="M108.582 73.1029L128.476 66.6742L127.375 62.2384L107.431 68.6835C106.199 69.0817 105.443 70.3862 105.744 71.5979C106.051 72.8366 107.321 73.5104 108.582 73.1031L108.582 73.1029Z" fill="white"/>
<path d="M104.973 74.2696L129.169 66.4507C129.355 66.3905 129.469 66.1933 129.424 66.0101C129.378 65.8269 129.19 65.7273 129.004 65.7875L104.808 73.6064C104.622 73.6667 104.508 73.8638 104.553 74.0471C104.598 74.2303 104.786 74.3299 104.973 74.2696Z" fill="#0B0754"/>
<path d="M104.037 70.497L128.233 62.6781C128.419 62.6178 128.534 62.4207 128.488 62.2374C128.443 62.0542 128.255 61.9546 128.068 62.0149L103.873 69.8338C103.686 69.894 103.572 70.0912 103.617 70.2744C103.663 70.4576 103.851 70.5572 104.037 70.497Z" fill="#0B0754"/>
<path d="M127.926 64.4563L125.257 65.3994L127.956 64.5759L127.926 64.4563Z" fill="#EA8888"/>
<path d="M127.672 63.4351L121.294 65.5771L127.701 63.5546L127.672 63.4351Z" fill="#EA8888"/>
<path d="M121.355 65.5408C121.355 65.5408 121.677 65.6425 121.845 65.9269C121.875 65.9764 121.9 66.0319 121.918 66.093C122.036 66.5044 122.255 67.4513 122.255 67.4513L122.947 66.7188L123.871 66.9288L123.555 65.6523C123.495 65.4108 123.367 65.1982 123.2 65.0861C123.119 65.0318 123.03 65.0004 122.944 65.028L121.356 65.5414L121.355 65.5408Z" fill="#3A49CD"/>
<path d="M121.355 65.5408C121.355 65.5408 121.677 65.6425 121.845 65.9269L123.472 65.4213C123.472 65.4213 123.297 64.9931 122.944 65.0274L121.355 65.5408Z" fill="#3662C1"/>
<path d="M104.728 63.4218L121.893 57.875L120.276 51.3577L103.036 56.9286C101.226 57.5136 100.116 59.4304 100.558 61.2104C101.009 63.03 102.876 64.0203 104.728 63.422L104.728 63.4218Z" fill="white"/>
<path d="M100.807 60.3804L101.155 61.7831C101.308 62.3807 101.774 62.7913 102.339 62.9092C102.617 62.9668 102.918 62.9536 103.218 62.8569L122.621 56.5866C122.849 56.5131 123.078 56.6349 123.134 56.8584L123.175 57.0236C123.23 57.247 123.091 57.4881 122.863 57.5616L89.3432 68.3937C88.3812 68.7046 87.4151 68.5093 86.7231 67.9555C86.2867 67.6073 85.9596 67.1166 85.8117 66.5207L85.5371 65.4141C85.4357 65.0057 85.4346 64.5888 85.5189 64.189C85.7322 63.1733 86.4954 62.2739 87.5521 61.9324L121.246 51.0442C121.473 50.9708 121.703 51.0919 121.758 51.3154L121.799 51.4806C121.855 51.7041 121.715 51.9451 121.488 52.0186L102.024 58.3082C101.559 58.4585 101.186 58.7893 100.97 59.1954C100.778 59.5553 100.708 59.9749 100.806 60.3806L100.807 60.3804Z" fill="#A83F3F"/>
<path d="M121.083 54.6161L118.623 55.5299L121.127 54.7915L121.083 54.6161Z" fill="#EA8888"/>
<path d="M120.712 53.1167L114.822 55.1383L120.756 53.2921L120.712 53.1167Z" fill="#EA8888"/>
<path d="M114.877 55.0971C114.877 55.0971 115.319 55.1775 115.533 55.4751C115.57 55.5272 115.6 55.5862 115.62 55.6519C115.753 56.0961 115.986 57.1249 115.986 57.1249L117.012 56.2416L118.289 56.3805L117.946 54.9964C117.881 54.7345 117.719 54.5116 117.494 54.4044C117.386 54.3525 117.262 54.3262 117.141 54.3655L114.878 55.0969L114.877 55.0971Z" fill="#EE6D6B"/>
<path d="M114.877 55.0971C114.877 55.0971 115.319 55.1775 115.533 55.4751L117.849 54.7487C117.849 54.7487 117.637 54.2914 117.14 54.3657L114.877 55.0971Z" fill="#E75755"/>
<path d="M102.12 54.6147C103.577 56.0336 105.031 56.2937 105.031 56.2937L110.383 54.5643C110.383 54.5643 101.009 53.5325 102.12 54.6147Z" fill="#060632"/>
<path d="M109.588 66.823C109.766 66.9353 109.828 67.105 109.805 67.3148C109.805 67.3154 109.806 67.3166 109.805 67.3176C109.763 67.7055 109.437 68.2286 109.044 68.7737C108.994 68.8437 108.949 68.9069 108.911 68.964C108.9 68.9789 108.89 68.9945 108.881 69.0091C108.874 69.0206 108.866 69.0328 108.859 69.0442C108.505 69.6056 108.701 69.645 108.088 70.7501C107.39 72.0095 106.75 72.2351 106.545 72.2066C106.371 72.1823 106.561 71.5733 106.768 70.8899C106.778 70.8567 106.788 70.8237 106.798 70.7906C106.826 70.6999 106.853 70.608 106.88 70.5169C107.119 69.6981 106.934 69.4101 106.583 68.4194C106.299 67.6147 104.118 64.2058 104.118 64.2058L105.836 63.323C105.836 63.323 107.129 66.1811 107.84 66.4555C108.22 66.6013 108.576 66.4899 108.928 66.5754C108.953 66.5811 108.978 66.5874 109.002 66.5945C109.203 66.6513 109.41 66.7112 109.589 66.8234L109.588 66.823Z" fill="#FC9290"/>
<path d="M109.587 66.823C109.766 66.9354 109.827 67.1051 109.805 67.3148C109.805 67.3154 109.805 67.3166 109.804 67.3176C109.733 67.7148 109.418 68.2326 109.04 68.7707C108.991 68.8411 108.947 68.9052 108.91 68.964C108.9 68.979 108.89 68.9946 108.881 69.0091C108.873 69.0207 108.866 69.0329 108.859 69.0442C108.505 69.6057 108.7 69.6451 108.088 70.7502C107.389 72.0095 106.75 72.2351 106.544 72.2067C106.371 72.1823 106.56 71.5734 106.768 70.8899C106.933 70.7656 107.696 70.1546 108.136 69.1429C108.524 68.2543 108.674 67.2245 108.927 66.575C108.952 66.5808 108.976 66.5871 109 66.5942C109.202 66.651 109.408 66.7109 109.587 66.823Z" fill="#060632"/>
<path d="M94.8558 70.3942C94.8803 70.9742 94.0685 71.1378 93.1347 71.2112C92.2009 71.2845 92.473 71.4685 91.1843 71.737C89.8962 72.0059 89.4019 71.6686 89.3179 71.4978C89.2433 71.3461 89.8488 71.0888 90.495 70.7982C90.5765 70.7621 90.6577 70.7248 90.7395 70.6874C91.4671 70.3523 91.899 69.6982 92.4834 69.0869C93.0374 68.5075 93.6269 66.6876 93.6269 66.6876L95.3806 66.2655C95.3806 66.2655 94.8125 67.9053 94.6089 68.6038C94.4891 69.015 94.6131 69.4668 94.7261 69.8105C94.787 69.9972 94.8484 70.1889 94.8563 70.3934L94.8558 70.3942Z" fill="#FC9290"/>
<path d="M93.1357 71.2117C92.2019 71.2851 92.474 71.469 91.1852 71.7375C89.8972 72.0065 89.4028 71.6691 89.3189 71.4984C89.2442 71.3466 89.8498 71.0893 90.496 70.7987L90.5052 70.8093C90.5052 70.8093 91.3878 71.0906 92.4378 70.7779C93.2936 70.5234 94.1357 69.9924 94.7259 69.8114C94.7867 69.9981 94.8482 70.1898 94.856 70.3943C94.8805 70.9743 94.0687 71.138 93.1349 71.2113L93.1357 71.2117Z" fill="#060632"/>
<path d="M98.7665 57.4516L101.43 61.1857L104.908 66.061C104.908 66.061 105.491 65.931 105.999 65.6003C106.466 65.2949 106.949 64.7356 106.949 64.7356C106.949 64.7356 104.886 58.9606 102.949 55.889C102.452 55.1002 101.964 54.4904 101.52 54.2018C99.3475 52.7883 98.7665 57.4516 98.7665 57.4516Z" fill="#060632"/>
<path d="M98.7249 50.1679C99.6957 49.4934 102.807 48.9511 105.97 48.5566L106.348 47.3275L112.744 44.7201C112.744 44.7201 116.059 48.7148 115.623 52.0834C115.559 52.5784 115.285 52.9714 114.701 53.1706C114.701 53.1706 114.606 53.2012 114.605 53.2014C114.605 53.2014 110.724 54.4532 109.464 54.8602C106.221 55.908 102.058 54.887 101.567 54.9463C100.763 55.0432 100.83 56.649 100.456 58.479C100.082 60.3084 94.9904 67.8136 94.9904 67.8136C94.9904 67.8136 94.0033 68.143 93.5569 68.1243C93.0772 68.1041 92.8643 67.9458 92.8643 67.9458C92.8643 67.9458 96.5363 51.6895 98.7249 50.1679Z" fill="#0B0754"/>
<path d="M104.195 38.4892C106.828 38.9956 112.185 40.0782 112.206 40.0535C112.206 40.0535 114.096 40.1349 114.919 39.1766C116.291 37.5789 116.455 34.4194 112.847 32.912C111.047 32.16 109.912 32.2025 109.262 30.2834C108.909 29.2424 106.546 26.1942 104.156 27.3189C103.956 27.4127 102.7 27.8816 101.972 28.5829C100.116 30.3694 100.593 39.1274 104.194 38.4886L104.195 38.4892Z" fill="#0B0754"/>
<path d="M105.877 36.7902C105.868 36.8002 107.117 36.8145 107.804 36.2297C108.451 35.6807 108.709 34.3305 108.698 34.3334C108.364 34.4251 107.932 34.2584 107.192 32.4886L107.063 32.5839L104.909 34.1821C104.909 34.1821 105.265 34.8717 105.552 35.5448C105.792 36.1101 105.984 36.664 105.876 36.7904L105.877 36.7902Z" fill="#FC9290"/>
<path d="M104.908 34.1828C104.908 34.1828 105.264 34.8724 105.551 35.5455C106.848 34.8669 107.05 33.3667 107.063 32.5846L104.908 34.1828Z" fill="#FA7D75"/>
<path d="M104.741 35.0352C104.741 35.0352 107.865 33.5646 107.075 31.6884C106.284 29.8124 106.155 28.359 104.126 29.2183C102.097 30.0777 102.014 30.9819 102.121 31.6847C102.228 32.3879 103.907 35.3688 104.741 35.0352Z" fill="#FC9290"/>
<path d="M101.968 30.5654C101.968 30.5654 104.471 31.6488 105.913 31.3353C107.355 31.0218 107.778 30.4058 107.778 30.4058C107.778 30.4058 106.78 29.9974 106.011 29.0664C105.783 28.792 105.418 28.6713 105.053 28.7568C104.027 28.9962 102.113 29.5724 101.968 30.5654Z" fill="#0B0754"/>
<path d="M103.224 29.9908C103.224 29.9908 102.695 30.8721 102.598 31.4304C102.505 31.9688 102.721 33.1149 102.999 33.5077C102.999 33.5077 101.41 31.7956 101.772 30.5975C102.156 29.3268 103.224 29.9908 103.224 29.9908Z" fill="#0B0754"/>
<path d="M104.316 42.3481C106.01 48.745 105.605 47.4246 106.472 47.8033C106.681 47.8948 107.187 47.8253 107.835 47.6605C109.873 47.1434 113.318 45.6792 113.361 45.2719C113.511 43.8621 113.088 43.5759 112.994 41.5217C112.984 41.3032 112.978 41.0655 112.977 40.8045C112.969 39.3754 113.171 38.8229 111.501 37.0629C109.987 35.4685 108.522 34.2506 108.44 34.3389C106.104 36.8153 105.552 35.5467 105.552 35.5467C105.552 35.5467 103.49 39.2291 104.316 42.3487L104.316 42.3481Z" fill="white"/>
<path d="M101.43 61.185L104.908 66.0603C104.908 66.0603 105.491 65.9303 105.999 65.5995C106.466 65.2942 106.949 64.7349 106.949 64.7349C106.949 64.7349 104.886 58.9599 102.949 55.8883L101.43 61.185Z" fill="#0B0754"/>
<path d="M105.551 35.5455C105.551 35.5455 102.857 36.9223 102.822 38.2178C102.788 39.5139 102.581 47.1335 102.581 47.1335C102.581 47.1335 104.072 46.924 104.571 46.0619C105.07 45.1998 105.374 39.3009 105.374 39.3009L105.552 35.5453L105.551 35.5455Z" fill="white"/>
<path d="M107.835 47.6605C109.873 47.1434 113.317 45.6792 113.361 45.2719C113.511 43.862 113.087 43.5758 112.994 41.5217L111.362 39.1575C111.362 39.1575 112.262 42.0865 111.562 43.1602C110.863 44.233 108.275 45.8576 108.003 46.6528C107.872 47.0347 107.812 47.3947 107.835 47.6613L107.835 47.6605Z" fill="#DFE9FD"/>
<path d="M109.822 45.6641C109.822 45.6641 107.736 45.8703 107.46 46.1458C107.183 46.4213 106.559 47.3019 106.516 47.5528C106.472 47.803 107.185 47.1573 107.431 47.0026C107.59 46.9025 108.076 46.9109 108.316 46.9119C109.326 46.9159 109.859 46.5736 109.859 46.5736L109.822 45.6635L109.822 45.6641Z" fill="#FC9290"/>
<path d="M108.441 34.3358C108.441 34.3358 111.138 33.6382 112.37 34.6015C114.105 35.9578 118.55 42.6911 117.329 44.1759C115.953 45.8475 109.86 46.9109 109.86 46.9109C109.86 46.9109 109.441 46.0742 109.604 45.5508C109.769 45.0272 114.023 42.8932 114.178 42.6265C114.332 42.3599 110.65 39.5342 110.501 38.9316C110.351 38.3291 108.441 34.3358 108.441 34.3358Z" fill="white"/>
<path d="M107.497 46.7183C107.497 46.7183 107.213 47.3779 107.092 47.4844C106.972 47.5907 106.88 47.6035 106.88 47.6035L107.037 47.0189L107.497 46.7177L107.497 46.7183Z" fill="#FC9290"/>
<path d="M107.459 46.146L106.397 47.111C106.397 47.111 106.469 47.1767 106.615 47.1221C106.762 47.0675 107.103 46.8121 107.103 46.8121L107.459 46.146Z" fill="#FC9290"/>
<path d="M107.294 48.2898L97.7605 51.3707L93.1523 45.2877L102.672 42.2115L107.294 48.2898Z" fill="#EE6D6B"/>
<path d="M97.5801 51.1335L110.17 47.065L110.238 47.3383L97.7598 51.3707L97.5801 51.1335Z" fill="#E75755"/>
<path d="M99.2953 47.0878C99.162 46.8648 99.2578 46.6178 99.5084 46.5368C99.759 46.4558 100.07 46.5713 100.204 46.7943C100.337 47.0173 100.241 47.2644 99.9904 47.3454C99.7398 47.4263 99.4285 47.3108 99.2953 47.0878Z" fill="white"/>
<path d="M21.3408 79.0401L21.1722 79.2438C20.9919 79.4617 20.6804 79.5046 20.4773 79.3405L18.8808 78.0473C18.6775 77.8826 18.6591 77.5719 18.8388 77.3542L19.0805 77.0619C19.1162 77.0193 19.1767 77.0107 19.2165 77.0433C19.2563 77.0759 19.2601 77.1363 19.2244 77.1789L18.9827 77.4712C18.8731 77.604 18.8843 77.7931 19.0082 77.8932L20.6047 79.1864C20.7286 79.2866 20.9182 79.2604 21.0278 79.1276L21.1965 78.9238C21.3061 78.7911 21.2948 78.602 21.171 78.5019L20.111 77.6439C20.0713 77.6119 20.0674 77.5509 20.103 77.5082C20.1387 77.4656 20.1993 77.457 20.239 77.4896L21.299 78.3476C21.5023 78.5122 21.5207 78.823 21.341 79.0407L21.3408 79.0401Z" fill="#97B6F4"/>
<path d="M23.0452 80.2732L22.7425 80.639C22.4616 80.9783 21.9571 81.031 21.6176 80.7565L19.2172 78.8126C19.1776 78.7807 19.1737 78.7196 19.2093 78.677C19.2443 78.6345 19.3055 78.6258 19.3453 78.6583L21.7457 80.6022C22.0053 80.813 22.3878 80.7769 22.5981 80.5228L22.9008 80.1569C23.111 79.9028 23.0706 79.5245 22.8112 79.3144L20.077 77.1001C19.8174 76.8894 19.4348 76.9254 19.2245 77.1796C19.1895 77.222 19.1283 77.2308 19.0885 77.1982C19.0488 77.1656 19.045 77.1052 19.0806 77.0625C19.3615 76.7232 19.866 76.6705 20.2055 76.945L22.9397 79.1593C23.2792 79.4338 23.3267 79.9337 23.0459 80.2736L23.0452 80.2732Z" fill="#97B6F4"/>
<path d="M28.7516 92.6334L28.8835 92.9736C29.0239 93.337 28.8346 93.7713 28.461 93.942L25.5234 95.2813C25.1497 95.4514 24.7312 95.2946 24.5902 94.9314L24.4012 94.4441C24.3736 94.3726 24.4107 94.2879 24.4836 94.2546C24.5572 94.2211 24.6387 94.2519 24.6662 94.3228L24.8552 94.8101C24.9412 95.0315 25.1953 95.1271 25.423 95.023L28.3606 93.6838C28.5883 93.5797 28.7038 93.3159 28.6178 93.0945L28.4858 92.7543C28.4004 92.5327 28.1457 92.4372 27.918 92.5413L25.9679 93.4304C25.8943 93.4639 25.8127 93.4332 25.7852 93.3622C25.7576 93.2907 25.7947 93.206 25.8682 93.1725L27.8183 92.2834C28.192 92.1134 28.6106 92.2701 28.7516 92.6334Z" fill="#97B6F4"/>
<path d="M31.6951 91.1171L31.9311 91.7274C32.1504 92.2944 31.8212 92.9868 31.1967 93.2716L26.7799 95.2855C26.707 95.3188 26.6248 95.2883 26.5973 95.2174C26.5696 95.1458 26.6067 95.0612 26.6802 95.0277L31.097 93.0138C31.575 92.7957 31.8302 92.2733 31.6661 91.8487L31.4301 91.2384C31.266 90.8139 30.7431 90.6461 30.2651 90.8641L25.2337 93.1577C24.7557 93.3758 24.5005 93.8982 24.6646 94.3228C24.6923 94.3943 24.6552 94.479 24.5816 94.5125C24.5087 94.5458 24.4265 94.5153 24.399 94.4443C24.1797 93.8773 24.509 93.1849 25.1335 92.9001L30.1648 90.6065C30.7893 90.3216 31.4755 90.5515 31.6947 91.1179L31.6951 91.1171Z" fill="#97B6F4"/>
<path d="M69.8856 33.8544C69.8291 33.6267 69.9708 33.3811 70.2031 33.306C70.4353 33.231 70.6688 33.3548 70.7254 33.583C70.7821 33.8113 70.6402 34.0564 70.408 34.1314C70.1757 34.2065 69.9423 34.0827 69.8856 33.8544Z" fill="#EE6D6B"/>
<path d="M138.929 63.6072L16.5974 103.139C16.5081 103.168 16.4169 103.119 16.3951 103.031C16.3734 102.944 16.4288 102.848 16.518 102.819L138.849 63.2876C138.938 63.2588 139.03 63.3072 139.051 63.3949C139.073 63.4826 139.018 63.5784 138.929 63.6072Z" fill="#010117"/>
</svg>
