<svg width="163" height="100" viewBox="0 0 163 100" fill="none" xmlns="http://www.w3.org/2000/svg">
<path d="M10.9189 91.8128L138.402 89.0333" stroke="#1A2743" stroke-width="0.59" stroke-linecap="round" stroke-linejoin="round"/>
<path d="M136.562 75.5451C136.562 75.5451 134.877 67.0843 131.31 67.1621C127.744 67.2398 134.555 74.7669 136.562 75.5451Z" fill="white"/>
<path d="M131.589 68.0939C131.589 68.0939 136.964 74.3461 137.387 78.51" stroke="#1A2743" stroke-width="0.59" stroke-linecap="round" stroke-linejoin="round"/>
<path d="M139.844 75.1354C139.844 75.1354 149.416 68.0606 148.713 65.9982C148.01 63.9357 141.107 70.7557 139.844 75.1354Z" fill="white"/>
<path d="M147.506 67.0534C147.506 67.0534 139.735 73.3022 137.69 79.1968" stroke="#1A2743" stroke-width="0.59" stroke-linecap="round" stroke-linejoin="round"/>
<path d="M141.871 68.1569C141.871 68.1569 158.413 56.0207 156.984 51.7627C155.556 47.5047 143.101 63.8536 141.871 68.1569Z" fill="white"/>
<path d="M138.723 69.6757C138.723 69.6757 146.303 53.8341 144.28 49.6218C142.257 45.4096 137.764 61.668 138.723 69.6757Z" fill="white"/>
<path d="M136.373 68.2563C136.373 68.2563 134.988 59.6578 131.062 58.5078C127.135 57.3554 120.439 69.4786 123.312 70.5456C126.185 71.6127 130.273 60.6557 131.317 61.3163C132.36 61.9769 136.373 68.2563 136.373 68.2563Z" fill="white"/>
<path d="M137.629 67.5584C137.629 67.5584 137.608 45.9948 134.239 46.8524C129.607 48.0301 137.629 67.5584 137.629 67.5584Z" fill="white"/>
<path d="M125.06 65.7345C125.06 65.7345 129.584 59.2993 131.242 59.8758C132.9 60.4524 135.616 64.7403 136.374 68.2565C137.132 71.7726 137.113 79.9806 137.113 79.9806" stroke="#1A2743" stroke-width="0.59" stroke-linecap="round" stroke-linejoin="round"/>
<path d="M134.13 49.5125C134.13 49.5125 136.931 57.7724 137.63 67.5584C138.328 77.3443 137.299 80.6044 137.299 80.6044" stroke="#1A2743" stroke-width="0.59" stroke-linecap="round" stroke-linejoin="round"/>
<path d="M143.115 51.0059C143.115 51.0059 139.948 63.3901 138.725 69.6752C137.501 75.9603 137.664 80.0417 137.664 80.0417" stroke="#1A2743" stroke-width="0.59" stroke-linecap="round" stroke-linejoin="round"/>
<path d="M154.889 53.7048C154.889 53.7048 144.39 63.7979 141.638 68.4546C138.375 73.9799 137.034 81.8586 137.034 81.8586" stroke="#1A2743" stroke-width="0.59" stroke-linecap="round" stroke-linejoin="round"/>
<path d="M137.023 80.0486L131.403 80.1711L131.799 89.593C131.841 90.5604 132.535 91.2563 133.44 91.2366L138.257 91.1316C139.162 91.1119 140.007 90.3824 140.253 89.4087L142.648 79.926L137.028 80.0485L137.023 80.0486Z" fill="#B5B4D8"/>
<path d="M142.881 77.7778L131.614 78.0234C131.326 78.0297 131.066 78.2883 131.033 78.6009L130.796 80.8402C130.763 81.1528 130.969 81.4012 131.257 81.3949L142.525 81.1493C142.812 81.143 143.072 80.8844 143.106 80.5718L143.342 78.3325C143.375 78.0199 143.169 77.7715 142.881 77.7778Z" fill="#A6A5D0"/>
<path d="M132.311 1.76724L53.6901 3.48139C52.2415 3.51298 50.9324 4.81495 50.7659 6.38943L46.247 49.1396C46.0806 50.7141 47.1199 51.9649 48.5685 51.9333L127.189 50.2191C128.637 50.1876 129.947 48.8856 130.113 47.3111L134.632 4.56091C134.798 2.98643 133.759 1.73566 132.311 1.76724Z" fill="#E1F0F7"/>
<path d="M84.4711 21.5735L82.2646 21.6216L81.7823 26.1835L83.9889 26.1354L84.4711 21.5735Z" fill="#CFCFE7"/>
<path d="M87.9555 22.5185L85.7489 22.5667L85.3749 26.105L87.5815 26.0568L87.9555 22.5185Z" fill="#B5B4D8"/>
<path d="M91.8285 19.3776L89.622 19.4257L88.9239 26.0296L91.1305 25.9815L91.8285 19.3776Z" fill="#CFCFE7"/>
<path d="M80.3433 22.4803C80.3433 22.4803 81.8959 20.0384 83.6817 19.8885C84.9761 19.7796 85.6055 20.782 86.4588 20.7861C88.3804 20.7997 89.4123 16.9193 92.3309 16.5657" stroke="#A6A5D0" stroke-width="1.19" stroke-linecap="round" stroke-linejoin="round"/>
<path d="M79.5497 16.8441L78.4205 27.5272L93.427 27.2001" stroke="#A6A5D0" stroke-width="1.19" stroke-linecap="round" stroke-linejoin="round"/>
<path d="M58.0367 33.2875L53.0888 33.3954L51.9117 44.5309L56.8596 44.423L58.0367 33.2875Z" fill="#CFCFE7"/>
<path d="M65.5855 26.9776L60.6376 27.0855L58.8095 44.3801L63.7574 44.2723L65.5855 26.9776Z" fill="#A6A5D0"/>
<path d="M72.0211 31.2144L67.0732 31.3223L65.7085 44.232L70.6565 44.1241L72.0211 31.2144Z" fill="#E4E4F1"/>
<path d="M73.7088 9.69781L56.133 10.081C55.8958 10.0862 55.725 9.88063 55.7522 9.62284C55.7795 9.36505 55.9947 9.15107 56.2318 9.1459L73.8077 8.76269C74.0448 8.75752 74.2156 8.96309 74.1884 9.22088C74.1611 9.47867 73.946 9.69264 73.7088 9.69781Z" fill="#CFCFE7"/>
<path d="M68.7413 10.4943L56.0599 10.7708C55.8224 10.776 55.6077 10.9895 55.5804 11.2477C55.5531 11.5059 55.7235 11.7111 55.9611 11.7059L68.6425 11.4294C68.8801 11.4242 69.0948 11.2107 69.1221 10.9525C69.1494 10.6942 68.9789 10.4891 68.7413 10.4943Z" fill="#CFCFE7"/>
<path d="M71.7309 12.9834L55.7873 13.331C55.5501 13.3362 55.3793 13.1306 55.4065 12.8728C55.4338 12.615 55.649 12.4011 55.8861 12.3959L71.8297 12.0483C72.0669 12.0431 72.2377 12.2487 72.2104 12.5065C72.1832 12.7643 71.968 12.9782 71.7309 12.9834Z" fill="#CFCFE7"/>
<path d="M74.102 14.553L55.6193 14.956C55.3821 14.9612 55.2113 14.7556 55.2386 14.4978C55.2658 14.24 55.481 14.0261 55.7181 14.0209L74.2008 13.6179C74.438 13.6128 74.6088 13.8183 74.5815 14.0761C74.5543 14.3339 74.3391 14.5479 74.102 14.553Z" fill="#CFCFE7"/>
<path d="M73.0213 16.1981L55.4455 16.5813C55.2083 16.5864 55.0375 16.3809 55.0647 16.1231C55.092 15.8653 55.3072 15.6513 55.5443 15.6461L73.1202 15.2629C73.3573 15.2578 73.5281 15.4633 73.5009 15.7211C73.4736 15.9789 73.2585 16.1929 73.0213 16.1981Z" fill="#CFCFE7"/>
<path d="M109.862 26.227L96.0126 37.132C94.2379 34.2357 93.3882 30.5778 93.8111 26.577C94.6197 18.9267 99.8388 12.325 106.391 9.83713L109.864 26.227L109.862 26.227Z" fill="#A6A5D0"/>
<path d="M122.805 13.2441L111.72 27.4324L108.247 11.0425C109.948 10.3927 111.739 10.0233 113.564 9.98353C117.168 9.90496 120.359 11.1264 122.805 13.2441Z" fill="#B5B4D8"/>
<path d="M127.769 27.0823C127.608 28.6088 127.273 30.0937 126.781 31.514L111.717 27.4323L122.802 13.244C126.376 16.3432 128.371 21.3655 127.767 27.0823L127.769 27.0823Z" fill="#C4C3E0"/>
<path d="M126.78 31.5143C124.185 39.0472 117.329 44.7189 109.87 44.8815C107.919 44.924 106.092 44.5856 104.436 43.9308L111.715 27.4326L126.78 31.5143Z" fill="#D3D3E8"/>
<path d="M111.719 27.4321L104.44 43.9303C101.695 42.8429 99.4241 40.8852 97.8677 38.3371L111.717 27.4321L111.719 27.4321Z" fill="#E4E4F1"/>
<path d="M63.9931 65.6141L66.9879 65.5488L63.774 95.9529C63.7425 96.2511 63.4962 96.4961 63.2218 96.502L61.2176 96.5457C60.9432 96.5517 60.7477 96.3164 60.7792 96.0182L63.9931 65.6141Z" fill="#2F2F75"/>
<path d="M113.36 64.5377L116.355 64.4724L113.139 94.9018C113.109 95.1848 112.873 95.4194 112.612 95.4251L110.561 95.4698C110.301 95.4755 110.114 95.2501 110.144 94.9671L113.36 64.5377Z" fill="#2F2F75"/>
<path d="M123.063 60.6477L58.0606 62.0649C57.2747 62.0821 56.5644 62.7884 56.4741 63.6427L56.2246 66.0032C56.1343 66.8575 56.6982 67.5361 57.4841 67.519L122.486 66.1017C123.272 66.0846 123.982 65.3782 124.073 64.524L124.322 62.1634C124.412 61.3092 123.849 60.6306 123.063 60.6477Z" fill="#141F33"/>
<path d="M61.9872 53.8346L75.4196 53.5417L77.473 60.4513L63.7195 60.6655L61.9872 53.8346Z" fill="#232052"/>
<path d="M64.0346 60.2355L62.5146 54.2498L75.1169 53.975L76.919 60.0353L64.0346 60.2355Z" fill="white"/>
<path d="M64.1601 60.0636L62.7274 54.4138L74.9973 54.1463L76.6983 59.8684L64.1601 60.0636Z" fill="#A6A5D0"/>
<path d="M69.6876 60.1474L70.9517 60.1274L74.212 53.9946L73.4331 54.0115L69.6876 60.1474Z" fill="white"/>
<path d="M67.2556 60.185L68.7194 60.1631L72.5806 54.0298L70.7809 54.069L67.2556 60.185Z" fill="white"/>
<path d="M82.9208 60.2469L63.7196 60.6655L63.5941 61.8534L82.7952 61.4347L82.9208 60.2469Z" fill="#232052"/>
<path d="M77.0006 90.3723L76.5324 95.5037C76.4954 95.8979 76.7596 96.2073 77.1224 96.1994L82.8748 96.074C83.2422 96.066 83.574 95.736 83.6162 95.3367L83.6886 94.6517C83.714 94.4117 83.6285 94.1891 83.4589 94.0592L80.8841 92.0829L81.0534 90.4806L77.0055 90.3697L77.0006 90.3723Z" fill="#141F33"/>
<path d="M77.12 96.1993C76.7572 96.2072 76.4953 95.8977 76.53 95.5036L76.6278 94.4247L83.6173 94.2724C83.6727 94.3846 83.6983 94.5152 83.6836 94.6542L83.6112 95.3391C83.569 95.7384 83.2372 96.0684 82.8698 96.0764L77.1174 96.2018L77.12 96.1993Z" fill="#141F33"/>
<path d="M78.0735 74.6952L76.7826 90.9671L81.1586 90.7178L84.6531 74.4257L78.0735 74.6952Z" fill="#232052"/>
<path d="M73.3801 90.4513L72.7631 95.586C72.7168 95.9804 72.3858 96.3028 72.023 96.3107L66.2706 96.4361C65.9032 96.4441 65.6398 96.1271 65.682 95.7278L65.7544 95.0429C65.7798 94.8028 65.9129 94.5755 66.1107 94.4375L69.1162 92.3396L69.2856 90.7373L73.3757 90.4489L73.3801 90.4513Z" fill="#141F33"/>
<path d="M72.0237 96.3106C72.3864 96.3027 72.7151 95.9803 72.7638 95.5859L72.8941 94.5064L65.9047 94.6587C65.8253 94.7739 65.7718 94.9062 65.7572 95.0452L65.6848 95.7301C65.6425 96.1295 65.906 96.4465 66.2733 96.4385L72.0258 96.3131L72.0237 96.3106Z" fill="#141F33"/>
<path d="M80.0237 67.4515L70.5546 72.3203C69.8432 72.6863 69.3618 73.4658 69.3507 74.273L69.0924 91.2888L73.8913 90.9447L75.4425 76.9063C75.4786 76.5651 75.757 76.2791 76.0705 76.2546L85.821 75.4823C87.5988 75.3426 89.2231 73.9128 89.7595 72.0201L90.8324 68.2346L80.0211 67.4541L80.0237 67.4515Z" fill="#2F2F75"/>
<path d="M85.8229 75.482C87.6007 75.3424 89.225 73.9126 89.7614 72.0198L90.8343 68.2343L80.023 67.4538L79.9102 67.5118C79.1981 67.9282 78.7603 68.1849 78.7603 68.1849C78.7603 68.1849 81.7897 70.426 80.1732 75.9305L85.8227 75.4845L85.8229 75.482Z" fill="#232052"/>
<path d="M88.704 48.2649L91.2681 53.5471C91.7252 54.4902 91.666 55.6867 91.1093 56.7176L89.5061 59.6825L88.704 48.2649Z" fill="#CA9636"/>
<path d="M69.5106 54.6643C69.5106 54.6643 69.1831 53.8999 69.2437 53.3261C69.3044 52.7524 70.6188 50.0837 70.3067 50.0073C69.9947 49.9309 69.508 50.8922 69.0739 51.0479C68.6402 51.201 67.9415 51.4684 67.9834 51.0716C68.0254 50.6748 69.4315 49.7062 69.2401 49.4759C69.0487 49.2455 67.3128 50.1306 66.6139 51.1015C65.9151 52.0724 65.5962 54.1016 65.8136 54.7449C66.0286 55.3883 67.3325 56.9005 67.3325 56.9005L69.5106 54.6643Z" fill="#E3ACCB"/>
<path d="M66.1533 52.0216C65.7873 53.0256 65.6538 54.2665 65.8144 54.7447C66.0294 55.388 67.3333 56.9002 67.3333 56.9002L68.1557 56.0552C66.519 55.5841 66.2105 52.9281 66.1533 52.0216Z" fill="#D986B3"/>
<path d="M76.9439 50.1652L73.0182 57.8078L69.5027 54.1526C69.5027 54.1526 67.0788 55.7083 66.8173 56.9092L70.1628 63.0947C70.768 64.2162 72.0195 64.7109 73.2874 64.3252C73.7405 64.1867 74.1372 64.0545 74.321 63.9622C74.8867 63.6801 78.361 57.3661 78.361 57.3661L76.9465 50.1626L76.9439 50.1652Z" fill="#EEBF31"/>
<path d="M74.113 61.3545C71.9225 63.533 68.0216 58.5422 66.8241 56.8789C66.823 56.889 66.8173 56.8992 66.8136 56.9119L70.1591 63.0974C70.7644 64.2189 72.0158 64.7135 73.2837 64.3278C73.7368 64.1894 74.1336 64.0572 74.3173 63.9649C74.883 63.6828 78.3574 57.3687 78.3574 57.3687L77.4662 52.8293C76.9771 55.306 75.9124 59.5628 74.1156 61.352L74.113 61.3545Z" fill="#CA9636"/>
<path d="M85.3774 47.5533C85.3774 47.5533 85.103 46.813 85.0355 45.7403C84.9679 44.6676 86.1639 39.7396 84.7559 38.7289C83.3479 37.7182 79.3108 37.3952 78.7822 39.719C78.2535 42.0428 77.7134 45.6603 78.2487 46.3018C78.7818 46.9432 81.1866 47.5212 81.1866 47.5212L85.3774 47.5533Z" fill="#E3ACCB"/>
<path d="M85.0332 45.7426C84.9852 44.9897 85.5597 42.3422 85.4205 40.4767C84.0359 39.2008 82.4619 38.8165 81.5283 40.67C81.5283 40.67 81.2819 45.2394 81.2765 47.1558C81.2771 47.2819 81.2966 47.405 81.3305 47.5228L85.3754 47.5531C85.3754 47.5531 85.101 46.8127 85.0335 45.74L85.0332 45.7426Z" fill="#D986B3"/>
<path d="M81.188 47.5207L80.6093 49.374L86.0286 48.4061L85.3981 46.975L81.188 47.5207Z" fill="#CA9636"/>
<path d="M88.7045 48.2648L84.0602 48.0459C83.4946 48.0204 82.9149 48.1061 82.3492 48.3L76.9441 50.1653L78.7652 68.1823L91.3169 68.5844L88.7068 48.2648L88.7045 48.2648Z" fill="#EEBF31"/>
<path d="M77.4618 55.2953L78.7627 68.1822L80.9914 68.2546L77.4618 55.2953Z" fill="#CA9636"/>
<path d="M82.6087 68.3052L91.3132 68.5844L88.7032 48.2648L84.9058 48.0879C86.8466 49.5887 87.9135 52.7073 86.2978 58.8623C85.2647 62.7982 83.9687 65.8851 82.6061 68.3077L82.6087 68.3052Z" fill="#CA9636"/>
<path d="M81.9678 34.4147C79.3679 34.958 77.8434 36.1688 77.3142 38.0589C76.785 39.949 78.7426 39.4903 79.2345 40.0822C79.7264 40.6741 80.2245 41.5357 79.9834 43.0488C79.7422 44.562 80.5256 46.1713 82.4392 46.1295C84.3528 46.0878 85.3979 45.8129 85.9475 44.8931C86.4947 43.9735 88.8493 39.7162 88.6588 38.6437C88.4683 37.5711 87.6433 36.7293 86.0726 37.1039C86.0726 37.1039 86.0646 33.5588 81.9701 34.4146L81.9678 34.4147Z" fill="#1A2743"/>
<path d="M111.657 76.8141L110.238 91.0261C110.238 91.0261 108.448 91.8342 106.989 92.2896L106.759 77.1705L111.657 76.8115L111.657 76.8141Z" fill="#E3ACCB"/>
<path d="M109.335 76.9856L106.758 77.1755L106.988 92.2946C107.499 92.1347 108.05 91.931 108.55 91.736L109.334 76.9882L109.335 76.9856Z" fill="#D986B3"/>
<path d="M110.32 90.1896L110.236 95.2018L109.231 95.2237C109.231 95.2237 109.204 94.3644 108.909 94.2775C108.614 94.1881 106.767 95.1639 106.323 95.1736C105.879 95.1833 102.565 95.369 102.425 95.2031C102.39 95.161 102.379 95.0907 102.38 95.0099C102.385 94.682 102.637 94.3815 102.94 94.2967L106.99 92.2896C106.99 92.2896 107.989 90.775 110.323 90.1871L110.32 90.1896Z" fill="#141F33"/>
<path d="M107.04 90.0624L107.324 90.8429L107.417 95.2081L106.349 95.2869C106.349 95.2869 106.321 94.4277 106.026 94.3408C105.732 94.2514 103.884 95.2272 103.44 95.2369C102.996 95.2465 99.6825 95.4323 99.5423 95.2664C99.5073 95.2243 99.4962 95.1539 99.4977 95.0732C99.5022 94.7453 99.7544 94.4448 100.058 94.36L104.107 92.3528C104.107 92.3528 104.71 90.6477 107.04 90.0598L107.04 90.0624Z" fill="#141F33"/>
<path d="M101.831 77.0287L104.103 92.3554C104.103 92.3554 104.319 92.7996 105.219 91.6982C106.119 90.5994 107.321 90.843 107.321 90.843L106.754 77.1735L101.831 77.0287Z" fill="#E3ACCB"/>
<path d="M103.555 77.1118L103.512 77.0799L101.835 77.0308L104.107 92.3575C104.107 92.3575 104.308 92.7641 105.125 91.8159C104.597 86.9331 103.534 77.0895 103.555 77.1118Z" fill="#D986B3"/>
<path d="M112.583 66.7408C112.583 66.7408 103.056 72.2538 102.17 73.3877C101.789 73.8776 101.517 74.8947 101.332 75.8947C101.072 77.2998 101.944 78.4911 103.237 78.4856C106.987 78.472 114.216 78.4026 115.122 78.0979C116.354 77.6853 116.435 75.7318 116.578 75.5875C116.72 75.4457 120.821 75.4521 121.393 74.958C121.965 74.464 124.666 69.1452 123.944 67.0226C123.219 64.9002 112.581 66.7409 112.581 66.7409L112.583 66.7408Z" fill="#2F2F75"/>
<path d="M117.015 66.1651C116.159 66.2443 115.344 66.3402 114.65 66.4335C114.65 66.4335 112.62 73.2607 108.324 76.002C107.222 76.7043 106.79 77.566 106.754 78.4594C110.363 78.4185 114.458 78.3217 115.125 78.0979C116.356 77.6852 116.437 75.7318 116.58 75.5875C116.723 75.4457 120.823 75.4521 121.395 74.958C121.75 74.6527 122.917 72.5016 123.586 70.4017C122.733 69.5882 119.591 66.8125 117.015 66.1651Z" fill="#232052"/>
<path d="M109.814 49.7077C108.944 50.4378 108.517 59.7162 109.942 60.8148C111.366 61.9134 111.236 63.4014 111.004 65.6002C110.771 67.799 112.028 68.7903 113.191 69.0726C114.354 69.3549 124.622 70.9641 125.253 67.8111C125.881 64.6581 123.925 63.2988 123.12 57.1335C122.314 50.9708 122.633 47.4715 121.099 46.7737C119.566 46.0734 113.271 46.8108 109.814 49.7077Z" fill="#B1CFEB"/>
<path d="M125.252 67.8138C125.88 64.6608 123.924 63.3015 123.119 57.1362C122.313 50.9735 122.632 47.4743 121.098 46.7765C120.585 46.5431 119.535 46.4701 118.24 46.5841C119.451 49.2381 122.307 57.7717 115.998 69.5007C119.453 69.8868 124.805 70.0601 125.254 67.8112L125.252 67.8138Z" fill="#83B1D3"/>
<path d="M110.764 51.714C110.576 51.7559 109.9 52.7692 109.046 54.1848C108.927 56.9989 109.143 60.1965 109.943 60.8145C110.211 61.0204 110.424 61.2427 110.592 61.4786C111.041 60.6796 111.478 59.8102 111.912 58.9132C113.482 55.6716 111.386 51.5744 110.766 51.714L110.764 51.714Z" fill="#83B1D3"/>
<path d="M104.062 56.8052C104.062 56.8052 104.597 55.5454 105.455 55.3476C106.313 55.1499 107.069 55.5545 107.069 55.5545L106.131 57.2215L104.06 56.8052L104.062 56.8052Z" fill="#E3ACCB"/>
<path d="M104.697 56.4532C104.223 56.4156 103.753 56.7789 103.606 57.294C103.188 58.763 102.506 61.597 103.263 62.1857C104.296 62.9851 108.19 57.6 107.407 57.0396C106.9 56.6775 105.574 56.5198 104.697 56.4532Z" fill="#83B1D3"/>
<path d="M110.964 56.9069C109.394 60.1485 107.793 63.0731 105.72 63.4158C103.647 63.7586 103.002 62.5245 103.102 61.5792C103.202 60.634 109.195 49.8474 109.815 49.7078C110.436 49.5682 112.533 53.6653 110.961 56.907L110.964 56.9069Z" fill="#B1CFEB"/>
<path d="M111.901 38.3785C111.901 38.3785 110.847 45.1037 111.301 45.6511C111.756 46.1984 113.794 46.4768 113.794 46.4768C113.794 46.4768 115.33 40.6337 114.801 39.5382C114.272 38.4428 111.901 38.3785 111.901 38.3785Z" fill="#E3ACCB"/>
<path d="M111.968 46.045C112.731 46.3309 113.792 46.4767 113.792 46.4767C113.792 46.4767 113.877 46.1496 114.001 45.6375L113.416 38.8598L111.968 46.045Z" fill="#D986B3"/>
<path d="M119.142 35.9309C119.142 35.9309 118.454 32.6931 115.293 33.2134C112.131 33.7337 109.561 36.1877 110.09 38.1228C110.619 40.0579 112.141 38.6227 112.585 39.9545C113.027 41.2863 112.329 46.9876 112.536 48.9801C112.743 50.9726 114.231 55.2394 118.546 53.3928C122.861 51.5463 123.075 47.0407 122.389 44.6451C121.703 42.2495 121.932 40.5903 121.841 38.1591C121.75 35.7278 119.142 35.9283 119.142 35.9283L119.142 35.9309Z" fill="#1A2743"/>
<path d="M107.82 76.6008L106.88 75.9456C106.88 75.9456 107.503 74.6208 110.783 74.461C112.924 74.3563 114.614 73.4723 115.405 71.0066C116.195 68.541 122.239 52.1352 122.239 52.1352C122.239 52.1352 123.389 50.3703 126.372 50.3229L117.824 76.1734L107.822 76.6008L107.82 76.6008Z" fill="#749ECD"/>
<path d="M128.405 75.2438L129.01 95.0675" stroke="#1A2743" stroke-width="3.57" stroke-linecap="round" stroke-linejoin="round"/>
<path d="M117.931 75.4724L118.535 95.2961" stroke="#1A2743" stroke-width="3.57" stroke-linecap="round" stroke-linejoin="round"/>
<path d="M109.356 75.6597L104.206 95.6089" stroke="#1A2743" stroke-width="3.57" stroke-linecap="round" stroke-linejoin="round"/>
<path d="M119.828 75.4316L114.678 95.3808" stroke="#1A2743" stroke-width="3.57" stroke-linecap="round" stroke-linejoin="round"/>
<path d="M125.291 51.1637L117.064 74.3899C116.893 74.8752 116.455 75.2201 115.994 75.2302L107.819 75.4084C107.256 75.4207 106.746 75.926 106.681 76.5402C106.616 77.1518 107.02 77.6397 107.585 77.6274L130.629 77.125C131.192 77.1127 131.702 76.6074 131.767 75.9932L131.869 75.0303C131.879 74.9317 131.901 74.8354 131.934 74.7414L140.107 51.4963C140.356 50.7899 139.943 50.1105 139.276 50.12L126.368 50.3258C125.906 50.3333 125.465 50.6783 125.291 51.1662L125.291 51.1637Z" fill="#3574AB"/>
<path d="M76.0171 77.2941L75.0773 76.6388C75.0773 76.6388 75.6998 75.314 78.9807 75.1542C81.1213 75.0496 82.8108 74.1655 83.6027 71.6998C84.3922 69.2342 90.4366 52.8285 90.4366 52.8285C90.4366 52.8285 91.5858 51.0636 94.5695 51.0162L86.0212 76.8667L76.0195 77.294L76.0171 77.2941Z" fill="#749ECD"/>
<path d="M96.5985 75.9382L97.2033 95.7619" stroke="#1A2743" stroke-width="3.57" stroke-linecap="round" stroke-linejoin="round"/>
<path d="M86.1259 76.1664L86.7307 95.9901" stroke="#1A2743" stroke-width="3.57" stroke-linecap="round" stroke-linejoin="round"/>
<path d="M77.5511 76.3537L72.4011 96.3029" stroke="#1A2743" stroke-width="3.57" stroke-linecap="round" stroke-linejoin="round"/>
<path d="M88.0238 76.1251L82.8738 96.0742" stroke="#1A2743" stroke-width="3.57" stroke-linecap="round" stroke-linejoin="round"/>
<path d="M93.4885 51.8571L85.2617 75.0832C85.0898 75.5686 84.652 75.9135 84.1916 75.9235L76.0164 76.1018C75.4537 76.114 74.9433 76.6194 74.8783 77.2335C74.8137 77.8452 75.2168 78.3331 75.7818 78.3208L98.8264 77.8183C99.3891 77.8061 99.8995 77.3007 99.9644 76.6866L100.066 75.7237C100.077 75.6251 100.098 75.5288 100.132 75.4348L108.305 52.1896C108.553 51.4832 108.14 50.8039 107.474 50.8134L94.5653 51.0191C94.1028 51.0267 93.6627 51.3717 93.4882 51.8596L93.4885 51.8571Z" fill="#3574AB"/>
<path d="M16.8261 78.1556C16.8261 78.1556 15.1408 69.6948 11.574 69.7726C8.00722 69.8503 14.8182 77.3774 16.8261 78.1556Z" fill="white"/>
<path d="M11.8505 70.7048C11.8505 70.7048 17.2257 76.957 17.6485 81.1209" stroke="#1A2743" stroke-width="0.59" stroke-linecap="round" stroke-linejoin="round"/>
<path d="M20.1075 77.7459C20.1075 77.7459 29.6799 70.671 28.9769 68.6086C28.274 66.5462 21.3708 73.3662 20.1075 77.7459Z" fill="white"/>
<path d="M27.7676 69.6641C27.7676 69.6641 19.9969 75.913 17.9518 81.8075" stroke="#1A2743" stroke-width="0.59" stroke-linecap="round" stroke-linejoin="round"/>
<path d="M22.1346 70.7682C22.1346 70.7682 38.6771 58.632 37.2481 54.374C35.8192 50.1161 23.3643 66.4649 22.1346 70.7682Z" fill="white"/>
<path d="M18.9862 72.2865C18.9862 72.2865 26.567 56.4449 24.544 52.2327C22.5209 48.0204 18.0279 64.2789 18.9862 72.2865Z" fill="white"/>
<path d="M16.6371 70.8672C16.6371 70.8672 15.2517 62.2688 11.3252 61.1188C7.39901 59.9663 0.70312 72.0896 3.57591 73.1566C6.4487 74.2236 10.5368 63.2667 11.5805 63.9273C12.6242 64.5879 16.6371 70.8672 16.6371 70.8672Z" fill="white"/>
<path d="M17.8912 70.1696C17.8912 70.1696 17.8693 48.606 14.5008 49.4636C9.86894 50.6413 17.8912 70.1696 17.8912 70.1696Z" fill="white"/>
<path d="M5.32166 68.3458C5.32166 68.3458 9.8458 61.9106 11.5038 62.4872C13.1618 63.0637 15.8774 67.3517 16.6355 70.8678C17.3936 74.3839 17.375 82.5919 17.375 82.5919" stroke="#1A2743" stroke-width="0.59" stroke-linecap="round" stroke-linejoin="round"/>
<path d="M14.3896 52.1237C14.3896 52.1237 17.191 60.3836 17.8895 70.1696C18.5879 79.9555 17.559 83.2156 17.559 83.2156" stroke="#1A2743" stroke-width="0.59" stroke-linecap="round" stroke-linejoin="round"/>
<path d="M23.3769 53.6172C23.3769 53.6172 20.2097 66.0014 18.9862 72.2865C17.7628 78.5717 17.9252 82.653 17.9252 82.653" stroke="#1A2743" stroke-width="0.59" stroke-linecap="round" stroke-linejoin="round"/>
<path d="M35.1508 56.3161C35.1508 56.3161 24.6516 66.4092 21.8998 71.066C18.6364 76.5912 17.2956 84.4699 17.2956 84.4699" stroke="#1A2743" stroke-width="0.59" stroke-linecap="round" stroke-linejoin="round"/>
<path d="M17.2868 82.6595L11.6669 82.782L12.0628 92.2039C12.1044 93.1712 12.7987 93.8672 13.7032 93.8475L18.5209 93.7424C19.4254 93.7227 20.2704 92.9932 20.5171 92.0196L22.9114 82.5368L17.2915 82.6594L17.2868 82.6595Z" fill="#B5B4D8"/>
<path d="M23.1449 80.3889L11.8772 80.6345C11.5895 80.6408 11.3296 80.8993 11.2965 81.212L11.0598 83.4512C11.0268 83.7639 11.2332 84.0123 11.5208 84.006L22.7885 83.7604C23.0762 83.7541 23.3361 83.4955 23.3692 83.1829L23.6059 80.9436C23.6389 80.631 23.4325 80.3826 23.1449 80.3889Z" fill="#A6A5D0"/>
<path d="M29.4225 91.6922L29.0763 93.6287L32.9173 93.371L33.3633 91.3894L29.4225 91.6922Z" fill="#D986B3"/>
<path d="M28.9065 93.0951L33.1406 93.0028L34.0371 94.4407L38.6135 95.763C38.886 95.8403 39.0496 96.1141 39.0162 96.43L38.9943 96.6373C38.9676 96.89 38.7579 97.0963 38.5257 97.0988L28.7528 97.1606C28.2583 97.1638 27.9402 96.6841 28.0844 96.154L28.9065 93.0951Z" fill="#29265B"/>
<path d="M34.495 53.3071L29.3237 92.0901L33.8531 91.9913L41.8248 57.0456L34.495 53.3071Z" fill="#141F33"/>
<path d="M23.9221 91.8119L23.5782 93.7483L27.4192 93.4906L27.8653 91.509L23.9221 91.8119Z" fill="#D986B3"/>
<path d="M28.1526 55.0894L23.5833 92.2152L28.1127 92.1164L36.5044 53.4826L28.1526 55.0894Z" fill="#1A2743"/>
<path d="M34.4328 34.3313C34.4946 34.1863 36.3773 32.2642 37.8886 32.2312C39.4 32.1983 40.95 33.2916 41.0874 34.3401C41.2245 35.3911 39.4219 42.2612 38.0001 43.2907C36.5783 44.3203 34.4328 34.3313 34.4328 34.3313Z" fill="#D7AEC8"/>
<path d="M38.2843 35.1829L36.7609 39.1043L37.2771 44.3605L39.7659 39.2279L38.6997 35.0276L38.2843 35.1829Z" fill="#1A2743"/>
<path d="M37.2221 34.6921L38.0776 35.6846C38.2739 35.9123 38.6498 35.8234 38.801 35.5125L39.7187 33.6341L39.4268 32.9722L37.1925 33.4799L37.2244 34.692L37.2221 34.6921Z" fill="#1D1B4A"/>
<path d="M35.9458 29.8455L35.5072 32.2833L38.1805 34.4036L39.9436 32.6253L40.2709 29.5293L35.9458 29.8455Z" fill="#E3ACCB"/>
<path d="M40.1492 30.6695C39.916 30.5056 39.3542 30.1144 38.6777 29.645L35.947 29.8458L35.5063 32.2811L36.478 33.0517C36.508 33.0535 36.5315 33.0505 36.538 33.0327C36.652 32.7882 39.4842 31.1883 40.1329 30.8236L40.1495 30.667L40.1492 30.6695Z" fill="#D986B3"/>
<path d="M35.591 31.8125L38.3902 33.8393L36.459 36.2416L35.0211 32.9243L35.591 31.8125Z" fill="#EFD7E6"/>
<path d="M40.0519 31.6066L38.3893 33.8391L40.546 34.9873L40.7479 33.0767L40.363 32.3286L40.0519 31.6066Z" fill="#EFD7E6"/>
<path d="M53.7515 48.4118C53.7515 48.4118 56.9314 47.9996 56.7393 48.3467C56.5449 48.6938 55.2545 49.0725 55.3659 49.2037C55.477 49.3374 56.2682 50.3893 57.0983 50.3712C57.9284 50.3531 59.1779 50.2729 59.0275 50.5989C58.877 50.925 57.091 51.3623 57.091 51.3623C57.091 51.3623 58.3376 51.1561 58.169 51.5002C58.0002 51.8468 57.0638 52.19 56.4191 52.2318C56.4191 52.2318 57.683 52.2572 57.3046 52.6336C56.9261 53.01 55.5119 52.6726 55.5119 52.6726C55.5119 52.6726 56.2075 52.9828 55.7323 53.2427C55.2568 53.5053 52.6476 52.6443 52.1685 51.1418C51.6893 49.6394 53.752 48.4068 53.752 48.4068L53.7515 48.4118Z" fill="#E3ACCB"/>
<path d="M55.5836 53.2838C54.6525 52.1947 52.885 50.1302 52.4556 49.6277C52.166 50.0627 51.9901 50.586 52.17 51.1444C52.6126 52.5316 54.8669 53.3701 55.5836 53.2838Z" fill="#D986B3"/>
<path d="M44.5244 35.1706L47.7123 44.5367L54.2754 47.8027L52.0971 52.1922C52.0971 52.1922 46.0532 50.0496 45.2032 49.0267C44.3533 48.0039 42.6132 45.9868 42.6132 45.9868L44.5291 35.1705L44.5244 35.1706Z" fill="#2F2F75"/>
<path d="M40.3617 32.329L44.5222 35.1708C44.5222 35.1708 41.8993 53.4007 43.2173 60.2229C43.2173 60.2229 37.7521 61.449 36.4549 59.3466C35.1574 57.2468 36.1429 52.2906 36.1429 52.2906L37.4024 42.7242C37.4024 42.7242 40.6373 37.7972 40.3645 32.3239L40.3617 32.329Z" fill="#2F2F75"/>
<path d="M18.6396 53.2997C18.6396 53.2997 14.5869 54.5076 14.7634 54.9223C14.9397 55.3396 16.7823 54.8279 16.5075 55.1012C16.2328 55.3744 13.272 58.1244 13.4819 58.377C13.6918 58.6297 15.1668 57.4704 15.1668 57.4704C15.1668 57.4704 13.4802 59.3151 13.8113 59.4743C14.1425 59.6335 15.7997 58.2206 15.7997 58.2206C15.7997 58.2206 14.2609 59.8074 14.403 59.9783C14.547 60.1517 17.1893 58.0441 17.1543 58.3751C17.1193 58.7062 16.4369 59.7852 16.8857 59.7754C17.3345 59.7656 20.1692 55.9694 20.1692 55.9694L18.6396 53.2997Z" fill="#E3ACCB"/>
<path d="M17.2551 59.5154C18.1576 58.6586 20.1678 55.9697 20.1678 55.9697L19.3117 54.4779L17.2549 59.5179L17.2551 59.5154Z" fill="#D986B3"/>
<path d="M30.4499 37.0607L29.437 35.8674C29.437 35.8674 25.4758 45.4045 24.3492 47.1084C23.2226 48.8123 18.0454 53.0428 18.0454 53.0428C18.0454 53.0428 18.7963 55.9464 19.8783 56.6616C20.5027 57.0741 24.182 54.1546 26.91 51.2584C28.9011 49.1448 30.2073 46.0275 30.2073 46.0275L30.4496 37.0632L30.4499 37.0607Z" fill="#2F2F75"/>
<path d="M35.1516 32.6113C35.1516 32.6113 37.655 37.3704 37.63 42.9838C37.0102 48.8473 35.8493 58.0081 34.2835 59.5652C32.7178 61.1224 25.8382 60.2133 25.8382 60.2133C25.8382 60.2133 29.4901 48.9936 29.5587 46.6118C29.6248 44.23 29.3021 37.144 29.437 35.8677C29.5719 34.5914 35.1539 32.6113 35.1539 32.6113L35.1516 32.6113Z" fill="#2F2F75"/>
<path d="M40.3129 24.7577C40.3129 24.7577 42 24.7738 43.3656 22.6739C44.7315 20.5714 42.1411 17.5793 38.5673 18.2498C34.9935 18.9203 35.2413 21.4263 34.393 21.9239C33.5447 22.4215 33.2038 23.3644 33.4154 24.5449C33.6267 25.728 34.8571 27.9579 34.8571 27.9579C34.8571 27.9579 36.7821 29.1691 37.6018 28.8537C38.4216 28.5383 40.3129 24.7577 40.3129 24.7577Z" fill="#1A2743"/>
<path d="M42.4229 23.6699C42.4229 23.6699 42.3142 28.5388 41.8097 29.624C41.303 30.7092 38.7518 31.3398 37.4375 31.1768C36.1229 31.0163 35.4879 28.5086 35.4879 28.5086C35.4879 28.5086 33.8692 29.25 33.7528 27.959C33.6286 26.5874 35.3004 26.551 35.3004 26.551C35.3004 26.551 36.1385 28.1692 36.3437 27.6982C36.5492 27.2247 35.8685 25.2148 35.8599 24.3526C35.8516 23.4879 37.069 22.8335 37.069 22.8335C37.069 22.8335 39.734 24.5934 42.4252 23.6699L42.4229 23.6699Z" fill="#E3ACCB"/>
<path d="M38.3798 28.6499C38.3798 28.6499 39.6254 29.5507 40.4861 28.6948" stroke="#1A2743" stroke-width="0.59" stroke-linecap="round" stroke-linejoin="round"/>
<path d="M39.9159 25.3031C39.9159 25.3031 39.7367 26.7569 39.9939 27.0665C40.2512 27.3761 39.519 27.851 39.519 27.851" stroke="#1A2743" stroke-width="0.59" stroke-linecap="round" stroke-linejoin="round"/>
<path d="M38.9157 25.5524C38.8983 25.7167 38.7702 25.8532 38.6307 25.8562C38.4912 25.8592 38.3914 25.7278 38.4088 25.5635C38.4262 25.3992 38.5543 25.2628 38.6938 25.2597C38.8333 25.2567 38.9331 25.3882 38.9157 25.5524Z" fill="#1A2743"/>
<path d="M41.3302 25.3632C41.2651 25.5184 41.1072 25.6076 40.98 25.5599C40.8528 25.5122 40.8054 25.3469 40.8705 25.1916C40.9356 25.0364 41.0935 24.9472 41.2207 24.9949C41.3479 25.0425 41.3954 25.2079 41.3302 25.3632Z" fill="#1A2743"/>
<path d="M38.1241 26.9286C38.5543 26.9192 38.9143 26.8053 38.9282 26.6741C38.942 26.5429 38.6045 26.4441 38.1743 26.4535C37.7442 26.4629 37.3842 26.5768 37.3703 26.708C37.3564 26.8392 37.6939 26.938 38.1241 26.9286Z" fill="#F0D6E5"/>
<path d="M42.5219 26.5171C42.508 26.6485 42.148 26.7623 41.7179 26.7716C41.2877 26.781 40.9502 26.6825 40.9641 26.5511C40.9779 26.4196 41.3379 26.3059 41.7681 26.2965C42.1982 26.2871 42.5358 26.3857 42.5219 26.5171Z" fill="#F0D6E5"/>
<path d="M23.4045 93.2151L27.6386 93.1228L28.5352 94.5607L33.1115 95.883C33.3841 95.9603 33.5477 96.2341 33.5143 96.55L33.4924 96.7573C33.4657 97.01 33.2536 97.2163 33.0237 97.2188L23.2508 97.2806C22.7564 97.2838 22.4382 96.8041 22.5824 96.274L23.4045 93.2151Z" fill="#2F2F75"/>
</svg>
