<svg width="121" height="83" viewBox="0 0 121 83" fill="none" xmlns="http://www.w3.org/2000/svg">
<path d="M94.6749 66.5343C87.3666 73.3629 77.8344 76.0275 70.1287 73.9981C65.3334 72.7306 61.2743 69.837 57.3619 66.871C53.4495 63.905 49.5572 60.8111 44.9546 59.0879C40.3442 57.3682 34.8593 57.1353 29.6876 59.8158C28.0233 60.6779 26.5375 61.8111 25.2179 63.1571C22.5635 65.8561 18.9214 67.1917 15.6268 66.5155L15.5579 66.5006C11.9459 65.7573 9.43581 62.8048 9.27811 58.9898C9.13564 55.4415 9.67465 51.6843 10.9766 48.0402C13.1501 41.974 17.0625 36.5476 21.0906 31.4981C27.8903 22.9791 35.3888 14.9602 43.8691 9.06846C52.3472 3.19133 61.908 -0.452269 70.5636 0.361152C77.3612 0.998146 83.2977 4.33134 88.1361 8.91644C92.9675 13.5015 96.7754 19.3169 100.26 25.3538C102.719 29.6066 105.077 34.1258 105.658 39.5577C106.64 48.7546 101.983 59.7056 94.6749 66.5343Z" fill="#F8F7FC"/>
<path d="M43.1828 47.401L38.4771 47.3799C36.6488 47.3717 35.4048 45.8458 35.6986 43.9718L41.9582 4.03595C42.2514 2.16542 43.9693 0.654838 45.7996 0.663054L91.2645 0.86715C93.0948 0.875366 94.3371 2.39924 94.044 4.26977L87.7843 44.2055C87.4906 46.0796 85.7702 47.5922 83.9418 47.5839L53.5395 47.4475L43.1828 47.401Z" fill="white"/>
<path d="M83.9269 47.6884L38.4623 47.4843C36.5808 47.4758 35.2959 45.8999 35.5982 43.9714L41.8579 4.03534C42.1597 2.10986 43.9361 0.550085 45.8176 0.558531L91.2824 0.762627C93.1639 0.771073 94.4492 2.34456 94.1473 4.27007L87.8877 44.2059C87.5854 46.1346 85.8086 47.6968 83.9269 47.6884ZM45.7849 0.767359C44.0155 0.759416 42.3454 2.22577 42.0616 4.03628L35.8019 43.9723C35.5176 45.7858 36.7257 47.2676 38.495 47.2755L83.9596 47.4796C85.7289 47.4875 87.3997 46.0185 87.684 44.205L93.9436 4.26916C94.2274 2.45868 93.019 0.979372 91.2496 0.971429L45.7849 0.767359Z" fill="url(#paint0_linear_61_3125)"/>
<path d="M93.4737 7.90824L94.0437 4.27169C94.3373 2.39819 93.0937 0.87292 91.2659 0.864715L45.7989 0.660609C43.9709 0.652403 42.2512 2.16437 41.9575 4.03787L41.3875 7.67442L93.4737 7.90824Z" fill="url(#paint1_linear_61_3125)"/>
<path d="M46.7451 4.18179C46.6428 4.83432 46.0407 5.36375 45.4041 5.36089C44.7675 5.35803 44.3322 4.82395 44.4345 4.17142C44.5367 3.51881 45.1388 2.98939 45.7754 2.99225C46.412 2.9951 46.8474 3.52919 46.7451 4.18179Z" fill="#F2F0FB"/>
<path d="M50.3212 4.19778C50.2189 4.85031 49.6169 5.37974 48.9803 5.37688C48.3437 5.37402 47.9083 4.83994 48.0106 4.18741C48.1129 3.53481 48.715 3.00538 49.3516 3.00824C49.9881 3.0111 50.4235 3.54518 50.3212 4.19778Z" fill="#F2F0FB"/>
<path d="M53.9012 4.21377C53.7989 4.8663 53.1969 5.39573 52.5603 5.39287C51.9237 5.39001 51.4884 4.85593 51.5907 4.2034C51.693 3.5508 52.295 3.02137 52.9315 3.02423C53.5681 3.02709 54.0035 3.56117 53.9012 4.21377Z" fill="#F2F0FB"/>
<path d="M90.0814 4.3495C89.9558 5.15083 89.2202 5.79755 88.4385 5.79404L70.1297 5.71185C69.3478 5.70834 68.8159 5.05593 68.9415 4.2546C69.0671 3.45327 69.8027 2.80656 70.5845 2.81007L88.8933 2.89226C89.6751 2.89576 90.207 3.54817 90.0814 4.3495Z" fill="#F2F0FB"/>
<path d="M89.1873 17.7609L87.611 27.8172C87.5701 28.0782 87.3305 28.2888 87.0758 28.2877L84.267 28.2751C84.0123 28.2739 83.839 28.0615 83.8799 27.8004L85.4562 17.7442C85.4971 17.4832 85.7367 17.2725 85.9914 17.2737L88.8002 17.2863C89.0549 17.2874 89.2282 17.4999 89.1873 17.7609Z" fill="#C5ADFF"/>
<path d="M83.0848 21.2212L82.0405 27.8838C82.0075 28.0944 81.8142 28.2644 81.6086 28.2635L78.6233 28.2501C78.4177 28.2492 78.2779 28.0777 78.3109 27.8671L79.3552 21.2045C79.3882 20.9939 79.5816 20.8239 79.7871 20.8248L82.7725 20.8382C82.978 20.8391 83.1178 21.0106 83.0848 21.2212Z" fill="#FFD375"/>
<path d="M77.9585 18.4675L76.5008 27.7676C76.4599 28.0286 76.2203 28.2392 75.9657 28.2381L73.155 28.2255C72.9003 28.2243 72.7271 28.0118 72.768 27.7508L74.2257 18.4507C74.2666 18.1897 74.5062 17.9791 74.7608 17.9802L77.5715 17.9928C77.8262 17.994 77.9994 18.2065 77.9585 18.4675Z" fill="#F35170"/>
<path d="M71.6618 23.1683L70.9448 27.7426C70.9039 28.0036 70.6643 28.2142 70.4097 28.2131L67.6008 28.2005C67.3461 28.1994 67.1729 27.9869 67.2138 27.7258L67.9308 23.1516C67.9717 22.8905 68.2113 22.6799 68.4659 22.681L71.2748 22.6936C71.5295 22.6948 71.7027 22.9073 71.6618 23.1683Z" fill="#BE7D5A"/>
<path d="M88.2846 23.5092L87.6094 27.8167C87.5682 28.0798 87.3291 28.2901 87.0723 28.2889L84.2651 28.2763C84.0083 28.2752 83.8353 28.063 83.8766 27.7999L84.2337 25.5215C85.8003 24.9949 87.1824 24.3081 88.2846 23.5092Z" fill="#976FF8"/>
<path d="M82.3261 26.0637L82.0407 27.8851C82.0081 28.0928 81.8154 28.2652 81.6094 28.2643L78.6231 28.2509C78.4204 28.2499 78.2786 28.0761 78.3112 27.8684L78.5049 26.6322C79.8337 26.5446 81.1185 26.3494 82.3261 26.0637Z" fill="#EE9545"/>
<path d="M76.6687 26.6933L76.5005 27.7667C76.4592 28.0298 76.22 28.2401 75.9666 28.239L73.1561 28.2263C72.8994 28.2252 72.7263 28.013 72.7676 27.7499L72.9814 26.3856C74.1339 26.5814 75.3715 26.6874 76.6687 26.6933Z" fill="#DE3260"/>
<path d="M71.2159 26.014L70.9451 27.7418C70.9038 28.005 70.6613 28.2152 70.4079 28.2141L67.6007 28.2015C67.344 28.2003 67.171 27.9882 67.2122 27.7251L67.7002 24.6122C68.6921 25.185 69.8784 25.6614 71.2159 26.014Z" fill="#51383C"/>
<path d="M70.0728 20.0009C70.0468 20.0008 70.0223 19.9904 70.0056 19.97C69.9722 19.929 69.9826 19.8628 70.0287 19.8223L76.7268 13.9435C76.766 13.909 76.8197 13.9033 76.8555 13.9298L81.6573 17.4276L88.0181 11.7288C88.064 11.6878 88.1285 11.6877 88.1624 11.7279C88.1962 11.7684 88.1867 11.8345 88.1408 11.8755L81.7128 17.6343C81.6735 17.6694 81.6193 17.6757 81.5831 17.6488L76.7807 14.1507L70.1496 19.9706C70.1265 19.9909 70.0989 20.001 70.0728 20.0009Z" fill="#4C5C75"/>
<path d="M71.1506 19.7099C71.0728 20.2063 70.6155 20.6083 70.1312 20.6062C69.644 20.604 69.3133 20.1983 69.3911 19.702C69.4689 19.2057 69.9262 18.8036 70.4134 18.8058C70.8977 18.808 71.2284 19.2136 71.1506 19.7099Z" fill="#BE7D5A"/>
<path d="M77.6584 14.3249C77.5806 14.8212 77.1233 15.2233 76.639 15.2212C76.1519 15.219 75.8211 14.8133 75.8989 14.317C75.9767 13.8206 76.434 13.4186 76.9212 13.4208C77.4055 13.423 77.7362 13.8285 77.6584 14.3249Z" fill="#F35170"/>
<path d="M82.5881 17.4991C82.5103 17.9954 82.053 18.3975 81.5687 18.3954C81.0815 18.3932 80.7508 17.9875 80.8286 17.4912C80.9064 16.9949 81.3637 16.5928 81.8509 16.595C82.3352 16.5972 82.6659 17.0027 82.5881 17.4991Z" fill="#FFD375"/>
<path d="M88.8635 11.8674C88.7857 12.3637 88.3284 12.7658 87.8441 12.7636C87.3569 12.7615 87.0262 12.3558 87.104 11.8595C87.1818 11.3631 87.6391 10.9611 88.1263 10.9633C88.6106 10.9655 88.9413 11.371 88.8635 11.8674Z" fill="#C5ADFF"/>
<path d="M48.9983 31.3057L48.6408 33.5866C48.585 33.9426 48.2582 34.23 47.9108 34.2285L45.6855 34.2185C45.3382 34.2169 45.1018 33.927 45.1576 33.571L45.5151 31.2901C45.5709 30.934 45.8978 30.6466 46.2451 30.6482L48.4704 30.6582C48.8178 30.6598 49.0541 30.9497 48.9983 31.3057Z" fill="#BE7D5A"/>
<path d="M48.2073 36.3589L47.8498 38.6398C47.794 38.9959 47.4672 39.2832 47.1198 39.2817L44.8945 39.2717C44.5472 39.2701 44.3108 38.9802 44.3666 38.6242L44.7241 36.3433C44.7799 35.9873 45.1067 35.6999 45.4541 35.7014L47.6794 35.7114C48.0268 35.713 48.2631 36.0029 48.2073 36.3589Z" fill="#6EB854"/>
<path d="M47.4163 41.4124L47.0588 43.6933C47.003 44.0493 46.6762 44.3367 46.3288 44.3351L44.1035 44.3252C43.7561 44.3236 43.5198 44.0337 43.5756 43.6777L43.9331 41.3967C43.9889 41.0407 44.3157 40.7533 44.6631 40.7549L46.8884 40.7649C47.2357 40.7664 47.4721 41.0563 47.4163 41.4124Z" fill="#FFD375"/>
<path d="M67.0052 31.7564C66.9783 31.928 66.8208 32.0665 66.6533 32.0658L51.9958 32C51.8283 31.9992 51.7144 31.8595 51.7413 31.6878C51.7682 31.5162 51.9258 31.3777 52.0932 31.3784L66.7507 31.4442C66.9182 31.445 67.0321 31.5847 67.0052 31.7564Z" fill="#F2F0FB"/>
<path d="M62.5326 33.279C62.5057 33.4506 62.3482 33.5891 62.1807 33.5884L51.7556 33.5416C51.5881 33.5408 51.4742 33.4011 51.5011 33.2295C51.528 33.0578 51.6855 32.9193 51.853 32.9201L62.2781 32.9669C62.4456 32.9676 62.5595 33.1073 62.5326 33.279Z" fill="#F2F0FB"/>
<path d="M66.2103 36.8097C66.1834 36.9813 66.0258 37.1199 65.8584 37.1191L51.2009 37.0533C51.0334 37.0526 50.9195 36.9128 50.9464 36.7412C50.9733 36.5696 51.1308 36.431 51.2983 36.4318L65.9558 36.4976C66.1233 36.4983 66.2372 36.6381 66.2103 36.8097Z" fill="#F2F0FB"/>
<path d="M61.7377 38.3323C61.7108 38.504 61.5532 38.6425 61.3858 38.6417L50.9606 38.5949C50.7932 38.5942 50.6792 38.4544 50.7062 38.2828C50.7331 38.1112 50.8906 37.9727 51.0581 37.9734L61.4832 38.0202C61.6507 38.021 61.7646 38.1607 61.7377 38.3323Z" fill="#F2F0FB"/>
<path d="M65.4193 41.8632C65.3924 42.0348 65.2348 42.1733 65.0674 42.1726L50.4098 42.1068C50.2424 42.106 50.1285 41.9663 50.1554 41.7947C50.1823 41.623 50.3398 41.4845 50.5073 41.4852L65.1648 41.551C65.3322 41.5518 65.4462 41.6915 65.4193 41.8632Z" fill="#F2F0FB"/>
<path d="M60.9467 43.3858C60.9198 43.5574 60.7622 43.696 60.5948 43.6952L50.1696 43.6484C50.0022 43.6477 49.8882 43.5079 49.9151 43.3363C49.942 43.1647 50.0996 43.0261 50.267 43.0269L60.6922 43.0737C60.8597 43.0744 60.9736 43.2142 60.9467 43.3858Z" fill="#F2F0FB"/>
<path d="M58.3498 19.6638C58.106 21.2189 57.2286 22.8239 55.8304 24.0197L55.8247 24.0247L54.358 22.2317L54.3587 22.2267C55.1221 21.5773 55.6751 20.6638 55.8336 19.6525C56.1435 17.6752 55.4329 16.1314 52.914 16.0414L53.3243 13.518C55.0116 13.5256 56.421 14.2353 57.3231 15.378C58.2074 16.4812 58.6157 17.9672 58.3498 19.6638Z" fill="#C6AEFF"/>
<path d="M53.3246 13.5181L52.9143 16.0415L52.8897 16.0414C51.898 16.0369 50.9343 16.4526 50.1908 17.1325L48.7249 15.3345C49.9741 14.2318 51.5734 13.5406 53.2203 13.5227C53.2556 13.5178 53.2901 13.518 53.3246 13.5181Z" fill="url(#paint2_linear_61_3125)"/>
<path d="M48.8154 19.6211C48.8107 19.6515 48.8067 19.6768 48.8069 19.7071L46.2907 19.6958L46.3034 19.6149C46.5798 17.9462 47.4787 16.4321 48.727 15.3345L50.1929 17.1325C49.4797 17.777 48.9668 18.6553 48.8154 19.6211Z" fill="#F35170"/>
<path d="M55.8309 24.0198L55.8252 24.0248C54.5553 25.102 52.9657 25.7629 51.3228 25.7555C49.6848 25.7481 48.3044 25.0739 47.3936 23.9869C46.4794 22.8897 46.0356 21.3747 46.2881 19.7008L48.8042 19.7121C48.5435 21.6592 49.8534 23.2237 51.7627 23.2323C52.71 23.2365 53.6336 22.8561 54.3584 22.2318L54.3592 22.2268L55.8309 24.0198Z" fill="#F35170"/>
<path d="M55.435 15.593C55.3969 15.5567 55.4004 15.4908 55.4428 15.4461L57.8477 12.9099C57.8708 12.8855 57.9021 12.8714 57.9329 12.8715L62.0467 12.89C62.103 12.8902 62.1412 12.9372 62.1322 12.9948C62.1231 13.0525 62.0702 13.099 62.014 13.0988L57.9489 13.0805L55.5806 15.5781C55.5382 15.6229 55.4729 15.6294 55.435 15.593Z" fill="#4C5C75"/>
<path d="M62.3728 11.2652L62.227 12.1958C62.2205 12.2373 62.1836 12.2697 62.1431 12.2695L60.2811 12.2612C60.2406 12.261 60.2139 12.2282 60.2204 12.1867L60.3663 11.2562C60.3723 11.2177 60.4097 11.1823 60.4502 11.1825L62.3121 11.1908C62.3526 11.191 62.3789 11.2267 62.3728 11.2652Z" fill="#4C5C75"/>
<path d="M51.5346 14.4635L49.9518 11.9483L46.2771 11.9318C46.2208 11.9315 46.1826 11.8846 46.1916 11.8269C46.2007 11.7692 46.2536 11.7227 46.3098 11.723L50.0333 11.7397C50.0641 11.7398 50.0909 11.7542 50.1064 11.7788L51.7135 14.333C51.7419 14.378 51.7248 14.4438 51.6754 14.4797C51.6262 14.5157 51.563 14.5086 51.5346 14.4635Z" fill="#4C5C75"/>
<path d="M46.4913 10.0977L46.3454 11.0282C46.3389 11.0697 46.3656 11.1024 46.4061 11.1026L48.2681 11.111C48.3086 11.1111 48.3455 11.0787 48.352 11.0372L48.4978 10.1067C48.5039 10.0681 48.4776 10.0324 48.4371 10.0322L46.5752 10.0239C46.5347 10.0237 46.4973 10.0591 46.4913 10.0977Z" fill="#4C5C75"/>
<path d="M48.8882 26.7793L44.5237 26.7597C44.4674 26.7595 44.4292 26.7126 44.4382 26.6549C44.4473 26.5972 44.5002 26.5507 44.5564 26.551L48.8721 26.5703L51.3639 23.9427C51.4062 23.8978 51.4713 23.8914 51.5096 23.9279C51.5477 23.9642 51.5441 24.0301 51.5017 24.0748L48.9734 26.741C48.9503 26.7653 48.919 26.7795 48.8882 26.7793Z" fill="#4C5C75"/>
<path d="M44.1811 28.473L44.3345 27.4947C44.3413 27.4511 44.3801 27.417 44.4226 27.4172L46.38 27.426C46.4225 27.4262 46.4506 27.4606 46.4438 27.5042L46.2904 28.4824C46.2841 28.5229 46.2448 28.5602 46.2023 28.56L44.2449 28.5512C44.2023 28.551 44.1748 28.5135 44.1811 28.473Z" fill="#4C5C75"/>
<path d="M49.4448 19.6383C49.1873 21.2811 50.2779 22.6188 51.8806 22.626C53.4838 22.6332 54.992 21.3072 55.2495 19.6643C55.5071 18.021 54.4164 16.6834 52.8132 16.6762C51.2105 16.669 49.7024 17.995 49.4448 19.6383Z" fill="#FFDE9E"/>
<path d="M50.1417 19.6414C49.9412 20.9208 50.7905 21.9625 52.0387 21.9681C53.2873 21.9737 54.4617 20.9411 54.6623 19.6617C54.8629 18.3819 54.0135 17.3402 52.765 17.3346C51.5168 17.329 50.3423 18.3616 50.1417 19.6414Z" fill="#FFD375"/>
<path d="M52.0312 22.01C50.7626 22.0043 49.8962 20.9416 50.1 19.6413C50.3039 18.3405 51.502 17.2871 52.7706 17.2928C54.0396 17.2985 54.906 18.3612 54.7022 19.6619C54.4983 20.9622 53.3002 22.0157 52.0312 22.01ZM52.7575 17.3764C51.5336 17.3709 50.3782 18.387 50.1815 19.6417C49.9849 20.8961 50.8205 21.9209 52.0443 21.9264C53.2684 21.9319 54.424 20.916 54.6206 19.6616C54.8173 18.4069 53.9815 17.3819 52.7575 17.3764Z" fill="#EE9545"/>
<path d="M52.4286 19.4677C52.237 19.4668 52.1063 19.3064 52.1371 19.1101C52.1678 18.9139 52.3486 18.755 52.5402 18.7559C52.7316 18.7567 52.8623 18.917 52.8315 19.1132C52.8192 19.1915 52.8713 19.2553 52.9476 19.2556C53.024 19.256 53.0959 19.1927 53.1082 19.1144C53.1558 18.8107 52.9878 18.5553 52.7204 18.4893L52.7392 18.3696C52.7514 18.2913 52.6994 18.2275 52.6231 18.2272C52.5467 18.2268 52.4748 18.2901 52.4625 18.3683L52.4437 18.488C52.1559 18.5515 51.908 18.805 51.8604 19.1088C51.8051 19.4616 52.04 19.7497 52.3841 19.7513C52.5755 19.7521 52.7062 19.9125 52.6755 20.1086C52.6447 20.3049 52.4639 20.4639 52.2726 20.4631C52.081 20.4622 51.9502 20.3018 51.981 20.1055C51.9933 20.0272 51.9413 19.9634 51.8649 19.9631C51.7885 19.9627 51.7166 20.026 51.7043 20.1042C51.6567 20.4082 51.8248 20.6637 52.0924 20.7297L52.077 20.8279C52.0647 20.9062 52.1167 20.9699 52.1931 20.9703C52.2695 20.9706 52.3414 20.9074 52.3537 20.8291L52.369 20.7309C52.6567 20.6674 52.9045 20.4138 52.9522 20.1098C53.0074 19.7573 52.7726 19.4692 52.4286 19.4677Z" fill="#EE9545"/>
<path d="M87.9795 65.3043L87.6258 67.5606C87.5503 68.0422 87.87 68.4343 88.3398 68.4364L90.7422 68.4472C91.212 68.4493 91.6541 68.0606 91.7296 67.579L92.0832 65.3227L87.9795 65.3043Z" fill="#111D33"/>
<path d="M90.5982 68.4467L88.4853 68.4373L87.176 76.7903L89.289 76.7998L90.5982 68.4467Z" fill="#4C5C75"/>
<path d="M84.7328 78.5411L84.8506 77.7896C84.938 77.2323 85.4495 76.7825 85.9932 76.7849L90.4678 76.805C91.0115 76.8075 91.3814 77.2612 91.2941 77.8185L91.1763 78.57L84.7328 78.5411Z" fill="#4C5C75"/>
<path d="M80.0417 81.3524L79.945 81.9689L94.8889 82.036L94.9855 81.4195C95.2306 79.8563 94.1929 78.5835 92.6678 78.5767L83.2467 78.5344C81.7216 78.5275 80.2867 79.7892 80.0417 81.3524Z" fill="#111D33"/>
<path d="M108.617 44.2729L100.634 64.4267C100.417 64.9738 99.8777 65.3568 99.3276 65.3543L79.324 65.2645L79.4418 64.5132C79.6135 63.4176 80.5808 62.5112 81.6595 62.4352L87.4818 62.0451L95.1229 46.544C96.2552 44.2468 98.6089 42.7118 100.982 42.7224L107.695 42.7526C108.47 42.756 108.923 43.5026 108.617 44.2729Z" fill="#4C5C75"/>
<path d="M76.9303 77.443L79.5536 77.5747L78.7138 80.5561L76.2155 80.2102C76.6542 79.3169 76.9254 78.3137 76.9303 77.443Z" fill="#F6A285"/>
<path d="M71.0269 80.8492C71.0022 80.951 71.0646 81.0439 71.1615 81.0573L78.3471 82.0522C78.4478 82.0662 78.5569 81.9929 78.5877 81.8835L79.2224 79.6308C79.3306 79.2039 78.9732 78.8722 78.5542 79.0164C78.5137 79.0149 77.393 79.5593 77.0555 78.5648C77.0009 78.4014 77.0184 78.0965 76.6426 78.0445C76.3056 77.9978 74.952 78.9596 74.1004 79.1111C74.0099 79.1321 73.924 79.1371 73.8482 79.135C73.296 79.1091 72.3347 79.0644 71.6603 79.6867C71.3866 79.9434 71.1571 80.3157 71.0269 80.8492Z" fill="#FFD375"/>
<path d="M71.2384 80.2638C71.1538 80.4333 71.0825 80.6267 71.0289 80.8494C71.0043 80.9514 71.0656 81.0435 71.1626 81.0569L78.3479 82.0518C78.4493 82.0658 78.5558 81.9912 78.5857 81.885L78.7494 81.3038L71.2384 80.2638Z" fill="#DF8236"/>
<path d="M78.11 80.2258C78.025 80.5276 77.7218 80.7401 77.4333 80.7002C77.1449 80.6602 76.9796 80.3829 77.0647 80.0811C77.1497 79.7794 77.4528 79.5669 77.7413 79.6068C78.0298 79.6468 78.195 79.9241 78.11 80.2258Z" fill="#DF8236"/>
<path d="M76.1935 78.8423C76.266 78.8025 76.3018 78.7146 76.2731 78.6465L76.0738 78.1741C76.0445 78.1064 75.9627 78.0831 75.8904 78.1236C75.8178 78.1633 75.7821 78.2513 75.8109 78.3194L76.0101 78.7918C76.0396 78.8611 76.1234 78.8817 76.1935 78.8423Z" fill="#DF8236"/>
<path d="M75.6016 79.1145C75.6741 79.0748 75.7099 78.9869 75.6811 78.9188L75.482 78.4464C75.4532 78.3787 75.3709 78.3554 75.2986 78.396C75.2261 78.4356 75.1903 78.5236 75.219 78.5917L75.4181 79.0641C75.4471 79.1325 75.5306 79.1543 75.6016 79.1145Z" fill="#DF8236"/>
<path d="M75.0198 79.4137C75.0923 79.3741 75.1281 79.2861 75.0994 79.218L74.9 78.7456C74.8708 78.6778 74.7888 78.655 74.7166 78.6951C74.6441 78.7348 74.6083 78.8228 74.637 78.8909L74.8363 79.3633C74.8658 79.4324 74.9494 79.4532 75.0198 79.4137Z" fill="#DF8236"/>
<path d="M71.6591 79.6868C71.8433 79.847 72.0746 79.9548 72.3457 79.9924C73.0198 80.0857 73.7158 79.7149 74.0992 79.1112C74.0088 79.1322 73.9228 79.1372 73.847 79.1351C73.2949 79.1092 72.3335 79.0645 71.6591 79.6868Z" fill="#DF8236"/>
<path d="M85.4169 77.6399L88.0902 77.3894L87.6597 80.3967L85.0827 80.4218C85.4011 79.4938 85.5344 78.4835 85.4169 77.6399Z" fill="#F6A285"/>
<path d="M79.9237 81.7878C79.913 81.8899 79.9892 81.9708 80.0892 81.9698L87.5011 81.8978C87.605 81.8968 87.7051 81.8101 87.7209 81.6998L88.0463 79.4275C88.0957 78.9986 87.6874 78.7291 87.2837 78.929C87.2422 78.9335 86.1849 79.6219 85.7035 78.7077C85.6252 78.5574 85.6 78.2597 85.2124 78.2635C84.8648 78.2669 83.6302 79.393 82.7896 79.6624C82.701 79.6958 82.6148 79.7129 82.5377 79.7218C81.9753 79.7763 80.9961 79.8716 80.4011 80.5712C80.1604 80.859 79.9804 81.2525 79.9237 81.7878Z" fill="#FFD375"/>
<path d="M80.0533 81.1907C79.9915 81.3669 79.9466 81.5644 79.9237 81.7877C79.9131 81.89 79.9881 81.9704 80.0882 81.9694L87.4999 81.8974C87.6045 81.8963 87.7017 81.8087 87.7171 81.7016L87.801 81.1153L80.0533 81.1907Z" fill="#DF8236"/>
<path d="M87.0014 80.1638C86.9579 80.4682 86.6809 80.7176 86.3833 80.7205C86.0858 80.7234 85.8796 80.4787 85.9231 80.1743C85.9667 79.87 86.2436 79.6206 86.5413 79.6177C86.8388 79.6148 87.045 79.8595 87.0014 80.1638Z" fill="#DF8236"/>
<path d="M84.8701 79.1005C84.9379 79.0516 84.9618 78.9613 84.9231 78.8995L84.655 78.4709C84.6158 78.4095 84.5298 78.3988 84.4622 78.4485C84.3944 78.4973 84.3706 78.5876 84.4093 78.6495L84.6774 79.0781C84.717 79.1409 84.8047 79.1488 84.8701 79.1005Z" fill="#DF8236"/>
<path d="M84.3075 79.4495C84.3753 79.4006 84.3991 79.3103 84.3604 79.2485L84.0925 78.8199C84.0538 78.7585 83.9673 78.7478 83.8997 78.7975C83.832 78.8464 83.8081 78.9367 83.8468 78.9984L84.1147 79.4271C84.1537 79.4891 84.2412 79.4982 84.3075 79.4495Z" fill="#DF8236"/>
<path d="M83.7609 79.823C83.8286 79.7741 83.8525 79.6838 83.8138 79.622L83.5457 79.1934C83.5065 79.132 83.4203 79.1217 83.3529 79.171C83.2851 79.2199 83.2613 79.3102 83.2999 79.372L83.568 79.8005C83.6076 79.8632 83.6951 79.8714 83.7609 79.823Z" fill="#DF8236"/>
<path d="M80.4019 80.5712C80.6108 80.6997 80.8601 80.7708 81.1397 80.7681C81.835 80.7613 82.4873 80.3021 82.7904 79.6624C82.7018 79.6958 82.6155 79.7129 82.5385 79.7218C81.976 79.7764 80.9968 79.8716 80.4019 80.5712Z" fill="#DF8236"/>
<path d="M94.4677 64.3709L83.5256 64.3218L80.0311 77.6146C79.9955 77.8414 79.2364 77.9612 78.4503 77.9707C77.5621 77.9862 76.636 77.8588 76.6767 77.5995C76.6767 77.5995 76.5052 63.3531 80.2893 59.456C82.5184 57.1636 94.2126 55.9871 94.2126 55.9871C94.5622 67.4763 94.4416 63.5136 94.4677 64.3709Z" fill="#8EB6FF"/>
<path d="M94.4696 64.3711L83.5275 64.322L80.0329 77.6148C79.9973 77.8417 79.2382 77.9615 78.4522 77.9709C78.5 77.5853 78.592 77.1997 78.6841 76.8143C79.6443 72.8072 80.6078 68.8002 81.5686 64.7899C81.7794 63.9088 82.0044 62.9985 82.5457 62.2292C83.2005 61.3014 84.2381 60.6965 85.2762 60.3509C87.5084 59.599 89.8695 59.8882 94.2602 57.5116L94.4696 64.3711Z" fill="#497BFD"/>
<path d="M98.8713 63.4373C97.5157 64.9002 91.4138 64.3897 91.4138 64.3897L88.5518 77.7437C88.5299 77.9641 87.8385 78.1167 87.089 78.175C86.1626 78.2519 85.1426 78.1792 85.1722 77.9102C85.1722 77.9102 83.699 63.3498 87.3035 59.2865C89.1251 57.2309 97.9108 57.1028 99.9666 56.9339C99.9666 56.9339 100.452 61.7322 98.8713 63.4373Z" fill="#8EB6FF"/>
<path d="M98.8695 63.4372C97.5139 64.9002 91.4119 64.3896 91.4119 64.3896L88.55 77.7436C88.5281 77.964 87.8366 78.1166 87.0872 78.1749C87.173 77.4456 87.5257 76.6689 87.8229 75.9438C89.7266 71.2875 88.9078 68.34 89.0814 66.3605C89.2972 63.9791 90.516 62.635 92.8082 61.9605C94.5138 61.4642 96.8889 61.3645 98.2844 59.7216C99.2107 58.6355 98.8296 57.5639 99.0293 56.988C99.4217 56.9671 99.7404 56.9523 99.9648 56.9338C99.9648 56.9338 100.45 61.7321 98.8695 63.4372Z" fill="#497BFD"/>
<path d="M79.5821 38.9605C79.5821 38.9605 81.6787 44.8179 83.4774 45.2909C84.2297 45.489 87.0043 44.5145 87.0043 44.5145L86.4833 41.0734L84.7894 41.447L84.7184 41.4627L81.314 37.065C81.2759 37.1067 79.469 39.0843 79.5821 38.9605Z" fill="#F7A386"/>
<path d="M79.5828 38.9605C79.5828 38.9605 81.6794 44.8178 83.4781 45.2908C84.2304 45.4889 87.005 44.5145 87.005 44.5145L86.484 41.0733L84.7901 41.447C84.8105 41.62 84.8382 41.796 84.838 41.9663C84.8412 42.3664 84.6925 42.7766 84.5459 43.1734C84.4494 43.4352 84.3526 43.6997 84.1919 43.9342C83.7239 44.617 83.0106 44.5898 82.6683 43.995C82.4983 43.6995 82.4496 43.337 82.38 42.9907C82.0444 41.2615 81.141 39.7381 79.8341 38.6859L79.5828 38.9605Z" fill="url(#paint3_linear_61_3125)"/>
<path d="M79.5832 38.9604C79.5606 38.7578 79.1288 38.2086 78.9446 38.1396C78.6179 38.0191 78.4166 37.9019 78.2395 37.772L78.237 37.772C78.0562 37.6346 77.9041 37.4873 77.6729 37.3091C77.1522 36.9147 77.6699 36.5247 77.6699 36.5247C77.0968 36.0087 77.8599 35.7693 77.8599 35.7693C77.2123 35.2401 78.0985 34.9557 78.0985 34.9557C76.6142 34.4734 76.1237 34.1854 76.4026 33.9185C76.7443 33.5961 78.7124 34.1413 79.7876 34.7609C80.8608 35.3779 81.3138 37.0774 81.3138 37.0774L79.5832 38.9604Z" fill="#F7A386"/>
<path d="M79.8937 36.8968C79.0947 36.262 79.7886 35.647 79.7886 35.647C79.2364 35.3811 78.5055 35.1511 78.7109 34.7133C78.9608 34.1803 80.4437 34.9362 80.925 35.4693C81.2156 35.7909 81.35 36.2519 81.3118 37.0761" fill="#F7A386"/>
<path d="M79.8963 36.8966C79.7211 36.7515 79.5536 36.5759 79.5166 36.3383C79.4739 36.0979 79.5934 35.8258 79.7865 35.6411L79.7869 35.6542C79.4282 35.4853 78.6604 35.2339 78.6631 34.8579C78.6621 34.7249 78.7641 34.5765 78.9005 34.5407C79.2091 34.4378 79.6967 34.6463 79.9601 34.7744C81.0937 35.3699 81.3707 35.8003 81.3145 37.0759C81.3571 35.8111 81.0782 35.3833 79.9421 34.8052C79.698 34.6897 79.1912 34.4825 78.9068 34.5758C78.7852 34.6072 78.6987 34.7313 78.6957 34.8533C78.7181 35.2073 79.249 35.3737 79.7955 35.6393C79.7993 35.6412 79.8004 35.646 79.798 35.6501L79.796 35.6525C79.6062 35.8309 79.4849 36.0979 79.5245 36.3358C79.5586 36.573 79.7247 36.7508 79.8963 36.8966Z" fill="#E27659"/>
<path d="M85.3631 45.4345L87.5041 44.9007L90.9353 44.0455L92.9735 37.5039L92.9678 37.5067L92.2969 37.7983L85.2848 40.8354C84.816 41.201 85.016 45.4951 85.3631 45.4345Z" fill="#F45170"/>
<path d="M87.505 44.9008L90.9361 44.0455L92.9686 37.5067L92.2977 37.7984C91.6802 38.1201 90.8821 38.568 90.7343 38.6863C89.2612 39.8719 88.2464 42.1897 87.505 44.9008Z" fill="#D12057"/>
<path d="M103.606 42.7352C103.471 43.595 103.176 44.3454 102.808 45.1014C102.733 45.2509 102.658 45.4003 102.583 45.5556C102.506 45.6991 102.428 45.8456 102.348 45.9921C102.109 46.4373 101.86 46.8943 101.608 47.3894C101.561 47.4832 101.515 47.5799 101.466 47.6737C101.359 47.8934 101.248 48.1279 101.142 48.3652C101.087 48.5 101.028 48.6349 100.97 48.7726C100.964 48.7902 100.955 48.8078 100.95 48.8225C100.923 48.8869 100.895 48.9543 100.869 49.0276C100.838 49.098 100.809 49.1742 100.783 49.2475C100.782 49.2592 100.776 49.2739 100.772 49.2856C100.74 49.3619 100.711 49.4351 100.688 49.5114C100.545 49.9071 100.416 50.3324 100.294 50.7811C100.265 50.8896 100.239 51.0011 100.21 51.1126C100.206 51.139 100.198 51.1712 100.19 51.2035C100.163 51.3238 100.138 51.444 100.11 51.5672C100.09 51.6582 100.074 51.7462 100.057 51.8342C100.038 51.9164 100.022 52.0015 100.009 52.0866C99.7999 53.2367 101.043 58.1551 99.589 57.7815C93.3888 56.1944 88.5756 59.7964 86.3183 57.0348C86.1861 56.8727 86.2502 56.5734 86.4098 56.2129C86.7959 55.322 87.7584 54.0431 87.8566 53.4533C89.1656 45.3397 88.2959 41.6946 90.6981 39.0537C91.6354 38.0272 92.9439 37.4105 94.9736 36.7618C95.0584 36.7329 95.1456 36.7068 95.2332 36.6778C95.2698 36.6633 95.3084 36.6547 95.3479 36.6402C96.02 36.4288 96.6208 36.2877 97.053 36.272C97.6149 36.251 98.3248 36.401 99.0757 36.6922C99.0972 36.7011 99.1211 36.7129 99.1483 36.7219C99.2454 36.7604 99.3449 36.8021 99.444 36.8465C100.014 37.1016 100.601 37.4331 101.142 37.8379C102.703 38.996 103.923 40.7134 103.606 42.7352Z" fill="#F45170"/>
<path d="M102.581 45.5534C102.506 45.7001 102.426 45.8446 102.348 45.9937C102.11 46.4364 101.858 46.893 101.608 47.387C101.583 47.4365 101.558 47.486 101.534 47.5355L101.291 47.5344C101.499 47.1351 101.706 46.7515 101.904 46.384C101.982 46.235 102.059 46.0906 102.137 45.9437C102.213 45.7923 102.289 45.6431 102.362 45.494C102.731 44.739 103.025 43.986 103.159 43.1272C103.476 41.1062 102.256 39.3866 100.697 38.2282C100.062 37.7536 99.3672 37.3768 98.7023 37.1123C98.6765 37.1028 98.6555 37.091 98.6297 37.0816C97.8823 36.7909 97.1695 36.643 96.6062 36.6615C96.1779 36.6759 95.5742 36.8203 94.9034 37.0298C94.8648 37.0437 94.8242 37.0551 94.7856 37.069C93.0463 37.6124 91.816 38.1206 90.8951 38.8498C91.855 37.9013 93.1956 37.3141 95.23 36.6763C95.2705 36.6649 95.3087 36.6533 95.3474 36.6395C96.0182 36.43 96.6219 36.2855 97.0501 36.2711C97.6135 36.2527 98.3266 36.3983 99.0736 36.6913C99.0995 36.7007 99.1208 36.7102 99.1463 36.7219C99.8111 36.9865 100.506 37.3633 101.143 37.8355C102.702 38.9962 103.922 40.7159 103.606 42.7345C103.471 43.5958 103.175 44.3487 102.806 45.1037C102.733 45.2505 102.657 45.4019 102.581 45.5534Z" fill="#D12057"/>
<path d="M87.6076 51.7741C87.5643 51.8654 86.9989 51.9954 87.0083 52.1866C87.0175 52.375 87.5383 52.435 87.9034 52.2929C87.8602 52.3843 87.234 52.4554 87.2603 52.6483C87.3014 52.9491 88.3975 52.953 88.6737 52.9791C88.9733 53.0142 89.4697 52.9541 90.2375 52.5673C90.2375 52.5673 99.0846 53.3136 101.584 51.5934C103.488 50.2802 103.089 46.5564 103.089 46.5564L98.2955 45.1136L98.2304 47.3862L98.1984 48.5297L90.2316 50.2798C89.7749 49.9335 88.4892 48.935 88.149 49.3977C87.9009 49.7352 88.9501 50.3414 88.2805 50.4112C88.2805 50.4112 86.5526 50.768 86.6717 51.2106C86.7259 51.4118 87.4664 51.3338 87.6241 51.2686C87.582 51.3623 86.7611 51.4271 86.8245 51.6881C86.8925 51.9681 87.4498 51.8393 87.6076 51.7741Z" fill="#F7A386"/>
<path d="M88.6743 52.9791C88.974 53.0141 89.4704 52.954 90.2381 52.5673C90.2381 52.5673 99.0853 53.3136 101.585 51.5934C103.489 50.2802 103.09 46.5563 103.09 46.5563L98.2961 45.1136L98.2311 47.3862C98.7048 47.8401 99.3566 48.1045 100.056 48.1072C100.6 48.1057 101.219 47.9729 101.618 48.2905C102.131 48.6965 101.919 49.6511 101.372 50.1811C100.826 50.7131 100.079 50.9194 99.3753 51.0724C97.1735 51.5502 95.0553 51.7285 90.0029 52.2864C89.7202 52.3172 89.4292 52.3503 89.1636 52.4851C88.9548 52.5879 88.7638 52.7707 88.6743 52.9791Z" fill="url(#paint4_linear_61_3125)"/>
<path d="M99.2713 41.2103L103.285 40.3797C103.616 41.1172 104.375 42.938 103.373 47.4139C103.043 48.8899 99.015 47.7796 98.0122 46.7921C97.2525 46.0439 97.5878 42.9828 99.2713 41.2103Z" fill="#F45170"/>
<path d="M103.371 47.4149C103.271 47.864 102.829 48.0765 102.229 48.12C102.516 48.0038 102.715 47.8206 102.779 47.5349C103.78 43.0585 103.024 41.2362 102.691 40.4991L103.283 40.3789C103.616 41.1162 104.372 42.9384 103.371 47.4149Z" fill="#D12057"/>
<path d="M99.4454 36.8462L99.4427 36.8638L95.56 40.4142L94.9751 36.7615C95.0599 36.7325 95.147 36.7065 95.2347 36.6775C95.2713 36.663 95.3099 36.6544 95.3494 36.6399C96.0215 36.4285 96.6223 36.2873 97.0545 36.2717C97.6164 36.2507 98.3263 36.4007 99.0772 36.6918C99.0987 36.7008 99.1226 36.7126 99.1498 36.7216C99.2469 36.7602 99.3464 36.8017 99.4454 36.8462Z" fill="#D12057"/>
<path d="M99.6285 32.0302L98.9079 36.6271L95.9839 39.2989L95.5456 36.5526L96.2568 32.015L99.6285 32.0302Z" fill="#F6A285"/>
<path d="M98.9002 34.0702C99.199 33.8846 99.3597 33.7397 99.3597 33.7397L99.5013 32.8359C99.5013 32.8359 99.9956 32.3516 100.236 31.8303C100.434 31.4052 100.461 30.9572 99.9147 30.7293L99.9979 28.7614C97.7386 28.6509 95.6038 28.6561 94.6352 29.7463C94.6352 29.7463 91.4556 38.6948 98.9002 34.0702Z" fill="url(#paint5_linear_61_3125)"/>
<path d="M94.4768 30.2397C95.1887 30.3078 95.5843 29.138 97.3871 29.3825C97.6449 29.4172 97.8 29.5475 97.7513 29.9365C97.665 30.6432 98.0485 30.7621 98.3866 30.9225C98.7228 31.0831 98.0655 32.2684 98.3912 32.3913C98.5605 32.4568 98.9047 31.7324 98.9047 31.7324C98.9047 31.7324 99.3673 30.5651 99.9623 30.7664C100.484 30.9445 100.137 31.9576 99.7455 32.5668C99.7985 32.5022 100.058 32.1749 100.365 31.7243C100.424 31.6389 100.483 31.5471 100.545 31.4532C100.876 30.9421 101.222 30.3223 101.406 29.7457C101.419 29.706 101.431 29.6684 101.441 29.6287C101.441 29.6287 101.441 29.6287 101.441 29.6266C101.444 29.6246 101.444 29.6246 101.444 29.6225C101.473 29.5137 101.498 29.4072 101.514 29.3048C101.625 28.6003 101.379 28.0342 100.386 27.9356C100.411 27.894 101.423 25.5993 97.8537 25.9242C95.8163 26.1097 94.5162 26.6163 94.0236 27.428C93.4977 28.284 93.7393 30.1694 94.4768 30.2397Z" fill="#894852"/>
<path opacity="0.3" d="M93.7691 28.2618C93.8122 28.0306 93.867 27.8414 93.9912 27.6393C94.4838 26.8277 95.7838 26.321 97.8212 26.1356C100.273 25.9123 100.563 26.9261 100.495 27.5953C100.633 26.9599 100.584 25.6751 97.8544 25.9244C95.8169 26.1098 94.5169 26.6165 94.0243 27.4282C93.8666 27.6849 93.8062 27.9706 93.7691 28.2618Z" fill="white"/>
<path d="M97.2122 31.7261C97.429 31.8678 97.4623 31.4578 97.1531 31.1635C96.5968 30.6337 95.6142 30.822 95.6274 31.2436C95.6341 31.4637 95.8598 31.3908 96.0126 31.3748C96.5825 31.3156 96.7742 31.4394 97.2122 31.7261Z" fill="#894852"/>
<path d="M95.1209 30.9335C94.9448 30.7976 94.5828 30.6988 94.1867 30.7783C94.0713 30.8015 93.9767 30.9048 93.9642 31.0215C93.9498 31.1551 94.0475 31.2551 94.1791 31.2456C94.7822 31.2019 95.0445 31.624 95.2222 31.3163C95.2853 31.2069 95.273 31.0508 95.1209 30.9335Z" fill="#894852"/>
<path d="M94.8796 33.0395C94.9599 33.1253 95.1055 33.1046 95.2266 33.0303C95.3307 32.9649 95.4225 32.855 95.4913 32.7271C95.5019 32.704 95.4896 32.6825 95.4708 32.6914C95.3979 32.7249 95.2586 32.9148 95.0009 32.8637C94.9372 32.8493 94.8916 32.6745 94.8298 32.7027C94.7472 32.7416 94.7843 32.9376 94.8796 33.0395Z" fill="#E17659"/>
<path d="M99.27 31.8158C99.3333 31.653 99.4207 31.5205 99.5297 31.422C99.6586 31.306 99.8186 31.2439 99.9579 31.2561C100.028 31.2619 100.097 31.2861 100.163 31.3276C100.176 31.3358 100.179 31.3545 100.168 31.3693C100.158 31.3843 100.139 31.3894 100.126 31.3814C100.066 31.3443 100.005 31.3228 99.9434 31.3173C99.8215 31.3066 99.6806 31.3618 99.5661 31.4649C99.4684 31.5532 99.3899 31.6734 99.3312 31.8198C99.3711 31.7916 99.4145 31.7697 99.4604 31.7633C99.5484 31.751 99.6529 31.7855 99.6894 31.8266C99.7144 31.8558 99.721 31.8975 99.7058 31.9335C99.699 31.9492 99.6821 31.9586 99.667 31.955C99.6666 31.955 99.6662 31.9548 99.6655 31.9547C99.6503 31.9502 99.6437 31.9332 99.6505 31.9168C99.6563 31.9029 99.6526 31.8845 99.6411 31.8711C99.6198 31.8466 99.5337 31.814 99.4596 31.8242C99.4009 31.8323 99.3412 31.8686 99.3035 31.919C99.302 31.921 99.2996 31.9198 99.298 31.9214C99.2639 32.0297 99.238 32.1401 99.2165 32.2534C99.2091 32.2942 99.1488 32.2919 99.1569 32.2509" fill="#E17659"/>
<path d="M96.3402 31.9687C96.3236 32.0744 96.2263 32.1586 96.1232 32.1581C96.0215 32.1576 95.9509 32.0727 95.9675 31.967C96.0071 31.7143 96.3794 31.7183 96.3402 31.9687Z" fill="#111D33"/>
<path d="M95.7881 31.934C95.9188 31.8968 96.05 31.8613 96.1796 31.8197L96.1429 31.8182C96.2239 31.8706 96.2982 31.9335 96.381 31.9832C96.4675 32.0269 96.5606 32.0606 96.6706 32.0681C96.6746 32.0684 96.6786 32.0653 96.6795 32.0612C96.6798 32.0592 96.6796 32.0572 96.6785 32.0559C96.5411 31.8513 96.3529 31.8129 96.1956 31.7368L96.191 31.7344C96.1622 31.7205 96.1283 31.7474 95.785 31.9213C95.7815 31.9231 95.7796 31.9273 95.7808 31.9307C95.7819 31.9336 95.785 31.9348 95.7881 31.934Z" fill="#111D33"/>
<path d="M94.668 31.9353C94.6514 32.0409 94.5542 32.1251 94.4512 32.1246C94.3494 32.1241 94.2788 32.0392 94.2953 31.9336C94.3119 31.8279 94.4091 31.7437 94.5108 31.7441C94.6139 31.7446 94.6845 31.8295 94.668 31.9353Z" fill="#111D33"/>
<path d="M94.4771 31.9732C94.4728 32.0008 94.4474 32.0228 94.4205 32.0227C94.394 32.0226 94.3756 32.0004 94.3799 31.9728C94.3842 31.9453 94.4095 31.9233 94.436 31.9234C94.463 31.9236 94.4814 31.9458 94.4771 31.9732Z" fill="#FBFBFB"/>
<path d="M96.1295 31.9807C96.1252 32.0083 96.0998 32.0303 96.0729 32.0302C96.0464 32.03 96.0279 32.0078 96.0322 31.9803C96.0366 31.9528 96.062 31.9308 96.0885 31.9309C96.1153 31.931 96.1338 31.9532 96.1295 31.9807Z" fill="#FBFBFB"/>
<path d="M94.1163 31.9007C94.2469 31.8636 94.3781 31.8281 94.5078 31.7864L94.471 31.7849C94.552 31.8374 94.6263 31.9003 94.7091 31.9499C94.7956 31.9936 94.8888 32.0273 94.9987 32.0349C95.0027 32.0352 95.0067 32.0321 95.0075 32.0279C95.008 32.0258 95.0077 32.024 95.0067 32.0226C94.9481 31.9353 94.8729 31.8742 94.7911 31.8229C94.75 31.8013 94.54 31.7098 94.5191 31.7012C94.5092 31.6964 94.4974 31.6971 94.487 31.7018C94.3615 31.7604 94.2376 31.825 94.1131 31.888C94.1096 31.8898 94.1077 31.894 94.1089 31.8974C94.11 31.9003 94.1131 31.9017 94.1163 31.9007Z" fill="#111D33"/>
<path d="M94.4783 30.2398C95.1902 30.3079 95.5857 29.1381 97.3885 29.3826C97.6464 29.4172 97.8015 29.5476 97.7528 29.9365C97.6665 30.6433 98.0499 30.7622 98.3881 30.9226C98.7243 31.0832 98.067 32.2685 98.3927 32.3913C98.562 32.4568 98.9062 31.7325 98.9062 31.7325C98.9062 31.7325 99.3688 30.5651 99.9638 30.7665C100.485 30.9445 100.138 31.9576 99.747 32.5668C99.7999 32.5022 100.059 32.1749 100.367 31.7243C100.423 31.415 100.705 31.1296 100.705 30.8201C100.703 30.5063 100.396 30.3166 100.086 30.3006C99.7781 30.2845 99.4592 30.3918 99.144 30.4364C98.8305 30.4832 98.4823 30.4523 98.3069 30.2172C98.1044 29.9464 98.2082 29.518 98.1077 29.1828C97.9732 28.7387 97.4912 28.519 97.0107 28.5252C96.0546 28.5334 95.1199 29.2441 94.462 28.9635C94.1461 28.8302 93.9782 28.4823 93.9489 28.1223C93.9348 27.9381 94.0034 27.6707 94.025 27.4281C93.4992 28.2841 93.7408 30.1694 94.4783 30.2398Z" fill="#51383C"/>
<path d="M99.5744 28.2857C99.6351 28.2504 100.321 27.8748 100.926 28.1788C101.541 28.4891 101.448 29.5619 101.442 29.6267C101.444 29.6247 101.444 29.6247 101.445 29.6226C101.474 29.5138 101.499 29.4074 101.515 29.3049C101.625 28.6004 101.379 28.0343 100.387 27.9357C100.387 27.9357 100.036 27.9091 99.5744 28.2857Z" fill="#51383C"/>
<path d="M95.4085 33.7025C95.0596 33.822 94.7485 33.8298 94.4852 33.6958C94.4423 33.674 94.3872 33.7223 94.3958 33.7715C94.4249 33.9371 94.5149 34.1961 94.7947 34.2182C95.0643 34.2396 95.3228 33.9707 95.4631 33.7921C95.501 33.744 95.4642 33.6834 95.4085 33.7025Z" fill="#E17659"/>
<path d="M112.675 53.649L112.275 56.2019C112.227 56.5079 111.946 56.7548 111.648 56.7534L61.8231 56.5297C61.5246 56.5284 61.3215 56.2793 61.3694 55.9734L61.7696 53.4205C61.8176 53.1146 62.0984 52.8677 62.3969 52.869L112.222 53.0927C112.52 53.094 112.723 53.3431 112.675 53.649Z" fill="#BE7D5A"/>
<path d="M112.676 53.6491L112.276 56.202C112.228 56.508 111.947 56.7549 111.649 56.7535L96.8482 56.6871C96.6113 56.686 96.4502 56.4883 96.4883 56.2456L96.9242 53.464C96.9623 53.2212 97.1852 53.0253 97.422 53.0263L112.223 53.0928C112.521 53.0941 112.724 53.3432 112.676 53.6491Z" fill="#A96256"/>
<path d="M109.576 56.7441L107.382 56.7343L103.396 82.1661L105.59 82.1759L109.576 56.7441Z" fill="#BE7D5A"/>
<path d="M108.307 56.7384L107.382 56.7343L103.396 82.1661L104.32 82.1702L108.307 56.7384Z" fill="#A96256"/>
<path d="M101.629 56.7085L99.4345 56.6986L95.4483 82.1304L97.6424 82.1403L101.629 56.7085Z" fill="#BE7D5A"/>
<path d="M100.359 56.7028L99.4345 56.6986L95.4483 82.1304L96.373 82.1346L100.359 56.7028Z" fill="#A96256"/>
<path d="M69.984 51.8211L67.2506 42.7407C67.0933 42.218 67.5571 41.6194 68.1176 41.622L83.0962 41.6892C83.5837 41.6914 83.982 41.9829 84.1188 42.4374L87.2925 52.9807L71.4717 52.9097C70.7626 52.9065 70.1831 52.4825 69.984 51.8211Z" fill="#F2F0FB"/>
<path d="M69.5615 50.4133L69.985 51.8209C70.1836 52.4819 70.7633 52.9066 71.4726 52.9098L87.2929 52.9808L86.5584 50.5391C81.2921 52.5465 74.1846 52.5121 69.5615 50.4133Z" fill="#CFCDF1"/>
<path d="M83.1006 41.6883C83.5878 41.6904 83.9863 41.9813 84.1236 42.4369L87.2967 52.9803L95.2487 53.016L95.2893 52.7568C95.4045 52.0219 94.9184 51.4201 94.202 51.4169L87.7096 51.3878L85.0175 42.4409C84.8802 41.9853 84.4816 41.6944 83.9945 41.6922L83.1006 41.6883Z" fill="url(#paint6_linear_61_3125)"/>
<path d="M75.3701 47.2505C75.4774 47.9379 76.1369 48.4991 76.844 48.5023C77.5511 48.5054 78.0361 47.9494 77.9288 47.262C77.8212 46.5732 77.1617 46.0121 76.4546 46.0089C75.7475 46.0057 75.2625 46.5617 75.3701 47.2505Z" fill="#4C5C75"/>
<path d="M75.9344 47.2528C75.9943 47.6367 76.3626 47.9501 76.7575 47.9518C77.1524 47.9536 77.4233 47.6431 77.3633 47.2592C77.3032 46.8745 76.9349 46.5612 76.5401 46.5594C76.1452 46.5576 75.8743 46.8681 75.9344 47.2528Z" fill="white"/>
<path d="M74.6442 56.5874L72.4502 56.5775L68.4639 82.0094L70.658 82.0192L74.6442 56.5874Z" fill="#BE7D5A"/>
<path d="M73.3749 56.5817L72.4502 56.5775L68.4639 82.0094L69.3887 82.0135L73.3749 56.5817Z" fill="#A96256"/>
<path d="M66.697 56.5516L64.5029 56.5417L60.5166 81.9736L62.7107 81.9834L66.697 56.5516Z" fill="#BE7D5A"/>
<path d="M65.4277 56.5459L64.5029 56.5417L60.5166 81.9736L61.4414 81.9777L65.4277 56.5459Z" fill="#A96256"/>
<path d="M31.2467 19.9318C31.0882 20.3467 30.7678 20.6332 30.5303 20.5738C30.2929 20.5145 30.228 20.1318 30.3865 19.7169C30.545 19.3019 30.8659 19.014 31.1034 19.0733C31.3408 19.1327 31.4051 19.5168 31.2467 19.9318Z" fill="#497BFD"/>
<path d="M17.0453 80.5972C16.6972 79.5946 16.3674 79.8739 15.0716 79.8681C14.3864 79.865 14.2706 79.3772 14.3123 78.9179L11.0864 78.8124C10.5525 79.516 10.1211 80.9082 9.99067 81.7794C9.92746 82.2017 10.2108 82.5417 10.623 82.5436L16.0004 82.5677C16.2829 82.569 16.5647 82.4074 16.7353 82.1512C16.9859 81.7751 17.2516 81.1919 17.0453 80.5972Z" fill="#F45170"/>
<path d="M12.0017 82.549L10.6219 82.5428C10.2094 82.5409 9.92663 82.2003 9.9929 81.7775C10.1193 80.9057 10.5516 79.5133 11.0846 78.8109L12.4375 78.8585C11.913 79.5717 11.4967 80.9277 11.3676 81.7837C11.3064 82.2065 11.5893 82.5471 12.0017 82.549Z" fill="#D12057"/>
<path d="M17.0362 81.5323C16.9618 81.7683 16.8483 81.9814 16.7353 82.151C16.5646 82.4073 16.2829 82.5688 16.0003 82.5676L10.6229 82.5433C10.2108 82.5414 9.92734 82.2017 9.9906 81.7792C10.0036 81.6923 10.0218 81.5971 10.0406 81.5009L17.0362 81.5323Z" fill="#D12057"/>
<path d="M31.4371 80.4662C31.0547 79.3648 29.8458 79.6678 28.4224 79.6614C27.6696 79.658 27.5425 79.1221 27.5881 78.6175L24.8907 78.5054C24.304 79.2783 23.8301 80.8079 23.687 81.765C23.6174 82.229 23.9287 82.6025 24.3815 82.6045L30.2894 82.631C30.5997 82.6324 30.9093 82.455 31.0968 82.1734C31.3719 81.7602 31.6639 81.1196 31.4371 80.4662Z" fill="#F45170"/>
<path d="M26.125 82.6117L24.3798 82.6039C23.9267 82.6018 23.6159 82.2276 23.6831 81.7631C23.8276 80.8054 24.3025 79.2756 24.888 78.504L26.5843 78.5745C26.0239 79.3637 25.5693 80.8362 25.4339 81.7709C25.3611 82.2354 25.6719 82.6097 26.125 82.6117Z" fill="#D12057"/>
<path d="M31.4259 81.4938C31.3442 81.7531 31.2193 81.9872 31.0954 82.1735C30.9078 82.4551 30.5983 82.6325 30.2879 82.6311L24.3801 82.6045C23.9273 82.6024 23.616 82.2292 23.6856 81.765C23.6997 81.6695 23.7196 81.565 23.7404 81.4593L31.4259 81.4938Z" fill="#D12057"/>
<path d="M23.9169 78.7948C23.866 74.9238 23.1615 71.7735 22.5661 68.2102L22.5667 68.2062C22.2067 66.05 21.8868 63.741 21.7761 61.0234C20.1865 65.5281 16.962 73.0237 15.1427 77.7836C15.1361 77.8001 15.1348 77.8083 15.1241 77.8249C15.013 78.122 14.9025 78.4151 14.8026 78.6919C14.5096 79.4803 12.2478 79.7018 11.0559 79.378C11.0128 79.3695 10.9744 79.357 10.9327 79.3403C10.8445 79.311 10.761 79.2775 10.6902 79.2398C10.4132 79.1023 10.265 78.9155 10.3395 78.6719C10.3508 78.6511 10.3534 78.6346 10.3607 78.614C11.2038 75.8347 12.1824 71.5217 13.0002 67.6172C13.9997 62.862 14.7617 58.7216 14.7617 58.7216C14.7617 58.7216 14.5732 51.8931 16.3769 45.2762C16.4965 44.8218 16.6323 44.3677 16.7721 43.9134L28.8834 43.8146L29.9134 43.807C29.9134 43.807 29.9143 43.8524 29.9255 43.9352C29.9302 44.0344 29.9425 44.1875 29.9511 44.3901C29.9605 44.5101 29.968 44.6426 29.9763 44.7955C29.9803 44.8989 29.9836 45.0065 29.9897 45.1222C29.9904 45.143 29.9906 45.1679 29.9954 45.1885C30.0017 45.4573 30.0149 45.7592 30.031 46.0943C30.125 48.8407 30.1575 53.704 29.5129 58.6142C29.2031 61.003 28.9387 63.1275 28.7356 65.1695C28.3 69.4931 28.1389 73.4294 28.3862 78.6989C28.4373 79.8655 23.9305 79.9693 23.9169 78.7948Z" fill="#4C5C75"/>
<path d="M21.7715 61.0238C21.7715 61.0238 23.8441 54.7763 24.2792 50.8165L22.5621 68.2065C22.202 66.0503 21.8821 63.7413 21.7715 61.0238Z" fill="#111D33"/>
<path d="M29.9763 44.7955C29.7823 45.0553 29.5781 45.3025 29.3506 45.4669C27.1293 47.0526 24.6348 46.4006 22.3673 46.4155C20.8689 46.4253 19.1998 46.7777 18.0461 47.9345C16.6867 49.2973 16.4579 51.2978 16.2809 53.0959C15.5539 60.5653 14.1593 68.0732 12.1197 75.4997C11.7711 76.7717 11.3749 78.0891 10.6902 79.2398C10.4132 79.1023 10.265 78.9155 10.3395 78.6719C10.3508 78.6511 10.3534 78.6346 10.3607 78.614C11.2038 75.8347 12.1824 71.5217 13.0002 67.6172C13.9997 62.862 14.7617 58.7216 14.7617 58.7216C14.7617 58.7216 14.5732 51.8931 16.3769 45.2762C16.4965 44.8218 16.6323 44.3677 16.7721 43.9134L28.8834 43.8146L29.9134 43.807C29.9134 43.807 29.9143 43.8524 29.9255 43.9352C29.9302 44.0344 29.9425 44.1875 29.9511 44.3901C29.9605 44.5101 29.968 44.6426 29.9763 44.7955Z" fill="#111D33"/>
<path d="M8.57713 55.8842L7.7205 61.3493C7.57256 62.2931 8.19905 63.0615 9.11986 63.0657L21.6498 63.1219C22.5706 63.1261 23.437 62.3644 23.5849 61.4206L24.4415 55.9554L8.57713 55.8842Z" fill="#BB6542"/>
<path d="M7.75877 61.0953L7.71895 61.3494C7.57102 62.2931 8.19751 63.0616 9.11831 63.0657L21.6483 63.1219C22.5691 63.1261 23.4354 62.3644 23.5834 61.4206L23.6232 61.1666C23.4752 62.1103 22.6089 62.8721 21.6881 62.8679L9.1581 62.8117C8.23732 62.8075 7.61083 62.0391 7.75877 61.0953Z" fill="#A44C30"/>
<path d="M8.57713 55.8842L8.2444 58.0069C8.52871 58.3219 8.9397 58.512 9.42612 58.5142L22.7668 58.5741C23.2532 58.5763 23.7232 58.3902 24.1088 58.0781L24.4415 55.9554L8.57713 55.8842Z" fill="#A44C30"/>
<path d="M8.35845 53.3007L7.93333 56.0129C7.76623 57.079 8.47486 57.9482 9.51498 57.9529L22.8556 58.0128C23.8957 58.0175 24.8757 57.1558 25.0428 56.0898L25.4679 53.3775C25.6276 52.3585 24.9523 51.5302 23.9612 51.5258L10.4462 51.4651C9.45195 51.4606 8.51817 52.2817 8.35845 53.3007Z" fill="#BB6542"/>
<path opacity="0.2" d="M8.35845 53.3007L8.26999 53.8651C8.42972 52.846 9.364 52.0219 10.3582 52.0264L23.8732 52.0871C24.8644 52.0915 25.5392 52.9228 25.3794 53.9419L25.4679 53.3775C25.6276 52.3585 24.9523 51.5302 23.9612 51.5258L10.4462 51.4651C9.45195 51.4606 8.51817 52.2817 8.35845 53.3007Z" fill="white"/>
<path d="M21.5556 51.515L20.3643 59.1155C20.2778 59.6674 20.645 60.1177 21.1834 60.1201C21.7218 60.1225 22.2325 59.6762 22.319 59.1243L23.5104 51.5238L21.5556 51.515Z" fill="#A44C30"/>
<path d="M10.8935 51.4673L9.7022 59.0678C9.6157 59.6197 9.98286 60.07 10.5213 60.0724C11.0597 60.0748 11.5674 59.6284 11.6539 59.0766L12.8452 51.476L10.8935 51.4673Z" fill="#A44C30"/>
<path d="M20.3466 58.5662C20.1021 58.5651 19.9351 58.3603 19.9744 58.1095L20.2359 56.4413C20.2751 56.1909 20.5061 55.9878 20.7506 55.9889L21.3086 55.9914C21.3918 55.7353 21.6408 55.5409 21.9028 55.5421C22.1648 55.5433 22.3526 55.7396 22.3554 55.9961L22.9164 55.9987C23.1593 55.9997 23.325 56.2046 23.2857 56.455L23.0242 58.1232C22.9849 58.374 22.7553 58.577 22.5125 58.5759L20.3466 58.5662ZM22.1292 57.613L22.2326 56.9534L22.2131 56.9533L22.1974 57.0538C22.1504 57.3539 21.8738 57.5971 21.5809 57.5958C21.288 57.5945 21.0881 57.3491 21.1351 57.049L21.1509 56.9486L21.1315 56.9485L21.0281 57.6081L22.1292 57.613Z" fill="#A44C30"/>
<path d="M9.68645 58.5184C9.44195 58.5173 9.27495 58.3124 9.31426 58.0617L9.57573 56.3935C9.61499 56.143 9.84592 55.94 10.0904 55.9411L10.6485 55.9436C10.7316 55.6875 10.9807 55.4931 11.2427 55.4943C11.5047 55.4954 11.6924 55.6918 11.6953 55.9483L12.2563 55.9508C12.4993 55.9519 12.6649 56.1567 12.6257 56.4072L12.3642 58.0754C12.3249 58.3262 12.0953 58.5292 11.8523 58.5281L9.68645 58.5184ZM11.469 57.5651L11.5724 56.9056L11.553 56.9055L11.5372 57.0059C11.4902 57.306 11.2136 57.5493 10.9208 57.548C10.6278 57.5467 10.4279 57.3012 10.4749 57.0012L10.4907 56.9007L10.4712 56.9006L10.3679 57.5602L11.469 57.5651Z" fill="#A44C30"/>
<path d="M14.8662 53.2507L14.5735 55.1181C14.5583 55.2146 14.6224 55.2931 14.7165 55.2936L18.4923 55.3105C18.5864 55.3109 18.6749 55.2331 18.69 55.1366L18.9827 53.2692C18.9978 53.1727 18.9338 53.0942 18.8397 53.0938L15.0639 53.0768C14.9698 53.0764 14.8813 53.1542 14.8662 53.2507Z" fill="#A44C30"/>
<path d="M14.866 53.2516L14.8645 53.261L18.5783 53.2776C18.6731 53.2781 18.7373 53.3568 18.7226 53.4509L18.4311 55.3102L18.4923 55.3105C18.5871 55.3109 18.6759 55.2329 18.6911 55.1358L18.9835 53.2702C18.9988 53.1729 18.9346 53.0942 18.8397 53.0938L15.0648 53.0768C14.97 53.0764 14.8812 53.1544 14.866 53.2516Z" fill="#812D1C"/>
<path d="M19.2063 50.9865L19.1252 51.5042L21.4684 51.5148L21.5496 50.997C21.5785 50.8122 21.4559 50.6617 21.2756 50.6609L19.5852 50.6533C19.4049 50.6525 19.2353 50.8017 19.2063 50.9865Z" fill="#A44C30"/>
<path d="M13.2844 50.9597L13.2033 51.4775L15.5466 51.488L15.6277 50.9703C15.6567 50.7855 15.534 50.635 15.3537 50.6342L13.6634 50.6266C13.483 50.6258 13.3134 50.7749 13.2844 50.9597Z" fill="#A44C30"/>
<path d="M21.4966 51.3404L19.1533 51.3298L19.126 51.5041L21.4692 51.5146L21.4966 51.3404Z" fill="#812D1C"/>
<path d="M15.5727 51.3137L13.2295 51.3032L13.2022 51.4775L15.5454 51.488L15.5727 51.3137Z" fill="#812D1C"/>
<path d="M14.1248 50.6288L14.8896 50.6323L15.0187 49.8086C15.0473 49.6258 15.2156 49.4779 15.3938 49.4787L19.9505 49.4992C20.1287 49.5 20.2505 49.6491 20.2218 49.8319L20.0927 50.6556L20.8575 50.659L20.9866 49.8354C21.083 49.2205 20.6733 48.718 20.0734 48.7153L15.5167 48.6948C14.9168 48.6921 14.3503 49.1903 14.2539 49.8051L14.1248 50.6288Z" fill="#BB6542"/>
<path d="M21.878 51.4089L20.6699 59.1163C20.6105 59.4958 20.8624 59.8049 21.2327 59.8066C21.603 59.8082 21.9514 59.5019 22.0109 59.1223L23.219 51.4149C23.2362 51.3053 23.1634 51.216 23.0563 51.2155L22.1029 51.2112C21.9959 51.2107 21.8952 51.2993 21.878 51.4089Z" fill="#812D1C"/>
<path d="M11.2159 51.3611L10.0078 59.0685C9.94835 59.448 10.2003 59.757 10.5706 59.7587C10.9409 59.7604 11.2893 59.454 11.3488 59.0745L12.5569 51.3671C12.5741 51.2574 12.5012 51.1681 12.3942 51.1676L11.4408 51.1633C11.3338 51.1629 11.2331 51.2514 11.2159 51.3611Z" fill="#812D1C"/>
<path d="M20.5389 56.443L20.2775 58.1112C20.2652 58.1896 20.3165 58.2525 20.393 58.2529L22.5589 58.2626C22.6323 58.2629 22.7033 58.2005 22.7156 58.1221L22.977 56.454C22.9893 56.3756 22.938 56.3126 22.8645 56.3123L22.0053 56.3085L22.0399 56.0877C22.0599 55.9603 21.9753 55.8565 21.8509 55.8559C21.7265 55.8554 21.6094 55.9583 21.5895 56.0857L21.5549 56.3064L20.6987 56.3026C20.6222 56.3022 20.5512 56.3646 20.5389 56.443ZM20.857 56.7284C20.8653 56.6756 20.9125 56.634 20.9613 56.6342L21.5031 56.6366L21.4382 57.0507C21.4182 57.1782 21.5029 57.282 21.6273 57.2826C21.7517 57.2832 21.8687 57.1802 21.8887 57.0527L21.9536 56.6387L22.4954 56.6411C22.5442 56.6413 22.5783 56.6832 22.5701 56.7361L22.3976 57.8365C22.3893 57.8893 22.3425 57.9279 22.2937 57.9277L20.7597 57.9208C20.7109 57.9206 20.6763 57.8816 20.6846 57.8288L20.857 56.7284Z" fill="#DB910F"/>
<path d="M9.87682 56.3952L9.61536 58.0633C9.60307 58.1417 9.65442 58.2047 9.7309 58.205L11.8967 58.2147C11.9701 58.2151 12.0411 58.1527 12.0534 58.0743L12.3149 56.4061C12.3272 56.3277 12.2758 56.2648 12.2024 56.2645L11.3432 56.2606L11.3778 56.0399C11.3978 55.9124 11.3131 55.8086 11.1887 55.8081C11.0643 55.8075 10.9473 55.9104 10.9274 56.0379L10.8928 56.2586L10.0366 56.2547C9.96011 56.2544 9.88911 56.3168 9.87682 56.3952ZM10.1949 56.6805C10.2032 56.6277 10.2504 56.5861 10.2992 56.5864L10.841 56.5888L10.7761 57.0029C10.7561 57.1303 10.8407 57.2342 10.9651 57.2347C11.0895 57.2353 11.2066 57.1324 11.2265 57.0049L11.2914 56.5908L11.8333 56.5933C11.8821 56.5935 11.9162 56.6354 11.9079 56.6882L11.7355 57.7886C11.7272 57.8414 11.6804 57.8801 11.6316 57.8799L10.0975 57.873C10.0488 57.8728 10.0142 57.8337 10.0224 57.7809L10.1949 56.6805Z" fill="#DB910F"/>
<path d="M38.4479 37.867C38.4366 37.9102 37.7092 40.6937 37.75 40.5374C37.75 40.5374 30.4635 40.7081 29.9264 39.5109C29.2248 37.9486 30.0826 31.7842 30.0826 31.7842L33.5944 31.2488C33.3361 38.9283 33.419 36.4615 33.3982 37.0801L38.4479 37.867Z" fill="#F7A386"/>
<path d="M37.9403 39.8095L37.75 40.5374C37.75 40.5374 30.4635 40.7081 29.9264 39.5109C29.2248 37.9486 30.0826 31.7842 30.0826 31.7842L33.5944 31.2488L33.5416 32.8077C32.8313 33.0578 32.0397 33.0381 31.3873 33.4889C30.5267 34.0903 30.2177 35.3199 30.84 36.2003C31.0912 36.5564 31.4764 36.823 31.6001 37.2565C31.7806 37.8867 31.393 38.784 31.879 39.1885C32.3302 39.5644 33.115 39.1372 33.7105 39.2701C34.1274 39.3641 34.401 39.7251 34.7795 39.9018C35.7369 40.3441 36.9555 39.5835 37.9403 39.8095Z" fill="url(#paint7_linear_61_3125)"/>
<path d="M30.0655 43.8887C29.9623 44.0728 29.8276 44.2327 29.6562 44.3523C27.0579 46.1943 17.4913 46.0671 15.351 44.288C14.0598 43.211 17.0297 38.8228 17.3182 36.9824C17.5273 35.6232 17.1055 33.3945 16.7036 31.2381C16.2213 28.6961 15.7676 26.2466 16.4271 25.4351C17.3592 24.2837 20.8225 23.5409 23.4122 23.2516C24.9105 23.0898 26.4867 23.0217 28.7165 23.3757C30.9189 23.7347 33.0762 24.5308 32.7496 26.1904C32.2995 28.4874 29.9013 34.3226 29.8005 37.0385C29.7436 38.6752 30.9489 42.3238 30.0655 43.8887Z" fill="#F45170"/>
<path d="M30.0667 43.8886C29.9617 44.0728 29.8261 44.2307 29.6573 44.3505C27.0555 46.1937 17.4914 46.0657 15.3512 44.2863C14.0608 43.2111 17.0295 38.8212 17.3179 36.9817C17.5287 35.6222 17.1042 33.3963 16.7014 31.2391C17.5184 30.9163 18.4496 31.396 18.6426 32.1824C18.7532 32.6253 18.4881 33.2417 18.4551 33.7171C18.409 34.3652 18.4657 35.0042 18.6314 35.5964C18.7619 36.075 18.9622 36.5349 18.9529 37.0507C18.9352 37.9 18.3655 38.7067 17.9315 39.502C17.4998 40.2974 17.204 41.3158 17.7024 41.9214C18.1155 42.4225 18.9001 42.4236 19.6012 42.325C20.3018 42.2288 21.0536 42.0713 21.6439 42.3555C22.2619 42.6541 22.5374 43.3556 22.9645 43.8852C23.7344 44.835 25.1064 45.2268 26.4184 44.8683C27.1879 44.6565 27.9127 44.2149 28.6771 43.977C29.138 43.8348 29.6425 43.7826 30.0667 43.8886Z" fill="#DF3260"/>
<path d="M32.6706 25.2997C33.0038 25.8338 34.2782 30.3499 33.8152 31.4616C33.3332 32.6187 30.1685 33.7211 29.1892 33.2078C28.3367 32.761 28.54 29.2363 28.54 29.2363C28.54 29.2363 31.9735 24.1828 32.6706 25.2997Z" fill="#F45170"/>
<path d="M18.3114 46.7453L16.1931 47.7634L15.5079 48.0845C15.5079 48.0845 12.5242 40.2586 12.5176 38.2686C12.5092 36.3049 13.4554 32.1236 14.1956 30.1112L18.3609 30.8846L17.5378 33.9117L16.3087 38.4252L18.3114 46.7453Z" fill="#F7A386"/>
<path d="M15.4461 47.8433C15.3331 48.8976 15.4976 49.4874 15.6861 49.8093C15.8522 50.1089 16.3523 50.9912 16.7484 50.8925C17.0023 50.829 16.789 50.0871 16.8824 49.994C16.881 50.4754 17.2074 51.0351 17.4475 50.9543C17.6911 50.8727 17.5806 50.171 17.6741 50.078C17.6686 50.2878 17.7766 50.9796 18.1597 50.9213C18.5167 50.867 18.2014 49.9079 18.2983 49.8153C18.2928 50.0249 18.5528 50.8995 18.8305 50.8635C19.4416 50.7843 18.8536 48.492 18.8536 48.492C18.8536 48.492 19.7639 48.8143 20.0709 48.548C20.6257 48.0666 18.9633 47.0945 18.3097 46.7455L15.4461 47.8433Z" fill="#F7A386"/>
<path d="M15.5079 48.0846C15.5079 48.0846 12.5242 40.2587 12.5176 38.2688C12.5092 36.305 13.4554 32.1237 14.1956 30.1113L18.3609 30.8847L17.5378 33.9119C17.3754 33.9466 17.2103 33.9696 17.0384 33.9758C16.5461 33.9949 16.1839 33.7141 15.7083 33.6552C15.0697 33.5767 14.6261 33.5202 14.1227 34.1544C12.9462 35.6374 14.6032 36.9059 14.6695 38.295C14.7333 39.6108 13.9366 40.8942 13.7513 42.209C13.6908 42.6534 14.0414 42.9058 14.2712 43.2216C14.4921 43.5207 14.7439 43.7845 14.951 44.0977C15.408 44.7906 14.9619 46.0899 15.562 46.6653C15.7846 46.8792 15.5079 48.0846 15.5079 48.0846Z" fill="url(#paint8_linear_61_3125)"/>
<path d="M16.4286 25.4356C15.9285 25.9659 13.5226 30.0957 13.6367 31.21C13.7555 32.3698 16.5704 33.4991 17.7091 32.9953C18.7005 32.5567 19.6016 29.0352 19.6016 29.0352C19.6016 29.0352 17.4745 24.3265 16.4286 25.4356Z" fill="#F45170"/>
<path d="M28.7165 23.3758L28.7115 23.4079L26.4341 27.7554C26.377 27.8642 26.2327 27.8859 26.1768 27.7941L23.4123 23.2517C24.9106 23.0899 26.4867 23.0218 28.7165 23.3758Z" fill="#DF3260"/>
<path d="M28.4926 19.8154L27.9526 23.2604C27.9307 23.3021 26.1723 26.6543 26.2835 26.4423L24.1855 23.3191L24.7373 19.7986L28.4926 19.8154Z" fill="url(#paint9_linear_61_3125)"/>
<path d="M26.4298 26.1638L26.2842 26.4423L24.1861 23.3191L24.7451 19.7529L26.2652 19.7598C26.4314 20.6052 25.6441 21.3456 25.9228 21.7528C26.0302 21.907 26.251 21.927 26.4138 22.0223C26.6718 22.1726 26.7668 22.509 26.7368 22.833C26.6717 23.4863 26.1853 24.0978 26.1437 24.7467C26.1132 25.2564 26.3731 25.7371 26.4298 26.1638Z" fill="url(#paint10_linear_61_3125)"/>
<path d="M32.4023 16.7922C32.4023 16.7922 30.5917 24.0822 28.2212 23.5239C27.04 23.2457 26.1573 22.4042 25.569 21.6299C24.8451 20.6771 24.5122 19.4311 24.7511 18.1279C24.8792 17.4287 25.161 16.8116 25.755 16.7933C26.9671 16.7561 26.4606 18.054 26.4606 18.054C26.4606 18.054 27.524 14.1019 29.183 13.9378C30.842 13.7735 32.5609 15.2035 32.4023 16.7922Z" fill="url(#paint11_linear_61_3125)"/>
<path d="M32.6368 17.9333C30.9258 19.2175 28.7772 15.4152 28.7772 15.4152C28.7189 17.7312 27.2455 17.2347 27.2455 17.2347C27.2455 17.2347 26.8781 18.4445 26.6635 18.8127C26.3483 19.3507 26.0975 19.2573 26.2844 18.4773C26.2844 18.4773 26.8215 16.8472 25.8483 16.8855C24.7709 16.9256 24.685 19.0499 24.6792 19.1752C24.4263 17.6694 24.4142 15.6876 25.1201 14.1825C25.2974 13.8024 25.4912 13.5383 25.69 13.3593C26.5489 12.5777 27.4746 13.4171 27.4746 13.4171C27.4746 13.4171 27.4749 13.4147 27.4753 13.4124C27.4981 13.3107 27.8578 11.8406 29.9176 12.1456C32.3358 12.5068 34.3544 16.6461 32.6368 17.9333Z" fill="#4C5C75"/>
<path d="M29.3345 20.6752C29.3251 20.6636 29.3044 20.6761 29.3017 20.6959C29.2862 20.8112 29.2984 20.9213 29.3426 21.0004C29.3936 21.0915 29.491 21.1506 29.5951 21.1106C29.7196 21.0628 29.8491 20.9267 29.8065 20.8734C29.7757 20.8348 29.6508 20.9517 29.5964 20.9424C29.3767 20.9054 29.3715 20.7216 29.3345 20.6752Z" fill="#E27659"/>
<path d="M28.7008 19.6186C28.6544 19.7336 28.7051 19.8498 28.8129 19.8793C28.9192 19.9084 29.0441 19.8404 29.0904 19.7254C29.1368 19.6103 29.0861 19.4942 28.9799 19.4651C28.8721 19.4356 28.7472 19.5036 28.7008 19.6186Z" fill="#111D33"/>
<path d="M29.3052 19.7421C29.3023 19.7436 29.2976 19.7446 29.2956 19.7441C29.188 19.6704 29.0834 19.5999 28.9786 19.5246C28.7913 19.576 28.573 19.6805 28.2946 19.6257C28.2907 19.6247 28.2876 19.6215 28.2902 19.6153C28.291 19.6131 28.2919 19.6111 28.2938 19.6116C28.5573 19.4388 28.7784 19.4527 28.9888 19.4181L28.9955 19.4176C29.009 19.4167 29.0208 19.4199 29.0289 19.4268C29.1245 19.5251 29.2155 19.6291 29.3074 19.731C29.3085 19.7337 29.3088 19.7384 29.3052 19.7421Z" fill="#111D33"/>
<path d="M30.4742 20.0732C30.4279 20.1882 30.4786 20.3043 30.5864 20.3338C30.6926 20.363 30.8175 20.2949 30.8639 20.18C30.9103 20.0649 30.8596 19.9488 30.7533 19.9197C30.6455 19.8902 30.5206 19.9581 30.4742 20.0732Z" fill="#111D33"/>
<path d="M30.7187 20.1406C30.7066 20.1706 30.7198 20.2009 30.748 20.2086C30.7757 20.2162 30.8083 20.1984 30.8203 20.1684C30.8325 20.1384 30.8192 20.1081 30.7916 20.1006C30.7634 20.0928 30.7307 20.1106 30.7187 20.1406Z" fill="#FCFCFC"/>
<path d="M28.97 19.7214C29.037 19.7397 29.0806 19.6318 29.0136 19.6133C28.9854 19.6057 28.9024 19.7028 28.97 19.7214Z" fill="#FCFCFC"/>
<path d="M31.0791 20.1952C31.0754 20.1989 31.0726 20.2005 31.0696 20.1973C30.9631 20.1262 30.8545 20.0547 30.7497 19.9794C30.6394 20.0097 30.5316 20.0499 30.423 20.076C30.3054 20.0974 30.187 20.1045 30.0678 20.0811C30.0639 20.08 30.0616 20.0748 30.0633 20.0706C30.0641 20.0685 30.065 20.0664 30.0678 20.0648C30.1804 19.991 30.2969 19.9508 30.412 19.9195C30.5295 19.8982 30.6472 19.8931 30.7639 19.874L30.7687 19.873C30.783 19.8699 30.7939 19.8752 30.802 19.8821C30.8976 19.9804 30.9887 20.0844 31.0805 20.1863C31.0836 20.1895 31.0819 20.1937 31.0791 20.1952Z" fill="#111D33"/>
<path d="M28.8741 18.3502C29.246 18.3413 29.6179 18.4004 29.8695 18.6495C30.1299 18.9075 29.8003 19.2557 29.5414 19.0664C29.4807 19.022 29.4318 18.9607 29.3768 18.9081C28.9668 18.5162 28.4499 18.7718 28.3354 18.7637C28.2753 18.7594 28.2202 18.719 28.218 18.6471C28.2138 18.5132 28.3992 18.4566 28.4799 18.4219C28.6129 18.3648 28.7465 18.3533 28.8741 18.3502Z" fill="#111D33"/>
<path d="M30.5712 18.8792C30.4944 18.8944 30.4044 18.93 30.3572 19.0153C30.3157 19.0902 30.325 19.1798 30.3659 19.2281C30.4527 19.3304 30.6231 19.2689 30.7406 19.2475C31.3915 19.1289 31.4495 19.7593 31.655 19.5442C31.8419 19.3487 31.1848 18.7582 30.5712 18.8792Z" fill="#111D33"/>
<path d="M29.6623 21.8254C29.6938 21.8205 29.7164 21.8493 29.7009 21.8791C29.5625 22.1428 29.2771 22.2969 29.0339 22.2303C28.7914 22.1639 28.6748 21.8979 28.7573 21.6172C28.7663 21.5865 28.8046 21.5741 28.8265 21.5922C29.0733 21.7957 29.352 21.8734 29.6623 21.8254Z" fill="#E27659"/>
<path d="M25.949 17.4434C25.8054 17.2615 25.5714 17.1951 25.2989 17.3355C25.2579 17.3565 25.2802 17.4145 25.3208 17.3939C25.7103 17.1948 25.9923 17.4552 26.0282 17.8737C25.9949 17.8428 25.9556 17.8188 25.9083 17.8115C25.7901 17.7929 25.5717 17.8566 25.5867 17.9923C25.5887 18.0093 25.6037 18.0197 25.6211 18.016C25.6216 18.0159 25.6221 18.0158 25.6229 18.0156C25.6407 18.0108 25.6536 17.9927 25.6518 17.9749C25.6428 17.8915 25.9451 17.7955 26.0247 17.9807C26.0256 17.9828 26.0286 17.9816 26.0298 17.9832C26.0299 18.1002 26.0205 18.2192 26.0054 18.3415C26.0031 18.3599 26.0157 18.3741 26.0338 18.3736C26.0359 18.3735 26.0379 18.3733 26.0397 18.3728C26.0553 18.3696 26.0685 18.3558 26.0704 18.3395C26.0604 18.1282 26.1817 17.7402 25.949 17.4434Z" fill="#E27659"/>
<path d="M32.6357 17.9332C30.9248 19.2174 28.7762 15.4151 28.7762 15.4151C28.7178 17.7311 27.2445 17.2347 27.2445 17.2347C27.2445 17.2347 26.8771 18.4444 26.6624 18.8126C26.3473 19.3506 26.0964 19.2572 26.2833 18.4772C26.2833 18.4772 26.8204 16.8471 25.8473 16.8854C24.7699 16.9255 24.6839 19.0498 24.6781 19.1751C24.6698 19.1254 24.5888 18.6992 24.5463 18.072C24.7728 17.5457 25.2902 16.8138 25.8218 16.6651C26.0804 16.5906 26.3742 16.6747 26.4602 16.907C26.5102 17.0444 26.4839 17.2124 26.5167 17.3568C26.5491 17.5036 26.6874 17.6367 26.8343 17.5689C27.1654 17.4096 26.7891 16.8255 27.4826 16.6726C27.6385 16.6355 27.7984 16.6315 27.953 16.573C28.2725 16.4491 28.4931 16.1022 28.5611 15.7713C28.6268 15.4403 28.1932 14.79 28.5147 14.801C28.9307 14.8123 30.3044 15.8856 30.9504 16.6977C31.1588 16.9589 31.3523 17.2413 31.6397 17.4106C31.9271 17.5798 32.3405 17.6077 32.6436 17.3677C32.8066 17.2408 32.9143 17.0543 32.9878 16.8653C33.164 16.4189 33.1599 15.9291 32.9885 15.5356C32.9019 15.3365 32.7922 15.2414 32.9935 15.0766C33.4237 16.2049 33.4047 17.3569 32.6357 17.9332Z" fill="#111D33"/>
<path d="M38.205 37.2591C38.4342 37.1605 38.9107 36.9817 39.146 36.9783C39.5011 36.9732 39.9633 37.2186 40.5341 37.1243C41.1048 37.0301 40.5537 38.0323 39.6038 37.8537L39.5591 38.3035L37.8803 38.2085L37.6569 37.5721C37.6569 37.5721 38.062 37.3206 38.205 37.2591Z" fill="#E27659"/>
<path d="M44.6979 31.2998L37.0624 41.5012C36.9704 41.6241 36.8284 41.6988 36.688 41.6982L28.6817 41.6623C28.5666 41.6618 28.5159 41.5325 28.5912 41.4319L36.2267 31.2303C36.3187 31.1074 36.4607 31.0327 36.6012 31.0334L44.6074 31.0693C44.7225 31.0698 44.7732 31.199 44.6979 31.2998Z" fill="#8EB6FF"/>
<path d="M39.5169 39.218C39.5451 39.9658 38.8563 39.8539 38.8563 39.8539C38.9006 40.3959 38.2328 40.3858 38.2328 40.3858C38.2328 40.3858 38.0593 40.7564 37.7429 40.7574C37.5468 40.7565 37.4004 40.6896 37.2907 40.6086C37.1196 40.4778 37.049 40.3095 37.049 40.3095C36.5165 39.3181 36.4048 38.7498 36.6276 38.5212C36.8393 38.3045 36.985 38.6861 36.9971 38.7263C36.9853 38.6838 36.8375 38.1981 37.0692 38.0452C37.2982 37.895 37.437 38.2173 37.4502 38.2505C37.4374 38.2149 37.2844 37.7623 37.5655 37.6334C37.8488 37.5046 38.0455 38.0758 38.0455 38.0758C38.0946 37.527 38.437 37.5664 38.5325 37.6639C38.8212 37.9559 39.2794 38.2832 39.5188 38.0278L39.6339 37.8675C39.6339 37.8675 39.9182 38.219 39.9729 38.3707C40.1812 38.956 39.5169 39.218 39.5169 39.218Z" fill="#F7A386"/>
<path d="M38.0506 38.0745C38.1438 38.4848 38.3447 38.6363 38.6221 38.8041L38.6196 38.811C38.2581 38.7959 38.0773 38.406 38.0436 38.0764L38.0506 38.0745Z" fill="#E27659"/>
<path d="M37.4452 38.2242C37.5189 38.6487 37.7197 38.9165 38.0002 39.0588L37.9976 39.0657C37.6251 39.0482 37.4609 38.5956 37.4382 38.2258L37.4452 38.2242Z" fill="#E27659"/>
<path d="M36.9882 38.6649C37.0617 39.0886 37.2621 39.357 37.5432 39.4996L37.5406 39.5065C37.1677 39.4889 37.0038 39.0356 36.9812 38.6666L36.9882 38.6649Z" fill="#E27659"/>
<path d="M39.5188 39.2179C39.547 39.9657 38.8582 39.8538 38.8582 39.8538C38.9025 40.3958 38.2347 40.3857 38.2347 40.3857C38.2347 40.3857 38.0612 40.7563 37.7448 40.7573C37.5487 40.7564 37.4023 40.6895 37.2926 40.6086C37.5608 40.1163 38.1079 40.1454 38.4723 39.9158C38.6388 39.8129 38.7763 39.6624 39.4954 38.9552C39.9899 38.474 39.3909 38.4936 39.5207 38.0278L39.6359 37.8675C39.6359 37.8675 39.9201 38.2189 39.9748 38.3706C40.1832 38.9559 39.5188 39.2179 39.5188 39.2179Z" fill="url(#paint12_linear_61_3125)"/>
<path d="M114.059 13.7506L112.955 20.7925C112.91 21.0809 112.645 21.3136 112.364 21.3123L105.38 21.281L102.515 23.3305C102.331 23.4616 102.111 23.3418 102.144 23.1292L102.436 21.2678L101.184 21.2622C100.903 21.2609 100.712 21.0261 100.757 20.7378L101.861 13.6958C101.906 13.4075 102.17 13.1747 102.452 13.176L113.631 13.2262C113.913 13.2274 114.104 13.4622 114.059 13.7506Z" fill="#C6AEFF"/>
<path d="M105.483 17.1533C105.394 17.7215 104.871 18.1817 104.317 18.1792C103.759 18.1767 103.381 17.7125 103.47 17.1442C103.559 16.5731 104.083 16.1129 104.64 16.1154C105.194 16.1179 105.573 16.5821 105.483 17.1533Z" fill="white"/>
<path d="M108.429 17.1665C108.34 17.7347 107.816 18.1949 107.262 18.1924C106.705 18.1899 106.326 17.7256 106.415 17.1574C106.505 16.5862 107.028 16.126 107.585 16.1285C108.14 16.131 108.518 16.5953 108.429 17.1665Z" fill="white"/>
<path d="M111.372 17.1798C111.283 17.748 110.76 18.2082 110.205 18.2057C109.648 18.2032 109.269 17.739 109.359 17.1707C109.448 16.5995 109.971 16.1394 110.529 16.1419C111.083 16.1443 111.462 16.6086 111.372 17.1798Z" fill="white"/>
<path d="M12.1681 4.87448L11.1031 11.6691C11.0595 11.9474 11.2442 12.1739 11.5156 12.1751L18.2543 12.2053L20.3952 14.2048C20.5322 14.3328 20.7811 14.2193 20.8132 14.0142L21.0947 12.2181L22.3024 12.2235C22.5738 12.2247 22.8292 12.0002 22.8728 11.722L23.9378 4.92732C23.9814 4.64911 23.7967 4.42258 23.5253 4.42136L12.7385 4.37293C12.4671 4.37172 12.2117 4.5963 12.1681 4.87448Z" fill="#FFD375"/>
<path d="M19.4033 8.22732C19.3173 8.77559 19.6825 9.22353 20.2174 9.22593C20.7551 9.22835 21.2601 8.78431 21.3461 8.23604C21.4324 7.68494 21.0673 7.23699 20.5296 7.23458C19.9947 7.2322 19.4896 7.67622 19.4033 8.22732Z" fill="white"/>
<path d="M16.5634 8.21462C16.4775 8.76289 16.8427 9.21084 17.3776 9.21324C17.9153 9.21565 18.4203 8.77161 18.5062 8.22335C18.5926 7.67224 18.2274 7.2243 17.6897 7.22188C17.1548 7.21951 16.6498 7.66352 16.5634 8.21462Z" fill="white"/>
<path d="M13.7197 8.20193C13.6337 8.7502 13.9989 9.19814 14.5338 9.20054C15.0715 9.20296 15.5765 8.75892 15.6625 8.21065C15.7489 7.65955 15.3837 7.2116 14.846 7.20919C14.3111 7.20681 13.806 7.65083 13.7197 8.20193Z" fill="white"/>
<path d="M74.3507 32.8565L73.7974 32.6607C73.778 32.404 73.7173 32.1573 73.6177 31.9308L73.9834 31.3725C74.0254 31.3075 74.0262 31.2261 73.9826 31.1749L73.673 30.7928C73.6296 30.7396 73.5541 30.7271 73.4851 30.7614L72.8946 31.0438C72.6939 30.9045 72.4717 30.8017 72.2314 30.7374L72.1343 30.1404C72.1233 30.0711 72.0674 30.022 71.996 30.0217L71.4718 30.0193C71.4004 30.019 71.3272 30.0675 71.2945 30.1366L71.0125 30.732C70.7524 30.7939 70.4983 30.8946 70.2543 31.032L69.753 30.7446C69.6929 30.7098 69.6135 30.7216 69.5556 30.7743L69.1248 31.1531C69.0672 31.2038 69.0405 31.2851 69.064 31.3504L69.2543 31.9113C69.0835 32.1385 68.946 32.3822 68.8443 32.6384L68.2323 32.8291C68.161 32.8532 68.1031 32.9181 68.0916 32.9914L68.0074 33.5286C67.996 33.6019 68.0334 33.6672 68.0974 33.6899L68.6484 33.8878C68.6698 34.1445 68.7308 34.3891 68.8301 34.6176L68.4644 35.1759C68.4204 35.2409 68.4219 35.3203 68.4633 35.3734L68.7748 35.7556C68.8165 35.8067 68.892 35.8193 68.9626 35.787L69.5532 35.5046C69.7539 35.6439 69.9761 35.7467 70.2164 35.811L70.3119 36.406C70.3226 36.4773 70.3807 36.5244 70.4521 36.5247L70.9763 36.5271C71.0477 36.5274 71.1186 36.4809 71.1516 36.4097L71.4353 35.8164C71.6954 35.7544 71.9495 35.6538 72.1935 35.5164L72.6948 35.8038C72.7533 35.8366 72.8325 35.8247 72.8922 35.7741L73.3211 35.3952C73.381 35.3426 73.4054 35.2632 73.3838 35.198L73.1935 34.6372C73.3642 34.4099 73.5018 34.1662 73.6015 33.91L74.2158 33.7173C74.2868 33.6952 74.3446 33.6304 74.3561 33.5571L74.4403 33.0199C74.4518 32.9466 74.4144 32.8813 74.3507 32.8565ZM71.0182 34.5867C70.3114 34.5835 69.8299 33.9929 69.9434 33.2685C70.0573 32.5421 70.7232 31.9565 71.4299 31.9597C72.1367 31.9629 72.6182 32.5536 72.5043 33.28C72.3908 34.0044 71.7249 34.5898 71.0182 34.5867Z" fill="#F2F0FB"/>
<path d="M71.5277 31.332C70.4815 31.3273 69.4976 32.1923 69.3295 33.2647C69.1614 34.3371 69.8729 35.2098 70.9191 35.2145C71.9653 35.2192 72.9492 34.3541 73.1173 33.2817C73.2854 32.2093 72.5739 31.3367 71.5277 31.332ZM71.0177 34.5857C70.311 34.5825 69.8294 33.9919 69.943 33.2675C70.0568 32.5411 70.7227 31.9556 71.4295 31.9587C72.1362 31.9619 72.6177 32.5526 72.5039 33.279C72.3903 34.0034 71.7244 34.5889 71.0177 34.5857Z" fill="#CFCDF1"/>
<path d="M75.6588 37.943L75.4266 37.6917C75.479 37.5377 75.5082 37.3792 75.5127 37.2229L75.833 36.9891C75.87 36.9618 75.8902 36.9146 75.8805 36.8741L75.8167 36.5751C75.8076 36.5334 75.7725 36.5074 75.7293 36.5102L75.3623 36.5276C75.2947 36.3968 75.2072 36.2818 75.1013 36.1848L75.197 35.8136C75.2083 35.7706 75.1919 35.7282 75.1559 35.7103L74.8915 35.5787C74.8554 35.5608 74.8067 35.5708 74.7734 35.6029L74.4864 35.8789C74.3399 35.8503 74.187 35.8457 74.0303 35.8649L73.8466 35.5734C73.8247 35.5382 73.7817 35.5254 73.7396 35.5416L73.4299 35.6548C73.3885 35.6699 73.3553 35.7106 73.3513 35.7544L73.3115 36.1277C73.1701 36.2174 73.0415 36.3249 72.9279 36.4485L72.5723 36.4073C72.5304 36.4037 72.4854 36.427 72.4618 36.4668L72.289 36.7581C72.2654 36.7979 72.2685 36.8451 72.2953 36.8742L72.5259 37.1261C72.4744 37.2807 72.4459 37.438 72.4407 37.5955L72.1204 37.8292C72.0825 37.856 72.0639 37.9026 72.072 37.9437L72.1368 38.2433C72.1454 38.2833 72.1806 38.3094 72.2241 38.3082L72.5912 38.2907C72.6589 38.4216 72.7463 38.5365 72.8522 38.6335L72.7561 39.0031C72.7442 39.0472 72.7622 39.0891 72.7983 39.107L73.0627 39.2385C73.0987 39.2565 73.1459 39.247 73.1798 39.2139L73.4671 38.9395C73.6136 38.9681 73.7665 38.9727 73.9232 38.9534L74.1069 39.245C74.1285 39.2785 74.1715 39.2913 74.214 39.2767L74.5226 39.163C74.5657 39.1473 74.5972 39.1073 74.6021 39.0639L74.642 38.6907C74.7834 38.601 74.912 38.4935 75.0246 38.3694L75.3819 38.4099C75.4231 38.4147 75.4681 38.3914 75.4917 38.3516L75.6645 38.0603C75.6881 38.0205 75.685 37.9732 75.6588 37.943ZM73.5544 38.121C73.1979 37.9436 73.0977 37.4807 73.3308 37.0878C73.5645 36.6938 74.0431 36.5188 74.3997 36.6962C74.7562 36.8736 74.8564 37.3366 74.6227 37.7305C74.3896 38.1234 73.9109 38.2984 73.5544 38.121Z" fill="#F2F0FB"/>
<path d="M74.6011 36.3558C74.0733 36.0932 73.3661 36.3516 73.0211 36.9333C72.676 37.5149 72.8241 38.1989 73.3519 38.4615C73.8796 38.7241 74.5868 38.4656 74.9319 37.884C75.277 37.3024 75.1289 36.6184 74.6011 36.3558ZM73.5542 38.1205C73.1977 37.9431 73.0975 37.4802 73.3306 37.0873C73.5643 36.6933 74.0429 36.5183 74.3995 36.6957C74.756 36.8731 74.8562 37.3361 74.6225 37.73C74.3894 38.1229 73.9107 38.2978 73.5542 38.1205Z" fill="#CFCDF1"/>
<path d="M46.4254 32.8751L46.248 32.4919C46.1804 32.3455 46.2527 32.1521 46.4095 32.0598C46.5662 31.9681 46.7487 32.0111 46.8164 32.1577L46.8764 32.2876L47.5226 31.9411C47.6819 31.8559 47.8613 31.9077 47.9217 32.0582C47.9824 32.2085 47.9022 32.3997 47.7423 32.4853L46.8195 32.98C46.6645 33.0633 46.491 33.0163 46.4254 32.8751Z" fill="white"/>
<path d="M45.6363 37.9064L45.4589 37.5233C45.3913 37.3769 45.4636 37.1835 45.6204 37.0912C45.777 36.9996 45.9596 37.0427 46.0273 37.1891L46.0873 37.319L46.7335 36.9725C46.8929 36.8867 47.0722 36.9391 47.1326 37.0896C47.1933 37.2399 47.1131 37.4311 46.9532 37.5167L46.0304 38.0114C45.8754 38.0947 45.7019 38.0477 45.6363 37.9064Z" fill="white"/>
<path d="M44.8434 42.9599L44.6659 42.5767C44.5983 42.4303 44.6706 42.237 44.8274 42.1447C44.9841 42.0531 45.1667 42.096 45.2343 42.2426L45.2944 42.3724L45.9406 42.026C46.0999 41.9406 46.2792 41.9928 46.3397 42.1431C46.4003 42.2933 46.3202 42.4846 46.1603 42.5702L45.2374 43.0649C45.0825 43.1481 44.9089 43.1012 44.8434 42.9599Z" fill="white"/>
<defs>
<linearGradient id="paint0_linear_61_3125" x1="38.7276" y1="24.0061" x2="89.7991" y2="32.0112" gradientUnits="userSpaceOnUse">
<stop offset="1.1e-07" stop-color="#57B2FD"/>
<stop offset="1" stop-color="#497BFD"/>
</linearGradient>
<linearGradient id="paint1_linear_61_3125" x1="41.9384" y1="4.16009" x2="92.8113" y2="12.1341" gradientUnits="userSpaceOnUse">
<stop offset="1.1e-07" stop-color="#57B2FD"/>
<stop offset="1" stop-color="#497BFD"/>
</linearGradient>
<linearGradient id="paint2_linear_61_3125" x1="48.7285" y1="15.3117" x2="52.94" y2="15.9718" gradientUnits="userSpaceOnUse">
<stop offset="1.1e-07" stop-color="#57B2FD"/>
<stop offset="1" stop-color="#497BFD"/>
</linearGradient>
<linearGradient id="paint3_linear_61_3125" x1="87.3949" y1="42.0268" x2="79.301" y2="40.7582" gradientUnits="userSpaceOnUse">
<stop offset="1e-07" stop-color="#F7A386"/>
<stop offset="1" stop-color="#FD6B58"/>
</linearGradient>
<linearGradient id="paint4_linear_61_3125" x1="103.033" y1="46.4418" x2="88.9237" y2="53.4791" gradientUnits="userSpaceOnUse">
<stop offset="1e-07" stop-color="#F7A386"/>
<stop offset="1" stop-color="#FD6B58"/>
</linearGradient>
<linearGradient id="paint5_linear_61_3125" x1="92.5888" y1="32.0648" x2="103.362" y2="33.6872" gradientUnits="userSpaceOnUse">
<stop offset="1e-07" stop-color="#FDE0BB"/>
<stop offset="1" stop-color="#FC6B58"/>
</linearGradient>
<linearGradient id="paint6_linear_61_3125" x1="96.1316" y1="47.3834" x2="82.5418" y2="45.2533" gradientUnits="userSpaceOnUse">
<stop offset="1.1e-07" stop-color="#57B2FD"/>
<stop offset="1" stop-color="#497BFD"/>
</linearGradient>
<linearGradient id="paint7_linear_61_3125" x1="29.4419" y1="35.8717" x2="38.3389" y2="37.2662" gradientUnits="userSpaceOnUse">
<stop offset="1e-07" stop-color="#F7A386"/>
<stop offset="1" stop-color="#FD6B58"/>
</linearGradient>
<linearGradient id="paint8_linear_61_3125" x1="12.2559" y1="39.0863" x2="16.9598" y2="39.8236" gradientUnits="userSpaceOnUse">
<stop offset="1e-07" stop-color="#F7A386"/>
<stop offset="1" stop-color="#FD6B58"/>
</linearGradient>
<linearGradient id="paint9_linear_61_3125" x1="30.0572" y1="23.7022" x2="15.9545" y2="18.7814" gradientUnits="userSpaceOnUse">
<stop offset="1e-07" stop-color="#FEE1BC"/>
<stop offset="1" stop-color="#FD6B58"/>
</linearGradient>
<linearGradient id="paint10_linear_61_3125" x1="28.5035" y1="20.1242" x2="17.4535" y2="30.7905" gradientUnits="userSpaceOnUse">
<stop offset="1e-07" stop-color="#F7A386"/>
<stop offset="1" stop-color="#FD6B58"/>
</linearGradient>
<linearGradient id="paint11_linear_61_3125" x1="33.0649" y1="20.045" x2="18.441" y2="13.4588" gradientUnits="userSpaceOnUse">
<stop offset="1e-07" stop-color="#FEE1BC"/>
<stop offset="1" stop-color="#FD6B58"/>
</linearGradient>
<linearGradient id="paint12_linear_61_3125" x1="37.4966" y1="39.307" x2="39.8519" y2="39.6762" gradientUnits="userSpaceOnUse">
<stop offset="1e-07" stop-color="#F7A386"/>
<stop offset="1" stop-color="#FD6B58"/>
</linearGradient>
</defs>
</svg>
