<?xml version="1.0" encoding="utf-8"?>
<!-- Generator: Adobe Illustrator 27.5.0, SVG Export Plug-In . SVG Version: 6.00 Build 0)  -->
<svg version="1.1" xmlns="http://www.w3.org/2000/svg" xmlns:xlink="http://www.w3.org/1999/xlink" x="0px" y="0px"
	 viewBox="0 0 750 500" style="enable-background:new 0 0 750 500;" xml:space="preserve">
<g id="BACKGROUND">
	<rect style="fill:#FFFFFF;" width="750" height="500"/>
</g>
<g id="OBJECTS">
	<g>
		<g>
			<ellipse style="fill:#D3E7E0;" cx="363.263" cy="456.37" rx="310.987" ry="8.297"/>
		</g>
		<g>
			<g>
				<g style="opacity:0.5;">
					<g>
						<path style="fill:#D3E7E0;" d="M87.346,424.61c0.238-1.947,0.041-5.227-1.756-7.874c-3.269-4.815-17.791-21.163-24.937-24.046
							c-8.159-3.292,5.153,31.489,14.17,36.499C81.746,433.035,86.763,429.37,87.346,424.61z"/>
					</g>
				</g>
				<g>
					<g>
						<g>
							<path style="fill:#D3E7E0;" d="M93.067,454.75c-3.12-12.119-8.116-23.744-14.806-34.341c-2.64-4.182-5.545-8.192-8.68-12.017
								c-0.263-0.321-0.716,0.137-0.455,0.456c10.972,13.386,18.951,29.15,23.293,45.902H93.067z"/>
						</g>
					</g>
				</g>
			</g>
			<g>
				<g style="opacity:0.5;">
					<g>
						<path style="fill:#D3E7E0;" d="M81.562,437.743c-0.751-1.428-1.915-2.595-3.414-3.192c-4.446-1.774-22.741-8.854-28.995-7.824
							c-7.141,1.175,17.367,20.303,25.846,19.967C81.51,446.436,83.668,441.747,81.562,437.743z"/>
					</g>
				</g>
				<g>
					<g>
						<g>
							<path style="fill:#D3E7E0;" d="M66.659,437.41c7.092,3.441,14.639,5.834,22.421,7.092c0.406,0.065,0.58-0.555,0.171-0.621
								c-7.726-1.249-15.226-3.61-22.268-7.027C66.613,436.674,66.286,437.229,66.659,437.41L66.659,437.41z"/>
						</g>
					</g>
				</g>
			</g>
		</g>
		<g>
			<g>
				<g style="opacity:0.5;">
					<g>
						<path style="fill:#D3E7E0;" d="M517.529,424.61c0.238-1.947,0.041-5.227-1.756-7.874
							c-3.269-4.815-17.792-21.163-24.937-24.046c-8.159-3.292,5.153,31.489,14.17,36.499
							C511.929,433.035,516.946,429.37,517.529,424.61z"/>
					</g>
				</g>
				<g>
					<g>
						<g>
							<path style="fill:#D3E7E0;" d="M523.25,454.75c-3.12-12.119-8.116-23.744-14.806-34.341c-2.64-4.182-5.545-8.192-8.68-12.017
								c-0.263-0.321-0.716,0.137-0.456,0.456c10.972,13.386,18.951,29.15,23.293,45.902H523.25z"/>
						</g>
					</g>
				</g>
			</g>
			<g>
				<g style="opacity:0.5;">
					<g>
						<path style="fill:#D3E7E0;" d="M511.745,437.743c-0.751-1.428-1.915-2.595-3.414-3.192
							c-4.446-1.774-22.741-8.854-28.995-7.824c-7.141,1.175,17.367,20.303,25.846,19.967
							C511.693,446.436,513.851,441.747,511.745,437.743z"/>
					</g>
				</g>
				<g>
					<g>
						<g>
							<path style="fill:#D3E7E0;" d="M496.842,437.41c7.092,3.441,14.639,5.834,22.421,7.092c0.406,0.065,0.58-0.555,0.171-0.621
								c-7.726-1.249-15.226-3.61-22.268-7.027C496.796,436.674,496.469,437.229,496.842,437.41L496.842,437.41z"/>
						</g>
					</g>
				</g>
			</g>
		</g>
		<g>
			<g>
				<g style="opacity:0.5;">
					<g>
						<path style="fill:#D3E7E0;" d="M620.771,424.61c-0.238-1.947-0.042-5.227,1.756-7.874
							c3.269-4.815,17.792-21.163,24.937-24.046c8.158-3.292-5.153,31.489-14.17,36.499
							C626.37,433.035,621.353,429.37,620.771,424.61z"/>
					</g>
				</g>
				<g>
					<g>
						<g>
							<path style="fill:#D3E7E0;" d="M615.049,454.75c3.12-12.119,8.116-23.744,14.806-34.341c2.641-4.182,5.545-8.192,8.68-12.017
								c0.263-0.321,0.716,0.137,0.455,0.456c-10.971,13.386-18.951,29.15-23.293,45.902H615.049z"/>
						</g>
					</g>
				</g>
			</g>
			<g>
				<g style="opacity:0.5;">
					<g>
						<path style="fill:#D3E7E0;" d="M626.554,437.743c0.751-1.428,1.915-2.595,3.414-3.192c4.446-1.774,22.74-8.854,28.995-7.824
							c7.141,1.175-17.367,20.303-25.846,19.967C626.606,446.436,624.448,441.747,626.554,437.743z"/>
					</g>
				</g>
				<g>
					<g>
						<g>
							<path style="fill:#D3E7E0;" d="M641.457,437.41c-7.092,3.441-14.639,5.834-22.421,7.092c-0.406,0.065-0.58-0.555-0.171-0.621
								c7.726-1.249,15.226-3.61,22.268-7.027C641.504,436.674,641.831,437.229,641.457,437.41L641.457,437.41z"/>
						</g>
					</g>
				</g>
			</g>
		</g>
	</g>
	<g>
		<g>
			<g>
				<g>
					<g>
						<g>
							<path style="fill:#1C2F35;" d="M124.448,454.954c-5.458,0.728-10.916,0.728-16.374,0v-7.095h16.374V454.954z"/>
						</g>
					</g>
				</g>
			</g>
			<g>
				<g>
					<g>
						<g>
							<path style="fill:#E59C25;" d="M140.442,416.105l-0.061,0.52l-0.606,5.124l-0.092,0.765l-0.131,1.109l-0.092,0.767
								l-1.371,11.536v0.003l-0.1,0.87l-0.929,7.821c-0.442,3.72-3.595,6.52-7.34,6.52h-26.945c-3.756,0-6.912-2.814-7.343-6.545
								l-1.026-8.917l-0.117-0.99l-0.2-1.749l-0.122-1.043v-0.003l-0.075-0.662l-0.12-1.045l-0.434-3.765l-0.117-1.012l-0.55-4.785
								l-0.1-0.873l-0.42-3.648H140.442z"/>
						</g>
					</g>
				</g>
			</g>
			<g>
				<g>
					<g>
						<g>
							<g>
								<path style="fill:#A8681B;" d="M140.442,416.105l-0.061,0.52c-2.182,4.938-7.226,8.344-12.82,8.719
									c-7.14,0.481-13.454-3.523-17.333-9.239h1.015c3.564,4.994,9.061,8.53,15.409,8.441c5.658-0.081,10.933-3.411,13.057-8.441
									H140.442z"/>
							</g>
						</g>
					</g>
				</g>
			</g>
			<g>
				<g>
					<g>
						<g>
							<g>
								<path style="fill:#A8681B;" d="M101.071,416.105c-0.175,2.772-1.551,5.369-3.562,7.349c-1.229,1.212-2.652,2.174-4.17,2.97
									l-0.117-1.012c3.745-2.085,6.932-5.052,7.073-9.306H101.071z"/>
							</g>
						</g>
					</g>
				</g>
			</g>
			<g>
				<g>
					<g>
						<g>
							<g>
								<path style="fill:#A8681B;" d="M117.467,451.14h0.825c-0.875-3.577-0.465-7.422,1.622-10.827
									c1.927-3.147,5.077-5.432,8.762-5.972c3.305-0.482,6.727,0.38,9.312,2.457l0.102-0.87v-0.002
									c-2.22-1.647-4.965-2.495-7.755-2.462c-6.435,0.075-11.634,5.027-12.954,11.182
									C116.912,446.838,116.975,449.041,117.467,451.14z"/>
							</g>
						</g>
					</g>
				</g>
			</g>
			<g>
				<g>
					<g>
						<g>
							<g>
								<path style="fill:#A8681B;" d="M94.291,434.689l0.115,0.99c1.68-1.92,3.577-3.642,5.67-5.122
									c2.707-1.917,7.585-5.317,10.414-1.91c2.01,2.42,2.145,6.317,1.937,9.31c-0.332,4.832-2.26,9.509-5.382,13.184h0.975
									c1.272-1.58,2.342-3.33,3.167-5.205c1.457-3.3,2.195-6.932,2.02-10.542c-0.145-2.945-0.745-7.09-3.75-8.522
									c-3.462-1.65-7.785,1.55-10.424,3.517C97.313,431.672,95.728,433.112,94.291,434.689z"/>
							</g>
						</g>
					</g>
				</g>
			</g>
			<g>
				<g>
					<g>
						<g>
							<ellipse style="fill:#1C2F35;" cx="116.297" cy="416.105" rx="24.146" ry="1.677"/>
						</g>
					</g>
				</g>
			</g>
		</g>
		<g>
			<g>
				<g>
					<g>
						<g>
							<g>
								<path style="fill:#6AB886;" d="M114.805,341.007c-1.802-1.501,4.126-11.644,9.353-19.807
									c-2.046-4.738-4.727-8.986-7.574-12.656c-2.413,4.382-5.361,8.842-6.973,8.052c-1.635-0.812,0.69-6.995,3.192-12.567
									c-6.551-7.207-12.756-11.277-12.756-11.277s-2.18,2.992-4.882,7.863c3.403,4.093,7.051,9.131,5.605,10.421
									c-1.134,1.012-4.649-1.88-8.23-5.405c-3.359,6.884-6.762,15.859-7.64,25.19c-1.88,19.83,23.411,27.937,23.411,27.937
									s18.44-10.966,18.417-26.97C122.457,336.68,116.674,342.564,114.805,341.007z M95.543,333.966
									c-2.035,0.489-11.266-4.159-7.307-7.574c3.959-3.414,10.265,2.803,10.265,2.803
									C101.081,331.231,97.589,333.488,95.543,333.966z M112.025,352.417c-1.357,0.356-3.07-0.89-2.18-2.903
									c0,0,0.723-4.638,4.137-3.859C117.385,346.434,113.382,352.061,112.025,352.417z"/>
							</g>
						</g>
					</g>
				</g>
			</g>
			<g>
				<g>
					<g>
						<g>
							<g>
								<path style="fill:#467B5B;" d="M103.41,319.119c-0.58,4.701-0.168,9.549,0.286,14.241c0.651,6.726,1.687,13.416,2.89,20.064
									c2.686,14.834,6.172,29.607,10.848,43.946c2.034,6.237,4.266,12.508,7.36,18.309c0.379,0.711,1.46,0.079,1.08-0.632
									c-2.717-5.093-4.732-10.557-6.573-16.016c-2.29-6.792-4.243-13.698-6.007-20.644c-3.585-14.126-6.561-28.525-8.141-43.024
									c-0.582-5.335-1.154-10.888-0.493-16.244C104.759,318.322,103.507,318.329,103.41,319.119L103.41,319.119z"/>
							</g>
						</g>
					</g>
				</g>
			</g>
			<g>
				<g>
					<g>
						<g>
							<g>
								<path style="fill:#6AB886;" d="M109.692,376.273c-0.955,6.205-2.625,8.591-4.057,7.636
									c-1.831-1.22-0.417-8.904,1.407-18.424c-3.659-3.637-7.729-6.584-11.733-8.942c-0.612,4.971-1.69,10.21-3.481,10.065
									c-1.813-0.133-1.957-6.751-1.713-12.845c-8.753-4.248-16.026-5.728-16.026-5.728s-0.912,3.581-1.624,9.109
									c4.682,2.536,9.954,5.861,9.086,7.596c-0.678,1.357-5.016-0.022-9.654-1.969c-0.556,7.652-0.378,17.25,2.269,26.236
									c5.628,19.107,32.108,17.238,32.108,17.238S116.852,388.921,109.692,376.273z M85.222,387.973
									c-1.713,1.212-12.011,0.334-9.598-4.315c2.402-4.638,10.577-1.223,10.577-1.223
									C89.348,383.368,86.935,386.772,85.222,387.973z M107.376,398.972c-1.123,0.834-3.181,0.322-3.103-1.868
									c0,0-1.057-4.582,2.402-5.127C110.134,391.432,108.51,398.149,107.376,398.972z"/>
							</g>
						</g>
					</g>
				</g>
			</g>
			<g>
				<g>
					<g>
						<g>
							<g>
								<path style="fill:#6AB886;" d="M152.785,343.02c-4.16,2.803-8.163,4.982-9.086,3.781c-1.179-1.535,3.348-5.806,7.463-9.198
									c-1.757-5.283-3.325-8.63-3.325-8.63s-6.862,2.836-14.647,8.686c1.412,5.939,2.536,12.456,0.779,12.945
									c-1.735,0.478-3.792-4.46-5.338-9.22c-3.481,3.081-6.918,6.751-9.809,11.021c3.615,8.997,7.529,20.063,5.472,21.209
									c-2.124,1.168-6.695-5.694-9.987-11.299c-3.003,15.726,13.057,29.95,13.057,29.95s26.347-3.225,28.215-23.066
									C156.467,359.88,154.798,350.426,152.785,343.02z M124.893,385.337c-1.268-0.6-4.148-6.873-0.656-7.007
									c3.503-0.122,3.348,4.571,3.348,4.571C128.073,385.048,126.16,385.938,124.893,385.337z M144.533,370.301
									c-1.913-0.856-4.927-3.726-2.013-5.238c0,0,7.362-4.927,10.61-0.834C156.389,368.332,146.446,371.157,144.533,370.301z"/>
							</g>
						</g>
					</g>
				</g>
			</g>
			<g>
				<g>
					<g>
						<g>
							<g>
								<path style="fill:#467B5B;" d="M138.349,354.128c-0.502,7.793-2.162,15.51-4.395,22.98
									c-2.624,8.779-6.132,17.321-10.609,25.321c-2.597,4.639-5.529,9.091-8.864,13.234c-0.5,0.621,0.38,1.512,0.885,0.885
									c11.468-14.242,18.881-32.039,22.507-49.883c0.84-4.135,1.457-8.323,1.728-12.536
									C139.652,353.324,138.401,353.327,138.349,354.128L138.349,354.128z"/>
							</g>
						</g>
					</g>
				</g>
			</g>
			<g>
				<g>
					<g>
						<g>
							<g>
								<path style="fill:#467B5B;" d="M83.56,360.683c1.561,7.957,4.671,15.617,8.136,22.916
									c3.841,8.093,8.339,15.934,13.602,23.19c2.494,3.439,5.172,6.764,8.192,9.758c0.572,0.568,1.458-0.317,0.885-0.885
									c-5.683-5.636-10.276-12.371-14.378-19.212c-4.545-7.581-8.538-15.557-11.632-23.843c-1.49-3.991-2.777-8.073-3.599-12.258
									C84.612,359.561,83.406,359.895,83.56,360.683L83.56,360.683z"/>
							</g>
						</g>
					</g>
				</g>
			</g>
		</g>
	</g>
	<g>
		<g>
			<g>
				<g>
					<path style="fill:#4869F3;" d="M108.64,199.545c-4.707,0.375-8.621-3.541-8.246-8.247c0.295-3.704,3.296-6.704,7-6.999
						c4.706-0.375,8.621,3.541,8.246,8.247C115.344,196.25,112.343,199.25,108.64,199.545z M108.642,185.846
						c-3.858-0.386-7.087,2.844-6.702,6.702c0.285,2.856,2.595,5.165,5.451,5.451c3.858,0.386,7.087-2.844,6.702-6.702
						C113.808,188.441,111.498,186.131,108.642,185.846z"/>
				</g>
			</g>
		</g>
		<g>
			<g>
				<g>
					<path style="fill:#CA3754;" d="M652.615,102.194c-4.706,0.375-8.622-3.539-8.247-8.246c0.295-3.704,3.295-6.704,6.999-7
						c4.706-0.375,8.622,3.539,8.247,8.246C659.319,98.898,656.319,101.899,652.615,102.194z M652.617,88.495
						c-3.858-0.386-7.087,2.844-6.702,6.702c0.286,2.856,2.595,5.165,5.451,5.451c3.858,0.386,7.087-2.844,6.702-6.702
						C657.782,91.09,655.473,88.781,652.617,88.495z"/>
				</g>
			</g>
		</g>
		<g>
			<g>
				<g>
					<path style="fill:#CA3754;" d="M80.464,271.598c-0.246,0-0.493-0.119-0.645-0.358c-0.193-0.304-0.118-0.708,0.137-0.962
						l16.896-16.896c0.296-0.296,0.775-0.296,1.071,0l14.159,14.159l17.834-17.834c0.25-0.25,0.646-0.327,0.948-0.142
						c0.438,0.269,0.488,0.849,0.148,1.188l-18.395,18.395c-0.296,0.296-0.775,0.296-1.071,0l-14.159-14.159l-16.388,16.387
						C80.851,271.524,80.658,271.598,80.464,271.598z"/>
				</g>
			</g>
			<g>
				<g>
					<path style="fill:#CA3754;" d="M127.259,250.217c0,1.777,1.44,3.217,3.217,3.217c1.777,0,3.217-1.44,3.217-3.217
						c0-1.777-1.44-3.217-3.217-3.217C128.7,247,127.259,248.44,127.259,250.217z"/>
				</g>
			</g>
			<g>
				<g>
					<path style="fill:#CA3754;" d="M108.778,267.83c0,1.777,1.44,3.217,3.217,3.217c1.777,0,3.217-1.44,3.217-3.217
						s-1.44-3.217-3.217-3.217C110.218,264.613,108.778,266.053,108.778,267.83z"/>
				</g>
			</g>
			<g>
				<g>
					<circle style="fill:#CA3754;" cx="97.387" cy="253.918" r="3.217"/>
				</g>
			</g>
			<g>
				<g>
					<path style="fill:#CA3754;" d="M77.247,271.314c0,1.777,1.44,3.217,3.217,3.217c1.777,0,3.217-1.44,3.217-3.217
						c0-1.777-1.44-3.217-3.217-3.217C78.687,268.097,77.247,269.537,77.247,271.314z"/>
				</g>
			</g>
		</g>
		<g>
			<path style="fill:#D3E7E0;" d="M159.265,127.749l1.64-7.717l-5.512-1.172c-0.141-1.148-0.432-2.249-0.855-3.285l4.435-3.591
				l-4.965-6.131l-4.542,3.678c-0.907-0.573-1.888-1.037-2.928-1.372v-5.869h-7.89v5.869c-1.255,0.404-2.426,0.996-3.481,1.742
				l-4.723-3.431l-4.637,6.383l4.605,3.346c-0.369,1.057-0.604,2.176-0.684,3.337l-5.429,1.455l2.042,7.621l5.27-1.412
				c0.636,1.029,1.41,1.963,2.3,2.774l-2.195,4.931l7.208,3.209l2.165-4.864c0.494,0.058,0.995,0.091,1.504,0.091
				c0.745,0,1.475-0.067,2.186-0.189l2.418,4.745l7.03-3.582l-2.456-4.82c0.842-0.854,1.567-1.823,2.147-2.882L159.265,127.749z
				 M135.112,120.44c0-4.125,3.356-7.481,7.481-7.481c4.125,0,7.481,3.356,7.481,7.481c0,4.125-3.356,7.481-7.481,7.481
				C138.468,127.921,135.112,124.565,135.112,120.44z"/>
		</g>
		<g>
			<path style="fill:#D3E7E0;" d="M679.718,169.333l1.64-7.717l-5.512-1.172c-0.141-1.148-0.432-2.25-0.855-3.285l4.435-3.591
				l-4.965-6.131l-4.542,3.678c-0.907-0.573-1.888-1.037-2.928-1.372v-5.869h-7.89v5.869c-1.255,0.404-2.426,0.996-3.481,1.742
				l-4.723-3.431l-4.637,6.383l4.605,3.346c-0.369,1.057-0.604,2.176-0.684,3.337l-5.429,1.455l2.042,7.621l5.27-1.412
				c0.636,1.029,1.411,1.963,2.3,2.774l-2.195,4.931l7.208,3.209l2.165-4.863c0.494,0.057,0.995,0.09,1.504,0.09
				c0.745,0,1.475-0.067,2.186-0.189l2.418,4.745l7.03-3.582l-2.456-4.82c0.842-0.853,1.567-1.823,2.147-2.882L679.718,169.333z
				 M655.565,162.024c0-4.125,3.356-7.481,7.481-7.481c4.125,0,7.481,3.356,7.481,7.481c0,4.125-3.356,7.481-7.481,7.481
				C658.921,169.505,655.565,166.149,655.565,162.024z"/>
		</g>
	</g>
	<g>
		<g>
			<g style="opacity:0.6;">
				<path style="fill:#D3E7E0;" d="M556.465,89.438v242.509c0,3.378-2.739,6.117-6.117,6.117h-320.96
					c-3.378,0-6.117-2.739-6.117-6.117V89.438c0-3.378,2.739-6.117,6.117-6.117h320.96C553.726,83.321,556.465,86.06,556.465,89.438
					z"/>
			</g>
			<g>
				<g>
					<path style="fill:#C9333E;" d="M534.22,155.622c0,0-0.479-19.885-5.424-19.124c-4.946,0.761-2.53,7.319-8.28,7.699
						c-5.75,0.38-6.144-20.173-12.191-20.884c-8.06-0.948-5.214,18.1-11.277,19.747c-6.062,1.647-5.746-27.95-14.679-27.95
						s-10.209,40.513-10.209,40.513H534.22z"/>
				</g>
			</g>
			<g>
				<g>
					<path style="fill:#272327;" d="M469.382,156.497h68.048c0.191,0,0.347-0.155,0.347-0.347v-0.181
						c0-0.191-0.155-0.347-0.347-0.347h-68.049c-0.191,0-0.346,0.155-0.346,0.346v0.181
						C469.036,156.341,469.191,156.497,469.382,156.497z"/>
				</g>
			</g>
			<g>
				<rect x="231.784" y="103.506" style="fill:#ADD1C8;" width="1.51" height="230.311"/>
			</g>
			<g>
				<rect x="546.715" y="103.506" style="fill:#ADD1C8;" width="1.51" height="230.311"/>
			</g>
			<g>
				<path style="fill:#272327;" d="M556.465,89.438v16.502H223.27V89.438c0-3.378,2.739-6.117,6.117-6.117h320.96
					C553.726,83.321,556.465,86.06,556.465,89.438z"/>
			</g>
			<path style="fill:#ADD1C8;" d="M296.144,74.75h-66.971c-0.34,0-0.649,0.244-0.683,0.582c-0.039,0.389,0.265,0.716,0.646,0.716
				h67.008c0.359,0,0.649-0.291,0.649-0.649l0,0C296.793,75.041,296.503,74.75,296.144,74.75z"/>
		</g>
		<g>
			<path style="fill:#272327;" d="M558.961,338.065h-340.01c-0.93,0-1.684-0.754-1.684-1.684v-0.879c0-0.93,0.754-1.684,1.684-1.684
				h340.01c0.93,0,1.684,0.754,1.684,1.684v0.879C560.645,337.311,559.891,338.065,558.961,338.065z"/>
		</g>
		<g>
			<g>
				<g>
					<rect x="256.434" y="257.031" style="fill:#6AB886;" width="28.224" height="43.471"/>
				</g>
				<g>
					<rect x="304.074" y="231.288" style="fill:#454BC7;" width="28.224" height="69.213"/>
				</g>
				<g>
					<rect x="351.715" y="196.556" style="fill:#C9333E;" width="28.224" height="103.945"/>
				</g>
				<g>
					<rect x="399.355" y="171.952" style="fill:#6AB886;" width="28.224" height="128.55"/>
				</g>
			</g>
			<g>
				<g>
					<path style="fill:#272327;" d="M269.576,236.484c-0.256,0-0.512-0.104-0.697-0.309c-0.35-0.385-0.322-0.981,0.063-1.331
						l31.98-29.069c0.348-0.317,0.876-0.328,1.238-0.026l10.936,9.128l39.986-39.836c0.177-0.177,0.418-0.273,0.669-0.275
						c0.251,0.001,0.491,0.102,0.667,0.28l8.906,9.011l35.852-35.385c0.178-0.176,0.413-0.283,0.669-0.272
						c0.25,0.002,0.489,0.103,0.665,0.282l9.678,9.838l23.301-20.103c0.394-0.34,0.989-0.296,1.329,0.098
						c0.34,0.394,0.296,0.989-0.098,1.329l-23.969,20.68c-0.377,0.325-0.94,0.301-1.288-0.052l-9.636-9.795l-35.851,35.384
						c-0.37,0.366-0.967,0.362-1.332-0.008l-8.903-9.008l-39.925,39.775c-0.345,0.343-0.895,0.368-1.269,0.056l-10.965-9.153
						l-31.372,28.517C270.029,236.403,269.803,236.484,269.576,236.484z"/>
				</g>
				<g>
					<path style="fill:#272327;" d="M305.438,206.472c0,2.144-1.738,3.882-3.882,3.882c-2.144,0-3.882-1.738-3.882-3.882
						c0-2.144,1.738-3.882,3.882-3.882C303.7,202.59,305.438,204.328,305.438,206.472z"/>
				</g>
				<g>
					<path style="fill:#272327;" d="M273.458,235.21c0,2.144-1.738,3.882-3.882,3.882c-2.144,0-3.882-1.738-3.882-3.882
						c0-2.144,1.738-3.882,3.882-3.882C271.72,231.328,273.458,233.066,273.458,235.21z"/>
				</g>
				<g>
					<path style="fill:#272327;" d="M357.152,175.835c0,2.144-1.738,3.882-3.882,3.882c-2.144,0-3.882-1.738-3.882-3.882
						c0-2.144,1.738-3.882,3.882-3.882C355.414,171.953,357.152,173.691,357.152,175.835z"/>
				</g>
				<g>
					<path style="fill:#272327;" d="M403.237,148.795c0,2.144-1.738,3.882-3.882,3.882s-3.882-1.738-3.882-3.882
						s1.738-3.882,3.882-3.882S403.237,146.651,403.237,148.795z"/>
				</g>
				<g>
					<path style="fill:#272327;" d="M439.416,137.191c0,2.144-1.738,3.882-3.882,3.882c-2.144,0-3.882-1.738-3.882-3.882
						s1.738-3.882,3.882-3.882C437.678,133.309,439.416,135.047,439.416,137.191z"/>
				</g>
			</g>
			<g>
				<path style="fill:#272327;" d="M444.369,301.502H244.597c-0.544,0-0.985-0.441-0.985-0.985v-0.472
					c0-0.544,0.441-0.985,0.985-0.985h199.772c0.544,0,0.985,0.441,0.985,0.985v0.472
					C445.354,301.061,444.913,301.502,444.369,301.502z"/>
			</g>
		</g>
		<g>
			<g>
				<rect x="458.191" y="214.956" style="fill:#454BC7;" width="15.937" height="15.937"/>
			</g>
			<g>
				<rect x="458.191" y="177.419" style="fill:#C9333E;" width="15.937" height="15.937"/>
			</g>
			<g>
				<rect x="458.191" y="252.494" style="fill:#6AB886;" width="15.937" height="15.937"/>
			</g>
			<g>
				<path style="fill:#ADD1C8;" d="M525.94,183.62h-40.486c-0.43,0-0.778-0.348-0.778-0.778v-0.406c0-0.43,0.348-0.778,0.778-0.778
					h40.485c0.43,0,0.778,0.348,0.778,0.778v0.406C526.718,183.272,526.37,183.62,525.94,183.62z"/>
			</g>
			<g>
				<path style="fill:#ADD1C8;" d="M525.94,189.116h-40.486c-0.43,0-0.778-0.348-0.778-0.778v-0.406
					c0-0.429,0.348-0.778,0.778-0.778h40.485c0.43,0,0.778,0.348,0.778,0.778v0.406C526.718,188.768,526.37,189.116,525.94,189.116z
					"/>
			</g>
			<g>
				<path style="fill:#ADD1C8;" d="M525.94,221.158h-40.486c-0.43,0-0.778-0.348-0.778-0.778v-0.406c0-0.43,0.348-0.778,0.778-0.778
					h40.486c0.43,0,0.778,0.348,0.778,0.778v0.406C526.718,220.809,526.37,221.158,525.94,221.158z"/>
			</g>
			<g>
				<path style="fill:#ADD1C8;" d="M525.94,226.654h-40.486c-0.43,0-0.778-0.348-0.778-0.778v-0.406c0-0.43,0.348-0.778,0.778-0.778
					h40.486c0.43,0,0.778,0.348,0.778,0.778v0.406C526.718,226.306,526.37,226.654,525.94,226.654z"/>
			</g>
			<g>
				<path style="fill:#ADD1C8;" d="M525.94,258.695h-40.486c-0.43,0-0.778-0.348-0.778-0.778v-0.406c0-0.43,0.348-0.778,0.778-0.778
					h40.486c0.43,0,0.778,0.348,0.778,0.778v0.406C526.718,258.347,526.37,258.695,525.94,258.695z"/>
			</g>
			<g>
				<path style="fill:#ADD1C8;" d="M525.94,264.192h-40.486c-0.43,0-0.778-0.348-0.778-0.778v-0.406c0-0.43,0.348-0.778,0.778-0.778
					h40.485c0.43,0,0.778,0.348,0.778,0.778v0.406C526.718,263.843,526.37,264.192,525.94,264.192z"/>
			</g>
		</g>
		<g>
			<g>
				<g>
					<path style="fill:#454BC7;" d="M290.633,153.441c-0.401,5.886-5.516,10.348-11.402,9.947c-3.295-0.224-6.143-1.927-7.942-4.414
						c-1.759,1.777-3.43,3.623-4.728,5.741c3.023,3.375,7.308,5.625,12.175,5.957c9.898,0.674,18.499-6.826,19.18-16.722
						c-2.348-1.109-4.809-1.905-7.334-2.493C290.658,152.105,290.679,152.768,290.633,153.441z"/>
				</g>
				<g>
					<path style="fill:#C9333E;" d="M265.873,163.906c1.347-2.13,3.063-3.991,4.854-5.792c-1.051-1.791-1.595-3.904-1.443-6.128
						c0.401-5.886,5.516-10.348,11.401-9.947c4.837,0.33,8.71,3.843,9.715,8.351c2.597,0.58,5.133,1.363,7.554,2.465
						c0.08-9.439-7.234-17.45-16.773-18.099c-9.902-0.675-18.507,6.833-19.181,16.735
						C261.684,156.146,263.175,160.514,265.873,163.906z"/>
				</g>
			</g>
			<g>
				<g>
					<path style="fill:#6AB886;" d="M339.991,152.714c0,0.632-0.058,1.25-0.164,1.851c2.466-0.174,4.932-0.339,7.401-0.411
						c0.038-0.476,0.063-0.955,0.063-1.44c0-8.343-5.707-15.377-13.421-17.408c-0.629,2.352-1.239,4.709-1.784,7.081
						C336.634,143.62,339.991,147.781,339.991,152.714z"/>
				</g>
				<g>
					<path style="fill:#C9333E;" d="M329.292,170.714c9.093,0,16.629-6.78,17.828-15.549c-2.511,0.078-5.018,0.25-7.526,0.426
						c-1.26,4.506-5.4,7.822-10.303,7.822c-5.899,0-10.699-4.8-10.699-10.699c0-5.899,4.8-10.699,10.699-10.699
						c0.617,0,1.222,0.055,1.811,0.156c0.546-2.377,1.158-4.738,1.788-7.095c-1.163-0.237-2.367-0.362-3.599-0.362
						c-9.925,0-18,8.075-18,18C311.292,162.639,319.367,170.714,329.292,170.714z"/>
				</g>
			</g>
		</g>
		<g>
			<path style="fill:#272327;" d="M350.237,452.417c-0.218,0-0.44-0.038-0.656-0.117c-0.99-0.363-1.498-1.459-1.135-2.448
				l38.719-105.614c0.363-0.989,1.459-1.497,2.448-1.135c0.99,0.363,1.498,1.459,1.135,2.448l-38.718,105.614
				C351.746,451.938,351.015,452.417,350.237,452.417z"/>
		</g>
		<g>
			<path style="fill:#272327;" d="M413.335,452.417c-0.778,0-1.508-0.479-1.792-1.252l-38.718-105.614
				c-0.363-0.989,0.145-2.085,1.135-2.448c0.99-0.361,2.085,0.145,2.448,1.135l38.718,105.614c0.363,0.989-0.145,2.085-1.135,2.448
				C413.775,452.379,413.553,452.417,413.335,452.417z"/>
		</g>
		<rect x="363.652" y="409.464" style="fill:#272327;" width="36.321" height="3.858"/>
		<g>
			<path style="fill:#272327;" d="M352.535,338.065L352.535,338.065c0,5.162,4.185,9.347,9.347,9.347h38.851
				c5.162,0,9.347-4.185,9.347-9.347v0H352.535z"/>
		</g>
	</g>
	<g>
		<g>
			<g>
				<path style="fill:#272327;" d="M155.68,157.401c0,0-26.661,40.785-27.045,59.246c-0.385,18.461,24.852,20.915,24.852,20.915
					L155.68,157.401z"/>
			</g>
			<g>
				<path style="fill:#44584F;" d="M130.073,209.891c4.028,4.935,5.096,11.811,2.831,17.751c-0.172,0.451,0.553,0.647,0.723,0.199
					c2.365-6.204,1.167-13.347-3.024-18.481C130.298,208.986,129.77,209.52,130.073,209.891L130.073,209.891z"/>
			</g>
			<g>
				<g>
					<g>
						<g>
							<g>
								<path style="fill:#CE7E5D;" d="M159.432,420.735l-0.024,22.081l11.104,0.797l3.903-20.743
									C169.336,419.483,164.339,418.674,159.432,420.735z"/>
							</g>
						</g>
					</g>
					<g>
						<g>
							<g>
								<g>
									<path style="fill:#272327;" d="M159.795,440.511c-1.093,2.914-1.164,14.837-1.164,14.837l23.536,0.026
										c1.398-4.312-0.766-7.255-3.511-7.646c-1.18-0.166-2.567-1.378-3.579-2.436c-0.007-0.137-1.446-6.76-2.336-7.077
										c0,0-0.613-0.689-1.135-0.001c-0.522,0.688-0.975,2.926-0.975,2.926C166.958,436.579,163.357,437.188,159.795,440.511z"/>
								</g>
							</g>
						</g>
					</g>
					<g>
						<g>
							<g>
								<path style="fill:#FFFFFF;" d="M159.509,443.973c2.659-0.98,5.513-0.608,7.832,1.021c0.406,0.285,0.791-0.382,0.388-0.664
									c-2.47-1.735-5.592-2.142-8.425-1.099C158.844,443.401,159.043,444.144,159.509,443.973L159.509,443.973z"/>
							</g>
						</g>
					</g>
					<g>
						<g>
							<path style="fill:#FFFFFF;" d="M182.096,453.63C182.096,453.63,182.096,453.63,182.096,453.63l-23.19-0.025
								c-0.212,0-0.384-0.173-0.384-0.385c0-0.212,0.173-0.384,0.385-0.384c0,0,0,0,0,0l23.19,0.025
								c0.212,0,0.384,0.172,0.384,0.385C182.481,453.458,182.309,453.63,182.096,453.63z"/>
						</g>
					</g>
				</g>
				<g>
					<g>
						<g>
							<path style="fill:#454BC7;" d="M155.314,431.612l23.661,1.168c5.309-15.945,10.556-73.116,11.098-90.28
								c0.648-20.508,8.571-71.98,1.565-82.691c-7.006-10.711-39.782-0.043-39.782-0.043s5.036,60.536,3.458,80.523
								C153.946,357.612,151.829,408.534,155.314,431.612z"/>
						</g>
					</g>
				</g>
				<polygon style="fill:#1E227E;" points="181.529,427.024 179.991,434.323 154.35,433.554 153.41,426.545 				"/>
				<g>
					<g>
						<path style="fill:#1E227E;" d="M174.415,430.545c-0.021,0-0.043-0.002-0.064-0.005c-0.21-0.035-0.351-0.234-0.315-0.443
							c0.101-0.599,10.086-60.235,11.227-94.767c0.698-21.107,1.301-35.913,1.307-36.06c0.009-0.212,0.193-0.376,0.4-0.369
							c0.212,0.009,0.377,0.188,0.369,0.4c-0.006,0.147-0.609,14.95-1.307,36.054c-1.143,34.583-11.137,94.27-11.238,94.869
							C174.762,430.412,174.599,430.545,174.415,430.545z"/>
					</g>
				</g>
				<g>
					<g>
						<g>
							<path style="fill:#1E227E;" d="M167.475,264.303c-0.31,3.589-2.105,7.93-6.241,8.284c-1.627,0.139-3.268-0.489-4.256-1.812
								c-1.142-1.53-1.238-3.573-1.298-5.406c-0.015-0.47,0.714-0.468,0.73,0.001c0.048,1.47,0.088,3.081,0.801,4.408
								c0.796,1.483,2.363,2.24,4.024,2.079c3.7-0.357,5.235-4.37,5.511-7.555C166.786,263.838,167.516,263.835,167.475,264.303
								L167.475,264.303z"/>
						</g>
					</g>
				</g>
				<g>
					<g>
						<g>
							<path style="fill:#1E227E;" d="M178.975,340.648c-6.792-0.736-13.623-0.919-20.445-0.55c-0.492,0.027-0.495,0.796,0,0.769
								c6.822-0.37,13.653-0.186,20.445,0.55C179.466,341.471,179.463,340.701,178.975,340.648L178.975,340.648z"/>
						</g>
					</g>
				</g>
			</g>
			<g>
				<g>
					<g>
						<g>
							<g>
								<path style="fill:#CE7E5D;" d="M207.335,417.855l-0.027,24.921l10.684,0.814l5.256-23.327
									C218.958,417.075,213.977,415.514,207.335,417.855z"/>
							</g>
						</g>
					</g>
					<g>
						<g>
							<g>
								<g>
									<path style="fill:#272327;" d="M207.31,440.563c-1.093,2.914-1.164,14.837-1.164,14.837l27.039,0.029
										c1.398-4.312-1.523-6.868-4.269-7.259c-1.18-0.166-5.313-1.769-6.324-2.827c-0.007-0.137-1.446-6.76-2.335-7.077
										c0,0-0.613-0.689-1.135-0.001c-0.522,0.688-0.975,2.926-0.975,2.926C214.473,436.63,210.872,437.239,207.31,440.563z"/>
								</g>
							</g>
						</g>
					</g>
					<g>
						<g>
							<g>
								<path style="fill:#FFFFFF;" d="M207.025,444.024c2.66-0.98,5.513-0.608,7.832,1.021c0.406,0.285,0.791-0.382,0.388-0.664
									c-2.47-1.735-5.592-2.142-8.425-1.099C206.36,443.452,206.559,444.196,207.025,444.024L207.025,444.024z"/>
							</g>
						</g>
					</g>
					<g>
						<g>
							<path style="fill:#FFFFFF;" d="M233.188,453.685C233.187,453.685,233.187,453.685,233.188,453.685l-26.766-0.029
								c-0.212,0-0.385-0.173-0.384-0.385c0-0.212,0.173-0.384,0.385-0.384c0,0,0,0,0,0l26.766,0.029
								c0.212,0,0.384,0.173,0.384,0.385C233.572,453.513,233.4,453.685,233.188,453.685z"/>
						</g>
					</g>
				</g>
				<g>
					<g>
						<g>
							<path style="fill:#454BC7;" d="M202.57,431.612l23.457,1.168c2.856-17.651,14.329-81.932,13.386-94.245
								c-1.151-15.04-14.737-80.143-19.789-85.163c-5.052-5.02-42.041,7.992-42.041,7.992s15.202,55.984,27.188,80.197
								C207.261,346.59,200.644,410.144,202.57,431.612z"/>
						</g>
					</g>
				</g>
				<polygon style="fill:#1E227E;" points="228.71,427.571 227.513,434.323 201.444,432.779 200.919,425.711 				"/>
				<g>
					<g>
						<path style="fill:#1E227E;" d="M223.358,427.024c-0.021,0-0.041-0.001-0.062-0.005c-0.21-0.034-0.352-0.231-0.318-0.441
							c0.127-0.783,12.678-78.358,12.224-86.412c-0.529-9.374-12.205-49.165-12.323-49.566c-0.06-0.204,0.057-0.417,0.26-0.477
							c0.203-0.059,0.418,0.056,0.477,0.261c0.482,1.64,11.819,40.278,12.353,49.74c0.46,8.138-11.714,83.38-12.232,86.579
							C223.707,426.89,223.544,427.024,223.358,427.024z"/>
					</g>
				</g>
				<g>
					<g>
						<g>
							<path style="fill:#1E227E;" d="M206.082,262.504c0.388,5.387-1.705,12.432-8.066,13.022
								c-6.128,0.569-10.097-5.257-9.99-10.835c0.009-0.469,0.739-0.47,0.73,0.001c-0.099,5.178,3.524,10.675,9.261,10.105
								c5.943-0.591,7.692-7.336,7.335-12.293C205.318,262.035,206.048,262.038,206.082,262.504L206.082,262.504z"/>
						</g>
					</g>
				</g>
				<g>
					<g>
						<g>
							<path style="fill:#1E227E;" d="M214.834,265.259c2.095,8.252,4.938,17.9,13.733,21.22c0.464,0.175,0.664-0.568,0.204-0.742
								c-8.503-3.21-11.18-12.742-13.196-20.683C215.454,264.575,214.712,264.778,214.834,265.259L214.834,265.259z"/>
						</g>
					</g>
				</g>
				<g>
					<g>
						<g>
							<path style="fill:#1E227E;" d="M193.843,310.765c-2.809-4.618-5.529-9.303-7.771-14.228
								c-2.279-5.006-3.984-10.229-5.338-15.555c-0.122-0.479-0.864-0.276-0.742,0.204c1.339,5.267,3.026,10.43,5.258,15.39
								c2.272,5.052,5.054,9.849,7.929,14.577C193.436,311.575,194.102,311.189,193.843,310.765L193.843,310.765z"/>
						</g>
					</g>
				</g>
				<g>
					<g>
						<g>
							<path style="fill:#1E227E;" d="M186.954,280.68c-6.159,0.159-12.264-0.703-18.138-2.56c-0.473-0.15-0.676,0.593-0.204,0.742
								c5.936,1.877,12.119,2.748,18.343,2.588C187.448,281.436,187.45,280.667,186.954,280.68L186.954,280.68z"/>
						</g>
					</g>
				</g>
				<g>
					<g>
						<g>
							<path style="fill:#1E227E;" d="M208.878,341.608c5.716-0.36,11.433-0.72,17.149-1.079c0.492-0.031,0.495-0.8,0-0.769
								c-5.716,0.36-11.433,0.719-17.149,1.079C208.386,340.869,208.383,341.639,208.878,341.608L208.878,341.608z"/>
						</g>
					</g>
				</g>
			</g>
			<g>
				<g>
					<g>
						<path style="fill:#858257;" d="M149.93,147.29c-0.002-0.008-0.004-0.014-0.004-0.016c0.002-0.002,0.006,0.004,0.012,0.016
							H149.93z"/>
					</g>
				</g>
			</g>
			<g>
				<g>
					<g>
						<g>
							<path style="fill:#CE7E5D;" d="M181.288,151.877c0,0,6.477,3.15,18.818-0.157l-0.481-4.888l-0.005-0.847l-0.024-3.837
								l-0.003-0.514l-0.496-3.689l-13.962-4.551C184.855,140.069,183.085,146.544,181.288,151.877z"/>
						</g>
					</g>
				</g>
				<g>
					<path style="fill:#272327;" d="M195.836,142.895c0.545,1.768,2.409,2.662,3.784,3.09l-0.024-3.837
						C197.837,141.543,195.228,140.933,195.836,142.895z"/>
				</g>
				<g>
					<g>
						<path style="fill:#272327;" d="M203.045,128.62c0-2.438,1.983-4.421,4.421-4.421c2.438,0,4.421,1.983,4.421,4.421
							c0,2.438-1.983,4.421-4.421,4.421C205.029,133.041,203.045,131.058,203.045,128.62z M203.814,128.62
							c0,2.014,1.638,3.652,3.652,3.652c2.014,0,3.652-1.638,3.652-3.652s-1.638-3.652-3.652-3.652
							C205.453,124.968,203.814,126.606,203.814,128.62z"/>
					</g>
					<g>
						<g>
							<g>
								<path style="fill:#CE7E5D;" d="M183.971,128.444c-0.069,0.582-0.102,1.124-0.099,1.642c0.007,1.198,0.202,2.268,0.588,3.391
									c0.508,1.479,1.343,3.054,2.507,5.139c1.829,3.274,5.353,4.899,8.908,5.388c9.44,1.302,11.166-5.019,11.702-14.847
									c0.331-6.102,2.487-9.219,1.297-11.769l-0.003,0c-0.086-0.122-0.176-0.242-0.265-0.359
									c-2.136-2.812-5.331-4.636-8.823-5.182c-0.673-0.105-1.319-0.184-1.942-0.238c-0.141-0.017-0.282-0.028-0.421-0.036
									c-0.058-0.007-0.116-0.011-0.172-0.012c-0.158-0.013-0.313-0.023-0.47-0.027c-0.111-0.007-0.222-0.012-0.331-0.014
									c-0.253-0.01-0.499-0.014-0.74-0.015c-7.69,0.01-10.189,4.354-11.067,8.856
									C184.041,123.421,184.195,126.553,183.971,128.444z"/>
							</g>
						</g>
					</g>
					<g>
						<path style="fill:#CE7E5D;" d="M207.765,126.696c0,0-0.134,4.368,1.162,5.992c1.296,1.623-2.217,1.731-2.217,1.731
							L207.765,126.696z"/>
					</g>
					<g>
						<path style="fill:#272327;" d="M211.43,129.766c0.096,0,0.191-0.035,0.266-0.107c0.153-0.147,0.159-0.39,0.012-0.544
							c-2.619-2.737-5.822-4.077-5.957-4.133c-0.197-0.081-0.422,0.012-0.502,0.209c-0.081,0.196,0.012,0.421,0.208,0.502
							c0.032,0.013,3.191,1.338,5.695,3.953C211.227,129.726,211.328,129.766,211.43,129.766z"/>
					</g>
					<g>
						<path style="fill:#272327;" d="M181.288,122.647c-0.256-4.872-1.522-6.859,0.582-11.141
							c4.188-8.525,11.334-3.898,11.334-3.898c9.009-4.884,15.723,1.922,20.557,6.377c1.984,1.828,1.95,5.048-0.173,6.714
							c-0.926,0.727-2.178,1.081-3.838,0.453c-3.36-1.271-4.231-1.709-4.359,0.855c-0.128,2.564,1.413,5.144-0.684,5.47
							c-2.097,0.326-2.926-1.733-3.304-0.397c-0.377,1.336,0.785,4.362,1.685,5.871c0.9,1.508-1.944,0.289-3.773,2.304
							c-3.443,3.791-6.795,7.402-10.664,6.37c-3.869-1.032-5.932-7.737-6.448-11.348
							C181.687,126.666,181.288,122.647,181.288,122.647z"/>
					</g>
					<g>
						<g>
							<g>
								<path style="fill:#CE7E5D;" d="M200.397,134.004c-0.87-1.283-1.177-3.145-1.057-4.641c0.178-2.22,1.572-4.1,3.395-4.323
									c2.679-0.328,4.065,1.567,4.568,4.12c0.503,2.553-0.033,6.227-3.392,6.586C202.231,135.925,201.109,135.055,200.397,134.004
									z"/>
							</g>
						</g>
					</g>
					<g>
						<g>
							<g>
								<g>
									<path style="fill:#272327;" d="M203.554,132.611c-0.576-0.811-1.12-1.693-1.262-2.701c-0.127-0.9,0.081-2.425,1.157-2.616
										c0.361-0.064,0.309-0.662-0.054-0.598c-1.037,0.184-1.577,1.191-1.693,2.223c-0.168,1.488,0.55,2.852,1.387,4.031
										C203.311,133.264,203.778,132.927,203.554,132.611L203.554,132.611z"/>
								</g>
							</g>
						</g>
					</g>
				</g>
			</g>
			<g>
				<path style="fill:#272327;" d="M199.438,151.007c0,0,12.994,4.931,20.674,11.074c6.861,5.488,0.881,26.378-0.199,34.891
					c0,0-44.701,3.524-55.672,0.996c-10.971-2.528-8.781-23.723-9.989-32.343c-1.208-8.619,5.538-14.698,12.036-15.307
					c6.498-0.609,14.13-1.328,14.13-1.328S186.632,142.775,199.438,151.007z"/>
			</g>
			<g>
				<g>
					<path style="fill:#44584F;" d="M197.086,252.788c-8.921,0.345-17.86-0.173-26.678-1.574c-3.782-0.601-7.765-1.144-11.349-2.554
						c-2.627-1.033-4.972-2.659-5.977-5.395c-0.171-0.465,0.572-0.666,0.742-0.204c1.145,3.116,4.306,4.61,7.296,5.488
						c3.559,1.046,7.307,1.609,10.971,2.15c8.27,1.22,16.644,1.643,24.996,1.32C197.581,251.999,197.58,252.768,197.086,252.788
						L197.086,252.788z"/>
				</g>
			</g>
			<g>
				<g>
					<path style="fill:#44584F;" d="M156.6,158.981c-1.495,3.691-2.417,7.549-2.731,11.521c-0.039,0.49-0.808,0.494-0.769,0
						c0.319-4.039,1.237-7.969,2.758-11.726C156.042,158.324,156.787,158.522,156.6,158.981L156.6,158.981z"/>
				</g>
			</g>
			<g>
				<g>
					<path style="fill:#44584F;" d="M181.182,150.588c5.72-0.839,11.521,0.366,16.412,3.459c0.417,0.264,0.032,0.93-0.388,0.664
						c-4.704-2.974-10.307-4.189-15.819-3.381C180.902,151.401,180.693,150.66,181.182,150.588L181.182,150.588z"/>
				</g>
			</g>
			<g>
				<g>
					<path style="fill:#44584F;" d="M152.515,207.542c-1.36,0.525-3.112,1.259-3.828,2.616c-0.231,0.438-0.895,0.05-0.664-0.388
						c0.818-1.55,2.736-2.37,4.287-2.969C152.773,206.622,152.973,207.365,152.515,207.542L152.515,207.542z"/>
				</g>
			</g>
			<g>
				<g>
					<path style="fill:#44584F;" d="M215.216,202.482c-2.487,14.948-1.999,30.436,1.512,45.183
						c0.992,4.167,2.242,8.268,3.749,12.277c0.173,0.459,0.916,0.26,0.742-0.204c-6.781-18.043-8.418-38.071-5.26-57.051
						C216.038,202.202,215.297,201.994,215.216,202.482L215.216,202.482z"/>
				</g>
			</g>
			<g>
				<path style="fill:#272327;" d="M220.757,191.825c0,0-2.417,31.131,0.199,43.172c2.03,9.345,7.445,23.604,2.893,26.274
					c-4.553,2.671-73.442,12.98-75.605,1.764c-3.01-15.609,6.353-55.51,4.496-71.284c-1.856-15.775-0.218-27.964,2.266-31.157
					C157.49,157.401,220.757,191.825,220.757,191.825z"/>
			</g>
			<g>
				<g>
					<path style="fill:#44584F;" d="M152.786,178.075c0.749,9.743,0.816,19.516,0.028,29.259
						c-0.779,9.642-2.323,19.201-4.057,28.712c-0.089,0.486-0.83,0.28-0.742-0.204c1.748-9.588,3.302-19.223,4.064-28.945
						c0.753-9.599,0.675-19.224-0.063-28.821C151.979,177.581,152.749,177.584,152.786,178.075L152.786,178.075z"/>
				</g>
			</g>
			<g>
				<g>
					<g>
						<path style="fill:#44584F;" d="M258.734,181.127c1.778,2.379,4.341,3.924,7.258,4.447c0.486,0.087,0.28,0.829-0.205,0.742
							c-3.126-0.561-5.821-2.262-7.718-4.8C257.773,181.119,258.44,180.735,258.734,181.127L258.734,181.127z"/>
					</g>
				</g>
				<g>
					<path style="fill:#44584F;" d="M261.995,179.583c-0.388,0.571-1.027,0.814-1.428,0.542c-0.401-0.272-0.412-0.956-0.025-1.527
						c0.388-0.571,1.027-0.814,1.428-0.542C262.372,178.328,262.383,179.011,261.995,179.583z"/>
				</g>
				<g>
					<g>
						<path style="fill:#272327;" d="M201.086,177.778c0,0,21.845,57.329,38.887,57.616c17.042,0.287,29.344-59.166,29.344-59.166
							l-7.121-1.666c0,0-21.581,31.068-22.247,31.553c-0.665,0.485-15.676-39.267-15.676-39.267
							C220.075,154.398,196.388,162.235,201.086,177.778z"/>
					</g>
				</g>
				<g>
					<path style="fill:#44584F;" d="M233.26,231.74c3.852-2.849,8.896-2.889,12.79-0.093c0.393,0.282,0.768-0.368,0.378-0.648
						c-4.085-2.933-9.503-2.898-13.547,0.093C232.498,231.376,232.871,232.027,233.26,231.74L233.26,231.74z"/>
				</g>
				<g>
					<path style="fill:#44584F;" d="M205.678,189.704c3.594,8.906,7.87,17.516,12.807,25.755c0.248,0.414,0.897,0.037,0.648-0.379
						c-4.902-8.182-9.162-16.73-12.731-25.575C206.223,189.063,205.497,189.255,205.678,189.704L205.678,189.704z"/>
				</g>
				<g>
					<g>
						<path style="fill:#44584F;" d="M213.512,161.586c-4.358-0.094-8.149,2.79-10.18,6.504c-2.336,4.271-2.429,9.359-2.081,14.094
							c0.036,0.494-0.733,0.492-0.769,0c-0.375-5.098-0.206-10.656,2.566-15.135c2.241-3.621,6.1-6.325,10.464-6.231
							C214.006,160.827,214.008,161.597,213.512,161.586L213.512,161.586z"/>
					</g>
				</g>
				<g>
					<g>
						<g>
							<path style="fill:#44584F;" d="M239.382,206.105c-0.535,2.241-0.922,4.508-1.15,6.805c-0.053,0.53,0.747,0.621,0.8,0.089
								c0.221-2.225,0.584-4.426,1.102-6.596C240.255,205.893,239.505,205.587,239.382,206.105L239.382,206.105z"/>
						</g>
					</g>
				</g>
				<g>
					<g>
						<g>
							<path style="fill:#44584F;" d="M238.97,208.22c0.429,1.494,1.053,2.89,1.856,4.21c0.276,0.453,0.903-0.063,0.631-0.512
								c-0.765-1.257-1.342-2.605-1.749-4.025C239.561,207.381,238.825,207.714,238.97,208.22L238.97,208.22z"/>
						</g>
					</g>
				</g>
				<g>
					<g>
						<path style="fill:#272327;" d="M259.674,167.063L259.674,167.063c-0.193-0.307-0.101-0.713,0.207-0.906l33.897-21.304
							c0.307-0.193,0.713-0.1,0.906,0.207l0,0c0.193,0.307,0.101,0.713-0.207,0.906l-33.897,21.304
							C260.272,167.462,259.867,167.37,259.674,167.063z"/>
					</g>
					<g>
						<g>
							<path style="fill:#CE7E5D;" d="M262.146,174.458c0,0,0.984-12.437,1.621-13.726c0.637-1.289,10.671-5.35,11.686-6.05
								c1.015-0.7,1.155,1.555-0.734,2.568c-1.889,1.013-4.709,3.084-4.709,3.084s2.818-1.279,3.741-0.75
								c0.922,0.53,5.78,4.999,5.979,7.916c0.199,2.917-2.937,4.196-3.779,4.772c-0.843,0.576-0.876-2.499-0.876-2.499
								s-0.85,0.865-2.385,1.637c-1.487,0.747-2.291,4.632-3.703,5.731C267.575,178.242,262.146,174.458,262.146,174.458z"/>
						</g>
					</g>
					<g>
						<g>
							<g>
								<path style="fill:#994731;" d="M267.775,162.123c0.722-0.623,1.486-1.108,2.342-1.525c0.312-0.152,0.097-0.647-0.216-0.495
									c-0.899,0.437-1.704,0.943-2.462,1.597C267.177,161.926,267.512,162.35,267.775,162.123L267.775,162.123z"/>
							</g>
						</g>
					</g>
					<g>
						<g>
							<g>
								<path style="fill:#994731;" d="M270.483,163.237c1.311-1.054,2.778-2.186,4.568-1.942c0.34,0.046,0.483-0.475,0.138-0.522
									c-2.007-0.273-3.597,0.884-5.087,2.082C269.832,163.072,270.215,163.453,270.483,163.237L270.483,163.237z"/>
							</g>
						</g>
					</g>
					<g>
						<g>
							<g>
								<path style="fill:#994731;" d="M272.722,164.954c1.132-1.173,2.716-1.702,4.326-1.414c0.34,0.061,0.481-0.461,0.138-0.522
									c-1.796-0.321-3.575,0.238-4.845,1.554C272.1,164.822,272.48,165.205,272.722,164.954L272.722,164.954z"/>
							</g>
						</g>
					</g>
					<g>
						<g>
							<g>
								<path style="fill:#994731;" d="M275.176,170.073c0.783-0.937,1.156-2.104,1.012-3.321c-0.04-0.341-0.58-0.346-0.54-0.001
									c0.126,1.071-0.158,2.109-0.853,2.94C274.574,169.955,274.952,170.34,275.176,170.073L275.176,170.073z"/>
							</g>
						</g>
					</g>
					<g>
						<g>
							<g>
								<path style="fill:#994731;" d="M276.153,168.343c0.454-0.387,1.109-0.443,1.629-0.16c0.304,0.166,0.574-0.302,0.268-0.469
									c-0.743-0.405-1.638-0.3-2.278,0.246C275.508,168.186,275.89,168.568,276.153,168.343L276.153,168.343z"/>
							</g>
						</g>
					</g>
				</g>
			</g>
		</g>
	</g>
	<g>
		<g>
			<g>
				<path style="fill:#ADD1C8;" d="M606.849,83.668c0.093-0.025,0.171-0.095,0.203-0.193c0.051-0.155-0.034-0.322-0.189-0.372
					c-0.797-0.26-1.304-0.383-1.325-0.388c-0.158-0.038-0.318,0.059-0.356,0.218c-0.038,0.158,0.059,0.318,0.218,0.356
					c0.005,0.001,0.508,0.124,1.28,0.376C606.736,83.682,606.795,83.682,606.849,83.668z"/>
			</g>
			<g>
				<path style="fill:#ADD1C8;" d="M630.458,136.32c-0.156-0.047-0.245-0.212-0.198-0.368c0.256-0.85,0.486-1.708,0.684-2.549
					c0.037-0.159,0.197-0.257,0.355-0.22c0.159,0.037,0.257,0.196,0.22,0.355c-0.201,0.853-0.434,1.723-0.693,2.584
					c-0.031,0.101-0.11,0.174-0.205,0.2C630.569,136.336,630.513,136.336,630.458,136.32z M631.538,132.065
					c-0.16-0.031-0.265-0.185-0.234-0.345c0.166-0.87,0.302-1.747,0.405-2.606c0.019-0.162,0.167-0.277,0.328-0.258
					c0.162,0.019,0.277,0.166,0.258,0.328c-0.104,0.872-0.243,1.763-0.411,2.646c-0.022,0.114-0.107,0.201-0.212,0.23
					C631.629,132.071,631.584,132.074,631.538,132.065z M632.146,127.718c-0.163-0.012-0.285-0.153-0.274-0.315
					c0.063-0.882,0.092-1.768,0.086-2.633c-0.001-0.163,0.13-0.296,0.293-0.297c0.163-0.001,0.296,0.13,0.297,0.293
					c0.006,0.881-0.023,1.782-0.087,2.679c-0.009,0.128-0.099,0.232-0.217,0.264C632.213,127.717,632.18,127.72,632.146,127.718z
					 M632.214,123.329c-0.163,0.01-0.303-0.114-0.312-0.277c-0.052-0.879-0.142-1.76-0.267-2.619
					c-0.023-0.161,0.088-0.311,0.25-0.335c0.161-0.023,0.311,0.088,0.335,0.25c0.127,0.876,0.219,1.773,0.272,2.668
					c0.008,0.142-0.085,0.266-0.216,0.302C632.255,123.325,632.235,123.328,632.214,123.329z M631.688,118.973
					c-0.16,0.033-0.316-0.071-0.348-0.23c-0.13-0.64-0.283-1.282-0.454-1.908c-0.059-0.216-0.121-0.432-0.184-0.645
					c-0.047-0.156,0.042-0.321,0.199-0.367c0.002-0.001,0.004-0.001,0.007-0.002c0.154-0.042,0.315,0.047,0.361,0.201
					c0.065,0.218,0.127,0.437,0.188,0.658c0.174,0.638,0.33,1.293,0.463,1.945c0.031,0.153-0.062,0.303-0.211,0.344
					C631.701,118.97,631.695,118.971,631.688,118.973z M630.165,114.56c-0.297-0.821-0.636-1.638-1.006-2.43
					c-0.069-0.148-0.005-0.323,0.142-0.393c0.147-0.068,0.323-0.005,0.392,0.142c0.377,0.807,0.723,1.641,1.026,2.479
					c0.056,0.153-0.024,0.323-0.177,0.378c-0.008,0.003-0.015,0.005-0.023,0.007C630.373,114.785,630.218,114.706,630.165,114.56z
					 M628.387,110.598c-0.414-0.766-0.87-1.526-1.353-2.257c-0.09-0.136-0.052-0.319,0.083-0.409
					c0.136-0.09,0.319-0.053,0.409,0.083c0.493,0.745,0.957,1.52,1.379,2.301c0.078,0.143,0.024,0.323-0.119,0.4
					c-0.02,0.011-0.042,0.02-0.063,0.025C628.595,110.778,628.454,110.721,628.387,110.598z M626.048,106.937
					c-0.522-0.699-1.081-1.386-1.663-2.04c-0.108-0.122-0.097-0.308,0.025-0.417c0.122-0.108,0.308-0.097,0.417,0.024
					c0.593,0.667,1.163,1.367,1.695,2.079c0.097,0.131,0.071,0.316-0.06,0.413c-0.031,0.023-0.064,0.039-0.099,0.048
					C626.249,107.076,626.122,107.037,626.048,106.937z M623.208,103.646c-0.615-0.619-1.265-1.221-1.933-1.788
					c-0.124-0.106-0.139-0.292-0.034-0.416c0.106-0.124,0.292-0.139,0.416-0.034c0.68,0.578,1.342,1.191,1.969,1.822
					c0.115,0.116,0.114,0.303-0.001,0.418c-0.038,0.037-0.082,0.062-0.13,0.075C623.397,103.749,623.286,103.724,623.208,103.646z
					 M619.937,100.781c-0.699-0.531-1.427-1.037-2.163-1.502c-0.138-0.087-0.179-0.27-0.091-0.407
					c0.087-0.138,0.27-0.179,0.407-0.092c0.75,0.474,1.491,0.989,2.204,1.531c0.13,0.099,0.155,0.284,0.057,0.414
					c-0.041,0.054-0.097,0.09-0.157,0.106C620.108,100.854,620.013,100.838,619.937,100.781z M616.298,98.402
					c-0.627-0.348-1.265-0.672-1.905-0.967c-0.003,0.004-0.006,0.008-0.01,0.011c-0.601,0.68-1.322,1.257-2.143,1.715
					c-0.143,0.079-0.322,0.028-0.402-0.114c-0.079-0.142-0.028-0.322,0.114-0.402c0.719-0.401,1.355-0.899,1.892-1.483
					c-0.078-0.084-0.103-0.209-0.054-0.32c0.066-0.149,0.24-0.217,0.389-0.151c0.806,0.354,1.616,0.756,2.406,1.195
					c0.143,0.079,0.194,0.259,0.115,0.402c-0.04,0.072-0.106,0.121-0.18,0.141C616.447,98.448,616.368,98.441,616.298,98.402z
					 M607.929,100.401c-0.163,0.013-0.305-0.108-0.318-0.271c-0.013-0.163,0.108-0.305,0.271-0.318
					c0.891-0.071,1.749-0.239,2.535-0.498c0.159-0.049,0.322,0.033,0.373,0.188c0.051,0.155-0.033,0.322-0.188,0.373
					c-0.168,0.055-0.342,0.108-0.516,0.155C609.402,100.216,608.677,100.341,607.929,100.401z M606.156,100.422
					c-0.93-0.05-1.833-0.193-2.684-0.423c-0.158-0.043-0.25-0.205-0.208-0.362c0.043-0.157,0.205-0.251,0.362-0.208
					c0.8,0.216,1.686,0.356,2.562,0.404c0.163,0.009,0.287,0.148,0.279,0.311c-0.007,0.13-0.098,0.236-0.217,0.269
					C606.22,100.42,606.189,100.423,606.156,100.422z M615.013,96.093c-0.143-0.078-0.195-0.258-0.117-0.401
					c0.064-0.117,0.126-0.236,0.184-0.357c0.337-0.696,0.571-1.383,0.695-2.042c0.03-0.16,0.185-0.265,0.345-0.236
					c0.16,0.03,0.266,0.185,0.235,0.345c-0.134,0.711-0.384,1.447-0.744,2.19c-0.063,0.129-0.129,0.258-0.197,0.383
					c-0.04,0.073-0.107,0.123-0.181,0.143C615.161,96.138,615.082,96.131,615.013,96.093z M612.35,96.592
					c-0.844-0.306-1.689-0.562-2.512-0.759c-0.159-0.038-0.256-0.197-0.218-0.356c0.038-0.159,0.197-0.256,0.356-0.218
					c0.845,0.202,1.712,0.464,2.576,0.778c0.153,0.056,0.232,0.225,0.177,0.378c-0.034,0.094-0.111,0.16-0.2,0.184
					C612.471,96.615,612.409,96.614,612.35,96.592z M601.794,99.381c-1.016-0.498-1.644-1.093-1.816-1.722
					c-0.039-0.142-0.054-0.286-0.044-0.428c0.011-0.163,0.151-0.286,0.314-0.275c0.163,0.011,0.286,0.151,0.275,0.314
					c-0.005,0.076,0.003,0.154,0.025,0.233c0.122,0.447,0.671,0.938,1.506,1.347c0.146,0.072,0.207,0.248,0.135,0.395
					c-0.039,0.079-0.109,0.133-0.187,0.155C601.934,99.419,601.861,99.414,601.794,99.381z M608.161,95.507
					c-0.903-0.135-1.778-0.195-2.6-0.179c-0.163,0.003-0.298-0.127-0.301-0.289c-0.003-0.163,0.127-0.298,0.289-0.301
					c0.856-0.016,1.764,0.046,2.699,0.186c0.161,0.024,0.273,0.174,0.248,0.336c-0.018,0.119-0.105,0.212-0.214,0.241
					C608.244,95.51,608.203,95.513,608.161,95.507z M601.05,96.131c-0.078-0.143-0.025-0.322,0.119-0.4
					c0.336-0.183,0.745-0.352,1.215-0.503c0.43-0.139,0.908-0.253,1.398-0.334c0.161-0.027,0.313,0.082,0.339,0.243
					c0.027,0.161-0.083,0.314-0.243,0.339c-0.462,0.076-0.91,0.184-1.314,0.314c-0.435,0.14-0.81,0.295-1.114,0.46
					c-0.02,0.011-0.042,0.02-0.063,0.025C601.258,96.31,601.117,96.254,601.05,96.131z M616.182,91.917
					c-0.162,0.014-0.306-0.105-0.32-0.268c-0.029-0.323-0.087-0.646-0.173-0.959c-0.132-0.485-0.335-0.965-0.603-1.426
					c-0.082-0.141-0.034-0.322,0.107-0.404c0.14-0.082,0.322-0.034,0.404,0.107c0.294,0.505,0.516,1.033,0.662,1.567
					c0.095,0.347,0.159,0.704,0.191,1.062c0.013,0.145-0.081,0.274-0.216,0.311C616.217,91.912,616.2,91.915,616.182,91.917z
					 M614.089,87.928c-0.537-0.584-1.2-1.148-1.971-1.676c-0.134-0.092-0.169-0.276-0.076-0.41c0.092-0.134,0.276-0.169,0.41-0.076
					c0.807,0.554,1.503,1.147,2.071,1.764c0.11,0.12,0.103,0.307-0.017,0.417c-0.036,0.033-0.078,0.056-0.122,0.068
					C614.281,88.041,614.166,88.012,614.089,87.928z M610.665,85.363c-0.729-0.399-1.529-0.773-2.375-1.114
					c-0.151-0.061-0.225-0.233-0.164-0.384c0.061-0.151,0.233-0.225,0.384-0.164c0.868,0.349,1.689,0.734,2.438,1.144
					c0.143,0.078,0.196,0.257,0.117,0.401c-0.04,0.073-0.107,0.123-0.181,0.143C610.813,85.409,610.735,85.401,610.665,85.363z"/>
			</g>
			<g>
				<path style="fill:#ADD1C8;" d="M629.629,139.264c0.089-0.024,0.165-0.089,0.199-0.182c0.16-0.429,0.315-0.862,0.46-1.286
					c0.053-0.154-0.03-0.322-0.184-0.375c-0.154-0.053-0.322,0.03-0.375,0.184c-0.143,0.419-0.296,0.847-0.455,1.271
					c-0.057,0.153,0.021,0.323,0.173,0.38C629.508,139.278,629.571,139.28,629.629,139.264z"/>
			</g>
		</g>
		<g>
			<path style="fill:#7CA196;" d="M607.735,72.169l-1.046,11.823l-8.788-3.475C597.901,80.517,602.371,73.144,607.735,72.169z"/>
			<polygon style="fill:#ADD1C8;" points="566.294,65.5 594.224,83.984 605.532,73.323 			"/>
			<polygon style="fill:#ADD1C8;" points="566.294,65.5 617.177,67.223 605.532,73.323 			"/>
			<polygon style="fill:#7CA196;" points="575.947,67.424 605.532,73.323 608.651,71.689 			"/>
		</g>
	</g>
	<g>
		<g>
			<g>
				<g>
					<g>
						<path style="fill:#272327;" d="M596.881,162.052c8.448,0.161,18.977-1.504,18.977-1.504s-4.562-8.318-5.508-26.392
							c-0.322-6.147-0.594-10.12-3.465-14.856c-1.744-2.873-8.245-9.851-19.481-4.755c0,0-4.768-1.255-8.405,4.504
							c-3.129,4.951,0.621,14.744-0.317,19.438c-1.128,5.648-3.712,8.941-3.712,8.941s-5.688,5.57-3.368,12.372
							c2.32,6.803,6.37,4.934,10.565,3.383C586.361,161.633,596.881,162.052,596.881,162.052z"/>
					</g>
				</g>
			</g>
			<g>
				<g>
					<path style="fill:#FFFFFF;" d="M580.063,146.261c0.147,0,0.266-0.119,0.266-0.265v-8.318c0-0.147-0.119-0.266-0.266-0.266
						c-0.147,0-0.266,0.119-0.266,0.266v8.318C579.797,146.142,579.916,146.261,580.063,146.261z"/>
				</g>
				<g>
					<path style="fill:#FFFFFF;" d="M577.928,147.193l1.39,2.098c0.353,0.533,1.135,0.533,1.488,0l1.391-2.098
						c0.189-0.285,0.198-0.653,0.024-0.948l-1.391-2.35c-0.346-0.584-1.191-0.584-1.536,0l-1.39,2.35
						C577.73,146.54,577.739,146.908,577.928,147.193z"/>
				</g>
			</g>
			<g>
				<g>
					<g>
						<path style="fill:#272327;" d="M530.338,188.159c0,0-1.761-0.557,1.453-4.896c3.215-4.339,10.264-10.889,10.264-10.889
							S545.418,183.846,530.338,188.159z"/>
					</g>
					<g>
						<polygon style="fill:#DE7878;" points="543.415,177.909 532.737,161.89 526.283,164.856 535.57,185.067 						"/>
					</g>
					<g>
						<path style="fill:#454BC7;" d="M530.338,188.16c0,0,6.121,5.026,12.973,16.33c1.288,2.122,2.672,4.008,4.114,5.621
							c5.416,6.066,11.606,8.308,16.186,4.987c0.689-0.5,1.342-1.125,1.95-1.883c1.814-2.26,3.889-6.385,5.88-10.967
							c4.29-9.883,8.182-21.889,8.182-21.889l-5.524-13.037l-4.059-9.582l-1.564,3.898l-4.964,12.375l-7.331,18.272l-14.126-19.912
							c-0.012,0.055-0.025,0.11-0.037,0.168c-0.693,3.347-2.099,6.461-4.088,9.132C535.942,184.346,533.368,186.578,530.338,188.16z
							"/>
					</g>
					<g>
						<path style="fill:#1E227E;" d="M547.426,210.111c5.416,6.066,11.606,8.308,16.186,4.987c-2.891-2.595-9.226-7.393-14.879-5.59
							C548.219,209.673,547.787,209.875,547.426,210.111z"/>
					</g>
					<g>
						<g>
							<path style="fill:#1E227E;" d="M556.473,192.121c1.907,3.485,3.422,7.16,4.523,10.976c0.095,0.329-0.418,0.47-0.512,0.141
								c-1.089-3.774-2.584-7.404-4.47-10.849C555.85,192.089,556.308,191.821,556.473,192.121L556.473,192.121z"/>
						</g>
					</g>
					<g>
						<g>
							<path style="fill:#1E227E;" d="M558.261,195.716c1.143,0.95,2.164,2.037,3.307,2.987c0.263,0.219-0.115,0.593-0.376,0.376
								c-1.143-0.95-2.164-2.037-3.307-2.987C557.622,195.873,557.999,195.499,558.261,195.716L558.261,195.716z"/>
						</g>
					</g>
				</g>
				<g>
					<g>
						<g>
							<polygon style="fill:#DE7878;" points="561.684,420.005 566.098,442.778 574.162,442.914 575.518,420.001 							"/>
						</g>
					</g>
					<g>
						<path style="fill:#272327;" d="M576.557,420.039c0,0,1.176,2.007,0.89,4.479c-0.371,3.204-2.166,4.547-2.166,4.547
							l-12.153,0.724c0,0-4.467-3.075-1.941-9.043L576.557,420.039z"/>
					</g>
					<g>
						<g>
							<g>
								<g>
									<g>
										<g>
											<g>
												<g>
													<g>
														<g>
															<path style="fill:#6AB886;" d="M560.256,444.142c0,0-7.479,4.931-9.846,5.065c-1.556,0.088-2.987,0.689-4.045,2.391
																c-0.551,0.887-1,2.073-1.314,3.641l16.906,0.099c0.163-0.286,0.855-1.389,1.899-1.707
																c1.108-0.339,3.201,1.457,3.519,1.739l6.367,0.036c0,0,0.253-2.226,0.555-4.911
																c0.404-3.579,2.042-10.625,2.147-11.638c0.186-1.774-4.457,2.57-4.457,2.57l-3.573,0.535l-0.505-3.634
																c-0.215-1.546-1.626-2.683-3.172-2.47c-0.76,0.105-1.387,0.526-1.448,1.604
																C563.126,440.337,560.256,444.142,560.256,444.142z"/>
														</g>
													</g>
												</g>
											</g>
											<g>
												<g>
													<path style="fill:#FFFFFF;" d="M556.535,445.966c0.079-0.076,0.2-0.084,0.291-0.023
														c0.417,0.281,0.767,0.676,1.004,1.17c0.125,0.26-0.256,0.509-0.382,0.246c-0.21-0.439-0.516-0.788-0.881-1.034
														c-0.122-0.082-0.141-0.253-0.035-0.355C556.533,445.969,556.534,445.967,556.535,445.966z"/>
												</g>
											</g>
											<g>
												<g>
													<path style="fill:#FFFFFF;" d="M557.885,445.182c0.079-0.076,0.2-0.084,0.291-0.023
														c0.417,0.281,0.767,0.676,1.004,1.17c0.125,0.26-0.256,0.509-0.382,0.246c-0.21-0.439-0.516-0.788-0.881-1.034
														c-0.122-0.082-0.141-0.253-0.035-0.355C557.883,445.184,557.884,445.183,557.885,445.182z"/>
												</g>
											</g>
											<g>
												<g>
													<path style="fill:#FFFFFF;" d="M559.276,444.451c0.079-0.076,0.2-0.084,0.291-0.023
														c0.417,0.281,0.767,0.676,1.003,1.17c0.125,0.26-0.256,0.509-0.382,0.246c-0.21-0.439-0.516-0.788-0.881-1.034
														c-0.122-0.082-0.141-0.253-0.035-0.355C559.274,444.453,559.275,444.452,559.276,444.451z"/>
												</g>
											</g>
											<g>
												<path style="fill:#FFFFFF;" d="M545.051,455.405h16.868c0,0,0.012-0.024,0.038-0.068c0.163-0.286,0.943-1.38,2.229-1.38
													c1.158,0,2.871,1.13,3.189,1.412c0.027,0.023,0.041,0.036,0.041,0.036h6.326c0,0,1.062-0.64,1.566-2.143
													c0.808-2.406-1.011-2.768-1.011-2.768l-4.563,0.13c-2.029-1.102-4.449-1.463-6.712-1.005
													c-2.264,0.46-3.525,3.098-5.792,3.543c-2.76,0.542-7.144-1.494-7.144-1.494s-1.937-0.596-3.721-0.071
													c-0.46,0.135-0.909,0.344-1.314,0.657C543.079,453.783,545.051,455.405,545.051,455.405z"/>
											</g>
										</g>
									</g>
								</g>
							</g>
						</g>
					</g>
				</g>
				<g>
					<g>
						<g>
							<polygon style="fill:#DE7878;" points="591.897,419.747 591.712,443.947 599.711,444.347 605.746,421.018 							"/>
						</g>
					</g>
					<g>
						<path style="fill:#272327;" d="M605.66,421.352c0,0,0.889,2.132,0.338,4.553c-0.714,3.137-2.568,4.259-2.568,4.259
							l-11.608-0.718c0,0-3.889-3.582-0.819-9.209L605.66,421.352z"/>
					</g>
					<g>
						<path style="fill:#6AB886;" d="M606.564,455.406H588.56c0,0-0.523-1.009,0.331-3.803c0.173-0.567,0.372-1.273,0.584-2.037
							c0.824-3.014,1.795-6.953,1.795-6.953s3.497-9.233,7.001-7.632c3.073,1.404,1.842,8.246,1.842,8.246s0.302,2.359,2.631,4.439
							c1.71,1.526,3.409,2.644,3.868,4.843C606.78,453.307,606.784,454.25,606.564,455.406z"/>
					</g>
					<g>
						<path style="fill:#6AB886;" d="M591.712,438.858c0,0-1.465,0.015-1.844,2.109c-0.378,2.094,0.346,5.813,0.346,5.813h9.188
							c0,0,3.708-5.124,3.178-6.578c-0.53-1.454-1.449-1.344-1.449-1.344S594.161,442.525,591.712,438.858z"/>
					</g>
					<g>
						<g>
							<path style="fill:#FFFFFF;" d="M599.389,444.235c-1.013-0.789-2.341-0.686-3.252,0.202c-0.245,0.239-0.621-0.137-0.376-0.376
								c1.137-1.109,2.76-1.171,4.003-0.202C600.034,444.069,599.656,444.443,599.389,444.235L599.389,444.235z"/>
						</g>
					</g>
					<g>
						<g>
							<path style="fill:#FFFFFF;" d="M599.897,445.916c-1.013-0.789-2.341-0.687-3.252,0.202c-0.245,0.239-0.621-0.136-0.376-0.376
								c1.137-1.109,2.76-1.171,4.003-0.202C600.542,445.751,600.164,446.124,599.897,445.916L599.897,445.916z"/>
						</g>
					</g>
					<g>
						<g>
							<path style="fill:#FFFFFF;" d="M600.408,447.462c-1.013-0.789-2.341-0.687-3.252,0.202c-0.245,0.239-0.621-0.136-0.376-0.376
								c1.137-1.109,2.76-1.17,4.003-0.202C601.053,447.297,600.674,447.67,600.408,447.462L600.408,447.462z"/>
						</g>
					</g>
					<g>
						<path style="fill:#FFFFFF;" d="M606.564,455.406H588.56c0,0-0.523-1.009,0.331-3.803c0.173-0.567,0.372-1.273,0.584-2.037
							c0.602-0.099,1.424,0.006,1.845,1.103c0.713,1.861,2.187,2.108,3.459,2.047c1.27-0.061,3.402-2.365,6.828-2.108
							c2.948,0.22,2.919,2.443,5.006,1.901C606.78,453.307,606.784,454.25,606.564,455.406z"/>
					</g>
				</g>
				<g>
					<g>
						<path style="fill:#454BC7;" d="M619.576,166.912c-0.234,4.418-2.457,9.862-4.332,14.028c-0.847,1.883-1.532,4.309-2.083,6.88
							c-1.626,7.602-2.078,16.487-2.078,16.487c-16.16,0.704-34.26,2.587-39.109,0.875c0,0-0.216-1.192-0.532-2.935
							c-0.514-2.831-1.301-7.122-1.878-10.121c-0.828-4.311-1.727-11.667-1.917-19.142c-0.023-0.932-0.036-1.87-0.036-2.802
							c0-3.023,0.296-5.942,0.865-8.542c1.013-4.615,2.891-8.233,5.514-9.664c1.348-0.738,4.436-0.88,7.974-0.743
							c7.223,0.281,16.316,1.738,16.316,1.738s0.395,0.177,1.096,0.48c0.886,0.384,2.254,0.971,3.917,1.654
							c1.078,0.444,2.278,0.925,3.55,1.418c2.561,0.995,5.41,2.034,8.116,2.883c0.093,0.031,0.19,0.06,0.286,0.091
							c1.691,0.522,2.805,1.47,3.485,2.711C619.441,163.505,619.669,165.126,619.576,166.912z"/>
					</g>
				</g>
				<g>
					<path style="fill:#272327;" d="M561.19,242.271c0,0-16.882,60.775-19.219,82.332c-3.108,28.662,10.723,89.224,13.506,92.98
						c5.194,7.012,24.154,7.272,25.972-4.675c1.818-11.947-8.831-72.203-5.714-82.072c3.117-9.869,24.674-98.175,24.674-98.175
						C588.732,227.501,575.305,232.829,561.19,242.271z"/>
					<g>
						<path style="fill:#44584F;" d="M542.775,325.972c3.645,1.841,7.749,2.283,11.7,1.246c0.485-0.127,0.279-0.879-0.207-0.751
							c-3.743,0.983-7.644,0.578-11.1-1.167C542.722,325.073,542.327,325.745,542.775,325.972L542.775,325.972z"/>
					</g>
					<g>
						<path style="fill:#44584F;" d="M585.878,273.983c-2.234,7.315-5.135,14.421-7.782,21.591
							c-3.133,8.485-6.112,17.062-8.184,25.876c-0.969,4.122-1.739,8.304-2.132,12.523c-0.492,5.28-0.252,10.597,0.298,15.862
							c1.122,10.746,3.025,21.413,4.348,32.137c1.5,12.154,2.72,24.342,3.669,36.551c0.039,0.497,0.818,0.501,0.779,0
							c-0.837-10.758-1.882-21.499-3.146-32.215c-1.259-10.677-2.931-21.29-4.333-31.947c-0.691-5.255-1.199-10.552-1.09-15.858
							c0.097-4.702,0.76-9.364,1.718-13.964c1.834-8.806,4.689-17.375,7.749-25.821c2.958-8.165,6.319-16.217,8.857-24.529
							C586.776,273.71,586.024,273.504,585.878,273.983L585.878,273.983z"/>
					</g>
					<g>
						<path style="fill:#DE7878;" d="M574.472,203.188l0.149,0.848l0.508,2.901l0.972,5.558c18.632,7.175,34.182-2.283,34.182-2.283
							c-0.375-0.825-0.597-2.015-0.721-3.275c-0.182-1.812-0.167-3.765-0.128-4.97c0.021-0.717,0.052-1.171,0.052-1.171
							L574.472,203.188z"/>
					</g>
					<g>
						<path style="fill:#9E4950;" d="M574.621,204.036l0.508,2.901c9.339,1.403,21.01,1.277,34.434,0
							c-0.182-1.812-0.167-3.765-0.128-4.97L574.621,204.036z"/>
					</g>
					<g>
						<path style="fill:#272327;" d="M604.779,213.567c0,0,18.21,6.715,18.998,26.949c0.788,20.234-6.136,96.769-7.081,111.533
							c-0.911,14.237-3.515,47.521-4.72,62.779c-0.347,4.391-4.133,7.704-8.532,7.464l-12.349-0.673
							c-4.463-0.243-7.889-4.049-7.663-8.513c1.681-33.129,7.926-157.386,7.553-167.638c-0.431-11.839,0.43-26.261,0.43-26.261
							L604.779,213.567z"/>
					</g>
					<g>
						<path style="fill:#44584F;" d="M605.453,422.351c-4.902,0.306-9.926,0.446-14.785-0.387c-0.252-0.043-0.145-0.427,0.106-0.384
							c4.819,0.827,9.817,0.677,14.679,0.373C605.709,421.936,605.708,422.335,605.453,422.351L605.453,422.351z"/>
					</g>
					<g>
						<g>
							<path style="fill:#44584F;" d="M607.501,324.495c-4.521,1.862-9.66,1.692-14.062-0.422c-0.308-0.148-0.039-0.606,0.268-0.459
								c4.28,2.055,9.267,2.175,13.653,0.369C607.675,323.853,607.813,324.367,607.501,324.495L607.501,324.495z"/>
						</g>
					</g>
					<g>
						<path style="fill:#272327;" d="M616.011,221.462c0,0-3.501-5.523-5.726-12.931c0,0-13.304,6.204-34.964,2.667
							c0,0-7.613,12.468-14.175,31.142C561.145,242.34,611.199,230.438,616.011,221.462z"/>
					</g>
					<g>
						<path style="fill:#44584F;" d="M602.676,217.694c1.465,9.922,9.785,18.826,20.068,19.275c0.501,0.022,0.5-0.757,0-0.779
							c-9.96-0.435-17.904-9.137-19.317-18.703C603.355,216.993,602.604,217.203,602.676,217.694L602.676,217.694z"/>
					</g>
					<g>
						<path style="fill:#44584F;" d="M580.424,218.143c-0.58,4.287-2.026,8.626-5.014,11.854c-2.799,3.024-6.621,4.465-10.714,4.222
							c-0.501-0.03-0.499,0.749,0,0.779c4.17,0.248,8.135-1.201,11.049-4.222c3.22-3.339,4.818-7.905,5.429-12.426
							C581.242,217.86,580.491,217.648,580.424,218.143L580.424,218.143z"/>
					</g>
					<g>
						<g>
							<g>
								<path style="fill:#44584F;" d="M593.517,232.765c-0.661,8.05-1.53,16.082-2.19,24.132c-0.028,0.338-0.559,0.341-0.531,0
									c0.661-8.05,1.53-16.082,2.19-24.132C593.013,232.426,593.545,232.423,593.517,232.765L593.517,232.765z"/>
							</g>
						</g>
						<g>
							<g>
								<path style="fill:#44584F;" d="M590.305,233.371c-0.394,2.376-0.666,4.769-0.799,7.174
									c-0.056,1.015-0.139,2.053-0.072,3.069c0.077,1.164,0.914,3.077,2.431,2.304c0.304-0.155,0.573,0.303,0.268,0.459
									c-0.832,0.424-1.764,0.192-2.409-0.474c-0.761-0.786-0.841-1.962-0.836-2.995c0.015-3.237,0.375-6.488,0.904-9.678
									C589.849,232.893,590.361,233.036,590.305,233.371L590.305,233.371z"/>
							</g>
						</g>
					</g>
					<g>
						<g>
							<path style="fill:#44584F;" d="M611.405,214.741c-2.051,2.081-5.598,2.351-8.315,2.841
								c-3.478,0.627-6.988,1.109-10.518,1.304c-6.564,0.363-13.339-0.257-19.431-2.869c-0.313-0.134-0.043-0.592,0.268-0.459
								c5.894,2.527,12.466,3.132,18.817,2.814c3.428-0.171,6.836-0.618,10.215-1.213c1.545-0.272,3.1-0.543,4.626-0.915
								c1.428-0.348,2.906-0.808,3.963-1.88C611.27,214.122,611.645,214.498,611.405,214.741L611.405,214.741z"/>
						</g>
					</g>
				</g>
				<g>
					<g>
						<path style="fill:#1E227E;" d="M571.609,202.903c6.504,0.626,12.941,0.369,19.448-0.024c6.611-0.4,13.232-0.617,19.841-1.053
							c0.341-0.022,0.34,0.509,0,0.531c-6.609,0.437-13.23,0.654-19.841,1.053c-6.507,0.393-12.944,0.65-19.448,0.024
							C571.271,203.402,571.268,202.87,571.609,202.903L571.609,202.903z"/>
					</g>
				</g>
				<g>
					<path style="fill:#DE7878;" d="M563.513,174.014c1.461-0.039,2.839-0.407,4.136-1.029c2.449-1.169,4.603-3.234,6.452-5.662
						c4.268-5.598,6.925-13.131,7.864-16.089c-3.539-0.138-6.626,0.005-7.975,0.742c-2.623,1.431-4.5,5.048-5.512,9.663
						L563.513,174.014z"/>
				</g>
				<g>
					<g>
						<path style="fill:#1E227E;" d="M609.123,182.248c-1.911,7.183-2.776,14.6-2.573,22.03c0.01,0.342-0.522,0.342-0.531,0
							c-0.205-7.476,0.669-14.945,2.592-22.171C608.698,181.777,609.211,181.917,609.123,182.248L609.123,182.248z"/>
					</g>
				</g>
				<g>
					<g>
						<path style="fill:#1E227E;" d="M594.555,162.049c-2.152,2.045-5.443,2.736-8.201,1.558c-2.755-1.176-4.535-4.033-4.544-6.999
							c-0.001-0.342,0.53-0.343,0.531,0c0.009,2.759,1.657,5.413,4.22,6.509c2.56,1.095,5.62,0.456,7.619-1.443
							C594.428,161.438,594.804,161.813,594.555,162.049L594.555,162.049z"/>
					</g>
				</g>
				<g>
					<g>
						<path style="fill:#1E227E;" d="M571.026,162.929c0.789,6.001-4.094,10.426-6.024,15.66c-1.021,2.77-1.08,5.827-0.048,8.606
							c1.04,2.802,3.153,4.945,4.962,7.258c1.756,2.246,1.993,4.876,1.858,7.639c-0.017,0.34-0.548,0.342-0.531,0
							c0.067-1.379,0.089-2.782-0.213-4.138c-0.322-1.446-1.044-2.582-1.965-3.721c-1.649-2.039-3.46-4.01-4.46-6.473
							c-0.984-2.424-1.202-5.147-0.604-7.695c0.632-2.696,2.139-5.065,3.535-7.418c1.751-2.951,3.425-6.176,2.96-9.716
							C570.451,162.591,570.982,162.594,571.026,162.929L571.026,162.929z"/>
					</g>
				</g>
				<path style="fill:#9E4950;" d="M567.219,173.182c0.144-0.062,0.288-0.127,0.428-0.196c0.131-0.062,0.261-0.128,0.392-0.196
					c1.804-3.063,3.474-6.161,2.987-9.861c-0.046-0.337-0.575-0.34-0.533,0c0.457,3.471-1.141,6.638-2.857,9.544
					c-0.033,0.059-0.069,0.114-0.101,0.173C567.432,172.826,567.324,173.002,567.219,173.182z"/>
			</g>
			<g>
				<g>
					<g>
						<g>
							<g>
								<path style="fill:#DE7878;" d="M599.378,155.206c-2.619,3.236-14.591,8.828-15.004,0.511l0.971-4.408l1.059-4.81
									l0.741-3.368l10.549-5.513L599.378,155.206z"/>
							</g>
						</g>
					</g>
					<g>
						<g>
							<g>
								<path style="fill:#272327;" d="M595.22,143.087c-4.704,8.206-9.056,11.003-10.433,10.757l1.639-7.442L595.22,143.087z"/>
							</g>
						</g>
					</g>
				</g>
				<g>
					<g>
						<g>
							<g>
								<path style="fill:#DE7878;" d="M601.247,135.441c-1.309,3.257-2.371,4.267-5.174,7.28c-2.502,2.688-6.44,3.781-8.394,3.742
									c-7.099-0.143-10.088-3.323-8.263-12.787c1.134-5.877-0.174-9.35,1.562-11.49l0.003,0c0.112-0.095,0.224-0.188,0.336-0.278
									c2.699-2.165,6.167-3.139,9.614-2.828C608.059,120.625,603.126,130.767,601.247,135.441z"/>
							</g>
						</g>
					</g>
					<g>
						<g>
							<path style="fill:#272327;" d="M602.759,134.41c0,0-3.939,0.667-5.786-0.877c-1.846-1.543-0.018-4.375-1.756-4.325
								c-6.08,0.176,0.283-5.16-2.204-4.917c-2.488,0.243-5.633,1.714-7.944,1.346c0,0,2.137-1.302,2.153-2.809
								c0,0-5.407,3.814-8.107,3.261c0,0,1.069-5.804,6.635-7.528c5.565-1.724,15.736,0.21,18.334,3.294
								C606.682,124.941,602.759,134.41,602.759,134.41z"/>
						</g>
					</g>
					<g>
						<g>
							<g>
								<g>
									<path style="fill:#9E4950;" d="M583.594,141.701c0.67,0.322,1.414,0.419,2.044-0.039c0.32-0.232-0.055-0.716-0.374-0.484
										c-0.45,0.327-0.97,0.181-1.433-0.041C583.474,140.965,583.24,141.531,583.594,141.701L583.594,141.701z"/>
								</g>
							</g>
						</g>
					</g>
					<g>
						<g>
							<g>
								<path style="fill:#9E4950;" d="M592.384,135.474c-0.065,0.508-0.908,0.818-1.882,0.693
									c-0.974-0.125-1.712-0.637-1.646-1.145c0.065-0.508,0.908-0.818,1.882-0.693
									C591.712,134.453,592.449,134.966,592.384,135.474z"/>
							</g>
						</g>
					</g>
					<g>
						<g>
							<g>
								<path style="fill:#9E4950;" d="M582.224,134.701c-0.065,0.509-0.908,0.819-1.881,0.694
									c-0.459-0.059-0.865-0.204-1.158-0.393c0.067-0.428,0.143-0.87,0.231-1.326c0.002-0.019,0.007-0.038,0.009-0.055
									c0.322-0.091,0.726-0.119,1.153-0.065C581.551,133.682,582.289,134.194,582.224,134.701z"/>
							</g>
						</g>
					</g>
					<g>
						<g>
							<g>
								<path style="fill:#272327;" d="M589.126,131.8c-0.061,0.477-0.401,0.827-0.759,0.781c-0.358-0.046-0.599-0.47-0.538-0.947
									c0.061-0.477,0.401-0.827,0.759-0.781C588.946,130.898,589.187,131.323,589.126,131.8z"/>
							</g>
						</g>
					</g>
					<g>
						<g>
							<g>
								<path style="fill:#272327;" d="M583.28,131.319c-0.061,0.477-0.401,0.827-0.759,0.781c-0.358-0.046-0.599-0.47-0.538-0.948
									c0.061-0.477,0.401-0.827,0.759-0.781C583.1,130.418,583.341,130.842,583.28,131.319z"/>
							</g>
						</g>
					</g>
					<g>
						<g>
							<g>
								<g>
									<path style="fill:#272327;" d="M588.407,129.219c0.723-0.175,1.626,0.061,1.827,0.872c0.187,0.757,1.402,0.594,1.213-0.173
										c-0.353-1.429-1.775-2.26-3.212-1.911C587.476,128.19,587.639,129.405,588.407,129.219L588.407,129.219z"/>
								</g>
							</g>
						</g>
					</g>
					<g>
						<g>
							<g>
								<g>
									<path style="fill:#272327;" d="M581.373,129.375c0.54-0.517,1.233-1.274,2.053-0.957c0.735,0.284,1.209-0.846,0.473-1.13
										c-1.306-0.503-2.362,0.246-3.274,1.118C580.06,128.946,580.803,129.92,581.373,129.375L581.373,129.375z"/>
								</g>
							</g>
						</g>
					</g>
					<g>
						<g>
							<g>
								<path style="fill:#272327;" d="M584.473,135.792c0.261,0.092,0.574,0.166,0.938,0.193c0.166,0.013,0.31-0.112,0.323-0.277
									c0.012-0.166-0.113-0.31-0.278-0.323c-0.577-0.043-0.989-0.221-1.239-0.369c0.934-0.788,1.378-1.985,1.398-2.042
									c0.057-0.156-0.024-0.328-0.18-0.385c-0.148-0.055-0.329,0.023-0.386,0.18c-0.005,0.013-0.504,1.354-1.499,1.994
									c-0.076,0.049-0.126,0.13-0.136,0.22c-0.01,0.09,0.021,0.18,0.084,0.244C583.518,135.246,583.844,135.57,584.473,135.792z"
									/>
							</g>
						</g>
					</g>
					<g>
						<g>
							<g>
								<path style="fill:#FFFFFF;" d="M581.834,136.921c0,0,2.263,0.701,6.513,0.148c0,0-0.825,3.78-3.926,3.365
									C581.79,140.081,581.834,136.921,581.834,136.921z"/>
							</g>
						</g>
					</g>
				</g>
				<g>
					<g>
						<g>
							<g>
								<g>
									<path style="fill:#DE7878;" d="M594.232,137.283c-0.26-1.283,0.14-2.607,0.989-3.604c1.1-1.291,3.078-3.241,4.683-2.809
										c2.359,0.635,2.376,2.806,1.867,4.951c-0.509,2.145-2.297,4.813-5.236,3.977
										C595.066,139.38,594.445,138.334,594.232,137.283z"/>
								</g>
							</g>
						</g>
					</g>
					<g>
						<g>
							<g>
								<g>
									<g>
										<path style="fill:#272327;" d="M597.543,137.399c-0.025-0.903,0.012-1.842,0.432-2.664
											c0.375-0.735,1.343-1.757,2.291-1.335c0.318,0.141,0.593-0.329,0.273-0.472c-0.913-0.406-1.87,0.059-2.505,0.763
											c-0.917,1.016-1.071,2.404-1.035,3.716C597.008,137.757,597.553,137.751,597.543,137.399L597.543,137.399z"/>
									</g>
								</g>
							</g>
						</g>
					</g>
				</g>
			</g>
		</g>
		<g>
			
				<rect x="557.814" y="91.763" transform="matrix(0.4904 -0.8715 0.8715 0.4904 126.256 587.7054)" style="fill:#E59C25;" width="15.7" height="188.261"/>
			
				<rect x="644.999" y="225.573" transform="matrix(0.4904 -0.8715 0.8715 0.4904 128.2824 687.5908)" style="fill:#A5BBD7;" width="14.182" height="17.06"/>
			<g>
				<path style="fill:#A8681B;" d="M627.179,226.881c-3.491-5.634-8.88-9.978-15.207-12.003c-4.123-1.318-8.497-1.681-12.752-1.095
					l-1.017-0.572c1.854-0.32,3.742-0.458,5.63-0.412c6.694,0.163,13.224,2.593,18.278,7.011c3.537,3.09,6.287,7.016,8.009,11.361
					l-0.997-0.561C628.569,229.324,627.918,228.078,627.179,226.881z"/>
			</g>
			<g>
				<path style="fill:#A8681B;" d="M579.112,202.468l-0.676-0.38c2.223-1.792,4.877-3.032,7.693-3.619
					c3.463-0.722,7.125-0.458,10.393,0.933c4.594,1.956,8.031,5.722,12.063,8.541c5.776,4.04,13.046,5.545,19.905,4.298l0.949,0.534
					c-2.742,0.597-5.569,0.764-8.381,0.488c-3.903-0.383-7.734-1.576-11.108-3.586c-4.222-2.515-7.554-6.273-11.836-8.691
					C592.082,197.583,584.45,198.321,579.112,202.468z"/>
			</g>
			<g>
				<path style="fill:#A8681B;" d="M570.455,188.154c-3.245-3.135-5.322-7.385-5.814-11.843l0.777,0.437
					c0.793,5.621,4.169,10.839,9.197,13.614c4.94,2.725,11.021,2.84,16.139,0.643l0.784,0.441c-1.801,0.84-3.73,1.394-5.717,1.65
					C580.244,193.809,574.522,192.078,570.455,188.154z"/>
			</g>
			<g>
				<path style="fill:#A8681B;" d="M567.085,195.701l-0.622-0.35c0.093-2.931-2.024-6.175-3.906-8.219
					c-2.835-3.074-6.344-5.502-8.801-8.924c-1.882-2.624-3.144-6.081-2.288-9.309l0.688,0.387c-0.207,0.817-0.281,1.674-0.209,2.515
					c0.354,4.217,3.339,7.495,6.288,10.24c2.891,2.694,6.153,5.286,7.904,8.922C566.848,192.431,567.232,194.115,567.085,195.701z"
					/>
			</g>
			<g>
				<path style="fill:#A8681B;" d="M538.882,171.983c-4.149-2.354-9.427-2.123-13.476,0.265l-0.707-0.398
					c4.309-2.704,10.041-3.041,14.532-0.487c4.455,2.532,7.093,7.568,7.017,12.613l-0.709-0.399
					C545.478,178.92,542.992,174.314,538.882,171.983z"/>
			</g>
			<g>
				<path style="fill:#A8681B;" d="M510.81,164.034l-0.598-0.336c1.932-4.174,6.492-6.903,11.408-5.964
					c3.928,0.754,7.169,3.416,11.113,4.201c1.926,0.384,3.924,0.458,5.868,0.199c0.212-0.028,0.431-0.065,0.656-0.107l0.897,0.505
					c-0.784,0.212-1.591,0.335-2.336,0.398c-3.712,0.312-7.228-0.583-10.554-2.185c-3.77-1.819-7.497-3.462-11.616-1.623
					C513.419,160.118,511.746,161.901,510.81,164.034z"/>
			</g>
			<g>
				<path style="fill:#A8681B;" d="M505.085,152.169c-0.362-0.28,0.143-0.782,0.503-0.506c2.778,2.145,6.547,2.848,9.894,1.738
					c1.531-0.51,2.894-1.379,4.01-2.496l0.639,0.359c-1.228,1.269-2.745,2.252-4.457,2.822
					C512.068,155.283,508.065,154.467,505.085,152.169z"/>
			</g>
			<g>
				<path style="fill:#A8681B;" d="M635.065,220.272c0.434-1.231,1.051-2.337,1.813-3.313l0.618,0.348
					c-0.735,0.923-1.33,1.971-1.74,3.136c-1.57,4.449,0.144,9.545,4.458,11.684c0.411,0.204,0.06,0.823-0.349,0.62
					C635.285,230.479,633.397,225.007,635.065,220.272z"/>
			</g>
			<polygon style="fill:#272327;" points="631.268,208.827 632.921,214.733 641.18,219.38 638.304,209.104 584.564,178.864 
				574.004,181.579 578.468,184.091 584.658,182.599 			"/>
			
				<rect x="635.88" y="224.984" transform="matrix(-0.4904 0.8715 -0.8715 -0.4904 1161.834 -218.5196)" style="fill:#272327;" width="17.851" height="10.888"/>
			
				<rect x="483.146" y="135.425" transform="matrix(-0.4904 0.8715 -0.8715 -0.4904 857.1682 -213.4675)" style="fill:#272327;" width="15.699" height="16.905"/>
			
				<rect x="496.816" y="150.024" transform="matrix(-0.4904 0.8715 -0.8715 -0.4904 884.2464 -213.9143)" style="fill:#272327;" width="15.699" height="3.091"/>
			<path style="fill:#A5BBD7;" d="M479.78,146.573l-13.579-14.229l-3.696-3.871c-0.391-0.408-0.015-1.076,0.537-0.955l5.184,1.14
				l19.253,4.233L479.78,146.573z"/>
			<path style="fill:#272327;" d="M466.201,132.344l-3.696-3.871c-0.391-0.408-0.015-1.076,0.537-0.955l5.184,1.14
				C467.628,129.886,466.93,131.154,466.201,132.344z"/>
		</g>
		<g>
			<g>
				<polygon style="fill:#DE7878;" points="627.615,211.418 617.21,215.938 615.053,209.001 624.743,201.732 				"/>
			</g>
			<g>
				<g>
					<path style="fill:#DE7878;" d="M620.783,214.289c-0.285-1.636-1.304-3.05-2.721-3.917c-1.405-0.859-2.663-1.596-5.046-1.57
						c-1.327,0.015-9.069,2.097-9.978,3.325c-0.908,1.228,6.089,0.523,6.089,0.523s-6.312,2.288-5.671,3.298
						c0.641,1.01,7.435-0.657,7.435-0.657s-4.122,2.105-4.489,2.993c-0.602,1.454,6.353-0.787,6.353-0.787s-2.775,3.111-2.416,3.864
						c0.359,0.753,5,0.937,5,0.034c-0.001-1.046-1.578-0.73-1.744-0.917c-0.178-0.2,3.003-1.021,4.36-1.572
						C620.669,217.805,621.065,215.909,620.783,214.289z"/>
				</g>
			</g>
			<g>
				<path style="fill:#454BC7;" d="M613.16,187.82l9.738,11.115l-5.06,3.918c3.648,5.418,7.573,10.649,11.128,16.129
					c2.988-3.094,7.263-7.536,12.013-12.513c9.042-9.472,5.167-14.208-1.936-23.248c-4.92-6.261-12.766-13.933-17.127-18.058
					c-1.936-1.833-3.185-2.965-3.185-2.965l-0.003,0.009l-1.808,6.413l-5.012,17.77L613.16,187.82z"/>
			</g>
			<g>
				<path style="fill:#DE7878;" d="M621.916,165.165c-0.683,0.543-1.473,1.138-2.34,1.748c-0.818,0.569-1.665,1.229-2.657,1.709
					c-4.044,1.966-9.498,3.784-13.913,1.447c-5.382-2.849-0.309-8.953,3.836-13.545c2.561,0.995,5.41,2.034,8.116,2.883
					c0.093,0.031,0.19,0.06,0.286,0.091c1.691,0.522,2.805,1.47,3.485,2.711l0.003-0.01
					C618.732,162.199,619.981,163.331,621.916,165.165z"/>
			</g>
			<g>
				<g>
					<path style="fill:#1E227E;" d="M622.905,198.454c3.098-2.763,6.196-5.526,9.294-8.288c0.254-0.227,0.632,0.148,0.376,0.376
						c-3.098,2.763-6.196,5.526-9.294,8.289C623.027,199.057,622.65,198.683,622.905,198.454L622.905,198.454z"/>
				</g>
			</g>
			<g>
				<g>
					<path style="fill:#1E227E;" d="M612.948,188.006c-3.121-3.887-6.241-7.775-9.362-11.662c-0.212-0.264,0.161-0.642,0.376-0.376
						c3.12,3.887,6.241,7.775,9.362,11.662C613.535,187.895,613.162,188.273,612.948,188.006L612.948,188.006z"/>
				</g>
			</g>
			<g>
				<g>
					<path style="fill:#1E227E;" d="M606.093,179.337c-0.606,0-1.212,0-1.818,0c-0.342,0-0.343-0.531,0-0.531
						c0.606,0,1.212,0,1.818,0C606.435,178.805,606.435,179.337,606.093,179.337L606.093,179.337z"/>
				</g>
			</g>
		</g>
		<g>
			<g>
				<g>
					<path style="fill:#FFFFFF;" d="M598.097,146.201c0.147,0,0.266-0.119,0.266-0.266v-8.318c0-0.147-0.119-0.266-0.266-0.266
						c-0.147,0-0.266,0.119-0.266,0.266v8.318C597.831,146.082,597.95,146.201,598.097,146.201z"/>
				</g>
			</g>
			<g>
				<g>
					<path style="fill:#FFFFFF;" d="M595.962,147.704l1.39,2.098c0.353,0.533,1.135,0.533,1.488,0l1.391-2.098
						c0.189-0.285,0.198-0.653,0.024-0.948l-1.391-2.35c-0.346-0.584-1.191-0.584-1.536,0l-1.39,2.35
						C595.764,147.051,595.773,147.419,595.962,147.704z"/>
				</g>
			</g>
		</g>
		<g>
			<path style="fill:#DE7878;" d="M522.628,170.781c0,0,4.193-4.204,5.701-3.926c1.508,0.278-2.12,5.126-2.12,5.126
				s2.54-2.419,3.757-2.395c1.217,0.025-1.13,3.928-1.13,3.928s1.763-1.547,2.685-0.65c0.922,0.896,0.569,1.836-0.189,2.939
				c-0.758,1.103-2.058,1.577-2.783,1.538c-0.725-0.038-1.275-1.309-1.275-1.309s-2.397,0.667-3.026,0.088
				c-0.629-0.58-0.556-1.413-0.556-1.413s-0.897,0.578-1.86,0.071c-0.963-0.507-1.008-1.299-1.008-1.299s-1.935-0.818-2.886-1.453
				c-0.951-0.634-0.079-2.596,0.341-3.904c0.42-1.309,3.635-0.925,5.382-1.91c0,0,1.15-0.212,0.853,1.058
				c-0.298,1.27-2.749,1.963-3.09,2.328C521.082,169.963,522.628,170.781,522.628,170.781z"/>
		</g>
	</g>
	<g>
		<path style="fill:#44584F;" d="M555.921,423.703c4.5,0.486,9.006,0.082,13.35-1.188c0.462-0.135,0.266-0.859-0.199-0.723
			c-4.284,1.253-8.714,1.641-13.15,1.161C555.441,422.902,555.445,423.652,555.921,423.703L555.921,423.703z"/>
	</g>
	<g>
		<g>
			<g>
				<g>
					<path style="fill:#8B1B2E;" d="M440.76,428.657v28.023h-156.4c-7.705-0.038-13.941-6.296-13.941-14.012
						c0-3.87,1.57-7.371,4.104-9.906c2.536-2.536,6.04-4.104,9.908-4.104H440.76z"/>
				</g>
				<g>
					<path style="fill:#C9333E;" d="M460.905,456.68H301.87c-6.243,0-11.304-5.061-11.304-11.304v-5.416
						c0-6.243,5.061-11.304,11.304-11.304h159.035V456.68z"/>
				</g>
				<g>
					<path style="fill:#FFFFFF;" d="M460.905,451.317H311.451c-4.655,0-8.428-3.773-8.428-8.428v-0.441
						c0-4.655,3.773-8.428,8.428-8.428h149.454V451.317z"/>
				</g>
				<g>
					<path style="fill:#272327;" d="M460.154,447.662H312.728c-0.19,0-0.344-0.154-0.344-0.345c0-0.19,0.154-0.344,0.344-0.344
						h147.426c0.19,0,0.344,0.154,0.344,0.344C460.498,447.508,460.344,447.662,460.154,447.662z"/>
				</g>
				<g>
					<path style="fill:#272327;" d="M460.154,442.949H312.728c-0.19,0-0.344-0.154-0.344-0.344c0-0.19,0.154-0.344,0.344-0.344
						h147.426c0.19,0,0.344,0.154,0.344,0.344C460.498,442.795,460.344,442.949,460.154,442.949z"/>
				</g>
				<g>
					<path style="fill:#272327;" d="M460.154,438.364H312.728c-0.19,0-0.344-0.154-0.344-0.344c0-0.19,0.154-0.344,0.344-0.344
						h147.426c0.19,0,0.344,0.154,0.344,0.344C460.498,438.209,460.344,438.364,460.154,438.364z"/>
				</g>
				<g>
					<path style="fill:#272327;" d="M303.023,443.013c-0.19,0-0.344-0.154-0.344-0.344c0-4.959,4.034-8.993,8.993-8.993h66.716
						c0.19,0,0.344,0.154,0.344,0.344c0,0.19-0.154,0.344-0.344,0.344h-66.716c-4.579,0-8.304,3.725-8.304,8.304
						C303.367,442.859,303.213,443.013,303.023,443.013z"/>
				</g>
				<g>
					<path style="fill:#272327;" d="M460.905,451.661h-67.65c-0.19,0-0.344-0.154-0.344-0.344c0-0.19,0.154-0.344,0.344-0.344h67.65
						c0.19,0,0.344,0.154,0.344,0.344C461.249,451.507,461.095,451.661,460.905,451.661z"/>
				</g>
			</g>
			<g>
				<g>
					<path style="fill:#1E227E;" d="M462.317,428.657h-155.97c-7.738,0-14.012-6.273-14.012-14.012l0,0
						c0-7.739,6.273-14.012,14.012-14.012h155.97c0.197,0,0.357,0.16,0.357,0.358v27.309
						C462.674,428.497,462.514,428.657,462.317,428.657z"/>
				</g>
				<g>
					<path style="fill:#454BC7;" d="M482.962,428.657H324.215c-6.243,0-11.304-5.061-11.304-11.304v-5.416
						c0-6.243,5.061-11.304,11.304-11.304h158.747c0.159,0,0.288,0.129,0.288,0.289v27.447
						C483.25,428.528,483.121,428.657,482.962,428.657z"/>
				</g>
				<g>
					<path style="fill:#FFFFFF;" d="M483.25,423.294H333.796c-4.655,0-8.428-3.773-8.428-8.428v-0.441
						c0-4.655,3.773-8.428,8.428-8.428H483.25V423.294z"/>
				</g>
				<g>
					<path style="fill:#272327;" d="M482.243,419.639H334.016c-0.19,0-0.344-0.154-0.344-0.344c0-0.19,0.154-0.344,0.344-0.344
						h148.226c0.19,0,0.344,0.154,0.344,0.344C482.587,419.484,482.433,419.639,482.243,419.639z"/>
				</g>
				<g>
					<path style="fill:#272327;" d="M482.243,414.926H334.016c-0.19,0-0.344-0.154-0.344-0.344c0-0.19,0.154-0.344,0.344-0.344
						h148.226c0.19,0,0.344,0.154,0.344,0.344C482.587,414.771,482.433,414.926,482.243,414.926z"/>
				</g>
				<g>
					<path style="fill:#272327;" d="M482.243,410.34H334.016c-0.19,0-0.344-0.154-0.344-0.344c0-0.19,0.154-0.344,0.344-0.344
						h148.226c0.19,0,0.344,0.154,0.344,0.344C482.587,410.186,482.433,410.34,482.243,410.34z"/>
				</g>
			</g>
			<g>
				<g>
					<path style="fill:#A8681B;" d="M434.775,400.579H284.341c-6.243,0-11.304-5.061-11.304-11.304v-5.416
						c0-6.243,5.061-11.304,11.304-11.304h150.434c4.75,0,8.602,3.851,8.602,8.602v10.82
						C443.376,396.728,439.525,400.579,434.775,400.579z"/>
				</g>
				<g>
					<path style="fill:#E59C25;" d="M463.952,400.579H304.916c-6.243,0-11.304-5.061-11.304-11.304v-5.416
						c0-6.243,5.061-11.304,11.304-11.304h159.035V400.579z"/>
				</g>
				<g>
					<path style="fill:#FFFFFF;" d="M463.952,395.216H314.497c-4.655,0-8.428-3.773-8.428-8.428v-0.441
						c0-4.655,3.773-8.428,8.428-8.428h149.454V395.216z"/>
				</g>
				<g>
					<path style="fill:#272327;" d="M462.945,391.561H314.718c-0.19,0-0.344-0.154-0.344-0.344c0-0.19,0.154-0.344,0.344-0.344
						h148.227c0.19,0,0.344,0.154,0.344,0.344C463.289,391.407,463.135,391.561,462.945,391.561z"/>
				</g>
				<g>
					<path style="fill:#272327;" d="M462.945,386.848H314.718c-0.19,0-0.344-0.154-0.344-0.344c0-0.19,0.154-0.344,0.344-0.344
						h148.227c0.19,0,0.344,0.154,0.344,0.344C463.289,386.694,463.135,386.848,462.945,386.848z"/>
				</g>
				<g>
					<path style="fill:#272327;" d="M462.945,382.263H314.718c-0.19,0-0.344-0.154-0.344-0.344s0.154-0.344,0.344-0.344h148.227
						c0.19,0,0.344,0.154,0.344,0.344S463.135,382.263,462.945,382.263z"/>
				</g>
			</g>
		</g>
		<g>
			<g>
				<polygon style="fill:#201129;" points="336.602,329.305 365.413,337.331 419.759,372.863 332.942,372.863 				"/>
				<path style="fill:#201129;" d="M389.769,331.046l32.052,14.328c0,0,8.934,17.676-2.062,27.489H383.02L389.769,331.046z"/>
				<path style="fill:#454BC7;" d="M351.38,333.422c0,0,6.684-10.751,17.803-10.751c11.119,0,17.467,10.751,17.467,10.751
					S371.479,346.922,351.38,333.422z"/>
				<path style="fill:#E59C25;" d="M358.193,334.379c0,0,4.102-6.598,10.926-6.598c6.824,0,10.719,6.598,10.719,6.598
					S370.527,342.664,358.193,334.379z"/>
				<circle style="fill:#454BC7;" cx="330.815" cy="350.753" r="22.212"/>
				<path style="fill:#FFFFFF;" d="M330.816,366.093c-8.459,0-15.34-6.882-15.34-15.339c0-8.459,6.882-15.34,15.34-15.34
					c8.459,0,15.34,6.882,15.34,15.34C346.156,359.211,339.275,366.093,330.816,366.093z"/>
			</g>
			<g>
				<circle style="fill:#454BC7;" cx="379.713" cy="350.753" r="22.212"/>
				<path style="fill:#FFFFFF;" d="M379.713,366.093c-8.459,0-15.34-6.882-15.34-15.339c0-8.459,6.882-15.34,15.34-15.34
					c8.459,0,15.34,6.882,15.34,15.34C395.054,359.211,388.172,366.093,379.713,366.093z"/>
			</g>
			<g>
				<path style="fill:#E59C25;" d="M404.578,338.288c6.898,9.653,7.564,24.642,0.07,34.176c-0.354,0.45,0.278,1.09,0.635,0.636
					c7.735-9.841,7.226-25.252,0.07-35.265C405.021,337.368,404.241,337.816,404.578,338.288L404.578,338.288z"/>
			</g>
		</g>
	</g>
</g>
</svg>
