<svg width="147" height="102" viewBox="0 0 147 102" fill="none" xmlns="http://www.w3.org/2000/svg">
<path d="M9.96952 69.0503L113.52 94.063" stroke="#1A2743" stroke-width="0.59" stroke-linecap="round" stroke-linejoin="round"/>
<path d="M114.083 83.0153C114.083 83.0153 114.01 75.972 111.113 75.2722C108.216 74.5724 112.578 81.972 114.083 83.0153Z" fill="white"/>
<path d="M111.194 76.0676C111.194 76.0676 114.589 82.1536 114.296 85.5331" stroke="#1A2743" stroke-width="0.59" stroke-linecap="round" stroke-linejoin="round"/>
<path d="M116.799 83.3918C116.799 83.3918 125.622 79.8461 125.367 78.0669C125.113 76.2877 118.489 80.2017 116.799 83.3918Z" fill="white"/>
<path d="M124.228 78.6428C124.228 78.6428 116.989 81.9205 114.436 86.1404" stroke="#1A2743" stroke-width="0.59" stroke-linecap="round" stroke-linejoin="round"/>
<path d="M119.5 78.312C119.5 78.312 134.733 72.2558 134.226 68.5872C133.72 64.9187 121.151 75.1751 119.5 78.312Z" fill="white"/>
<path d="M116.723 78.8396C116.723 78.8396 125.271 67.9436 124.277 64.1845C123.283 60.4253 117.169 72.3095 116.723 78.8396Z" fill="white"/>
<path d="M115.038 77.2171C115.038 77.2171 115.228 70.1292 112.227 68.3828C109.227 66.6344 101.962 74.782 104.123 76.238C106.284 77.694 111.262 69.9112 112.005 70.6557C112.749 71.4003 115.038 77.2171 115.038 77.2171Z" fill="white"/>
<path d="M116.162 76.9339C116.162 76.9339 119.432 59.8953 116.577 59.8538C112.65 59.7956 116.162 76.9339 116.162 76.9339Z" fill="white"/>
<path d="M106.27 72.8102C106.27 72.8102 110.911 68.6924 112.164 69.5017C113.418 70.311 114.96 74.2778 115.037 77.2171C115.114 80.1564 113.848 86.6363 113.848 86.6363" stroke="#1A2743" stroke-width="0.59" stroke-linecap="round" stroke-linejoin="round"/>
<path d="M116.081 61.9318C116.081 61.9318 117.087 69.0545 116.16 76.9339C115.233 84.8133 113.903 87.169 113.903 87.169" stroke="#1A2743" stroke-width="0.59" stroke-linecap="round" stroke-linejoin="round"/>
<path d="M123.123 65.029C123.123 65.029 118.672 74.1359 116.724 78.8396C114.776 83.5433 114.285 86.802 114.285 86.802" stroke="#1A2743" stroke-width="0.59" stroke-linecap="round" stroke-linejoin="round"/>
<path d="M132.236 69.6739C132.236 69.6739 122.203 75.4061 119.267 78.4973C115.785 82.1654 113.498 88.103 113.498 88.103" stroke="#1A2743" stroke-width="0.59" stroke-linecap="round" stroke-linejoin="round"/>
<path d="M113.771 86.6711L109.206 85.5685L108.089 93.0957C107.975 93.8687 108.431 94.5667 109.166 94.7441L113.079 95.6894C113.814 95.8669 114.608 95.4709 114.956 94.7545L118.339 87.7747L113.774 86.672L113.771 86.6711Z" fill="#B5B4D8"/>
<path d="M118.855 86.1275L109.703 83.9168C109.469 83.8603 109.22 84.0091 109.145 84.249L108.612 85.9674C108.538 86.2073 108.667 86.4475 108.901 86.504L118.053 88.7147C118.287 88.7712 118.536 88.6224 118.611 88.3825L119.144 86.6642C119.218 86.4242 119.089 86.184 118.855 86.1275Z" fill="#A6A5D0"/>
<path d="M121.896 23.8279L58.0355 8.40229C56.8589 8.11809 55.6013 8.86716 55.2265 10.0754L45.0516 42.881C44.6768 44.0892 45.3268 45.2991 46.5034 45.5833L110.364 61.0089C111.541 61.2931 112.798 60.544 113.173 59.3358L123.348 26.5302C123.723 25.322 123.073 24.1121 121.896 23.8279Z" fill="#E1F0F7"/>
<path d="M80.1779 29.263L78.3855 28.83L77.2998 32.3307L79.0921 32.7636L80.1779 29.263Z" fill="#CFCFE7"/>
<path d="M82.8536 30.7533L81.0613 30.3204L80.2192 33.0356L82.0115 33.4685L82.8536 30.7533Z" fill="#B5B4D8"/>
<path d="M86.465 29.0988L84.6726 28.6658L83.1008 33.7336L84.8932 34.1665L86.465 29.0988Z" fill="#CFCFE7"/>
<path d="M76.701 29.0985C76.701 29.0985 78.3293 27.5009 79.7968 27.7636C80.8604 27.9538 81.2167 28.88 81.9063 29.0654C83.4588 29.4862 84.8853 26.6412 87.3002 26.9847" stroke="#A6A5D0" stroke-width="1.19" stroke-linecap="round" stroke-linejoin="round"/>
<path d="M76.9187 24.4769L74.376 32.6749L86.5653 35.6193" stroke="#A6A5D0" stroke-width="1.19" stroke-linecap="round" stroke-linejoin="round"/>
<path d="M57.01 32.8747L52.991 31.9039L50.3406 40.449L54.3597 41.4198L57.01 32.8747Z" fill="#CFCFE7"/>
<path d="M64.0784 29.5014L60.0594 28.5306L55.9431 41.8022L59.9621 42.773L64.0784 29.5014Z" fill="#A6A5D0"/>
<path d="M68.637 34.2217L64.618 33.2509L61.5453 43.1576L65.5643 44.1284L68.637 34.2217Z" fill="#E4E4F1"/>
<path d="M73.2866 17.5853L59.0104 14.1368C58.8178 14.0903 58.7109 13.8915 58.7723 13.6936C58.8337 13.4958 59.0403 13.3727 59.233 13.4192L73.5092 16.8677C73.7019 16.9142 73.8087 17.113 73.7473 17.3109C73.686 17.5087 73.4793 17.6318 73.2866 17.5853Z" fill="#CFCFE7"/>
<path d="M69.1469 17.1543L58.8463 14.6662C58.6533 14.6196 58.447 14.7424 58.3856 14.9406C58.3241 15.1387 58.4307 15.3372 58.6237 15.3838L68.9243 17.8719C69.1173 17.9185 69.3236 17.7957 69.385 17.5975C69.4465 17.3994 69.3399 17.2009 69.1469 17.1543Z" fill="#CFCFE7"/>
<path d="M71.1854 19.7586L58.235 16.6304C58.0424 16.5839 57.9356 16.385 57.9969 16.1872C58.0583 15.9894 58.265 15.8663 58.4576 15.9128L71.408 19.041C71.6006 19.0875 71.7075 19.2864 71.6461 19.4842C71.5848 19.682 71.3781 19.8051 71.1854 19.7586Z" fill="#CFCFE7"/>
<path d="M72.8611 21.5043L57.8483 17.878C57.6557 17.8314 57.5488 17.6326 57.6102 17.4348C57.6715 17.237 57.8782 17.1139 58.0709 17.1604L73.0837 20.7867C73.2763 20.8333 73.3831 21.0321 73.3218 21.2299C73.2604 21.4278 73.0537 21.5509 72.8611 21.5043Z" fill="#CFCFE7"/>
<path d="M71.7398 22.5734L57.4635 19.125C57.2709 19.0785 57.1641 18.8796 57.2254 18.6818C57.2868 18.484 57.4935 18.3609 57.6861 18.4074L71.9623 21.8558C72.155 21.9024 72.2618 22.1012 72.2004 22.299C72.1391 22.4969 71.9324 22.62 71.7398 22.5734Z" fill="#CFCFE7"/>
<path d="M100.008 38.3577L87.1425 44.0163C86.1486 41.3495 86.0189 38.2787 86.9712 35.2086C88.792 29.3379 94.0207 25.2368 99.7003 24.6699L100.01 38.3582L100.008 38.3577Z" fill="#A6A5D0"/>
<path d="M112.459 30.8642L101.328 39.7062L101.018 26.018C102.494 25.8678 103.998 25.9582 105.481 26.3163C108.408 27.0234 110.803 28.6693 112.459 30.8642Z" fill="#B5B4D8"/>
<path d="M114.365 42.8554C114.002 44.0269 113.504 45.1282 112.89 46.1453L101.326 39.7058L112.457 30.8638C114.876 34.0748 115.724 38.468 114.363 42.855L114.365 42.8554Z" fill="#C4C3E0"/>
<path d="M112.889 46.1454C109.642 51.5423 103.231 54.5593 97.1724 53.0958C95.5879 52.713 94.1615 52.0558 92.9212 51.1849L101.325 39.7059L112.889 46.1454Z" fill="#D3D3E8"/>
<path d="M101.329 39.7062L92.9252 51.1853C90.8702 49.7404 89.3319 47.7094 88.4615 45.3643L101.328 39.7058L101.329 39.7062Z" fill="#E4E4F1"/>
<path d="M56.8973 59.6821L59.3298 60.2697L52.0933 83.6012C52.0224 83.83 51.7858 83.971 51.5629 83.9171L49.9349 83.5239C49.7121 83.47 49.5898 83.2425 49.6608 83.0136L56.8973 59.6821Z" fill="#2F2F75"/>
<path d="M96.9949 69.3678L99.4275 69.9554L92.185 93.3063C92.1176 93.5235 91.891 93.6584 91.6795 93.6074L90.0137 93.205C89.8022 93.1539 89.685 92.9359 89.7524 92.7187L96.9949 69.3678Z" fill="#2F2F75"/>
<path d="M105.438 68.3656L52.639 55.612C52.0007 55.4578 51.3184 55.8642 51.1151 56.5197L50.5532 58.3311C50.3499 58.9867 50.7026 59.6431 51.3409 59.7973L104.14 72.5509C104.778 72.7051 105.46 72.2987 105.664 71.6432L106.226 69.8317C106.429 69.1762 106.076 68.5198 105.438 68.3656Z" fill="#141F33"/>
<path d="M57.0711 49.9488L67.9818 52.5843L68.5891 58.4807L57.4307 55.7145L57.0711 49.9488Z" fill="#232052"/>
<path d="M57.7512 55.4417L57.4344 50.3889L67.6708 52.8615L68.2044 58.0334L57.7512 55.4417Z" fill="white"/>
<path d="M57.8762 55.3327L57.5789 50.564L67.5452 52.9714L68.0486 57.8545L57.8762 55.3327Z" fill="#A6A5D0"/>
<path d="M62.3377 56.5787L63.3634 56.8327L66.936 52.684L66.3034 52.5312L62.3377 56.5787Z" fill="white"/>
<path d="M60.3628 56.0894L61.5503 56.3846L65.6091 52.3637L64.1473 52.0106L60.3628 56.0894Z" fill="white"/>
<path d="M73.0268 59.4817L57.4305 55.7144L57.1477 56.626L72.7441 60.3933L73.0268 59.4817Z" fill="#232052"/>
<path d="M63.6447 82.0154L62.4834 85.969C62.3934 86.2725 62.5599 86.5733 62.8545 86.6445L67.527 87.7731C67.8254 87.8452 68.1442 87.6554 68.2392 87.3489L68.4022 86.8233C68.4594 86.6391 68.4242 86.445 68.3068 86.3062L66.5253 84.1956L66.9067 82.966L63.6491 82.0144L63.6447 82.0154Z" fill="#141F33"/>
<path d="M62.8529 86.644C62.5582 86.5728 62.3936 86.2725 62.4817 85.9685L62.7254 85.1372L68.4026 86.5086C68.4303 86.6091 68.4312 86.7177 68.3981 86.8243L68.2351 87.3499C68.14 87.6564 67.8213 87.8462 67.5229 87.7741L62.8504 86.6455L62.8529 86.644Z" fill="#141F33"/>
<path d="M66.9023 69.8605L63.3766 82.4388L66.9545 83.1759L72.2659 71.0519L66.9023 69.8605Z" fill="#232052"/>
<path d="M60.704 81.305L59.4219 85.2294C59.3243 85.531 59.0073 85.7151 58.7127 85.6439L54.0402 84.5153C53.7418 84.4432 53.577 84.1365 53.6721 83.8301L53.8351 83.3045C53.8922 83.1203 54.0346 82.9691 54.2156 82.9024L56.9668 81.8866L57.3482 80.657L60.7009 81.3021L60.704 81.305Z" fill="#141F33"/>
<path d="M58.7134 85.6439C59.008 85.7151 59.3231 85.5306 59.4226 85.2294L59.6926 84.4045L54.0154 83.0331C53.9335 83.1072 53.8702 83.2003 53.8371 83.3069L53.6741 83.8325C53.579 84.139 53.7438 84.4456 54.0422 84.5177L58.7147 85.6463L58.7134 85.6439Z" fill="#141F33"/>
<path d="M69.5868 64.5546L61.1844 66.3797C60.5531 66.517 60.0448 67.03 59.9127 67.6653L57.1088 81.0516L61.0433 81.804L64.439 71.0456C64.5202 70.7837 64.7891 70.6173 65.0464 70.6648L73.0518 72.1357C74.5112 72.4049 76.0431 71.622 76.7657 70.2414L78.2109 67.48L69.5843 64.5561L69.5868 64.5546Z" fill="#2F2F75"/>
<path d="M73.0505 72.1357C74.51 72.4049 76.0419 71.6221 76.7645 70.2414L78.2097 67.48L69.5831 64.5561L69.4829 64.5778C68.8434 64.7548 68.4501 64.8641 68.4501 64.8641C68.4501 64.8641 70.5589 67.281 68.4119 71.2842L73.0499 72.1377L73.0505 72.1357Z" fill="#232052"/>
<path d="M79.532 51.2507L80.8007 55.9706C81.0266 56.8132 80.7962 57.7457 80.1887 58.4412L78.4396 60.4412L79.532 51.2507Z" fill="#CA9636"/>
<path d="M63.0293 52.2096C63.0293 52.2096 62.8809 51.5359 63.0175 51.0956C63.154 50.6554 64.6243 48.8278 64.3835 48.7008C64.1427 48.5739 63.6024 49.2293 63.2276 49.2597C62.8533 49.2881 62.2474 49.3502 62.3418 49.0457C62.4363 48.7412 63.7214 48.2761 63.6017 48.0533C63.482 47.8305 61.9428 48.1592 61.2294 48.777C60.516 49.3948 59.9486 50.9297 60.0263 51.4843C60.1022 52.0384 60.9263 53.5112 60.9263 53.5112L63.0293 52.2096Z" fill="#E3ACCB"/>
<path d="M60.7185 49.4056C60.2694 50.1206 59.9721 51.0724 60.0291 51.4843C60.1049 52.0384 60.9291 53.5113 60.9291 53.5113L61.7232 53.0193C60.4711 52.2978 60.6266 50.1339 60.7185 49.4056Z" fill="#D986B3"/>
<path d="M69.7307 50.2419L65.3895 55.4413L63.1031 51.8036C63.1031 51.8036 60.9051 52.5152 60.5104 53.408L62.2734 59.0082C62.592 60.0233 63.5289 60.6811 64.6134 60.6471C65.001 60.6344 65.3421 60.6146 65.5048 60.5809C66.0054 60.4788 69.7789 56.2326 69.7789 56.2326L69.7332 50.2405L69.7307 50.2419Z" fill="#EEBF31"/>
<path d="M65.7333 58.4769C63.6291 59.7302 61.2346 54.9552 60.5195 53.3857C60.5171 53.3935 60.511 53.4003 60.5061 53.4096L62.2691 59.0098C62.5876 60.0249 63.5245 60.6827 64.609 60.6486C64.9967 60.6359 65.3378 60.6162 65.5005 60.5825C66.0011 60.4804 69.7746 56.2342 69.7746 56.2342L69.7459 52.4581C68.9726 54.3102 67.4621 57.4456 65.7358 58.4754L65.7333 58.4769Z" fill="#CA9636"/>
<path d="M76.9514 49.9788C76.9514 49.9788 76.8424 49.3354 76.9514 48.4736C77.0603 47.6118 78.7793 43.9743 77.7944 42.8754C76.8096 41.7765 73.5931 40.6598 72.811 42.3826C72.029 44.1054 71.0404 46.8478 71.3756 47.4687C71.709 48.0892 73.5662 49.059 73.5662 49.059L76.9514 49.9788Z" fill="#E3ACCB"/>
<path d="M76.9496 48.4751C77.0256 47.8701 77.8941 45.9013 78.066 44.3981C77.1405 43.0946 75.9259 42.4552 74.888 43.7201C74.888 43.7201 73.9918 47.277 73.6952 48.7897C73.6764 48.8894 73.6734 48.9909 73.6829 49.0911L76.9503 49.9784C76.9503 49.9784 76.8413 49.335 76.9502 48.4732L76.9496 48.4751Z" fill="#D986B3"/>
<path d="M73.5674 49.0589L72.8167 50.3994L77.3481 50.7914L77.0563 49.5264L73.5674 49.0589Z" fill="#CA9636"/>
<path d="M79.5343 51.2507L75.8108 50.0865C75.3571 49.9456 74.875 49.8896 74.3879 49.922L69.731 50.2419L68.4566 64.8629L78.5488 67.8594L79.5362 51.2511L79.5343 51.2507Z" fill="#EEBF31"/>
<path d="M69.366 54.405L68.4531 64.8626L70.2449 65.3954L69.366 54.405Z" fill="#CA9636"/>
<path d="M71.547 65.7807L78.5459 67.8591L79.5333 51.2508L76.4884 50.3005C77.8295 51.9004 78.217 54.5915 75.9714 59.1088C74.5354 61.9974 73.0163 64.1593 71.5446 65.7822L71.547 65.7807Z" fill="#CA9636"/>
<path d="M76.1957 38.8721C74.0097 38.7464 72.5918 39.3775 71.8754 40.7576C71.1591 42.1377 72.8127 42.1932 73.1203 42.7657C73.428 43.3383 73.6995 44.1252 73.2737 45.269C72.8479 46.4128 73.2361 47.8513 74.7905 48.2267C76.3448 48.6022 77.2322 48.6081 77.8171 47.9988C78.4 47.3891 80.9539 44.5287 80.9634 43.6408C80.9728 42.7529 80.4338 41.9118 79.1061 41.8725C79.1061 41.8725 79.6403 39.0704 76.1976 38.8726L76.1957 38.8721Z" fill="#1A2743"/>
<path d="M93.7459 78.7018L90.4309 89.6256C90.4309 89.6256 88.8593 89.8818 87.6099 89.9303L89.7297 77.938L93.7465 78.6998L93.7459 78.7018Z" fill="#E3ACCB"/>
<path d="M91.8399 78.3418L89.7267 77.9419L87.6069 89.9342C88.0447 89.9169 88.521 89.8735 88.9559 89.8264L91.8393 78.3438L91.8399 78.3418Z" fill="#D986B3"/>
<path d="M90.624 88.9823L89.7914 92.9236L88.9755 92.7265C88.9755 92.7265 89.0843 92.0419 88.8591 91.9104C88.6346 91.7769 86.9911 92.1534 86.6304 92.0662C86.2697 91.9791 83.5607 91.4186 83.4726 91.2576C83.4507 91.2169 83.4525 91.1589 83.4661 91.0955C83.5197 90.8374 83.7695 90.6539 84.028 90.6517L87.6096 89.9303C87.6096 89.9303 88.6494 88.9473 90.6265 88.9808L90.624 88.9823Z" fill="#141F33"/>
<path d="M87.9911 88.1818L88.1018 88.8589L87.5113 92.3271L86.635 92.1613C86.635 92.1613 86.7438 91.4767 86.5186 91.3451C86.2941 91.2117 84.6506 91.5881 84.2899 91.501C83.9292 91.4139 81.2203 90.8533 81.1321 90.6924C81.1102 90.6516 81.112 90.5937 81.1256 90.5303C81.1792 90.2722 81.429 90.0886 81.6875 90.0864L85.2691 89.3651C85.2691 89.3651 86.0165 88.1468 87.9917 88.1798L87.9911 88.1818Z" fill="#141F33"/>
<path d="M85.7664 76.7744L85.2674 89.3666C85.2674 89.3666 85.3737 89.7633 86.2701 89.0855C87.1659 88.4096 88.1007 88.8585 88.1007 88.8585L89.7272 77.9396L85.7664 76.7744Z" fill="#E3ACCB"/>
<path d="M87.1452 77.2078L87.1152 77.1734L85.7664 76.7767L85.2674 89.3689C85.2674 89.3689 85.3676 89.733 86.1732 89.1583C86.4909 85.1885 87.1317 77.1857 87.1452 77.2078Z" fill="#D986B3"/>
<path d="M96.0325 70.9423C96.0325 70.9423 87.4843 73.2637 86.5952 73.9704C86.2121 74.2761 85.8368 75.0214 85.535 75.772C85.1105 76.8265 85.6338 77.9536 86.6804 78.2251C89.7162 79.0147 95.5745 80.5027 96.3545 80.4556C97.4135 80.3924 97.7771 78.8667 97.9147 78.7831C98.0516 78.7016 101.368 79.5818 101.906 79.3136C102.444 79.0453 105.44 75.4203 105.179 73.5895C104.917 71.7583 96.0306 70.9418 96.0306 70.9418L96.0325 70.9423Z" fill="#2F2F75"/>
<path d="M99.704 71.4333C99.0002 71.3134 98.3262 71.2152 97.7504 71.1407C97.7504 71.1407 95.0671 76.1005 91.1738 77.3491C90.1753 77.6687 89.6944 78.2572 89.5286 78.9551C92.4545 79.6932 95.7822 80.4907 96.3553 80.4561C97.4143 80.3929 97.7779 78.8672 97.9155 78.7837C98.0525 78.7021 101.369 79.5824 101.907 79.3141C102.24 79.1487 103.512 77.6985 104.374 76.1826C103.808 75.3578 101.689 72.4945 99.704 71.4333Z" fill="#232052"/>
<path d="M96.3891 56.8962C95.5735 57.2871 93.8136 64.5255 94.7982 65.6973C95.7828 66.8691 95.4511 68.0169 94.9278 69.7042C94.4045 71.3915 95.2701 72.4429 96.1675 72.914C97.0648 73.3851 105.126 76.848 106.117 74.4917C107.106 72.1351 105.731 70.6439 106.02 65.6019C106.308 60.5618 107.1 57.8657 105.965 56.9871C104.832 56.1065 99.6269 55.3455 96.3891 56.8962Z" fill="#B1CFEB"/>
<path d="M106.116 74.4937C107.104 72.137 105.73 70.6458 106.018 65.6038C106.307 60.5637 107.098 57.8676 105.964 56.989C105.584 56.695 104.746 56.4133 103.681 56.2269C104.256 58.5819 105.265 65.9325 98.3729 73.8513C101.109 74.8937 105.412 76.1729 106.118 74.4922L106.116 74.4937Z" fill="#83B1D3"/>
<path d="M96.8502 58.6836C96.692 58.6766 95.9911 59.3329 95.0837 60.2686C94.5584 62.4662 94.2458 65.0383 94.7987 65.6972C94.9843 65.9172 95.1228 66.1383 95.2224 66.3604C95.7072 65.825 96.1937 65.2316 96.6812 64.6155C98.4454 62.3899 97.3751 58.7061 96.8521 58.684L96.8502 58.6836Z" fill="#83B1D3"/>
<path d="M90.6536 61.2752C90.6536 61.2752 91.2781 60.3941 92.0026 60.421C92.7271 60.448 93.2763 60.9289 93.2763 60.9289L92.264 62.0457L90.6517 61.2747L90.6536 61.2752Z" fill="#E3ACCB"/>
<path d="M91.2204 61.1325C90.8428 61.0016 90.4073 61.1883 90.2096 61.5638C89.6479 62.6351 88.6637 64.7282 89.1861 65.3547C89.9003 66.2068 93.8711 62.7839 93.3233 62.1741C92.9685 61.7799 91.9195 61.3722 91.2204 61.1325Z" fill="#83B1D3"/>
<path d="M96.2203 62.8281C94.4561 65.0538 92.7148 67.0223 90.9855 66.8506C89.2563 66.6789 88.9233 65.5665 89.1483 64.8411C89.3732 64.1158 95.8664 56.8741 96.3894 56.8962C96.9124 56.9183 97.9846 60.6025 96.2184 62.8277L96.2203 62.8281Z" fill="#B1CFEB"/>
<path d="M99.8033 48.3919C99.8033 48.3919 97.9249 53.4795 98.2094 54.0089C98.4938 54.5383 100.1 55.1931 100.1 55.1931C100.1 55.1931 102.233 50.9052 101.972 49.927C101.712 48.9488 99.8033 48.3919 99.8033 48.3919Z" fill="#E3ACCB"/>
<path d="M98.6907 54.4626C99.2644 54.8514 100.1 55.193 100.1 55.193C100.1 55.193 100.22 54.9529 100.398 54.5748L100.958 49.0959L98.6907 54.4626Z" fill="#D986B3"/>
<path d="M106.034 48.0041C106.034 48.0041 105.971 45.2997 103.335 45.036C100.698 44.7723 98.2451 46.1623 98.3776 47.8037C98.51 49.4451 99.9606 48.6364 100.117 49.7832C100.271 50.9295 98.8367 55.2842 98.7002 56.9024C98.5638 58.5205 99.117 62.2086 102.889 61.6709C106.662 61.1333 107.522 57.6198 107.332 55.5809C107.142 53.5421 107.58 52.2803 107.878 50.3403C108.175 48.4003 106.035 48.0022 106.035 48.0022L106.034 48.0041Z" fill="#1A2743"/>
<path d="M90.6753 77.7148L90.015 76.9966C90.015 76.9966 90.7206 76.083 93.399 76.657C95.1466 77.0312 96.6481 76.6934 97.6647 74.9147C98.6794 73.1355 106.071 61.4659 106.071 61.4659C106.071 61.4659 107.27 60.3171 109.69 60.9164L98.8332 79.5123L90.6772 77.7153L90.6753 77.7148Z" fill="#749ECD"/>
<path d="M107.53 81.0363L104.996 96.8249" stroke="#1A2743" stroke-width="3.57" stroke-linecap="round" stroke-linejoin="round"/>
<path d="M99.0242 78.9815L96.4903 94.7701" stroke="#1A2743" stroke-width="3.57" stroke-linecap="round" stroke-linejoin="round"/>
<path d="M92.0608 77.299L84.8525 91.9585" stroke="#1A2743" stroke-width="3.57" stroke-linecap="round" stroke-linejoin="round"/>
<path d="M100.567 79.3538L93.3583 94.0133" stroke="#1A2743" stroke-width="3.57" stroke-linecap="round" stroke-linejoin="round"/>
<path d="M108.688 61.3499L98.491 77.9414C98.2779 78.2881 97.8711 78.4671 97.4972 78.3768L90.8567 76.7728C90.3997 76.6624 89.9097 76.9526 89.7635 77.4239C89.618 77.8933 89.8696 78.3647 90.3286 78.4756L109.047 82.997C109.504 83.1074 109.994 82.8172 110.14 82.3459L110.369 81.607C110.393 81.5313 110.425 81.4599 110.466 81.3927L120.623 64.7748C120.931 64.2698 120.701 63.645 120.16 63.5102L109.687 60.9178C109.312 60.8251 108.903 61.0037 108.687 61.3519L108.688 61.3499Z" fill="#3574AB"/>
<path d="M64.8374 71.4744L64.1771 70.7562C64.1771 70.7562 64.8827 69.8426 67.5611 70.4166C69.3087 70.7907 70.8102 70.453 71.8268 68.6742C72.8415 66.8951 80.2329 55.2255 80.2329 55.2255C80.2329 55.2255 81.4317 54.0766 83.8525 54.676L72.9953 73.2719L64.8393 71.4749L64.8374 71.4744Z" fill="#749ECD"/>
<path d="M81.6941 74.7958L79.1602 90.5844" stroke="#1A2743" stroke-width="3.57" stroke-linecap="round" stroke-linejoin="round"/>
<path d="M73.1883 72.741L70.6544 88.5296" stroke="#1A2743" stroke-width="3.57" stroke-linecap="round" stroke-linejoin="round"/>
<path d="M66.2209 71.0586L59.0126 85.7181" stroke="#1A2743" stroke-width="3.57" stroke-linecap="round" stroke-linejoin="round"/>
<path d="M74.7268 73.1133L67.5185 87.7728" stroke="#1A2743" stroke-width="3.57" stroke-linecap="round" stroke-linejoin="round"/>
<path d="M82.852 55.1095L72.655 71.701C72.4419 72.0477 72.0352 72.2267 71.6612 72.1364L65.0208 70.5324C64.5637 70.422 64.0738 70.7122 63.9276 71.1835C63.782 71.6528 64.0337 72.1243 64.4926 72.2352L83.2109 76.7566C83.668 76.867 84.1579 76.5768 84.3041 76.1055L84.5333 75.3666C84.5568 75.2909 84.5891 75.2195 84.6302 75.1523L94.7867 58.5344C95.0955 58.0294 94.865 57.4046 94.3242 57.2698L83.8509 54.6774C83.4756 54.5847 83.067 54.7633 82.8514 55.1115L82.852 55.1095Z" fill="#3574AB"/>
<path d="M16.8272 59.5226C16.8272 59.5226 16.7543 52.4794 13.8571 51.7796C10.9599 51.0797 15.3217 58.4793 16.8272 59.5226Z" fill="white"/>
<path d="M13.9402 52.575C13.9402 52.575 17.335 58.6611 17.042 62.0406" stroke="#1A2743" stroke-width="0.59" stroke-linecap="round" stroke-linejoin="round"/>
<path d="M19.5453 59.8995C19.5453 59.8995 28.3677 56.3538 28.1135 54.5746C27.8594 52.7954 21.2351 56.7094 19.5453 59.8995Z" fill="white"/>
<path d="M26.9745 55.1501C26.9745 55.1501 19.7355 58.4278 17.1822 62.6477" stroke="#1A2743" stroke-width="0.59" stroke-linecap="round" stroke-linejoin="round"/>
<path d="M22.2504 54.8197C22.2504 54.8197 37.483 48.7634 36.9764 45.0949C36.4698 41.4264 23.9014 51.6827 22.2504 54.8197Z" fill="white"/>
<path d="M19.471 55.3472C19.471 55.3472 28.0192 44.4512 27.0251 40.692C26.0309 36.9328 19.9169 48.8171 19.471 55.3472Z" fill="white"/>
<path d="M17.7876 53.7247C17.7876 53.7247 17.9782 46.6368 14.9773 44.8904C11.977 43.142 4.7116 51.2896 6.87279 52.7456C9.03398 54.2016 14.0119 46.4188 14.7555 47.1634C15.499 47.9079 17.7876 53.7247 17.7876 53.7247Z" fill="white"/>
<path d="M18.9096 53.4416C18.9096 53.4416 22.1804 36.4029 19.3246 36.3615C15.3982 36.3032 18.9096 53.4416 18.9096 53.4416Z" fill="white"/>
<path d="M9.01791 49.3178C9.01791 49.3178 13.659 45.1999 14.9124 46.0093C16.1657 46.8186 17.7085 50.7854 17.7855 53.7247C17.8625 56.664 16.5958 63.1439 16.5958 63.1439" stroke="#1A2743" stroke-width="0.59" stroke-linecap="round" stroke-linejoin="round"/>
<path d="M18.8289 38.439C18.8289 38.439 19.8354 45.5617 18.9081 53.4411C17.9807 61.3205 16.6512 63.6762 16.6512 63.6762" stroke="#1A2743" stroke-width="0.59" stroke-linecap="round" stroke-linejoin="round"/>
<path d="M25.871 41.5367C25.871 41.5367 21.4203 50.6435 19.4721 55.3472C17.5239 60.051 17.0329 63.3097 17.0329 63.3097" stroke="#1A2743" stroke-width="0.59" stroke-linecap="round" stroke-linejoin="round"/>
<path d="M34.9836 46.1815C34.9836 46.1815 24.9512 51.9137 22.0151 55.0049C18.5326 58.673 16.2464 64.6106 16.2464 64.6106" stroke="#1A2743" stroke-width="0.59" stroke-linecap="round" stroke-linejoin="round"/>
<path d="M16.5129 63.1785L11.948 62.0759L10.8315 69.6031C10.7176 70.3761 11.1731 71.0741 11.9078 71.2515L15.821 72.1968C16.5557 72.3742 17.3505 71.9783 17.6986 71.2619L21.0815 64.2821L16.5167 63.1794L16.5129 63.1785Z" fill="#B5B4D8"/>
<path d="M21.6016 62.6353L12.4492 60.4246C12.2156 60.3681 11.9658 60.5169 11.8914 60.7568L11.3585 62.4752C11.284 62.7151 11.4131 62.9554 11.6468 63.0118L20.7991 65.2226C21.0328 65.279 21.2825 65.1302 21.3569 64.8903L21.8899 63.172C21.9643 62.932 21.8352 62.6918 21.6016 62.6353Z" fill="#A6A5D0"/>
<path d="M24.9529 72.904L24.3775 74.3599L27.524 74.9761L28.187 73.5059L24.9529 72.904Z" fill="#D986B3"/>
<path d="M24.3218 73.9021L27.761 74.7329L28.267 76.0601L31.7673 78.0814C31.976 78.2006 32.0666 78.4518 31.9914 78.6942L31.942 78.8532C31.8819 79.0472 31.6808 79.1654 31.4925 79.1178L23.5774 77.0808C23.177 76.9778 22.9928 76.531 23.1903 76.143L24.3218 73.9021Z" fill="#29265B"/>
<path d="M34.9104 43.6646L24.8127 73.1971L28.4918 74.0858L40.2696 48.1822L34.9104 43.6646Z" fill="#141F33"/>
<path d="M20.4842 71.8247L19.9107 73.281L23.0572 73.8971L23.7202 72.427L20.4842 71.8247Z" fill="#D986B3"/>
<path d="M29.5082 43.7188L20.1502 72.0707L23.8293 72.9594L36.5093 44.2321L29.5082 43.7188Z" fill="#1A2743"/>
<path d="M37.7541 28.6619C37.8261 28.5605 39.6422 27.444 40.8699 27.7405C42.0975 28.037 43.1846 29.2315 43.1359 30.0891C43.0865 30.9486 40.5806 35.9908 39.2735 36.5007C37.9663 37.0105 37.7541 28.6619 37.7541 28.6619Z" fill="#D7AEC8"/>
<path d="M40.7397 30.1566L38.9094 32.9292L38.5254 37.1914L41.3214 33.6681L41.0995 30.1226L40.7397 30.1566Z" fill="#1A2743"/>
<path d="M39.955 29.542L40.4957 30.5086C40.6197 30.7303 40.9374 30.7403 41.1071 30.527L42.1359 29.239L42.0007 28.6539L40.1159 28.5781L39.9569 29.5424L39.955 29.542Z" fill="#1D1B4A"/>
<path d="M39.6616 25.4413L38.935 27.2734L40.7741 29.5189L42.4716 28.4904L43.2085 26.1146L39.6616 25.4413Z" fill="#E3ACCB"/>
<path d="M42.9389 26.9892C42.7752 26.81 42.3804 26.3811 41.9047 25.8659L39.6651 25.4417L38.9372 27.2714L39.6058 28.0875C39.6297 28.0954 39.6492 28.098 39.6572 28.0853C39.7867 27.9165 42.3218 27.2572 42.9022 27.1076L42.9395 26.9873L42.9389 26.9892Z" fill="#D986B3"/>
<path d="M39.0741 26.919L41.0294 29.1175L39.1009 30.603L38.4436 27.6757L39.0741 26.919Z" fill="#EFD7E6"/>
<path d="M42.715 27.7088L41.0296 29.1175L42.5991 30.4848L43.0538 29.0186L42.8566 28.3455L42.715 27.7088Z" fill="#EFD7E6"/>
<path d="M51.2367 43.9078C51.2367 43.9078 53.872 44.2608 53.6636 44.494C53.4534 44.7268 52.3518 44.7505 52.4219 44.8779C52.4914 45.0073 52.971 46.007 53.6453 46.1699C54.3195 46.3328 55.3426 46.5361 55.1711 46.7616C54.9997 46.987 53.4882 46.9513 53.4882 46.9513C53.4882 46.9513 54.5281 47.0544 54.3392 47.2903C54.1498 47.528 53.34 47.5993 52.8121 47.4947C52.8121 47.4947 53.8307 47.7845 53.4671 48.0011C53.1036 48.2176 52.011 47.6493 52.011 47.6493C52.011 47.6493 52.5264 48.0428 52.1024 48.1467C51.6777 48.2526 49.6983 47.0156 49.5398 45.7265C49.3814 44.4374 51.2379 43.9039 51.2379 43.9039L51.2367 43.9078Z" fill="#E3ACCB"/>
<path d="M51.9741 48.147C51.387 47.0879 50.272 45.0799 50.0012 44.5913C49.7007 44.8731 49.4786 45.2489 49.5389 45.7284C49.6854 46.9187 51.3812 48.0622 51.9741 48.147Z" fill="#D986B3"/>
<path d="M45.79 31.4783L46.9405 39.5573L51.7516 43.538L49.32 46.5406C49.32 46.5406 44.7576 43.5581 44.226 42.5687C43.6945 41.5793 42.5945 39.6145 42.5945 39.6145L45.7938 31.4792L45.79 31.4783Z" fill="#2F2F75"/>
<path d="M42.8579 28.3454L45.7902 31.4783C45.7902 31.4783 40.8883 45.319 40.9141 50.9894C40.9141 50.9894 36.3061 50.7916 35.5774 48.8539C34.848 46.9182 36.401 43.2135 36.401 43.2135L38.8787 35.9254C38.8787 35.9254 42.247 32.7238 42.861 28.342L42.8579 28.3454Z" fill="#2F2F75"/>
<path d="M22.0856 40.275C22.0856 40.275 18.6229 40.3642 18.7025 40.7295C18.7814 41.0967 20.3501 41.0857 20.0861 41.243C19.8221 41.4002 17.0077 42.9406 17.139 43.185C17.2703 43.4293 18.6402 42.8283 18.6402 42.8283C18.6402 42.8283 16.9945 43.9256 17.2381 44.122C17.4817 44.3185 19.0378 43.5561 19.0378 43.5561C19.0378 43.5561 17.551 44.4811 17.6398 44.6464C17.7299 44.8141 20.1888 43.7132 20.11 43.9672C20.0312 44.2213 19.3147 44.928 19.6792 45.016C20.0437 45.1041 22.9157 42.7103 22.9157 42.7103L22.0856 40.275Z" fill="#E3ACCB"/>
<path d="M20.0187 44.8895C20.8794 44.4053 22.9156 42.7102 22.9156 42.7102L22.4506 41.3492L20.0181 44.8915L20.0187 44.8895Z" fill="#D986B3"/>
<path d="M34.1161 29.9677L33.4787 28.8089C33.4787 28.8089 28.8199 35.4972 27.6487 36.6027C26.4775 37.7083 21.6443 39.9452 21.6443 39.9452C21.6443 39.9452 21.8089 42.3991 22.5751 43.195C23.0174 43.6541 26.4389 42.1332 29.0874 40.4276C31.0204 39.1829 32.5524 36.9992 32.5524 36.9992L34.1155 29.9697L34.1161 29.9677Z" fill="#2F2F75"/>
<path d="M38.5964 27.4563C38.5964 27.4563 39.8958 31.7499 39.0195 36.1789C37.6239 40.6784 35.2878 47.6671 33.7837 48.563C32.2796 49.4589 26.8532 47.2725 26.8532 47.2725C26.8532 47.2725 31.5184 39.189 31.937 37.3221C32.3538 35.4548 33.1733 29.7884 33.4771 28.809C33.7809 27.8296 38.5983 27.4568 38.5983 27.4568L38.5964 27.4563Z" fill="#2F2F75"/>
<path d="M43.972 22.3538C43.972 22.3538 45.3343 22.7267 46.7593 21.3593C48.1849 19.99 46.5457 17.0736 43.5525 16.8405C40.5592 16.6074 40.3775 18.6399 39.6154 18.8519C38.8533 19.0639 38.4337 19.736 38.4249 20.7137C38.4154 21.6933 39.0706 23.7174 39.0706 23.7174C39.0706 23.7174 40.4431 25.0851 41.1543 25.0109C41.8656 24.9367 43.972 22.3538 43.972 22.3538Z" fill="#1A2743"/>
<path d="M45.8423 21.9452C45.8423 21.9452 45.0119 25.7682 44.4383 26.5177C43.8629 27.2668 41.703 27.2204 40.6647 26.8112C39.6257 26.4039 39.4944 24.2874 39.4944 24.2874C39.4944 24.2874 38.072 24.5275 38.1747 23.4829C38.2834 22.373 39.6414 22.701 39.6414 22.701C39.6414 22.701 40.0725 24.1581 40.3104 23.8299C40.5488 23.4997 40.3047 21.7667 40.4292 21.0838C40.5543 20.399 41.639 20.1419 41.639 20.1419C41.639 20.1419 43.5264 22.1009 45.8442 21.9457L45.8423 21.9452Z" fill="#E3ACCB"/>
<path d="M41.8133 25.0162C41.8133 25.0162 42.6835 25.9936 43.5103 25.5011" stroke="#1A2743" stroke-width="0.59" stroke-linecap="round" stroke-linejoin="round"/>
<path d="M43.5656 22.7004C43.5656 22.7004 43.1989 23.8106 43.3598 24.1101C43.5207 24.4095 42.856 24.6284 42.856 24.6284" stroke="#1A2743" stroke-width="0.59" stroke-linecap="round" stroke-linejoin="round"/>
<path d="M42.7204 22.6838C42.6813 22.8099 42.5569 22.8903 42.4436 22.863C42.3303 22.8356 42.2696 22.7104 42.3087 22.5844C42.3478 22.4583 42.4722 22.3779 42.5855 22.4053C42.6989 22.4326 42.7595 22.5578 42.7204 22.6838Z" fill="#1A2743"/>
<path d="M44.6998 23.0494C44.6234 23.1581 44.4821 23.1949 44.3865 23.1301C44.2908 23.0653 44.2777 22.9245 44.354 22.8158C44.4304 22.707 44.5717 22.6703 44.6673 22.7351C44.7629 22.7999 44.7761 22.9407 44.6998 23.0494Z" fill="#1A2743"/>
<path d="M41.87 23.6019C42.2194 23.6863 42.528 23.6731 42.5592 23.5724C42.5905 23.4717 42.3325 23.3217 41.9831 23.2373C41.6336 23.1529 41.3251 23.1661 41.2938 23.2668C41.2626 23.3675 41.5206 23.5175 41.87 23.6019Z" fill="#F0D6E5"/>
<path d="M45.487 24.2153C45.4557 24.3162 45.1471 24.3292 44.7977 24.2448C44.4483 24.1604 44.1903 24.0105 44.2216 23.9097C44.2529 23.8088 44.5614 23.7958 44.9108 23.8802C45.2602 23.9646 45.5182 24.1145 45.487 24.2153Z" fill="#F0D6E5"/>
<path d="M19.853 72.8228L23.2922 73.6535L23.7982 74.9807L27.2985 77.002C27.5072 77.1212 27.5978 77.3724 27.5226 77.6149L27.4733 77.7739C27.4131 77.9678 27.2101 78.0856 27.0238 78.0385L19.1087 76.0015C18.7082 75.8985 18.524 75.4516 18.7215 75.0636L19.853 72.8228Z" fill="#2F2F75"/>
</svg>
