<svg width="196" height="152" viewBox="0 0 196 152" fill="none" xmlns="http://www.w3.org/2000/svg">
<path d="M159.389 122.43C147.79 133.017 131.875 136.306 118.483 131.915C110.148 129.175 102.864 123.787 95.82 118.295C88.7765 112.804 81.7509 107.099 73.6872 103.615C65.6108 100.136 56.2307 99.0522 47.7517 102.918C45.023 104.161 42.6328 105.884 40.5528 107.986C36.3676 112.2 30.327 113.992 24.6251 112.437L24.5057 112.403C18.2542 110.696 13.603 105.403 12.8534 98.9541C12.1634 92.9562 12.6089 86.6923 14.3692 80.7149C17.3102 70.7655 23.2964 62.1136 29.5272 54.1113C40.0459 40.6112 51.8189 28.0419 65.5338 19.1812C79.2466 10.3449 95.0869 5.40916 109.945 7.8707C121.614 9.80077 132.155 16.1662 140.981 24.5031C149.795 32.839 157.02 43.1196 163.721 53.7324C168.45 61.2096 173.038 69.1227 174.714 78.3503C177.547 93.9736 170.988 111.842 159.389 122.43Z" fill="#F8F7FC"/>
<path d="M69.1972 83.6963L61.1723 83.0677C58.0543 82.8235 55.7413 80.0952 56.0059 76.974L61.6451 10.4595C61.9093 7.34402 64.6476 5.01472 67.769 5.2592L145.303 11.3322C148.425 11.5767 150.735 14.3014 150.471 17.4168L144.831 83.9311C144.567 87.0525 141.825 89.3848 138.706 89.1406L86.8592 85.0796L69.1972 83.6963Z" fill="white"/>
<path d="M138.692 89.3146L61.1584 83.2417C57.9497 82.9903 55.5607 80.1725 55.833 76.9605L61.4722 10.4457C61.7441 7.23869 64.5759 4.83387 67.7846 5.0852L145.319 11.1582C148.528 11.4095 150.917 14.2232 150.645 17.4302L145.006 83.9447C144.734 87.1571 141.901 89.566 138.692 89.3146ZM67.7551 5.43301C64.7378 5.19667 62.0752 7.45744 61.8196 10.4729L56.1804 76.9877C55.9243 80.0082 58.1705 82.6576 61.1879 82.8939L138.722 88.9669C141.739 89.2032 144.402 86.9381 144.658 83.9175L150.298 17.403C150.553 14.3876 148.307 11.7423 145.289 11.5059L67.7551 5.43301Z" fill="url(#paint0_linear_61_3125)"/>
<path d="M149.957 23.4768L150.471 17.42C150.735 14.2996 148.423 11.5724 145.306 11.3282L67.7677 5.25495C64.6503 5.01078 61.9091 7.34218 61.6445 10.4626L61.131 16.5193L149.957 23.4768Z" fill="url(#paint1_linear_61_3125)"/>
<path d="M69.8225 11.3082C69.7304 12.395 68.7706 13.2114 67.685 13.1264C66.5993 13.0413 65.7899 12.0864 65.882 10.9996C65.9742 9.91263 66.9338 9.09626 68.0195 9.1813C69.1051 9.26633 69.9147 10.2213 69.8225 11.3082Z" fill="#F2F0FB"/>
<path d="M75.922 11.786C75.8298 12.8728 74.8702 13.6892 73.7846 13.6041C72.699 13.5191 71.8895 12.5642 71.9817 11.4774C72.0738 10.3904 73.0335 9.57405 74.1191 9.65908C75.2047 9.74411 76.0141 10.699 75.922 11.786Z" fill="#F2F0FB"/>
<path d="M82.0254 12.264C81.9332 13.3508 80.9736 14.1672 79.888 14.0821C78.8024 13.9971 77.993 13.0422 78.0852 11.9554C78.1773 10.8684 79.1369 10.0521 80.2224 10.1371C81.3081 10.2221 82.1175 11.1771 82.0254 12.264Z" fill="#F2F0FB"/>
<path d="M143.724 17.0518C143.611 18.3864 142.438 19.3837 141.105 19.2792L109.882 16.8336C108.548 16.7292 107.559 15.5627 107.673 14.228C107.786 12.8934 108.958 11.8962 110.291 12.0006L141.515 14.4462C142.848 14.5506 143.837 15.7172 143.724 17.0518Z" fill="#F2F0FB"/>
<path d="M143.888 39.5413L142.468 56.2904C142.432 56.7251 142.05 57.0499 141.615 57.0159L136.825 56.6407C136.391 56.6067 136.069 56.2267 136.106 55.792L137.526 39.0429C137.562 38.6083 137.944 38.2834 138.379 38.3175L143.169 38.6926C143.603 38.7267 143.925 39.1066 143.888 39.5413Z" fill="#C5ADFF"/>
<path d="M133.922 44.604L132.981 55.7007C132.952 56.0515 132.643 56.3136 132.293 56.2862L127.202 55.8874C126.851 55.86 126.591 55.5533 126.621 55.2025L127.562 44.1058C127.592 43.755 127.9 43.4928 128.25 43.5203L133.341 43.9191C133.692 43.9465 133.952 44.2532 133.922 44.604Z" fill="#FFD375"/>
<path d="M124.837 39.3173L123.523 54.807C123.487 55.2416 123.105 55.5665 122.67 55.5325L117.877 55.157C117.443 55.123 117.121 54.743 117.158 54.3084L118.471 38.8187C118.508 38.384 118.89 38.0592 119.324 38.0932L124.117 38.4686C124.551 38.5027 124.874 38.8826 124.837 39.3173Z" fill="#F35170"/>
<path d="M114.693 46.4458L114.047 54.0644C114.01 54.4992 113.628 54.824 113.194 54.7899L108.404 54.4147C107.97 54.3807 107.647 54.0008 107.684 53.5661L108.33 45.9474C108.367 45.5127 108.749 45.1879 109.183 45.2219L113.973 45.5971C114.408 45.631 114.73 46.011 114.693 46.4458Z" fill="#BE7D5A"/>
<path d="M143.077 49.1151L142.469 56.2893C142.432 56.7275 142.051 57.0518 141.613 57.0175L136.825 56.6425C136.388 56.6082 136.066 56.2289 136.103 55.7907L136.425 51.9959C139.029 51.3059 141.299 50.3227 143.077 49.1151Z" fill="#976FF8"/>
<path d="M133.238 52.6692L132.98 55.7028C132.951 56.0487 132.644 56.3149 132.293 56.2874L127.2 55.8885C126.855 55.8614 126.591 55.5506 126.62 55.2046L126.795 53.1457C129.049 53.1656 131.215 52.9984 133.238 52.6692Z" fill="#EE9545"/>
<path d="M123.675 53.0174L123.523 54.8052C123.486 55.2434 123.105 55.5677 122.673 55.5339L117.88 55.1584C117.442 55.1242 117.12 54.7448 117.157 54.3066L117.35 52.0343C119.34 52.5094 121.463 52.8441 123.675 53.0174Z" fill="#DE3260"/>
<path d="M114.294 51.1854L114.05 54.0633C114.013 54.5015 113.626 54.8253 113.194 54.7915L108.406 54.4165C107.968 54.3822 107.647 54.0029 107.684 53.5647L108.124 48.38C109.887 49.4703 111.969 50.4228 114.294 51.1854Z" fill="#51383C"/>
<path d="M111.587 40.9077C111.542 40.9043 111.499 40.8838 111.468 40.8472C111.406 40.774 111.416 40.6636 111.489 40.6013L122.167 31.5378C122.23 31.4846 122.321 31.4818 122.385 31.5309L131.012 38.0307L141.138 29.2283C141.211 29.1649 141.321 29.1728 141.384 29.2448C141.446 29.3174 141.438 29.4276 141.365 29.4909L131.133 38.3861C131.07 38.4404 130.978 38.4442 130.913 38.3943L122.285 31.8937L111.714 40.8664C111.677 40.8977 111.631 40.9112 111.587 40.9077Z" fill="#4C5C75"/>
<path d="M113.388 40.5531C113.318 41.3798 112.589 41.9997 111.763 41.9351C110.932 41.87 110.317 41.1447 110.387 40.318C110.457 39.4914 111.186 38.8715 112.017 38.9366C112.843 39.0012 113.458 39.7264 113.388 40.5531Z" fill="#BE7D5A"/>
<path d="M123.804 32.2979C123.733 33.1246 123.005 33.7446 122.179 33.6799C121.348 33.6149 120.733 32.8896 120.803 32.0629C120.873 31.2362 121.602 30.6164 122.433 30.6814C123.259 30.7461 123.874 31.4712 123.804 32.2979Z" fill="#F35170"/>
<path d="M132.606 38.2684C132.536 39.095 131.807 39.7151 130.981 39.6504C130.151 39.5853 129.536 38.86 129.606 38.0334C129.676 37.2067 130.405 36.5868 131.236 36.6519C132.062 36.7165 132.676 37.4417 132.606 38.2684Z" fill="#FFD375"/>
<path d="M142.597 29.5681C142.526 30.3947 141.798 31.0148 140.972 30.9501C140.141 30.885 139.526 30.1597 139.596 29.3331C139.666 28.5064 140.395 27.8865 141.226 27.9516C142.052 28.0162 142.667 28.7414 142.597 29.5681Z" fill="#C5ADFF"/>
<path d="M77.0839 57.3039L76.7619 61.1028C76.7116 61.6958 76.1906 62.139 75.5982 62.0925L71.8033 61.7953C71.2109 61.7489 70.7714 61.2306 70.8217 60.6376L71.1438 56.8386C71.1941 56.2456 71.715 55.8025 72.3074 55.8489L76.1024 56.1461C76.6947 56.1925 77.1342 56.7109 77.0839 57.3039Z" fill="#BE7D5A"/>
<path d="M76.371 65.7205L76.049 69.5195C75.9987 70.1124 75.4777 70.5556 74.8853 70.5092L71.0904 70.2119C70.498 70.1655 70.0586 69.6472 70.1088 69.0542L70.4309 65.2552C70.4812 64.6623 71.0021 64.2191 71.5945 64.2655L75.3895 64.5628C75.9818 64.6092 76.4213 65.1275 76.371 65.7205Z" fill="#6EB854"/>
<path d="M75.6582 74.1371L75.3361 77.9361C75.2858 78.5291 74.7648 78.9722 74.1724 78.9258L70.3775 78.6285C69.7851 78.5822 69.3457 78.0638 69.3959 77.4708L69.718 73.6719C69.7683 73.0789 70.2892 72.6358 70.8816 72.6822L74.6766 72.9794C75.2689 73.0258 75.7084 73.5441 75.6582 74.1371Z" fill="#FFD375"/>
<path d="M107.839 60.3324C107.815 60.6182 107.563 60.8318 107.278 60.8094L82.2813 58.8516C81.9958 58.8292 81.7839 58.5793 81.8081 58.2935C81.8324 58.0076 82.0835 57.794 82.3691 57.8164L107.366 59.7743C107.651 59.7967 107.863 60.0465 107.839 60.3324Z" fill="#F2F0FB"/>
<path d="M100.404 62.3349C100.38 62.6207 100.129 62.8343 99.8433 62.812L82.0645 61.4194C81.779 61.3971 81.5671 61.1472 81.5913 60.8613C81.6156 60.5755 81.8667 60.3619 82.1523 60.3842L99.931 61.7768C100.217 61.7992 100.428 62.049 100.404 62.3349Z" fill="#F2F0FB"/>
<path d="M107.122 68.749C107.098 69.0348 106.847 69.2484 106.561 69.2261L81.5645 67.2682C81.279 67.2458 81.0671 66.9959 81.0913 66.7101C81.1156 66.4242 81.3667 66.2106 81.6523 66.233L106.649 68.1909C106.934 68.2133 107.146 68.4631 107.122 68.749Z" fill="#F2F0FB"/>
<path d="M99.6874 70.7513C99.6632 71.0371 99.412 71.2507 99.1265 71.2284L81.3477 69.8358C81.0622 69.8135 80.8503 69.5636 80.8745 69.2777C80.8988 68.9919 81.1499 68.7783 81.4355 68.8006L99.2143 70.1932C99.4998 70.2155 99.7117 70.4654 99.6874 70.7513Z" fill="#F2F0FB"/>
<path d="M106.409 77.1656C106.385 77.4515 106.134 77.6651 105.848 77.6427L80.8516 75.6848C80.5661 75.6625 80.3542 75.4126 80.3785 75.1267C80.4027 74.8409 80.6538 74.6273 80.9394 74.6496L105.936 76.6075C106.221 76.6299 106.433 76.8798 106.409 77.1656Z" fill="#F2F0FB"/>
<path d="M98.9745 79.168C98.9503 79.4539 98.6991 79.6675 98.4136 79.6451L80.6348 78.2526C80.3493 78.2302 80.1374 77.9803 80.1617 77.6945C80.1859 77.4086 80.437 77.195 80.7226 77.2174L98.5014 78.6099C98.787 78.6323 98.9988 78.8822 98.9745 79.168Z" fill="#F2F0FB"/>
<path d="M91.555 38.8624C91.3354 41.4524 90.0417 44.0467 87.8088 45.8858L87.7997 45.8935L85.0733 42.6871L85.074 42.6786C86.2936 41.6805 87.1212 40.2107 87.264 38.5262C87.5432 35.233 86.1372 32.5418 81.8316 32.0726L82.2132 27.8717C85.0907 28.0971 87.5828 29.4708 89.2647 31.5102C90.9112 33.4809 91.7945 36.0366 91.555 38.8624Z" fill="#C6AEFF"/>
<path d="M82.2153 27.8719L81.8337 32.0727L81.7917 32.0694C80.1006 31.937 78.51 32.5161 77.3282 33.5681L74.6026 30.3533C76.5931 28.6524 79.2326 27.6891 82.0379 27.8665C82.0975 27.8626 82.1564 27.8673 82.2153 27.8719Z" fill="url(#paint2_linear_61_3125)"/>
<path d="M75.2934 37.5888C75.2891 37.6393 75.2856 37.6814 75.2897 37.7326L70.9987 37.3965L71.0102 37.2618C71.271 34.4843 72.6127 32.0459 74.6025 30.3535L77.3282 33.5683C76.1935 34.5646 75.4298 35.9801 75.2934 37.5888Z" fill="#F35170"/>
<path d="M87.8094 45.8859L87.8003 45.8937C85.7713 47.5491 83.1445 48.4625 80.3427 48.2431C77.5494 48.0243 75.1111 46.7141 73.4213 44.7674C71.7246 42.8032 70.777 40.1939 70.9966 37.4048L75.2875 37.7409C75.0883 40.9894 77.5187 43.7912 80.7748 44.0462C82.3902 44.1727 83.9168 43.6479 85.0739 42.6872L85.0746 42.6788L87.8094 45.8859Z" fill="#F35170"/>
<path d="M86.0758 31.6343C86.0063 31.5684 86.0041 31.4578 86.0708 31.3878L89.8509 27.4167C89.8873 27.3785 89.9388 27.3586 89.9914 27.3627L97.0069 27.9122C97.103 27.9197 97.174 28.0036 97.1659 28.0997C97.1577 28.1957 97.0734 28.2675 96.9775 28.2599L90.0451 27.7169L86.3223 31.6276C86.2556 31.6978 86.1451 31.7005 86.0758 31.6343Z" fill="#4C5C75"/>
<path d="M97.3591 25.2153L97.2277 26.7651C97.2219 26.8342 97.163 26.8843 97.094 26.8788L93.9187 26.6301C93.8496 26.6247 93.8 26.5662 93.8059 26.4971L93.9373 24.9473C93.9427 24.8831 94.0019 24.8281 94.071 24.8335L97.2463 25.0822C97.3154 25.0876 97.3646 25.1511 97.3591 25.2153Z" fill="#4C5C75"/>
<path d="M79.2802 29.2392L76.265 24.8008L69.9982 24.3099C69.9022 24.3024 69.8311 24.2185 69.8392 24.1225C69.8474 24.0264 69.9317 23.9547 70.0277 23.9622L76.3776 24.4596C76.4301 24.4637 76.4776 24.4913 76.5071 24.5347L79.5688 29.0417C79.6229 29.1211 79.602 29.2299 79.5223 29.2842C79.4429 29.3386 79.3342 29.3187 79.2802 29.2392Z" fill="#4C5C75"/>
<path d="M70.1326 21.246L70.0012 22.7958C69.9953 22.8649 70.0449 22.9234 70.114 22.9288L73.2893 23.1775C73.3584 23.183 73.4172 23.1329 73.423 23.0638L73.5544 21.514C73.5599 21.4498 73.5107 21.3863 73.4416 21.3809L70.2663 21.1322C70.1973 21.1268 70.138 21.1818 70.1326 21.246Z" fill="#4C5C75"/>
<path d="M76.325 49.6618L68.8821 49.0789C68.786 49.0713 68.715 48.9875 68.7231 48.8914C68.7313 48.7953 68.8156 48.7236 68.9115 48.7311L76.2714 49.3076L80.1883 45.1933C80.2548 45.123 80.365 45.1204 80.4348 45.1867C80.5043 45.2526 80.5066 45.3633 80.4399 45.4332L76.4656 49.608C76.4292 49.6461 76.3776 49.666 76.325 49.6618Z" fill="#4C5C75"/>
<path d="M68.5115 51.9229L68.6496 50.2936C68.6558 50.221 68.7176 50.1684 68.7902 50.1741L72.1282 50.4355C72.2008 50.4412 72.2529 50.5028 72.2468 50.5754L72.1087 52.2046C72.1029 52.2721 72.0407 52.3299 71.9681 52.3242L68.6301 52.0628C68.5575 52.0571 68.5058 51.9904 68.5115 51.9229Z" fill="#4C5C75"/>
<path d="M76.3733 37.6973C76.1414 40.4335 78.1692 42.8252 80.9024 43.0393C83.6365 43.2535 86.0405 41.2088 86.2725 38.4727C86.5045 35.7356 84.4767 33.344 81.7425 33.1298C79.0093 32.9157 76.6054 34.9603 76.3733 37.6973Z" fill="#FFDE9E"/>
<path d="M77.56 37.7903C77.3794 39.9211 78.9586 41.7837 81.0872 41.9504C83.2165 42.1172 85.0886 40.525 85.2693 38.3941C85.45 36.2626 83.8708 34.3999 81.7415 34.2332C79.613 34.0664 77.7407 35.6587 77.56 37.7903Z" fill="#FFD375"/>
<path d="M81.0805 42.0201C78.917 41.8506 77.306 39.9505 77.4896 37.7847C77.6733 35.6183 79.5831 33.994 81.7466 34.1634C83.9107 34.3329 85.5217 36.2331 85.3381 38.3995C85.1545 40.5652 83.2446 42.1896 81.0805 42.0201ZM81.7348 34.3027C79.6477 34.1392 77.8059 35.706 77.6287 37.7957C77.4516 39.885 79.0052 41.7174 81.0923 41.8809C83.1798 42.0444 85.0218 40.4779 85.199 38.3886C85.3761 36.2989 83.8222 34.4662 81.7348 34.3027Z" fill="#EE9545"/>
<path d="M81.4384 37.7857C81.1117 37.7601 80.8685 37.4733 80.8963 37.1463C80.924 36.8196 81.2122 36.5746 81.5389 36.6001C81.8653 36.6257 82.1083 36.9123 82.0806 37.2391C82.0695 37.3695 82.1662 37.4835 82.2965 37.4937C82.4267 37.5039 82.5413 37.4064 82.5524 37.276C82.5953 36.7701 82.2766 36.3185 81.8125 36.1736L81.8294 35.9742C81.8405 35.8439 81.7438 35.7298 81.6135 35.7196C81.4833 35.7094 81.3686 35.8069 81.3576 35.9373L81.3407 36.1366C80.858 36.2073 80.4673 36.6034 80.4244 37.1093C80.3746 37.6968 80.8114 38.2121 81.3983 38.258C81.7247 38.2836 81.9677 38.5703 81.94 38.897C81.9122 39.224 81.6241 39.4691 81.2978 39.4436C80.9711 39.418 80.7279 39.1312 80.7557 38.8042C80.7667 38.6738 80.67 38.5598 80.5397 38.5495C80.4095 38.5394 80.2949 38.6368 80.2838 38.7672C80.2409 39.2735 80.5597 39.7253 81.0241 39.8702L81.0103 40.0337C80.9992 40.1641 81.0959 40.2781 81.2262 40.2883C81.3564 40.2986 81.4711 40.2011 81.4821 40.0707L81.496 39.9071C81.9784 39.8363 82.3689 39.4401 82.4118 38.9339C82.4616 38.3467 82.0249 37.8317 81.4384 37.7857Z" fill="#EE9545"/>
<path d="M147.821 119.513L147.502 123.271C147.434 124.073 148.029 124.774 148.83 124.837L152.927 125.158C153.728 125.22 154.433 124.621 154.501 123.819L154.819 120.061L147.821 119.513Z" fill="#111D33"/>
<path d="M152.678 125.138L149.075 124.856L147.895 138.768L151.498 139.051L152.678 125.138Z" fill="#4C5C75"/>
<path d="M143.953 141.411L144.059 140.16C144.138 139.232 144.953 138.538 145.881 138.611L153.511 139.208C154.439 139.281 155.126 140.092 155.048 141.02L154.942 142.272L143.953 141.411Z" fill="#4C5C75"/>
<path d="M136.308 145.558L136.221 146.585L161.706 148.581L161.793 147.554C162.013 144.95 160.084 142.675 157.483 142.471L141.417 141.213C138.816 141.009 136.529 142.954 136.308 145.558Z" fill="#111D33"/>
<path d="M180.354 86.6693L169.283 119.628C168.982 120.523 168.111 121.1 167.173 121.027L133.06 118.355L133.166 117.104C133.321 115.279 134.855 113.873 136.685 113.881L146.562 113.957L157.635 88.7963C159.276 85.0677 163.095 82.7772 167.142 83.0943L178.59 83.9909C179.911 84.0943 180.777 85.4097 180.354 86.6693Z" fill="#4C5C75"/>
<path d="M130.511 138.577L135 139.13L133.943 144.048L129.641 143.151C130.276 141.701 130.612 140.044 130.511 138.577Z" fill="#F6A285"/>
<path d="M120.877 143.574C120.848 143.742 120.966 143.907 121.133 143.942L133.509 146.524C133.682 146.56 133.859 146.45 133.898 146.27L134.696 142.553C134.826 141.848 134.175 141.244 133.479 141.434C133.41 141.426 131.568 142.202 130.867 140.484C130.754 140.202 130.745 139.69 130.098 139.555C129.517 139.434 127.331 140.884 125.898 141.032C125.747 141.056 125.601 141.054 125.471 141.041C124.527 140.927 122.882 140.731 121.811 141.695C121.377 142.093 121.032 142.691 120.877 143.574Z" fill="#FFD375"/>
<path d="M121.163 142.614C121.04 142.889 120.943 143.206 120.88 143.574C120.851 143.743 120.967 143.906 121.134 143.941L133.509 146.523C133.683 146.559 133.856 146.447 133.893 146.272L134.099 145.313L121.163 142.614Z" fill="#DF8236"/>
<path d="M132.871 143.416C132.764 143.913 132.274 144.234 131.777 144.13C131.281 144.026 130.964 143.538 131.071 143.04C131.178 142.542 131.668 142.222 132.165 142.326C132.662 142.43 132.978 142.918 132.871 143.416Z" fill="#DF8236"/>
<path d="M129.432 140.843C129.551 140.785 129.601 140.641 129.543 140.523L129.144 139.702C129.086 139.584 128.943 139.534 128.825 139.593C128.707 139.651 128.657 139.795 128.714 139.913L129.113 140.734C129.173 140.855 129.318 140.9 129.432 140.843Z" fill="#DF8236"/>
<path d="M128.458 141.227C128.576 141.169 128.626 141.025 128.569 140.907L128.17 140.086C128.112 139.968 127.969 139.918 127.851 139.978C127.732 140.035 127.682 140.179 127.74 140.297L128.139 141.119C128.197 141.238 128.342 141.285 128.458 141.227Z" fill="#DF8236"/>
<path d="M127.503 141.658C127.622 141.6 127.672 141.456 127.614 141.338L127.215 140.517C127.156 140.399 127.014 140.35 126.896 140.409C126.777 140.466 126.727 140.61 126.785 140.729L127.184 141.55C127.243 141.67 127.388 141.716 127.503 141.658Z" fill="#DF8236"/>
<path d="M121.81 141.695C122.145 141.988 122.552 142.199 123.019 142.296C124.18 142.538 125.32 142.001 125.898 141.032C125.746 141.056 125.6 141.054 125.471 141.041C124.526 140.927 122.882 140.731 121.81 141.695Z" fill="#DF8236"/>
<path d="M145.004 139.979L149.53 139.893L149.175 144.907L144.785 144.625C145.211 143.101 145.311 141.415 145.004 139.979Z" fill="#F6A285"/>
<path d="M136.161 146.277C136.155 146.448 136.295 146.594 136.466 146.605L149.093 147.417C149.27 147.428 149.429 147.295 149.442 147.111L149.711 143.323C149.741 142.606 149.011 142.1 148.348 142.387C148.278 142.389 146.562 143.416 145.626 141.814C145.474 141.551 145.393 141.046 144.733 141.004C144.141 140.966 142.178 142.708 140.779 143.056C140.632 143.101 140.487 143.119 140.357 143.125C139.405 143.146 137.747 143.183 136.821 144.287C136.447 144.742 136.19 145.382 136.161 146.277Z" fill="#FFD375"/>
<path d="M136.309 145.287C136.226 145.576 136.175 145.903 136.164 146.277C136.159 146.448 136.297 146.593 136.467 146.604L149.094 147.416C149.272 147.428 149.426 147.292 149.439 147.114L149.508 146.136L136.309 145.287Z" fill="#DF8236"/>
<path d="M148.026 144.432C147.99 144.94 147.55 145.325 147.043 145.292C146.536 145.26 146.153 144.821 146.189 144.314C146.225 143.807 146.666 143.421 147.173 143.454C147.68 143.486 148.062 143.925 148.026 144.432Z" fill="#DF8236"/>
<path d="M144.255 142.371C144.365 142.297 144.394 142.148 144.32 142.039L143.809 141.283C143.734 141.175 143.586 141.146 143.478 141.221C143.368 141.295 143.339 141.444 143.413 141.553L143.924 142.309C143.999 142.42 144.15 142.444 144.255 142.371Z" fill="#DF8236"/>
<path d="M143.341 142.889C143.45 142.815 143.479 142.666 143.406 142.557L142.895 141.801C142.821 141.692 142.672 141.663 142.563 141.738C142.454 141.812 142.425 141.961 142.499 142.07L143.009 142.827C143.084 142.936 143.234 142.962 143.341 142.889Z" fill="#DF8236"/>
<path d="M142.456 143.449C142.566 143.375 142.595 143.226 142.521 143.117L142.01 142.361C141.936 142.253 141.788 142.224 141.679 142.299C141.569 142.373 141.54 142.522 141.614 142.631L142.125 143.387C142.2 143.498 142.35 143.522 142.456 143.449Z" fill="#DF8236"/>
<path d="M136.822 144.287C137.194 144.53 137.628 144.681 138.105 144.712C139.289 144.788 140.343 144.096 140.779 143.056C140.632 143.101 140.488 143.119 140.357 143.125C139.405 143.146 137.748 143.183 136.822 144.287Z" fill="#DF8236"/>
<path d="M158.764 118.757L140.104 117.296L135.821 139.257C135.789 139.635 134.51 139.742 133.171 139.659C131.659 139.573 130.064 139.241 130.101 138.809C130.101 138.809 128.013 114.778 133.973 108.688C137.485 105.105 157.273 104.596 157.273 104.596C159.317 124.003 158.612 117.309 158.764 118.757Z" fill="#8EB6FF"/>
<path d="M158.764 118.757L140.103 117.296L135.821 139.258C135.789 139.635 134.51 139.742 133.171 139.659C133.204 139.015 133.312 138.376 133.42 137.738C134.553 131.106 135.69 124.475 136.823 117.837C137.071 116.379 137.34 114.873 138.166 113.645C139.165 112.164 140.858 111.275 142.584 110.824C146.295 109.838 150.357 110.623 157.542 107.171L158.764 118.757Z" fill="#497BFD"/>
<path d="M166.151 117.738C164.024 120.033 153.557 118.404 153.557 118.404L150.361 140.548C150.351 140.917 149.192 141.087 147.921 141.091C146.352 141.104 144.604 140.853 144.62 140.403C144.62 140.403 140.274 115.679 145.907 109.286C148.753 106.051 163.715 106.942 167.199 106.916C167.199 106.916 168.63 115.064 166.151 117.738Z" fill="#8EB6FF"/>
<path d="M166.15 117.738C164.024 120.033 153.557 118.404 153.557 118.404L150.36 140.548C150.351 140.917 149.191 141.087 147.921 141.091C147.975 139.873 148.479 138.608 148.894 137.424C151.553 129.816 149.785 124.746 149.832 121.431C149.9 117.445 151.808 115.334 155.631 114.486C158.476 113.864 162.513 113.996 164.685 111.403C166.127 109.689 165.342 107.835 165.61 106.89C166.277 106.904 166.818 106.919 167.198 106.916C167.198 106.916 168.63 115.064 166.15 117.738Z" fill="#497BFD"/>
<path d="M130.188 74.0579C130.188 74.0579 134.501 84.1934 137.627 85.2172C138.934 85.6459 143.542 84.3532 143.542 84.3532L142.22 78.4883L139.379 78.9045L139.26 78.9221L132.902 71.0817C132.842 71.1471 130.011 74.2522 130.188 74.0579Z" fill="#F7A386"/>
<path d="M130.188 74.0579C130.188 74.0579 134.501 84.1934 137.627 85.2173C138.934 85.6459 143.541 84.3533 143.541 84.3533L142.22 78.4883L139.379 78.9046C139.436 79.1986 139.505 79.4988 139.526 79.7857C139.582 80.4605 139.38 81.1331 139.18 81.7832C139.049 82.2123 138.917 82.646 138.672 83.0209C137.961 84.1126 136.741 83.9769 136.083 82.9314C135.756 82.4119 135.627 81.7949 135.465 81.2025C134.675 78.2461 132.943 75.5647 130.582 73.6268L130.188 74.0579Z" fill="url(#paint3_linear_61_3125)"/>
<path d="M130.188 74.0579C130.124 73.7136 129.319 72.7337 128.996 72.5942C128.424 72.35 128.066 72.127 127.748 71.8858L127.744 71.8855C127.418 71.6311 127.14 71.3637 126.724 71.0342C125.786 70.304 126.62 69.712 126.62 69.712C125.578 68.7701 126.849 68.4628 126.849 68.4628C125.678 67.4895 127.153 67.1218 127.153 67.1218C124.562 66.1219 123.689 65.5747 124.131 65.16C124.673 64.6598 128.097 65.8266 130.008 67.0064C131.915 68.1814 132.902 71.1025 132.902 71.1025L130.188 74.0579Z" fill="#F7A386"/>
<path d="M130.459 70.6192C129.017 69.4487 130.123 68.4997 130.123 68.4997C129.148 67.982 127.873 67.5022 128.168 66.7903C128.527 65.9237 131.15 67.3844 132.038 68.3433C132.574 68.9221 132.861 69.7159 132.9 71.1001" fill="#F7A386"/>
<path d="M130.461 70.6192C130.144 70.3525 129.837 70.0354 129.744 69.6304C129.641 69.22 129.81 68.7764 130.116 68.4894L130.118 68.5116C129.486 68.1817 128.145 67.6612 128.102 67.028C128.084 66.8037 128.239 66.5665 128.467 66.5232C128.98 66.3887 129.838 66.8015 130.303 67.0506C132.31 68.1972 132.837 68.9574 132.902 71.1001C132.815 68.9738 132.286 68.2176 130.276 67.1003C129.845 66.8749 128.955 66.4619 128.482 66.5833C128.279 66.6209 128.147 66.8191 128.157 67.0243C128.24 67.6237 129.166 67.9711 130.131 68.4876C130.138 68.4911 130.14 68.4994 130.137 68.506L130.134 68.5099C129.833 68.7866 129.659 69.2212 129.757 69.6271C129.845 70.0313 130.15 70.3518 130.461 70.6192Z" fill="#E27659"/>
<path d="M140.856 85.6968L144.439 85.0671L150.181 84.0581L152.831 73.2906L152.822 73.2945L151.715 73.7015L140.143 77.9362C139.39 78.4933 140.272 85.7553 140.856 85.6968Z" fill="#F45170"/>
<path d="M144.44 85.067L150.182 84.0581L152.823 73.2944L151.716 73.7014C150.704 74.1658 149.399 74.82 149.162 75.0008C146.8 76.8132 145.362 80.5916 144.44 85.067Z" fill="#D12057"/>
<path d="M171.62 83.4467C171.499 84.8787 171.09 86.1062 170.558 87.3339C170.449 87.5763 170.34 87.8187 170.231 88.0708C170.117 88.303 170.004 88.5402 169.886 88.7769C169.535 89.4971 169.167 90.2359 168.799 91.0386C168.732 91.1907 168.665 91.3478 168.593 91.4997C168.44 91.8567 168.28 92.2377 168.129 92.6244C168.052 92.8446 167.969 93.0645 167.886 93.2892C167.879 93.3181 167.866 93.3466 167.86 93.3708C167.821 93.476 167.782 93.5861 167.747 93.7064C167.703 93.821 167.663 93.9457 167.629 94.066C167.627 94.0856 167.62 94.1097 167.613 94.1289C167.568 94.2533 167.529 94.3731 167.498 94.4987C167.306 95.1477 167.138 95.848 166.987 96.5888C166.952 96.7682 166.922 96.9527 166.886 97.137C166.883 97.181 166.873 97.2344 166.864 97.2877C166.832 97.487 166.806 97.6865 166.773 97.8907C166.751 98.0414 166.734 98.1876 166.716 98.3339C166.695 98.47 166.678 98.6114 166.666 98.7531C166.455 100.665 169.194 109.111 166.668 108.298C155.898 104.842 148.146 110.306 143.95 105.367C143.704 105.077 143.775 104.581 144.002 103.994C144.548 102.541 146.028 100.507 146.121 99.5251C147.33 86.0164 145.388 79.7637 149.151 75.6157C150.619 74.0039 152.772 73.1295 156.151 72.2921C156.292 72.2539 156.437 72.221 156.583 72.1832C156.643 72.1633 156.708 72.1536 156.773 72.1342C157.893 71.8627 158.899 71.7005 159.634 71.7285C160.589 71.764 161.818 72.1062 163.135 72.6915C163.173 72.7093 163.215 72.7323 163.263 72.7508C163.433 72.828 163.608 72.9107 163.782 72.9981C164.787 73.4999 165.829 74.1325 166.802 74.8828C169.609 77.0311 171.906 80.0794 171.62 83.4467Z" fill="#F45170"/>
<path d="M170.227 88.0669C170.117 88.3047 170 88.5382 169.886 88.7796C169.536 89.4957 169.164 90.2334 168.799 91.0344C168.764 91.1148 168.727 91.195 168.692 91.2753L168.278 91.2429C168.582 90.5961 168.887 89.9758 169.178 89.3814C169.292 89.1401 169.406 88.9065 169.52 88.6688C169.63 88.4232 169.741 88.1813 169.847 87.9393C170.381 86.7135 170.787 85.4813 170.908 84.0511C171.193 80.6849 168.896 77.6331 166.092 75.4844C164.951 74.6047 163.718 73.8821 162.551 73.3525C162.506 73.3332 162.469 73.3107 162.424 73.2917C161.113 72.7076 159.879 72.3684 158.921 72.3287C158.193 72.2989 157.182 72.4662 156.065 72.7348C156 72.7533 155.933 72.7675 155.869 72.786C152.972 73.4826 150.939 74.1841 149.461 75.2969C150.977 73.8193 153.189 72.9987 156.577 72.1801C156.644 72.166 156.708 72.1513 156.772 72.1329C157.889 71.8644 158.9 71.697 159.629 71.7267C160.587 71.7666 161.821 72.1019 163.131 72.6898C163.177 72.7089 163.214 72.7275 163.259 72.7506C164.426 73.2803 165.658 74.0028 166.804 74.8789C169.607 77.0314 171.905 80.0834 171.62 83.4455C171.498 84.8799 171.089 86.1116 170.555 87.3375C170.449 87.5756 170.338 87.8213 170.227 88.0669Z" fill="#D12057"/>
<path d="M145.485 96.6639C145.422 96.8124 144.475 96.9602 144.515 97.2836C144.554 97.6022 145.45 97.7689 146.054 97.5755C145.992 97.7241 144.934 97.7651 145.003 98.0934C145.111 98.6056 146.98 98.7501 147.454 98.829C147.969 98.9259 148.808 98.8872 150.068 98.3321C150.068 98.3321 165.245 100.705 169.289 98.1206C172.369 96.1474 171.22 89.8214 171.22 89.8214L162.866 86.7858L163.042 90.6076L163.131 92.5307L149.77 94.4762C148.948 93.8351 146.63 91.9902 146.108 92.7272C145.728 93.2648 147.593 94.4186 146.46 94.4518C146.46 94.4518 143.559 94.8354 143.818 95.5963C143.936 95.9423 145.188 95.9042 145.449 95.814C145.389 95.9667 143.998 95.9724 144.139 96.4202C144.29 96.9008 145.224 96.7539 145.485 96.6639Z" fill="#F7A386"/>
<path d="M147.455 98.829C147.97 98.9259 148.809 98.8871 150.069 98.3321C150.069 98.3321 165.246 100.705 169.29 98.1206C172.37 96.1473 171.221 89.8213 171.221 89.8213L162.867 86.7858L163.042 90.6076C163.907 91.4323 165.052 91.9599 166.244 92.0527C167.172 92.1187 168.21 91.9728 168.931 92.5585C169.857 93.3073 169.616 94.8894 168.749 95.7136C167.885 96.5413 166.638 96.795 165.458 96.9642C161.764 97.492 158.176 97.5254 149.632 97.829C149.155 97.8453 148.662 97.8644 148.227 98.0581C147.884 98.2051 147.581 98.4891 147.455 98.829Z" fill="url(#paint4_linear_61_3125)"/>
<path d="M164.038 80.3307L170.775 79.4366C171.434 80.7214 172.956 83.8855 171.813 91.3025C171.436 93.7484 164.429 91.3696 162.595 89.5791C161.205 88.2223 161.391 83.1058 164.038 80.3307Z" fill="#F45170"/>
<path d="M171.81 91.3038C171.695 92.048 170.969 92.3506 169.951 92.3482C170.426 92.1885 170.741 91.9048 170.816 91.4315C171.958 84.0136 170.439 80.8472 169.778 79.5629L170.772 79.435C171.433 80.7195 172.952 83.8858 171.81 91.3038Z" fill="#D12057"/>
<path d="M163.782 72.9978L163.78 73.0271L157.608 78.5213L156.15 72.2918C156.291 72.2536 156.437 72.2207 156.582 72.1829C156.643 72.163 156.708 72.1534 156.773 72.134C157.892 71.8624 158.899 71.7002 159.634 71.7283C160.589 71.7637 161.818 72.106 163.135 72.6913C163.173 72.709 163.215 72.732 163.262 72.7505C163.433 72.8278 163.608 72.9104 163.782 72.9978Z" fill="#D12057"/>
<path d="M163.487 64.9044L162.838 72.5607L158.189 76.6951L157.096 72.0114L157.737 64.454L163.487 64.9044Z" fill="#F6A285"/>
<path d="M162.503 68.2507C162.99 67.9756 163.245 67.7516 163.245 67.7516L163.373 66.2463C163.373 66.2463 164.154 65.4924 164.498 64.6442C164.782 63.9527 164.772 63.2011 163.812 62.7483L163.706 59.4423C159.84 58.9714 156.201 58.7111 154.688 60.4263C154.688 60.4263 150.395 75.1064 162.503 68.2507Z" fill="url(#paint5_linear_61_3125)"/>
<path d="M154.48 61.2379C155.702 61.4423 156.229 59.5208 159.333 60.16C159.777 60.2508 160.058 60.4901 160.024 61.1394C159.966 62.3196 160.635 62.5684 161.231 62.8812C161.825 63.1943 160.853 65.1091 161.424 65.3571C161.721 65.4888 162.217 64.3115 162.217 64.3115C162.217 64.3115 162.858 62.4024 163.898 62.8168C164.809 63.1825 164.346 64.8462 163.755 65.8235C163.837 65.7213 164.238 65.2024 164.706 64.4818C164.794 64.3452 164.884 64.198 164.977 64.0475C165.477 63.2279 165.989 62.227 166.231 61.2785C166.247 61.2132 166.263 61.1512 166.275 61.0857C166.275 61.0857 166.275 61.0857 166.276 61.0823C166.279 61.0791 166.279 61.0791 166.28 61.0756C166.316 60.896 166.345 60.7197 166.359 60.549C166.459 59.3756 165.968 58.3906 164.263 58.0994C164.3 58.0323 165.738 54.2929 159.693 54.3905C156.243 54.4464 154.09 55.1364 153.353 56.4423C152.564 57.8186 153.214 61.0264 154.48 61.2379Z" fill="#894852"/>
<path opacity="0.3" d="M153.022 57.8152C153.066 57.4309 153.136 57.119 153.322 56.794C154.06 55.4883 156.212 54.7982 159.662 54.7424C163.814 54.675 164.436 56.4202 164.404 57.5394C164.56 56.486 164.313 54.3144 159.692 54.3906C156.242 54.4465 154.089 55.1365 153.352 56.4424C153.115 56.8552 153.048 57.3291 153.022 57.8152Z" fill="white"/>
<path d="M159.331 64.0877C159.718 64.3538 159.723 63.6669 159.159 63.1321C158.144 62.1692 156.492 62.3626 156.568 63.0748C156.607 63.4466 156.983 63.3522 157.241 63.3445C158.205 63.3165 158.548 63.5493 159.331 64.0877Z" fill="#894852"/>
<path d="M155.665 62.4882C155.348 62.237 154.718 62.025 154.053 62.109C153.859 62.1336 153.711 62.2957 153.705 62.4908C153.697 62.7141 153.876 62.8949 154.099 62.8955C155.122 62.8979 155.622 63.6423 155.886 63.1461C155.98 62.9698 155.939 62.7051 155.665 62.4882Z" fill="#894852"/>
<path d="M155.519 66.0069C155.667 66.1616 155.912 66.1451 156.109 66.0352C156.279 65.938 156.421 65.7644 156.522 65.5575C156.538 65.5199 156.514 65.4822 156.483 65.4947C156.363 65.542 156.149 65.8445 155.704 65.726C155.593 65.6936 155.493 65.3933 155.392 65.4331C155.256 65.4882 155.344 65.8231 155.519 66.0069Z" fill="#E17659"/>
<path d="M162.849 64.4979C162.936 64.2316 163.069 64.0193 163.242 63.867C163.447 63.6878 163.712 63.6033 163.951 63.6413C164.071 63.66 164.192 63.7094 164.31 63.7877C164.334 63.8032 164.34 63.835 164.324 63.8586C164.308 63.8827 164.276 63.8888 164.253 63.8736C164.147 63.8037 164.04 63.7597 163.934 63.7427C163.725 63.7093 163.492 63.7846 163.31 63.944C163.154 64.0804 163.035 64.273 162.954 64.5124C163.018 64.4698 163.089 64.4385 163.167 64.4334C163.315 64.4238 163.498 64.4952 163.565 64.569C163.612 64.6214 163.628 64.6925 163.607 64.7512C163.597 64.7768 163.57 64.7905 163.543 64.7826C163.543 64.7825 163.542 64.7822 163.541 64.7819C163.514 64.7724 163.501 64.743 163.51 64.7161C163.519 64.6934 163.51 64.6619 163.489 64.6379C163.449 64.594 163.298 64.5281 163.173 64.5361C163.074 64.5423 162.977 64.596 162.919 64.6761C162.917 64.6792 162.913 64.677 162.91 64.6794C162.865 64.8576 162.835 65.0404 162.813 65.2286C162.805 65.2965 162.702 65.2851 162.711 65.217" fill="#E17659"/>
<path d="M157.873 64.3863C157.858 64.5623 157.703 64.6919 157.527 64.6782C157.354 64.6646 157.223 64.5125 157.237 64.3365C157.273 63.9155 157.908 63.9692 157.873 64.3863Z" fill="#111D33"/>
<path d="M156.928 64.2584C157.146 64.2122 157.365 64.1689 157.581 64.115L157.518 64.1079C157.663 64.2065 157.797 64.3218 157.945 64.4159C158.098 64.5005 158.261 64.569 158.449 64.5956C158.456 64.5965 158.462 64.5919 158.463 64.5851C158.464 64.5818 158.463 64.5784 158.461 64.576C158.201 64.2139 157.875 64.1255 157.598 63.9773L157.589 63.9728C157.539 63.9457 157.484 63.9867 156.921 64.2366C156.915 64.2391 156.912 64.246 156.915 64.2518C156.917 64.257 156.923 64.2594 156.928 64.2584Z" fill="#111D33"/>
<path d="M155.019 64.1195C155.004 64.2955 154.849 64.4251 154.673 64.4113C154.5 64.3977 154.369 64.2457 154.384 64.0698C154.399 63.8937 154.554 63.764 154.727 63.7776C154.903 63.7914 155.034 63.9435 155.019 64.1195Z" fill="#111D33"/>
<path d="M154.696 64.1592C154.692 64.2051 154.652 64.239 154.606 64.2354C154.561 64.2319 154.527 64.1921 154.531 64.1462C154.534 64.1004 154.575 64.0665 154.62 64.0701C154.666 64.0737 154.7 64.1134 154.696 64.1592Z" fill="#FBFBFB"/>
<path d="M157.515 64.3799C157.511 64.4258 157.47 64.4597 157.425 64.4561C157.379 64.4526 157.345 64.4128 157.349 64.3669C157.353 64.3211 157.393 64.2872 157.439 64.2908C157.484 64.2944 157.519 64.3341 157.515 64.3799Z" fill="#FBFBFB"/>
<path d="M154.074 63.9917C154.292 63.9456 154.511 63.9023 154.727 63.8485L154.664 63.8412C154.809 63.9399 154.944 64.0552 155.091 64.1493C155.244 64.2338 155.407 64.3023 155.596 64.329C155.602 64.33 155.609 64.3254 155.61 64.3184C155.61 64.315 155.609 64.3119 155.608 64.3093C155.497 64.1549 155.361 64.0424 155.215 63.9457C155.142 63.9041 154.773 63.7234 154.736 63.7063C154.718 63.6969 154.698 63.6966 154.681 63.7032C154.475 63.7862 154.272 63.8794 154.067 63.9699C154.062 63.9726 154.059 63.9793 154.061 63.9852C154.064 63.9903 154.069 63.9929 154.074 63.9917Z" fill="#111D33"/>
<path d="M154.481 61.238C155.703 61.4424 156.23 59.5209 159.334 60.1601C159.778 60.251 160.059 60.4903 160.025 61.1395C159.967 62.3197 160.635 62.5685 161.232 62.8813C161.825 63.1944 160.854 65.1092 161.425 65.3573C161.722 65.489 162.217 64.3116 162.217 64.3116C162.217 64.3116 162.859 62.4026 163.899 62.8169C164.81 63.1826 164.347 64.8463 163.756 65.8236C163.838 65.7215 164.239 65.2026 164.707 64.4819C164.764 63.9677 165.208 63.5223 165.168 63.0006C165.126 62.4714 164.578 62.113 164.048 62.0471C163.521 61.9812 162.991 62.1219 162.46 62.1573C161.931 62.1967 161.334 62.1007 161.005 61.6824C160.625 61.2005 160.749 60.4916 160.535 59.9141C160.25 59.1487 159.4 58.7176 158.582 58.6675C156.953 58.5609 155.449 59.6408 154.292 59.0851C153.737 58.8207 153.407 58.2131 153.311 57.6027C153.264 57.2906 153.347 56.8485 153.354 56.4424C152.565 57.8187 153.215 61.0265 154.481 61.238Z" fill="#51383C"/>
<path d="M162.923 58.587C163.022 58.5351 164.143 57.9885 165.214 58.5772C166.301 59.1776 166.278 60.9739 166.276 61.0824C166.28 61.0792 166.28 61.0792 166.28 61.0757C166.316 60.8961 166.345 60.7198 166.36 60.5491C166.459 59.3757 165.969 58.3907 164.264 58.0996C164.264 58.0996 163.662 58.0104 162.923 58.587Z" fill="#51383C"/>
<path d="M156.503 67.1909C155.924 67.3483 155.394 67.3223 154.928 67.0633C154.853 67.0212 154.765 67.0955 154.786 67.1795C154.856 67.4623 155.042 67.9102 155.522 67.9827C155.984 68.0526 156.391 67.6321 156.608 67.3488C156.666 67.2724 156.596 67.1657 156.503 67.1909Z" fill="#E17659"/>
<path d="M188.45 102.982L188.089 107.234C188.046 107.744 187.599 108.124 187.09 108.085L102.12 101.429C101.611 101.389 101.233 100.944 101.277 100.434L101.637 96.1825C101.68 95.6729 102.128 95.2922 102.637 95.3321L187.606 101.987C188.115 102.027 188.493 102.473 188.45 102.982Z" fill="#BE7D5A"/>
<path d="M188.451 102.982L188.09 107.234C188.047 107.744 187.599 108.125 187.09 108.085L161.85 106.108C161.446 106.076 161.146 105.723 161.18 105.318L161.573 100.685C161.607 100.281 161.963 99.9789 162.367 100.011L187.607 101.988C188.116 102.027 188.494 102.473 188.451 102.982Z" fill="#A96256"/>
<path d="M183.555 107.807L179.813 107.514L176.222 149.872L179.964 150.165L183.555 107.807Z" fill="#BE7D5A"/>
<path d="M181.39 107.638L179.813 107.514L176.222 149.872L177.799 149.996L181.39 107.638Z" fill="#A96256"/>
<path d="M170 106.746L166.258 106.453L162.667 148.811L166.409 149.104L170 106.746Z" fill="#BE7D5A"/>
<path d="M167.835 106.577L166.258 106.453L162.667 148.811L164.244 148.934L167.835 106.577Z" fill="#A96256"/>
<path d="M115.44 94.5221L109.636 78.8746C109.302 77.9739 110.017 77.0235 110.973 77.0984L136.517 79.0992C137.349 79.1643 138.064 79.7057 138.355 80.489L145.094 98.6573L118.114 96.5441C116.904 96.4494 115.863 95.6618 115.44 94.5221Z" fill="#F2F0FB"/>
<path d="M114.54 92.0961L115.439 94.5215C115.861 95.6606 116.902 96.4494 118.112 96.5441L145.092 98.6573L143.532 94.4498C134.807 97.1693 122.685 96.2157 114.54 92.0961Z" fill="#CFCDF1"/>
<path d="M136.52 79.0979C137.351 79.163 138.067 79.7035 138.358 80.4885L145.097 98.657L158.658 99.7192L158.694 99.2876C158.798 98.0634 157.893 96.9881 156.672 96.8924L145.6 96.0252L139.883 80.6079C139.591 79.8228 138.875 79.2824 138.044 79.2173L136.52 79.0979Z" fill="url(#paint6_linear_61_3125)"/>
<path d="M124.044 87.4979C124.313 88.6699 125.508 89.6988 126.714 89.7932C127.92 89.8877 128.677 89.0117 128.407 87.8397C128.137 86.6654 126.942 85.6366 125.736 85.5421C124.53 85.4477 123.773 86.3236 124.044 87.4979Z" fill="#4C5C75"/>
<path d="M125.007 87.5729C125.157 88.2275 125.825 88.8021 126.498 88.8548C127.172 88.9076 127.594 88.4184 127.444 87.7638C127.293 87.108 126.625 86.5335 125.952 86.4807C125.279 86.428 124.856 86.9172 125.007 87.5729Z" fill="white"/>
<path d="M123.986 103.142L120.245 102.849L116.653 145.206L120.395 145.5L123.986 103.142Z" fill="#BE7D5A"/>
<path d="M121.822 102.972L120.245 102.849L116.653 145.206L118.231 145.33L121.822 102.972Z" fill="#A96256"/>
<path d="M110.434 102.08L106.692 101.787L103.101 144.145L106.842 144.438L110.434 102.08Z" fill="#BE7D5A"/>
<path d="M108.269 101.911L106.692 101.787L103.101 144.145L104.678 144.268L108.269 101.911Z" fill="#A96256"/>
<path d="M45.388 35.899C45.1702 36.5783 44.6601 37.0207 44.2478 36.8908C43.8356 36.7609 43.6767 36.1077 43.8946 35.4284C44.1125 34.749 44.6233 34.3043 45.0356 34.4342C45.4478 34.5641 45.6059 35.2196 45.388 35.899Z" fill="#497BFD"/>
<path d="M28.8204 136.347C28.1007 134.614 27.5736 135.043 25.3639 134.87C24.1953 134.778 23.9364 133.942 23.9496 133.173L18.4369 132.589C17.6152 133.707 17.0552 135.999 16.9427 137.451C16.8881 138.155 17.4141 138.763 18.1169 138.818L27.2875 139.537C27.7692 139.574 28.2292 139.338 28.4878 138.927C28.8676 138.325 29.2472 137.376 28.8204 136.347Z" fill="#F45170"/>
<path d="M20.4688 139.002L18.1157 138.817C17.4124 138.762 16.8873 138.153 16.947 137.448C17.0527 135.995 17.6141 133.703 18.4343 132.586L20.7467 132.837C19.9424 133.973 19.4035 136.206 19.2913 137.632C19.2403 138.337 19.7656 138.947 20.4688 139.002Z" fill="#D12057"/>
<path d="M28.9221 137.922C28.825 138.311 28.6583 138.656 28.487 138.927C28.2283 139.338 27.7684 139.574 27.2865 139.537L18.116 138.818C17.4132 138.763 16.8871 138.155 16.9417 137.451C16.953 137.306 16.9719 137.148 16.9919 136.988L28.9221 137.922Z" fill="#D12057"/>
<path d="M53.3368 137.94C52.5462 136.036 50.5235 136.394 48.096 136.204C46.8122 136.104 46.5279 135.185 46.542 134.34L41.9294 133.811C41.0267 135.04 40.4114 137.558 40.2881 139.153C40.228 139.926 40.8057 140.595 41.5779 140.655L51.653 141.444C52.1822 141.486 52.6876 141.226 52.9719 140.775C53.3888 140.113 53.8058 139.07 53.3368 137.94Z" fill="#F45170"/>
<path d="M44.554 140.887L41.5778 140.654C40.8051 140.594 40.2281 139.924 40.2841 139.149C40.4098 137.553 41.0267 135.035 41.9277 133.809L44.8283 134.141C43.9725 135.401 43.383 137.825 43.2699 139.383C43.2044 140.157 43.7814 140.827 44.554 140.887Z" fill="#D12057"/>
<path d="M53.4492 139.671C53.3425 140.097 53.1592 140.476 52.9713 140.775C52.6871 141.226 52.1817 141.486 51.6523 141.444L41.5774 140.655C40.8052 140.594 40.2275 139.926 40.2876 139.153C40.2997 138.993 40.3204 138.82 40.3424 138.644L53.4492 139.671Z" fill="#D12057"/>
<path d="M40.307 134.176C39.7325 127.646 38.1345 122.248 36.6705 116.168L36.671 116.161C35.7856 112.482 34.9492 108.55 34.4181 103.956C32.2757 111.348 27.7231 123.574 25.2214 131.366C25.2122 131.393 25.211 131.407 25.1949 131.433C25.0429 131.92 24.8915 132.4 24.7561 132.854C24.3559 134.146 20.5278 134.234 18.455 133.538C18.3806 133.518 18.3135 133.493 18.2403 133.459C18.0862 133.399 17.9396 133.332 17.8143 133.259C17.3247 132.993 17.0484 132.659 17.1447 132.258C17.1614 132.224 17.1638 132.197 17.1735 132.163C18.2607 127.585 19.3856 120.44 20.2877 113.963C21.3925 106.075 22.1697 99.1933 22.1697 99.1933C22.1697 99.1933 20.988 87.6614 23.2292 76.7374C23.3759 75.9867 23.55 75.2384 23.7312 74.4904L44.366 75.8502L46.1211 75.9671C46.1211 75.9671 46.1284 76.0437 46.158 76.1847C46.1784 76.3525 46.2187 76.612 46.2588 76.9545C46.29 77.1579 46.3195 77.3822 46.3529 77.6409C46.3727 77.8156 46.3919 77.9975 46.4168 78.1933C46.4208 78.2284 46.4242 78.2703 46.435 78.3057C46.4796 78.7595 46.5401 79.27 46.6097 79.8366C47.1161 84.477 47.7844 92.6772 47.3042 100.871C47.077 104.858 46.8939 108.405 46.8051 111.821C46.6073 119.052 46.8286 125.666 47.9142 134.578C48.1484 136.55 40.4782 136.157 40.307 134.176Z" fill="#4C5C75"/>
<path d="M34.414 103.957C34.414 103.957 37.1602 93.689 37.403 87.0704L36.667 116.161C35.7814 112.482 34.9451 108.55 34.414 103.957Z" fill="#111D33"/>
<path d="M46.3529 77.6409C46.0548 78.0543 45.738 78.4453 45.3708 78.6936C41.7838 81.0861 37.449 79.673 33.5851 79.4123C31.0319 79.24 28.2309 79.6235 26.4099 81.4278C24.264 83.5532 24.126 86.8957 24.0509 89.9038C23.7527 102.4 22.3212 114.877 19.7799 127.136C19.3458 129.236 18.8365 131.406 17.8143 133.259C17.3247 132.993 17.0484 132.659 17.1447 132.258C17.1614 132.224 17.1638 132.197 17.1735 132.163C18.2607 127.585 19.3856 120.44 20.2877 113.963C21.3925 106.075 22.1697 99.1933 22.1697 99.1933C22.1697 99.1933 20.988 87.6614 23.2292 76.7374C23.3759 75.9867 23.55 75.2384 23.7312 74.4904L44.366 75.8502L46.1211 75.9671C46.1211 75.9671 46.1284 76.0437 46.158 76.1847C46.1784 76.3525 46.2187 76.612 46.2588 76.9545C46.29 77.1579 46.3195 77.3822 46.3529 77.6409Z" fill="#111D33"/>
<path d="M11.268 93.6321L10.4963 102.735C10.3631 104.306 11.5279 105.68 13.0982 105.803L34.4665 107.477C36.0368 107.6 37.4177 106.426 37.551 104.854L38.3227 95.7512L11.268 93.6321Z" fill="#BB6542"/>
<path d="M10.5317 102.311L10.4958 102.734C10.3626 104.306 11.5274 105.68 13.0978 105.803L34.466 107.477C36.0363 107.6 37.4173 106.426 37.5505 104.854L37.5864 104.43C37.4531 106.002 36.0722 107.177 34.5019 107.054L13.1336 105.38C11.5633 105.257 10.3984 103.883 10.5317 102.311Z" fill="#A44C30"/>
<path d="M11.268 93.6321L10.9683 97.1676C11.4927 97.7343 12.2173 98.1064 13.0468 98.1714L35.7975 99.9534C36.6271 100.018 37.4048 99.7639 38.0229 99.2867L38.3227 95.7512L11.268 93.6321Z" fill="#A44C30"/>
<path d="M10.5702 89.2507L10.1872 93.768C10.0367 95.5435 11.3543 97.0977 13.1281 97.2366L35.8788 99.0186C37.6525 99.1575 39.2146 97.8289 39.3652 96.0534L39.7481 91.5361C39.892 89.8389 38.6364 88.3579 36.9462 88.2255L13.898 86.4202C12.2025 86.2874 10.7141 87.5535 10.5702 89.2507Z" fill="#BB6542"/>
<path opacity="0.2" d="M10.5702 89.2507L10.4905 90.1906C10.6344 88.4934 12.1233 87.2222 13.8188 87.355L36.8669 89.1603C38.5572 89.2927 39.8123 90.7787 39.6684 92.476L39.7481 91.5361C39.892 89.8389 38.6364 88.3579 36.9462 88.2255L13.898 86.4202C12.2025 86.2874 10.7141 87.5535 10.5702 89.2507Z" fill="white"/>
<path d="M32.8442 87.9043L31.771 100.563C31.693 101.482 32.3758 102.288 33.2939 102.359C34.212 102.431 35.0266 101.743 35.1045 100.824L36.1777 88.1654L32.8442 87.9043Z" fill="#A44C30"/>
<path d="M14.6626 86.4803L13.5893 99.1393C13.5114 100.058 14.1941 100.864 15.1122 100.935C16.0304 101.007 16.8397 100.319 16.9177 99.4L17.9909 86.741L14.6626 86.4803Z" fill="#A44C30"/>
<path d="M31.6709 99.6353C31.2539 99.6026 30.9433 99.2364 30.9788 98.8187L31.2143 96.0403C31.2497 95.6232 31.6178 95.3101 32.0348 95.3427L32.9864 95.4173C33.096 94.9961 33.496 94.6999 33.9428 94.7349C34.3896 94.7699 34.7344 95.1245 34.7716 95.5571L35.7284 95.632C36.1425 95.6645 36.4507 96.0305 36.4154 96.4477L36.1798 99.2261C36.1444 99.6438 35.7786 99.9571 35.3644 99.9246L31.6709 99.6353ZM34.5897 98.2535L34.6828 97.1549L34.6497 97.1523L34.6355 97.3196C34.5931 97.8194 34.1523 98.1946 33.6528 98.1554C33.1533 98.1163 32.7815 97.6775 32.8239 97.1777L32.8381 97.0104L32.805 97.0078L32.7118 98.1064L34.5897 98.2535Z" fill="#A44C30"/>
<path d="M13.4892 98.2112C13.0722 98.1786 12.7617 97.8123 12.7971 97.3947L13.0327 94.6162C13.068 94.1991 13.4361 93.886 13.8531 93.9187L14.8048 93.9932C14.9143 93.5721 15.3143 93.2759 15.7611 93.3109C16.2079 93.3459 16.5527 93.7004 16.5899 94.133L17.5467 94.208C17.9611 94.2404 18.2693 94.6065 18.234 95.0236L17.9984 97.8021C17.963 98.2198 17.5972 98.533 17.1827 98.5005L13.4892 98.2112ZM16.408 96.8294L16.5012 95.7308L16.468 95.7282L16.4538 95.8956C16.4114 96.3953 15.9706 96.7705 15.4711 96.7314C14.9716 96.6922 14.5998 96.2534 14.6422 95.7537L14.6564 95.5864L14.6233 95.5838L14.5301 96.6823L16.408 96.8294Z" fill="#A44C30"/>
<path d="M21.6594 89.9864L21.3957 93.0967C21.3821 93.2574 21.5012 93.3978 21.6616 93.4104L28.1007 93.9147C28.2613 93.9273 28.4023 93.8073 28.416 93.6466L28.6797 90.5363C28.6933 90.3757 28.5743 90.2352 28.4138 90.2227L21.9746 89.7183C21.8141 89.7057 21.673 89.8258 21.6594 89.9864Z" fill="#A44C30"/>
<path d="M21.6593 89.988L21.6579 90.0035L27.9913 90.4996C28.153 90.5123 28.2723 90.6531 28.259 90.8098L27.9965 93.9066L28.1008 93.9147C28.2625 93.9274 28.404 93.8071 28.4177 93.6453L28.6812 90.5381C28.6949 90.3761 28.5755 90.2353 28.4138 90.2227L21.9762 89.7184C21.8145 89.7057 21.673 89.8261 21.6593 89.988Z" fill="#812D1C"/>
<path d="M28.7735 86.7175L28.7004 87.5798L32.6965 87.8928L32.7697 87.0305C32.7957 86.7227 32.5677 86.4536 32.2602 86.4296L29.3775 86.2038C29.07 86.1797 28.7996 86.4097 28.7735 86.7175Z" fill="#A44C30"/>
<path d="M18.672 85.9262L18.5988 86.7886L22.595 87.1016L22.6681 86.2392C22.6942 85.9314 22.4661 85.6624 22.1587 85.6383L19.276 85.4125C18.9685 85.3884 18.6981 85.6184 18.672 85.9262Z" fill="#A44C30"/>
<path d="M32.7212 87.6026L28.7251 87.2896L28.7005 87.5798L32.6966 87.8928L32.7212 87.6026Z" fill="#812D1C"/>
<path d="M22.6216 86.8114L18.6255 86.4984L18.6009 86.7886L22.597 87.1016L22.6216 86.8114Z" fill="#812D1C"/>
<path d="M20.0626 85.474L21.3668 85.5762L21.4832 84.2043C21.509 83.8998 21.7773 83.6719 22.0811 83.6957L29.852 84.3043C30.1559 84.3281 30.3822 84.5948 30.3564 84.8993L30.2401 86.2712L31.5443 86.3734L31.6607 85.0015C31.7475 83.9774 30.9857 83.0789 29.9627 82.9987L22.1918 82.3901C21.1688 82.31 20.2657 83.0781 20.1789 84.1021L20.0626 85.474Z" fill="#BB6542"/>
<path d="M33.3826 87.7662L32.2942 100.603C32.2406 101.235 32.7091 101.788 33.3406 101.837C33.9721 101.887 34.5275 101.414 34.5811 100.782L35.6694 87.9453C35.6849 87.7626 35.5495 87.603 35.367 87.5887L33.7411 87.4613C33.5585 87.447 33.3981 87.5835 33.3826 87.7662Z" fill="#812D1C"/>
<path d="M15.199 86.3421L14.1106 99.1791C14.0571 99.8112 14.5255 100.364 15.157 100.413C15.7885 100.463 16.3439 99.9903 16.3975 99.3582L17.4858 86.5212C17.5013 86.3385 17.3659 86.1789 17.1834 86.1646L15.5575 86.0372C15.3749 86.0229 15.2145 86.1595 15.199 86.3421Z" fill="#812D1C"/>
<path d="M31.7312 96.0813L31.4957 98.8596C31.4846 98.9902 31.5801 99.1028 31.7105 99.113L35.4041 99.4023C35.5293 99.4121 35.6425 99.3159 35.6535 99.1853L35.8891 96.407C35.9002 96.2764 35.8047 96.1639 35.6795 96.1541L34.2142 96.0393L34.2453 95.6717C34.2633 95.4594 34.106 95.2738 33.8938 95.2572C33.6817 95.2406 33.4952 95.3992 33.4772 95.6115L33.446 95.9791L31.9859 95.8648C31.8555 95.8545 31.7423 95.9508 31.7312 96.0813ZM32.3095 96.6023C32.317 96.5143 32.3922 96.4502 32.4755 96.4567L33.3994 96.5291L33.3409 97.2188C33.3229 97.4311 33.4803 97.6167 33.6924 97.6333C33.9046 97.65 34.0911 97.4912 34.1091 97.2789L34.1676 96.5893L35.0916 96.6616C35.1748 96.6682 35.2383 96.7431 35.2308 96.8311L35.0754 98.6639C35.068 98.7518 34.9931 98.8111 34.9099 98.8045L32.2938 98.5996C32.2105 98.5931 32.1467 98.523 32.1541 98.4351L32.3095 96.6023Z" fill="#DB910F"/>
<path d="M13.5515 94.6572L13.316 97.4356C13.3049 97.5661 13.4004 97.6787 13.5308 97.6889L17.2244 97.9782C17.3496 97.988 17.4627 97.8918 17.4738 97.7612L17.7094 94.9829C17.7204 94.8523 17.625 94.7398 17.4998 94.73L16.0344 94.6152L16.0656 94.2476C16.0836 94.0353 15.9263 93.8497 15.7141 93.8331C15.502 93.8165 15.3155 93.9751 15.2975 94.1874L15.2663 94.555L13.8062 94.4407C13.6758 94.4305 13.5626 94.5267 13.5515 94.6572ZM14.1298 95.1782C14.1372 95.0902 14.2125 95.0261 14.2957 95.0327L15.2197 95.105L15.1612 95.7947C15.1432 96.007 15.3006 96.1927 15.5127 96.2093C15.7249 96.2259 15.9114 96.0672 15.9294 95.8548L15.9879 95.1652L16.9119 95.2376C16.9951 95.2441 17.0586 95.319 17.0511 95.407L16.8958 97.2398C16.8883 97.3278 16.8134 97.387 16.7302 97.3805L14.114 97.1756C14.0309 97.169 13.9669 97.0989 13.9744 97.011L14.1298 95.1782Z" fill="#DB910F"/>
<path d="M59.921 67.0319C59.9072 67.1034 59.0179 71.7026 59.0678 71.4444C59.0678 71.4444 46.6673 70.8139 45.6007 68.7286C44.2079 66.0072 44.8934 55.7266 44.8934 55.7266L50.8128 55.2668C51.3401 68.1763 51.1707 64.0296 51.2132 65.0695L59.921 67.0319Z" fill="#F7A386"/>
<path d="M59.3005 70.2416L59.0678 71.4444C59.0678 71.4444 46.6673 70.8139 45.6007 68.7286C44.2079 66.0072 44.8934 55.7266 44.8934 55.7266L50.8128 55.2668L50.9193 57.8873C49.7399 58.2193 48.3879 58.0864 47.3325 58.7639C45.9411 59.669 45.5693 61.7023 46.7411 63.2644C47.2142 63.8961 47.9046 64.394 48.17 65.1402C48.5572 66.225 48.0094 67.6884 48.8889 68.4312C49.7055 69.1216 50.9897 68.5006 52.0216 68.7996C52.7442 69.0106 53.256 69.6534 53.9237 69.9989C55.6115 70.8649 57.5931 69.7367 59.3005 70.2416Z" fill="url(#paint7_linear_61_3125)"/>
<path d="M46.3911 76.1241C46.2383 76.4214 46.0289 76.6739 45.7518 76.8538C41.5543 79.6308 25.2291 78.2109 21.3561 74.943C19.019 72.9651 23.5293 65.9441 23.7891 62.8789C23.9744 60.6146 22.9745 56.8053 22.0176 53.1205C20.8751 48.7759 19.7929 44.5905 20.815 43.306C22.2589 41.483 28.0695 40.6676 32.4481 40.5064C34.982 40.4224 37.6605 40.5064 41.5065 41.384C45.3063 42.2664 49.0845 43.88 48.7367 46.6357C48.2589 50.4501 44.9057 59.9819 45.0761 64.5462C45.1853 67.2975 47.6999 73.5982 46.3911 76.1241Z" fill="#F45170"/>
<path d="M46.3943 76.1243C46.2384 76.4214 46.0272 76.6704 45.7545 76.8511C41.5511 79.6296 25.23 78.2086 21.3572 74.9401C19.0219 72.9655 23.5299 65.9415 23.7896 62.8777C23.9777 60.6131 22.9736 56.8083 22.015 53.1221C23.3671 52.6809 25.0151 53.6067 25.4433 54.9564C25.6876 55.7167 25.3134 56.7221 25.317 57.5191C25.32 58.6055 25.4973 59.6897 25.8544 60.7086C26.1371 61.5316 26.5365 62.3318 26.5857 63.1999C26.6625 64.629 25.793 65.9167 25.1534 67.2024C24.5176 68.4885 24.1417 70.1676 25.0676 71.2509C25.835 72.1475 27.1728 72.2482 28.3555 72.1704C29.5379 72.0965 30.7997 71.9259 31.8418 72.4792C32.933 73.0602 33.4911 74.2773 34.2859 75.2235C35.7181 76.9213 38.1065 77.7545 40.2979 77.3157C41.5832 77.0555 42.7632 76.4028 44.0364 76.0982C44.8041 75.9165 45.6576 75.8922 46.3943 76.1243Z" fill="#DF3260"/>
<path d="M48.487 45.1244C49.1225 46.0665 51.8642 53.838 51.2148 55.6532C50.539 57.5426 45.2828 59.0017 43.5486 58.0132C42.0388 57.1527 41.9413 51.2383 41.9413 51.2383C41.9413 51.2383 47.158 43.1543 48.487 45.1244Z" fill="#F45170"/>
<path d="M26.7108 79.457L23.2277 80.906L22.1002 81.3608C22.1002 81.3608 16.0274 67.7958 15.7653 64.4414C15.5035 61.1308 16.5898 54.2034 17.598 50.9051L24.7966 52.7335L23.7748 57.7313L22.2482 65.183L26.7108 79.457Z" fill="#F7A386"/>
<path d="M21.9668 80.9464C21.907 82.709 22.2618 83.7237 22.6237 84.29C22.9445 84.8158 23.9084 86.3657 24.5711 86.2494C24.996 86.1744 24.5388 84.8972 24.6864 84.7521C24.7445 85.5631 25.3716 86.5475 25.7707 86.4416C26.1757 86.3348 25.899 85.1384 26.0466 84.9933C26.0637 85.3462 26.3349 86.5257 26.9808 86.4757C27.5825 86.4291 26.9242 84.7732 27.0776 84.6293C27.0947 84.9818 27.6481 86.4886 28.1171 86.4629C29.1488 86.4064 27.8576 82.4692 27.8576 82.4692C27.8576 82.4692 29.45 83.127 29.9398 82.7168C30.825 81.9755 27.8685 80.1277 26.7103 79.4572L21.9668 80.9464Z" fill="#F7A386"/>
<path d="M22.1002 81.3609C22.1002 81.3609 16.0274 67.7959 15.7653 64.4415C15.5035 61.1309 16.5898 54.2035 17.598 50.9052L24.7966 52.7336L23.7748 57.7315C23.5024 57.7696 23.2237 57.7874 22.9315 57.7763C22.0946 57.7465 21.4417 57.2276 20.6236 57.0683C19.5249 56.8555 18.7616 56.7046 17.9833 57.7099C16.1645 60.0608 19.1492 62.4075 19.4371 64.7568C19.7118 66.9824 18.5152 69.045 18.365 71.2373C18.318 71.9788 18.9474 72.4483 19.379 73.0094C19.7932 73.5414 20.2557 74.0176 20.6484 74.5715C21.5146 75.7968 20.918 77.9303 22.0134 78.9756C22.42 79.3642 22.1002 81.3609 22.1002 81.3609Z" fill="url(#paint8_linear_61_3125)"/>
<path d="M20.8163 43.3069C20.0305 44.1377 16.4494 50.7944 16.7844 52.6866C17.1331 54.6562 22.0742 56.9141 23.952 56.2086C25.5867 55.5943 26.6793 49.7732 26.6793 49.7732C26.6793 49.7732 22.4597 41.5695 20.8163 43.3069Z" fill="#F45170"/>
<path d="M41.5055 41.384L41.501 41.4374L38.1662 48.4772C38.0827 48.6534 37.8394 48.6717 37.7325 48.5099L32.4472 40.5064C34.9811 40.4225 37.6596 40.5064 41.5055 41.384Z" fill="#DF3260"/>
<path d="M40.6742 35.3554L40.1877 41.093C40.1557 41.1606 37.5803 46.5885 37.7432 46.2451L33.7729 40.7173L34.27 34.8538L40.6742 35.3554Z" fill="url(#paint9_linear_61_3125)"/>
<path d="M37.9577 45.7943L37.7446 46.2453L33.7742 40.7175L34.2778 34.7778L36.8701 34.9809C37.26 36.4266 36.0111 37.5752 36.5376 38.2965C36.7401 38.57 37.119 38.6314 37.4085 38.8126C37.8674 39.0985 38.0718 39.6774 38.0614 40.2197C38.0327 41.3125 37.2806 42.2817 37.2914 43.3701C37.3037 44.2251 37.8072 45.068 37.9577 45.7943Z" fill="url(#paint10_linear_61_3125)"/>
<path d="M46.9605 30.7533C46.9605 30.7533 44.7923 42.8109 40.6807 41.5713C38.6319 40.9536 37.0211 39.4242 35.9205 38.0451C34.5664 36.3483 33.8419 34.2064 34.0849 32.0402C34.2152 30.8779 34.6179 29.8736 35.6282 29.9176C37.6899 30.0075 36.99 32.131 36.99 32.131C36.99 32.131 38.3049 25.6047 41.1125 25.5371C43.92 25.4694 47.0306 28.0958 46.9605 30.7533Z" fill="url(#paint11_linear_61_3125)"/>
<path d="M47.5011 32.7055C44.7462 34.6541 40.6041 27.9754 40.6041 27.9754C40.7965 31.8713 38.2221 30.8489 38.2221 30.8489C38.2221 30.8489 37.7482 32.8415 37.4287 33.4349C36.9592 34.3018 36.5198 34.1129 36.7401 32.8219C36.7401 32.8219 37.4504 30.1424 35.7961 30.0842C33.9645 30.0161 34.0856 33.5853 34.0915 33.7957C33.4706 31.2262 33.2002 27.8848 34.2141 25.4372C34.4684 24.819 34.7655 24.3982 35.082 24.1216C36.4477 22.9127 38.1315 24.444 38.1315 24.444C38.1315 24.444 38.1319 24.4399 38.1322 24.4361C38.1583 24.2676 38.5863 21.8354 42.1361 22.609C46.3043 23.5224 50.2672 30.7527 47.5011 32.7055Z" fill="#4C5C75"/>
<path d="M42.2201 36.9105C42.2027 36.8897 42.1689 36.9082 42.1668 36.9412C42.1549 37.1335 42.1896 37.3206 42.2749 37.4595C42.3734 37.6196 42.5468 37.7313 42.7194 37.6771C42.9255 37.6123 43.1291 37.3992 43.0499 37.304C42.9925 37.235 42.7943 37.4162 42.7004 37.3938C42.3211 37.3037 42.289 36.9933 42.2201 36.9105Z" fill="#E27659"/>
<path d="M41.0061 35.0501C40.9415 35.238 41.0426 35.4401 41.2302 35.5035C41.415 35.5659 41.6193 35.467 41.6839 35.2791C41.7485 35.091 41.6474 34.889 41.4626 34.8265C41.2751 34.7632 41.0707 34.862 41.0061 35.0501Z" fill="#111D33"/>
<path d="M42.0531 35.3345C42.0485 35.3367 42.0405 35.3378 42.0371 35.3367C41.8443 35.199 41.6571 35.067 41.469 34.9269C41.1562 34.9899 40.7972 35.1384 40.3157 35.0111C40.3088 35.0088 40.3032 35.003 40.3067 34.9929C40.3079 34.9894 40.3091 34.986 40.3125 34.9872C40.7398 34.7292 41.1186 34.7805 41.473 34.7486L41.4843 34.7487C41.5072 34.7488 41.5277 34.7557 41.5423 34.7683C41.7177 34.946 41.886 35.1328 42.0555 35.3161C42.0577 35.3208 42.0588 35.3287 42.0531 35.3345Z" fill="#111D33"/>
<path d="M44.0862 36.0396C44.0217 36.2276 44.1228 36.4297 44.3103 36.493C44.4951 36.5555 44.6994 36.4566 44.7639 36.2687C44.8286 36.0806 44.7275 35.8786 44.5426 35.8161C44.3551 35.7528 44.1507 35.8516 44.0862 36.0396Z" fill="#111D33"/>
<path d="M44.513 36.1841C44.4961 36.2331 44.5226 36.2859 44.5715 36.3024C44.6197 36.3187 44.673 36.2929 44.6898 36.2438C44.7067 36.1948 44.6803 36.142 44.6322 36.1258C44.5831 36.1092 44.5298 36.135 44.513 36.1841Z" fill="#FCFCFC"/>
<path d="M41.4774 35.2572C41.5939 35.2964 41.6546 35.12 41.5381 35.0805C41.4892 35.064 41.3598 35.2173 41.4774 35.2572Z" fill="#FCFCFC"/>
<path d="M45.1339 36.3215C45.128 36.3272 45.1235 36.3296 45.1179 36.3238C44.9273 36.1906 44.7333 36.0563 44.5451 35.9162C44.3609 35.9535 44.1822 36.0076 44.0003 36.038C43.8025 36.0591 43.6015 36.0562 43.3953 36.0017C43.3885 35.9994 43.384 35.9903 43.3864 35.9835C43.3875 35.9801 43.3887 35.9766 43.3934 35.9742C43.576 35.8641 43.7696 35.811 43.9618 35.7727C44.1595 35.7516 44.3594 35.7579 44.5559 35.7404L44.564 35.7393C44.588 35.736 44.6074 35.7462 44.622 35.7588C44.7973 35.9366 44.9657 36.1233 45.1351 36.3067C45.1408 36.3124 45.1384 36.3193 45.1339 36.3215Z" fill="#111D33"/>
<path d="M41.143 32.9345C41.7757 32.9663 42.4173 33.1128 42.8776 33.5642C43.3541 34.0318 42.8361 34.5771 42.3707 34.2255C42.2617 34.143 42.1706 34.0336 42.0703 33.938C41.3218 33.2259 40.4728 33.5915 40.2766 33.5634C40.1736 33.5487 40.0746 33.4735 40.0617 33.3522C40.0377 33.126 40.3467 33.054 40.48 33.0057C40.6995 32.9261 40.9257 32.9236 41.143 32.9345Z" fill="#111D33"/>
<path d="M44.1009 34.0394C43.9718 34.0553 43.823 34.104 43.7532 34.242C43.6918 34.3629 43.7191 34.515 43.7949 34.6016C43.9557 34.785 44.2385 34.7028 44.436 34.6815C45.5307 34.5636 45.709 35.6333 46.0322 35.2968C46.3262 34.9908 45.1316 33.9129 44.1009 34.0394Z" fill="#111D33"/>
<path d="M42.9243 38.8904C42.9773 38.8861 43.0195 38.9375 42.9967 38.9858C42.7941 39.4128 42.327 39.6366 41.9039 39.4936C41.4821 39.3511 41.2499 38.8882 41.3551 38.4256C41.3666 38.375 41.4303 38.3589 41.47 38.3922C41.9164 38.7661 42.4012 38.9322 42.9243 38.8904Z" fill="#E27659"/>
<path d="M36.039 31.0373C35.7713 30.7127 35.3639 30.5712 34.9171 30.7736C34.8498 30.8038 34.8952 30.9043 34.9618 30.8747C35.6006 30.5883 36.1143 31.0627 36.2282 31.7724C36.1675 31.7161 36.0975 31.6708 36.0159 31.6526C35.8121 31.6062 35.4478 31.6862 35.4905 31.9167C35.4961 31.9456 35.523 31.965 35.5521 31.961C35.5529 31.9608 35.5538 31.9607 35.5551 31.9606C35.5848 31.9547 35.6046 31.9258 35.5993 31.8957C35.5734 31.754 36.0766 31.6302 36.2357 31.9524C36.2374 31.9559 36.2425 31.9543 36.2448 31.9572C36.2596 32.1544 36.2586 32.3538 36.2483 32.5579C36.2467 32.5887 36.27 32.6142 36.3007 32.6156C36.3042 32.6157 36.3078 32.6156 36.3108 32.6151C36.3369 32.6116 36.3576 32.59 36.3588 32.5628C36.3151 32.2054 36.473 31.5668 36.039 31.0373Z" fill="#E27659"/>
<path d="M47.503 32.7055C44.7481 34.6541 40.606 27.9754 40.606 27.9754C40.7983 31.8713 38.224 30.8489 38.224 30.8489C38.224 30.8489 37.7501 32.8415 37.4306 33.4349C36.9611 34.3018 36.5217 34.1129 36.742 32.8219C36.742 32.8219 37.4523 30.1424 35.798 30.0842C33.9664 30.0161 34.0875 33.5853 34.0934 33.7957C34.0729 33.7109 33.8812 32.9825 33.7297 31.9201C34.0494 31.0616 34.8393 29.8933 35.7268 29.7099C36.1584 29.6169 36.6699 29.7956 36.8457 30.198C36.9482 30.4358 36.9245 30.7156 36.9986 30.9631C37.0724 31.2145 37.325 31.4564 37.5669 31.3605C38.1113 31.1339 37.396 30.1019 38.5592 29.9318C38.8202 29.8888 39.0923 29.9022 39.3485 29.8231C39.8775 29.6545 40.2099 29.0978 40.2841 28.5487C40.3545 27.9992 39.5334 26.8486 40.0828 26.9076C40.7934 26.9791 43.2706 28.961 44.4743 30.411C44.8624 30.8775 45.2278 31.3778 45.7392 31.6992C46.2505 32.0207 46.9587 32.1198 47.4452 31.7535C47.7071 31.5601 47.8672 31.2595 47.9687 30.9502C48.2128 30.22 48.1442 29.3942 47.8023 28.7093C47.6297 28.3629 47.4307 28.1888 47.753 27.9365C48.6286 29.8921 48.7414 31.8313 47.503 32.7055Z" fill="#111D33"/>
<path d="M59.4338 65.9772C59.8121 65.84 60.602 65.5987 61.0025 65.6226C61.6074 65.6587 62.4262 66.1305 63.3874 66.0436C64.3486 65.9567 63.5353 67.5763 61.8933 67.1556L61.8738 67.9079L58.9998 67.5363L58.5388 66.4357C58.5388 66.4357 59.1977 66.0628 59.4338 65.9772Z" fill="#E27659"/>
<path d="M69.7487 56.7519L58.0171 72.9821C57.8758 73.1777 57.6431 73.2857 57.4037 73.267L43.75 72.1975C43.5537 72.1822 43.451 71.958 43.5667 71.7979L55.2983 55.5674C55.4396 55.372 55.6723 55.264 55.9119 55.2827L69.5654 56.3522C69.7617 56.3676 69.8644 56.5917 69.7487 56.7519Z" fill="#8EB6FF"/>
<path d="M61.9165 69.4436C62.0588 70.7074 60.8704 70.4321 60.8704 70.4321C61.0143 71.3511 59.8745 71.2499 59.8745 71.2499C59.8745 71.2499 59.6254 71.8526 59.0862 71.8144C58.7518 71.7882 58.4936 71.657 58.2965 71.5068C57.9883 71.2647 57.8468 70.9722 57.8468 70.9722C56.8141 69.2343 56.552 68.2624 56.903 67.9053C57.2367 67.5667 57.533 68.2282 57.5588 68.2975C57.5333 68.2243 57.2202 67.3872 57.5959 67.1588C57.9674 66.9344 58.2446 67.4952 58.2714 67.5528C58.245 67.4911 57.9271 66.7092 58.39 66.5273C58.8568 66.3459 59.2642 67.3332 59.2642 67.3332C59.2787 66.4146 59.8673 66.5242 60.0425 66.7005C60.5714 67.2289 61.3938 67.8384 61.7698 67.4381L61.9459 67.1825C61.9459 67.1825 62.4748 67.8106 62.5871 68.0732C63.0161 69.0858 61.9165 69.4436 61.9165 69.4436Z" fill="#F7A386"/>
<path d="M59.2715 67.3317C59.4821 68.035 59.8438 68.3155 60.3379 68.6332L60.3344 68.6446C59.7163 68.5736 59.359 67.8938 59.26 67.334L59.2715 67.3317Z" fill="#E27659"/>
<path d="M58.26 67.5077C58.4391 68.2325 58.8153 68.7092 59.3114 68.9842L59.3078 68.9956C58.6705 68.9192 58.3336 68.1357 58.2483 67.5097L58.26 67.5077Z" fill="#E27659"/>
<path d="M57.5354 68.1928C57.7142 68.916 58.0895 69.3937 58.5868 69.6693L58.5833 69.6807C57.9453 69.604 57.6087 68.8194 57.5237 68.1947L57.5354 68.1928Z" fill="#E27659"/>
<path d="M61.9178 69.4437C62.06 70.7075 60.8717 70.4321 60.8717 70.4321C61.0155 71.3511 59.8757 71.2499 59.8757 71.2499C59.8757 71.2499 59.6267 71.8527 59.0874 71.8145C58.753 71.7883 58.4949 71.657 58.2977 71.5068C58.693 70.7111 59.6293 70.829 60.2215 70.488C60.4924 70.3355 60.708 70.0993 61.8447 68.998C62.627 68.2493 61.6084 68.2068 61.771 67.4382L61.9471 67.1826C61.9471 67.1826 62.476 67.8107 62.5884 68.0733C63.0173 69.0858 61.9178 69.4437 61.9178 69.4437Z" fill="url(#paint12_linear_61_3125)"/>
<path d="M185.784 35.9167L184.79 47.6453C184.749 48.1256 184.327 48.4844 183.847 48.4469L171.937 47.514L167.311 50.6069C167.015 50.8048 166.624 50.5751 166.654 50.2211L166.916 47.1207L164.782 46.9536C164.302 46.916 163.946 46.4962 163.987 46.016L164.981 34.2873C165.022 33.8071 165.444 33.4482 165.924 33.4858L184.989 34.9791C185.469 35.0166 185.825 35.4364 185.784 35.9167Z" fill="#C6AEFF"/>
<path d="M171.591 40.5707C171.511 41.5171 170.677 42.2267 169.731 42.1526C168.781 42.0782 168.077 41.2481 168.157 40.3017C168.238 39.3504 169.072 38.6408 170.023 38.7152C170.968 38.7893 171.672 39.6194 171.591 40.5707Z" fill="white"/>
<path d="M176.615 40.964C176.534 41.9104 175.7 42.62 174.755 42.546C173.804 42.4715 173.1 41.6414 173.181 40.695C173.261 39.7437 174.096 39.0341 175.046 39.1085C175.991 39.1826 176.695 40.0127 176.615 40.964Z" fill="white"/>
<path d="M181.636 41.3573C181.556 42.3037 180.721 43.0133 179.776 42.9393C178.826 42.8648 178.122 42.0348 178.202 41.0883C178.283 40.137 179.117 39.4274 180.067 39.5019C181.013 39.5759 181.717 40.406 181.636 41.3573Z" fill="white"/>
<path d="M10.9606 8.11844L10.0011 19.4351C9.96184 19.8986 10.3053 20.3036 10.7682 20.3398L22.2601 21.2399L26.1619 24.8794C26.4116 25.1123 26.8216 24.9524 26.8505 24.6108L27.1042 21.6193L29.1636 21.7807C29.6265 21.8169 30.0336 21.4707 30.0728 21.0073L31.0323 9.69058C31.0716 9.22722 30.7282 8.82217 30.2653 8.78591L11.8699 7.34507C11.407 7.30881 10.9999 7.65512 10.9606 8.11844Z" fill="#FFD375"/>
<path d="M23.719 14.6806C23.6416 15.5938 24.3207 16.3947 25.2329 16.4661C26.1498 16.538 26.9548 15.8533 27.0322 14.9401C27.1101 14.0222 26.431 13.2213 25.5141 13.1495C24.6019 13.0781 23.7969 13.7627 23.719 14.6806Z" fill="white"/>
<path d="M18.8733 14.3011C18.7959 15.2142 19.475 16.0152 20.3872 16.0866C21.3041 16.1584 22.1091 15.4737 22.1865 14.5606C22.2644 13.6427 21.5853 12.8418 20.6684 12.77C19.7562 12.6985 18.9512 13.3832 18.8733 14.3011Z" fill="white"/>
<path d="M14.0257 13.9216C13.9483 14.8347 14.6273 15.6357 15.5395 15.7071C16.4564 15.7789 17.2615 15.0942 17.3389 14.1811C17.4167 13.2632 16.7377 12.4623 15.8207 12.3904C14.9085 12.319 14.1035 13.0037 14.0257 13.9216Z" fill="white"/>
<path d="M120.496 63.1118L119.528 62.712C119.463 62.2769 119.328 61.8536 119.13 61.4594L119.683 60.5645C119.746 60.4603 119.737 60.3231 119.657 60.2315L119.081 59.5485C119 59.4534 118.87 59.4227 118.756 59.4718L117.785 59.8734C117.426 59.6132 117.034 59.412 116.616 59.2735L116.375 58.2551C116.348 58.1369 116.246 58.047 116.125 58.0375L115.231 57.9675C115.109 57.958 114.99 58.0305 114.943 58.1429L114.537 59.1107C114.102 59.1823 113.681 59.32 113.283 59.5207L112.392 58.9733C112.285 58.9069 112.151 58.9169 112.059 58.9985L111.372 59.5826C111.28 59.6607 111.245 59.7944 111.293 59.9074L111.689 60.8765C111.426 61.238 111.222 61.6315 111.081 62.0504L110.062 62.2946C109.943 62.3262 109.853 62.4284 109.843 62.5505L109.767 63.4451C109.756 63.5672 109.828 63.6819 109.94 63.7282L110.905 64.1313C110.974 64.5666 111.108 64.9865 111.306 65.384L110.753 66.2789C110.687 66.3828 110.699 66.5169 110.776 66.6116L111.356 67.2949C111.433 67.3863 111.563 67.417 111.68 67.3716L112.651 66.97C113.011 67.2301 113.402 67.4314 113.82 67.5699L114.058 68.5847C114.085 68.7062 114.19 68.793 114.312 68.8025L115.206 68.8725C115.328 68.882 115.443 68.8126 115.49 68.6968L115.899 67.7327C116.334 67.661 116.755 67.5234 117.154 67.3227L118.044 67.8701C118.148 67.9328 118.282 67.9227 118.377 67.8449L119.061 67.2605C119.156 67.1793 119.188 67.0487 119.143 66.936L118.748 65.9669C119.01 65.6054 119.214 65.212 119.352 64.7929L120.375 64.5455C120.493 64.5172 120.583 64.4152 120.594 64.2932L120.669 63.3984C120.68 63.2764 120.608 63.1615 120.496 63.1118ZM115.033 65.6077C113.828 65.5133 112.932 64.4572 113.034 63.2507C113.137 62.0408 114.198 61.138 115.404 61.2324C116.609 61.3268 117.504 62.3829 117.402 63.5928C117.299 64.7993 116.238 65.7021 115.033 65.6077Z" fill="#F2F0FB"/>
<path d="M115.492 60.1867C113.708 60.0469 112.139 61.3808 111.988 63.1669C111.837 64.953 113.16 66.5133 114.944 66.6531C116.728 66.7928 118.296 65.4589 118.448 63.6729C118.599 61.8868 117.276 60.3264 115.492 60.1867ZM115.033 65.6058C113.827 65.5114 112.932 64.4554 113.034 63.2489C113.137 62.039 114.198 61.1362 115.404 61.2306C116.609 61.325 117.504 62.3811 117.402 63.591C117.299 64.7975 116.238 65.7002 115.033 65.6058Z" fill="#CFCDF1"/>
<path d="M123.367 71.8488L122.939 71.396C123.009 71.143 123.039 70.8797 123.027 70.6167L123.544 70.2631C123.603 70.2217 123.632 70.1448 123.61 70.0753L123.464 69.5633C123.443 69.4919 123.38 69.4436 123.306 69.4429L122.683 69.4261C122.551 69.1971 122.388 68.9923 122.195 68.8155L122.311 68.202C122.325 68.1309 122.292 68.0573 122.228 68.0226L121.761 67.7675C121.697 67.7328 121.615 67.7435 121.562 67.7934L121.108 68.2224C120.855 68.1557 120.593 68.1287 120.329 68.1414L119.979 67.627C119.937 67.5649 119.862 67.5378 119.792 67.5599L119.279 67.7116C119.21 67.7319 119.158 67.7962 119.157 67.8695L119.136 68.4936C118.907 68.6269 118.701 68.7919 118.523 68.986L117.911 68.8718C117.839 68.8603 117.766 68.894 117.731 68.958L117.473 69.4272C117.437 69.4912 117.449 69.5713 117.498 69.6237L117.923 70.0773C117.855 70.3312 117.826 70.5928 117.837 70.8575L117.32 71.2111C117.259 71.2515 117.233 71.3277 117.252 71.398L117.4 71.911C117.42 71.9796 117.483 72.0279 117.557 72.0314L118.181 72.0482C118.313 72.2772 118.476 72.482 118.669 72.6588L118.552 73.2696C118.537 73.3424 118.573 73.4152 118.637 73.4499L119.104 73.705C119.168 73.7397 119.247 73.7298 119.301 73.6782L119.756 73.2519C120.009 73.3185 120.271 73.3456 120.535 73.3329L120.885 73.8474C120.926 73.9067 121.001 73.9337 121.072 73.9144L121.584 73.7617C121.655 73.7406 121.704 73.6771 121.707 73.6047L121.728 72.9807C121.957 72.8473 122.163 72.6823 122.339 72.4874L122.954 72.6007C123.024 72.614 123.098 72.5803 123.133 72.5163L123.391 72.0471C123.426 71.9831 123.415 71.903 123.367 71.8488ZM119.802 71.8835C119.172 71.5396 118.942 70.7469 119.29 70.1141C119.639 69.4796 120.433 69.245 121.063 69.5889C121.693 69.9328 121.922 70.7257 121.574 71.3601C121.226 71.9929 120.432 72.2274 119.802 71.8835Z" fill="#F2F0FB"/>
<path d="M121.366 69.0406C120.433 68.5316 119.26 68.878 118.745 69.8148C118.23 70.7515 118.569 71.9229 119.501 72.4319C120.434 72.941 121.607 72.5945 122.122 71.6578C122.637 70.7211 122.299 69.5497 121.366 69.0406ZM119.803 71.8827C119.173 71.5388 118.944 70.7461 119.292 70.1133C119.641 69.4788 120.435 69.2442 121.065 69.5881C121.695 69.932 121.924 70.7249 121.575 71.3593C121.228 71.9921 120.434 72.2266 119.803 71.8827Z" fill="#CFCDF1"/>
<path d="M72.8854 59.6237L72.5346 58.9555C72.4009 58.7003 72.4998 58.3836 72.7555 58.2477C73.0111 58.1129 73.3277 58.2084 73.4615 58.464L73.5803 58.6904L74.6382 58.188C74.899 58.0645 75.2114 58.1744 75.3333 58.4356C75.4557 58.6965 75.3432 59.0086 75.0813 59.1327L73.5704 59.8503C73.3167 59.971 73.015 59.87 72.8854 59.6237Z" fill="white"/>
<path d="M72.1764 68.0038L71.8256 67.3356C71.6918 67.0804 71.7907 66.7637 72.0464 66.6278C72.302 66.4933 72.6187 66.5889 72.7524 66.8441L72.8712 67.0705L73.9291 66.5681C74.19 66.4435 74.5023 66.5545 74.6243 66.8157C74.7466 67.0765 74.6341 67.3887 74.3722 67.5128L72.8614 68.2304C72.6077 68.3511 72.3059 68.2501 72.1764 68.0038Z" fill="white"/>
<path d="M71.4616 76.4205L71.1108 75.7523C70.977 75.4971 71.0759 75.1804 71.3316 75.0445C71.5872 74.91 71.9039 75.0052 72.0376 75.2608L72.1564 75.4872L73.2143 74.9848C73.4752 74.861 73.7875 74.9716 73.9095 75.2324C74.0318 75.4932 73.9193 75.8055 73.6574 75.9296L72.1465 76.6471C71.8929 76.7678 71.5911 76.6668 71.4616 76.4205Z" fill="white"/>
<defs>
<linearGradient id="paint0_linear_61_3125" x1="58.6522" y1="43.7076" x2="147.777" y2="51.2637" gradientUnits="userSpaceOnUse">
<stop offset="1.1e-07" stop-color="#57B2FD"/>
<stop offset="1" stop-color="#497BFD"/>
</linearGradient>
<linearGradient id="paint1_linear_61_3125" x1="61.6273" y1="10.6661" x2="150.405" y2="18.1928" gradientUnits="userSpaceOnUse">
<stop offset="1.1e-07" stop-color="#57B2FD"/>
<stop offset="1" stop-color="#497BFD"/>
</linearGradient>
<linearGradient id="paint2_linear_61_3125" x1="74.6058" y1="30.3154" x2="81.9553" y2="30.9385" gradientUnits="userSpaceOnUse">
<stop offset="1.1e-07" stop-color="#57B2FD"/>
<stop offset="1" stop-color="#497BFD"/>
</linearGradient>
<linearGradient id="paint3_linear_61_3125" x1="143.893" y1="80.21" x2="129.768" y2="79.0125" gradientUnits="userSpaceOnUse">
<stop offset="1e-07" stop-color="#F7A386"/>
<stop offset="1" stop-color="#FD6B58"/>
</linearGradient>
<linearGradient id="paint4_linear_61_3125" x1="171.109" y1="89.6211" x2="149.159" y2="101.88" gradientUnits="userSpaceOnUse">
<stop offset="1e-07" stop-color="#F7A386"/>
<stop offset="1" stop-color="#FD6B58"/>
</linearGradient>
<linearGradient id="paint5_linear_61_3125" x1="151.491" y1="64.0758" x2="170.267" y2="65.5488" gradientUnits="userSpaceOnUse">
<stop offset="1e-07" stop-color="#FDE0BB"/>
<stop offset="1" stop-color="#FC6B58"/>
</linearGradient>
<linearGradient id="paint6_linear_61_3125" x1="159.453" y1="90.3378" x2="135.738" y2="88.3272" gradientUnits="userSpaceOnUse">
<stop offset="1.1e-07" stop-color="#57B2FD"/>
<stop offset="1" stop-color="#497BFD"/>
</linearGradient>
<linearGradient id="paint7_linear_61_3125" x1="44.3162" y1="62.5344" x2="59.8423" y2="63.8507" gradientUnits="userSpaceOnUse">
<stop offset="1e-07" stop-color="#F7A386"/>
<stop offset="1" stop-color="#FD6B58"/>
</linearGradient>
<linearGradient id="paint8_linear_61_3125" x1="15.4222" y1="65.7863" x2="23.6309" y2="66.4822" gradientUnits="userSpaceOnUse">
<stop offset="1e-07" stop-color="#F7A386"/>
<stop offset="1" stop-color="#FD6B58"/>
</linearGradient>
<linearGradient id="paint9_linear_61_3125" x1="43.8313" y1="42.1029" x2="18.3699" y2="34.8298" gradientUnits="userSpaceOnUse">
<stop offset="1e-07" stop-color="#FEE1BC"/>
<stop offset="1" stop-color="#FD6B58"/>
</linearGradient>
<linearGradient id="paint10_linear_61_3125" x1="40.7319" y1="35.8772" x2="23.5223" y2="52.7505" gradientUnits="userSpaceOnUse">
<stop offset="1e-07" stop-color="#F7A386"/>
<stop offset="1" stop-color="#FD6B58"/>
</linearGradient>
<linearGradient id="paint11_linear_61_3125" x1="48.4999" y1="36.3188" x2="21.7873" y2="25.7915" gradientUnits="userSpaceOnUse">
<stop offset="1e-07" stop-color="#FEE1BC"/>
<stop offset="1" stop-color="#FD6B58"/>
</linearGradient>
<linearGradient id="paint12_linear_61_3125" x1="58.4815" y1="69.339" x2="62.5916" y2="69.6875" gradientUnits="userSpaceOnUse">
<stop offset="1e-07" stop-color="#F7A386"/>
<stop offset="1" stop-color="#FD6B58"/>
</linearGradient>
</defs>
</svg>
