<svg width="531" height="354" viewBox="0 0 531 354" fill="none" xmlns="http://www.w3.org/2000/svg">
<path d="M73.5444 92.8807C73.3414 92.8807 73.1384 92.871 72.9316 92.8536C71.0216 92.6911 69.2894 91.7936 68.0541 90.3273C66.8188 88.859 66.2292 86.9981 66.3935 85.0849C66.407 84.9263 66.4283 84.7619 66.4554 84.5897C64.0505 83.7347 61.779 82.5585 59.697 81.0864C59.5732 81.2083 59.4514 81.3205 59.3296 81.423C57.8624 82.6611 56.0046 83.253 54.0926 83.0905C52.1846 82.928 50.4524 82.0304 49.2191 80.5622C46.6711 77.5329 47.0578 72.9908 50.0851 70.4354C50.2069 70.3329 50.3365 70.2323 50.4776 70.1298C49.3834 67.8258 48.6101 65.3846 48.1752 62.864C48.0012 62.864 47.8349 62.8543 47.6783 62.8408C45.7683 62.6783 44.0362 61.7807 42.8009 60.3144C41.5656 58.8462 40.976 56.9852 41.1403 55.0721C41.4786 51.1239 44.9525 48.1855 48.902 48.5182C49.0586 48.5317 49.2229 48.5511 49.395 48.5801C50.2514 46.1698 51.4268 43.8949 52.8979 41.8076C52.7761 41.6819 52.664 41.56 52.5616 41.4401C50.0136 38.4107 50.4022 33.8687 53.4276 31.3133C54.8949 30.0752 56.7566 29.4794 58.6646 29.6458C60.5727 29.8083 62.3048 30.7059 63.5382 32.1722C63.6407 32.2921 63.7412 32.4236 63.8436 32.5649C66.1461 31.4661 68.5838 30.6904 71.0989 30.2532C71.0989 30.0772 71.1086 29.9147 71.1221 29.7541C71.4604 25.8059 74.9421 22.8694 78.8838 23.2002C80.7938 23.3627 82.526 24.2603 83.7593 25.7285C84.9946 27.1968 85.5843 29.0577 85.4199 30.9709C85.4064 31.1295 85.3851 31.292 85.3581 31.4642C87.763 32.3192 90.0325 33.4953 92.1165 34.9674C92.2402 34.8456 92.362 34.7334 92.4838 34.6308C93.9511 33.3928 95.8089 32.7989 97.7208 32.9633C99.6289 33.1258 101.361 34.0234 102.594 35.4897C105.142 38.5191 104.754 43.0631 101.728 45.6185C101.607 45.721 101.477 45.8216 101.336 45.9241C102.43 48.228 103.203 50.6693 103.638 53.1899C103.814 53.1899 103.979 53.1995 104.135 53.2111C106.045 53.3736 107.777 54.2712 109.013 55.7395C110.248 57.2077 110.837 59.0686 110.673 60.9818C110.335 64.93 106.853 67.8723 102.911 67.5357C102.753 67.5221 102.591 67.5028 102.418 67.4738C101.562 69.8841 100.387 72.159 98.9155 74.2462C99.0373 74.3701 99.1494 74.4919 99.2519 74.6138C101.8 77.6431 101.411 82.1852 98.3858 84.7406C96.9185 85.9786 95.0627 86.5725 93.1488 86.4081C91.2408 86.2456 89.5086 85.348 88.2753 83.8817C88.1728 83.7598 88.0723 83.6302 87.9698 83.489C85.6674 84.5878 83.2296 85.3635 80.7146 85.8007C80.7146 85.9767 80.7049 86.1392 80.6914 86.2998C80.3724 90.0429 77.2252 92.8788 73.5424 92.8788L73.5444 92.8807ZM59.6486 80.1018C59.7356 80.1018 59.8245 80.1289 59.8999 80.183C62.0941 81.777 64.5106 83.0286 67.0817 83.9049C67.2847 83.9746 67.4065 84.1854 67.362 84.3963C67.304 84.6768 67.2654 84.9263 67.246 85.1584C67.103 86.8453 67.6211 88.4857 68.7095 89.7779C69.7979 91.072 71.3231 91.8613 73.0069 92.0044C76.479 92.3023 79.5489 89.7082 79.8485 86.2282C79.8678 85.9941 79.8717 85.7504 79.862 85.4563C79.8543 85.2416 80.009 85.054 80.2197 85.0211C82.901 84.5916 85.4953 83.7656 87.9292 82.5643C88.1225 82.4676 88.3565 82.5334 88.4744 82.7133C88.6348 82.959 88.7798 83.1563 88.9306 83.3343C90.0171 84.6265 91.5423 85.4177 93.2242 85.5608C94.9061 85.702 96.5474 85.1816 97.8407 84.0906C100.508 81.8389 100.851 77.8327 98.6043 75.1632C98.4535 74.9852 98.2795 74.8034 98.0707 74.608C97.9141 74.461 97.8909 74.2211 98.0166 74.047C99.6095 71.8475 100.862 69.4256 101.738 66.8509C101.808 66.6458 102.02 66.5259 102.227 66.5704C102.513 66.6304 102.755 66.6671 102.987 66.6865C106.459 66.9824 109.531 64.3903 109.828 60.9083C109.971 59.2214 109.453 57.581 108.365 56.2869C107.277 54.9947 105.751 54.2035 104.067 54.0604C103.837 54.041 103.586 54.0371 103.298 54.0468C103.083 54.072 102.896 53.8998 102.863 53.6889C102.436 51.002 101.614 48.4041 100.418 45.9686C100.323 45.7751 100.387 45.5411 100.566 45.4231C100.804 45.2664 101.007 45.1174 101.187 44.9666C103.855 42.7149 104.197 38.7106 101.951 36.0391C100.862 34.7469 99.337 33.9557 97.6551 33.8126C95.9693 33.6714 94.3319 34.1917 93.0406 35.2827C92.8627 35.4317 92.6829 35.6077 92.4877 35.8186C92.3408 35.9772 92.0991 36.0004 91.9251 35.8727C89.729 34.2788 87.3125 33.0272 84.7433 32.1509C84.5403 32.0812 84.4205 31.8704 84.463 31.6615C84.521 31.381 84.5597 31.1314 84.579 30.8993C84.7221 29.2125 84.204 27.5721 83.1156 26.2779C82.0272 24.9838 80.5019 24.1945 78.8181 24.0514C75.3422 23.7535 72.2743 26.3476 71.9766 29.8296C71.9572 30.0636 71.9534 30.3074 71.963 30.6014C71.9708 30.8161 71.8161 31.0038 71.6054 31.0366C68.9221 31.4661 66.3297 32.2921 63.8958 33.4934C63.7025 33.5901 63.4686 33.5243 63.3507 33.3444C63.1922 33.1007 63.0472 32.9034 62.8944 32.7235C61.808 31.4313 60.2827 30.6401 58.6008 30.4969C56.919 30.3577 55.2777 30.8761 53.9863 31.9671C51.3185 34.2188 50.9763 38.2231 53.2227 40.8946C53.3735 41.0745 53.5436 41.2505 53.7563 41.4497C53.9129 41.5968 53.9361 41.8366 53.8104 42.0127C52.2174 44.2121 50.9647 46.634 50.089 49.2107C50.0194 49.4138 49.8068 49.5357 49.5999 49.4912C49.3196 49.4332 49.0702 49.3945 48.8402 49.3751C45.3624 49.0753 42.2963 51.6713 41.9986 55.1514C41.8556 56.8382 42.3737 58.4786 43.462 59.7728C44.5504 61.065 46.0757 61.8562 47.7595 61.9993C47.9915 62.0186 48.2428 62.0245 48.5289 62.0128C48.759 61.9954 48.931 62.1599 48.9658 62.3707C49.3931 65.0577 50.2147 67.6556 51.4113 70.0911C51.506 70.2845 51.4422 70.5186 51.2625 70.6366C51.0247 70.7933 50.8217 70.9422 50.6419 71.0931C47.9741 73.3448 47.6319 77.3491 49.8783 80.0206C50.9667 81.3128 52.492 82.104 54.1738 82.2471C55.8576 82.3961 57.497 81.8679 58.7884 80.7769C58.9662 80.626 59.1479 80.4519 59.3432 80.2411C59.4263 80.1521 59.5404 80.1057 59.6544 80.1057L59.6486 80.1018ZM75.9087 71.0099C75.5433 71.0099 75.174 70.9945 74.8029 70.9635C71.3541 70.6714 68.2262 69.0484 65.9953 66.3982C63.7644 63.748 62.6992 60.384 62.995 56.9291C63.6039 49.7969 69.8926 44.4829 77.0144 45.0904C80.4633 45.3825 83.5911 47.0055 85.822 49.6556C88.0529 52.3058 89.1181 55.6698 88.8224 59.1247C88.2443 65.8856 82.5627 71.0099 75.9087 71.0099ZM75.9106 45.897C69.6915 45.897 64.3849 50.6848 63.8436 57.0026C63.5672 60.2312 64.5628 63.3728 66.6468 65.8488C68.7307 68.3249 71.6518 69.8396 74.8744 70.1143C81.5207 70.6733 87.4034 65.7173 87.9737 59.0532C88.2501 55.8246 87.2545 52.683 85.1706 50.207C83.0866 47.7309 80.1655 46.2162 76.9429 45.9415C76.5969 45.9125 76.2528 45.897 75.9106 45.897Z" fill="#E2EAFF"/>
<path d="M19.0197 40.5387C19.0874 40.3665 19.1396 40.1944 19.1841 40.0203C21.0167 40.2582 22.8475 40.2118 24.6202 39.9081C24.6724 40.0802 24.7304 40.2505 24.8038 40.4188C25.7917 42.6801 28.4266 43.7092 30.6865 42.7169C32.9464 41.7245 33.9788 39.0859 32.989 36.8246C32.9155 36.6563 32.8304 36.4957 32.7396 36.3429C34.1663 35.2441 35.4402 33.9248 36.5093 32.414C36.6678 32.4992 36.8302 32.5785 37.0003 32.6442C39.297 33.5418 41.8894 32.4044 42.7883 30.1024C43.6872 27.8023 42.5544 25.2082 40.2577 24.3107C40.0857 24.243 39.9136 24.1927 39.7396 24.1462C39.9794 22.3124 39.9368 20.4785 39.6333 18.7047C39.8054 18.6524 39.9755 18.5944 40.1437 18.5189C42.4036 17.5266 43.4359 14.888 42.4461 12.6266C41.4583 10.3653 38.8233 9.33616 36.5634 10.3285C36.3952 10.402 36.2367 10.4891 36.0821 10.58C34.9859 9.15238 33.6694 7.87952 32.1635 6.81171C32.2485 6.65309 32.3278 6.49059 32.3955 6.31843C33.2944 4.01838 32.1616 1.42429 29.8649 0.526712C27.5683 -0.370869 24.9759 0.766583 24.077 3.06857C24.0093 3.24073 23.9571 3.4129 23.9126 3.587C22.08 3.34906 20.2493 3.39355 18.4765 3.70113C18.4243 3.52896 18.3663 3.35873 18.2929 3.19044C17.305 0.929076 14.6701 -0.100047 12.4102 0.892321C10.1503 1.88469 9.11796 4.52327 10.1078 6.78463C10.1812 6.95292 10.2663 7.11348 10.3571 7.2663C8.93044 8.36507 7.65647 9.68436 6.58742 11.1952C6.4289 11.11 6.26651 11.0307 6.09639 10.965C3.79976 10.0674 1.20736 11.2048 0.308424 13.5068C-0.590509 15.8069 0.542339 18.4009 2.83897 19.2985C3.01102 19.3662 3.18307 19.4165 3.35706 19.463C3.11734 21.2968 3.15988 23.1307 3.46339 24.9045C3.29133 24.9568 3.12121 25.0148 2.95302 25.0902C0.693128 26.0826 -0.339194 28.7212 0.650598 30.9825C1.63846 33.2439 4.27339 34.273 6.53329 33.2807C6.70148 33.2072 6.86 33.1201 7.01465 33.0292C8.11077 34.4568 9.42727 35.7297 10.9332 36.7975C10.8482 36.9561 10.7689 37.1186 10.7012 37.2908C9.80231 39.5908 10.9352 42.1849 13.2318 43.0825C15.5284 43.9801 18.1208 42.8426 19.0197 40.5406V40.5387ZM13.8214 18.7878C15.4917 14.5147 20.3053 12.4022 24.5719 14.0678C28.8384 15.7353 30.9436 20.5501 29.2714 24.8233C27.6012 29.0965 22.7875 31.2089 18.521 29.5433C14.2544 27.8758 12.1492 23.061 13.8214 18.7878Z" fill="#E2EAFF"/>
<path d="M452.027 134.287L437.77 130.384L427.37 168.423L441.627 172.326L452.027 134.287Z" fill="#E2EAFF"/>
<path d="M447.626 163.127L426.738 157.409C425.349 157.029 423.915 157.848 423.535 159.238L421.995 164.867C421.615 166.257 422.434 167.693 423.823 168.073L444.711 173.791C446.1 174.171 447.534 173.352 447.914 171.962L449.453 166.333C449.833 164.943 449.015 163.508 447.626 163.127Z" fill="#E2EAFF"/>
<path d="M459.537 184.951L405.395 170.133L406.601 165.722C407.196 163.542 409.445 162.26 411.623 162.855L457.881 175.516C460.059 176.112 461.341 178.362 460.746 180.542L459.539 184.953L459.537 184.951Z" fill="#E2EAFF"/>
<path d="M434.409 127.445C421.749 114.947 410.264 98.1693 402.895 81.417C398.369 71.1297 391.788 52.3965 398.547 42.5135C400.497 39.6602 404.354 36.4606 411.636 37.4182C416.924 38.1146 423.549 40.9659 431.332 45.8949L427.429 52.8898C420.456 48.4735 414.718 45.9452 410.38 45.3745C407.393 44.9818 405.348 45.5602 404.298 47.0962C401.806 50.7387 402.45 61.589 409.5 77.6197C416.502 93.5363 427.419 109.478 439.451 121.359L434.407 127.445H434.409Z" fill="#E2EAFF"/>
<path d="M456.845 133.12C473.857 128.743 492.035 120.086 506.719 109.367C515.736 102.786 530.753 89.9649 530.022 78.0313C529.811 74.5861 528.166 69.8796 521.522 67.0263C516.698 64.9545 509.658 64.0647 500.587 64.3819L500.359 72.3828C508.484 72.0984 514.613 72.818 518.57 74.5184C521.294 75.6887 522.732 77.2208 522.846 79.074C523.115 83.471 517.097 92.499 503.046 102.755C489.094 112.938 471.82 121.164 455.648 125.325L456.843 133.118L456.845 133.12Z" fill="#E2EAFF"/>
<path d="M443.602 137.224C481.543 148.065 496.744 94.0783 516.708 53.2248L423.203 27.2607C418.649 73.6699 405.406 127.544 443.6 137.226L443.602 137.224Z" fill="#E2EAFF"/>
<path d="M489.614 99.4851C489.548 99.4851 489.483 99.4696 489.421 99.4387C489.212 99.3323 489.127 99.075 489.233 98.8661C493.283 90.8826 496.984 81.9726 500.56 73.3566C502.938 67.6326 505.395 61.7112 507.937 56.113C508.034 55.8983 508.285 55.8035 508.501 55.9002C508.716 55.9969 508.811 56.2503 508.714 56.465C506.18 62.0517 503.725 67.9653 501.349 73.6854C497.765 82.315 494.059 91.2405 489.995 99.2529C489.92 99.4 489.771 99.487 489.614 99.487V99.4851Z" fill="white"/>
<path d="M448.211 133.082C447.392 133.082 446.564 133.059 445.725 133.008C445.489 132.995 445.311 132.793 445.325 132.557C445.338 132.321 445.539 132.14 445.775 132.157C461.111 133.045 473.173 125.592 483.739 108.688C483.863 108.489 484.126 108.427 484.327 108.553C484.526 108.679 484.586 108.942 484.462 109.141C474.29 125.416 462.716 133.082 448.213 133.082H448.211Z" fill="white"/>
<path d="M517.981 58.7298L420.121 31.9455C418.516 31.5064 417.571 29.8486 418.01 28.2411L419.786 21.7375C420.225 20.1319 421.882 19.186 423.488 19.6251L521.348 46.4093C522.953 46.8485 523.898 48.5063 523.459 50.1138L521.683 56.6174C521.244 58.223 519.587 59.1689 517.981 58.7298Z" fill="#E2EAFF"/>
<path d="M510.416 49.0731C510.379 49.0731 510.344 49.0692 510.307 49.0596L490.834 43.9623C490.606 43.9024 490.471 43.6702 490.529 43.442C490.589 43.2137 490.823 43.0802 491.049 43.1363L510.522 48.2336C510.75 48.2935 510.885 48.5257 510.828 48.7539C510.777 48.9454 510.605 49.0731 510.416 49.0731Z" fill="white"/>
<path d="M485.843 42.6413C485.806 42.6413 485.771 42.6375 485.734 42.6278L474.889 39.79C474.661 39.73 474.526 39.4979 474.584 39.2696C474.644 39.0413 474.878 38.9078 475.104 38.9639L485.949 41.8018C486.177 41.8617 486.312 42.0939 486.254 42.3221C486.204 42.5136 486.032 42.6413 485.843 42.6413Z" fill="white"/>
<path d="M514.821 35.8513C514.784 35.8513 514.746 35.8455 514.709 35.8358L464.295 22.0375C464.069 21.9756 463.934 21.7415 463.995 21.5132C464.057 21.2869 464.295 21.1554 464.519 21.2134L514.933 35.0118C515.159 35.0737 515.295 35.3077 515.233 35.536C515.18 35.7256 515.008 35.8494 514.823 35.8494L514.821 35.8513Z" fill="#E2EAFF"/>
<path d="M501.033 6.37812C500.996 6.37812 500.958 6.37232 500.921 6.36265L480.74 0.837882C480.514 0.77598 480.379 0.541912 480.441 0.313648C480.503 0.0853843 480.738 -0.0442233 480.965 0.0138099L501.145 5.53857C501.371 5.60048 501.507 5.83454 501.445 6.06281C501.393 6.25238 501.221 6.37619 501.035 6.37619L501.033 6.37812Z" fill="#E2EAFF"/>
<path d="M470.763 11.889C470.727 11.889 470.688 11.8832 470.651 11.8736L440.42 3.59996C440.194 3.53806 440.059 3.30399 440.12 3.07573C440.182 2.8494 440.42 2.71786 440.644 2.77589L470.876 11.0495C471.102 11.1114 471.237 11.3455 471.175 11.5737C471.123 11.7633 470.951 11.8871 470.765 11.8871L470.763 11.889Z" fill="#E2EAFF"/>
<mask id="mask0_49_5198" style="mask-type:luminance" maskUnits="userSpaceOnUse" x="274" y="57" width="230" height="297">
<path d="M503.502 57.1074H274.5V353.793H503.502V57.1074Z" fill="white"/>
</mask>
<g mask="url(#mask0_49_5198)">
<path d="M372.585 163.633C374.485 164.637 421.906 163.633 421.906 163.633C421.906 163.633 393.121 88.7142 382.193 69.1957C371.265 49.6772 338.7 55.5385 328.856 74.3645C319.012 93.1905 343.985 99.7618 343.985 99.7618L372.585 163.633Z" fill="black"/>
<path d="M375.626 249.574C375.626 249.574 363.921 329.823 369.028 413.505C371.072 446.97 390.027 477.088 419.351 493.31L513.455 555.943L499.42 584.474H511.081C525.064 584.474 538.151 577.545 545.971 565.946C553.139 555.315 560.855 542.288 562.765 533.055C564.942 522.534 566.227 511.186 565.678 499.806C565.458 495.24 563.08 491.056 559.287 488.509C539.802 475.418 476.686 431.675 461.419 404.341C443.302 371.902 438.627 260.525 438.627 260.525L375.624 249.576L375.626 249.574Z" fill="white"/>
<path d="M511.083 584.9H499.422C499.275 584.9 499.138 584.825 499.06 584.699C498.983 584.573 498.975 584.418 499.039 584.285L512.908 556.091L419.115 493.664C404.7 485.692 392.408 474.08 383.599 460.102C374.795 446.133 369.61 430.031 368.603 413.53C363.552 330.761 375.087 250.315 375.205 249.513C375.222 249.398 375.282 249.296 375.377 249.228C375.472 249.161 375.588 249.135 375.7 249.153L438.702 260.102C438.9 260.137 439.046 260.303 439.054 260.504C439.101 261.616 443.932 372.15 461.792 404.131C477.028 431.406 540.45 475.337 559.527 488.153C563.42 490.768 565.881 495.117 566.105 499.783C566.604 510.136 565.62 521.358 563.182 533.138C561.199 542.725 552.921 556.398 546.325 566.181C538.424 577.899 525.249 584.896 511.083 584.896V584.9ZM500.106 584.047H511.083C524.967 584.047 537.877 577.191 545.619 565.707C552.171 555.988 560.393 542.42 562.349 532.968C564.773 521.257 565.751 510.107 565.255 499.825C565.042 495.426 562.724 491.327 559.053 488.861C539.938 476.02 476.378 431.988 461.05 404.546C443.589 373.286 438.53 267.758 438.219 260.883L375.988 250.068C375.079 256.56 364.601 333.947 369.456 413.478C371.503 447.009 390.234 476.713 419.56 492.935L513.695 555.586C513.872 555.704 513.936 555.938 513.842 556.129L500.11 584.045L500.106 584.047Z" fill="black"/>
<path d="M465.013 256.364C481.745 280.208 495.065 509.462 498.306 569.919C498.73 577.831 492.434 584.474 484.517 584.474H383.697C379.806 584.474 378.196 579.487 381.351 577.208L407.516 558.313L400.638 306.11L381.573 280.349L383.786 256.083L465.017 256.366L465.013 256.364Z" fill="white"/>
<path d="M484.518 584.9H383.698C381.738 584.9 380.081 583.693 379.478 581.826C378.875 579.959 379.513 578.01 381.104 576.862L407.088 558.1L400.219 306.257L387.82 289.503C387.679 289.314 387.719 289.047 387.909 288.907C388.098 288.766 388.365 288.807 388.504 288.996L400.983 305.859C401.035 305.928 401.064 306.014 401.066 306.101L407.944 558.303C407.948 558.445 407.882 558.578 407.768 558.661L381.603 577.557C380.319 578.485 379.803 580.058 380.29 581.569C380.777 583.078 382.115 584.053 383.7 584.053H484.52C488.233 584.053 491.682 582.569 494.236 579.872C496.788 577.178 498.083 573.653 497.884 569.947C496.357 541.472 492.171 467.859 486.298 399.453C479.026 314.761 471.749 266.702 464.668 256.614C464.532 256.422 464.579 256.155 464.772 256.02C464.964 255.884 465.23 255.931 465.366 256.124C481.987 279.81 495.11 502.28 498.735 569.9C498.945 573.843 497.567 577.594 494.853 580.459C492.137 583.325 488.467 584.904 484.518 584.904V584.9Z" fill="black"/>
<path d="M342.84 136.846C342.84 136.846 325.6 136.214 321.483 152.96C315.285 178.176 312.781 295.418 312.571 329.836C312.543 334.432 308.838 338.168 304.244 338.199C293.989 338.268 277.905 340.359 278.394 352.829H342.922C349.214 352.829 354.316 347.724 354.316 341.427V219.654L342.838 136.846H342.84Z" fill="white"/>
<path d="M342.923 353.256H278.393C278.165 353.256 277.976 353.077 277.968 352.846C277.837 349.49 278.873 346.633 281.048 344.352C286.146 339.011 296.475 337.825 304.242 337.771C308.574 337.742 312.118 334.181 312.145 329.832C312.371 292.859 315.006 177.522 321.069 152.858C325.221 135.968 342.678 136.415 342.856 136.419C343.062 136.427 343.233 136.582 343.262 136.787L354.739 219.594C354.741 219.614 354.743 219.633 354.743 219.652V341.425C354.743 347.948 349.44 353.255 342.921 353.255L342.923 353.256ZM278.809 352.403H342.923C348.972 352.403 353.892 347.48 353.892 341.427V219.683L342.469 137.272C340.008 137.309 325.555 138.176 321.896 153.063C315.851 177.654 313.222 292.892 312.997 329.838C312.968 334.651 309.044 338.591 304.248 338.624C296.645 338.677 286.555 339.816 281.664 344.94C279.743 346.954 278.784 349.463 278.809 352.403Z" fill="black"/>
<path d="M304.533 353.016C304.373 353.016 304.218 352.924 304.146 352.769C303.29 350.906 304.303 348.759 305.747 347.6C307.216 346.42 309.099 345.971 310.758 345.575L319.54 343.476C322.313 342.814 325.002 341.892 325.908 339.649C325.997 339.431 326.245 339.326 326.463 339.413C326.682 339.502 326.786 339.75 326.699 339.969C325.647 342.57 322.732 343.59 319.739 344.306L310.957 346.405C309.383 346.78 307.601 347.205 306.281 348.265C305.125 349.194 304.255 350.962 304.922 352.413C305.02 352.628 304.927 352.879 304.713 352.978C304.655 353.005 304.595 353.016 304.535 353.016H304.533Z" fill="black"/>
<path d="M351.219 323.162C351.208 323.162 351.196 323.162 351.183 323.162C338.731 322.122 326.09 321.92 313.609 322.565C313.377 322.568 313.174 322.396 313.161 322.16C313.149 321.924 313.329 321.725 313.565 321.712C326.084 321.067 338.764 321.269 351.252 322.313C351.486 322.332 351.662 322.539 351.641 322.774C351.623 322.996 351.436 323.164 351.217 323.164L351.219 323.162Z" fill="black"/>
<path d="M441.124 254.076L373.546 255.864C373.546 255.864 325.583 215.428 341.814 138.145L340.239 132.392C340.239 132.392 373.244 124.674 388.076 127.987C388.076 127.987 393.643 133.04 395.511 139.476C397.378 145.912 441.124 254.076 441.124 254.076Z" fill="#5479F7"/>
<path d="M355.784 164.059C355.684 164.059 355.583 164.024 355.502 163.95C355.326 163.794 355.311 163.525 355.467 163.349L383.191 132.108C383.348 131.932 383.617 131.916 383.792 132.071C383.968 132.227 383.984 132.496 383.829 132.672L356.105 163.914C356.02 164.008 355.904 164.057 355.786 164.057L355.784 164.059Z" fill="black"/>
<path d="M369.912 100.784L383.508 132.392L362.628 155.921L346.457 116.99L369.912 100.784Z" fill="white"/>
<path d="M362.627 156.346C362.604 156.346 362.581 156.344 362.558 156.34C362.413 156.317 362.291 156.219 362.235 156.083L346.064 117.153C345.987 116.967 346.05 116.752 346.215 116.638L369.67 100.431C369.774 100.36 369.908 100.336 370.03 100.373C370.151 100.41 370.252 100.497 370.304 100.615L383.9 132.224C383.966 132.377 383.937 132.553 383.827 132.675L362.946 156.203C362.865 156.296 362.749 156.346 362.627 156.346ZM346.982 117.145L362.761 155.128L383.009 132.311L369.726 101.429L346.982 117.145Z" fill="black"/>
<path d="M364.999 101.816L368.894 93.0262C368.894 93.0262 372.611 87.1358 379.575 90.8732C386.538 94.6105 384.417 108.92 369.424 107.453C369.424 107.453 363.348 126.316 347.521 125.088C331.694 123.859 323.485 107.001 330.69 85.037C330.69 85.037 337.509 86.2208 343.755 82.6963C343.755 82.6963 346.778 96.7616 364.999 101.816Z" fill="white"/>
<path d="M348.975 125.571C348.489 125.571 347.993 125.552 347.488 125.513C340.929 125.004 335.58 121.911 332.019 116.568C326.857 108.823 326.225 97.2819 330.285 84.9053C330.35 84.7042 330.557 84.5823 330.762 84.619C330.83 84.6306 337.511 85.7313 343.544 82.3267C343.662 82.259 343.805 82.2552 343.927 82.3093C344.051 82.3654 344.14 82.4757 344.169 82.6092C344.198 82.7465 347.328 96.3031 364.755 101.307L368.502 92.854C368.509 92.8346 368.519 92.8172 368.531 92.7998C368.569 92.7379 372.544 86.6173 379.774 90.4997C383.092 92.2814 384.615 96.4907 383.395 100.51C382.166 104.559 377.92 108.591 369.714 107.91C368.83 110.339 362.741 125.573 348.973 125.573L348.975 125.571ZM330.984 85.5108C327.13 97.5082 327.76 108.639 332.728 116.094C336.138 121.211 341.265 124.174 347.554 124.662C362.859 125.848 368.958 107.507 369.018 107.322C369.08 107.13 369.267 107.008 369.464 107.028C377.387 107.805 381.433 104.039 382.581 100.259C383.683 96.6281 382.336 92.8365 379.374 91.2464C373.012 87.8321 369.567 92.7766 369.269 93.2273L365.387 101.988C365.302 102.182 365.088 102.282 364.885 102.226C348.667 97.7268 344.285 85.9925 343.486 83.3268C338.077 86.1705 332.467 85.7004 330.986 85.5089L330.984 85.5108Z" fill="black"/>
<path d="M369.054 103.932C368.976 103.932 368.899 103.911 368.829 103.868C368.63 103.745 368.568 103.482 368.694 103.28C370.227 100.822 372.715 99.0072 375.524 98.305C375.754 98.2489 375.984 98.3863 376.04 98.6145C376.098 98.8428 375.959 99.0749 375.731 99.131C373.135 99.781 370.834 101.458 369.417 103.731C369.336 103.861 369.197 103.932 369.056 103.932H369.054Z" fill="black"/>
<path d="M452.032 343.391C452.032 343.391 396.228 207.448 390.956 191.512C385.685 175.576 386.027 144.8 394.241 134.431C394.241 134.431 424.723 129.372 451.21 177.882C477.697 226.392 502.917 299.245 502.917 299.245C502.917 299.245 489.959 328.695 452.032 343.393V343.391Z" fill="white"/>
<path d="M411.672 137.489C422.739 142.029 437.507 152.788 451.209 177.88C477.696 226.39 502.916 299.243 502.916 299.243C502.916 299.243 489.958 328.693 452.031 343.391C452.031 343.391 434.217 299.995 417.769 259.366L411.674 137.489H411.672Z" fill="white"/>
<path d="M452.031 343.818C451.862 343.818 451.704 343.718 451.636 343.553C451.458 343.12 433.634 299.692 417.372 259.527C417.283 259.308 417.39 259.061 417.606 258.972C417.823 258.883 418.072 258.987 418.161 259.206C433.601 297.343 450.451 338.425 452.264 342.842C487.92 328.865 501.389 301.501 502.456 299.222C501.103 295.343 476.402 224.91 450.834 178.085C436.838 152.45 421.724 142.074 411.511 137.884C411.292 137.795 411.188 137.545 411.279 137.328C411.368 137.11 411.619 137.005 411.834 137.096C422.176 141.339 437.466 151.823 451.582 177.677C477.782 225.663 503.065 298.376 503.318 299.106C503.353 299.208 503.349 299.319 503.304 299.417C503.272 299.491 499.947 306.944 492.017 316.086C484.703 324.517 471.857 336.166 452.183 343.789C452.133 343.809 452.081 343.818 452.029 343.818H452.031Z" fill="black"/>
<path d="M454.595 190.667C446.108 169.241 398.623 159.716 398.623 159.716L415.055 213.642L390.558 213.78C391.925 226.473 391.19 239.388 388.414 251.849C404.566 254.84 422.844 256.875 438.058 254.782C473.992 249.836 463.081 212.093 454.595 190.667Z" fill="white"/>
<path d="M390.552 213.779L367.542 213.909C367.542 213.909 370.337 199.271 362.62 199.433C354.903 199.596 354.976 218.081 350.071 220.664C350.071 220.664 336.874 227.127 331.434 228.504C325.994 229.882 318.124 231.435 319.351 236.886C319.351 236.886 312.388 240.885 319.666 245.533C319.666 245.533 322.427 252.122 347.375 242.312C348.359 241.925 366.409 247.775 388.407 251.849C391.183 239.387 391.917 226.473 390.55 213.779H390.552Z" fill="white"/>
<path d="M370.116 248.365C370.083 248.365 370.05 248.361 370.017 248.353C364.034 246.922 358.805 245.537 354.987 244.525C351.101 243.496 348.02 242.695 347.507 242.72C324.149 251.899 319.903 246.783 319.347 245.831C317.038 244.334 315.888 242.718 315.927 241.03C315.979 238.79 318.117 237.184 318.881 236.681C317.966 231.408 325.055 229.649 330.256 228.359C330.623 228.268 330.982 228.179 331.332 228.09C336.668 226.74 349.758 220.345 349.889 220.281C350.102 220.178 350.355 220.265 350.459 220.476C350.562 220.687 350.475 220.942 350.264 221.047C349.723 221.312 336.964 227.545 331.543 228.916C331.191 229.005 330.83 229.094 330.462 229.185C325.229 230.483 318.716 232.098 319.772 236.791C319.812 236.973 319.729 237.161 319.569 237.254C319.542 237.269 316.83 238.859 316.779 241.049C316.748 242.442 317.798 243.829 319.901 245.171C319.975 245.218 320.031 245.285 320.066 245.365C320.091 245.419 323.18 251.367 347.225 241.912C347.679 241.73 349.046 242.065 355.207 243.697C359.021 244.707 364.243 246.092 370.218 247.522C370.446 247.576 370.588 247.806 370.533 248.036C370.487 248.232 370.313 248.363 370.12 248.363L370.116 248.365Z" fill="black"/>
<path d="M320.261 244.281C320.228 244.281 320.195 244.277 320.163 244.27C319.934 244.215 319.793 243.985 319.847 243.755C320.422 241.354 322.459 239.925 323.621 239.286C325.04 238.509 326.602 238.05 328.112 237.607C328.415 237.518 328.719 237.429 329.022 237.336C334.058 235.81 338.826 233.549 343.193 230.616C344.693 229.608 346.193 228.461 347.017 226.904C347.127 226.697 347.384 226.616 347.593 226.726C347.801 226.836 347.881 227.094 347.77 227.303C346.86 229.026 345.261 230.254 343.668 231.322C339.23 234.303 334.387 236.599 329.27 238.151C328.964 238.244 328.659 238.333 328.354 238.424C326.886 238.855 325.369 239.3 324.031 240.033C322.262 241.004 321.038 242.432 320.677 243.952C320.63 244.148 320.456 244.279 320.263 244.279L320.261 244.281Z" fill="black"/>
<path d="M321.485 236.72C321.293 236.72 321.117 236.588 321.071 236.395C321.015 236.167 321.156 235.936 321.384 235.88L328.278 234.209C332.049 233.294 335.949 232.35 339.177 230.108C339.37 229.973 339.635 230.023 339.771 230.216C339.904 230.41 339.856 230.675 339.662 230.81C336.304 233.141 332.146 234.149 328.479 235.037L321.585 236.708C321.552 236.716 321.517 236.72 321.485 236.72Z" fill="black"/>
<path d="M424.458 256.063C414.06 256.063 401.972 254.795 388.333 252.269C388.219 252.248 388.118 252.182 388.055 252.085C387.991 251.989 387.97 251.871 387.995 251.756C390.778 239.27 391.496 226.508 390.131 213.826C390.117 213.706 390.156 213.586 390.237 213.497C390.318 213.408 390.432 213.356 390.552 213.354L414.477 213.219L398.212 159.84C398.142 159.615 398.27 159.375 398.494 159.308C398.72 159.238 398.958 159.366 399.025 159.59L415.458 213.516C415.496 213.646 415.473 213.785 415.394 213.894C415.314 214.002 415.187 214.066 415.053 214.068L391.026 214.203C392.319 226.676 391.61 239.223 388.921 251.509C408.753 255.153 425.263 256.109 437.997 254.358C447.989 252.983 455.026 248.907 458.914 242.243C465.098 231.64 463.511 214.341 454.197 190.822C454.11 190.603 454.218 190.355 454.436 190.268C454.653 190.181 454.902 190.29 454.989 190.508C464.406 214.282 465.974 231.832 459.65 242.672C455.623 249.574 448.378 253.79 438.114 255.202C433.956 255.774 429.398 256.061 424.46 256.061L424.458 256.063Z" fill="black"/>
<path d="M349.668 128.657C349.462 128.657 349.28 128.506 349.247 128.295C349.212 128.063 349.371 127.844 349.605 127.809C349.81 127.778 370.096 124.645 372.842 119.286C375.616 113.87 374.394 108.233 374.382 108.177C374.33 107.946 374.475 107.718 374.705 107.668C374.935 107.616 375.163 107.761 375.214 107.991C375.268 108.233 376.513 113.988 373.599 119.675C370.657 125.42 350.587 128.523 349.732 128.653C349.711 128.657 349.69 128.658 349.668 128.658V128.657Z" fill="#5479F7"/>
<path d="M346.061 129.477L352.213 128.093C352.829 127.954 353.216 127.342 353.078 126.726L353.009 126.423C352.871 125.806 352.26 125.419 351.644 125.558L345.491 126.942C344.876 127.08 344.489 127.692 344.627 128.308L344.696 128.612C344.834 129.228 345.445 129.615 346.061 129.477Z" fill="#5479F7"/>
<path d="M371.617 109.382L380.419 107.402C383.174 106.783 384.904 104.046 384.285 101.29L380.037 82.379C379.417 79.6231 376.683 77.8912 373.929 78.5107L365.126 80.4909C362.372 81.1105 360.641 83.8469 361.26 86.6029L365.509 105.514C366.128 108.27 368.863 110.002 371.617 109.382Z" fill="#5479F7"/>
<path d="M369.728 106.916C369.144 106.916 368.615 106.511 368.481 105.917L363.786 85.0254C363.71 84.6927 363.77 84.3503 363.954 84.062C364.136 83.7738 364.42 83.5726 364.752 83.4972L375.534 81.0714C376.224 80.9147 376.906 81.3519 377.061 82.0386L381.757 102.931C381.832 103.263 381.772 103.606 381.588 103.894C381.407 104.182 381.122 104.383 380.79 104.459L370.009 106.885C369.914 106.906 369.821 106.916 369.728 106.916ZM375.814 81.8916C375.783 81.8916 375.752 81.8955 375.721 81.9013L364.94 84.3271C364.71 84.3793 364.567 84.6076 364.617 84.8358L369.313 105.728C369.338 105.838 369.403 105.933 369.5 105.995C369.597 106.057 369.711 106.076 369.821 106.051L380.602 103.625C380.833 103.573 380.976 103.345 380.925 103.116L376.23 82.2243C376.185 82.027 376.009 81.8916 375.814 81.8916Z" fill="black"/>
<path d="M370.663 82.474C370.468 82.474 370.292 82.3405 370.248 82.1412L366.77 66.6696C365.405 60.5993 359.358 56.7691 353.296 58.1368C352.75 58.2586 352.213 58.4231 351.697 58.6223C351.478 58.7074 351.231 58.5991 351.146 58.3786C351.061 58.16 351.171 57.9124 351.39 57.8273C351.944 57.6125 352.524 57.4365 353.108 57.305C359.636 55.8367 366.134 59.9532 367.601 66.4819L371.079 81.9536C371.131 82.1838 370.986 82.4121 370.756 82.4624C370.725 82.4701 370.692 82.472 370.661 82.472L370.663 82.474Z" fill="#5479F7"/>
</g>
<path d="M168.435 200.333C166.776 186.506 155.169 177.104 146.878 161.064C138.586 145.024 143.01 113.498 138.034 111.287C133.674 109.349 117.004 109.532 100.3 109.608C83.595 109.532 66.9252 109.347 62.5658 111.287C57.5917 113.5 62.0129 145.026 53.7215 161.064C45.4301 177.104 33.8232 186.506 32.1645 200.333C30.5059 214.161 44.8772 353.653 44.8772 353.653L155.72 353.228C155.72 353.228 170.092 214.162 168.433 200.335L168.435 200.333ZM91.8614 162.171C91.6893 164.575 67.2944 164.575 67.2944 162.623C67.2944 158.712 69.2005 131.198 71.9631 124.561C74.7275 117.924 91.8614 119.031 91.8614 119.031V162.171ZM108.742 162.171V119.031C108.742 119.031 125.876 117.924 128.64 124.561C131.405 131.198 133.309 158.712 133.309 162.623C133.309 164.577 108.914 164.577 108.742 162.171Z" fill="#E2EAFF"/>
<path d="M135.378 172.812L124.058 205.928C123.335 208.044 121.535 209.613 119.341 210.039L114.301 211.019C114.301 211.019 127.404 239.485 149.489 234.716C171.573 229.948 166.717 211.019 166.717 211.019L162.045 210.642C159.247 210.416 157.33 207.721 158.031 205.001L163.282 184.649C163.282 184.649 141.882 167.39 135.376 172.81L135.378 172.812Z" fill="white"/>
<path d="M144.601 235.672C137.137 235.672 129.857 232.027 123.302 224.947C117.289 218.451 113.947 211.271 113.914 211.199C113.86 211.081 113.862 210.944 113.922 210.826C113.982 210.71 114.092 210.627 114.219 210.601L119.259 209.621C121.297 209.224 122.981 207.756 123.653 205.79L134.974 172.675C134.999 172.601 135.044 172.535 135.106 172.485C141.8 166.906 162.667 183.606 163.552 184.32C163.682 184.425 163.74 184.597 163.697 184.759L158.447 205.11C158.145 206.284 158.373 207.524 159.077 208.51C159.781 209.499 160.875 210.12 162.083 210.218L166.756 210.596C166.937 210.611 167.088 210.739 167.135 210.915C167.216 211.232 169.079 218.767 164.846 225.622C161.907 230.381 156.773 233.581 149.583 235.134C147.919 235.494 146.256 235.672 144.605 235.672H144.601ZM114.927 211.335C115.783 213.05 118.915 218.96 123.941 224.384C131.838 232.907 140.404 236.244 149.402 234.302C156.351 232.801 161.3 229.735 164.113 225.185C167.703 219.38 166.663 212.869 166.371 211.422L162.014 211.07C160.554 210.952 159.232 210.199 158.383 209.006C157.534 207.812 157.256 206.315 157.623 204.897L162.806 184.813C160.575 183.053 141.678 168.433 135.745 173.067L124.465 206.067C123.694 208.321 121.765 210.004 119.427 210.458L114.931 211.333L114.927 211.335Z" fill="black"/>
<path d="M183.075 131.639C185.008 141.193 177.577 149.856 171.147 151.452C170.919 151.508 170.691 151.558 170.468 151.608C170.331 152.08 170.163 152.556 169.948 153.023C167.42 158.559 160.182 161.254 154.102 160.702C152.339 162.588 150.044 165.215 147.61 168.537C139.837 179.143 134.32 174.373 126.247 163.873C125.172 162.474 123.621 160.691 122.817 157.729C121.22 151.85 123.983 146.556 124.335 145.906C126.97 141.029 130.361 141.209 137.815 136.201C149.147 128.583 149.346 122.762 159.088 119.473C161.667 118.603 164.912 117.551 168.962 118.293C174.857 119.375 181.547 124.095 183.075 131.641V131.639Z" fill="black"/>
<path d="M143.09 177.961C143.09 177.961 148.574 190.632 162.94 188.291C177.305 185.951 177.669 167.668 176.385 148.241C174.949 150.077 171.734 151.489 169.198 152.568C158.867 156.963 149.576 151.2 148.207 150.463C150.668 153.489 150.672 157.598 148.599 160.379C147.455 161.915 145.808 163.022 141.994 163.088C141.994 163.088 139.664 157.002 134.246 160.534C128.827 164.066 130.841 178.971 143.092 177.96L143.09 177.961Z" fill="white"/>
<path d="M159.516 189.005C148.638 189.005 143.68 180.107 142.835 178.408C137.499 178.737 133.337 176.046 131.663 171.156C130.182 166.827 131.215 162.006 134.016 160.182C135.721 159.07 137.323 158.747 138.781 159.221C140.823 159.884 141.926 161.908 142.274 162.66C145.959 162.542 147.332 161.378 148.261 160.13C150.305 157.387 150.148 153.526 147.881 150.736C147.753 150.58 147.753 150.353 147.883 150.195C148.012 150.038 148.234 149.993 148.412 150.092C148.484 150.131 148.577 150.183 148.691 150.247C157.562 155.224 164.651 154.044 169.034 152.181C171.263 151.233 174.632 149.8 176.053 147.982C176.161 147.842 176.345 147.786 176.513 147.837C176.681 147.889 176.801 148.04 176.813 148.216C178.021 166.525 178.052 186.264 163.01 188.715C161.782 188.914 160.618 189.007 159.515 189.007L159.516 189.005ZM143.092 177.536C143.26 177.536 143.415 177.637 143.483 177.793C143.703 178.298 149.021 190.133 162.872 187.872C176.946 185.579 177.143 166.908 176.026 149.256C174.443 150.727 171.885 151.891 169.366 152.963C165.013 154.814 158.105 156.021 149.504 151.647C151.049 154.537 150.881 158.035 148.942 160.637C147.912 162.02 146.28 163.444 142.002 163.517H141.994C141.818 163.517 141.66 163.409 141.596 163.244C141.586 163.219 140.594 160.702 138.51 160.029C137.312 159.64 135.955 159.933 134.478 160.896C131.99 162.519 131.106 166.904 132.467 170.88C134.037 175.466 137.99 177.954 143.055 177.538C143.067 177.538 143.079 177.538 143.09 177.538L143.092 177.536Z" fill="black"/>
<path d="M142.249 172.661C142.071 172.661 141.907 172.551 141.845 172.373C141.53 171.452 141.205 170.502 140.644 169.719C140.053 168.893 139.256 168.388 138.46 168.334C138.224 168.318 138.048 168.113 138.063 167.879C138.081 167.643 138.288 167.473 138.518 167.483C139.567 167.556 140.596 168.189 141.336 169.222C141.97 170.106 142.316 171.118 142.651 172.096C142.726 172.319 142.608 172.561 142.386 172.638C142.342 172.654 142.293 172.661 142.249 172.661Z" fill="black"/>
<path d="M145.723 157.766C145.723 157.766 148.064 167.934 153.129 172.191C158.196 176.449 165.608 167.233 177.153 167.162C177.153 167.162 177.472 185.073 174.898 189.015C171.651 193.99 145.877 195.693 142.858 178.397C142.858 178.397 145.601 170.075 141.762 163.525L145.725 157.768L145.723 157.766Z" fill="black"/>
<path d="M162.584 199.513C155.33 199.513 145.237 198.851 142.337 195.371C137.802 189.924 137.75 183.393 137.75 183.118C137.75 182.882 137.941 182.693 138.175 182.693C138.411 182.693 138.601 182.884 138.601 183.118C138.601 183.182 138.659 189.624 142.991 194.826C147.29 199.989 170.088 198.433 170.318 198.418C170.55 198.399 170.757 198.579 170.773 198.813C170.79 199.047 170.612 199.252 170.378 199.267C170.028 199.292 166.781 199.515 162.582 199.515L162.584 199.513Z" fill="black"/>
<path d="M174.405 199.343H167.741C166.943 199.343 166.297 198.697 166.297 197.898C166.297 197.099 166.943 196.453 167.741 196.453H174.405C175.203 196.453 175.849 197.099 175.849 197.898C175.849 198.697 175.203 199.343 174.405 199.343Z" fill="black"/>
<path d="M142.525 150.855H131.35C128.527 150.855 126.238 153.145 126.238 155.97V178.671C126.238 181.496 128.527 183.785 131.35 183.785H142.525C145.348 183.785 147.637 181.496 147.637 178.671V155.97C147.637 153.145 145.348 150.855 142.525 150.855Z" fill="white"/>
<path d="M142.523 184.211H131.347C128.295 184.211 125.809 181.726 125.809 178.669V155.97C125.809 152.916 128.293 150.428 131.347 150.428H142.523C145.575 150.428 148.062 152.914 148.062 155.97V178.669C148.062 181.724 145.577 184.211 142.523 184.211ZM131.347 151.281C128.762 151.281 126.661 153.384 126.661 155.97V178.669C126.661 181.255 128.762 183.358 131.347 183.358H142.523C145.108 183.358 147.209 181.255 147.209 178.669V155.97C147.209 153.384 145.108 151.281 142.523 151.281H131.347Z" fill="black"/>
<path d="M143.175 180.6H130.696C129.99 180.6 129.418 180.025 129.418 179.321V155.319C129.418 154.613 129.992 154.04 130.696 154.04H143.175C143.88 154.04 144.452 154.615 144.452 155.319V179.321C144.452 180.027 143.878 180.6 143.175 180.6ZM130.696 154.893C130.46 154.893 130.27 155.085 130.27 155.319V179.321C130.27 179.557 130.462 179.747 130.696 179.747H143.175C143.41 179.747 143.6 179.555 143.6 179.321V155.319C143.6 155.083 143.408 154.893 143.175 154.893H130.696Z" fill="black"/>
<path d="M136.308 136.657C136.072 136.657 135.883 136.465 135.883 136.231C135.883 128.817 141.91 122.783 149.322 122.783C149.985 122.783 150.654 122.832 151.308 122.928C151.54 122.963 151.702 123.18 151.667 123.412C151.632 123.644 151.416 123.801 151.184 123.772C150.571 123.681 149.945 123.634 149.324 123.634C142.384 123.634 136.737 129.285 136.737 136.229C136.737 136.465 136.546 136.655 136.312 136.655L136.308 136.657Z" fill="black"/>
<path d="M136.308 151.282C136.072 151.282 135.883 151.09 135.883 150.856V136.232C135.883 135.996 136.074 135.806 136.308 135.806C136.542 135.806 136.733 135.998 136.733 136.232V150.856C136.733 151.092 136.542 151.282 136.308 151.282Z" fill="white"/>
<path d="M136.308 154.291C136.072 154.291 135.883 154.1 135.883 153.866V150.856C135.883 150.62 136.074 150.43 136.308 150.43C136.542 150.43 136.733 150.622 136.733 150.856V153.866C136.733 154.102 136.542 154.291 136.308 154.291Z" fill="black"/>
<path d="M214.011 226.075C207.476 217.244 197.493 211.632 186.559 210.622C180.332 210.048 172.524 209.436 163.817 208.992C163.338 210.56 162.667 212.079 161.797 213.51C159.272 217.668 155.321 220.867 150.915 222.852C146.507 224.839 141.574 225.738 136.758 225.156C132.041 224.585 127.555 222.575 124.295 219.062C121.639 216.197 118.449 212.737 117.633 208.98C109.732 209.429 103.508 210.083 96.0919 211.245C81.939 213.464 69.7522 222.039 62.0233 234.108C45.1601 260.436 26.4102 288.232 26.4102 320.297C26.4102 356.752 45.6995 354.568 113.868 353.585C188.808 352.506 199.137 353.585 199.137 353.585L213.077 353.719H224.021L253.187 353.68C253.187 353.68 236.691 256.726 214.009 226.073L214.011 226.075Z" fill="#5479F7"/>
<path d="M106.094 347.662C105.451 352.012 113.728 352.001 113.728 352.001H140.265L178.699 349.908C178.699 349.908 181.844 298.502 126.915 304.553C126.915 304.553 110.34 318.982 106.094 347.662Z" fill="white"/>
<path d="M150.195 349.211C150.174 349.211 150.154 349.211 150.133 349.207C149.901 349.174 149.739 348.958 149.774 348.724C150.179 345.932 149.526 342.831 147.931 339.99C146.593 337.606 144.616 335.361 141.882 333.119C141.364 332.693 140.805 332.256 140.177 331.979C139.963 331.884 139.864 331.633 139.957 331.418C140.052 331.202 140.303 331.103 140.517 331.198C141.246 331.517 141.857 331.995 142.422 332.457C145.238 334.767 147.284 337.094 148.674 339.57C150.359 342.574 151.049 345.868 150.616 348.846C150.585 349.058 150.404 349.211 150.195 349.211Z" fill="black"/>
<path d="M162.751 348.492C162.542 348.492 162.361 348.339 162.33 348.126C161.858 344.803 161.181 340.912 159.732 337.28C158.233 333.521 156.033 330.453 153.369 328.404C153.184 328.261 153.147 327.994 153.292 327.807C153.435 327.621 153.702 327.584 153.889 327.729C156.675 329.869 158.97 333.062 160.524 336.964C162.007 340.682 162.695 344.632 163.175 348.006C163.207 348.24 163.045 348.455 162.813 348.488C162.792 348.49 162.772 348.492 162.753 348.492H162.751Z" fill="black"/>
<path d="M172.814 348.491C172.796 348.491 172.781 348.491 172.763 348.488C172.53 348.46 172.363 348.248 172.39 348.014C174.082 333.84 164.801 324.996 164.706 324.909C164.534 324.748 164.524 324.479 164.685 324.307C164.845 324.135 165.112 324.125 165.286 324.286C165.383 324.377 174.979 333.5 173.235 348.116C173.21 348.333 173.026 348.491 172.812 348.491H172.814Z" fill="black"/>
<path d="M60.7066 305.886C60.4746 305.886 60.2852 305.7 60.2813 305.468C60.2774 305.232 60.463 305.039 60.6989 305.035L124.061 303.832C124.295 303.847 124.49 304.015 124.494 304.249C124.498 304.485 124.312 304.679 124.077 304.683L60.7143 305.886H60.7066Z" fill="black"/>
<path d="M81.1634 305.042C81.1229 305.042 81.0823 305.036 81.0417 305.025C80.8174 304.957 80.6898 304.719 80.7555 304.493C82.8047 297.664 86.6943 287.062 90.9144 279.649C91.7303 278.215 93.0545 276.329 95.0186 276.383C95.2545 276.391 95.4381 276.589 95.4304 276.823C95.4226 277.053 95.2332 277.235 95.0051 277.235C94.978 277.235 94.9509 277.235 94.9219 277.235C93.4411 277.235 92.3508 278.848 91.6549 280.071C87.4714 287.421 83.6089 297.952 81.5714 304.738C81.5153 304.922 81.3471 305.042 81.1634 305.042Z" fill="black"/>
<path d="M212.287 353.502H64.7846C63.7098 353.502 62.8398 352.632 62.8398 351.556V351.609C62.8398 350.533 63.7098 349.663 64.7846 349.663H212.287C213.362 349.663 214.232 350.533 214.232 351.609V351.556C214.232 352.632 213.362 353.502 212.287 353.502Z" fill="white"/>
<path d="M212.286 353.928H64.7842C63.5063 353.928 62.4624 352.912 62.4141 351.645C62.4141 351.634 62.4141 351.62 62.4141 351.606V351.554C62.4141 351.541 62.4141 351.529 62.4141 351.516C62.4624 350.249 63.5063 349.233 64.7842 349.233H212.286C213.564 349.233 214.608 350.249 214.656 351.516C214.656 351.527 214.656 351.541 214.656 351.554V351.606C214.656 351.62 214.656 351.632 214.656 351.645C214.608 352.912 213.564 353.928 212.286 353.928ZM63.2666 351.581C63.2801 352.407 63.9567 353.075 64.7861 353.075H212.288C213.118 353.075 213.794 352.407 213.808 351.581C213.794 350.755 213.118 350.086 212.288 350.086H64.7842C63.9548 350.086 63.2782 350.753 63.2647 351.581H63.2666Z" fill="black"/>
<path d="M209.417 347.159H195.691V349.513H209.417V347.159Z" fill="black"/>
<path d="M191.12 347.159H177.395V349.513H191.12V347.159Z" fill="black"/>
<path d="M172.815 347.159H159.09V349.513H172.815V347.159Z" fill="black"/>
<path d="M154.511 347.159H140.785V349.513H154.511V347.159Z" fill="black"/>
<path d="M136.21 347.159H122.484V349.513H136.21V347.159Z" fill="black"/>
<path d="M117.909 347.159H104.184V349.513H117.909V347.159Z" fill="black"/>
<path d="M99.6084 347.159H85.8828V349.513H99.6084V347.159Z" fill="black"/>
<path d="M81.3077 347.159H67.582V349.513H81.3077V347.159Z" fill="black"/>
<path d="M270.35 308.867V340.942C270.35 345.306 268.012 349.337 264.227 351.502L260.175 353.821H223.77L229.619 351.214C234.004 349.258 236.83 344.905 236.83 340.1V308.867H270.35Z" fill="black"/>
<path d="M326.385 214.996H178.639C173.954 214.996 170.156 218.796 170.156 223.484V301.085C170.156 305.772 173.954 309.573 178.639 309.573H326.385C331.07 309.573 334.868 305.772 334.868 301.085V223.484C334.868 218.796 331.07 214.996 326.385 214.996Z" fill="black"/>
<path d="M274.498 308.888H246.308C246.072 308.888 245.883 308.696 245.883 308.462C245.883 308.228 246.074 308.037 246.308 308.037H274.498C274.734 308.037 274.923 308.228 274.923 308.462C274.923 308.696 274.732 308.888 274.498 308.888Z" fill="white"/>
<path d="M178.625 303.002C178.389 303.002 178.199 302.81 178.199 302.576V221.995C178.199 221.759 178.391 221.569 178.625 221.569C178.858 221.569 179.05 221.761 179.05 221.995V302.576C179.05 302.812 178.858 303.002 178.625 303.002Z" fill="white"/>
<path d="M326.398 279.631H299.867C299.631 279.631 299.441 279.44 299.441 279.206C299.441 278.972 299.633 278.78 299.867 278.78H326.398C326.634 278.78 326.823 278.972 326.823 279.206C326.823 279.44 326.632 279.631 326.398 279.631Z" fill="white"/>
<path d="M326.398 283.717H299.867C299.631 283.717 299.441 283.525 299.441 283.291C299.441 283.057 299.633 282.866 299.867 282.866H326.398C326.634 282.866 326.823 283.057 326.823 283.291C326.823 283.525 326.632 283.717 326.398 283.717Z" fill="white"/>
<path d="M326.398 287.802H299.867C299.631 287.802 299.441 287.611 299.441 287.377C299.441 287.143 299.633 286.951 299.867 286.951H326.398C326.634 286.951 326.823 287.143 326.823 287.377C326.823 287.611 326.632 287.802 326.398 287.802Z" fill="white"/>
<path d="M326.398 291.888H299.867C299.631 291.888 299.441 291.697 299.441 291.463C299.441 291.229 299.633 291.037 299.867 291.037H326.398C326.634 291.037 326.823 291.229 326.823 291.463C326.823 291.697 326.632 291.888 326.398 291.888Z" fill="white"/>
<path d="M104.905 43.4361L108.596 50.9204L116.849 52.1198C118.476 52.3558 119.128 54.3599 117.949 55.5089L111.977 61.3335L113.386 69.5588C113.665 71.1818 111.962 72.4198 110.506 71.6538L103.125 67.7713L95.744 71.6538C94.2884 72.4198 92.5852 71.1818 92.8636 69.5588L94.2729 61.3335L88.3013 55.5089C87.122 54.3599 87.7735 52.3577 89.4013 52.1198L97.654 50.9204L101.344 43.4361C102.073 41.9601 104.177 41.9601 104.905 43.4361Z" fill="#5479F7"/>
<path d="M145.472 43.4361L149.162 50.9204L157.415 52.1198C159.043 52.3558 159.694 54.3599 158.515 55.5089L152.543 61.3335L153.953 69.5588C154.231 71.1818 152.528 72.4198 151.072 71.6538L143.691 67.7713L136.31 71.6538C134.855 72.4198 133.152 71.1818 133.43 69.5588L134.839 61.3335L128.868 55.5089C127.688 54.3599 128.34 52.3577 129.968 52.1198L138.22 50.9204L141.911 43.4361C142.64 41.9601 144.743 41.9601 145.472 43.4361Z" fill="#5479F7"/>
<path d="M186.036 43.4361L189.727 50.9204L197.979 52.1198C199.607 52.3558 200.259 54.3599 199.079 55.5089L193.108 61.3335L194.517 69.5588C194.796 71.1818 193.092 72.4198 191.637 71.6538L184.256 67.7713L176.873 71.6538C175.417 72.4198 173.714 71.1818 173.993 69.5588L175.402 61.3335L169.43 55.5089C168.251 54.3599 168.902 52.3577 170.53 52.1198L178.783 50.9204L182.473 43.4361C183.202 41.9601 185.306 41.9601 186.034 43.4361H186.036Z" fill="#5479F7"/>
<path d="M226.597 43.4361L230.287 50.9204L238.54 52.1198C240.168 52.3558 240.819 54.3599 239.64 55.5089L233.668 61.3335L235.078 69.5588C235.356 71.1818 233.653 72.4198 232.197 71.6538L224.816 67.7713L217.435 71.6538C215.98 72.4198 214.277 71.1818 214.555 69.5588L215.964 61.3335L209.993 55.5089C208.813 54.3599 209.465 52.3577 211.093 52.1198L219.345 50.9204L223.036 43.4361C223.765 41.9601 225.868 41.9601 226.597 43.4361Z" fill="#5479F7"/>
<path d="M267.163 43.4361L270.854 50.9204L279.106 52.1198C280.734 52.3558 281.386 54.3599 280.206 55.5089L274.235 61.3335L275.644 69.5588C275.923 71.1818 274.219 72.4198 272.764 71.6538L265.383 67.7713L258.002 71.6538C256.546 72.4198 254.843 71.1818 255.121 69.5588L256.531 61.3335L250.559 55.5089C249.38 54.3599 250.031 52.3577 251.659 52.1198L259.912 50.9204L263.602 43.4361C264.331 41.9601 266.434 41.9601 267.163 43.4361Z" fill="#E2EAFF"/>
<path d="M275.697 103.249L275.762 119.141L288.883 128.095C291.471 129.861 290.913 133.833 287.936 134.814L272.853 139.787L268.397 155.04C267.517 158.05 263.572 158.745 261.718 156.214L252.33 143.397L236.455 143.869C233.323 143.962 231.444 140.422 233.275 137.876L242.556 124.981L237.201 110.02C236.143 107.068 238.929 104.186 241.914 105.141L257.039 109.989L269.605 100.27C272.085 98.3533 275.685 100.112 275.698 103.247L275.697 103.249Z" fill="#5479F7"/>
<path d="M298.969 199.77C298.952 199.77 298.934 199.77 298.915 199.766C283.614 197.849 271.79 187.432 264.568 179.033C256.758 169.951 252.491 161.197 252.449 161.11C252.346 160.898 252.435 160.644 252.646 160.542C252.859 160.439 253.112 160.528 253.214 160.739C253.257 160.826 257.483 169.494 265.225 178.493C272.349 186.773 283.995 197.039 299.019 198.921C299.253 198.95 299.418 199.163 299.389 199.397C299.362 199.612 299.178 199.77 298.967 199.77H298.969Z" fill="black"/>
<path d="M303.428 189.264C303.411 189.264 303.393 189.264 303.374 189.26C287.468 187.268 276.106 175.307 269.377 165.625C269.243 165.432 269.29 165.167 269.483 165.032C269.676 164.898 269.941 164.945 270.077 165.138C276.707 174.679 287.885 186.461 303.48 188.415C303.714 188.444 303.878 188.657 303.849 188.891C303.822 189.106 303.639 189.264 303.428 189.264Z" fill="black"/>
<path d="M245.432 95.5946C245.22 95.5946 245.034 95.434 245.009 95.2174C244.947 94.697 243.602 82.394 251.168 76.6951C251.358 76.5539 251.624 76.5926 251.766 76.7783C251.907 76.9659 251.87 77.2329 251.683 77.376C244.51 82.7809 245.842 94.9968 245.858 95.1187C245.885 95.3528 245.717 95.5636 245.485 95.5907C245.467 95.5927 245.452 95.5927 245.434 95.5927L245.432 95.5946Z" fill="black"/>
<path d="M254.142 102.715C253.932 102.715 253.748 102.559 253.721 102.344C253.63 101.651 251.608 85.288 260.05 76.7359C260.216 76.5695 260.485 76.5676 260.653 76.732C260.821 76.8983 260.821 77.1672 260.657 77.3355C252.511 85.5879 254.546 102.067 254.566 102.234C254.597 102.468 254.432 102.681 254.198 102.712C254.179 102.713 254.162 102.715 254.142 102.715Z" fill="black"/>
</svg>
