<svg width="620" height="496" viewBox="0 0 620 496" fill="none" xmlns="http://www.w3.org/2000/svg">
<path d="M620 0H0V496H620V0Z" fill="white"/>
<g opacity="0.2">
<path d="M159.238 141.6C152.38 138.375 141.039 143.618 137.423 151.291C130.52 165.938 152.846 187.151 160.965 184.874C170.037 182.33 171.829 147.521 159.238 141.6Z" stroke="#0F31AC" stroke-width="3" stroke-miterlimit="10" stroke-linecap="round" stroke-dasharray="50 50 50 50 50 50"/>
<path d="M124.94 174.776C122.492 173.36 96.568 158.364 81.8967 170.232C71.5953 178.566 71.4967 196.378 79.238 206.389C94.5704 226.217 142.115 217.328 147.048 203.14C150.37 193.586 134.773 180.464 124.94 174.776Z" stroke="#0F31AC" stroke-width="3" stroke-miterlimit="10" stroke-linecap="round" stroke-dasharray="50 50 50 50 50 50"/>
<path d="M158.296 419.616C221.399 403.953 293.099 388.008 404.436 390.724C466.703 392.243 480.813 372.92 528.003 348.895C570.065 327.483 590.724 284.903 578.036 260.772C565.227 236.409 526.212 246.109 494.259 209.844C479.708 193.327 482.269 181.75 473.868 163.434C447.263 105.438 347.551 60.1075 298.381 84.0978C233.422 115.791 288.956 252.733 216.343 290.141C170.412 313.805 135.696 268.378 90.3442 303.056C67.8729 320.238 40.3896 344.341 38.2642 370.512C38.2642 370.512 35.2882 434.496 158.296 419.616Z" stroke="#0F31AC" stroke-width="3" stroke-miterlimit="10" stroke-linecap="round" stroke-dasharray="50 50 50 50 50 50"/>
<path d="M506.93 348.353C506.93 348.353 495.499 363.508 484.067 384.302C473.76 403.053 465.922 428.32 464.191 449.414C459.336 449.185 454.004 448.969 448.239 448.765C414.097 447.553 364.807 446.794 310 446.794C247.693 446.794 192.517 447.776 158.621 449.287C157.454 449.339 156.312 449.391 155.196 449.444C112.879 396.993 27.6648 305.614 106.085 268.022C106.085 268.022 111.83 266.273 120.443 262.514C147.703 250.616 203.721 218.601 197.49 158.236C197.49 158.236 195.367 146.972 195.367 131.299C195.367 94.6492 206.97 33.8991 284.43 36.6718C331.338 38.3532 374.539 62.2232 400.657 100.43C426.275 137.904 467.237 184.011 500.596 157.688C508.296 151.61 518.478 149.358 527.984 152.03C551.995 158.775 579.273 193.689 506.93 348.353Z" fill="#ACBCF8"/>
</g>
<path opacity="0.15" d="M569.219 451.456C569.219 453.936 453.163 455.947 310 455.947C229.222 455.947 157.075 455.307 109.534 454.303C98.5844 454.072 88.9413 453.822 80.7988 453.556C75.4354 453.38 70.7232 453.197 66.7172 453.009C56.4105 452.526 50.7812 452.003 50.7812 451.456C50.7812 450.76 59.9178 450.101 76.2249 449.514C82.9032 449.272 90.7832 449.043 99.731 448.83C146.812 447.7 223.453 446.965 310 446.965C386.128 446.965 454.592 447.533 502.017 448.439C543.774 449.236 569.219 450.295 569.219 451.456Z" fill="#040C2B"/>
<path d="M358.368 373.323V426.873C358.368 428.538 358.204 430.163 357.889 431.736C355.631 443.033 345.657 451.546 333.696 451.546H301.77C295.324 451.546 289.454 449.073 285.059 445.024C281.299 441.561 278.619 436.945 277.577 431.736C277.262 430.164 277.098 428.538 277.098 426.873V373.323L358.368 373.323Z" fill="#829CF8"/>
<path d="M358.368 380.434H277.098V386.631H358.368V380.434Z" fill="white"/>
<path d="M358.368 395.469H277.098V401.666H358.368V395.469Z" fill="white"/>
<path d="M358.368 410.504H277.098V416.701H358.368V410.504Z" fill="white"/>
<path d="M358.368 425.539V426.873C358.368 428.538 358.204 430.163 357.889 431.736H277.577C277.262 430.163 277.098 428.538 277.098 426.873V425.539H358.368Z" fill="white"/>
<path opacity="0.1" d="M358.368 373.323V426.873C358.368 428.538 358.203 430.163 357.888 431.736C355.63 443.033 345.656 451.546 333.695 451.546H301.77C295.323 451.546 289.453 449.073 285.059 445.024C296.574 448.325 307.66 447.477 316.406 445.528C331.047 442.264 342.079 430.27 344.118 415.41C346.074 401.156 344.894 384.504 343.612 373.323L358.368 373.323Z" fill="black"/>
<path d="M341.178 322.873C339.316 321.009 336.741 319.855 333.898 319.855H325.49C321.231 319.855 317.78 316.404 317.78 312.145V284.101H293.005C289.663 284.945 287.19 287.968 287.19 291.572V299.979C287.19 302.822 286.036 305.398 284.174 307.26C282.31 309.125 279.736 310.276 276.892 310.276C274.049 310.276 271.475 309.125 269.611 307.26C267.749 305.397 266.595 302.822 266.595 299.979V291.572C266.595 287.968 264.122 284.945 260.779 284.101H239.473C243.092 312.391 257.418 348.993 277.089 373.364V373.356H317.78V348.162C317.78 346.1 318.59 344.224 319.909 342.842C319.983 342.764 320.06 342.688 320.138 342.613C321.525 341.273 323.41 340.451 325.49 340.451H333.898C336.653 340.451 339.155 339.368 341.002 337.607C341.05 337.561 341.099 337.514 341.146 337.466C341.205 337.409 341.263 337.349 341.319 337.29C343.102 335.44 344.196 332.924 344.196 330.153C344.196 327.31 343.043 324.735 341.178 322.873Z" fill="#0F31AC"/>
<path d="M395.767 284.101C391.7 310.465 376.929 347.622 358.255 373.356H317.747V348.194C317.747 346.114 318.57 344.228 319.909 342.842C319.983 342.764 320.06 342.688 320.138 342.613C321.521 341.294 323.396 340.484 325.458 340.484H333.865C336.636 340.484 339.152 339.389 341.002 337.607C341.051 337.561 341.099 337.514 341.147 337.466C341.206 337.409 341.263 337.349 341.319 337.29C343.082 335.443 344.163 332.941 344.163 330.186C344.163 327.343 343.012 324.768 341.147 322.905C339.284 321.041 336.709 319.889 333.865 319.889H325.458C321.2 319.889 317.747 316.436 317.747 312.179V284.357H317.652V284.181H317.747V284.135H317.652V284.101H341.821C342.346 284.013 342.854 283.871 343.339 283.68C343.834 283.489 344.304 283.245 344.742 282.958C344.962 282.816 345.174 282.662 345.377 282.496C345.489 282.408 345.598 282.314 345.704 282.217C345.752 282.172 345.8 282.127 345.848 282.083C345.886 282.048 345.924 282.011 345.96 281.974C345.997 281.937 346.033 281.9 346.07 281.863C346.216 281.713 346.356 281.557 346.487 281.396C346.554 281.315 346.619 281.233 346.682 281.15C346.714 281.109 346.746 281.067 346.775 281.025C346.899 280.856 347.016 280.681 347.123 280.502C347.151 280.457 347.178 280.411 347.204 280.366C347.231 280.321 347.257 280.275 347.282 280.229C347.309 280.183 347.333 280.137 347.357 280.09C347.407 279.996 347.454 279.903 347.498 279.807C347.589 279.616 347.672 279.422 347.747 279.222C347.767 279.173 347.784 279.123 347.802 279.073C347.82 279.023 347.837 278.972 347.854 278.922C347.872 278.871 347.888 278.82 347.902 278.768C347.918 278.722 347.932 278.676 347.944 278.629C347.978 278.514 348.007 278.397 348.035 278.281C348.043 278.248 348.051 278.216 348.058 278.182C348.066 278.145 348.074 278.108 348.081 278.071C348.094 278.015 348.105 277.959 348.115 277.901C348.124 277.852 348.133 277.804 348.14 277.754C348.17 277.574 348.193 277.392 348.209 277.209C348.213 277.174 348.216 277.14 348.218 277.105C348.221 277.073 348.223 277.04 348.225 277.007C348.229 276.952 348.231 276.897 348.234 276.841C348.235 276.821 348.236 276.801 348.236 276.782C348.24 276.69 348.241 276.597 348.241 276.504V268.097C348.241 265.253 349.395 262.678 351.258 260.816C353.122 258.951 355.695 257.799 358.539 257.799C361.383 257.799 363.957 258.951 365.82 260.816C367.683 262.678 368.837 265.253 368.837 268.097V276.504C368.837 276.597 368.838 276.69 368.842 276.782C368.842 276.801 368.843 276.821 368.844 276.841C368.847 276.897 368.849 276.952 368.853 277.007C368.855 277.04 368.857 277.073 368.86 277.105C368.862 277.14 368.865 277.174 368.869 277.209C368.885 277.392 368.908 277.574 368.938 277.754C368.945 277.804 368.954 277.852 368.963 277.901C368.974 277.959 368.984 278.015 368.997 278.071C369.004 278.108 369.012 278.145 369.021 278.182C369.027 278.216 369.035 278.248 369.043 278.281C369.071 278.397 369.1 278.514 369.133 278.629C369.146 278.676 369.16 278.722 369.176 278.768C369.19 278.82 369.206 278.871 369.224 278.922C369.241 278.972 369.257 279.023 369.275 279.073C369.293 279.123 369.311 279.173 369.33 279.222C369.406 279.422 369.488 279.616 369.58 279.807C369.623 279.903 369.671 279.996 369.721 280.09C369.745 280.137 369.769 280.183 369.796 280.229C369.82 280.275 369.847 280.321 369.874 280.366C369.9 280.411 369.927 280.457 369.955 280.502C370.062 280.681 370.179 280.856 370.303 281.025C370.332 281.067 370.364 281.109 370.396 281.15C370.459 281.233 370.524 281.315 370.59 281.396C370.722 281.557 370.862 281.713 371.007 281.863C371.043 281.9 371.08 281.937 371.117 281.974C371.153 282.011 371.192 282.048 371.23 282.083C371.277 282.127 371.325 282.172 371.373 282.217C371.441 282.278 371.509 282.339 371.579 282.396C371.619 282.431 371.66 282.464 371.701 282.496C371.904 282.662 372.115 282.816 372.335 282.958C372.379 282.988 372.424 283.016 372.467 283.042C372.512 283.072 372.557 283.098 372.601 283.124C372.962 283.34 373.342 283.527 373.739 283.68C374.224 283.871 374.731 284.013 375.257 284.101H395.767V284.101Z" fill="#ACBCF8"/>
<path d="M396.882 271.063C396.882 274.939 396.503 279.285 395.786 283.973H374.653C374.34 283.894 374.034 283.795 373.737 283.68C373.341 283.525 372.961 283.339 372.6 283.124C372.555 283.097 372.51 283.069 372.466 283.042C372.421 283.014 372.377 282.986 372.334 282.957C372.114 282.814 371.903 282.659 371.699 282.496C371.658 282.462 371.619 282.429 371.578 282.396C371.509 282.337 371.44 282.277 371.372 282.217C371.323 282.172 371.276 282.127 371.228 282.082C371.19 282.047 371.153 282.011 371.116 281.974C371.079 281.937 371.042 281.9 371.006 281.862C370.86 281.713 370.722 281.557 370.589 281.396C370.522 281.315 370.457 281.233 370.394 281.15C370.362 281.108 370.332 281.067 370.301 281.025C370.178 280.854 370.062 280.681 369.953 280.501C369.925 280.457 369.898 280.411 369.873 280.366C369.846 280.32 369.82 280.275 369.795 280.229C369.769 280.183 369.745 280.137 369.719 280.09C369.67 279.996 369.623 279.903 369.578 279.807C369.486 279.616 369.404 279.422 369.329 279.222C369.31 279.172 369.292 279.122 369.274 279.072C369.256 279.023 369.239 278.971 369.223 278.922C369.206 278.87 369.189 278.819 369.174 278.768C369.16 278.722 369.146 278.676 369.132 278.629C369.099 278.513 369.069 278.397 369.041 278.281C369.033 278.247 369.026 278.215 369.019 278.182C369.01 278.145 369.003 278.108 368.995 278.071C368.982 278.015 368.972 277.958 368.962 277.901C368.953 277.852 368.944 277.804 368.936 277.754C368.907 277.573 368.884 277.392 368.867 277.209C368.863 277.174 368.861 277.14 368.858 277.105C368.856 277.072 368.853 277.04 368.852 277.007C368.848 276.952 368.845 276.895 368.843 276.84C368.842 276.821 368.84 276.801 368.84 276.781C368.836 276.689 368.835 276.597 368.835 276.504V268.097C368.835 265.253 367.681 262.678 365.819 260.815C363.955 258.95 361.381 257.799 358.537 257.799C355.694 257.799 353.12 258.95 351.256 260.815C349.394 262.678 348.24 265.253 348.24 268.097V276.504C348.24 276.597 348.239 276.689 348.235 276.781C348.235 276.801 348.233 276.821 348.232 276.84C348.229 276.895 348.227 276.952 348.223 277.007C348.222 277.04 348.219 277.072 348.217 277.105C348.214 277.14 348.212 277.174 348.208 277.209C348.191 277.392 348.168 277.573 348.139 277.754C348.131 277.804 348.122 277.852 348.113 277.901C348.103 277.958 348.093 278.015 348.08 278.071C348.072 278.108 348.065 278.145 348.057 278.182C348.049 278.215 348.041 278.247 348.034 278.281C348.006 278.397 347.976 278.513 347.943 278.629C347.929 278.676 347.915 278.722 347.901 278.768C347.885 278.819 347.869 278.87 347.852 278.922C347.836 278.971 347.819 279.023 347.801 279.072C347.783 279.122 347.765 279.172 347.746 279.222C347.67 279.422 347.587 279.616 347.496 279.807C347.452 279.903 347.404 279.996 347.356 280.09C347.33 280.137 347.306 280.183 347.28 280.229C347.255 280.275 347.229 280.32 347.202 280.366C347.176 280.411 347.15 280.457 347.122 280.501C347.013 280.681 346.896 280.854 346.774 281.025C346.743 281.067 346.712 281.108 346.68 281.15C346.617 281.233 346.552 281.315 346.486 281.396C346.353 281.557 346.213 281.713 346.069 281.862C346.032 281.9 345.996 281.937 345.959 281.974C345.922 282.011 345.885 282.047 345.846 282.082C345.799 282.127 345.75 282.172 345.703 282.217C345.597 282.313 345.487 282.405 345.375 282.496C345.172 282.659 344.961 282.814 344.741 282.957C344.302 283.243 343.833 283.486 343.338 283.68C343.041 283.795 342.735 283.894 342.422 283.973H317.651V255.212C317.651 255.21 317.651 255.207 317.65 255.205C317.646 255.148 317.639 255.092 317.634 255.036C317.633 255.031 317.632 255.026 317.632 255.019C317.625 254.962 317.618 254.904 317.61 254.845C317.601 254.785 317.592 254.725 317.583 254.665C317.554 254.483 317.518 254.305 317.477 254.129C317.463 254.07 317.449 254.011 317.433 253.954C317.389 253.778 317.336 253.607 317.28 253.438C317.261 253.382 317.241 253.325 317.221 253.269C317.2 253.213 317.18 253.157 317.158 253.102C317.136 253.047 317.115 252.992 317.092 252.936C317.057 252.855 317.021 252.773 316.986 252.693C316.984 252.692 316.986 252.692 316.986 252.692C316.948 252.612 316.91 252.532 316.871 252.453C316.844 252.401 316.817 252.348 316.79 252.297C316.762 252.244 316.734 252.193 316.705 252.141C316.648 252.038 316.588 251.937 316.526 251.838C316.465 251.739 316.401 251.641 316.334 251.543C316.301 251.496 316.268 251.447 316.233 251.4C316.2 251.353 316.166 251.306 316.13 251.259C316.095 251.212 316.059 251.166 316.022 251.12C315.952 251.029 315.878 250.939 315.802 250.853C315.801 250.853 315.8 250.851 315.8 250.85C315.685 250.718 315.566 250.59 315.443 250.466C315.402 250.424 315.361 250.383 315.319 250.343C315.276 250.302 315.234 250.263 315.191 250.223C315.114 250.153 315.037 250.084 314.958 250.017C314.857 249.933 314.755 249.85 314.65 249.769C314.606 249.736 314.561 249.703 314.517 249.671C314.422 249.6 314.325 249.532 314.226 249.467C314.178 249.435 314.129 249.403 314.079 249.373C314.029 249.341 313.979 249.31 313.929 249.28C313.724 249.156 313.51 249.043 313.292 248.938C313.191 248.889 313.089 248.843 312.985 248.799C312.943 248.782 312.901 248.764 312.859 248.747C312.735 248.697 312.608 248.65 312.482 248.605C312.436 248.59 312.388 248.574 312.342 248.559C312.276 248.539 312.21 248.518 312.144 248.499C312.091 248.482 312.039 248.468 311.986 248.454C311.856 248.418 311.723 248.386 311.59 248.358C311.541 248.348 311.493 248.338 311.444 248.329C311.369 248.313 311.293 248.301 311.216 248.288C311.177 248.281 311.136 248.275 311.095 248.269C310.728 248.216 310.353 248.188 309.972 248.188H301.563C298.721 248.188 296.146 247.034 294.283 245.17C292.418 243.308 291.266 240.733 291.266 237.89C291.266 235.047 292.418 232.472 294.283 230.609C296.146 228.745 298.721 227.593 301.563 227.593H309.972C310.353 227.593 310.728 227.564 311.095 227.512C311.136 227.506 311.177 227.499 311.216 227.493C311.32 227.476 311.424 227.457 311.526 227.435C311.578 227.425 311.63 227.414 311.682 227.402C311.818 227.371 311.952 227.337 312.085 227.298C312.13 227.287 312.173 227.273 312.218 227.26C312.294 227.237 312.369 227.213 312.444 227.187C312.503 227.168 312.561 227.146 312.62 227.126C312.648 227.115 312.676 227.105 312.704 227.094C312.744 227.08 312.782 227.064 312.822 227.048C313.376 226.828 313.899 226.545 314.381 226.207C314.426 226.175 314.471 226.143 314.514 226.111C314.56 226.078 314.605 226.045 314.65 226.01C314.755 225.931 314.857 225.848 314.958 225.762C315.038 225.696 315.114 225.626 315.191 225.556C315.235 225.516 315.277 225.477 315.319 225.436C315.361 225.396 315.402 225.355 315.443 225.313C315.545 225.211 315.645 225.103 315.742 224.994C315.84 224.886 315.933 224.773 316.023 224.659C316.095 224.567 316.166 224.474 316.234 224.379C316.268 224.332 316.301 224.283 316.335 224.236C316.467 224.043 316.59 223.843 316.706 223.639C316.734 223.586 316.762 223.535 316.79 223.483C316.817 223.431 316.844 223.379 316.871 223.326C316.95 223.168 317.023 223.007 317.092 222.843C317.137 222.733 317.18 222.623 317.221 222.51C317.261 222.4 317.299 222.288 317.335 222.174C317.335 222.174 317.335 222.173 317.335 222.171C317.371 222.057 317.403 221.942 317.434 221.826C317.449 221.767 317.463 221.709 317.477 221.651C317.518 221.474 317.554 221.295 317.583 221.115C317.592 221.055 317.601 220.994 317.61 220.934C317.618 220.878 317.624 220.822 317.632 220.765C317.632 220.755 317.633 220.746 317.634 220.737C317.64 220.686 317.645 220.636 317.65 220.585C317.65 220.579 317.651 220.573 317.651 220.567V194.68H317.73C361.445 194.68 396.882 228.878 396.882 271.063Z" fill="#0F31AC"/>
<path d="M254.295 419.631H242.164V428.072H254.295V419.631Z" fill="#ACBCF8"/>
<path d="M258.706 426.901V449.085C258.706 450.683 257.41 451.98 255.811 451.98H240.645C239.046 451.98 237.75 450.683 237.75 449.085V426.901C237.75 425.011 238.901 423.39 240.541 422.7C241.083 422.472 241.68 422.346 242.305 422.346H254.151C254.776 422.346 255.372 422.473 255.915 422.7C257.555 423.39 258.706 425.011 258.706 426.901Z" fill="#ACBCF8"/>
<path opacity="0.1" d="M254.295 419.631V421.161C254.13 421.24 253.945 421.284 253.751 421.284H242.708C242.513 421.284 242.329 421.24 242.164 421.161V419.631H254.295Z" fill="black"/>
<path d="M252.919 420.752H243.533C242.376 420.752 241.438 419.814 241.438 418.657C241.438 417.499 242.376 416.561 243.533 416.561H252.919C254.076 416.561 255.015 417.499 255.015 418.657C255.015 419.814 254.076 420.752 252.919 420.752Z" fill="#ACBCF8"/>
<path d="M258.706 430.788H237.75V443.538H258.706V430.788Z" fill="#E3E9F7"/>
<path d="M239.373 444.247C239.251 442.455 239.187 440.664 239.144 438.873C239.116 437.977 239.11 437.082 239.094 436.186L239.078 433.499L239.094 430.813C239.11 429.917 239.115 429.021 239.143 428.126C239.155 427.659 239.228 427.188 239.376 426.746C239.524 426.303 239.737 425.884 240.006 425.508C240.548 424.759 241.311 424.181 242.164 423.895C241.364 424.302 240.692 424.92 240.248 425.667C239.796 426.41 239.58 427.272 239.603 428.126C239.631 429.021 239.636 429.917 239.652 430.812L239.668 433.499L239.652 436.186C239.636 437.082 239.63 437.977 239.603 438.873C239.559 440.664 239.495 442.455 239.373 444.247Z" fill="white"/>
<path opacity="0.1" d="M258.706 426.901V449.085C258.706 450.683 257.41 451.98 255.811 451.98H254.277C255.875 451.98 257.172 450.683 257.172 449.085V426.901C257.172 425.011 256.021 423.39 254.381 422.7C253.879 422.489 253.332 422.367 252.759 422.35V420.628C253.186 420.424 253.482 419.99 253.482 419.485V417.828C253.482 417.128 252.915 416.561 252.215 416.561H253.75C254.45 416.561 255.017 417.128 255.017 417.828V419.485C255.017 419.99 254.721 420.424 254.294 420.628V422.35C254.867 422.367 255.414 422.489 255.915 422.7C257.555 423.39 258.706 425.011 258.706 426.901Z" fill="black"/>
<path d="M378.136 398.338C377.859 399.611 377.183 400.854 375.957 402.002L373.896 402.543C373.896 402.543 372.418 401.895 371.118 400.503C369.903 399.205 368.843 397.257 369.286 394.584C369.419 393.783 369.686 392.917 370.124 391.984C370.124 391.984 373.156 387.518 371.267 385.144C371.332 385.199 374.643 388.018 376.694 391.658C377.865 393.738 378.626 396.085 378.136 398.338Z" fill="white"/>
<path opacity="0.1" d="M378.135 398.338C377.858 399.611 377.182 400.854 375.956 402.002L373.895 402.543C373.895 402.543 372.417 401.895 371.117 400.503C372.973 401.383 376.147 402.285 378.135 398.338Z" fill="black"/>
<path d="M378.919 403.455L379.418 405.814L380.452 410.702L380.973 413.168L381.241 414.433L381.762 416.9L388.221 447.442C388.335 447.975 388.008 448.505 387.48 448.643C386.953 448.781 386.408 448.481 386.245 447.961L376.874 418.182L376.118 415.778L375.729 414.544L374.973 412.14L373.473 407.374L372.749 405.074C372.29 403.617 373.144 402.072 374.62 401.685L375.624 401.421C377.101 401.034 378.604 401.96 378.919 403.455Z" fill="#829CF8"/>
<path d="M378.919 403.455L379.418 405.814L373.473 407.374L372.749 405.074C372.29 403.617 373.144 402.072 374.62 401.685L375.624 401.421C377.102 401.034 378.604 401.96 378.919 403.455Z" fill="#0F31AC"/>
<path d="M376.693 391.659C375.611 392.613 374.403 393.381 373.103 393.739C371.792 394.1 370.495 394.374 369.285 394.584C369.418 393.783 369.685 392.917 370.123 391.984C370.123 391.984 373.155 387.518 371.266 385.144C371.331 385.199 374.641 388.018 376.693 391.659Z" fill="#ACBCF8"/>
<path d="M405.616 399.841C403.661 401.718 402.758 403.525 402.687 405.302C402.609 407.204 403.186 408.712 403.186 408.712L405.018 409.799C406.696 409.867 408.055 409.475 409.156 408.778C411.105 407.545 412.242 405.355 412.9 403.062C414.052 399.045 413.735 394.709 413.728 394.623C413.728 394.623 410.452 395.197 405.616 399.841Z" fill="white"/>
<path opacity="0.1" d="M409.156 408.778C408.055 409.476 406.696 409.867 405.018 409.799L403.186 408.712C403.186 408.712 402.609 407.205 402.687 405.302C403.711 406.727 404.887 409.18 409.156 408.778Z" fill="black"/>
<path d="M406.06 412.928L404.731 414.94L401.977 419.108L400.586 421.211L399.873 422.289L398.483 424.392L381.271 450.437C380.971 450.892 380.364 451.03 379.895 450.752C379.427 450.474 379.258 449.875 379.514 449.394L394.137 421.812L395.319 419.586L395.924 418.443L397.105 416.216L399.446 411.802L400.575 409.672C401.29 408.322 402.99 407.845 404.302 408.624L405.195 409.154C406.508 409.934 406.904 411.654 406.06 412.928Z" fill="#F6471E"/>
<path d="M406.059 412.928L404.73 414.94L399.445 411.802L400.574 409.672C401.29 408.322 402.989 407.845 404.301 408.624L405.194 409.154C406.507 409.934 406.903 411.654 406.059 412.928Z" fill="#0F31AC"/>
<path opacity="0.1" d="M411.186 396.876C410.692 397.278 410.198 397.66 409.709 398.046C409.22 398.432 408.737 398.819 408.269 399.221C407.803 399.622 407.347 400.035 406.926 400.48C406.502 400.924 406.118 401.4 405.793 401.948C405.845 401.632 405.961 401.328 406.098 401.036C406.237 400.744 406.41 400.469 406.6 400.209C406.982 399.689 407.434 399.227 407.919 398.812C408.404 398.396 408.925 398.026 409.469 397.699C410.015 397.374 410.582 397.084 411.186 396.876Z" fill="#ACBCF8"/>
<path d="M393.043 397.469L392.871 402.751L391.499 444.606C391.47 445.489 390.747 446.189 389.863 446.189C388.979 446.189 388.256 445.489 388.227 444.606L386.856 402.751L386.684 397.469H393.043Z" fill="#CDD7FB"/>
<path d="M393.044 397.469H386.685L380.379 387.769H399.35L393.044 397.469Z" fill="white"/>
<path d="M393.043 397.469L392.871 402.751H386.856L386.684 397.469H393.043Z" fill="#0F31AC"/>
<path d="M401.095 451.979H377.266C375.94 451.979 374.846 450.94 374.778 449.615L373.234 419.32H405.127L403.583 449.615C403.515 450.94 402.422 451.979 401.095 451.979Z" fill="#ACBCF8"/>
<path d="M374.791 423.847H373.286C372.451 423.847 371.773 423.17 371.773 422.334V419.32H374.791V423.847Z" fill="#ACBCF8"/>
<path d="M405.076 423.847H403.57V419.32H406.588V422.334C406.588 423.17 405.911 423.847 405.076 423.847Z" fill="#ACBCF8"/>
<path d="M404.731 421.583C404.407 427.359 397.569 431.97 389.182 431.97C380.795 431.97 373.957 427.359 373.632 421.583H372.809C373.129 427.814 380.336 432.793 389.182 432.793C398.027 432.793 405.234 427.814 405.555 421.583H404.731Z" fill="#0F31AC"/>
<path d="M405.78 421.583C405.78 421.97 405.466 422.284 405.079 422.284C404.692 422.284 404.379 421.97 404.379 421.583C404.379 421.197 404.693 420.883 405.079 420.883C405.466 420.883 405.78 421.197 405.78 421.583Z" fill="#0F31AC"/>
<path d="M373.983 421.583C373.983 421.97 373.669 422.284 373.283 422.284C372.896 422.284 372.582 421.97 372.582 421.583C372.582 421.197 372.896 420.883 373.283 420.883C373.669 420.883 373.983 421.197 373.983 421.583Z" fill="#0F31AC"/>
<path d="M179.572 396.277L177.154 401.78L174.441 407.954L172.838 411.601L168.349 421.817L156.063 449.774C155.429 451.217 153.778 451.911 152.304 451.354C151.123 450.909 150.387 449.784 150.387 448.582C150.387 448.285 150.432 447.983 150.526 447.685L158.75 421.816L159.593 419.166L161.997 411.601L163.157 407.954L165.119 401.78L168.23 391.996C168.744 390.378 170.512 389.522 172.101 390.121L177.906 392.313C179.494 392.912 180.256 394.722 179.572 396.277Z" fill="#ACBCF8"/>
<path d="M224.554 448.582C224.554 449.784 223.818 450.909 222.637 451.354C221.163 451.911 219.512 451.217 218.878 449.774L206.592 421.817L202.103 411.602L200.5 407.954L197.787 401.781L195.368 396.278C194.685 394.722 195.446 392.913 197.035 392.314L202.84 390.122C204.429 389.523 206.197 390.378 206.711 391.996L209.822 401.781L211.784 407.954L212.944 411.602L215.348 419.167L216.191 421.817L224.414 447.685C224.509 447.983 224.554 448.285 224.554 448.582Z" fill="#ACBCF8"/>
<path opacity="0.1" d="M179.574 396.278L177.156 401.781H165.121L168.232 391.996C168.746 390.378 170.514 389.523 172.102 390.122L177.907 392.314C179.496 392.913 180.258 394.722 179.574 396.278Z" fill="black"/>
<path opacity="0.1" d="M209.822 401.781H197.787L195.368 396.278C194.685 394.722 195.446 392.913 197.035 392.314L202.84 390.122C204.429 389.523 206.197 390.378 206.711 391.996L209.822 401.781Z" fill="black"/>
<path opacity="0.1" d="M161.997 411.602H172.838L168.349 421.817H158.75L159.593 419.167L161.997 411.602Z" fill="black"/>
<path opacity="0.1" d="M216.19 421.817H206.591L202.102 411.602H212.943L215.347 419.167L216.19 421.817Z" fill="black"/>
<path d="M217.308 415.68C217.308 416.807 216.851 417.827 216.114 418.564C215.884 418.794 215.627 418.997 215.348 419.167C214.73 419.542 214.005 419.759 213.229 419.759H161.712C160.936 419.759 160.21 419.542 159.593 419.167C158.418 418.451 157.633 417.158 157.633 415.68C157.633 414.554 158.09 413.534 158.827 412.796C159.565 412.059 160.585 411.602 161.712 411.602H213.229C215.482 411.601 217.308 413.428 217.308 415.68Z" fill="#ACBCF8"/>
<path d="M221.303 399.073H153.639C151.06 399.073 148.969 396.982 148.969 394.403V389.88C148.969 387.301 151.06 385.21 153.639 385.21H221.303C223.882 385.21 225.973 387.301 225.973 389.88V394.403C225.973 396.982 223.882 399.073 221.303 399.073Z" fill="#ACBCF8"/>
<path d="M203.425 241.794L197.442 244.996L194.865 246.376L193.107 247.317L192.948 247.402L190.117 248.917L184.047 252.165L182.282 247.81L181.998 247.109L180.324 242.981L180.051 242.31L183.06 241.316L184.185 240.944L185.701 240.443L192.655 238.146L194.23 237.624L195.419 237.231L196.271 236.95L197.044 236.693L197.355 236.591L198.067 236.357L198.652 236.164L198.684 236.201L199.85 237.576L200.527 238.374L201.629 239.675L203.153 241.472L203.412 241.78L203.425 241.794Z" fill="#DB965F"/>
<path d="M220.628 213.169C220.658 216.259 216.577 221.204 216.577 221.204L209.469 233.401L208.009 235.907L206.963 237.701L205.687 239.891C205.24 240.656 204.602 241.228 203.875 241.585C203.725 241.659 203.571 241.724 203.413 241.78C203.142 241.876 202.861 241.945 202.577 241.986C201.666 242.118 200.711 241.962 199.868 241.492C199.582 241.332 199.308 241.136 199.053 240.903L199.02 240.496L198.793 237.766L198.792 237.765L198.777 237.58L198.664 236.225L198.685 236.201L201.845 232.697L208.156 224.733C209.331 223.085 210.179 220.945 210.659 219.537C210.919 218.773 211.089 217.98 211.142 217.176C211.254 215.541 211.695 213.794 212.108 212.456C212.52 211.119 212.907 210.189 212.907 210.189C213.569 210.406 213.959 211.093 213.802 211.775L213.15 214.606L214.682 212.255C215.201 211.458 215.935 210.818 216.809 210.446C220.084 209.057 220.628 213.169 220.628 213.169Z" fill="#DB965F"/>
<path d="M196.005 246.302L195.801 246.487L196.157 247.804L196.27 248.214L196.32 248.739L195.158 250.038L182.089 264.665C180.438 263.232 177.529 260.279 174.938 257.094C174.773 256.892 174.61 256.688 174.447 256.482C174.436 256.47 174.426 256.456 174.416 256.444C174.262 256.249 174.11 256.052 173.957 255.858C171.585 252.774 169.691 249.63 169.658 247.55C169.653 247.233 169.657 246.916 169.672 246.597C169.712 245.699 169.971 244.836 170.412 244.081C170.525 243.888 170.65 243.701 170.788 243.523C170.871 243.414 170.959 243.31 171.051 243.207C171.394 242.824 171.796 242.488 172.249 242.214C172.97 241.775 173.765 241.368 174.585 240.995C175.896 240.397 177.269 239.886 178.502 239.475C180.811 238.702 182.63 238.278 182.63 238.278L183.872 238.137L184.862 238.024L192.034 237.212L195.367 236.833L196.155 236.744L196.272 236.95L197.396 238.891L198.255 240.376L199.73 242.922L197.443 244.996L196.005 246.302Z" fill="white"/>
<path opacity="0.15" d="M174.935 257.094C174.891 257.666 174.772 258.109 174.632 258.448C174.574 257.764 174.5 257.096 174.414 256.444C174.259 256.249 174.106 256.052 173.955 255.857C173.698 253.352 173.215 250.454 173.195 250.334C174.718 253.558 175.045 255.704 174.935 257.094Z" fill="black"/>
<path d="M184.561 219.714C184.561 219.714 183.093 221.997 183.212 227.27C183.212 227.27 182.776 232.035 184.965 236.327C184.965 236.327 182.441 232.437 182.432 227.619C182.432 227.619 181.438 221.111 184.561 219.714Z" fill="black"/>
<path d="M197.961 242.312L194.654 246.184L186.428 246.001L181.941 245.347L182.542 243.188L183.061 241.316L183.494 239.757L183.535 239.609L183.801 238.651C183.801 238.651 183.827 238.476 183.872 238.137C184.008 237.076 184.327 234.415 184.609 230.475C184.619 230.328 184.63 230.18 184.64 230.03L196.165 226.344C196.165 226.344 195.385 230.131 195.274 233.862C195.249 234.683 195.257 235.502 195.312 236.277C195.325 236.455 195.343 236.641 195.367 236.833C195.383 236.964 195.4 237.096 195.42 237.231C195.554 238.15 195.771 239.157 195.953 240.012C196.03 240.37 196.101 240.701 196.157 240.987C196.427 242.359 197.455 241.764 197.961 242.312Z" fill="#C9885B"/>
<path opacity="0.15" d="M214.016 248.689L208.592 251.568L206.654 252.597H206.653L203.899 251.984L202.049 251.572L195.158 250.038L190.118 248.917L181.999 247.109L176 253.903L175.38 247.331L175.008 242.743C175.785 242.389 178.218 242.731 180.325 242.981C181.154 243.08 181.934 243.165 182.542 243.188C182.993 243.204 183.351 243.187 183.564 243.115C184.533 242.79 184.524 241.885 184.186 240.944C184.023 240.486 183.781 240.02 183.535 239.608C183.088 238.851 182.63 238.278 182.63 238.278L183.873 238.137C184.009 237.076 184.328 234.415 184.609 230.475L195.274 233.862C195.25 234.683 195.257 235.502 195.313 236.277C195.325 236.455 195.344 236.641 195.367 236.833L196.155 236.744L196.273 236.95L197.045 236.693L197.356 236.592L198.068 236.357L198.792 237.765L198.794 237.766C199.092 238.347 199.769 238.625 200.39 238.42L200.528 238.375L208.009 235.907L206.964 237.701L207.992 237.287L211.211 236.03L214.016 248.689Z" fill="black"/>
<path d="M180.09 222.779C180.09 222.779 180.226 235.47 193.993 234.925C194.586 234.902 195.156 234.687 195.621 234.318C197.618 232.729 202.29 227.499 197.546 215.693C197.546 215.693 185.932 204.457 180.09 222.779Z" fill="#DB965F"/>
<path d="M191.418 322.274L191.375 323.29L190.922 333.88C190.777 337.276 189.982 340.611 188.58 343.705L183.233 355.511C179.283 364.466 178.449 370.874 178.513 374.862C178.524 375.539 178.359 376.168 178.064 376.713C177.29 378.143 175.623 378.992 173.896 378.579C172.18 378.168 171.02 376.636 171.02 374.939C171.02 374.676 171.048 374.41 171.105 374.144L172.329 368.475C172.723 366.651 172.921 364.791 172.931 362.926C172.999 350.062 175.476 344.714 176.833 342.745C177.723 341.455 178.315 340.001 179.034 338.609C180.37 336.025 180.424 333.806 180.332 332.697C180.298 332.274 180.191 331.86 180.017 331.473L177.759 326.439C176.902 324.53 177.775 322.288 179.698 321.462L186.197 318.671C188.732 317.583 191.536 319.516 191.418 322.274Z" fill="#DB965F"/>
<path opacity="0.15" d="M191.377 323.29L190.924 333.881C190.779 337.276 189.983 340.611 188.582 343.706L183.235 355.511C179.285 364.466 178.451 370.875 178.515 374.863C178.526 375.539 178.361 376.168 178.066 376.714C174.691 367.591 186.533 342.415 186.533 342.415C188.764 338.535 186.533 324.857 186.533 324.857L191.377 323.29Z" fill="black"/>
<path d="M203.801 320.491L199.339 342.027L194.198 378.017L188.645 381.236L187.504 381.898C187.504 381.898 189.005 365.221 187.832 356.993C187.544 354.967 187.472 352.915 187.674 350.879C187.839 349.218 188.148 347.298 188.724 345.539C189.366 343.581 189.692 341.534 189.64 339.473L189.313 326.745L189.153 320.491L203.801 320.491Z" fill="#DB965F"/>
<path d="M187.889 374.995C187.889 374.995 185.788 380.714 186.733 384.417C186.892 385.041 187.442 385.486 188.085 385.517C190.111 385.615 194.795 385.902 196.957 386.534C196.957 386.534 203.212 386.991 205.981 385.937C206.635 385.688 207.038 385.024 206.95 384.33C206.811 383.239 206.256 381.54 204.222 380.713L194.583 375.046C194.583 375.046 188.687 378.829 187.889 374.995Z" fill="#040C2B"/>
<path d="M171.525 371.8C171.525 371.8 168.701 377.2 169.16 380.994C169.237 381.633 169.725 382.145 170.359 382.26C172.354 382.619 176.962 383.509 179.024 384.414C179.024 384.414 185.168 385.676 188.05 384.989C188.731 384.827 189.216 384.221 189.219 383.521C189.222 382.421 188.891 380.665 186.981 379.582L178.156 372.716C178.156 372.716 171.82 375.705 171.525 371.8Z" fill="#040C2B"/>
<path d="M206.553 327.568C206.538 327.735 206.411 327.872 206.243 327.897C203.736 328.265 185.22 330.861 174.436 328.77C174.301 328.742 174.193 328.642 174.156 328.509C173.846 327.381 172.605 321.336 173.161 298.236C173.208 296.258 173.336 294.283 173.543 292.316C173.75 290.346 174.024 287.278 174.213 283.436C174.336 280.911 174.422 278.049 174.426 274.944L175.543 274.831L203.172 272.032L203.715 271.976L204.129 271.862C204.122 272.449 204.113 273.054 204.103 273.678C204.103 273.707 204.106 273.737 204.113 273.766C204.316 274.629 207.496 288.25 207.498 296.703V296.724C207.523 297.105 208.237 308.566 206.553 327.568Z" fill="#040C2B"/>
<path d="M204.129 271.862L203.715 271.976L203.172 272.032L175.543 274.831L174.426 274.944L174.353 274.951L174.421 273.035L174.612 267.611C174.71 266.698 174.777 265.799 174.819 264.914C175.016 260.664 174.601 256.781 173.949 253.473C173.076 249.055 171.78 245.66 170.949 243.771C171.06 243.684 171.12 243.65 171.12 243.65L172.808 243.071L174.119 242.62L178.974 240.883C178.987 240.883 183.302 239.767 183.314 239.767C185.422 239.643 185.84 239.781 188.522 239.519C193.606 239.023 195.962 240.015 195.962 240.015L201.932 240.954L203.132 241.354L203.327 241.419C203.467 241.457 203.605 241.497 203.741 241.542C203.921 241.597 204.098 241.658 204.268 241.724L204.242 242.462L203.753 255.967C203.753 255.967 203.74 260.805 204.129 271.862Z" fill="white"/>
<path d="M192.835 214.52C192.835 214.52 186.538 205.171 179.842 213.107C179.701 213.274 178.963 214.04 178.85 214.223C178.187 215.301 174.386 217.819 179.594 229.971C179.594 229.971 182.818 236.047 177.982 239.891C177.982 239.891 193.482 247.827 189.266 227.119C186.663 214.336 192.835 214.52 192.835 214.52Z" fill="black"/>
<path d="M196.955 213.603C196.955 213.603 200.217 217.742 199.516 221.066L194.103 225.507C194.103 225.507 193.607 236.419 182.943 237.783C182.245 237.872 179.118 220.453 179.646 218.202C181.497 210.303 191.42 207.672 196.955 213.603Z" fill="black"/>
<path d="M194.189 221.055C194.189 221.055 195.962 231.177 199.322 235.03C199.322 235.03 193.812 229.014 194.034 220.583L194.189 221.055Z" fill="black"/>
<path d="M194.142 227.778C194.737 227.526 194.924 226.625 194.56 225.766C194.196 224.907 193.419 224.415 192.824 224.667C192.229 224.919 192.041 225.82 192.405 226.679C192.769 227.538 193.546 228.03 194.142 227.778Z" fill="#DB965F"/>
<path d="M291.21 215.809L291.227 215.853L291.318 215.817L291.329 215.845L268.903 224.859C268.726 224.967 268.554 225.082 268.389 225.203C265.603 227.233 264.436 230.96 265.78 234.304L268.915 242.104C269.975 244.743 269.865 247.562 268.832 249.985C267.798 252.411 265.839 254.439 263.201 255.499C260.562 256.56 257.745 256.451 255.32 255.416C252.897 254.382 250.866 252.423 249.805 249.785L246.67 241.984C245.326 238.641 241.905 236.758 238.488 237.221C238.285 237.248 238.082 237.284 237.879 237.328L218.657 245.054C216.424 241.05 214.531 237.142 213.028 233.403C197.305 194.285 217.397 149.369 257.91 133.041L257.938 133.03L267.337 156.414C267.423 156.627 267.498 156.842 267.563 157.059L267.564 157.061C267.566 157.067 267.567 157.072 267.57 157.078C267.584 157.128 267.598 157.176 267.612 157.225C267.614 157.234 267.616 157.243 267.62 157.252C267.634 157.307 267.649 157.362 267.663 157.417C267.677 157.476 267.691 157.535 267.705 157.594C267.747 157.772 267.78 157.952 267.807 158.131C267.816 158.191 267.824 158.25 267.832 158.31C267.848 158.429 267.861 158.548 267.869 158.667C267.87 158.669 267.87 158.67 267.87 158.67C267.879 158.789 267.886 158.907 267.89 159.024C267.894 159.144 267.895 159.262 267.894 159.381C267.891 159.559 267.884 159.736 267.869 159.912C267.864 159.971 267.858 160.03 267.853 160.087C267.846 160.146 267.839 160.204 267.832 160.264C267.804 160.497 267.762 160.727 267.711 160.956C267.698 161.012 267.685 161.07 267.671 161.127C267.643 161.24 267.613 161.353 267.579 161.465C267.539 161.604 267.494 161.744 267.444 161.881C267.396 162.018 267.342 162.155 267.285 162.288C267.263 162.343 267.241 162.396 267.216 162.448C267.192 162.502 267.168 162.555 267.142 162.608C267.097 162.701 267.052 162.794 267.003 162.885C266.941 163.003 266.877 163.118 266.81 163.231C266.781 163.279 266.752 163.327 266.721 163.375C266.693 163.421 266.663 163.467 266.634 163.514C266.312 164.007 265.932 164.464 265.5 164.875C265.47 164.905 265.44 164.934 265.408 164.962C265.386 164.983 265.364 165.003 265.342 165.023C265.295 165.064 265.25 165.105 265.202 165.145C265.142 165.197 265.081 165.248 265.019 165.297C264.983 165.326 264.947 165.355 264.91 165.382C264.801 165.468 264.689 165.55 264.575 165.629C264.53 165.659 264.487 165.689 264.442 165.718C264.356 165.776 264.267 165.833 264.177 165.887C264.142 165.907 264.107 165.929 264.071 165.95C263.75 166.135 263.413 166.301 263.059 166.443L255.257 169.579C252.62 170.639 250.66 172.669 249.627 175.093C248.591 177.517 248.482 180.336 249.543 182.974C250.603 185.612 252.633 187.571 255.058 188.604C257.481 189.639 260.301 189.749 262.938 188.689L270.74 185.553C271.093 185.411 271.452 185.297 271.812 185.209C271.852 185.2 271.893 185.19 271.932 185.181C272.008 185.165 272.083 185.148 272.158 185.135C272.207 185.125 272.256 185.116 272.305 185.107C272.439 185.084 272.574 185.064 272.708 185.049C272.762 185.042 272.816 185.036 272.871 185.031C272.94 185.024 273.008 185.019 273.077 185.013C273.126 185.01 273.176 185.007 273.224 185.004C273.358 184.998 273.493 184.995 273.627 184.995C273.672 184.995 273.718 184.996 273.764 184.996C273.876 184.998 273.989 185.003 274.101 185.01C274.341 185.026 274.582 185.052 274.819 185.091C274.877 185.099 274.934 185.109 274.993 185.12C275.051 185.13 275.108 185.142 275.164 185.153C275.28 185.177 275.396 185.204 275.51 185.234C275.563 185.247 275.617 185.261 275.67 185.275C275.797 185.311 275.923 185.35 276.049 185.391C276.147 185.423 276.244 185.458 276.341 185.495C276.397 185.516 276.45 185.537 276.505 185.559C276.559 185.58 276.612 185.603 276.666 185.627C276.826 185.696 276.984 185.77 277.14 185.85C277.141 185.851 277.142 185.851 277.143 185.851C277.246 185.904 277.348 185.959 277.447 186.017C277.499 186.046 277.549 186.075 277.599 186.106C277.649 186.136 277.699 186.167 277.748 186.198C277.797 186.229 277.846 186.262 277.895 186.293C277.993 186.359 278.089 186.426 278.183 186.495C278.277 186.564 278.37 186.636 278.462 186.709C278.508 186.747 278.553 186.784 278.598 186.823C278.642 186.86 278.687 186.899 278.731 186.937C278.798 186.996 278.863 187.055 278.927 187.116C278.927 187.116 278.926 187.117 278.928 187.118C278.991 187.178 279.055 187.24 279.117 187.303C279.159 187.346 279.2 187.389 279.24 187.432C279.281 187.475 279.321 187.519 279.361 187.564C279.401 187.609 279.44 187.654 279.479 187.699C279.595 187.834 279.708 187.973 279.813 188.12C279.849 188.167 279.884 188.217 279.919 188.266C280.024 188.414 280.123 188.567 280.218 188.724C280.248 188.776 280.279 188.829 280.31 188.881C280.339 188.933 280.367 188.983 280.395 189.034C280.397 189.04 280.4 189.045 280.403 189.049C280.429 189.099 280.456 189.149 280.481 189.2C280.483 189.202 280.484 189.204 280.485 189.207L280.485 189.208C280.588 189.409 280.683 189.616 280.768 189.83L291.144 215.644L291.234 215.607L291.3 215.772L291.21 215.809Z" fill="#ACBCF8"/>
<path d="M228.278 238.505L228.015 238.185L226.552 236.402L223.692 232.917L222.109 233.412L219.341 234.279L205.387 238.646L209.146 248.355L228.278 238.505Z" fill="#DB965F"/>
<path d="M226.868 229.574L233.17 221.876C234.346 220.281 235.209 218.199 235.701 216.828C235.967 216.084 236.146 215.31 236.211 214.523C236.346 212.925 236.805 211.222 237.229 209.919C237.655 208.616 238.046 207.712 238.046 207.712C238.693 207.935 239.063 208.614 238.899 209.278L238.217 212.041L239.753 209.761C240.273 208.989 241.003 208.374 241.864 208.024C245.091 206.715 245.561 210.749 245.561 210.749C245.541 213.776 241.469 218.553 241.469 218.553L230.517 236.677C229.816 237.838 228.663 238.523 227.441 238.679C226.242 238.834 224.977 238.479 224.007 237.564L223.699 232.978L226.868 229.574Z" fill="#DB965F"/>
<path d="M222.151 244.371L214.016 248.689L208.592 251.568L206.654 252.598H206.652L203.851 254.084L203.821 254.1L202.925 254.577L202.621 254.219L202.048 251.572L200.296 243.47L199.868 241.492L199.684 240.635L199.746 240.61H199.747L201.741 239.806L206.964 237.701L207.992 237.287L211.211 236.03L219.313 232.867L220.548 237.716L221.679 242.158L222.007 243.453L222.11 243.857L222.151 244.371Z" fill="white"/>
<path opacity="0.15" d="M204.044 266.889C201.723 260.733 201.222 250.806 201.741 252.104C202.087 252.971 202.946 253.553 203.727 253.919C203.726 253.932 203.725 253.946 203.724 253.96C203.568 255.588 203.465 259.21 204.044 266.889Z" fill="black"/>
<path d="M467.422 322.87L460.121 326.917L464.644 337.552L454.327 355.408C454.327 355.408 451.708 355.646 448.613 357.63C448.613 358.241 449.227 358.661 449.797 358.44L451.47 357.789C451.47 357.789 447.423 361.122 447.74 364.058C447.74 364.058 448.455 368.185 452.105 367.392C452.105 367.392 455.597 367.709 458.454 360.17L470.437 339.485C471.022 338.475 471.185 337.275 470.89 336.146L467.422 322.87Z" fill="#DB965F"/>
<path d="M460.791 443.273L453.788 443.539L453.587 438.207L453.543 437.023L453.434 434.143L460.437 434.94L460.525 437.023L460.602 438.841L460.791 443.273Z" fill="#DB965F"/>
<path d="M462.038 446.296C462.341 444.635 462.511 441.674 460.725 439.073C460.725 439.073 456.823 441.626 453.724 438.294C453.724 438.294 450.836 438.716 443.552 442.824C442.735 443.284 441.896 443.705 441.042 444.09C439.865 444.619 438.018 445.601 437.095 446.879C436.145 448.195 436.813 450.056 438.372 450.511C441.361 451.383 449.757 453.006 460.623 448.114C461.366 447.779 461.892 447.097 462.038 446.296Z" fill="#040C2B"/>
<path d="M461.589 436.358H453.167L446.785 393.012L437.758 350.151L437.301 347.981L456.977 347.436L459.728 347.36C459.728 347.36 463.628 353.211 460.614 366.595L459.728 388.58C459.728 388.58 465.135 404.536 461.589 436.358Z" fill="#040C2B"/>
<path opacity="0.15" d="M454.109 436.358H453.167L446.785 393.012L437.758 350.151L445.452 348.413L452.073 348.814C452.073 358.578 452.976 360.953 449.565 374.296L447.158 381.82L454.109 436.358Z" fill="black"/>
<path d="M457.012 431.808L455.998 432.49L451.199 435.722L449.665 433.442L448.22 431.295L446.588 428.869L446.417 428.615L445.949 427.921L446.446 427.686L452.323 424.911L452.343 424.941L454.518 428.139L457.012 431.808Z" fill="#DB965F"/>
<path d="M459.141 436.1C452.583 446.082 444.591 449.15 441.798 449.954C440.43 450.348 439.034 449.385 438.941 447.964C438.832 446.307 439.97 444.241 440.732 443.058C441.259 442.241 441.747 441.398 442.198 440.538C444.702 435.763 446.498 433.288 447.445 432.142C447.954 431.528 448.219 431.295 448.219 431.295C452.631 432.404 454.516 428.139 454.516 428.139C456.652 429.026 458.011 430.647 458.84 432.062C459.046 432.413 459.219 432.75 459.363 433.062C459.818 434.045 459.736 435.195 459.141 436.1Z" fill="#040C2B"/>
<path d="M454.252 423.638L452.96 424.521L452.344 424.941L446.589 428.869L446.405 428.995L445.137 429.861L428.292 403.726L425.946 400.058C424.292 397.473 423.727 394.338 424.376 391.339L433.582 348.776L435.347 348.71L452.007 348.089L452.073 349.83C452.403 358.549 450.866 367.238 447.563 375.314L440.311 393.048C439.945 394.452 440.108 395.943 440.768 397.236L449.069 413.489L454.252 423.638Z" fill="#040C2B"/>
<path opacity="0.15" d="M460.525 437.023H453.543L453.434 434.143L460.437 434.94L460.525 437.023Z" fill="black"/>
<path d="M452.277 298.246L452.261 306.753L442.645 309.89C442.645 309.89 440.534 302.665 437.868 302.025C435.202 301.385 437.885 301.815 437.885 301.815L449.563 289.479L452.277 298.246Z" fill="#C9885B"/>
<path d="M437.036 287.26C437.036 287.26 432.753 297.383 436.357 305.299C436.754 306.171 437.71 306.607 438.6 306.313C441.086 305.493 446.172 302.835 450.455 294.335C450.455 294.335 442.792 281.683 437.036 287.26Z" fill="#DB965F"/>
<path d="M449.084 297.809C449.084 297.809 449.058 301.007 452.268 302.271C452.268 302.271 455.389 294.668 454.637 288.91C454.637 288.91 452.305 281.687 446.154 283.786C446.154 283.786 439.644 280.3 436.247 283.608C436.247 283.608 433.434 288.934 437.258 289.528C437.258 289.528 438.948 287.978 440.921 288.773C440.921 288.773 439.944 292.42 442.558 293.688L442.58 298.402L443.323 298.463L444.012 295.847C444.012 295.847 447.068 290.893 449.084 297.809Z" fill="black"/>
<path d="M462.641 312.598C462.641 312.598 467.502 312.474 469.248 329.14L460.836 332.235C460.836 332.235 454.368 313.675 462.641 312.598Z" fill="white"/>
<path opacity="0.15" d="M464.509 336.894L462.275 331.641L460.937 332.134C460.937 332.134 458.726 325.792 458.543 320.307L463.718 323.157L463.815 324.826L464.167 330.945L464.509 336.894Z" fill="black"/>
<path d="M452.537 305.753L454.765 307.21L455.136 307.453L463.056 312.632L463.657 324.063L463.766 326.126C463.768 326.178 463.769 326.229 463.768 326.28L463.342 347.387L463.322 348.355C463.305 349.238 462.744 350.022 461.91 350.314C456.414 352.244 449.483 352.245 443.526 351.663H443.521V351.662C438.705 351.192 434.525 350.341 432.255 349.82C431.214 349.582 430.513 348.607 430.615 347.545L432.012 333.087C432.021 332.995 432.024 332.903 432.021 332.811L431.334 312.488C431.32 312.096 432.162 310.702 432.522 310.547L438.762 308.623L439.037 308.504L441.532 307.427L452.537 305.753Z" fill="white"/>
<path opacity="0.15" d="M432.113 332.987C432.122 332.894 432.125 332.802 432.122 332.711L431.799 323.157L434.954 322.298L430.742 347.178L432.113 332.987Z" fill="black"/>
<path d="M377.375 258.416L379.203 262.966L383.497 273.652L365.464 282.887L358.962 272.618L356.68 269.014L377.375 258.416Z" fill="white"/>
<path d="M383.502 273.659L365.469 282.894L366.781 285.457L384.815 276.223L383.502 273.659Z" fill="#081956"/>
<path d="M366.777 285.45L372.455 287.743C374.407 288.532 376.009 289.997 376.969 291.87L383.649 304.916C384.653 306.875 387.054 307.65 389.013 306.647C390.972 305.643 391.747 303.242 390.744 301.283L384.063 288.237C383.104 286.364 382.851 284.207 383.352 282.163L384.81 276.215L366.777 285.45ZM388.099 304.862C387.075 305.386 385.82 304.981 385.296 303.957C384.772 302.933 385.177 301.679 386.2 301.154C387.224 300.63 388.479 301.035 389.003 302.059C389.527 303.082 389.123 304.337 388.099 304.862Z" fill="#040C2B"/>
<path opacity="0.1" d="M384.812 276.215L383.354 282.162C382.853 284.207 383.105 286.364 384.065 288.237L390.745 301.283C391.247 302.263 391.304 303.353 390.991 304.323C390.677 305.294 389.994 306.145 389.014 306.647C388.828 306.742 388.637 306.822 388.444 306.886C389.143 306.378 389.639 305.671 389.892 304.886C390.205 303.915 390.148 302.825 389.647 301.846L382.966 288.8C382.007 286.926 381.755 284.77 382.256 282.725L383.713 276.778L384.812 276.215Z" fill="black"/>
<path opacity="0.1" d="M388.819 306.575C388.701 306.685 388.575 306.789 388.442 306.886C386.609 307.491 384.557 306.688 383.649 304.916L376.969 291.87C376.009 289.996 374.407 288.531 372.455 287.743L366.777 285.45L367.501 285.08L373.12 287.349C375.072 288.138 376.674 289.603 377.634 291.476L384.314 304.522C385.175 306.202 387.063 307.011 388.819 306.575Z" fill="white"/>
<path d="M377.375 258.416L379.203 262.966C378.222 262.834 377.355 262.801 377.06 262.794C376.961 262.791 376.862 262.795 376.764 262.812C375.756 262.989 375.812 264.13 376.067 265.123C376.245 265.816 376.546 266.468 376.918 267.078C377.202 267.543 377.339 267.993 377.39 268.399C377.564 269.798 375.826 270.611 374.859 269.585C374.371 269.067 374.016 268.443 373.875 268.175C373.802 268.036 373.724 267.9 373.637 267.769C372.837 266.573 371.98 266.381 371.431 266.415C371.083 266.436 370.733 266.422 370.384 266.413C368.648 266.366 364.811 269.992 364.811 269.992C363.099 271.591 360.596 272.307 358.962 272.618L356.68 269.014L377.375 258.416Z" fill="#A0B1E8"/>
<path d="M405.016 322.353L405.213 321.92L406.315 319.504L408.467 314.785L410.373 314.869L413.708 315.016L430.516 315.755L418.322 325.238L405.016 322.353Z" fill="#DB965F"/>
<path d="M403.944 312.004L394.663 305.303C392.885 303.876 391.31 301.816 390.358 300.435C389.843 299.687 389.416 298.879 389.111 298.023C388.49 296.285 387.477 294.527 386.62 293.203C385.762 291.878 385.06 290.989 385.06 290.989C384.407 291.427 384.195 292.292 384.574 292.982L386.147 295.853C384.484 296.845 382.373 296.634 380.93 295.344C379.931 294.451 378.901 293.63 378.37 293.563C374.395 293.059 377.784 299.547 377.784 299.547C381.069 305.061 384.452 304.056 384.452 304.056L401.981 320.981C403.105 322.066 404.589 322.487 405.994 322.3C407.373 322.119 408.676 321.35 409.484 320.046L408.473 314.855L403.944 312.004Z" fill="#DB965F"/>
<path d="M431.982 326.756L422.392 326.351L414.828 325.675L415.368 314.194C426.849 311.088 433.115 310.184 434.278 310.547C434.698 310.679 435.572 311.554 435.572 311.554C437.728 315.841 437.058 321.009 433.882 324.605L431.982 326.756Z" fill="white"/>
<path d="M487.762 189.519L462.996 190.024C460.245 190.08 457.97 187.895 457.914 185.144L457.474 163.53C457.418 160.78 459.602 158.505 462.353 158.449L487.119 157.944C489.87 157.888 492.145 160.073 492.201 162.824L492.641 184.438C492.697 187.188 490.513 189.463 487.762 189.519Z" fill="#DEE4FC"/>
<path d="M485.73 179.116L485.642 180.732L485.64 180.765L485.648 180.767L486.39 181.021C486.257 181.505 486.055 181.959 485.796 182.369C485.792 182.377 485.787 182.384 485.782 182.391L485.497 182.251L485.027 182.021L484.056 183.317L484.401 183.806C483.996 184.075 483.55 184.279 483.075 184.405L482.921 183.645L481.362 183.613L481.127 184.475C480.604 184.375 480.113 184.182 479.669 183.913L480.121 183.15L479.059 181.947L478.192 182.47L478.185 182.474C478.164 182.443 478.144 182.412 478.124 182.38C477.788 181.844 477.551 181.233 477.438 180.577L478.2 180.408L478.287 178.759L477.499 178.513C477.638 177.922 477.878 177.374 478.199 176.89L479.008 177.373L480.099 176.189L479.667 175.461C480.224 175.118 480.855 174.894 481.526 174.823L481.698 175.803L483.255 175.881L483.5 175.069C483.641 175.011 484.491 175.545 484.904 175.905L484.402 176.639L485.445 177.907L486.116 177.537C486.318 177.979 486.459 178.457 486.526 178.961L485.73 179.116ZM482.036 176.585C481.456 176.573 480.897 176.74 480.416 177.062C480.252 177.173 480.096 177.302 479.952 177.448C479.388 178.021 479.067 178.791 479.049 179.617C479.031 180.442 479.317 181.225 479.856 181.82C480.394 182.415 481.12 182.751 481.9 182.767C482.679 182.783 483.419 182.476 483.983 181.903C484.548 181.331 484.868 180.56 484.887 179.735C484.905 178.909 484.619 178.126 484.08 177.531C484.025 177.471 483.969 177.413 483.91 177.358C483.393 176.871 482.736 176.599 482.036 176.585Z" fill="white"/>
<path d="M484.386 168.523L484.287 170.419L484.285 170.457L484.294 170.46L485.104 170.756C484.958 171.325 484.736 171.858 484.453 172.339C484.448 172.348 484.443 172.357 484.438 172.365L484.126 172.202L483.612 171.932L482.549 173.455L482.925 174.027C482.482 174.343 481.994 174.583 481.474 174.733L481.307 173.841L479.603 173.806L479.344 174.817C478.772 174.701 478.235 174.475 477.75 174.16L478.247 173.265L477.087 171.855L476.139 172.47L476.13 172.475C476.108 172.439 476.086 172.402 476.064 172.364C475.698 171.736 475.439 171.02 475.316 170.251L476.151 170.051L476.248 168.116L475.388 167.829C475.541 167.135 475.804 166.492 476.156 165.924L477.039 166.489L478.234 165.099L477.763 164.245C478.373 163.841 479.063 163.578 479.797 163.494L479.984 164.643L481.686 164.732L481.955 163.778C482.109 163.71 483.038 164.335 483.489 164.757L482.939 165.619L484.077 167.106L484.811 166.67C485.032 167.188 485.184 167.749 485.258 168.34L484.386 168.523ZM480.352 165.559C479.717 165.546 479.106 165.743 478.58 166.122C478.399 166.252 478.229 166.403 478.071 166.575C477.453 167.248 477.101 168.152 477.08 169.121C477.059 170.09 477.37 171.007 477.958 171.705C478.546 172.402 479.339 172.795 480.191 172.813C481.044 172.83 481.854 172.469 482.472 171.796C483.089 171.123 483.442 170.219 483.463 169.25C483.484 168.281 483.173 167.364 482.585 166.666C482.525 166.595 482.463 166.527 482.399 166.463C481.835 165.893 481.117 165.574 480.352 165.559Z" fill="white"/>
<path d="M476.06 175.45L475.925 178.062L475.922 178.114L475.934 178.118L477.048 178.526C476.847 179.309 476.542 180.043 476.152 180.706C476.145 180.718 476.138 180.73 476.131 180.741L475.703 180.516L474.996 180.145L473.534 182.242L474.051 183.03C473.442 183.465 472.771 183.796 472.057 184.002L471.826 182.773L469.483 182.726L469.127 184.118C468.341 183.958 467.603 183.648 466.936 183.213L467.618 181.981L466.024 180.039L464.72 180.886L464.709 180.893C464.678 180.843 464.647 180.792 464.618 180.741C464.114 179.875 463.758 178.889 463.59 177.83L464.737 177.555L464.871 174.891L463.688 174.496C463.898 173.54 464.261 172.654 464.744 171.871L465.958 172.65L467.602 170.735L466.954 169.56C467.793 169.003 468.742 168.64 469.751 168.525L470.007 170.108L472.348 170.23L472.719 168.917C472.93 168.823 474.207 169.684 474.827 170.265L474.071 171.451L475.636 173.499L476.645 172.899C476.948 173.612 477.158 174.385 477.259 175.198L476.06 175.45ZM470.513 171.369C469.641 171.351 468.8 171.622 468.077 172.145C467.829 172.323 467.595 172.532 467.378 172.769C466.528 173.695 466.044 174.94 466.015 176.274C465.985 177.609 466.414 178.872 467.222 179.832C468.03 180.792 469.121 181.334 470.293 181.358C471.465 181.381 472.579 180.884 473.428 179.957C474.278 179.031 474.762 177.786 474.792 176.452C474.821 175.117 474.392 173.854 473.584 172.894C473.502 172.796 473.417 172.702 473.329 172.614C472.553 171.829 471.566 171.39 470.513 171.369Z" fill="white"/>
<path d="M90.3938 334.359H65.6222C62.8709 334.359 60.6406 332.129 60.6406 329.377V307.759C60.6406 305.008 62.871 302.777 65.6222 302.777H90.3938C93.1451 302.777 95.3754 305.008 95.3754 307.759V329.377C95.3754 332.129 93.145 334.359 90.3938 334.359Z" fill="#DEE4FC"/>
<path d="M88.6882 325.036L70.2621 308.672L66.6367 307.372L64.8438 306.729L65.702 308.449L67.413 311.88L67.4179 311.874L85.844 328.238L88.6882 325.036Z" fill="#829CF8"/>
<path d="M88.6684 325.02L85.8242 328.222L88.0444 330.194C88.3923 330.503 88.9247 330.471 89.2337 330.124L90.9591 328.181C91.2679 327.833 91.2364 327.3 90.8886 326.991L88.6684 325.02Z" fill="white"/>
<path d="M66.6367 307.372L64.8438 306.729L65.702 308.449C65.9984 308.44 66.2525 308.342 66.4249 308.148C66.6017 307.949 66.668 307.677 66.6367 307.372Z" fill="white"/>
<path d="M86.3264 327.694L67.5703 311.037C68.4102 312.066 67.8865 312.085 67.6034 312.04L85.8427 328.238L86.3264 327.694Z" fill="#ACBCF8"/>
<path d="M86.9695 326.969L68.1985 310.299C68.9608 311.648 67.5703 311.029 67.5703 311.029L79.4958 321.628L86.3237 327.696L86.9695 326.969Z" fill="white"/>
<path d="M87.5581 326.307L68.817 309.664C69.6183 310.983 68.1992 310.299 68.1992 310.299L86.967 326.973L87.5581 326.307Z" fill="#ACBCF8"/>
<path d="M88.1563 325.636L69.4381 309.013C70.2394 310.332 68.8203 309.648 68.8203 309.648L87.5653 326.302L88.1563 325.636Z" fill="white"/>
<path d="M88.6881 325.036L70.472 308.858C70.905 309.902 69.4297 309.007 69.4297 309.007L69.4368 309.013L88.1517 325.64L88.6881 325.036Z" fill="#ACBCF8"/>
<path d="M552.86 263.547L528.093 264.051C525.343 264.107 523.067 261.923 523.011 259.172L522.571 237.558C522.515 234.808 524.7 232.532 527.45 232.476L552.217 231.972C554.968 231.916 557.243 234.101 557.299 236.851L557.739 258.465C557.795 261.216 555.61 263.491 552.86 263.547Z" fill="#DEE4FC"/>
<path d="M542.325 258.102L549.305 258.35L550.15 234.565L543.17 234.317L542.325 258.102Z" fill="white"/>
<path d="M543.653 238.382L549.371 238.585L549.492 235.175L543.774 234.971L543.653 238.382Z" fill="#F9FBFD"/>
<path d="M543.516 242.271L549.234 242.474L549.356 239.063L543.638 238.86L543.516 242.271Z" fill="#F9FBFD"/>
<path d="M543.38 246.159L549.098 246.362L549.219 242.952L543.501 242.749L543.38 246.159Z" fill="#F9FBFD"/>
<path d="M543.243 250.048L548.961 250.251L549.082 246.841L543.364 246.637L543.243 250.048Z" fill="#F9FBFD"/>
<path d="M543.102 253.937L548.82 254.14L548.941 250.729L543.223 250.526L543.102 253.937Z" fill="#F9FBFD"/>
<path d="M543.202 259.067L549.973 257.355L544.137 234.282L537.366 235.994L543.202 259.067Z" fill="white"/>
<path d="M538.973 239.762L544.52 238.359L543.683 235.05L538.136 236.453L538.973 239.762Z" fill="#F4F6FC"/>
<path d="M539.926 243.533L545.473 242.13L544.636 238.821L539.089 240.224L539.926 243.533Z" fill="#F4F6FC"/>
<path d="M540.879 247.305L546.426 245.902L545.589 242.594L540.042 243.997L540.879 247.305Z" fill="#F4F6FC"/>
<path d="M541.832 251.079L547.379 249.676L546.542 246.368L540.995 247.771L541.832 251.079Z" fill="#F4F6FC"/>
<path d="M542.789 254.85L548.336 253.447L547.499 250.139L541.952 251.542L542.789 254.85Z" fill="#F4F6FC"/>
<path d="M544.672 260.691L550.641 257.064L538.279 236.725L532.311 240.353L544.672 260.691Z" fill="white"/>
<path d="M534.95 243.481L539.84 240.509L538.067 237.592L533.178 240.564L534.95 243.481Z" fill="#EEF2FA"/>
<path d="M536.974 246.806L541.863 243.834L540.091 240.918L535.201 243.889L536.974 246.806Z" fill="#EEF2FA"/>
<path d="M538.993 250.131L543.883 247.159L542.11 244.243L537.221 247.215L538.993 250.131Z" fill="#EEF2FA"/>
<path d="M541.013 253.456L545.902 250.484L544.13 247.568L539.24 250.54L541.013 253.456Z" fill="#EEF2FA"/>
<path d="M543.032 256.781L547.922 253.81L546.149 250.893L541.26 253.865L543.032 256.781Z" fill="#EEF2FA"/>
<path d="M545.693 261.711L550.812 256.96L534.624 239.516L529.505 244.266L545.693 261.711Z" fill="white"/>
<path d="M532.716 246.8L536.91 242.909L534.589 240.407L530.395 244.299L532.716 246.8Z" fill="#E3E9F7"/>
<path d="M535.365 249.653L539.559 245.762L537.237 243.26L533.044 247.152L535.365 249.653Z" fill="#E3E9F7"/>
<path d="M538.009 252.507L542.203 248.615L539.882 246.113L535.688 250.005L538.009 252.507Z" fill="#E3E9F7"/>
<path d="M540.658 255.358L544.852 251.466L542.53 248.964L538.337 252.856L540.658 255.358Z" fill="#E3E9F7"/>
<path d="M543.306 258.21L547.5 254.318L545.179 251.817L540.985 255.708L543.306 258.21Z" fill="#E3E9F7"/>
</svg>
