<svg width="526" height="494" viewBox="0 0 526 494" fill="none" xmlns="http://www.w3.org/2000/svg">
<path d="M232.857 494C361.46 494 465.713 482.943 465.713 469.303C465.713 455.664 361.46 444.607 232.857 444.607C104.254 444.607 0 455.664 0 469.303C0 482.943 104.254 494 232.857 494Z" fill="#DCFAF9"/>
<path d="M236.864 244.175C245.2 220.153 266.227 198.527 292.272 197.151C306.082 196.421 320.243 201.298 333.575 197.787C355.333 192.053 364.522 167.89 378.018 150.346C396.72 126.038 434.711 112.791 460.104 130.78C477.64 143.208 483.727 165.962 484.95 186.988C486.178 208.015 483.858 229.538 489.833 249.811C498.006 277.541 520.977 300.271 525.307 328.783C529.365 355.534 515.344 382.786 493.887 399.75C472.424 416.714 444.561 424.479 416.941 426.759C403.018 427.91 388.815 427.798 375.413 431.571C356.078 437.01 340.164 449.967 323.186 460.443C265.299 496.167 220.767 453.763 222.965 393.515C223.668 374.244 231.212 355.712 232.257 336.296C233.935 305.125 226.306 274.639 236.873 244.17L236.864 244.175Z" fill="#ECF5F7"/>
<path d="M263.875 456.501C348.033 383.554 404.463 280.953 420.33 172.042L263.875 456.501Z" fill="white"/>
<path d="M349.727 357.519C392.061 337.03 442.511 332.799 488.055 345.919L349.727 357.519Z" fill="white"/>
<path d="M349.399 354.148C343.513 301.043 310.195 251.323 262.57 224.585L349.399 354.148Z" fill="white"/>
<path d="M250.891 334.109C282.419 351.649 301.988 387.842 298.928 422.953L250.891 334.109Z" fill="white"/>
<path d="M387.071 421.488C361.007 412.108 332.262 410.039 305.172 415.595L387.071 421.488Z" fill="white"/>
<path d="M354.828 206.938C377.293 220.85 391.689 246.394 391.633 272.237L354.828 206.938Z" fill="white"/>
<path d="M393.164 272.906C413.628 259.655 440.555 256.303 463.933 264.097L393.164 272.906Z" fill="white"/>
<path d="M14.5041 360.786C5.20216 345.348 2.94347 324.49 13.9698 310.452C19.8181 303.01 28.8716 297.982 32.986 289.491C39.7012 275.631 30.7086 259.688 27.269 244.606C22.4985 223.701 32.4659 198.003 53.7267 193.284C68.4129 190.026 83.5443 197.46 95.536 206.587C107.528 215.715 118.189 226.898 131.919 233.231C150.696 241.896 173.442 240.622 190.912 251.627C207.299 261.953 215.786 281.814 215.313 300.735C214.839 319.65 206.47 337.597 195.223 352.866C189.558 360.566 183.077 367.821 179.07 376.472C173.288 388.946 173.142 403.148 171.17 416.746C164.436 463.115 121.244 466.35 89.4628 437.258C79.2987 427.952 72.6257 415.468 62.5365 405.919C46.3414 390.589 26.3036 380.366 14.5087 360.786H14.5041Z" fill="#DDEFF2"/>
<path d="M142.213 445.426C140.573 368.266 110.268 291.607 58.1914 232.894L142.213 445.426Z" fill="white"/>
<path d="M127.176 355.309C135.166 324.017 155.667 296.091 183.39 278.744L127.176 355.309Z" fill="white"/>
<path d="M125.194 353.914C93.6469 332.298 51.5376 326.367 15.4688 338.463L125.194 353.914Z" fill="white"/>
<path d="M69.7656 395.308C93.5569 387.224 122.091 393.95 139.809 411.822L69.7656 395.308Z" fill="white"/>
<path d="M178.854 365.781C161.97 374.843 147.851 388.67 138.629 405.189L178.854 365.781Z" fill="white"/>
<path d="M47.5703 282.797C65.2931 277.695 85.6964 282.142 99.7265 294.163L47.5703 282.797Z" fill="white"/>
<path d="M100.785 293.69C102.828 277.012 113.175 261.597 127.979 253.181L100.785 293.69Z" fill="white"/>
<path d="M332.187 131.234H118.543V460.363H332.187V131.234Z" fill="#C1E5FD"/>
<path d="M332.183 131.234C332.183 135.526 321.756 139.828 300.898 143.105C298.827 143.432 296.695 143.737 294.497 144.031C269.919 147.317 238.1 148.577 207.992 147.8C186.689 147.247 166.253 145.689 149.823 143.105C128.966 139.828 118.539 135.526 118.539 131.234C118.539 126.941 128.966 122.64 149.823 119.368C169.13 116.335 193.99 114.706 219.262 114.486C248.597 114.214 278.49 115.848 300.898 119.368C304.6 119.953 307.97 120.557 311.016 121.203C325.126 124.161 332.187 127.704 332.187 131.229L332.183 131.234Z" fill="#C1E5FD"/>
<path d="M332.182 460.363C332.182 464.664 321.755 468.957 300.898 472.233C277.036 475.983 244.693 477.588 213.572 477.045C190.287 476.638 167.677 475.042 149.827 472.233C128.97 468.957 118.543 464.66 118.543 460.363C118.543 456.066 128.97 451.769 149.827 448.492C170.84 445.197 198.436 443.554 225.986 443.577C253.118 443.6 280.199 445.243 300.902 448.492C321.76 451.769 332.187 456.066 332.187 460.363H332.182Z" fill="#C1E5FD"/>
<path d="M332.187 131.234H118.543V460.363H332.187V131.234Z" fill="#C1E5FD"/>
<path d="M332.183 131.234C332.183 135.526 321.756 139.828 300.898 143.105C298.827 143.432 296.695 143.737 294.497 144.031C269.919 147.317 238.1 148.577 207.992 147.8C186.689 147.247 166.253 145.689 149.823 143.105C128.966 139.828 118.539 135.526 118.539 131.234C118.539 126.941 128.966 122.64 149.823 119.368C169.13 116.335 193.99 114.706 219.262 114.486C248.597 114.214 278.49 115.848 300.898 119.368C304.6 119.953 307.97 120.557 311.016 121.203C325.126 124.161 332.187 127.704 332.187 131.229L332.183 131.234Z" fill="#C1E5FD"/>
<path d="M332.182 460.363C332.182 464.664 321.755 468.957 300.898 472.233C277.036 475.983 244.693 477.588 213.572 477.045C190.287 476.638 167.677 475.042 149.827 472.233C128.97 468.957 118.543 464.66 118.543 460.363C118.543 456.066 128.97 451.769 149.827 448.492C170.84 445.197 198.436 443.554 225.986 443.577C253.118 443.6 280.199 445.243 300.902 448.492C321.76 451.769 332.187 456.066 332.187 460.363H332.182Z" fill="#C1E5FD"/>
<path d="M332.184 131.234V460.363C332.184 464.664 321.757 468.957 300.9 472.233C277.038 475.983 244.695 477.588 213.574 477.045C214.999 471.236 216.817 465.601 218.776 460.363C221.124 454.081 223.663 448.366 225.988 443.577C229.188 436.963 231.953 432.118 233.157 430.012C253.94 393.641 270.215 398.27 283.983 368.589C292.975 349.196 290.023 338.589 285.239 249.502C281.598 181.722 282.516 173.123 286.495 161.753C288.716 155.411 291.434 149.513 294.503 144.036C297.052 139.482 299.836 135.213 302.783 131.238C305.426 127.667 308.186 124.325 311.017 121.212C325.127 124.17 332.189 127.714 332.189 131.238L332.184 131.234Z" fill="#AECFE6"/>
<path d="M219.266 114.485C217.715 119.124 215.845 124.634 213.605 131.234C211.946 136.121 210.086 141.611 207.996 147.799C207.527 149.199 207.04 150.627 206.548 152.101C189.294 203.31 180.634 229.14 179.251 240.472C173.352 288.798 190.657 297.94 177.368 329.784C167.358 353.76 155.254 354.078 145.366 382.435C135.539 410.609 144.827 417.944 135.015 437.899C131.875 444.279 127.578 450.355 122.54 455.808C121.275 457.18 119.953 458.514 118.604 459.801C118.58 459.82 118.562 459.838 118.543 459.857V131.234C118.543 126.941 128.97 122.639 149.827 119.368C169.134 116.334 193.994 114.705 219.266 114.485Z" fill="#B1D8F2"/>
<path d="M91.1719 451.694L129.354 451.834L129.603 449.971L91.4249 449.831L91.1719 451.694Z" fill="#19517F"/>
<path d="M94.2656 428.743L132.448 428.884L132.696 427.021L94.5187 426.875L94.2656 428.743Z" fill="#19517F"/>
<path d="M97.3594 405.793L135.542 405.933L135.79 404.066L97.6124 403.925L97.3594 405.793Z" fill="#19517F"/>
<path d="M100.449 382.838L138.632 382.978L138.88 381.115L100.702 380.975L100.449 382.838Z" fill="#19517F"/>
<path d="M103.543 359.887L141.725 360.027L141.974 358.164L103.796 358.024L103.543 359.887Z" fill="#19517F"/>
<path d="M106.637 336.937L144.819 337.077L145.067 335.209L106.89 335.069L106.637 336.937Z" fill="#19517F"/>
<path d="M109.73 313.981L147.913 314.122L148.161 312.259L109.984 312.118L109.73 313.981Z" fill="#19517F"/>
<path d="M112.82 291.031L151.003 291.171L151.251 289.308L113.073 289.168L112.82 291.031Z" fill="#19517F"/>
<path d="M115.914 268.081L154.096 268.221L154.345 266.353L116.167 266.213L115.914 268.081Z" fill="#19517F"/>
<path d="M119.008 245.125L157.19 245.266L157.438 243.403L119.261 243.262L119.008 245.125Z" fill="#19517F"/>
<path d="M86.4141 468.938L91.5313 468.957L123.889 228.817L118.776 228.798L86.4141 468.938Z" fill="#19517F"/>
<path d="M124.598 469.079L129.71 469.098L162.068 228.958L156.955 228.939L124.598 469.079Z" fill="#19517F"/>
<path d="M247.636 115.45L197.289 115.071L198.072 112.964L216.019 64.6245L229.675 64.7275L247.636 115.45Z" fill="#E58925"/>
<path d="M239.172 113.273L198.07 112.964L216.018 64.6245L221.955 64.6666L239.172 113.273Z" fill="#E58217"/>
<path d="M249.513 15.3393L240.867 57.4862C239.607 63.6369 231.926 68.0229 223.412 68.1587C223.215 68.1587 223.018 68.1587 222.821 68.1587C214.072 68.0932 206.129 63.5293 204.934 57.2147L196.926 14.9414L249.518 15.3393H249.513Z" fill="#FFBD28"/>
<path d="M249.516 15.3394L240.87 57.4863C239.609 63.637 231.929 68.023 223.414 68.1588L223.812 15.1475L249.516 15.3394Z" fill="#FFC33B"/>
<path d="M196.937 2.51637L196.844 14.9438L249.434 15.3381L249.528 2.91063L196.937 2.51637Z" fill="#FFBC24"/>
<path d="M250.197 3.09905L250.104 15.5269L223.693 30.7632C222.821 19.9784 208.398 7.8689 199.789 8.87997C199.007 8.96891 198.266 9.0953 197.559 9.23104L197.605 2.70117L250.193 3.09905H250.197Z" fill="#FFC33B"/>
<path d="M252.458 3.86651V4.48907C252.444 5.9542 251.52 7.19464 250.232 7.69081C249.838 7.8406 249.412 7.92018 248.966 7.92018L197.579 7.53166C195.667 7.51762 194.134 5.95888 194.149 4.05374V3.43118C194.158 2.95841 194.256 2.50436 194.43 2.09712C194.964 0.852002 196.201 -0.00928625 197.64 7.55744e-05L249.027 0.388591C250.935 0.402634 252.472 1.96138 252.458 3.86651Z" fill="#E58925"/>
<path d="M205.835 27.9265C205.249 27.6971 204.677 27.4959 204.134 27.3227C203.702 28.0154 203.295 28.7269 202.911 29.4478C202.882 28.5023 202.85 27.538 202.807 26.5597C202.358 26.1571 201.922 25.778 201.5 25.4129C201.926 24.8699 202.39 24.3597 202.887 23.8775C202.99 22.8618 203.098 21.8413 203.21 20.8115C203.59 21.5558 203.97 22.3001 204.349 23.0443C204.94 22.9039 205.563 22.7962 206.21 22.7213C205.849 23.5592 205.507 24.4065 205.169 25.2537C205.399 26.1524 205.619 27.0418 205.839 27.9171L205.835 27.9265Z" fill="#EA942D"/>
<path d="M215.09 26.204C214.359 25.7593 213.637 25.3286 212.925 24.9167C212.32 25.4129 211.725 25.9278 211.149 26.4521C211.149 25.4878 211.158 24.5095 211.158 23.5312C210.554 22.9039 209.954 22.2907 209.363 21.6916C210.043 21.4248 210.741 21.186 211.453 20.9707C211.674 20.0486 211.898 19.1264 212.128 18.209C212.569 19.0843 213.009 19.9596 213.45 20.8397C214.223 20.952 215.01 21.0924 215.802 21.2469C215.315 21.9256 214.832 22.6184 214.363 23.3159C214.602 24.2848 214.846 25.2491 215.085 26.2087L215.09 26.204Z" fill="#EA942D"/>
<path d="M224.599 26.6813C223.84 26.1383 223.085 25.6 222.326 25.0664C221.651 25.4362 220.986 25.82 220.325 26.2132C220.363 25.263 220.4 24.3127 220.447 23.3625C219.805 22.6276 219.158 21.8927 218.512 21.1672C219.294 21.0829 220.086 21.0221 220.883 20.9753C221.169 20.1467 221.459 19.3276 221.764 18.5225C222.2 19.4352 222.631 20.348 223.067 21.2561C223.896 21.5136 224.721 21.7757 225.55 22.0519C225.007 22.6089 224.472 23.1893 223.943 23.7744C224.163 24.7387 224.383 25.7077 224.604 26.6766L224.599 26.6813Z" fill="#EA942D"/>
<path d="M234.274 28.3527C233.548 27.8238 232.817 27.2808 232.081 26.7378C231.397 27.0421 230.713 27.3557 230.033 27.6787C230.103 26.7752 230.178 25.8812 230.258 25.0012C229.635 24.2522 229.007 23.5033 228.379 22.7497C229.185 22.7684 229.991 22.8011 230.797 22.8339C231.12 22.1037 231.448 21.3922 231.79 20.7041C232.184 21.5654 232.578 22.422 232.971 23.2833C233.782 23.5782 234.588 23.8684 235.389 24.1493C234.832 24.6267 234.283 25.1229 233.735 25.6378C233.913 26.5365 234.096 27.4446 234.279 28.3574L234.274 28.3527Z" fill="#EA942D"/>
<path d="M243.208 29.5136C242.538 29.1157 241.858 28.6898 241.174 28.2451C240.504 28.5587 239.838 28.877 239.168 29.2C239.267 28.3715 239.375 27.557 239.487 26.7706C238.915 26.12 238.339 25.4553 237.758 24.7765C238.54 24.8046 239.318 24.8327 240.091 24.8514C240.434 24.2102 240.78 23.6016 241.136 23.0259C241.479 23.7467 241.821 24.4629 242.158 25.1838C242.922 25.4038 243.681 25.6004 244.431 25.7736C243.883 26.2183 243.334 26.6817 242.791 27.1685C242.927 27.9408 243.062 28.7225 243.203 29.5183L243.208 29.5136Z" fill="#EA942D"/>
<path d="M190.944 55.4315C190.944 55.4315 190.92 55.4081 190.906 55.394L190.939 55.4315H190.944Z" fill="#FFBD28"/>
<path d="M196.892 12.4467L195.589 13.2706L195.528 13.308C195.509 13.2799 195.491 13.2472 195.472 13.2191C195.467 13.2097 195.462 13.2004 195.453 13.1957L196.798 12.3438C196.831 12.3765 196.859 12.4093 196.892 12.4467Z" fill="#FFBD28"/>
<path d="M201.504 56.2927C200.965 56.6858 200.384 56.9995 199.78 57.2382C199.986 57.1165 200.183 56.9854 200.38 56.845C203.946 54.2471 204.508 49.3789 202.774 46.6359C201.364 44.3985 199.011 44.1597 196.518 43.907C195.117 43.7665 193.529 43.6027 191.706 43.1159C189.925 42.6384 183.833 40.6912 180.173 35.7388C175.201 29.0076 176.106 20.8067 178.393 15.8309C179.428 13.5747 181.096 9.94695 184.185 8.81885C181.804 10.3074 180.422 13.3125 179.517 15.2785C177.235 20.2543 176.331 28.4553 181.298 35.1864C184.958 40.1388 191.05 42.0861 192.83 42.5635C194.649 43.0504 196.242 43.2142 197.643 43.3546C200.136 43.6074 202.488 43.8461 203.899 46.0836C205.633 48.8313 205.07 53.6994 201.504 56.2927Z" fill="#FFBD28"/>
<path d="M193.497 10.7939C193.197 10.911 192.911 11.0654 192.648 11.248C193.005 11.1403 193.379 11.0748 193.768 11.0701C193.679 10.9765 193.586 10.8829 193.492 10.7939H193.497ZM196.8 12.348L195.455 13.1999L195.437 13.214C195.437 13.214 195.46 13.2233 195.474 13.2233C195.516 13.2374 195.554 13.2561 195.591 13.2748L196.894 12.451C196.866 12.4182 196.833 12.3855 196.8 12.348Z" fill="#FFBD28"/>
<path d="M199.036 14.609C199.022 16.4205 197.818 17.9512 196.169 18.4567C197.214 17.7312 197.902 16.5235 197.912 15.1567C197.921 14.1175 197.532 13.1673 196.895 12.4418C196.867 12.409 196.834 12.3762 196.801 12.3388L197.565 11.8566C197.396 11.5898 197.223 11.3324 197.045 11.0796C193.844 6.55318 189.036 4.12846 184.585 4.86337C183.839 4.98507 183.146 5.18635 182.504 5.45316C183.441 4.91486 184.505 4.5123 185.709 4.31102C190.409 3.53399 195.508 6.277 198.69 11.3043L197.926 11.7864C198.619 12.5213 199.041 13.5137 199.036 14.5997V14.609Z" fill="#FFBD28"/>
<path d="M191.518 55.9414C191.302 55.7963 191.11 55.6278 190.941 55.4312C191.129 55.6137 191.316 55.7822 191.518 55.9414Z" fill="#FFBD28"/>
<path d="M198.102 53.8771C197.366 54.392 196.495 54.6354 195.614 54.6261C195.29 54.6261 194.972 54.5839 194.648 54.5137C194.662 54.4154 194.667 54.3171 194.667 54.2188C194.667 53.9754 194.639 53.7414 194.583 53.5167C194.283 52.3324 193.21 51.4524 191.93 51.443C191.71 51.443 191.499 51.4664 191.293 51.5133C191.771 51.1201 192.39 50.886 193.055 50.8907C194.578 50.9001 195.801 52.1452 195.792 53.6665C195.792 53.7695 195.787 53.8678 195.773 53.9614C196.546 54.1346 197.352 54.1112 198.097 53.8771H198.102Z" fill="#FFBD28"/>
<path d="M190.944 55.431C190.944 55.431 190.92 55.4076 190.906 55.3936L190.939 55.431H190.944Z" fill="#EF9529"/>
<path d="M191.522 55.9414C191.306 55.7963 191.114 55.6278 190.945 55.4312C191.133 55.6137 191.32 55.7822 191.522 55.9414Z" fill="#EF9529"/>
<path d="M192.371 11.3463C192.465 11.3089 192.554 11.2761 192.652 11.248C192.577 11.2995 192.507 11.351 192.437 11.4072C192.418 11.3885 192.395 11.3651 192.376 11.3463H192.371Z" fill="#EF9529"/>
<path d="M193.496 10.7939C193.59 10.8829 193.679 10.9765 193.772 11.0701C193.383 11.0701 193.008 11.1357 192.652 11.248C192.915 11.0654 193.196 10.911 193.501 10.7939H193.496Z" fill="#EF9529"/>
<path d="M192.372 11.3463C192.372 11.3463 192.414 11.3885 192.433 11.4072C192.503 11.351 192.578 11.2949 192.648 11.248C192.555 11.2761 192.461 11.3089 192.367 11.3463H192.372ZM196.8 12.3481L195.455 13.2L195.437 13.214C195.437 13.214 195.46 13.2234 195.474 13.2234C195.493 13.2515 195.512 13.2796 195.53 13.3123L195.591 13.2749L196.894 12.451C196.866 12.4183 196.833 12.3855 196.8 12.3481Z" fill="#EF9529"/>
<path d="M200.376 56.845C200.179 56.9854 199.983 57.1165 199.776 57.2382C198.806 57.622 197.771 57.8046 196.735 57.7999C195.385 57.7905 194.031 57.4535 192.817 56.8028C192.368 56.5594 191.936 56.2786 191.529 55.9509C191.529 55.9509 191.524 55.9462 191.519 55.9415C191.323 55.7824 191.13 55.6139 190.943 55.4313L190.91 55.3939C190.821 55.2862 190.742 55.1692 190.667 55.0522C190.418 54.6356 190.278 54.1488 190.282 53.6292C190.287 52.7773 190.681 52.0189 191.294 51.5181C191.501 51.4713 191.712 51.4479 191.932 51.4479C193.211 51.4572 194.28 52.3372 194.584 53.5215C194.64 53.7462 194.668 53.9802 194.668 54.2237C194.668 54.3266 194.659 54.4249 194.65 54.5186C194.968 54.5934 195.292 54.6262 195.615 54.6309C196.496 54.6403 197.368 54.3922 198.103 53.8819C198.525 53.7509 198.928 53.5496 199.298 53.2828C201.243 51.8692 201.449 49.2151 200.732 48.0776C200.329 47.4457 199.462 47.3006 197.26 47.0759C195.793 46.9261 193.966 46.7389 191.857 46.1725C189.195 45.4563 182.55 43.172 178.286 37.4051C172.349 29.368 173.408 19.627 176.116 13.7244C177.185 11.3933 178.984 7.47539 182.494 5.46727C183.136 5.20046 183.825 4.99918 184.575 4.87748C189.026 4.1379 193.834 6.56261 197.035 11.0937C197.213 11.3465 197.386 11.604 197.555 11.8708L196.791 12.3529L195.446 13.2048L195.428 13.2189C195.287 13.1674 195.132 13.144 194.973 13.1393C194.645 13.1393 194.345 13.2423 194.101 13.4248C193.998 13.4997 193.905 13.5933 193.825 13.6916C193.633 13.935 193.516 14.244 193.516 14.5763C193.511 15.3721 194.153 16.0274 194.954 16.0321H194.978C195.765 16.0274 196.407 15.3861 196.416 14.5951C196.416 14.0146 196.079 13.5091 195.587 13.275L196.89 12.4512C197.527 13.1767 197.916 14.1223 197.907 15.1661C197.897 16.533 197.208 17.7359 196.163 18.4662C195.774 18.5879 195.362 18.6487 194.936 18.644C192.696 18.6253 190.887 16.7904 190.901 14.5529C190.91 13.2844 191.505 12.1516 192.429 11.4167C192.499 11.3605 192.574 11.3044 192.644 11.2576C193 11.1499 193.375 11.0844 193.764 11.0797C193.675 10.9861 193.581 10.8925 193.488 10.8035C191.318 8.70178 188.666 7.62049 186.308 8.00901C185.521 8.14008 184.814 8.42561 184.176 8.82349C181.088 9.94691 179.42 13.5793 178.384 15.8355C176.102 20.8113 175.198 29.0123 180.165 35.7434C183.825 40.6958 189.917 42.6431 191.697 43.1205C193.516 43.6073 195.109 43.7712 196.51 43.9116C199.003 44.1644 201.356 44.4031 202.766 46.6406C204.5 49.3883 203.938 54.2564 200.371 56.8496L200.376 56.845Z" fill="#EF9529"/>
<path d="M190.944 55.4315C190.944 55.4315 190.92 55.4081 190.906 55.394L190.939 55.4315H190.944Z" fill="#EF9529"/>
<path d="M191.518 55.9414C191.302 55.7963 191.11 55.6278 190.941 55.4312C191.129 55.6137 191.316 55.7822 191.518 55.9414Z" fill="#EF9529"/>
<path d="M250.912 11.4777C250.617 11.6463 250.345 11.8522 250.101 12.0863L249.539 11.6884C249.97 11.5386 250.429 11.4637 250.912 11.4777Z" fill="#FFBD28"/>
<path d="M252.486 13.626C252.462 13.6541 252.444 13.6821 252.42 13.7149L252.359 13.6728C252.402 13.6541 252.439 13.64 252.481 13.626H252.486Z" fill="#FFBD28"/>
<path d="M255.053 55.9697C255.053 55.9697 255.025 55.9932 255.011 56.0072C255.011 56.0072 255.011 56.0072 255.006 56.0119C254.819 56.1804 254.627 56.3349 254.43 56.48C252.87 57.6268 250.981 58.1651 249.125 58.0949C247.734 58.0387 246.361 57.6362 245.156 56.8825C245.803 57.0791 246.468 57.1868 247.138 57.2149C248.558 57.271 249.997 56.9574 251.29 56.274C251.192 56.1991 251.108 56.1149 251.023 56.0259C251.482 56.0072 251.914 55.8714 252.289 55.6468C252.481 55.5063 252.663 55.3565 252.846 55.1974C252.851 55.1974 252.851 55.1974 252.851 55.1927C252.865 55.1787 252.879 55.1646 252.893 55.1459C253.146 54.8697 253.338 54.5421 253.455 54.1816L255.058 55.9651L255.053 55.9697Z" fill="#FFBD28"/>
<path d="M268.503 38.5894C263.977 44.1503 257.229 46.121 254.534 46.7061C252.397 47.1742 250.565 47.2725 249.094 47.3521C246.886 47.4691 246.01 47.5721 245.579 48.19C244.811 49.29 244.895 51.9534 246.765 53.456C246.816 53.4934 246.868 53.5356 246.919 53.573C246.174 53.4794 245.453 53.1985 244.853 52.7117C243.034 51.2513 242.955 48.6721 243.7 47.6048C244.117 47.0104 244.965 46.9074 247.107 46.7904C248.536 46.7155 250.312 46.6172 252.388 46.1631C254.998 45.5921 261.545 43.6822 265.935 38.2898C272.055 30.7723 271.479 21.2841 269.127 15.4423C267.946 12.5167 265.753 7.06815 260.27 5.89325C258.925 5.60303 257.533 5.61707 256.151 5.90261C258.288 5.00855 260.532 4.73238 262.66 5.19111C268.311 6.40347 270.575 12.0159 271.788 15.0351C274.216 21.0594 274.811 30.8378 268.503 38.5894Z" fill="#FFBD28"/>
<path d="M250.277 14.1222L250.334 14.1597C250.352 14.1316 250.371 14.1035 250.394 14.0801C250.357 14.0894 250.315 14.1035 250.277 14.1222Z" fill="#FFBD28"/>
<path d="M255.756 54.2285C255.728 54.8979 255.466 55.5017 255.049 55.9651C255.035 55.9792 255.025 55.9932 255.011 56.0072C255.011 56.0072 255.011 56.0072 255.007 56.0119C254.838 56.1898 254.641 56.3489 254.43 56.48C253.985 56.7468 253.46 56.8919 252.903 56.8685C252.293 56.8451 251.736 56.6204 251.291 56.2694C251.192 56.1945 251.108 56.1102 251.023 56.0213C251.483 56.0026 251.914 55.8668 252.289 55.6421C252.481 55.5017 252.664 55.3519 252.846 55.1928C252.851 55.1928 252.851 55.1928 252.851 55.1881C252.865 55.174 252.879 55.16 252.893 55.1413C253.146 54.8651 253.338 54.5374 253.456 54.177C253.53 53.9523 253.573 53.7089 253.582 53.4608C253.615 52.6417 253.273 51.8927 252.71 51.3825C252.846 51.3685 252.982 51.3638 253.123 51.3685C254.646 51.4293 255.827 52.7072 255.766 54.2285H255.756Z" fill="#FFBD28"/>
<path d="M269.126 15.4425C267.945 12.5169 265.752 7.06835 260.269 5.89344C258.924 5.60323 257.533 5.61727 256.15 5.90281C253.606 6.97005 251.22 8.91731 249.36 11.562L249.538 11.6837C249.969 11.5339 250.429 11.459 250.911 11.4731C250.616 11.6416 250.344 11.8476 250.1 12.0816C249.726 12.442 249.416 12.8774 249.201 13.3595C248.999 13.8135 248.877 14.3144 248.859 14.8387C248.774 16.9498 250.33 18.7519 252.387 19.0234C253.732 18.4383 254.702 17.123 254.763 15.5642C254.81 14.3284 254.285 13.2003 253.418 12.4467C253.788 12.0301 254.173 11.6463 254.571 11.2905C255.536 10.4386 256.581 9.7786 257.645 9.3386C259.074 8.74412 260.532 8.5522 261.877 8.83774C265.588 9.63349 267.303 13.8838 268.325 16.4255C270.373 21.5043 270.888 29.738 265.602 36.2304C261.717 41.005 255.536 42.662 253.737 43.0552C251.895 43.4578 250.302 43.542 248.891 43.6169C246.389 43.7527 244.027 43.879 242.514 46.0463C240.653 48.7097 240.981 53.5966 244.426 56.3584C244.655 56.5456 244.899 56.7188 245.147 56.8686C245.794 57.0652 246.459 57.1728 247.13 57.2009C248.549 57.2571 249.988 56.9435 251.281 56.2601C251.183 56.1852 251.099 56.1009 251.014 56.012C251.474 55.9932 251.905 55.8575 252.28 55.6328C252.472 55.4924 252.654 55.3426 252.837 55.1834C252.842 55.1834 252.842 55.1834 252.842 55.1788C252.856 55.1647 252.87 55.1507 252.884 55.132C253.137 54.8558 253.329 54.5281 253.446 54.1677C253.521 53.943 253.564 53.6996 253.573 53.4515C253.606 52.6324 253.264 51.8834 252.701 51.3732C251.844 51.4668 251.099 51.9583 250.663 52.6604C250.419 53.0536 250.269 53.5077 250.25 54.0039C250.25 54.1068 250.25 54.2051 250.255 54.3034C249.632 54.4111 248.99 54.3971 248.385 54.2473C247.865 54.1162 247.368 53.8915 246.923 53.5685C246.178 53.4749 245.457 53.1941 244.857 52.7072C243.039 51.2468 242.959 48.6676 243.704 47.6004C244.121 47.0059 244.969 46.9029 247.111 46.7859C248.54 46.711 250.316 46.6127 252.392 46.1586C255.002 45.5876 261.549 43.6778 265.939 38.2854C272.06 30.7678 271.483 21.2796 269.131 15.4378L269.126 15.4425ZM252.022 16.14C251.764 16.5612 251.291 16.8374 250.766 16.8187C249.993 16.7859 249.388 16.1306 249.416 15.3582C249.44 14.7965 249.791 14.3238 250.279 14.1225C250.316 14.1038 250.354 14.0897 250.396 14.0804C250.546 14.0289 250.71 14.0055 250.878 14.0148C251.174 14.0242 251.441 14.1272 251.661 14.291C252.017 14.5578 252.247 14.9931 252.228 15.4706C252.219 15.714 252.144 15.9434 252.026 16.14H252.022ZM252.42 13.7106L252.359 13.6684C252.401 13.6497 252.439 13.6357 252.481 13.6216C252.458 13.6497 252.439 13.6778 252.415 13.7106H252.42Z" fill="#EF9529"/>
<path d="M250.912 11.4775C250.616 11.6461 250.345 11.852 250.101 12.0861C249.726 12.4465 249.417 12.8818 249.201 13.3639L248.086 12.5822C248.494 12.189 248.99 11.8801 249.539 11.6929C249.97 11.5431 250.429 11.4682 250.912 11.4822V11.4775Z" fill="#EF9529"/>
<path d="M250.394 14.0806C250.371 14.1087 250.357 14.1367 250.334 14.1601L250.277 14.1227C250.315 14.104 250.352 14.0899 250.394 14.0806Z" fill="#EF9529"/>
<path d="M251.016 56.0212C251.475 56.0025 251.906 55.8668 252.281 55.6421C251.962 55.8761 251.63 56.0868 251.283 56.2693C251.184 56.1944 251.1 56.1102 251.016 56.0212Z" fill="#EF9529"/>
<path d="M252.891 55.1505C252.891 55.1505 252.858 55.1786 252.844 55.1879C252.858 55.1739 252.872 55.1598 252.886 55.1411H252.891V55.1505Z" fill="#EF9529"/>
<path d="M248.859 14.8434C248.878 14.3191 249 13.8183 249.202 13.3642C249.417 12.8821 249.722 12.4468 250.101 12.0864C250.34 11.8523 250.612 11.6463 250.912 11.4778C250.434 11.4685 249.97 11.5434 249.539 11.6885C248.991 11.8757 248.494 12.1847 248.086 12.5778C247.379 13.2566 246.924 14.2021 246.882 15.2553C246.798 17.4226 248.494 19.2622 250.664 19.3464C251.273 19.3699 251.859 19.2528 252.383 19.0281C250.326 18.7567 248.77 16.9545 248.855 14.8434H248.859ZM252.365 13.6685L252.426 13.7106C252.444 13.6825 252.468 13.6545 252.491 13.6217C252.449 13.6357 252.407 13.6498 252.369 13.6685H252.365Z" fill="#FFBD28"/>
<path d="M252.839 55.1929C252.675 55.3661 252.487 55.5159 252.281 55.6422C252.473 55.5018 252.656 55.352 252.839 55.1929Z" fill="#EF9529"/>
<path d="M247.752 100.148L197.406 99.771L197.291 115.068L247.637 115.445L247.752 100.148Z" fill="#0C456B"/>
<path d="M252.458 3.86651V4.48907C252.444 5.9542 251.52 7.19464 250.232 7.69081C249.098 6.67038 247.72 5.73887 245.967 5.03206C242.34 3.57629 241.436 4.84014 232.888 4.4329C221.815 3.91332 222.406 1.74606 214.594 2.055C210.775 2.20947 206.121 2.90224 198.891 2.68224C197.757 2.64947 195.92 2.5699 194.43 2.09244C194.964 0.852001 196.201 -0.00928625 197.64 7.55751e-05L249.027 0.388591C250.935 0.402634 252.472 1.96138 252.458 3.86651Z" fill="#FF9B30"/>
<path d="M235.262 104.441L211.035 104.259L210.977 112.025L235.203 112.206L235.262 104.441Z" fill="#FFBD28"/>
<path d="M95.8366 308.304C96.324 308.43 96.9706 308.613 97.4252 309.203C97.6876 309.549 97.7907 309.909 97.8329 310.144L98.0859 311.59C98.7139 312.943 98.7326 313.973 98.592 314.707C97.9735 317.947 93.3202 320.432 86.6097 321.055C85.5178 321.153 84.3744 321.209 83.1795 321.205C80.9489 321.181 78.7136 321.153 76.483 321.134L74.6133 310.364C76.5814 310.696 79.693 310.499 83.4184 310.115C84.9789 309.956 85.9583 309.853 86.4597 309.783C88.9668 309.427 91.0146 308.931 92.4767 308.519C93.1234 308.285 94.4167 307.925 95.8413 308.299L95.8366 308.304Z" fill="#EFB98F"/>
<path d="M115.368 276.67C115.795 277.017 115.865 277.578 115.902 277.869C116.141 279.764 113.198 284.412 113.039 284.661C111.765 284.937 110.495 285.213 109.22 285.489C109.051 284.923 108.864 284.127 108.822 283.163C108.742 281.375 109.201 280.064 109.487 279.278C110.157 277.419 110.832 277.794 112.013 275.603C113.02 273.735 113.278 272.209 113.92 272.247C114.258 272.265 114.492 272.701 114.525 272.766C115.176 273.983 113.484 275.622 114.028 276.249C114.309 276.572 114.843 276.24 115.373 276.67H115.368Z" fill="#EFB98F"/>
<path d="M113.587 284.076C113.08 288.293 111.815 295.034 108.118 302.397C107.204 304.218 98.6941 321.162 91.3416 319.665C87.6724 318.916 84.4905 313.621 85.6293 311.108C86.1635 309.928 87.7333 310.284 90.3575 308.969C92.8318 307.728 94.2329 306.081 95.7137 304.335C100.84 298.291 106.501 286.233 108.802 282.344C108.966 282.067 109.336 281.459 109.988 281.328C111.22 281.084 112.635 282.727 113.577 284.076H113.587Z" fill="#EFB98F"/>
<path opacity="0.53" d="M82.0147 310.26C84.6717 312.404 86.3915 317.141 85.5902 321.218C84.4983 321.317 83.3549 321.373 82.1599 321.368C79.9294 321.345 77.6941 321.317 75.4635 321.298L73.5938 310.527C75.5619 310.859 78.2892 310.644 82.0147 310.265V310.26Z" fill="#EDA264"/>
<path d="M58.0674 314.829C60.851 320.793 69.8858 322.085 71.9758 322.384C72.5475 322.468 74.9842 322.787 77.8521 322.23C79.7453 321.86 80.481 321.368 80.7669 321.162C82.2242 320.095 82.5804 318.593 82.735 317.942C82.8475 317.464 83.2646 315.452 82.0977 313.205C81.0012 311.094 79.1314 309.966 78.0817 309.348C72.0554 305.809 60.2699 304.47 57.6785 309.203C56.4695 311.412 57.7253 314.094 58.0674 314.829Z" fill="#E8EAEA"/>
<path d="M71.6701 376.074C82.2325 376.757 89.2992 374.721 99.3227 372.797C103.756 371.945 109.702 370.934 116.938 370.092C121.23 369.591 122.566 364.175 118.986 361.764C118.986 361.764 118.976 361.76 118.976 361.755C118.967 361.75 118.957 361.741 118.948 361.736C115.869 359.705 112.252 358.605 108.55 358.577C93.198 358.455 77.8464 358.333 62.49 358.212C61.0655 358.202 59.758 358.942 59.0739 360.154C57.4712 363 55.2406 368.327 58.2585 372.086C58.7974 372.76 61.1217 375.395 71.6654 376.074H71.6701Z" fill="#E58217"/>
<path d="M100.935 417.374L105.706 419.134C107.06 411.373 109.052 402.643 112.004 393.248C114.684 384.72 117.707 377.094 120.734 370.424C121.461 368.828 121.681 367.04 121.282 365.327C120.95 363.89 120.247 362.691 119.155 361.999C117.876 361.189 116.353 361.268 113.302 361.456C112.318 361.516 111.503 361.61 110.954 361.685C108.33 367.021 105.687 373.556 103.7 381.204C99.942 395.692 100.05 408.41 100.931 417.378L100.935 417.374Z" fill="#E58217"/>
<path d="M99.5039 420.711L108.075 422.368L105.619 417.022L100.755 416.082L99.5039 420.711Z" fill="#195FB2"/>
<path d="M98.5086 424.119C99.0335 424.339 99.8348 424.629 100.842 424.821C102.67 425.167 102.937 424.76 104.465 424.957C106.887 425.27 107.867 426.515 110.271 426.815C111.058 426.913 111.845 426.909 111.845 426.909C112.155 426.927 112.525 426.918 112.942 426.848C113.209 426.801 113.453 426.74 113.682 426.665C114.315 426.455 114.526 425.631 114.062 425.149C113.888 424.966 113.701 424.783 113.495 424.601C112.244 423.501 110.95 422.972 110.083 422.71C109.498 421.844 108.56 420.791 107.197 420.505C106.288 420.313 105.66 420.566 104.84 420.678C103.659 420.842 101.934 420.744 99.6661 419.48C98.3634 419.953 97.5246 421.137 97.5808 422.307C97.6276 423.318 98.3259 423.964 98.5039 424.119H98.5086Z" fill="#052B51"/>
<path d="M46.4727 371.515C44.7904 381.687 46.2103 388.755 47.2459 398.674C47.7051 403.06 48.1831 408.934 48.3706 416.04C48.483 420.253 53.8908 422.111 56.6837 418.891C56.6837 418.891 56.6884 418.886 56.6931 418.881C56.6977 418.872 56.7071 418.867 56.7118 418.858C59.0736 416.082 60.531 412.684 60.9059 409.103C62.457 394.222 64.0127 379.346 65.5638 364.466C65.7091 363.085 65.0718 361.737 63.9003 360.95C61.1402 359.101 55.9105 356.386 51.7914 358.923C51.051 359.378 48.1503 361.358 46.4727 371.51V371.515Z" fill="#EF9529"/>
<path d="M47.1062 464.366L52.0969 465.33C52.1906 457.452 52.7529 448.516 54.1635 438.771C55.4428 429.924 57.2047 421.91 59.1213 414.832C59.5806 413.138 59.5103 411.34 58.8449 409.712C58.2872 408.345 57.3969 407.277 56.2113 406.772C54.8195 406.177 53.3293 406.51 50.3443 407.184C49.379 407.404 48.5964 407.628 48.0622 407.792C46.3283 413.484 44.7631 420.361 44.0321 428.229C42.645 443.133 44.7913 455.664 47.0968 464.37L47.1062 464.366Z" fill="#EF9529"/>
<path d="M46.2305 467.89L54.956 468.134L51.6757 463.261L46.7225 463.125L46.2305 467.89Z" fill="#195FB2"/>
<path d="M45.7903 471.415C46.3433 471.546 47.1821 471.705 48.2084 471.729C50.0641 471.775 50.2656 471.326 51.8073 471.275C54.2487 471.19 55.4156 472.258 57.8383 472.164C58.6302 472.131 59.4081 472 59.4081 472C59.7174 471.967 60.0829 471.897 60.4812 471.761C60.739 471.672 60.9686 471.57 61.1795 471.462C61.7699 471.153 61.8449 470.301 61.3107 469.903C61.1092 469.753 60.8936 469.604 60.664 469.458C59.2535 468.574 57.8898 468.265 56.9948 468.148C56.2778 467.389 55.186 466.505 53.7942 466.444C52.8663 466.402 52.2853 466.753 51.4933 467.001C50.3546 467.357 48.6348 467.535 46.1933 466.659C44.9797 467.338 44.347 468.639 44.5907 469.786C44.8016 470.774 45.5888 471.298 45.7903 471.424V471.415Z" fill="#052B51"/>
<path d="M46.1886 366.23C50.167 366.628 55.9169 366.764 62.618 365.397C68.5787 364.18 73.3164 359.915 76.6341 358.207C72.8665 348.302 70.2188 342.713 68.8646 338.205C68.4897 336.956 67.8289 334.667 68.171 331.764C68.5225 328.82 69.7174 326.835 70.2048 325.895C72.9134 320.661 72.9321 310.471 67.3416 305.476C61.245 300.033 50.8372 302.804 49.5204 303.323C48.4238 303.754 46.062 304.933 45.0451 305.196C43.9111 305.622 39.1079 307.906 37.3787 313.588C36.718 315.77 36.1697 317.895 35.8604 320.296C35.7339 321.261 35.5464 323.114 35.5933 325.628C35.7058 332.153 38.1706 341.955 41.9758 351.19C42.674 352.88 43.794 355.478 44.8062 359.27C45.6028 362.261 45.9917 364.732 46.1932 366.23H46.1886Z" fill="#B3DEE5"/>
<path d="M70.0193 341.206L64.307 342.563L58.9414 311.29L59.9489 311.051L70.0193 341.206Z" fill="#195FB2"/>
<path d="M67.9505 344.641L67.7677 344.683L64.3047 342.563L70.017 341.206L67.9505 344.641Z" fill="#195FB2"/>
<path d="M60.4359 312.02L59.0676 312.343C58.4771 312.484 57.882 312.133 57.7367 311.557L57.3524 310.031C57.2072 309.455 57.568 308.875 58.1631 308.734L59.5315 308.411C60.1219 308.271 60.7171 308.622 60.8623 309.198L61.2466 310.724C61.3919 311.299 61.031 311.88 60.4359 312.02Z" fill="#195FB2"/>
<path d="M63.0657 308.037C61.7301 307.761 60.0197 307.274 58.164 306.371C55.7226 305.182 53.9653 303.735 52.8359 302.631C53.9044 300.88 54.9728 299.125 56.0459 297.374C58.5155 298.736 60.9804 300.098 63.4499 301.46C63.3234 303.651 63.1969 305.842 63.0657 308.037Z" fill="white"/>
<path d="M46.9023 306.099C52.1133 309.825 60.5857 308.585 60.8528 307.859C60.6935 307.737 59.8969 303.44 59.4142 299.976C59.1424 298.062 58.969 296.4 59.044 295.834C56.0965 293.943 53.1489 292.047 50.2014 290.156C50.5856 291.635 51.1854 294.579 50.6325 298.01C50.4122 299.382 50.0045 300.828 49.3297 302.298C48.6128 303.852 47.7412 305.111 46.907 306.099H46.9023Z" fill="#EDC094"/>
<path d="M50.6311 298.01C51.0716 298.553 51.6339 299.078 52.3275 299.522C54.0332 300.608 55.7624 300.725 56.6199 300.711C56.7605 300.711 56.9011 300.697 57.037 300.669C57.4681 300.59 58.4897 300.477 59.4082 299.976C59.1364 298.062 58.963 296.4 59.038 295.834C56.0904 293.943 53.1429 292.047 50.1953 290.156C50.5796 291.635 51.1794 294.579 50.6264 298.01H50.6311Z" fill="#EFA55B"/>
<path d="M57.3858 297.992C57.5264 297.992 57.667 297.978 57.8029 297.95C58.4823 297.828 60.6192 297.608 61.5283 295.96C62.7092 293.821 60.6426 292.37 60.4927 291.495C60.0194 288.724 60.6098 287.31 60.249 284.525C60.249 284.506 60.2443 284.483 60.2396 284.464C59.9022 281.876 57.4514 280.059 54.7897 280.392L51.814 280.762C51.6406 280.785 51.4673 280.822 51.2986 280.879C50.9049 281.024 50.4316 281.262 50.0005 281.665C48.515 283.065 48.8337 285.204 48.9227 285.648C48.9321 285.695 48.9414 285.747 48.9461 285.794L49.6444 291.092C49.6912 291.565 50.0942 294.884 53.0886 296.794C54.7944 297.88 56.5235 297.997 57.3811 297.983L57.3858 297.992Z" fill="#052A4F"/>
<path d="M51.8664 284.038L54.9358 283.654C58.4785 283.214 61.009 280.031 60.5545 276.581L60.5217 276.338C60.3998 275.42 59.5282 274.765 58.5863 274.882L53.8861 275.467C50.723 275.86 47.3444 280.438 48.9048 283.748C49.0923 285.171 50.4044 284.216 51.8664 284.033V284.038Z" fill="#052A4F"/>
<path d="M57.6493 292.726L58.1742 292.66C59.6362 292.478 60.789 292.028 60.6016 290.605C60.5313 290.1 60.4516 287.212 60.536 286.673C60.625 286.083 60.714 280.087 58.3569 280.382C58.1367 280.41 58.296 281.094 57.8087 281.328C57.1714 281.627 55.8171 281.534 55.1329 281.243L55.0298 281.197C54.1676 280.831 53.2022 280.733 52.2978 280.977C51.1497 281.281 50.6483 282.957 50.8826 285.058C50.8967 285.185 50.9014 285.316 50.892 285.447L50.7702 287.301C50.7608 287.46 50.7655 287.623 50.7889 287.778C51.3372 290.924 54.3691 293.133 57.6493 292.726Z" fill="#F7CFA4"/>
<path d="M49.8483 286.439C49.9373 287.113 50.3684 287.619 50.8136 287.563C51.2588 287.507 51.5446 286.917 51.4556 286.238C51.3666 285.559 50.9354 285.058 50.4903 285.115C50.0451 285.171 49.7592 285.761 49.8483 286.439Z" fill="#F7CFA4"/>
<path d="M55.7063 310.171C54.3708 309.895 52.6603 309.408 50.8047 308.505C48.3632 307.316 46.6059 305.87 45.4766 304.765C46.545 303.014 47.6134 301.259 48.6865 299.508C51.1561 300.87 53.621 302.233 56.0906 303.595C55.964 305.785 55.8375 307.976 55.7063 310.171Z" fill="white"/>
<path d="M35.372 346.575C35.0956 346.987 34.716 347.53 34.0037 347.75C33.5866 347.881 33.2118 347.853 32.9728 347.811L31.5013 347.558C30.0018 347.685 29.0083 347.357 28.3476 346.978C25.4375 345.311 24.5284 340.148 26.0701 333.698C26.3185 332.65 26.6372 331.564 27.0167 330.459C27.7525 328.39 28.4882 326.321 29.2192 324.252L40.1519 326.129C39.21 327.852 38.4039 330.81 37.5839 334.405C37.2418 335.907 37.0262 336.858 36.9325 337.344C36.478 339.793 36.2999 341.871 36.2296 343.369C36.2483 344.048 36.1827 345.372 35.372 346.575Z" fill="#F7CFA4"/>
<path d="M54.7545 377.483C54.2812 377.258 53.9344 376.992 53.672 376.743C51.7132 374.838 52.5989 371.534 52.7066 371.159C53.6017 369.689 54.4967 368.224 55.3918 366.754C55.8323 367.148 56.4087 367.733 56.9476 368.533C57.9457 370.017 58.2409 371.374 58.4143 372.194C58.7751 373.944 59.0985 375.498 58.18 376.645C58.0535 376.804 57.5427 377.427 56.6289 377.652C55.7339 377.876 54.9981 377.591 54.7545 377.488V377.483Z" fill="#F7CFA4"/>
<path d="M52.9818 371.23C49.0923 369.343 43.0285 365.898 37.1381 359.986C35.6807 358.526 22.1239 344.913 25.9055 338.576C27.7894 335.411 33.886 334.227 35.9385 336.137C36.8991 337.031 36.0603 338.37 36.4867 341.253C36.8851 343.973 38.0238 345.831 39.2281 347.797C43.394 354.598 53.1646 363.913 56.1683 367.363C56.3792 367.607 56.8478 368.159 56.7635 368.81C56.6041 370.041 54.5751 370.799 52.9818 371.23Z" fill="#F7CFA4"/>
<path opacity="0.53" d="M37.8965 333.056C34.9958 334.812 29.8973 334.816 26.2422 332.705C26.4906 331.657 26.8092 330.571 27.1888 329.466C27.9245 327.397 28.6602 325.328 29.3912 323.259L40.3239 325.136C39.382 326.854 38.7166 329.461 37.8965 333.061V333.056Z" fill="#F2AC6D"/>
<path d="M41.1325 309.24C34.5204 309.825 30.406 317.801 29.4548 319.641C29.1923 320.147 28.1099 322.305 27.735 325.16C27.4866 327.046 27.7209 327.894 27.8334 328.231C28.391 329.948 29.7219 330.782 30.2983 331.147C30.72 331.414 32.5195 332.476 35.05 332.144C37.4258 331.835 39.1034 330.473 40.0266 329.705C45.3406 325.286 50.3782 314.768 46.6621 310.771C44.9282 308.903 41.9526 309.17 41.1372 309.24H41.1325Z" fill="#ECF5F7"/>
<path d="M320.259 262.178L315.438 253.733L322.087 254.333L324.824 259.131L320.259 262.178Z" fill="#F9A63A"/>
<path d="M316.924 264.504C316.502 264.032 315.903 263.292 315.34 262.3C314.323 260.497 314.67 260.058 313.916 258.517C312.721 256.069 311.029 255.503 309.853 253.069C309.469 252.273 309.197 251.435 309.197 251.435C309.07 251.117 308.944 250.719 308.873 250.251C308.827 249.951 308.812 249.666 308.812 249.399C308.812 248.65 309.637 248.121 310.321 248.43C310.579 248.547 310.846 248.678 311.113 248.828C312.744 249.741 313.77 250.911 314.361 251.73C315.504 252.025 316.971 252.624 317.763 253.958C318.292 254.852 318.241 255.606 318.405 256.514C318.644 257.825 319.361 259.608 321.531 261.537C321.484 263.091 320.495 264.42 319.211 264.795C318.1 265.122 317.158 264.626 316.924 264.495V264.504Z" fill="#052B51"/>
<path d="M323.633 262.997C322.686 259.978 321.74 256.963 320.793 253.944C328.956 252.348 334.926 249.778 338.802 247.784C352.03 240.973 362.152 233.184 362.152 233.184C366.117 230.137 368.657 227.848 371.515 228.606C375.002 229.528 377.579 234.626 376.801 238.754C376.333 241.24 374.603 243.632 367.382 247.653C358.914 252.371 351.749 254.398 346.398 255.966C341.327 257.45 333.492 259.795 323.637 262.997H323.633Z" fill="#1A5FC4"/>
<path d="M367.832 229.004C368.47 228.391 369.116 227.975 369.721 227.694C369.721 227.694 370.157 227.488 370.616 227.347C376.74 225.461 390.007 235.23 390.007 235.23C393.803 238.048 396.792 240.435 398.789 242.073C406.408 248.308 408.175 250.574 412.022 250.845C414.028 250.986 415.621 250.518 416.825 251.683C418.273 253.088 417.078 254.852 417.833 257.895C419.018 262.693 423.587 263.161 423.423 267.032C423.302 269.841 421.769 271.755 421.249 272.401C417.008 277.644 409.168 276.174 408.765 276.09C405.007 275.233 402.659 273.525 401.549 272.588C399.782 271.1 398.69 269.504 397.331 267.514C396.057 265.647 395.166 263.999 394.571 262.791C394.571 262.791 390.522 258.031 386.516 253.883C381.145 248.322 374.8 243.01 369.622 238.956C366.225 236.293 365.419 231.789 367.837 229.004H367.832Z" fill="#1A5FC4"/>
<path d="M390.738 269.663C389.337 271.235 389.098 273.623 389.688 275.659C390.298 277.756 391.647 279.549 393.058 281.215C393.325 281.533 393.606 281.856 393.976 282.048C394.337 282.24 394.759 282.296 395.166 282.343C396.211 282.47 397.285 282.577 398.306 282.329C398.845 282.203 399.356 281.978 399.876 281.786C404.384 280.129 409.215 280.527 413.611 278.355C414.637 277.85 415.626 277.26 416.605 276.67C417.782 275.968 418.958 275.266 420.129 274.564C423.372 272.626 426.441 269.382 426.479 265.38C426.484 264.692 426.395 263.989 426.076 263.381C425.771 262.8 425.284 262.342 424.773 261.934C422.182 259.87 418.812 258.883 415.495 258.92C412.177 258.957 408.915 259.983 406.015 261.583C403.911 262.744 401.975 264.209 399.778 265.197C398.686 265.689 397.556 265.843 396.441 266.25C395.227 266.695 394.103 267.35 392.992 268.001C392.242 268.441 391.478 268.886 390.874 269.513C390.827 269.56 390.785 269.606 390.743 269.653L390.738 269.663Z" fill="#1C68DA"/>
<path d="M333.926 309.97L337.703 314.305L345.421 310.855L343.701 305.584L333.926 309.97Z" fill="#EA942D"/>
<path d="M343.511 312.362C342.873 311.384 342.147 310.354 341.313 309.296C340.038 307.681 338.759 306.305 337.555 305.149C339.673 304.208 342.498 302.888 345.765 301.17C348.347 299.808 355.282 296.133 362.339 290.896C372.133 283.631 374.818 278.823 385.418 271.816C388.366 269.869 392.115 267.355 395.789 268.568C398.085 269.326 399.795 271.339 400.48 273.365C402.363 278.931 396.515 284.651 395.854 285.278C394.481 286.584 392.63 287.787 388.928 290.203C387.593 291.073 386.51 291.733 385.784 292.178C385.784 292.178 380.423 295.445 375.376 298.16C370.662 300.697 359.237 306.207 343.511 312.357V312.362Z" fill="#1C68DA"/>
<path d="M331.502 313.893L335.672 316.757C336.577 317.38 337.791 317.197 338.419 316.378C339.464 315.021 339.22 312.984 337.781 311.753L336.193 310.396C334.501 308.949 331.999 309.006 330.738 310.644C329.979 311.627 330.344 313.101 331.502 313.893Z" fill="#052B51"/>
<path d="M373.102 212.986C375.131 216.801 377.08 222.886 381.686 230.367C385.407 236.405 395.464 245.678 398.467 245.837C403.669 246.118 408.107 238.156 405.928 235.183C404.986 233.896 401.096 235.473 399.925 235.136C396.546 234.158 390.079 229.126 377.432 210.88C377.127 210.44 376.522 210.328 376.138 210.627C375.126 211.414 374.114 212.205 373.102 212.991V212.986Z" fill="#EFAA65"/>
<path d="M396.287 244.578L395.978 241.863C395.973 241.811 395.969 241.76 395.978 241.704C396.067 240.154 396.339 238.174 397.051 235.974C397.829 233.582 398.893 231.654 399.886 230.193C400.266 229.636 401.105 229.655 401.433 230.24C401.536 230.418 401.658 230.54 401.798 230.563C402.492 230.671 403.354 228.499 403.691 227.675C404.704 225.199 406.451 221.492 409.694 216.034C410.21 215.112 410.988 213.89 412.126 212.607C413.237 211.357 414.212 210.59 414.418 210.426C415.838 209.279 417.309 208.432 418.481 208.165C421.049 207.585 424.737 208.067 424.634 212.406C424.498 218.117 418.748 226.837 414.048 233.142C414.034 233.161 414.024 233.18 414.01 233.199C413.757 233.596 410.636 238.441 404.741 244.292C404.151 244.877 403.007 245.978 401.259 246.282C399.361 246.614 397.688 245.851 396.718 245.271C396.475 245.126 396.311 244.873 396.278 244.587L396.287 244.578Z" fill="#A3D3D8"/>
<path d="M427.039 265.295C424.856 265.623 418.806 266.232 412.527 262.847C408.618 260.741 406.205 257.946 404.926 256.196C409.94 249.296 411.266 243.22 412.419 239.33C415.16 230.058 415.591 221.599 415.216 214.91C414.973 210.627 418.722 207.191 422.977 207.795C427.822 208.479 432.663 209.162 437.508 209.845C441.266 210.374 443.863 213.871 443.291 217.62C442.152 225.068 441.135 230.797 435.638 242.663C433.277 247.765 430.048 255.405 427.039 265.295Z" fill="#B3DEE5"/>
<path d="M434.864 197.23C433.894 199.899 431.631 201.527 429.804 200.867C427.976 200.207 427.282 197.507 428.248 194.838C429.218 192.17 431.481 190.541 433.309 191.201C435.136 191.861 435.83 194.562 434.864 197.23Z" fill="#032349"/>
<path d="M422.321 199.023C423.441 198.995 424.739 198.887 426.164 198.635C427.808 198.34 429.233 197.918 430.4 197.488C431.482 201.981 432.565 206.47 433.647 210.964C428.905 212.617 424.894 211.03 424.894 211.03C424.997 209.401 424.969 207.126 424.364 204.5C423.835 202.206 423.024 200.357 422.316 199.023H422.321Z" fill="#F2B879"/>
<path d="M430.574 199.445C430.058 200.423 429.459 201.354 428.592 202.028C427.055 203.227 425.302 203.344 424.135 203.264C423.882 201.602 422.931 200.002 421.422 198.878C424.205 198.616 427.378 198.171 430.157 197.909C430.279 198.382 430.419 198.897 430.569 199.44L430.574 199.445Z" fill="#E5A76A"/>
<path d="M429.899 183.44C431.45 185.046 431.989 186.736 432.111 187.138C432.692 189.067 432.457 190.705 432.289 191.496C431.904 191.005 431.23 190.855 430.611 190.785C429.299 190.644 427.968 190.728 426.684 191.042C426.525 191.08 426.356 191.126 426.192 191.094C425.991 191.056 425.826 190.911 425.672 190.775C425.128 190.293 424.543 189.816 423.84 189.628C423.118 189.437 422.373 189.647 421.876 190.195C421.159 189.764 420.536 189.352 420.306 188.706C420.161 188.285 420.227 187.915 420.25 187.765C421.201 181.591 421.164 181.016 421.881 180.524C423.952 179.11 427.926 181.395 429.899 183.436V183.44Z" fill="#032349"/>
<path d="M420.356 195.119C420.707 195.372 420.866 195.966 420.665 196.285C420.473 196.584 420.042 196.5 419.986 196.767C419.948 196.931 420.103 197.001 420.164 197.38C420.201 197.619 420.15 197.647 420.196 197.806C420.281 198.11 420.506 198.176 420.637 198.368C420.909 198.78 420.431 199.299 420.463 199.758C420.524 200.596 422.319 201.214 423.556 201.429C424.292 201.556 426.94 202.056 429.147 200.338C430.211 199.51 430.881 198.279 431.476 197.067C432.483 195.012 433.378 192.662 432.666 190.49C432.043 188.589 430.257 187.241 428.336 186.684C426.143 186.048 423.322 186.497 422.24 188.734C421.902 189.427 421.958 189.895 421.71 190.509C421.64 190.686 421.504 190.883 421.26 191.295C420.735 192.175 420.468 192.615 420.257 192.84C419.653 193.481 419.245 193.448 419.165 193.888C419.1 194.239 419.287 194.67 419.583 194.871C419.882 195.077 420.089 194.909 420.374 195.11L420.356 195.119Z" fill="#F7C589"/>
<path d="M428.955 189.259C429.208 190.7 428.927 192.147 428.641 193.57C428.598 195.372 429.859 196.879 431.438 197.113C432.694 197.301 433.992 196.664 434.728 195.503C435.112 194.848 435.679 194.286 436.138 193.673C437.174 192.283 437.657 190.494 436.963 188.903C436.41 187.639 435.168 186.619 433.739 186.01C432.31 185.402 430.707 185.168 429.133 185.135C428.256 185.116 426.771 185.06 426.152 185.594C427.535 186.768 428.631 187.461 428.95 189.268L428.955 189.259Z" fill="#032349"/>
<path d="M431.394 194.721C431.3 195.484 430.602 196.032 429.838 195.938C429.074 195.845 428.526 195.147 428.62 194.384C428.714 193.621 429.412 193.074 430.176 193.167C430.939 193.261 431.488 193.958 431.394 194.721Z" fill="#F7C589"/>
<path d="M434.879 210C434.284 210.646 433.328 211.521 431.95 212.209C429.672 213.347 427.55 213.328 426.533 213.248C426.477 212.35 426.416 211.446 426.359 210.548L434.124 207.847L434.874 210H434.879Z" fill="#ECF5F7"/>
<path d="M411.486 253.293C415.774 253.855 421.87 255.798 430.638 256.383C437.719 256.856 451.112 254.047 452.986 251.697C456.233 247.625 452.307 239.4 448.619 239.452C447.021 239.475 446.055 243.552 445.099 244.306C442.339 246.487 434.49 248.832 412.273 248.552C411.739 248.547 411.294 248.973 411.317 249.455C411.374 250.733 411.43 252.015 411.486 253.298V253.293Z" fill="#F2B879"/>
<path d="M454.482 253.303C453.647 252.933 452.818 252.563 451.984 252.193C451.937 252.17 451.89 252.147 451.848 252.118C450.559 251.257 448.985 250.017 447.448 248.285C445.78 246.403 444.655 244.507 443.9 242.911C443.61 242.303 444.055 241.591 444.73 241.6C444.936 241.6 445.1 241.558 445.194 241.446C445.639 240.903 444.205 239.059 443.661 238.352C442.04 236.222 439.73 232.838 436.665 227.277C436.131 226.369 435.47 225.077 434.945 223.443C434.43 221.852 434.266 220.625 434.228 220.363C433.956 218.556 433.975 216.862 434.341 215.72C435.142 213.215 437.429 210.285 441.122 212.574C445.981 215.589 450.583 224.964 453.633 232.206C453.643 232.225 453.652 232.248 453.661 232.267C453.877 232.688 456.473 237.832 458.53 245.874C458.737 246.679 459.102 248.219 458.479 249.881C457.804 251.683 456.295 252.736 455.302 253.275C455.049 253.41 454.749 253.424 454.491 253.307L454.482 253.303Z" fill="#B3DEE5"/>
<path d="M481.359 460.845C480.769 460.845 480.183 460.597 479.766 460.115L434.554 407.721C430.126 402.591 425.491 397.077 421.733 391.02C419.737 387.799 418.191 384.766 417.014 381.742L416.733 381.026C416.246 379.8 415.698 378.41 415.37 377.047C415.159 376.158 415.065 375.306 414.976 374.482C414.877 373.56 414.779 372.694 414.526 371.917C414.273 371.145 413.912 370.377 413.533 369.563C413.42 369.315 413.303 369.071 413.19 368.823C410.393 362.654 408.411 342.984 408.786 340.695C409.606 335.682 411.227 330.758 412.792 325.993C413.987 322.351 415.224 318.587 416.068 314.88C421.794 289.664 414.559 262.089 397.187 242.916C394.887 240.374 392.361 237.921 389.919 235.548C387.094 232.8 384.174 229.964 381.512 226.917C370.102 213.857 363.757 197.642 357.618 181.961C351.906 167.361 345.43 150.819 334.408 138.283C325.031 127.616 308.887 117.402 291.741 120.711C290.598 120.931 289.501 120.187 289.281 119.05C289.061 117.912 289.806 116.812 290.944 116.592C309.843 112.946 327.416 123.979 337.562 135.517C349.071 148.605 355.687 165.517 361.531 180.435C367.539 195.779 373.748 211.647 384.676 224.159C387.225 227.076 390.083 229.856 392.848 232.543C395.336 234.963 397.909 237.463 400.304 240.103C418.579 260.273 426.19 289.28 420.163 315.807C419.278 319.706 418.008 323.568 416.78 327.299C415.191 332.125 413.697 336.684 412.928 341.374C412.755 343.298 414.568 361.699 417.014 367.096C417.122 367.33 417.23 367.564 417.338 367.798C417.75 368.687 418.176 369.605 418.509 370.606C418.903 371.805 419.034 372.989 419.146 374.033C419.226 374.758 419.301 375.442 419.451 376.074C419.709 377.146 420.177 378.335 420.632 379.486L420.923 380.226C422.005 383.001 423.434 385.81 425.295 388.815C428.894 394.615 433.411 399.984 437.727 404.988L482.938 457.381C483.697 458.257 483.599 459.581 482.718 460.34C482.32 460.681 481.832 460.85 481.35 460.85L481.359 460.845Z" fill="#CF8E48"/>
<path d="M404.199 253.589C403.998 253.106 403.791 252.624 403.59 252.142C403.618 251.669 403.73 250.883 404.237 250.129C405.258 248.608 407.118 248.341 408.159 248.196C409.391 248.023 410.282 248.21 411.472 248.463C412.278 248.636 412.629 248.791 412.92 249.067C413.135 249.268 413.318 249.53 413.726 250.883C414.101 252.128 414.288 252.755 414.138 253.013C413.815 253.561 413.075 253.209 411.57 253.673C410.179 254.103 410.193 254.6 408.834 254.951C408.248 255.101 407.343 255.321 406.28 255.012C405.155 254.684 404.476 253.935 404.194 253.589H404.199Z" fill="#F2B879"/>
<path d="M377.341 211.17C376.648 210.599 376.666 209.55 376.287 208.74C376.057 208.254 375.687 207.851 375.317 207.462C375.003 207.125 374.675 206.779 374.258 206.578C373.911 206.409 373.522 206.348 373.138 206.344C372.772 206.344 372.402 206.386 372.079 206.55C371.755 206.714 371.483 207.013 371.427 207.374C371.352 207.828 371.61 208.268 371.891 208.628C372.449 209.349 373.147 209.962 373.93 210.43C374.679 210.88 375.528 211.203 376.141 211.83C376.587 212.284 377.393 212.031 377.842 211.586C377.594 211.483 377.547 211.348 377.341 211.174V211.17Z" fill="#EFAA65"/>
</svg>
