<svg width="48" height="45" viewBox="0 0 48 45" fill="none" xmlns="http://www.w3.org/2000/svg">
<path d="M46.8328 12.852H31.2718C31.2718 12.6 31.3348 12.348 31.3348 12.033C31.3348 5.418 25.9798 0 19.3018 0C12.6868 0 7.26883 5.355 7.26883 12.033C7.26883 13.797 7.64683 15.561 8.40283 17.199L0.527832 25.074C0.464832 25.137 0.464832 25.2 0.401832 25.2C0.0238325 25.704 -0.102168 26.334 0.0868325 27.027C0.275833 27.72 0.653833 28.413 1.22083 28.98C1.97683 29.736 2.92183 30.177 3.80383 30.177C4.37083 30.177 4.81183 29.988 5.18983 29.673L12.8128 22.113C13.1278 22.302 13.3798 22.491 13.6948 22.617V43.533C13.6948 43.974 14.0728 44.289 14.4508 44.289H46.8958C47.3368 44.289 47.6518 43.911 47.6518 43.533V13.608C47.6518 13.167 47.2738 12.852 46.8328 12.852ZM4.05583 28.539C3.99283 28.602 3.86683 28.602 3.80383 28.602C3.48883 28.602 2.92183 28.413 2.35483 27.846C1.97683 27.468 1.72483 27.027 1.66183 26.649C1.59883 26.397 1.59883 26.208 1.72483 26.145C1.72483 26.082 1.78783 26.082 1.78783 26.019L9.28483 18.522C9.34783 18.585 9.34783 18.648 9.41083 18.711C9.47383 18.774 9.47383 18.837 9.53683 18.9C9.72583 19.215 9.97783 19.467 10.2298 19.782L10.2928 19.845C10.5448 20.16 10.8598 20.412 11.1118 20.664L11.3008 20.853L11.4898 21.042L4.05583 28.539ZM13.6318 20.79C13.4428 20.664 13.3168 20.538 13.1278 20.412C12.8128 20.16 12.4978 19.908 12.2458 19.656C12.0568 19.467 11.8048 19.278 11.6158 19.026C11.0488 18.396 10.4818 17.64 10.1038 16.884C9.28483 15.372 8.84383 13.671 8.84383 11.97C8.84383 6.237 13.5058 1.512 19.3018 1.512C25.0978 1.512 29.7598 6.174 29.7598 11.97C29.7598 12.222 29.7598 12.537 29.6968 12.789C29.6968 13.041 29.6338 13.293 29.6338 13.545C29.5708 13.797 29.5708 14.049 29.5078 14.301C28.4368 18.9 24.2788 22.365 19.3648 22.365C17.9788 22.365 16.5928 22.113 15.2698 21.546C15.0178 21.42 14.7658 21.294 14.5138 21.168C14.1988 21.105 13.8838 20.979 13.6318 20.79ZM46.0768 42.777H31.9018V42.021C31.9018 41.58 31.5238 41.265 31.1458 41.265C30.7678 41.265 30.3898 41.643 30.3898 42.021V42.777H22.8298C22.8928 42.651 22.9558 42.525 22.9558 42.399V41.643C22.9558 41.202 22.5778 40.887 22.1998 40.887C21.8218 40.887 21.3178 41.202 21.3178 41.643V42.399C21.3178 42.525 21.3808 42.651 21.4438 42.777H15.2698V35.469L19.9948 31.626C20.3728 31.941 20.8138 32.13 21.3178 32.256V33.516C21.3178 33.957 21.6958 34.272 22.0738 34.272C22.4518 34.272 22.8298 33.894 22.8298 33.516V32.256C23.4598 32.13 24.0268 31.815 24.4678 31.374L27.8068 33.39C27.6808 33.705 27.6178 34.083 27.6178 34.461C27.6178 36.099 28.7518 37.485 30.2638 37.8V39.123C30.2638 39.564 30.6418 39.879 31.0198 39.879C31.3978 39.879 31.7758 39.501 31.7758 39.123V37.8C33.2878 37.422 34.4218 36.099 34.4218 34.461C34.4218 33.768 34.2328 33.138 33.8548 32.571L38.2018 28.035C38.5168 28.224 38.8318 28.35 39.1468 28.413V29.736C39.1468 30.177 39.5248 30.492 39.9028 30.492C40.2808 30.492 40.8478 30.177 40.8478 29.736V28.413C41.4148 28.287 41.8558 28.035 42.2968 27.657L46.0768 30.492V42.777ZM20.1838 28.854C20.1838 27.846 21.0028 26.964 22.0738 26.964C23.1448 26.964 23.9638 27.783 23.9638 28.854V29.106C23.9008 29.673 23.5858 30.114 23.1448 30.429C22.8298 30.618 22.5148 30.744 22.1368 30.744C21.8218 30.744 21.5698 30.681 21.2548 30.555C20.7508 30.303 20.4358 29.862 20.3098 29.295C20.1838 29.169 20.1838 29.043 20.1838 28.854ZM29.1928 34.461C29.1928 34.398 29.1928 34.335 29.1928 34.209C29.2558 33.642 29.5708 33.138 30.0118 32.886C30.3268 32.697 30.6418 32.571 31.0828 32.571C31.2718 32.571 31.5238 32.634 31.7128 32.697C32.2168 32.886 32.6578 33.264 32.8468 33.768C32.9098 33.957 32.9728 34.209 32.9728 34.461C32.9728 35.469 32.1538 36.351 31.0828 36.351C30.0118 36.351 29.1928 35.532 29.1928 34.461ZM38.1388 25.074C38.1388 24.066 38.9578 23.184 40.0288 23.184C41.0998 23.184 41.9188 24.003 41.9188 25.074C41.9188 25.2 41.9188 25.326 41.8558 25.452C41.7298 26.019 41.4148 26.46 40.9108 26.712C40.6588 26.838 40.3438 26.964 40.0288 26.964C39.8398 26.964 39.6508 26.901 39.4618 26.838C38.9578 26.649 38.5168 26.271 38.3278 25.767C38.2018 25.578 38.1388 25.326 38.1388 25.074ZM46.0768 28.602L43.2418 26.46C43.4308 26.019 43.5568 25.578 43.5568 25.074C43.5568 23.184 41.9818 21.609 40.0918 21.609C38.2018 21.609 36.6268 23.184 36.6268 25.074C36.6268 25.767 36.8158 26.46 37.1938 26.964L32.9098 31.5C32.4058 31.185 31.7758 30.996 31.1458 30.996C30.2008 30.996 29.3188 31.374 28.6888 32.004L25.4128 29.988C25.5388 29.61 25.6018 29.232 25.6018 28.854C25.6018 26.964 24.0268 25.389 22.1368 25.389C20.2468 25.389 18.6718 26.964 18.6718 28.854C18.6718 29.358 18.7978 29.862 18.9868 30.366L15.2698 33.453V23.373C16.5928 23.814 17.9158 24.066 19.3648 24.066C25.1608 24.066 30.0118 19.908 31.1458 14.427H46.1398V28.602H46.0768Z" fill="white"/>
<path d="M22.0739 35.8467C21.6329 35.8467 21.3179 36.2247 21.3179 36.6027V38.6187C21.3179 39.0597 21.6959 39.3747 22.0739 39.3747C22.4519 39.3747 22.8299 38.9967 22.8299 38.6187V36.6027C22.8929 36.1617 22.5149 35.8467 22.0739 35.8467Z" fill="white"/>
<path d="M40.0288 32.256C39.5878 32.256 39.2728 32.634 39.2728 33.012V35.028C39.2728 35.469 39.6508 35.784 40.0288 35.784C40.4068 35.784 40.7848 35.406 40.7848 35.028V33.012C40.8478 32.571 40.4698 32.256 40.0288 32.256Z" fill="white"/>
<path d="M40.0288 37.548C39.5878 37.548 39.2728 37.926 39.2728 38.304V40.32C39.2728 40.761 39.6508 41.076 40.0288 41.076C40.4068 41.076 40.7848 40.698 40.7848 40.32V38.304C40.8478 37.863 40.4698 37.548 40.0288 37.548Z" fill="white"/>
<path d="M22.5147 19.2784C22.6407 19.2784 22.7667 19.2784 22.8927 19.2154C24.9087 18.2074 26.3577 16.4434 26.9877 14.4274C27.0507 14.1754 27.1137 13.9234 27.1767 13.6714C27.2397 13.4194 27.2397 13.1674 27.3027 12.9154C27.4287 11.4664 27.2397 9.95436 26.5467 8.56836C26.3577 8.19036 25.8537 8.00136 25.4757 8.19036C25.0977 8.37936 24.9087 8.88336 25.0977 9.26136C25.2237 9.51336 25.3497 9.76536 25.4127 10.0804C25.7277 11.0254 25.7907 11.9704 25.7277 12.9154C25.6647 13.1674 25.6647 13.4194 25.6017 13.6714C25.5387 13.9234 25.4757 14.1754 25.3497 14.4274C24.9087 15.6244 24.0897 16.6324 22.9557 17.3884C22.7037 17.5144 22.4517 17.7034 22.1997 17.8294C21.8217 18.0184 21.6327 18.5224 21.8217 18.9004C21.9477 19.1524 22.1997 19.2784 22.5147 19.2784Z" fill="white"/>
</svg>
