<svg width="43" height="46" viewBox="0 0 43 46" fill="none" xmlns="http://www.w3.org/2000/svg">
<path d="M40.4613 19.4357C41.7497 17.5031 42.5011 15.1816 42.5011 12.6837C42.5011 5.95476 37.0463 0.5 30.3174 0.5C23.5884 0.5 18.1336 5.95476 18.1336 12.6837C18.1336 19.4127 23.5884 24.8674 30.3174 24.8674C33.4231 24.8674 36.2568 23.7058 38.4091 21.7927" stroke="white" stroke-miterlimit="10" stroke-linecap="round" stroke-linejoin="round"/>
<path d="M30.3172 22.2091C35.5779 22.2091 39.8426 17.9444 39.8426 12.6837C39.8426 7.42289 35.5779 3.1582 30.3172 3.1582C25.0564 3.1582 20.7917 7.42289 20.7917 12.6837C20.7917 17.9444 25.0564 22.2091 30.3172 22.2091Z" stroke="white" stroke-miterlimit="10" stroke-linecap="round" stroke-linejoin="round"/>
<path d="M20.7917 12.6836H23.8323" stroke="white" stroke-miterlimit="10" stroke-linecap="round" stroke-linejoin="round"/>
<path d="M35.4985 7.50244L37.0527 5.94824" stroke="white" stroke-miterlimit="10" stroke-linecap="round" stroke-linejoin="round"/>
<path d="M30.3174 6.19837V3.1582" stroke="white" stroke-miterlimit="10" stroke-linecap="round" stroke-linejoin="round"/>
<path d="M23.5813 19.4189L25.2555 17.7447C25.5139 17.4864 25.5322 17.075 25.3004 16.7926C24.3826 15.674 23.8321 14.2428 23.8321 12.6838C23.8321 9.1022 26.7358 6.19849 30.3174 6.19849C30.328 6.19849 30.3377 6.19849 30.3484 6.19937C30.3493 6.19937 30.3501 6.19937 30.3501 6.19937C30.351 6.19937 30.351 6.19937 30.3519 6.19937C30.3555 6.19937 30.3581 6.19937 30.3617 6.19937C32.0204 6.21001 33.5303 6.84356 34.6716 7.87851" stroke="white" stroke-miterlimit="10" stroke-linecap="round" stroke-linejoin="round"/>
<path d="M35.1224 8.32812C36.1662 9.47915 36.8015 11.0077 36.8015 12.6832C36.8015 13.5782 36.6199 14.4315 36.292 15.2077C36.0488 15.7831 35.7245 16.3164 35.3337 16.7929C35.1021 17.0754 35.1205 17.4866 35.3788 17.7449L37.0523 19.4184" stroke="white" stroke-miterlimit="10" stroke-linecap="round" stroke-linejoin="round"/>
<path d="M25.7319 8.09878L23.5814 5.94824" stroke="white" stroke-miterlimit="10" stroke-linecap="round" stroke-linejoin="round"/>
<path d="M36.7982 12.8955H39.8425" stroke="white" stroke-miterlimit="10" stroke-linecap="round" stroke-linejoin="round"/>
<path d="M26.3849 21.3621L27.7122 19.1247C27.8398 18.9094 28.072 18.7773 28.3219 18.7773H32.3119C32.5627 18.7773 32.794 18.9094 32.9216 19.1247L34.2489 21.3621" stroke="white" stroke-miterlimit="10" stroke-linecap="round" stroke-linejoin="round"/>
<path d="M35.095 7.5758L34.1153 8.25224C32.6254 9.28099 31.1088 10.2788 29.5015 11.1122C28.9021 11.4229 28.5028 12.0653 28.5483 12.7973C28.6024 13.669 29.3068 14.3844 30.1775 14.4511C30.8933 14.5058 31.5274 14.1348 31.8541 13.565C32.7138 12.0653 33.5767 10.5675 34.5627 9.14772L35.4254 7.90552C35.5806 7.68834 35.313 7.41985 35.095 7.5758Z" stroke="white" stroke-miterlimit="10" stroke-linecap="round" stroke-linejoin="round"/>
<path d="M16.0914 37.5859L12.9759 37.9989" stroke="white" stroke-miterlimit="10" stroke-linecap="round" stroke-linejoin="round"/>
<path d="M9.21684 7.89648C6.45224 9.96905 4.65348 13.0624 4.39829 17.0064C4.36728 17.4813 4.42753 17.9589 4.57374 18.4117C4.70576 18.8211 4.77045 19.2437 4.77045 19.6646C4.77045 20.4559 4.54095 21.241 4.09525 21.9171L0.617351 27.2008C0.358613 27.5933 0.548236 28.125 0.996596 28.2668L3.01156 28.9012C3.15511 28.9464 3.2322 29.1006 3.18258 29.2424L2.68725 30.661C2.62523 30.84 2.66244 31.0393 2.78649 31.1829L3.46524 31.9706C3.52106 32.0362 3.54233 32.1239 3.52195 32.2072L3.34739 32.9276C3.32169 33.0339 3.36334 33.1456 3.45372 33.2085L4.52677 33.9572C4.60209 34.0095 4.64462 34.0963 4.64108 34.1867L4.525 36.8087C4.47095 38.0208 5.52539 38.9867 6.7287 38.8272L12.9756 37.9996V43.4756C12.9756 44.0631 13.4515 44.5389 14.0389 44.5389H26.2758C26.8633 44.5389 27.3391 44.0631 27.3391 43.4756V35.2802C27.3391 32.7699 28.0631 30.3021 29.479 28.2296C30.1914 27.1857 30.7754 26.0471 31.2069 24.8358" stroke="white" stroke-miterlimit="10" stroke-linecap="round" stroke-linejoin="round"/>
<path d="M11.9567 6.30641C14.0745 5.37602 16.5183 4.88867 19.1367 4.88867C19.7322 4.88867 20.3099 4.92323 20.8681 4.99146" stroke="white" stroke-miterlimit="10" stroke-linecap="round" stroke-linejoin="round"/>
</svg>
