<svg width="40" height="41" viewBox="0 0 40 41" fill="none" xmlns="http://www.w3.org/2000/svg">
<path d="M37.1207 26.4997C37.1207 27.7096 36.6292 28.8067 35.8345 29.6019C35.0379 30.3991 33.9403 30.8924 32.7303 30.8924C31.5179 30.8924 30.4198 30.4005 29.625 29.6055C28.8302 28.8105 28.3383 27.7124 28.3383 26.5C28.3383 25.2901 28.8315 24.1923 29.6286 23.3956C30.4236 22.6009 31.5205 22.1094 32.7303 22.1094C33.9428 22.1094 35.0404 22.6008 35.8348 23.3952C36.6293 24.1897 37.1207 25.2874 37.1207 26.4997ZM34.4529 28.228C34.8939 27.7868 35.1666 27.1757 35.1666 26.4997C35.1666 25.8268 34.894 25.2176 34.4532 24.7768C34.0125 24.336 33.4033 24.0634 32.7303 24.0634C32.0546 24.0634 31.4438 24.3361 31.0026 24.7771C30.5638 25.2157 30.2923 25.8246 30.2923 26.5C30.2923 27.173 30.5654 27.7826 31.0066 28.2239C31.4479 28.6652 32.0574 28.9383 32.7303 28.9383C33.4056 28.9383 34.0144 28.6668 34.4529 28.228Z" fill="white"/>
<path d="M30.2744 31.7539H35.4082C36.4464 31.7539 37.3607 32.1344 38.0209 32.7701C38.683 33.4076 39.0794 34.2898 39.0794 35.291V39.5892V40.5472H38.0869H27.3728H26.3804V39.5892V35.291C26.3804 34.2834 26.8338 33.4043 27.5457 32.7716C28.2609 32.1359 29.241 31.7539 30.2744 31.7539ZM35.4082 33.67H30.2744C29.7426 33.67 29.2446 33.861 28.8871 34.1787C28.5684 34.462 28.3653 34.8506 28.3653 35.291V38.6311H37.0945V35.291C37.0945 34.8148 36.9188 34.4074 36.6252 34.1248C36.3298 33.8403 35.9046 33.67 35.4082 33.67Z" fill="white"/>
<path d="M15.1425 31.2309H18.0735V28.2998H20.0276V31.2309H22.9587V33.185H20.0276V36.1161H18.0735V33.185H15.1425V31.2309Z" fill="white"/>
<path d="M25.3856 20.6357H27.1608C27.2029 20.6357 27.2383 20.6316 27.2673 20.6239C27.3961 20.5897 27.5119 20.4812 27.602 20.3348C27.719 20.1445 27.7838 19.9099 27.7838 19.6772H27.7807C27.7807 19.5736 27.7695 19.4756 27.7462 19.3877L27.7469 19.3875L25.1225 10.8201L25.1133 10.7924C25.0756 10.6495 24.9981 10.5234 24.8935 10.426C24.7885 10.3283 24.6556 10.2593 24.5077 10.231L24.5078 10.2304L22.8221 9.9119L19.7724 14.7412L19.119 15.7759L18.4496 14.7535L15.2637 9.88725L13.5671 10.2313C13.425 10.26 13.2955 10.3296 13.1909 10.4281C13.0875 10.5255 13.0108 10.6509 12.9732 10.7924L12.9639 10.8232L10.3383 19.3917C10.3263 19.4384 10.3206 19.4921 10.3206 19.5509C10.3206 19.7735 10.4129 20.0101 10.5619 20.2102C10.7066 20.4044 10.8951 20.5525 11.0925 20.6051C11.1357 20.6166 11.1827 20.6228 11.2329 20.6228H12.8142V22.1978H11.2329C11.0522 22.1978 10.8711 22.1723 10.6926 22.1248C10.1394 21.9774 9.64802 21.6115 9.3007 21.1454C8.95779 20.6851 8.74561 20.1146 8.74561 19.5509C8.74561 19.3656 8.76937 19.1767 8.81968 18.9878L8.82891 18.957L11.455 10.387C11.5707 9.95683 11.8025 9.57746 12.1142 9.28381C12.4254 8.99067 12.8192 8.78216 13.2595 8.69319L15.4774 8.24339L15.9988 8.1377L16.2895 8.5818L19.0969 12.8698L21.7791 8.62259L22.0649 8.16998L22.5881 8.26882L24.8 8.68678H24.8031C25.2465 8.77167 25.6463 8.97975 25.964 9.27552C26.2821 9.57163 26.5178 9.95579 26.6329 10.3925L26.6322 10.3927L29.2567 18.9601L29.2659 18.9878C29.3266 19.2168 29.3558 19.4493 29.3558 19.6772H29.3527C29.3526 20.2021 29.2067 20.7308 28.9432 21.1593C28.6528 21.6315 28.2179 21.9975 27.6672 22.1435C27.5021 22.1873 27.3328 22.2107 27.1608 22.2107H25.3856L25.3856 20.6357Z" fill="white"/>
<path d="M15.3599 22.0088L22.6741 22.0115V22.0047H22.8557V17.6621H15.3599L15.3599 22.0088ZM23.6511 23.9583L14.3828 23.9549L13.4058 23.9546V22.9817V16.6851V15.708H14.3828H23.8328H24.8098V16.6851V22.9817V23.9588H23.8328H23.6511L23.6511 23.9583Z" fill="white"/>
<path d="M12.8158 24.9141C12.2762 24.9141 11.8387 25.3515 11.8387 25.8911C11.8387 26.4307 12.2762 26.8682 12.8158 26.8682H25.4004C25.94 26.8682 26.3775 26.4307 26.3775 25.8911C26.3775 25.3515 25.94 24.9141 25.4004 24.9141H12.8158Z" fill="white"/>
<path d="M23.3352 4.22611C23.3352 5.39073 22.8622 6.44676 22.0972 7.21224C21.3304 7.97957 20.2738 8.45439 19.1091 8.45439C17.9421 8.45439 16.8852 7.9809 16.1201 7.21571C15.3549 6.45044 14.8815 5.3934 14.8815 4.22633C14.8815 3.06172 15.3562 2.00503 16.1235 1.23807C16.8888 0.473128 17.9446 0 19.1091 0C20.2763 0 21.3328 0.472987 22.0975 1.23771C22.8623 2.00255 23.3352 3.05912 23.3352 4.22611ZM20.7673 5.88972C21.1918 5.46498 21.4543 4.87674 21.4543 4.22611C21.4543 3.57833 21.1919 2.99193 20.7676 2.5676C20.3433 2.14337 19.757 1.88094 19.1091 1.88094C18.4587 1.88094 17.8707 2.14347 17.4461 2.56796C17.0237 2.9901 16.7624 3.57624 16.7624 4.22633C16.7624 4.87418 17.0253 5.46101 17.45 5.88578C17.8747 6.31059 18.4615 6.57348 19.1091 6.57348C19.7592 6.57348 20.3452 6.31207 20.7673 5.88972Z" fill="white"/>
<path d="M10.7408 26.4997C10.7408 27.7096 10.2494 28.8067 9.45468 29.6019C8.65804 30.3991 7.56043 30.8924 6.35043 30.8924C5.13807 30.8924 4.03999 30.4005 3.24518 29.6055C2.4503 28.8105 1.95842 27.7124 1.95842 26.5C1.95842 25.2901 2.45164 24.1923 3.24875 23.3956C4.04373 22.6009 5.14062 22.1094 6.35043 22.1094C7.56294 22.1094 8.66051 22.6008 9.45496 23.3952C10.2495 24.1897 10.7408 25.2874 10.7408 26.4997ZM8.07308 28.228C8.514 27.7868 8.78678 27.1757 8.78678 26.4997C8.78678 25.8268 8.51415 25.2176 8.07337 24.7768C7.63262 24.336 7.0235 24.0634 6.35044 24.0634C5.67475 24.0634 5.0639 24.3361 4.62272 24.7771C4.18399 25.2157 3.91248 25.8246 3.91248 26.5C3.91248 27.173 4.18554 27.7826 4.62679 28.2239C5.06805 28.6652 5.67756 28.9383 6.35044 28.9383C7.02573 28.9383 7.63457 28.6668 8.07308 28.228Z" fill="white"/>
<path d="M3.89401 31.7539H9.02786C10.066 31.7539 10.9803 32.1344 11.6405 32.7701C12.3026 33.4076 12.699 34.2898 12.699 35.291V39.5892V40.5472H11.7066H0.992455H0V39.5892V35.291C0 34.2834 0.453478 33.4043 1.16537 32.7716C1.88051 32.1359 2.86063 31.7539 3.89401 31.7539ZM9.02786 33.67H3.89401C3.36225 33.67 2.86423 33.861 2.50675 34.1787C2.188 34.462 1.98494 34.8506 1.98494 35.291V38.6311H10.7141V35.291C10.7141 34.8148 10.5384 34.4074 10.2448 34.1248C9.94939 33.8403 9.52425 33.67 9.02786 33.67Z" fill="white"/>
</svg>
