<svg width="42" height="51" viewBox="0 0 42 51" fill="none" xmlns="http://www.w3.org/2000/svg">
<path fill-rule="evenodd" clip-rule="evenodd" d="M29.9569 16.1401C29.5495 11.3199 25.4973 7.52303 20.5745 7.52303C15.6517 7.52303 11.5993 11.3199 11.1919 16.1401H29.9569ZM9.58664 16.1401H5.23462V15.0471H7.13733C7.51873 15.0471 7.84703 14.7772 7.92173 14.4032C8.25153 12.7491 8.89504 11.1958 9.83464 9.78814C10.0462 9.47104 10.0046 9.04784 9.73484 8.77803L8.38863 7.43193L11.0661 4.75382L12.4124 6.10082C12.6822 6.36973 13.1051 6.41223 13.4223 6.20012C14.8293 5.26082 16.3821 4.61792 18.0374 4.28782C18.4116 4.21312 18.681 3.88492 18.681 3.50321V1.60001H22.4676V3.50321C22.4676 3.88492 22.737 4.21312 23.1111 4.28782C24.7655 4.61702 26.3183 5.26092 27.7262 6.20012C28.0434 6.41223 28.4662 6.36973 28.736 6.10082L30.0822 4.75382L32.76 7.43193L31.4135 8.77803C31.1436 9.04794 31.102 9.47104 31.3138 9.78814C32.2528 11.1949 32.8965 12.7477 33.2266 14.4032C33.3012 14.7772 33.6297 15.0471 34.0111 15.0471H35.9138V16.1401H31.5618C31.1506 10.4369 26.3799 5.92302 20.5743 5.92302C14.7687 5.92302 9.99784 10.4369 9.58664 16.1401ZM2.35711 17.7401C1.93961 17.7401 1.59971 18.0799 1.59971 18.4967V42.6119C1.59971 43.0288 1.93951 43.369 2.35711 43.369H38.7915C39.2092 43.369 39.5489 43.0287 39.5489 42.6119V18.4967C39.5489 18.0798 39.2093 17.7401 38.7915 17.7401H2.35711ZM38.7915 44.9691H26.0373V47.119H29.8386C30.7697 47.119 31.5271 47.8771 31.5271 48.8082V50.2C31.5271 50.6419 31.1688 51 30.727 51H10.422C9.98004 51 9.62194 50.6419 9.62194 50.2V48.8082C9.62194 47.8771 10.3793 47.119 11.3104 47.119H15.1118V44.9691H2.35731C1.0576 44.9691 0 43.9122 0 42.612V18.4968C0 17.197 1.0576 16.1401 2.35731 16.1401H3.63481V14.2471C3.63481 13.8052 3.99292 13.4471 4.43472 13.4471H6.49633C6.84403 12.0378 7.39833 10.7009 8.15053 9.45614L6.69173 7.99683C6.54163 7.84693 6.45733 7.64403 6.45733 7.43203C6.45733 7.22003 6.54163 7.01613 6.69173 6.86623L10.5007 3.05701C10.8132 2.74521 11.3196 2.74521 11.6321 3.05701L13.0908 4.51632C14.3348 3.76402 15.6722 3.20981 17.0813 2.86181V0.800003C17.0813 0.358101 17.4394 0 17.8812 0H23.2678C23.7096 0 24.0679 0.358101 24.0679 0.800003V2.86171C25.4762 3.20971 26.8136 3.76391 28.0582 4.51622L29.517 3.05691C29.667 2.90701 29.8705 2.82321 30.0827 2.82321C30.2949 2.82321 30.4984 2.90711 30.6483 3.05691L34.4573 6.86613C34.7696 7.17893 34.7696 7.68493 34.4573 7.99823L32.9985 9.45614C33.7504 10.7 34.3046 12.0378 34.6525 13.4471H36.7143C37.1561 13.4471 37.5142 13.8052 37.5142 14.2471V16.1401H38.7918C40.0917 16.1401 41.1491 17.197 41.1491 18.4968V42.612C41.1491 43.9122 40.0917 44.9691 38.7918 44.9691H38.7915ZM24.4373 44.9691H16.7116V47.119H24.4373V44.9691ZM11.2218 49.4H29.927V48.8082C29.927 48.761 29.8856 48.7191 29.8385 48.7191H11.3102C11.2629 48.7191 11.2217 48.761 11.2217 48.8082L11.2218 49.4Z" fill="white"/>
<path fill-rule="evenodd" clip-rule="evenodd" d="M20.5328 15.3738C20.091 15.3738 19.7329 15.0162 19.7329 14.5738V13.4408C19.3731 13.4191 19.0162 13.3839 18.6621 13.3348L18.1589 14.6191C17.9979 15.0302 17.5337 15.234 17.1221 15.0721C16.711 14.9111 16.508 14.447 16.6692 14.035L17.0685 13.0162C16.7095 12.9222 16.3539 12.8133 16.0028 12.689L15.1054 13.6582C14.8053 13.9821 14.2991 14.0009 13.9749 13.7011C13.6507 13.4008 13.6313 12.8948 13.9314 12.571L14.5007 11.9561C14.3298 11.7282 14.2863 11.4163 14.4141 11.1402C14.5995 10.7392 15.0749 10.5643 15.4759 10.7493C17.0787 11.4901 18.7941 11.866 20.5745 11.866C22.3251 11.866 24.0144 11.5022 25.5952 10.785C25.9975 10.6024 26.4717 10.7811 26.6542 11.1831C26.794 11.491 26.7221 11.8424 26.4998 12.0713L26.9629 12.5711C27.263 12.895 27.2436 13.401 26.9194 13.7012C26.5952 14.0019 26.0892 13.9822 25.7889 13.6583L24.953 12.7552C24.5891 12.8781 24.2208 12.9841 23.8487 13.0752L24.225 14.0352C24.3862 14.4473 24.1834 14.9114 23.7721 15.0723C23.3606 15.2333 22.8965 15.0304 22.7353 14.6193L22.2443 13.3663C21.9425 13.402 21.6386 13.4294 21.3329 13.4453V14.574C21.3329 15.0164 20.9748 15.374 20.5328 15.374V15.3738ZM10.7045 37.4461C12.7284 37.4461 14.7228 37.916 16.6707 38.3753C17.6924 38.6156 18.7409 38.8633 19.7743 39.0347V22.8969C18.6032 22.7166 17.4375 22.4423 16.3038 22.1751C13.8145 21.5881 11.4521 21.031 9.113 21.4102V37.5512C9.6452 37.478 10.1759 37.4461 10.7045 37.4461ZM24.3524 26.0661C23.9939 26.0661 23.6679 25.8232 23.5768 25.4598C23.4695 25.0309 23.73 24.5971 24.1587 24.4901C24.4085 24.427 24.6585 24.3619 24.9083 24.2978C26.2425 23.9518 27.6218 23.5961 29.0303 23.5479C29.4718 23.532 29.8419 23.879 29.857 24.3209C29.8718 24.7619 29.5258 25.132 29.0844 25.147C27.8521 25.1889 26.6168 25.508 25.3091 25.8468C25.0552 25.9119 24.8012 25.9779 24.5473 26.042C24.4821 26.0579 24.4167 26.0661 24.3525 26.0661H24.3524ZM24.3524 29.6758C23.9939 29.6758 23.6679 29.4339 23.5768 29.07C23.4695 28.6411 23.73 28.2068 24.1587 28.0999C24.4089 28.0372 24.6591 27.9722 24.9093 27.9081C26.243 27.563 27.6222 27.2059 29.0304 27.1582C29.4721 27.1462 29.842 27.4888 29.8571 27.9312C29.8719 28.3731 29.5261 28.7428 29.0845 28.7572C27.8524 28.7991 26.6176 29.1191 25.31 29.457C25.0559 29.5221 24.8015 29.5881 24.5472 29.6522C24.4822 29.6681 24.4167 29.6758 24.3525 29.6758H24.3524ZM24.3524 33.286C23.9939 33.286 23.6679 33.0441 23.5768 32.6802C23.4695 32.2523 23.73 31.8171 24.1587 31.7101C24.4091 31.647 24.6595 31.5829 24.9096 31.5183C26.2434 31.1732 27.6224 30.8161 29.0304 30.7689C29.4719 30.7549 29.842 31.1 29.8571 31.541C29.8719 31.9829 29.5259 32.353 29.0845 32.368C27.8526 32.409 26.6178 32.7295 25.3106 33.0673C25.0562 33.1333 24.8017 33.1984 24.5472 33.262C24.4822 33.2794 24.4167 33.2861 24.3525 33.2861L24.3524 33.286ZM24.3524 36.8972C23.9939 36.8972 23.6679 36.6543 23.5768 36.2914C23.4695 35.862 23.73 35.4283 24.1587 35.3203C24.4085 35.2581 24.6585 35.1931 24.9083 35.129C26.2425 34.783 27.6218 34.4273 29.0303 34.3791C29.4718 34.3642 29.8419 34.7102 29.857 35.1521C29.8718 35.5931 29.5258 35.9632 29.0844 35.9781C27.8521 36.02 26.6168 36.3391 25.3091 36.6779C25.0552 36.7429 24.8012 36.809 24.5473 36.8731C24.4821 36.889 24.4167 36.8972 24.3525 36.8972H24.3524ZM21.3743 39.0347C22.4078 38.8633 23.4565 38.6157 24.4782 38.3753C26.9348 37.796 29.4656 37.1994 32.036 37.5512V21.4102C29.6969 21.0309 27.3345 21.5881 24.8451 22.1751C23.7114 22.4424 22.5455 22.7166 21.3743 22.8969V39.0347ZM16.7965 26.0661C16.7321 26.0661 16.6668 26.0579 16.6016 26.042C16.3474 25.9779 16.0937 25.9119 15.8395 25.8468C14.5319 25.508 13.2967 25.189 12.0644 25.147C11.6228 25.1321 11.2769 24.7619 11.2918 24.3209C11.3066 23.879 11.6766 23.5339 12.1182 23.5479C13.5268 23.5961 14.9063 23.9518 16.2403 24.2978C16.4903 24.3619 16.7401 24.4269 16.9901 24.4901C17.4186 24.5971 17.6791 25.0308 17.5718 25.4598C17.4809 25.8232 17.1548 26.0661 16.7964 26.0661H16.7965ZM16.7965 29.6758C16.7321 29.6758 16.6668 29.6681 16.6016 29.6522C16.3473 29.5881 16.0929 29.5221 15.8387 29.457C14.5313 29.1191 13.2964 28.7991 12.0642 28.7572C11.6227 28.7427 11.2769 28.3731 11.2918 27.9312C11.3066 27.4888 11.6768 27.1432 12.1182 27.1582C13.5264 27.2059 14.9057 27.563 16.2393 27.9081C16.4895 27.9722 16.7397 28.0373 16.9901 28.0999C17.4186 28.2069 17.6791 28.6411 17.5718 29.07C17.4809 29.4329 17.1548 29.6758 16.7964 29.6758H16.7965ZM16.7965 33.286C16.7321 33.286 16.6668 33.2793 16.6016 33.2619C16.347 33.1983 16.0927 33.1332 15.8382 33.0672C14.5309 32.7294 13.2964 32.4089 12.0644 32.3679C11.6228 32.353 11.2769 31.9828 11.2918 31.5409C11.3066 31.0999 11.6766 30.7529 12.1182 30.7688C13.5262 30.816 14.9051 31.1731 16.239 31.5182C16.4894 31.5828 16.7398 31.6469 16.9902 31.71C17.4187 31.817 17.6792 32.2522 17.5719 32.6801C17.481 33.044 17.1549 33.2859 16.7965 33.2859V33.286ZM16.7965 36.8972C16.7321 36.8972 16.6668 36.889 16.6016 36.8731C16.3474 36.809 16.0937 36.743 15.8395 36.6779C14.5319 36.3391 13.2967 36.0201 12.0644 35.9781C11.6228 35.9632 11.2769 35.593 11.2918 35.1521C11.3066 34.7102 11.6764 34.368 12.1182 34.3791C13.5268 34.4273 14.9063 34.783 16.2403 35.129C16.4903 35.1931 16.7401 35.2581 16.9901 35.3203C17.4186 35.4283 17.6791 35.862 17.5718 36.2914C17.4809 36.6543 17.1548 36.8972 16.7964 36.8972H16.7965ZM20.5744 40.757C20.543 40.757 20.5119 40.7551 20.4809 40.7512C19.0729 40.5849 17.6651 40.2529 16.3036 39.9319C13.5955 39.2938 11.0377 38.6909 8.49639 39.29C8.25839 39.3459 8.00799 39.29 7.81619 39.1391C7.62459 38.9873 7.51289 38.756 7.51289 38.5111V20.7537C7.51289 20.382 7.76799 20.0601 8.12929 19.9748C11.0376 19.289 13.9014 19.9637 16.6708 20.6174C17.9573 20.921 19.2865 21.2343 20.5743 21.3933C21.862 21.2343 23.1913 20.921 24.4779 20.6174C27.2473 19.9638 30.1109 19.2891 33.0193 19.9748C33.3806 20.0601 33.6358 20.3822 33.6358 20.7532V38.5111C33.6358 38.7559 33.5239 38.9873 33.3323 39.1391C33.1406 39.29 32.8901 39.3459 32.6522 39.29C30.1111 38.691 27.5531 39.2939 24.8452 39.9319C23.4837 40.2529 22.0758 40.5849 20.6679 40.7512C20.6368 40.7551 20.6056 40.757 20.5743 40.757H20.5744Z" fill="white"/>
</svg>
