<svg width="46" height="39" viewBox="0 0 46 39" fill="none" xmlns="http://www.w3.org/2000/svg">
<path d="M45.1154 0H0.884615C0.353846 0 0 0.353846 0 0.884615V31.1385C0 31.6692 0.353846 32.0231 0.884615 32.0231H28.4846V37.1538C28.4846 37.6846 28.8385 38.0385 29.3692 38.0385H42.1962C42.7269 38.0385 43.0808 37.6846 43.0808 37.1538V32.0231H45.1154C45.6462 32.0231 46 31.6692 46 31.1385V0.884615C46 0.353846 45.6462 0 45.1154 0ZM41.3115 36.2692H30.2538V31.7577C30.2538 29.7231 31.9346 28.0423 33.9692 28.0423H37.6846C39.7192 28.0423 41.4 29.7231 41.4 31.7577V36.2692H41.3115ZM44.2308 30.2538H42.8154C42.1962 27.9538 40.0731 26.3615 37.5962 26.3615H33.8808C31.4038 26.3615 29.2808 28.0423 28.6615 30.2538H1.76923V1.76923H44.2308V30.2538Z" fill="white"/>
<path d="M11.323 19.3734C11.6769 19.5503 11.8538 19.9042 11.8538 20.3465V21.2311C11.8538 21.7619 12.2077 22.1157 12.7384 22.1157C13.2692 22.1157 13.623 21.7619 13.623 21.2311V20.3465C13.623 19.2849 13.0923 18.4003 12.2961 17.8696C10.9692 17.0734 10.173 15.658 10.2615 14.1542C10.2615 11.9426 12.1192 9.99648 14.3307 9.90802C15.4807 9.81956 16.6307 10.2619 17.5153 11.058C18.4 11.8542 18.8423 13.0042 18.8423 14.1542C18.8423 15.658 18.0461 16.9849 16.8077 17.7811C15.923 18.3119 15.3923 19.2849 15.3923 20.258C15.3923 20.7888 15.7461 21.1426 16.2769 21.1426C16.8077 21.1426 17.1615 20.7888 17.1615 20.258C17.1615 19.8157 17.3384 19.4619 17.6923 19.2849C19.4615 18.1349 20.523 16.2773 20.523 14.1542C20.523 12.4734 19.8153 10.8811 18.6653 9.7311C17.4269 8.5811 15.8346 7.96187 14.1538 8.05033C10.9692 8.22725 8.40381 10.8811 8.40381 14.0657C8.40381 16.2773 9.55381 18.2234 11.323 19.3734Z" fill="white"/>
<path d="M16.1002 22.2035L12.5618 23.0881C12.1194 23.1765 11.7656 23.7073 11.9425 24.1496C12.031 24.5035 12.3848 24.7689 12.8271 24.7689H13.0925L16.631 23.8842C17.0733 23.7958 17.4271 23.265 17.2502 22.8227C17.0733 22.3804 16.5425 22.115 16.1002 22.2035Z" fill="white"/>
<path d="M14.5077 7.43113C15.0384 7.43113 15.3923 7.07728 15.3923 6.54651V4.15805C15.3923 3.62728 15.0384 3.27344 14.5077 3.27344C13.9769 3.27344 13.623 3.62728 13.623 4.15805V6.54651C13.623 6.98882 14.0654 7.43113 14.5077 7.43113Z" fill="white"/>
<path d="M8.31529 9.46587C8.49222 9.64279 8.7576 9.73125 8.93453 9.73125C9.11145 9.73125 9.37683 9.64279 9.55376 9.46587C9.9076 9.11202 9.9076 8.58125 9.55376 8.2274L7.87299 6.54663C7.51914 6.19279 6.98837 6.19279 6.63453 6.54663C6.28068 6.90048 6.28068 7.43125 6.63453 7.7851L8.31529 9.46587Z" fill="white"/>
<path d="M4.2462 15.2155H6.63466C7.16543 15.2155 7.51927 14.8617 7.51927 14.3309C7.51927 13.8001 7.16543 13.4463 6.63466 13.4463H4.2462C3.71543 13.4463 3.36158 13.8001 3.36158 14.3309C3.36158 14.8617 3.80389 15.2155 4.2462 15.2155Z" fill="white"/>
<path d="M8.31529 19.2849L6.63453 20.9657C6.28068 21.3195 6.28068 21.8503 6.63453 22.2041C6.81145 22.3811 7.07683 22.4695 7.25376 22.4695C7.43068 22.4695 7.69606 22.3811 7.87299 22.2041L9.55376 20.5234C9.9076 20.1695 9.9076 19.6388 9.55376 19.2849C9.19991 18.9311 8.66914 18.9311 8.31529 19.2849Z" fill="white"/>
<path d="M20.7001 19.2849C20.3463 18.9311 19.8155 18.9311 19.4617 19.2849C19.1078 19.6388 19.1078 20.1695 19.4617 20.5234L21.1424 22.2041C21.3194 22.3811 21.5848 22.4695 21.7617 22.4695C21.9386 22.4695 22.204 22.3811 22.3809 22.2041C22.7348 21.8503 22.7348 21.3195 22.3809 20.9657L20.7001 19.2849Z" fill="white"/>
<path d="M21.4962 14.3309C21.4962 14.8617 21.85 15.2155 22.3808 15.2155H24.7693C25.3 15.2155 25.6539 14.8617 25.6539 14.3309C25.6539 13.8001 25.3 13.4463 24.7693 13.4463H22.3808C21.85 13.4463 21.4962 13.8886 21.4962 14.3309Z" fill="white"/>
<path d="M20.0809 9.73125C20.3463 9.73125 20.5232 9.64279 20.7001 9.46587L22.3809 7.7851C22.7348 7.43125 22.7348 6.90048 22.3809 6.54663C22.0271 6.19279 21.4963 6.19279 21.1424 6.54663L19.4617 8.13894C19.1078 8.49279 19.1078 9.02356 19.4617 9.3774C19.6386 9.64279 19.8155 9.73125 20.0809 9.73125Z" fill="white"/>
<path d="M35.7384 25.0347C38.7461 25.0347 41.223 22.5577 41.223 19.55C41.223 16.5424 38.7461 14.0654 35.7384 14.0654C32.7307 14.0654 30.2538 16.5424 30.2538 19.55C30.2538 22.5577 32.7307 25.0347 35.7384 25.0347ZM35.7384 15.7462C37.773 15.7462 39.4538 17.427 39.4538 19.4616C39.4538 21.4962 37.773 23.177 35.7384 23.177C33.7038 23.177 32.023 21.4962 32.023 19.4616C32.023 17.427 33.7038 15.7462 35.7384 15.7462Z" fill="white"/>
</svg>
