<svg width="476" height="423" viewBox="0 0 476 423" fill="none" xmlns="http://www.w3.org/2000/svg">
<path d="M175.421 162.238C175.047 153.469 173.083 144.68 169.426 136.359L182.101 127.3L164.72 102.99L152.045 112.049C145.355 105.909 137.688 101.223 129.501 98.0133L132.036 82.6377L102.552 77.7339L100.007 93.12L74.1389 99.1043L65.0692 86.4397L40.7487 103.831L49.8078 116.506C43.6681 123.186 38.972 130.853 35.7724 139.05L20.3969 136.483L15.5039 165.967L30.8794 168.533C31.2638 177.322 33.2169 186.101 36.874 194.412L24.1995 203.472L41.58 227.781L54.2548 218.722C60.9556 224.872 68.6227 229.568 76.8095 232.758L74.2639 248.144L103.748 253.037L106.293 237.661C115.082 237.277 123.85 235.314 132.172 231.667L141.231 244.342L165.562 226.95L156.492 214.276C162.632 207.586 167.328 199.918 170.528 191.722L185.903 194.287L190.797 164.804L175.421 162.238ZM126.52 193.01C109.42 207.409 83.6655 203.139 72.1131 183.982C63.0331 168.918 66.3263 149.085 79.7904 137.762C96.9113 123.373 122.666 127.653 134.197 146.81C143.267 161.874 139.974 181.686 126.52 193.01Z" fill="#E6F3FC"/>
<path d="M366.921 186.051L338.375 219.593L333.153 225.721L302.965 199.508L318.937 177.51L338.375 157.358H338.386C339.689 155.807 341.807 155.138 343.71 155.784C347.075 156.905 348.207 160.723 346.553 163.351L349.351 160.032L349.363 160.009C350.745 158.389 353.01 157.744 354.981 158.548C358.414 159.919 359.206 163.997 357.054 166.545L353.758 170.408C355.559 168.301 358.595 168.222 360.861 169.853C364.95 172.809 361.189 177.227 359.388 179.345C361.393 176.978 365.12 176.932 367.181 179.481C368.711 181.384 368.507 184.194 366.921 186.051Z" fill="white"/>
<path d="M333.152 226.571C332.949 226.571 332.751 226.497 332.595 226.363L302.407 200.15C302.075 199.861 302.019 199.366 302.277 199.01L318.249 177.011C318.271 176.98 318.297 176.949 318.324 176.92L337.763 156.769C337.78 156.752 337.796 156.736 337.814 156.72C339.365 154.947 341.831 154.249 343.984 154.98C345.78 155.579 347.173 156.927 347.8 158.678C347.973 159.163 348.082 159.664 348.127 160.167L348.659 159.535C348.678 159.507 348.698 159.48 348.717 159.458C350.376 157.512 353.028 156.833 355.302 157.762C357.137 158.494 358.457 159.981 358.922 161.84C359.382 163.681 358.926 165.645 357.704 167.094L357.041 167.871C358.485 167.769 360.008 168.192 361.358 169.164C362.629 170.083 363.355 171.219 363.514 172.538C363.69 174 363.127 175.479 362.357 176.784C362.664 176.739 362.985 176.719 363.292 176.721C365.055 176.741 366.714 177.553 367.842 178.947C369.574 181.101 369.456 184.391 367.568 186.602L333.799 226.272C333.652 226.445 333.442 226.551 333.217 226.568C333.194 226.57 333.173 226.571 333.152 226.571ZM304.109 199.378L333.061 224.518L366.273 185.501C366.273 185.501 366.274 185.5 366.274 185.5C367.642 183.899 367.746 181.541 366.518 180.014C365.711 179.016 364.528 178.434 363.271 178.419C363.255 178.419 363.239 178.419 363.222 178.419C361.996 178.419 360.842 178.95 360.046 179.881C360.044 179.884 360.042 179.887 360.038 179.891C360.038 179.892 360.036 179.89 360.035 179.895C359.731 180.248 359.195 180.293 358.839 179.991C358.482 179.687 358.435 179.154 358.738 178.796C358.743 178.791 358.748 178.785 358.753 178.779C359.927 177.398 362.08 174.856 361.826 172.742C361.724 171.9 361.245 171.18 360.362 170.541C358.354 169.095 355.848 169.271 354.404 170.959L354.403 170.959C354.097 171.317 353.561 171.357 353.205 171.054C352.848 170.749 352.806 170.213 353.111 169.856L356.407 165.994C357.276 164.965 357.601 163.565 357.273 162.252C356.942 160.929 355.992 159.866 354.665 159.337C353.081 158.69 351.235 159.162 350.051 160.511C350.034 160.536 350.017 160.56 350 160.579L347.201 163.898C346.914 164.24 346.411 164.299 346.051 164.036C345.69 163.773 345.595 163.276 345.833 162.898C346.5 161.838 346.637 160.474 346.199 159.25C345.742 157.975 344.763 157.03 343.44 156.589C341.903 156.067 340.134 156.596 339.035 157.904C338.998 157.949 338.956 157.99 338.91 158.026L319.588 178.057L304.109 199.378Z" fill="#030047"/>
<path d="M345.717 180.71C345.522 180.71 345.327 180.644 345.166 180.508C344.809 180.203 344.766 179.668 345.07 179.31L353.115 169.859C353.421 169.502 353.956 169.459 354.313 169.763C354.671 170.067 354.714 170.603 354.41 170.961L346.364 180.411C346.196 180.609 345.957 180.71 345.717 180.71Z" fill="#030047"/>
<path d="M338.051 174.185C337.857 174.185 337.661 174.119 337.5 173.982C337.143 173.678 337.1 173.142 337.404 172.785L345.906 162.798C346.212 162.441 346.746 162.398 347.104 162.702C347.462 163.006 347.505 163.542 347.201 163.899L338.698 173.886C338.53 174.083 338.291 174.185 338.051 174.185Z" fill="#030047"/>
<path d="M353.389 187.243C353.194 187.243 352.999 187.176 352.838 187.04C352.481 186.736 352.438 186.2 352.742 185.843L360.774 176.408C361.079 176.051 361.615 176.008 361.972 176.312C362.329 176.616 362.372 177.152 362.068 177.509L354.036 186.944C353.868 187.142 353.629 187.243 353.389 187.243Z" fill="#030047"/>
<path d="M445.725 422.804H26.5997C26.1307 422.804 25.75 422.424 25.75 421.955C25.75 421.485 26.1304 421.105 26.5997 421.105H445.725C446.194 421.105 446.575 421.485 446.575 421.955C446.575 422.424 446.194 422.804 445.725 422.804Z" fill="#030047"/>
<path d="M245.161 422.188L236.453 369.102H115.789V422.188H245.161Z" fill="#030047"/>
<path d="M339.382 229.304L294.291 286.572C288.12 296.975 277.464 303.918 265.455 305.361L264.286 305.502C253.518 306.796 242.699 303.54 234.434 296.518L182.816 252.661L180.717 216.426L201.256 212.01C201.311 211.998 201.365 211.986 201.42 211.975C208.916 210.4 216.724 212.339 222.847 216.94L257.833 243.235L296.045 194.467L339.382 229.304Z" fill="#605EFD"/>
<path d="M300.019 279.353C299.832 279.353 299.645 279.292 299.488 279.167C299.122 278.874 299.062 278.339 299.356 277.973L338.19 229.435L296.191 195.673L250.371 255.403C250.087 255.775 249.552 255.846 249.181 255.56C248.808 255.274 248.737 254.741 249.024 254.369L295.372 193.949C295.51 193.768 295.717 193.65 295.944 193.623C296.18 193.595 296.4 193.661 296.578 193.804L339.914 228.641C340.279 228.935 340.338 229.469 340.046 229.834L300.683 279.034C300.515 279.244 300.268 279.353 300.019 279.353Z" fill="#030047"/>
<g opacity="0.4">
<path d="M241.134 277.565C240.999 277.565 240.864 277.554 240.727 277.532C239.75 277.376 238.86 276.703 238.289 275.686C237.91 275.012 237.713 274.303 237.523 273.617L237.423 273.261C237.23 272.584 237.055 272.519 237.035 272.514C236.985 272.502 236.843 272.526 236.66 272.65C236.492 272.765 236.346 272.908 236.199 273.049C236.096 273.147 235.993 273.244 235.887 273.337C235.116 274.011 234.179 274.42 233.249 274.489C232.159 274.569 231.105 274.177 230.42 273.44C229.515 272.467 229.409 271.141 229.408 270.229C229.406 268.474 229.776 266.69 230.481 265.068C230.668 264.638 231.167 264.441 231.599 264.627C232.029 264.814 232.226 265.315 232.039 265.745C231.427 267.154 231.105 268.704 231.108 270.227C231.109 271.209 231.291 271.881 231.664 272.283C231.998 272.641 232.558 272.838 233.123 272.794C233.689 272.753 234.273 272.49 234.77 272.057C234.858 271.98 234.943 271.899 235.028 271.819C235.241 271.615 235.458 271.414 235.703 271.247C236.276 270.855 236.905 270.721 237.474 270.873C238.595 271.171 238.943 272.394 239.058 272.795L239.161 273.162C239.331 273.778 239.494 274.36 239.77 274.854C240.082 275.408 240.54 275.782 240.996 275.855C241.389 275.917 241.852 275.676 241.909 275.386C242 274.926 242.446 274.627 242.907 274.716C243.367 274.806 243.668 275.253 243.578 275.713C243.367 276.784 242.297 277.565 241.134 277.565Z" fill="white"/>
</g>
<g opacity="0.4">
<path d="M290.834 268.331C289.484 268.331 288.123 268.119 286.837 267.705C286.391 267.561 286.145 267.082 286.289 266.635C286.433 266.189 286.909 265.943 287.359 266.087C288.821 266.559 290.396 266.728 291.911 266.579C292.901 266.481 293.534 266.242 293.902 265.826C294.225 265.46 294.367 264.884 294.269 264.324C294.173 263.765 293.856 263.209 293.376 262.756C293.29 262.676 293.201 262.599 293.112 262.523C292.889 262.33 292.667 262.134 292.478 261.907C292.031 261.373 291.838 260.759 291.934 260.18C292.122 259.039 293.305 258.571 293.693 258.418L294.043 258.282C294.641 258.051 295.206 257.833 295.674 257.507C296.194 257.144 296.523 256.651 296.55 256.19C296.574 255.799 296.289 255.356 295.996 255.327C295.529 255.283 295.186 254.868 295.232 254.401C295.277 253.933 295.701 253.591 296.157 253.636C297.372 253.752 298.328 254.97 298.247 256.295C298.186 257.283 297.602 258.233 296.646 258.9C296.009 259.345 295.32 259.61 294.653 259.867L294.317 259.998C293.661 260.257 293.614 260.437 293.611 260.456C293.602 260.508 293.641 260.65 293.781 260.817C293.912 260.973 294.068 261.103 294.222 261.236C294.33 261.329 294.437 261.422 294.541 261.52C295.286 262.223 295.785 263.116 295.943 264.035C296.128 265.107 295.841 266.198 295.173 266.952C294.294 267.946 292.985 268.18 292.077 268.27C291.666 268.311 291.251 268.331 290.834 268.331Z" fill="white"/>
</g>
<g opacity="0.4">
<path d="M316.232 243.72C315.952 243.72 315.668 243.676 315.393 243.582C314.456 243.262 313.693 242.448 313.302 241.348C313.042 240.615 312.968 239.877 312.896 239.163L312.859 238.81C312.784 238.125 312.634 238.023 312.605 238.009C312.559 237.988 312.413 237.988 312.212 238.079C312.026 238.164 311.859 238.28 311.69 238.394C311.572 238.473 311.453 238.552 311.332 238.626C310.46 239.158 309.469 239.404 308.537 239.314C307.453 239.209 306.477 238.643 305.926 237.8C305.2 236.688 305.32 235.364 305.474 234.465C305.768 232.737 306.436 231.041 307.404 229.56C307.662 229.168 308.189 229.057 308.58 229.314C308.973 229.571 309.083 230.098 308.827 230.491C307.985 231.777 307.404 233.251 307.149 234.75C306.982 235.732 307.045 236.405 307.349 236.871C307.615 237.279 308.134 237.567 308.701 237.622C309.267 237.677 309.884 237.518 310.448 237.175C310.549 237.113 310.647 237.047 310.744 236.982C310.99 236.818 311.236 236.656 311.505 236.534C312.137 236.244 312.78 236.22 313.313 236.465C314.365 236.947 314.503 238.211 314.548 238.626L314.587 238.993C314.651 239.634 314.711 240.239 314.903 240.777C315.116 241.376 315.504 241.823 315.941 241.973C316.308 242.098 316.815 241.942 316.92 241.665C317.087 241.226 317.577 241.007 318.016 241.173C318.455 241.34 318.676 241.831 318.509 242.269C318.17 243.159 317.227 243.72 316.232 243.72Z" fill="white"/>
</g>
<g opacity="0.4">
<path d="M264.689 290.564C263.34 290.564 261.979 290.352 260.692 289.938C260.247 289.794 260.001 289.315 260.145 288.868C260.289 288.422 260.762 288.176 261.214 288.32C262.677 288.792 264.253 288.961 265.767 288.812C266.757 288.714 267.391 288.475 267.758 288.059C268.081 287.693 268.222 287.117 268.125 286.557C268.029 285.999 267.711 285.442 267.231 284.989C267.146 284.909 267.058 284.833 266.969 284.756C266.746 284.563 266.524 284.367 266.335 284.141C265.888 283.607 265.695 282.994 265.79 282.415C265.978 281.271 267.16 280.804 267.549 280.651L267.901 280.515C268.499 280.284 269.063 280.066 269.529 279.742C270.051 279.377 270.38 278.884 270.407 278.424C270.432 278.033 270.146 277.589 269.853 277.561C269.385 277.516 269.043 277.101 269.089 276.634C269.134 276.166 269.543 275.824 270.014 275.87C271.229 275.986 272.185 277.203 272.104 278.528C272.043 279.516 271.459 280.466 270.502 281.134C269.867 281.578 269.178 281.844 268.511 282.1L268.172 282.232C267.517 282.49 267.47 282.67 267.467 282.69C267.458 282.74 267.498 282.883 267.638 283.051C267.769 283.207 267.926 283.338 268.081 283.471C268.187 283.564 268.294 283.656 268.397 283.753C269.142 284.457 269.641 285.35 269.8 286.268C269.984 287.341 269.697 288.431 269.03 289.186C268.151 290.179 266.841 290.414 265.933 290.504C265.521 290.544 265.106 290.564 264.689 290.564Z" fill="white"/>
</g>
<g opacity="0.4">
<path d="M271.037 261.87C270.149 261.87 269.279 261.336 268.838 260.611C268.323 259.764 268.26 258.651 268.665 257.557C268.933 256.83 269.347 256.22 269.748 255.629L269.952 255.326C270.342 254.74 270.278 254.564 270.269 254.546C270.248 254.502 270.134 254.407 269.923 254.349C269.728 254.295 269.523 254.278 269.321 254.256C269.18 254.241 269.039 254.226 268.9 254.205C267.887 254.054 266.968 253.605 266.312 252.941C265.547 252.164 265.161 251.105 265.279 250.106C265.436 248.786 266.376 247.847 267.07 247.255C268.405 246.118 270.004 245.244 271.696 244.729C272.148 244.592 272.619 244.845 272.757 245.294C272.892 245.743 272.639 246.218 272.191 246.355C270.72 246.802 269.331 247.561 268.172 248.549C267.425 249.185 267.03 249.76 266.966 250.305C266.909 250.789 267.122 251.342 267.522 251.748C267.92 252.151 268.499 252.427 269.15 252.525C269.266 252.542 269.382 252.554 269.498 252.566C269.793 252.597 270.086 252.632 270.371 252.709C271.043 252.893 271.55 253.286 271.804 253.815C272.302 254.864 271.596 255.921 271.365 256.268L271.154 256.582C270.795 257.112 270.455 257.612 270.258 258.145C270.038 258.742 270.05 259.334 270.289 259.728C270.494 260.064 270.984 260.264 271.238 260.12C271.65 259.889 272.166 260.036 272.395 260.444C272.624 260.853 272.479 261.372 272.07 261.601C271.74 261.788 271.387 261.87 271.037 261.87Z" fill="white"/>
</g>
<g opacity="0.4">
<path d="M294.526 239.677C294.357 239.677 294.186 239.626 294.038 239.521C293.655 239.251 293.562 238.721 293.832 238.338C294.718 237.082 295.347 235.63 295.654 234.137C295.855 233.162 295.813 232.486 295.526 232.012C295.273 231.594 294.765 231.289 294.201 231.215C293.639 231.14 293.013 231.279 292.439 231.603C292.337 231.66 292.237 231.722 292.137 231.784C291.886 231.94 291.634 232.093 291.362 232.207C290.719 232.475 290.077 232.477 289.552 232.214C288.516 231.697 288.421 230.429 288.39 230.012L288.364 229.64C288.322 228.999 288.281 228.394 288.108 227.85C287.916 227.244 287.543 226.784 287.111 226.621C286.745 226.482 286.238 226.623 286.123 226.895C285.942 227.328 285.445 227.529 285.01 227.349C284.578 227.167 284.375 226.669 284.557 226.236C285.029 225.113 286.473 224.561 287.715 225.032C288.64 225.383 289.375 226.222 289.728 227.335C289.964 228.075 290.013 228.814 290.06 229.528L290.085 229.886C290.136 230.573 290.284 230.681 290.313 230.695C290.36 230.718 290.505 230.723 290.707 230.639C290.896 230.561 291.067 230.45 291.241 230.342C291.361 230.267 291.482 230.192 291.604 230.123C292.496 229.62 293.492 229.408 294.422 229.53C295.501 229.672 296.456 230.27 296.98 231.131C297.668 232.265 297.502 233.585 297.318 234.48C296.965 236.199 296.24 237.872 295.222 239.316C295.056 239.551 294.794 239.677 294.526 239.677Z" fill="white"/>
</g>
<path d="M109.994 383.384L242.037 371.956L201.374 224.579C199.41 218.317 193.118 214.473 186.65 215.583C186.65 215.583 152.789 220.242 141.833 223.277C130.954 226.291 106.487 239.623 106.487 239.623C101.151 241.695 97.777 246.991 98.1536 252.703L109.994 383.384Z" fill="#605EFD"/>
<g opacity="0.4">
<path d="M180.062 286.816C179.974 286.816 179.884 286.803 179.795 286.773C178.519 286.351 178.016 284.853 178.347 283.718C178.626 282.768 179.405 281.971 180.487 281.531C181.206 281.239 181.937 281.133 182.645 281.03L183.002 280.977C183.698 280.871 183.785 280.706 183.791 280.687C183.811 280.639 183.805 280.493 183.705 280.299C183.611 280.115 183.487 279.952 183.365 279.787C183.282 279.674 183.199 279.561 183.121 279.444C182.55 278.593 182.262 277.613 182.31 276.681C182.367 275.593 182.89 274.594 183.707 274.007C184.787 273.231 186.116 273.294 187.02 273.408C188.76 273.627 190.484 274.219 192.003 275.121C192.407 275.361 192.54 275.882 192.3 276.286C192.062 276.689 191.54 276.822 191.136 276.583C189.815 275.798 188.318 275.283 186.808 275.094C185.821 274.97 185.149 275.062 184.698 275.387C184.302 275.671 184.036 276.202 184.007 276.77C183.978 277.336 184.164 277.95 184.531 278.497C184.595 278.593 184.665 278.687 184.733 278.78C184.909 279.019 185.082 279.26 185.217 279.524C185.535 280.142 185.587 280.784 185.365 281.329C184.929 282.401 183.673 282.594 183.259 282.657L182.888 282.712C182.253 282.804 181.654 282.891 181.126 283.105C180.537 283.345 180.107 283.752 179.978 284.195C179.868 284.571 180.049 285.067 180.329 285.159C180.774 285.306 181.016 285.787 180.868 286.233C180.751 286.59 180.418 286.816 180.062 286.816Z" fill="white"/>
</g>
<path d="M232.074 340.424C231.698 340.424 231.353 340.171 231.253 339.789L204.274 236.662C204.155 236.208 204.427 235.743 204.881 235.624C205.332 235.508 205.8 235.777 205.918 236.231L232.897 339.359C233.016 339.813 232.745 340.277 232.29 340.396C232.218 340.415 232.146 340.424 232.074 340.424Z" fill="#030047"/>
<path d="M160.208 185.167L163.431 218.29C163.431 218.29 185.207 234.935 165.189 243.864C136.521 256.652 129.909 228.886 129.909 228.886L124.891 186.498L160.208 185.167Z" fill="white"/>
<path d="M151.303 248.084C147.913 248.084 144.787 247.381 141.939 245.974C132.041 241.087 129.198 229.572 129.082 229.084L124.047 186.598C124.019 186.362 124.091 186.126 124.245 185.946C124.4 185.765 124.622 185.658 124.859 185.649L160.176 184.319C160.667 184.309 161.01 184.638 161.053 185.085L164.241 217.846C166.071 219.312 175.354 227.167 174.438 234.99C173.973 238.966 170.977 242.213 165.535 244.641C160.391 246.935 155.634 248.084 151.303 248.084ZM125.842 187.312L130.753 228.787C130.761 228.801 133.524 239.932 142.703 244.456C148.715 247.42 156.165 246.96 164.842 243.089C169.698 240.923 172.359 238.132 172.75 234.795C173.634 227.264 163.021 219.046 162.914 218.964C162.727 218.821 162.607 218.606 162.585 218.371L159.44 186.046L125.842 187.312Z" fill="#030047"/>
<path d="M140.699 140.182C141.412 145.456 147.168 149.032 153.557 148.169C159.946 147.306 164.547 142.331 163.835 137.057C163.122 131.783 153.017 120.926 146.629 121.789C140.24 122.652 139.987 134.908 140.699 140.182Z" fill="#030047"/>
<path d="M124.235 193.669C122.765 192.363 121.383 190.937 120.104 189.397C114.369 182.488 109.857 174.109 103.832 165.831L144.664 130.508C145.66 130.966 165.554 142.762 175.063 169.747C181.594 188.279 175.381 198.289 161.665 202.193C155.196 204.034 148.49 204.171 142.149 202.777" fill="white"/>
<path d="M150.75 204.559C147.805 204.559 144.856 204.242 141.967 203.607C141.509 203.506 141.219 203.053 141.32 202.595C141.421 202.136 141.872 201.847 142.332 201.947C148.64 203.334 155.246 203.137 161.433 201.375C168.012 199.503 172.535 196.258 174.877 191.731C177.653 186.365 177.446 179.063 174.263 170.029C165.403 144.889 147.822 133.379 144.766 131.544L104.977 165.965C107.342 169.257 109.479 172.556 111.55 175.754C114.594 180.453 117.468 184.891 120.758 188.855C121.995 190.345 123.354 191.752 124.799 193.034C125.15 193.346 125.182 193.883 124.87 194.234C124.557 194.584 124.021 194.616 123.671 194.305C122.163 192.964 120.743 191.497 119.451 189.94C116.097 185.899 113.196 181.42 110.124 176.678C107.933 173.294 105.666 169.795 103.145 166.332C102.885 165.975 102.943 165.478 103.277 165.189L144.108 129.866C144.361 129.647 144.716 129.597 145.019 129.737C145.22 129.829 165.922 141.251 175.865 169.465C179.21 178.958 179.386 186.713 176.386 192.512C173.819 197.472 168.945 201.004 161.898 203.01C158.276 204.041 154.515 204.559 150.75 204.559Z" fill="#030047"/>
<path d="M126.908 207.975L127.221 200.314L129.797 182.827C131.119 184.142 133.357 183.447 133.726 181.619C134.388 178.35 129.686 168.924 124.506 163.38C124.506 163.38 160.011 151.543 155.39 134.783C147.297 105.431 130.877 109.263 113.668 133.653C105.146 145.732 81.163 157.882 99.1279 176.483C93.9159 193.825 116.755 209.124 126.908 207.975Z" fill="#030047"/>
<path d="M134.306 196.268C134.306 196.268 130.361 200.414 123.761 200.955C117.162 201.495 108.712 184.429 113.097 180.788C117.481 177.148 129.798 182.829 129.798 182.829" fill="white"/>
<path d="M123.454 201.817C119.283 201.817 114.838 196.263 112.531 190.604C110.536 185.716 110.545 181.802 112.553 180.135C117.293 176.197 129.63 181.816 130.154 182.058C130.58 182.254 130.766 182.759 130.569 183.185C130.374 183.61 129.875 183.798 129.441 183.601C126.149 182.084 116.89 178.738 113.639 181.442C112.271 182.576 112.454 185.921 114.104 189.962C116.223 195.16 120.404 200.383 123.691 200.108C129.866 199.602 133.654 195.72 133.691 195.681C134.015 195.343 134.551 195.33 134.892 195.654C135.23 195.978 135.243 196.514 134.92 196.854C134.751 197.032 130.673 201.241 123.83 201.801C123.706 201.812 123.58 201.817 123.454 201.817Z" fill="#030047"/>
<path d="M126.383 186.87C125.193 185.832 123.786 185.045 122.28 184.574C121.335 184.278 120.33 184.106 119.354 184.27C118.378 184.434 117.432 184.972 116.945 185.834C116.255 187.053 116.606 188.587 117.12 189.891C118.057 192.268 119.857 194.54 122.531 195.131" fill="white"/>
<path d="M122.532 195.981C122.471 195.981 122.409 195.974 122.347 195.961C119.738 195.383 117.544 193.285 116.328 190.203C115.546 188.219 115.505 186.653 116.204 185.416C116.784 184.393 117.909 183.651 119.213 183.432C120.205 183.266 121.29 183.374 122.533 183.763C124.144 184.267 125.668 185.12 126.941 186.229C127.294 186.538 127.332 187.075 127.023 187.428C126.715 187.782 126.179 187.818 125.824 187.51C124.727 186.554 123.413 185.819 122.026 185.385C121.041 185.077 120.214 184.987 119.494 185.108C118.69 185.243 118.013 185.671 117.683 186.253C117.253 187.015 117.327 188.103 117.909 189.58C118.385 190.785 119.804 193.658 122.715 194.301C123.173 194.403 123.461 194.857 123.361 195.314C123.273 195.711 122.921 195.981 122.532 195.981Z" fill="#030047"/>
<path d="M150.358 170.851C151.091 172.414 150.836 174.081 149.787 174.573C148.738 175.065 147.293 174.196 146.559 172.632C145.826 171.069 146.081 169.402 147.13 168.91C148.179 168.418 149.624 169.287 150.358 170.851Z" fill="#030047"/>
<path d="M156.697 168.586C157.24 170.183 160.627 174.775 162.066 175.654C163.506 176.532 167.197 176.829 167.659 178.451C168.086 179.952 167.698 181.659 166.662 182.826" fill="white"/>
<path d="M166.663 183.676C166.462 183.676 166.261 183.605 166.098 183.462C165.748 183.15 165.716 182.614 166.027 182.262C166.871 181.311 167.191 179.907 166.842 178.684C166.671 178.084 165.036 177.592 163.954 177.267C163.066 177 162.227 176.747 161.625 176.38C160.014 175.396 156.488 170.608 155.893 168.86C155.742 168.416 155.98 167.933 156.424 167.783C156.868 167.631 157.35 167.869 157.502 168.313C157.975 169.705 161.25 174.16 162.51 174.929C162.926 175.183 163.698 175.415 164.445 175.64C166.135 176.148 168.05 176.724 168.477 178.218C168.98 179.985 168.518 182.015 167.299 183.39C167.13 183.579 166.897 183.676 166.663 183.676Z" fill="#030047"/>
<path d="M156.817 191.406C155.867 191.406 154.915 191.215 154.05 190.832C152.327 190.072 150.935 188.554 150.329 186.772C150.177 186.328 150.415 185.845 150.86 185.694C151.304 185.542 151.786 185.78 151.937 186.224C152.393 187.564 153.439 188.706 154.736 189.278C156.031 189.85 157.58 189.853 158.878 189.287C159.308 189.101 159.808 189.295 159.996 189.726C160.184 190.156 159.987 190.656 159.557 190.844C158.698 191.219 157.758 191.406 156.817 191.406Z" fill="#030047"/>
<path d="M143.31 169.174C143.187 169.174 143.062 169.147 142.944 169.091C142.521 168.888 142.342 168.38 142.544 167.957C143.778 165.385 145.833 164.242 148.97 164.364C149.439 164.382 149.805 164.777 149.787 165.246C149.77 165.715 149.362 166.073 148.906 166.062C145.806 165.941 144.764 167.256 144.077 168.691C143.932 168.996 143.627 169.174 143.31 169.174Z" fill="#030047"/>
<path d="M164.536 163.272C165.269 164.836 165.014 166.503 163.965 166.995C162.916 167.487 161.471 166.618 160.737 165.054C160.003 163.491 160.259 161.824 161.308 161.332C162.357 160.84 163.802 161.709 164.536 163.272Z" fill="#030047"/>
<path d="M157.489 161.595C157.326 161.595 157.161 161.548 157.015 161.45C156.625 161.187 156.524 160.658 156.787 160.27C158.322 158 160.447 156.828 163.104 156.785C163.568 156.783 163.959 157.152 163.967 157.621C163.975 158.09 163.6 158.477 163.131 158.484C161.032 158.518 159.417 159.413 158.194 161.222C158.03 161.465 157.763 161.595 157.489 161.595Z" fill="#030047"/>
<g opacity="0.4">
<path d="M162.617 276.805C162.428 276.805 162.236 276.785 162.047 276.742C161.081 276.524 160.236 275.796 159.729 274.745C159.392 274.045 159.24 273.321 159.093 272.621L159.019 272.269C158.871 271.596 158.709 271.511 158.678 271.5C158.627 271.484 158.482 271.501 158.296 271.611C158.12 271.717 157.963 271.852 157.806 271.984C157.699 272.074 157.592 272.163 157.481 272.248C156.668 272.873 155.708 273.222 154.774 273.232C154.761 273.232 154.748 273.232 154.733 273.232C153.659 273.232 152.646 272.776 152.016 272.006C151.176 270.979 151.153 269.649 151.21 268.738C151.32 266.987 151.801 265.23 152.605 263.656C152.819 263.239 153.328 263.072 153.747 263.286C154.165 263.499 154.332 264.011 154.118 264.429C153.419 265.796 153.001 267.323 152.907 268.844C152.845 269.823 152.984 270.505 153.331 270.93C153.637 271.303 154.172 271.533 154.734 271.533C154.74 271.533 154.748 271.533 154.756 271.533C155.322 271.526 155.923 271.302 156.445 270.901C156.537 270.831 156.626 270.756 156.714 270.682C156.942 270.491 157.172 270.303 157.428 270.151C158.023 269.795 158.659 269.702 159.217 269.889C160.316 270.257 160.588 271.498 160.678 271.906L160.755 272.271C160.888 272.9 161.012 273.494 161.259 274.007C161.535 274.58 161.97 274.983 162.42 275.084C162.8 275.171 163.286 274.96 163.36 274.674C163.478 274.22 163.95 273.951 164.396 274.068C164.851 274.186 165.122 274.651 165.004 275.105C164.742 276.112 163.716 276.805 162.617 276.805Z" fill="white"/>
</g>
<g opacity="0.4">
<path d="M178.843 263.043C178.828 263.043 178.812 263.043 178.798 263.042C177.579 262.978 176.571 261.802 176.596 260.475C176.614 259.487 177.156 258.512 178.084 257.803C178.699 257.332 179.376 257.037 180.031 256.752L180.364 256.606C181.008 256.32 181.047 256.138 181.049 256.119C181.055 256.067 181.01 255.928 180.863 255.765C180.724 255.615 180.562 255.491 180.403 255.364C180.292 255.276 180.18 255.189 180.074 255.097C179.298 254.426 178.762 253.555 178.564 252.644C178.333 251.581 178.573 250.478 179.208 249.696C180.044 248.665 181.342 248.375 182.246 248.246C183.981 247.999 185.801 248.116 187.504 248.585C187.957 248.71 188.223 249.178 188.097 249.63C187.974 250.082 187.507 250.349 187.053 250.224C185.571 249.815 183.992 249.713 182.484 249.928C181.499 250.069 180.877 250.335 180.526 250.766C180.219 251.146 180.104 251.726 180.224 252.282C180.345 252.837 180.686 253.379 181.185 253.811C181.273 253.886 181.365 253.959 181.457 254.032C181.689 254.215 181.918 254.401 182.117 254.62C182.587 255.134 182.806 255.739 182.735 256.322C182.598 257.472 181.436 257.989 181.054 258.159L180.71 258.309C180.122 258.565 179.567 258.807 179.115 259.153C178.609 259.539 178.303 260.045 178.295 260.506C178.287 260.899 178.591 261.329 178.886 261.345C179.355 261.369 179.714 261.769 179.69 262.238C179.666 262.691 179.291 263.043 178.843 263.043Z" fill="white"/>
</g>
<g opacity="0.4">
<path d="M190.332 239.383C190.143 239.383 189.951 239.362 189.762 239.32C188.797 239.102 187.951 238.374 187.445 237.322C187.107 236.623 186.956 235.898 186.808 235.198L186.734 234.847C186.586 234.173 186.425 234.088 186.394 234.078C186.344 234.062 186.197 234.078 186.01 234.189C185.835 234.294 185.681 234.428 185.524 234.56C185.415 234.65 185.308 234.74 185.197 234.826C184.381 235.45 183.42 235.799 182.489 235.809C181.366 235.816 180.369 235.362 179.732 234.584C178.892 233.557 178.869 232.227 178.924 231.317C179.033 229.566 179.516 227.809 180.32 226.233C180.534 225.817 181.043 225.649 181.463 225.863C181.881 226.077 182.047 226.589 181.833 227.006C181.134 228.375 180.715 229.902 180.621 231.421C180.559 232.415 180.695 233.078 181.047 233.508C181.351 233.88 181.888 234.11 182.45 234.111C182.456 234.111 182.463 234.11 182.471 234.11C183.037 234.104 183.638 233.88 184.162 233.478C184.253 233.408 184.343 233.333 184.432 233.258C184.658 233.068 184.887 232.881 185.141 232.729C185.741 232.373 186.375 232.28 186.933 232.466C188.032 232.834 188.304 234.075 188.394 234.484L188.471 234.849C188.604 235.478 188.728 236.072 188.975 236.585C189.251 237.157 189.686 237.56 190.136 237.662C190.52 237.748 191.002 237.538 191.076 237.252C191.195 236.798 191.666 236.528 192.113 236.645C192.567 236.764 192.839 237.228 192.72 237.682C192.457 238.689 191.432 239.383 190.332 239.383Z" fill="white"/>
</g>
<g opacity="0.4">
<path d="M215.651 317.232C215.464 317.232 215.279 317.212 215.101 317.172C214.135 316.954 213.29 316.226 212.783 315.175C212.446 314.476 212.294 313.752 212.147 313.051L212.073 312.7C211.925 312.027 211.763 311.94 211.732 311.93C211.685 311.914 211.538 311.93 211.351 312.041C211.174 312.147 211.018 312.282 210.861 312.414C210.753 312.504 210.646 312.593 210.535 312.678C209.722 313.303 208.761 313.652 207.828 313.662C206.738 313.651 205.706 313.215 205.07 312.436C204.23 311.409 204.208 310.079 204.265 309.168C204.374 307.417 204.855 305.659 205.659 304.086C205.872 303.669 206.386 303.502 206.802 303.716C207.22 303.929 207.386 304.441 207.172 304.859C206.473 306.226 206.055 307.753 205.961 309.274C205.899 310.253 206.039 310.936 206.386 311.36C206.696 311.738 207.192 311.953 207.811 311.962C208.377 311.957 208.977 311.732 209.5 311.331C209.592 311.261 209.68 311.186 209.769 311.112C209.997 310.921 210.227 310.733 210.482 310.581C211.077 310.225 211.713 310.132 212.272 310.319C213.37 310.687 213.642 311.928 213.732 312.336L213.809 312.702C213.942 313.331 214.066 313.924 214.314 314.437C214.589 315.01 215.024 315.412 215.474 315.514C215.853 315.599 216.339 315.39 216.415 315.104C216.534 314.65 217.004 314.381 217.451 314.498C217.906 314.617 218.177 315.081 218.059 315.535C217.771 316.636 216.678 317.232 215.651 317.232Z" fill="white"/>
</g>
<g opacity="0.4">
<path d="M184.787 323.478C183.877 323.478 182.947 322.921 182.506 322.016C182.072 321.125 182.113 320.012 182.616 318.959C182.949 318.262 183.417 317.694 183.868 317.145L184.104 316.857C184.548 316.309 184.5 316.129 184.494 316.11C184.476 316.062 184.372 315.958 184.167 315.881C183.976 315.81 183.775 315.773 183.575 315.732C183.436 315.704 183.298 315.676 183.161 315.643C182.165 315.398 181.292 314.866 180.702 314.144C180.014 313.302 179.727 312.211 179.936 311.226C180.213 309.927 181.237 309.079 181.984 308.554C183.418 307.545 185.092 306.824 186.824 306.468C187.293 306.373 187.733 306.669 187.827 307.129C187.922 307.589 187.625 308.038 187.166 308.132C185.661 308.441 184.206 309.068 182.962 309.944C182.146 310.516 181.714 311.036 181.598 311.579C181.497 312.057 181.657 312.627 182.018 313.068C182.377 313.507 182.926 313.836 183.566 313.993C183.68 314.021 183.795 314.044 183.909 314.067C184.198 314.125 184.487 314.187 184.765 314.291C185.418 314.536 185.888 314.975 186.089 315.526C186.488 316.614 185.688 317.602 185.425 317.926L185.182 318.225C184.776 318.717 184.393 319.182 184.15 319.692C183.876 320.267 183.831 320.857 184.034 321.272C184.205 321.624 184.665 321.87 184.942 321.75C185.367 321.561 185.872 321.751 186.064 322.181C186.254 322.61 186.062 323.112 185.632 323.302C185.363 323.422 185.077 323.478 184.787 323.478Z" fill="white"/>
</g>
<g opacity="0.4">
<path d="M142.829 318.048C142.741 318.048 142.65 318.034 142.561 318.005C141.119 317.526 140.557 315.826 140.935 314.538C141.257 313.447 142.159 312.529 143.41 312.022C144.257 311.679 145.127 311.554 145.968 311.433L146.401 311.369C147.193 311.248 147.427 311.056 147.485 310.916C147.539 310.781 147.496 310.541 147.374 310.303C147.258 310.076 147.104 309.873 146.954 309.668C146.854 309.532 146.755 309.396 146.662 309.256C145.996 308.264 145.662 307.12 145.719 306.036C145.787 304.779 146.39 303.626 147.332 302.95C148.582 302.055 150.135 302.131 151.197 302.265C153.266 302.527 155.317 303.235 157.127 304.31C157.53 304.55 157.663 305.071 157.423 305.475C157.184 305.878 156.663 306.011 156.259 305.771C154.648 304.814 152.823 304.184 150.983 303.951C149.749 303.794 148.903 303.915 148.321 304.331C147.802 304.704 147.455 305.392 147.416 306.127C147.378 306.846 147.611 307.622 148.073 308.311C148.153 308.43 148.238 308.546 148.323 308.662C148.518 308.927 148.719 309.201 148.887 309.529C149.246 310.23 149.305 310.95 149.058 311.557C148.569 312.758 147.179 312.969 146.656 313.049L146.21 313.114C145.436 313.226 144.704 313.331 144.049 313.596C143.292 313.904 142.737 314.435 142.565 315.018C142.406 315.559 142.674 316.252 143.097 316.392C143.542 316.54 143.784 317.021 143.635 317.466C143.517 317.823 143.185 318.048 142.829 318.048Z" fill="white"/>
</g>
<g opacity="0.4">
<path d="M122.113 298.265C121.488 298.265 120.898 298.15 120.422 298.034C118.577 297.584 116.797 296.735 115.274 295.578C114.9 295.295 114.827 294.762 115.11 294.388C115.393 294.015 115.928 293.941 116.3 294.225C117.64 295.242 119.204 295.988 120.825 296.383C121.897 296.645 122.648 296.624 123.194 296.32C123.678 296.051 124.044 295.49 124.151 294.857C124.255 294.234 124.127 293.531 123.791 292.88C123.731 292.765 123.667 292.653 123.603 292.541C123.446 292.267 123.292 291.991 123.18 291.695C122.921 291.005 122.942 290.328 123.237 289.787C123.821 288.718 125.172 288.666 125.616 288.649L126.024 288.636C126.727 288.615 127.389 288.595 127.993 288.426C128.682 288.234 129.215 287.831 129.42 287.346C129.601 286.913 129.452 286.316 129.122 286.164C128.696 285.967 128.512 285.462 128.709 285.036C128.907 284.609 129.412 284.427 129.837 284.623C131.125 285.219 131.471 286.854 130.985 288.007C130.575 288.979 129.651 289.728 128.45 290.063C127.647 290.287 126.848 290.311 126.075 290.334L125.68 290.347C124.931 290.376 124.765 290.535 124.729 290.602C124.687 290.678 124.682 290.864 124.769 291.096C124.849 291.306 124.964 291.5 125.077 291.697C125.153 291.83 125.23 291.963 125.299 292.1C125.804 293.075 125.992 294.155 125.826 295.139C125.632 296.287 124.958 297.283 124.022 297.805C123.402 298.15 122.74 298.265 122.113 298.265Z" fill="white"/>
</g>
<g opacity="0.4">
<path d="M129.649 328.485C129.615 328.485 129.58 328.483 129.546 328.479C129.08 328.423 128.749 328 128.804 327.534C129.005 325.862 128.859 324.135 128.382 322.54C128.066 321.483 127.669 320.843 127.131 320.527C126.653 320.245 125.985 320.212 125.386 320.44C124.794 320.665 124.253 321.131 123.86 321.75C123.792 321.858 123.729 321.969 123.666 322.08C123.522 322.33 123.36 322.613 123.143 322.878C122.682 323.448 122.087 323.772 121.471 323.79C121.452 323.79 121.433 323.79 121.415 323.79C120.228 323.79 119.521 322.68 119.287 322.311L119.065 321.958C118.693 321.366 118.342 320.807 117.893 320.372C117.381 319.874 116.761 319.619 116.243 319.687C115.776 319.748 115.337 320.178 115.371 320.54C115.416 321.007 115.074 321.422 114.608 321.467C114.15 321.511 113.725 321.171 113.681 320.704C113.542 319.29 114.78 318.165 116.021 318.002C117.07 317.863 118.179 318.284 119.075 319.151C119.672 319.729 120.096 320.403 120.504 321.056L120.719 321.397C121.122 322.029 121.331 322.101 121.422 322.091C121.507 322.088 121.669 321.998 121.826 321.806C121.97 321.629 122.078 321.431 122.191 321.235C122.266 321.103 122.342 320.97 122.424 320.842C123.011 319.913 123.849 319.206 124.781 318.852C125.868 318.438 127.068 318.518 127.994 319.062C129.214 319.781 129.728 321.113 130.01 322.053C130.553 323.87 130.719 325.835 130.491 327.737C130.44 328.168 130.073 328.485 129.649 328.485Z" fill="white"/>
</g>
<g opacity="0.4">
<path d="M184.367 364.982C183.457 364.982 182.526 364.424 182.085 363.52C181.652 362.629 181.693 361.515 182.196 360.462C182.532 359.763 183.002 359.193 183.455 358.641L183.685 358.36C184.119 357.824 184.085 357.644 184.074 357.614C184.056 357.565 183.952 357.462 183.747 357.385C183.556 357.313 183.355 357.276 183.154 357.236C183.016 357.208 182.878 357.18 182.741 357.146C181.746 356.902 180.872 356.37 180.282 355.648C179.594 354.805 179.307 353.714 179.516 352.73C179.793 351.431 180.817 350.583 181.564 350.058C182.999 349.049 184.672 348.327 186.404 347.971C186.872 347.876 187.313 348.173 187.407 348.633C187.502 349.092 187.205 349.541 186.746 349.636C185.241 349.945 183.786 350.571 182.542 351.447C181.727 352.021 181.294 352.54 181.178 353.083C181.077 353.561 181.237 354.132 181.598 354.573C181.956 355.011 182.506 355.34 183.147 355.497C183.261 355.525 183.376 355.548 183.49 355.571C183.78 355.628 184.069 355.691 184.345 355.795C184.998 356.039 185.468 356.478 185.669 357.03C186.067 358.116 185.27 359.105 185.007 359.43L184.768 359.722C184.361 360.217 183.976 360.684 183.729 361.197C183.456 361.77 183.412 362.361 183.614 362.776C183.786 363.128 184.251 363.375 184.522 363.254C184.948 363.065 185.454 363.255 185.644 363.685C185.835 364.114 185.641 364.615 185.213 364.806C184.943 364.925 184.656 364.982 184.367 364.982Z" fill="white"/>
</g>
<g opacity="0.4">
<path d="M208.298 354.186C206.641 354.186 204.96 353.857 203.415 353.228C202.98 353.051 202.771 352.556 202.948 352.121C203.124 351.685 203.624 351.478 204.054 351.654C205.48 352.234 207.044 352.517 208.557 352.484C209.552 352.46 210.201 352.269 210.598 351.881C210.949 351.541 211.133 350.977 211.078 350.411C211.023 349.847 210.749 349.268 210.303 348.781C210.224 348.695 210.141 348.612 210.06 348.53C209.851 348.32 209.645 348.108 209.472 347.868C209.066 347.301 208.919 346.675 209.059 346.104C209.331 344.979 210.544 344.602 210.943 344.478L211.306 344.368C211.919 344.182 212.497 344.007 212.987 343.718C213.534 343.394 213.897 342.927 213.96 342.47C214.014 342.081 213.762 341.618 213.471 341.568C213.008 341.488 212.698 341.049 212.777 340.586C212.858 340.124 213.292 339.813 213.758 339.894C214.962 340.1 215.825 341.386 215.643 342.701C215.51 343.681 214.857 344.585 213.854 345.18C213.186 345.575 212.48 345.788 211.797 345.994L211.448 346.101C210.79 346.305 210.717 346.474 210.71 346.505C210.698 346.556 210.726 346.7 210.854 346.877C210.973 347.043 211.12 347.186 211.264 347.33C211.364 347.43 211.463 347.53 211.558 347.634C212.25 348.392 212.68 349.32 212.77 350.247C212.875 351.332 212.507 352.398 211.784 353.1C210.834 354.025 209.511 354.161 208.598 354.182C208.498 354.185 208.398 354.186 208.298 354.186Z" fill="white"/>
</g>
<g opacity="0.4">
<path d="M166.368 352.027C165.827 352.027 165.288 351.993 164.753 351.926C164.288 351.867 163.958 351.442 164.016 350.977C164.075 350.511 164.491 350.184 164.966 350.24C166.49 350.432 168.069 350.307 169.53 349.878C170.486 349.598 171.063 349.246 171.346 348.769C171.597 348.349 171.629 347.757 171.43 347.224C171.23 346.693 170.815 346.204 170.26 345.85C170.162 345.786 170.06 345.728 169.958 345.669C169.704 345.52 169.45 345.37 169.222 345.182C168.684 344.741 168.38 344.174 168.366 343.587C168.338 342.429 169.414 341.751 169.767 341.528L170.085 341.33C170.631 340.992 171.146 340.673 171.544 340.266C171.989 339.812 172.22 339.267 172.163 338.808C172.114 338.42 171.752 338.038 171.458 338.064C170.994 338.104 170.577 337.763 170.534 337.295C170.492 336.828 170.836 336.415 171.303 336.372C172.516 336.261 173.682 337.279 173.848 338.597C173.971 339.58 173.574 340.622 172.759 341.455C172.215 342.01 171.587 342.399 170.979 342.775L170.672 342.966C170.077 343.341 170.064 343.527 170.065 343.547C170.066 343.598 170.13 343.73 170.3 343.869C170.458 343.998 170.636 344.098 170.812 344.2C170.935 344.271 171.056 344.343 171.176 344.419C172.037 344.97 172.693 345.755 173.021 346.629C173.402 347.65 173.322 348.776 172.805 349.64C172.127 350.779 170.884 351.252 170.008 351.509C168.838 351.852 167.602 352.027 166.368 352.027Z" fill="white"/>
</g>
<g opacity="0.4">
<path d="M146.258 365.521C145.905 365.521 145.546 365.451 145.207 365.302C144.301 364.904 143.611 364.028 143.313 362.899C143.117 362.152 143.106 361.415 143.094 360.703L143.088 360.334C143.072 359.63 142.919 359.523 142.901 359.513C142.858 359.489 142.711 359.476 142.504 359.55C142.311 359.619 142.135 359.721 141.956 359.82C141.833 359.888 141.71 359.956 141.583 360.02C140.665 360.477 139.655 360.636 138.738 360.468C137.668 360.272 136.744 359.626 136.266 358.739C135.636 357.57 135.869 356.261 136.098 355.378C136.538 353.679 137.348 352.046 138.437 350.654C138.727 350.285 139.259 350.219 139.631 350.509C140 350.798 140.064 351.333 139.776 351.702C138.828 352.911 138.124 354.33 137.742 355.804C137.493 356.767 137.498 357.444 137.761 357.933C137.994 358.363 138.485 358.694 139.045 358.796C139.604 358.898 140.236 358.793 140.824 358.499C140.928 358.447 141.03 358.391 141.133 358.334C141.392 358.191 141.652 358.05 141.931 357.95C142.586 357.715 143.227 357.746 143.738 358.035C144.748 358.607 144.777 359.877 144.787 360.295L144.794 360.676C144.804 361.315 144.812 361.919 144.957 362.467C145.119 363.082 145.468 363.56 145.891 363.746C146.248 363.904 146.764 363.79 146.892 363.523C147.095 363.101 147.598 362.922 148.026 363.126C148.449 363.329 148.627 363.837 148.423 364.259C148.042 365.052 147.171 365.521 146.258 365.521Z" fill="white"/>
</g>
<g opacity="0.4">
<path d="M220.722 230.156C220.533 230.156 220.342 230.135 220.153 230.092C219.187 229.874 218.342 229.147 217.835 228.095C217.498 227.396 217.346 226.672 217.199 225.972L217.125 225.621C216.976 224.947 216.815 224.861 216.784 224.851C216.733 224.834 216.587 224.852 216.4 224.962C216.226 225.066 216.071 225.201 215.916 225.332C215.807 225.422 215.699 225.513 215.587 225.599C214.773 226.223 213.812 226.572 212.879 226.582C212.866 226.582 212.852 226.583 212.838 226.583C211.765 226.583 210.753 226.126 210.123 225.357C209.283 224.33 209.259 223 209.315 222.089C209.423 220.339 209.907 218.582 210.711 217.006C210.924 216.589 211.433 216.422 211.854 216.636C212.272 216.85 212.438 217.361 212.224 217.779C211.525 219.149 211.106 220.675 211.012 222.194C210.95 223.188 211.086 223.851 211.437 224.281C211.746 224.658 212.252 224.888 212.861 224.883C213.428 224.877 214.028 224.652 214.553 224.251C214.644 224.18 214.734 224.105 214.824 224.03C215.049 223.84 215.279 223.653 215.532 223.502C216.13 223.146 216.765 223.053 217.324 223.239C218.422 223.607 218.694 224.849 218.784 225.257L218.861 225.622C218.994 226.251 219.118 226.845 219.366 227.358C219.641 227.93 220.076 228.333 220.526 228.435C220.908 228.522 221.392 228.31 221.467 228.025C221.586 227.571 222.058 227.301 222.503 227.418C222.958 227.537 223.229 228.001 223.111 228.455C222.847 229.462 221.822 230.156 220.722 230.156Z" fill="white"/>
</g>
<path d="M226.931 338.241L219.262 298.31L243.315 282.869C246.203 281.015 250.034 281.706 252.093 284.452C253.911 286.877 253.828 290.233 251.891 292.565L245.746 299.964" fill="white"/>
<path d="M226.929 339.091C226.53 339.091 226.173 338.807 226.096 338.401L218.427 298.47C218.362 298.13 218.51 297.783 218.802 297.596L242.855 282.155C246.1 280.071 250.457 280.855 252.772 283.943C254.835 286.694 254.741 290.463 252.544 293.109L246.399 300.507C246.098 300.868 245.563 300.917 245.202 300.618C244.842 300.318 244.791 299.782 245.092 299.421L251.237 292.023C252.929 289.985 253.001 287.081 251.413 284.962C249.629 282.584 246.274 281.979 243.773 283.584L220.204 298.715L227.764 338.081C227.852 338.542 227.55 338.987 227.09 339.075C227.036 339.085 226.982 339.091 226.929 339.091Z" fill="#030047"/>
<path d="M120.091 232.576L109.946 237.141C95.2951 243.425 91.0422 254.447 89.5799 270.321C88.5893 281.072 91.6359 291.807 98.1258 300.435L131.87 342.551C140.176 352.084 152.883 356.547 165.326 354.3L232.076 339.574L224.083 293.724L164.86 303.035L120.091 232.576Z" fill="#605EFD"/>
<g opacity="0.4">
<path d="M128.566 260.877C128.19 260.877 127.846 260.625 127.746 260.244C127.31 258.587 126.521 256.996 125.464 255.644C124.76 254.743 124.134 254.27 123.492 254.155C122.924 254.054 122.276 254.257 121.792 254.683C121.317 255.101 120.979 255.728 120.84 256.449C120.816 256.577 120.797 256.705 120.779 256.833C120.737 257.119 120.689 257.444 120.584 257.77C120.356 258.478 119.912 258.996 119.331 259.23C118.198 259.685 117.131 258.897 116.73 258.6L116.394 258.35C115.813 257.914 115.266 257.501 114.668 257.242C113.983 256.946 113.292 256.919 112.821 257.168C112.407 257.386 112.156 257.947 112.323 258.278C112.537 258.696 112.371 259.208 111.953 259.42C111.533 259.634 111.022 259.467 110.81 259.049C110.213 257.877 110.772 256.327 112.03 255.664C112.967 255.171 114.173 255.178 115.343 255.683C116.126 256.022 116.782 256.515 117.415 256.992L117.74 257.235C118.372 257.702 118.619 257.686 118.696 257.654C118.773 257.623 118.891 257.483 118.966 257.25C119.036 257.035 119.065 256.811 119.097 256.587C119.12 256.434 119.142 256.28 119.172 256.128C119.381 255.04 119.913 254.073 120.67 253.407C121.547 252.636 122.714 252.291 123.791 252.483C125.207 252.735 126.188 253.811 126.803 254.598C128 256.13 128.895 257.933 129.389 259.811C129.509 260.265 129.238 260.73 128.784 260.849C128.711 260.868 128.638 260.877 128.566 260.877Z" fill="white"/>
</g>
<g opacity="0.4">
<path d="M125.297 301.388C124.02 301.388 122.993 300.621 122.33 300.04C121.041 298.913 119.968 297.501 119.228 295.955C119.025 295.532 119.205 295.025 119.627 294.822C120.053 294.619 120.559 294.799 120.761 295.222C121.401 296.561 122.331 297.785 123.448 298.761C124.169 299.392 124.769 299.695 125.314 299.689C125.783 299.683 126.277 299.419 126.604 298.998C126.929 298.58 127.108 298.01 127.108 297.392C127.108 297.277 127.103 297.165 127.099 297.053C127.087 296.768 127.078 296.484 127.113 296.202C127.196 295.526 127.51 294.98 127.997 294.666C128.943 294.057 130.068 294.596 130.438 294.773L130.774 294.937C131.336 295.212 131.867 295.472 132.408 295.592C133.01 295.727 133.575 295.646 133.915 295.374C134.19 295.155 134.306 294.7 134.142 294.49C133.853 294.119 133.92 293.586 134.29 293.298C134.661 293.008 135.195 293.077 135.483 293.446C136.225 294.399 135.993 295.89 134.975 296.702C134.224 297.301 133.15 297.5 132.038 297.251C131.3 297.086 130.653 296.77 130.027 296.464L129.703 296.306C129.076 296.005 128.923 296.092 128.916 296.096C128.894 296.11 128.823 296.212 128.799 296.41C128.776 296.599 128.788 296.79 128.796 296.982C128.801 297.12 128.807 297.257 128.807 297.395C128.807 298.386 128.501 299.327 127.945 300.042C127.299 300.873 126.323 301.376 125.336 301.389C125.322 301.388 125.309 301.388 125.297 301.388Z" fill="white"/>
</g>
<g opacity="0.4">
<path d="M147.355 317.322C146.327 317.322 145.339 316.548 145.067 315.449C144.835 314.519 145.1 313.462 145.794 312.551C146.251 311.949 146.809 311.493 147.349 311.051L147.626 310.823C148.165 310.377 148.147 310.204 148.146 310.197C148.142 310.17 148.078 310.063 147.909 309.959C147.746 309.858 147.565 309.789 147.387 309.715C147.261 309.664 147.136 309.613 147.012 309.556C146.108 309.14 145.381 308.469 144.964 307.667C144.479 306.735 144.428 305.639 144.829 304.734C145.354 303.551 146.495 302.929 147.307 302.565C148.871 301.863 150.602 301.478 152.314 301.45C152.32 301.45 152.324 301.45 152.329 301.45C152.792 301.45 153.17 301.821 153.178 302.285C153.186 302.754 152.812 303.141 152.343 303.149C150.858 303.173 149.358 303.507 148.003 304.115C147.129 304.508 146.598 304.936 146.383 305.423C146.193 305.852 146.227 306.411 146.472 306.883C146.717 307.353 147.16 307.753 147.722 308.012C147.823 308.058 147.926 308.1 148.029 308.142C148.294 308.251 148.557 308.362 148.801 308.512C149.382 308.87 149.747 309.384 149.827 309.958C149.987 311.074 149.027 311.869 148.711 312.131L148.425 312.367C147.94 312.763 147.482 313.137 147.147 313.579C146.772 314.072 146.611 314.617 146.716 315.039C146.801 315.382 147.177 315.676 147.425 315.615C147.876 315.51 148.338 315.791 148.447 316.248C148.554 316.705 148.271 317.162 147.814 317.27C147.661 317.305 147.507 317.322 147.355 317.322Z" fill="white"/>
</g>
<g opacity="0.4">
<path d="M135.658 333.28C135.516 333.28 135.372 333.267 135.23 333.238C134.415 333.075 133.695 332.488 133.255 331.628C132.971 331.074 132.837 330.506 132.706 329.957L132.638 329.674C132.564 329.37 132.495 329.253 132.465 329.213C132.461 329.229 132.409 329.247 132.345 329.287C132.219 329.366 132.111 329.467 131.999 329.566C131.913 329.641 131.827 329.716 131.739 329.788C131.087 330.314 130.306 330.619 129.538 330.647C128.672 330.683 127.767 330.318 127.217 329.68C126.679 329.054 126.437 328.184 126.482 327.02C126.533 325.629 126.881 324.225 127.488 322.959C127.691 322.537 128.196 322.358 128.621 322.561C129.045 322.764 129.223 323.271 129.019 323.694C128.513 324.751 128.221 325.923 128.179 327.083C128.152 327.799 128.259 328.285 128.506 328.571C128.718 328.818 129.097 328.964 129.479 328.949C129.879 328.934 130.304 328.762 130.671 328.465C130.742 328.409 130.809 328.349 130.876 328.29C131.056 328.132 131.237 327.977 131.44 327.85C131.945 327.531 132.492 327.439 132.984 327.59C133.95 327.887 134.205 328.927 134.288 329.268L134.359 329.565C134.471 330.036 134.577 330.481 134.767 330.853C134.968 331.244 135.265 331.512 135.563 331.572C135.771 331.615 136.043 331.48 136.067 331.375C136.176 330.917 136.641 330.637 137.09 330.743C137.547 330.85 137.83 331.307 137.722 331.764C137.511 332.653 136.618 333.28 135.658 333.28Z" fill="white"/>
</g>
<g opacity="0.4">
<path d="M176.161 337.64C175.874 337.64 175.593 337.493 175.432 337.229C174.892 336.332 175.235 335.051 176.185 334.433C176.878 333.981 177.804 333.898 178.721 334.204C179.316 334.403 179.812 334.717 180.292 335.021L180.53 335.171C180.796 335.336 180.926 335.372 180.975 335.379C180.967 335.365 180.991 335.316 181.009 335.242C181.043 335.097 181.051 334.947 181.062 334.798C181.071 334.686 181.079 334.573 181.092 334.462C181.191 333.628 181.537 332.864 182.064 332.308C182.69 331.653 183.56 331.306 184.401 331.377C185.224 331.448 186.005 331.902 186.788 332.763C187.724 333.796 188.456 335.044 188.906 336.373C189.056 336.817 188.818 337.299 188.373 337.449C187.934 337.598 187.448 337.362 187.296 336.917C186.921 335.807 186.31 334.766 185.529 333.905C185.048 333.375 184.631 333.102 184.254 333.069C183.946 333.042 183.563 333.199 183.295 333.48C183.019 333.771 182.835 334.19 182.78 334.661L182.757 334.923C182.739 335.163 182.718 335.402 182.662 335.636C182.523 336.218 182.195 336.667 181.738 336.903C180.84 337.365 179.932 336.8 179.632 336.614L179.383 336.457C178.97 336.195 178.582 335.949 178.184 335.816C177.768 335.677 177.367 335.692 177.112 335.857C176.923 335.981 176.832 336.26 176.888 336.351C177.13 336.753 177.001 337.275 176.6 337.518C176.462 337.6 176.311 337.64 176.161 337.64Z" fill="white"/>
</g>
<g opacity="0.4">
<path d="M156.833 348.739C156.644 348.739 156.452 348.719 156.263 348.676C155.297 348.458 154.453 347.731 153.947 346.679C153.611 345.983 153.459 345.262 153.311 344.564L153.235 344.205C153.087 343.53 152.925 343.445 152.894 343.434C152.846 343.418 152.7 343.435 152.512 343.546C152.337 343.65 152.184 343.783 152.029 343.913C151.92 344.005 151.809 344.097 151.696 344.184C150.884 344.807 149.924 345.156 148.99 345.166C148.977 345.166 148.964 345.166 148.949 345.166C147.876 345.166 146.864 344.71 146.234 343.941C145.394 342.916 145.371 341.585 145.426 340.673C145.535 338.923 146.018 337.165 146.822 335.59C147.036 335.173 147.545 335.006 147.965 335.22C148.383 335.433 148.549 335.945 148.335 336.363C147.636 337.732 147.217 339.259 147.123 340.778C147.061 341.772 147.197 342.435 147.548 342.864C147.853 343.237 148.39 343.467 148.951 343.467C148.957 343.467 148.965 343.467 148.973 343.467C149.539 343.46 150.14 343.236 150.662 342.835C150.757 342.762 150.847 342.686 150.937 342.611C151.163 342.422 151.391 342.236 151.644 342.085C152.242 341.729 152.88 341.637 153.434 341.823C154.532 342.191 154.805 343.432 154.894 343.841L154.974 344.213C155.105 344.839 155.23 345.43 155.477 345.941C155.753 346.514 156.186 346.917 156.637 347.018C157.015 347.103 157.502 346.894 157.577 346.609C157.697 346.154 158.169 345.886 158.614 346.002C159.068 346.121 159.339 346.585 159.221 347.039C158.958 348.045 157.932 348.739 156.833 348.739Z" fill="white"/>
</g>
<g opacity="0.4">
<path d="M210.408 330.104C209.485 330.104 208.543 329.525 208.113 328.597C207.697 327.697 207.76 326.584 208.284 325.542C208.634 324.848 209.115 324.286 209.581 323.743L209.813 323.47C210.266 322.932 210.222 322.75 210.216 322.731C210.199 322.683 210.097 322.577 209.894 322.496C209.704 322.42 209.504 322.38 209.305 322.336C209.167 322.305 209.029 322.274 208.893 322.238C207.902 321.974 207.04 321.424 206.464 320.691C205.791 319.834 205.526 318.738 205.754 317.758C206.058 316.465 207.097 315.638 207.853 315.127C209.308 314.146 210.995 313.457 212.734 313.136C213.189 313.051 213.639 313.354 213.723 313.817C213.809 314.278 213.505 314.721 213.043 314.807C211.532 315.086 210.066 315.684 208.804 316.536C207.979 317.092 207.535 317.604 207.409 318.145C207.299 318.62 207.448 319.193 207.8 319.641C208.149 320.087 208.693 320.426 209.331 320.596C209.444 320.626 209.558 320.651 209.672 320.676C209.961 320.74 210.249 320.808 210.523 320.917C211.168 321.174 211.63 321.621 211.822 322.177C212.2 323.274 211.38 324.245 211.111 324.565L210.87 324.848C210.452 325.336 210.058 325.797 209.801 326.306C209.516 326.874 209.461 327.463 209.654 327.883C209.818 328.238 210.283 328.491 210.552 328.378C210.984 328.196 211.483 328.398 211.666 328.831C211.847 329.263 211.644 329.761 211.213 329.944C210.956 330.052 210.683 330.104 210.408 330.104Z" fill="white"/>
</g>
<g opacity="0.4">
<path d="M184.039 318.179C182.789 318.179 181.531 317.999 180.333 317.643C179.883 317.51 179.626 317.037 179.76 316.587C179.894 316.138 180.368 315.88 180.815 316.014C182.29 316.452 183.868 316.584 185.377 316.399C186.366 316.278 186.992 316.024 187.351 315.6C187.666 315.226 187.794 314.647 187.684 314.089C187.575 313.533 187.244 312.984 186.754 312.543C186.665 312.464 186.574 312.389 186.484 312.314C186.256 312.127 186.031 311.937 185.838 311.715C185.379 311.192 185.171 310.585 185.251 310.003C185.413 308.854 186.584 308.361 186.968 308.198L187.317 308.053C187.91 307.809 188.469 307.578 188.926 307.242C189.44 306.866 189.757 306.366 189.775 305.904C189.789 305.513 189.494 305.076 189.199 305.055C188.731 305.021 188.379 304.614 188.413 304.146C188.447 303.677 188.875 303.328 189.322 303.36C190.538 303.449 191.523 304.643 191.472 305.969C191.434 306.959 190.873 307.923 189.932 308.612C189.308 309.071 188.626 309.352 187.965 309.624L187.629 309.763C186.981 310.037 186.938 310.219 186.936 310.239C186.928 310.288 186.971 310.43 187.115 310.595C187.25 310.747 187.408 310.874 187.565 311.003C187.676 311.094 187.785 311.185 187.89 311.28C188.653 311.965 189.172 312.846 189.352 313.761C189.562 314.829 189.3 315.926 188.65 316.696C187.795 317.71 186.491 317.975 185.585 318.085C185.075 318.149 184.558 318.179 184.039 318.179Z" fill="white"/>
</g>
<g opacity="0.4">
<path d="M115.924 286.886C115.735 286.886 115.545 286.866 115.356 286.823C114.39 286.605 113.545 285.877 113.038 284.826C112.703 284.13 112.55 283.408 112.403 282.711L112.327 282.352C112.177 281.663 112.006 281.587 111.987 281.581C111.939 281.565 111.792 281.581 111.604 281.693C111.429 281.797 111.275 281.93 111.12 282.061C111.011 282.152 110.901 282.243 110.788 282.33C109.976 282.953 109.015 283.303 108.082 283.313C108.069 283.313 108.056 283.313 108.041 283.313C106.969 283.313 105.956 282.857 105.326 282.088C104.486 281.063 104.463 279.732 104.518 278.821C104.626 277.07 105.11 275.312 105.914 273.737C106.126 273.32 106.635 273.153 107.057 273.367C107.475 273.581 107.641 274.093 107.427 274.51C106.728 275.879 106.309 277.406 106.215 278.925C106.153 279.919 106.289 280.582 106.64 281.011C106.95 281.389 107.456 281.614 108.064 281.614C108.631 281.608 109.232 281.383 109.754 280.982C109.848 280.91 109.937 280.835 110.028 280.759C110.254 280.57 110.482 280.383 110.736 280.232C111.334 279.877 111.972 279.784 112.527 279.97C113.628 280.339 113.898 281.581 113.986 281.989L114.066 282.361C114.199 282.987 114.322 283.578 114.569 284.089C114.845 284.662 115.279 285.064 115.73 285.166C116.113 285.252 116.596 285.041 116.67 284.755C116.791 284.3 117.261 284.03 117.708 284.15C118.162 284.269 118.433 284.734 118.314 285.187C118.049 286.193 117.023 286.886 115.924 286.886Z" fill="white"/>
</g>
<path d="M164.859 303.885C164.581 303.885 164.309 303.749 164.146 303.499L140.957 267.925C140.7 267.532 140.811 267.006 141.204 266.749C141.596 266.493 142.124 266.604 142.379 266.997L165.569 302.571C165.825 302.964 165.715 303.491 165.321 303.747C165.179 303.84 165.017 303.885 164.859 303.885Z" fill="#030047"/>
<path d="M159.024 355.711C148.484 355.711 138.25 351.167 131.23 343.11L97.4624 300.967C97.1682 300.601 97.2279 300.066 97.5939 299.773C97.959 299.48 98.4968 299.538 98.7876 299.905L132.533 342.02C140.575 351.251 153.084 355.645 165.175 353.465L231.098 338.92L223.39 294.702L156.833 305.879C156.362 305.956 155.933 305.644 155.855 305.181C155.777 304.719 156.09 304.281 156.552 304.203L223.942 292.886C224.405 292.809 224.839 293.118 224.92 293.578L232.912 339.428C232.99 339.876 232.702 340.306 232.257 340.404L165.508 355.131C163.351 355.52 161.179 355.711 159.024 355.711Z" fill="#030047"/>
<path d="M464.825 154.006C464.145 154.267 463.442 154.493 462.74 154.675C458.911 155.637 454.845 155.252 451.288 153.587C449.147 152.59 446.746 152.114 444.333 152.228L441.558 152.341L450.846 189.133C452.693 196.463 448.264 203.905 440.934 205.751L408.707 213.884C407.337 214.236 406.011 213.238 405.943 211.834V211.788C405.841 209.376 406.306 206.963 407.302 204.822C409.307 200.54 409.455 195.737 407.722 191.285C404.89 184.013 397.221 179.504 389.484 180.569C388.838 180.66 388.193 180.785 387.569 180.943C378.405 183.254 372.832 192.599 375.143 201.775C376.095 205.525 378.213 208.764 381.26 211.132C383.299 212.706 384.953 214.688 386.029 216.852C386.188 217.169 386.255 217.509 386.255 217.826C386.255 218.811 385.609 219.729 384.579 219.979L352.374 228.112C345.056 229.959 337.614 225.518 335.767 218.189L313.406 129.64C311.56 122.311 316 114.869 323.33 113.023L358.196 104.221L356.973 101.774C355.897 99.5992 354.254 97.6169 352.204 96.0423C349.157 93.675 347.039 90.4353 346.087 86.6859C343.776 77.5104 349.349 68.1649 358.514 65.8541C359.148 65.6952 359.782 65.5711 360.428 65.4803C368.165 64.4155 375.845 68.924 378.677 76.1962C380.399 80.6481 380.252 85.4624 378.258 89.7442C377.261 91.8743 376.785 94.287 376.899 96.6994L377.012 99.4748L411.879 90.6732C419.208 88.8153 426.65 93.2557 428.497 100.585L436.811 133.526L439.258 132.303C441.433 131.226 443.404 129.584 444.99 127.545C447.357 124.487 450.586 122.368 454.346 121.428C459.07 120.227 464.099 121.11 468.144 123.841C472.176 126.559 474.872 130.909 475.541 135.769C476.605 143.506 472.108 151.174 464.825 154.006Z" fill="#605EFD"/>
<path d="M360.704 259.283L362.726 350.596C362.893 358.152 356.903 364.412 349.348 364.58L313.403 365.376L314.039 368.035C314.597 370.372 315.754 372.65 317.364 374.631C318.689 376.261 319.789 378.077 320.42 380.081C324.058 391.634 315.618 402.445 304.518 402.691C303.873 402.705 303.215 402.686 302.568 402.633C294.792 401.944 288.311 395.833 287.177 388.108C286.483 383.387 287.706 378.737 290.615 375.002C292.058 373.146 293.051 370.903 293.496 368.525L293.992 365.806L258.046 366.602C250.491 366.769 244.23 360.78 244.063 353.224L242.041 261.9C241.874 254.35 247.858 248.095 255.407 247.928L288.648 247.192C290.051 247.161 291.129 248.424 290.879 249.805L290.869 249.862C290.435 252.24 289.431 254.483 287.976 256.339C285.079 260.074 283.856 264.724 284.55 269.445C285.695 277.17 292.164 283.281 299.941 283.97C300.588 284.024 301.246 284.043 301.891 284.028C311.336 283.819 318.855 275.96 318.646 266.503C318.56 262.63 317.222 259 314.777 256.017C313.146 254.014 311.974 251.717 311.412 249.373C311.084 247.999 312.108 246.672 313.521 246.641L346.72 245.906C354.276 245.738 360.537 251.727 360.704 259.283Z" fill="#FFCC3D"/>
<path d="M235.527 298.118L269.16 300.315C271.255 300.122 273.136 301.618 273.419 303.702C273.521 304.529 273.362 305.322 273 306.024C272.478 307.067 271.516 308.041 270.292 308.301L255.974 309.116L275.662 308.176C277.78 307.983 279.672 309.467 279.932 311.563C280.046 312.379 279.899 313.183 279.524 313.886C278.992 314.928 278.04 315.913 276.829 316.162L256.45 317.396L270.1 316.615C272.184 316.422 274.064 318.031 274.348 320.116C274.472 320.942 274.314 321.758 273.951 322.46C273.951 322.46 273.951 322.471 273.94 322.494C273.226 323.853 271.788 324.681 270.27 324.782L256.926 325.621L264.085 325.202C266.203 324.998 268.095 326.618 268.355 328.702C268.48 329.529 268.322 330.333 267.959 331.035C267.449 332.089 266.475 333.04 265.252 333.301L232.75 336.97" fill="white"/>
<path d="M232.749 337.82C232.322 337.82 231.955 337.499 231.906 337.065C231.853 336.599 232.188 336.178 232.655 336.126L265.156 332.457C266.099 332.252 266.841 331.395 267.194 330.666C267.5 330.072 267.607 329.443 267.515 328.829C267.302 327.128 265.81 325.889 264.165 326.048L256.975 326.469C256.494 326.494 256.105 326.14 256.076 325.673C256.049 325.205 256.404 324.802 256.872 324.773L270.216 323.935C271.48 323.85 272.605 323.166 273.162 322.145C273.172 322.12 273.183 322.095 273.195 322.072C273.493 321.494 273.6 320.862 273.507 320.243C273.279 318.554 271.767 317.315 270.178 317.461L256.498 318.245C256.033 318.271 255.629 317.915 255.601 317.447C255.573 316.979 255.931 316.577 256.399 316.549L276.711 315.318C277.513 315.131 278.278 314.455 278.768 313.499C279.068 312.934 279.178 312.31 279.09 311.681C278.885 310.032 277.397 308.874 275.739 309.023L256.015 309.965C255.54 309.986 255.15 309.629 255.125 309.161C255.101 308.694 255.458 308.295 255.925 308.268L270.173 307.457C271.144 307.224 271.875 306.373 272.239 305.645C272.542 305.058 272.654 304.443 272.575 303.806C272.353 302.176 270.897 301.012 269.237 301.161C269.191 301.166 269.148 301.166 269.104 301.163L235.471 298.966C235.003 298.935 234.649 298.531 234.679 298.063C234.709 297.595 235.121 297.235 235.582 297.271L269.151 299.464C271.681 299.264 273.917 301.066 274.26 303.588C274.38 304.567 274.204 305.541 273.753 306.415C273.566 306.789 273.342 307.136 273.088 307.45L275.62 307.329C278.196 307.091 280.458 308.908 280.774 311.459C280.91 312.432 280.738 313.414 280.274 314.285C279.547 315.705 278.322 316.723 277 316.995C276.96 317.003 276.92 317.008 276.879 317.011L273.808 317.197C274.533 317.935 275.041 318.908 275.189 320.002C275.332 320.947 275.175 321.918 274.731 322.802C274.718 322.836 274.703 322.867 274.688 322.897C273.869 324.455 272.197 325.506 270.326 325.631L267.84 325.787C268.562 326.526 269.06 327.5 269.198 328.598C269.342 329.545 269.174 330.531 268.714 331.425C268.039 332.82 266.807 333.839 265.428 334.133L232.845 337.814C232.813 337.818 232.781 337.82 232.749 337.82Z" fill="#030047"/>
<path d="M302.965 199.509L307.883 172.036C308.62 167.918 311.331 164.424 315.136 162.687L325.622 157.902C330.714 155.578 336.642 158.612 337.734 164.103C338.411 167.502 336.998 170.978 334.143 172.944L323.087 180.551L320.907 197.47" fill="white"/>
<path d="M302.966 200.358C302.917 200.358 302.866 200.354 302.816 200.345C302.353 200.262 302.046 199.821 302.129 199.359L307.046 171.886C307.833 167.494 310.725 163.767 314.784 161.914L325.269 157.129C327.937 155.912 330.958 155.981 333.565 157.315C336.173 158.65 337.996 161.063 338.568 163.936C339.311 167.674 337.763 171.484 334.624 173.643L323.882 181.035L321.75 197.579C321.689 198.044 321.254 198.372 320.799 198.312C320.333 198.252 320.004 197.827 320.064 197.361L322.245 180.442C322.275 180.203 322.407 179.987 322.606 179.851L333.662 172.243C336.241 170.469 337.513 167.338 336.902 164.268C336.432 161.907 334.934 159.924 332.791 158.828C330.648 157.731 328.163 157.675 325.975 158.675L315.49 163.46C311.939 165.081 309.408 168.342 308.719 172.186L303.802 199.658C303.727 200.069 303.37 200.358 302.966 200.358Z" fill="#030047"/>
<path d="M46.8686 253.397L46.9339 247.559L35.7264 247.435L35.6614 253.273C32.3238 253.936 29.2054 255.213 26.4235 256.985L22.3404 252.805L14.3302 260.638L18.4134 264.819C16.5853 267.561 15.2331 270.65 14.496 273.972L8.65791 273.907L8.5332 285.109L14.3713 285.174C15.0343 288.517 16.3172 291.636 18.0837 294.412L13.9085 298.501L21.7423 306.512L25.9175 302.423C28.6596 304.256 31.7484 305.603 35.0705 306.34L35.0055 312.184L46.213 312.308L46.278 306.465C49.6157 305.801 52.7338 304.524 55.516 302.752L59.5991 306.933L67.6092 299.099L63.5261 294.918C65.3541 292.182 66.7061 289.093 67.4434 285.765L73.2815 285.83L73.4062 274.628L67.5682 274.563C66.9051 271.225 65.6222 268.107 63.8557 265.325L68.0309 261.236L60.1971 253.226L56.022 257.315M41.9206 293.398C33.5603 293.967 26.7168 286.973 27.466 278.622C28.055 272.053 33.4415 266.785 40.0216 266.343C48.3869 265.781 55.2261 272.778 54.4723 281.123C53.8792 287.688 48.497 292.951 41.9206 293.398Z" fill="#030047"/>
<path d="M243.699 160.64C242.583 167.506 236.112 172.167 229.246 171.051C222.38 169.935 217.719 163.464 218.835 156.598C219.951 149.732 226.422 145.07 233.288 146.187C240.154 147.303 244.815 153.773 243.699 160.64Z" fill="#030047"/>
<path d="M268.874 122.971C260.445 126.996 254.524 134.919 253.027 144.131L252.838 145.291L215.012 139.142L215.201 137.983C216.723 128.616 213.344 119.245 206.556 112.588C194.185 100.454 187.695 82.692 190.688 64.2815C195.781 32.9482 226.305 12.0795 257.755 19.3808C284.984 25.7109 303.336 52.0016 299.954 79.7419C297.574 99.3626 285.281 115.151 268.874 122.971Z" fill="#FFCC3D"/>
<path d="M242.484 140.394C242.432 140.394 242.38 140.389 242.327 140.379C241.865 140.293 241.561 139.849 241.647 139.388L250.088 94.1616C244.571 94.0341 239.105 93.1456 233.832 91.5191L227.513 137.091C227.448 137.555 227.014 137.88 226.555 137.815C226.09 137.751 225.765 137.322 225.83 136.857L232.19 90.9866C229.926 90.2166 227.702 89.3091 225.527 88.2654L217.633 84.4786C215.696 83.5494 214.246 81.9188 213.548 79.887C212.85 77.8556 212.993 75.678 213.949 73.755C215.019 71.6067 216.974 70.07 219.314 69.5388C221.65 69.0076 224.081 69.5488 225.973 71.0257C231.695 75.4901 234.74 82.6201 234.049 89.8076C239.354 91.4733 244.864 92.3687 250.423 92.4695C252.043 85.4331 257.189 79.6339 264.031 77.2118C266.293 76.4107 268.767 76.6654 270.818 77.9106C272.87 79.1556 274.237 81.2327 274.571 83.6091C274.87 85.736 274.316 87.8471 273.01 89.5529C271.705 91.2591 269.812 92.346 267.681 92.6141L258.989 93.7069C256.597 94.0077 254.202 94.1638 251.813 94.1775L243.317 139.7C243.241 140.108 242.884 140.394 242.484 140.394ZM266.693 78.4518C265.988 78.4518 265.282 78.5709 264.598 78.8128C258.426 80.9982 253.754 86.1705 252.169 92.4745C254.37 92.4483 256.574 92.2978 258.777 92.0204L267.468 90.9275C269.145 90.717 270.634 89.8617 271.661 88.5198C272.688 87.1778 273.123 85.5177 272.888 83.8445C272.626 81.9757 271.55 80.342 269.937 79.3624C268.943 78.759 267.823 78.4518 266.693 78.4518ZM221.086 71.0385C220.621 71.0385 220.154 71.0901 219.691 71.1952C217.85 71.6132 216.313 72.8217 215.472 74.5117C214.719 76.0241 214.607 77.7371 215.155 79.335C215.704 80.9329 216.845 82.2155 218.368 82.9463L226.261 86.7334C228.264 87.6947 230.311 88.5369 232.392 89.2593C232.885 82.7778 230.091 76.3926 224.929 72.3649C223.815 71.496 222.466 71.0385 221.086 71.0385Z" fill="white"/>
<path d="M252.322 160.781L210.611 154.001C208.72 153.694 207.435 151.911 207.743 150.019L209.937 136.523C210.244 134.631 212.027 133.346 213.919 133.654L255.63 140.434C257.522 140.741 258.806 142.524 258.499 144.416L256.305 157.912C255.998 159.804 254.214 161.089 252.322 160.781Z" fill="#030047"/>
<path d="M258.537 0.726868L254.064 0L252.568 9.20871L257.041 9.93558L258.537 0.726868Z" fill="#FFCC3D"/>
<path d="M220.548 3.39798L216.311 5.00488L219.619 13.7281L223.856 12.1212L220.548 3.39798Z" fill="#FFCC3D"/>
<path d="M292.809 17.4566L289.299 14.5903L283.398 21.8174L286.908 24.6836L292.809 17.4566Z" fill="#FFCC3D"/>
<path d="M80.5986 352.542L75.2625 355.9C72.758 357.461 69.467 356.713 67.9014 354.226L64.5426 348.89C62.9774 346.402 63.7256 343.112 66.213 341.546L71.5529 338.17C74.04 336.604 77.3309 337.353 78.9139 339.844L82.2687 345.198C83.8343 347.685 83.086 350.975 80.5986 352.542Z" fill="#FFCC3D"/>
<path d="M392.465 263.451L388.831 265.738C387.126 266.801 384.885 266.291 383.819 264.598L381.532 260.965C380.466 259.271 380.975 257.03 382.669 255.964L386.305 253.665C387.999 252.599 390.24 253.109 391.318 254.805L393.602 258.45C394.668 260.144 394.158 262.384 392.465 263.451Z" fill="#FFCC3D"/>
<path d="M10.5754 186.795L7.23127 188.9C5.66134 189.879 3.5991 189.41 2.6179 187.851L0.512746 184.507C-0.468458 182.947 0.000830163 180.885 1.55956 179.904L4.90625 177.788C6.46529 176.807 8.52753 177.276 9.51962 178.837L11.6223 182.192C12.6035 183.752 12.1345 185.814 10.5754 186.795Z" fill="#FFCC3D"/>
<path d="M163.188 92.0136L161.015 93.3808C159.996 94.0165 158.656 93.7117 158.019 92.6994L156.651 90.5274C156.014 89.5144 156.319 88.1749 157.332 87.5374L159.505 86.1631C160.518 85.5258 161.858 85.8303 162.502 86.8445L163.867 89.024C164.505 90.0363 164.2 91.3761 163.188 92.0136Z" fill="#FFCC3D"/>
</svg>
