<svg width="443" height="449" viewBox="0 0 443 449" fill="none" xmlns="http://www.w3.org/2000/svg">
<g style="mix-blend-mode:multiply">
<path d="M221.5 448.27C343.831 448.27 443 438.631 443 426.739C443 414.848 343.831 405.208 221.5 405.208C99.1689 405.208 0 414.848 0 426.739C0 438.631 99.1689 448.27 221.5 448.27Z" fill="#E6E6E6"/>
</g>
<path d="M77.7427 234.797C77.4873 235.239 77.2883 235.631 77.1695 235.964C76.819 236.959 76.7477 237.755 76.8725 238.489C77.2348 240.452 79.0675 241.97 81.0575 245.611C83.808 250.619 74.523 251.083 76.2992 258.484C77.4368 263.263 82.0436 264.107 84.4674 266.058C85.8099 267.14 86.4931 268.542 85.5871 271.126C84.4228 274.426 81.4704 281.914 82.0912 289.746C82.2219 291.406 82.5129 293.082 83.0179 294.739C84.5387 299.729 87.9723 304.52 94.7177 308.135C96.1345 308.898 97.7176 309.605 99.4522 310.256C102.221 311.292 105.417 312.168 109.076 312.852C110.579 313.128 112.019 313.46 113.412 313.861C115.108 314.337 116.715 314.898 118.254 315.531C123.265 317.598 127.503 320.509 131.065 324.109C132.55 325.6 133.913 327.213 135.169 328.929C137.073 331.537 138.731 334.389 140.186 337.457C140.186 337.457 140.192 337.469 140.201 337.496C140.243 337.638 140.385 338.128 140.608 338.969C141.419 341.993 143.293 349.516 145.366 361.513C145.77 363.845 146.183 366.345 146.593 369.019L147.888 383.6C147.974 383.585 148.063 383.57 148.149 383.561C148.651 391.025 148.928 399.389 148.824 408.651C148.779 413.002 148.651 417.549 148.429 422.293H313.669L310.648 408.651L300.217 361.51L291.473 321.985C291.6 321.899 291.74 321.819 291.877 321.727C293.486 320.702 295.58 319.318 298.064 317.595C300.499 315.887 303.297 313.85 306.359 311.473C309.404 309.112 312.707 306.421 316.167 303.406C318.327 301.529 320.545 299.524 322.794 297.391C329.319 291.222 336.136 283.993 342.638 275.762C344.854 272.955 347.034 270.027 349.155 266.982C349.529 266.439 349.906 265.895 350.28 265.34C352.547 262.013 354.733 258.553 356.809 254.959C360.364 248.807 363.231 242.466 365.452 236.015C369.786 226.798 373.142 217.035 375.394 206.853C376.567 202.495 377.381 197.752 377.782 192.59C380.007 164.043 375.076 140.441 366.801 121.236C345.287 71.3299 301.162 51.1472 301.162 51.1472C282.354 41.7553 261.137 36.4683 238.682 36.4683C162.775 36.4683 100.982 96.865 98.7334 172.226C96.0959 175.903 93.1375 178.962 90.1197 181.573C87.996 183.406 85.8485 185.016 83.7604 186.459C76.9467 191.161 70.7597 194.099 68.2766 197.197C62.0688 204.949 67.8934 212.939 76.6437 217.044C77.4517 217.418 78.2863 217.768 79.1387 218.077C80.0417 218.401 80.7724 218.784 81.3575 219.212C86.7604 223.127 80.009 230.867 77.7398 234.794L77.7427 234.797Z" fill="#2057A9"/>
<g style="mix-blend-mode:multiply">
<path d="M109.082 312.851C110.585 313.128 112.026 313.46 113.419 313.861C115.115 314.336 116.721 314.898 118.26 315.531C123.271 317.598 127.509 320.509 131.071 324.109C132.556 325.6 133.919 327.212 135.176 328.929C137.08 331.537 138.737 334.389 140.192 337.457C140.192 337.457 140.198 337.469 140.207 337.495C140.249 337.638 140.391 338.128 140.614 338.969C141.425 341.992 143.299 349.516 145.372 361.513C145.776 363.844 146.189 366.345 146.599 369.019L147.894 383.599C147.98 383.585 148.069 383.57 148.156 383.561C148.658 391.025 148.934 399.389 148.83 408.65C148.785 413.002 148.658 417.549 148.435 422.293H217.021C217.021 422.293 217.57 404.37 209.046 352.697C200.521 301.024 109.088 312.851 109.088 312.851H109.082Z" fill="#E6E6E6"/>
</g>
<path d="M236.107 159.495C289.205 159.495 332.251 136.152 332.251 107.356C332.251 78.56 289.205 55.2163 236.107 55.2163C183.008 55.2163 139.963 78.56 139.963 107.356C139.963 136.152 183.008 159.495 236.107 159.495Z" fill="#12315F"/>
<path d="M355.565 183.831C359.684 188.209 364.728 192.043 365.571 198.447C365.854 200.598 365.961 202.199 365.975 203.381C365.996 205.106 367.407 206.485 369.133 206.473L365.845 206.494C365.815 207.111 365.8 207.732 365.803 208.368C365.803 208.795 365.818 209.22 365.836 209.639H365.812L365.824 211.305H365.955C366.059 212.389 366.216 213.441 366.421 214.445C366.537 215.015 366.667 215.568 366.813 216.108C367.113 217.228 367.478 218.279 367.894 219.245C368.147 219.83 368.417 220.385 368.708 220.905C370.395 223.944 372.679 225.806 375.189 225.788C377.696 225.77 379.953 223.878 381.599 220.816C381.881 220.293 382.145 219.732 382.389 219.144C382.793 218.17 383.14 217.118 383.429 215.992C383.565 215.452 383.69 214.896 383.797 214.323C383.987 213.316 384.129 212.265 384.222 211.175H384.352L384.34 209.508H384.317C384.331 209.09 384.334 208.662 384.331 208.237C384.328 207.604 384.305 206.981 384.266 206.366L380.996 206.387C382.719 206.375 384.112 204.976 384.109 203.25C384.109 202.068 384.192 200.467 384.447 198.313C385.312 190.995 392.253 187.136 396.218 181.591C399.771 176.625 402.052 170.738 402.919 164.702C404.675 152.53 400.133 139.776 388.57 134.222C379.734 129.974 369.355 130.046 360.578 134.412C341.985 143.658 342.62 170.073 355.565 183.825V183.831Z" fill="#FFDF00"/>
<path opacity="0.51" d="M366.633 154.14C371.692 150.98 377.677 150.938 382.777 154.03C389.451 158.076 392.082 167.337 391.081 176.17C390.585 180.549 389.275 184.823 387.235 188.423C384.954 192.444 380.953 195.239 380.463 200.55C380.014 205.389 380.501 206.393 380.501 206.393L375.06 206.428L369.618 206.464C369.618 206.464 370.091 205.454 369.58 200.621C369.087 195.973 366.173 193.181 363.794 190C356.315 180.002 355.923 160.829 366.633 154.134V154.14Z" fill="white"/>
<path d="M365.617 203.387C365.602 202.038 365.469 200.393 365.216 198.497C364.536 193.356 360.995 189.816 357.568 186.391C356.816 185.639 356.038 184.861 355.301 184.08C347.935 176.253 344.421 164.242 346.346 153.478C347.914 144.712 352.91 137.83 360.416 134.1C364.774 131.932 369.66 130.77 374.549 130.738C379.438 130.705 384.339 131.801 388.726 133.91C394.265 136.571 398.533 141.044 401.067 146.848C403.422 152.239 404.186 158.435 403.274 164.765C402.377 170.981 400.039 176.874 396.508 181.811C395.189 183.655 393.529 185.333 391.922 186.955C388.55 190.359 385.366 193.576 384.802 198.367C384.579 200.256 384.466 201.901 384.466 203.262C384.469 205.175 382.916 206.743 380.997 206.758L369.134 206.838C367.215 206.85 365.638 205.305 365.617 203.389V203.387ZM360.74 134.738C353.445 138.368 348.586 145.066 347.056 153.602C345.167 164.15 348.609 175.918 355.827 183.587C356.558 184.362 357.33 185.134 358.079 185.883C361.589 189.391 365.219 193.017 365.929 198.402C366.184 200.327 366.321 202.002 366.336 203.378C366.354 204.898 367.607 206.128 369.134 206.116L380.997 206.036C382.521 206.027 383.756 204.78 383.753 203.259C383.753 201.869 383.869 200.193 384.095 198.278C384.689 193.24 388.111 189.786 391.42 186.444C393.006 184.843 394.645 183.186 395.931 181.386C399.395 176.544 401.691 170.758 402.57 164.655C404.48 151.413 398.925 139.595 388.42 134.548C384.071 132.46 379.313 131.433 374.561 131.465C369.808 131.498 365.062 132.588 360.743 134.738H360.74Z" fill="white"/>
<path d="M365.804 208.371C365.804 208.798 365.819 209.223 365.837 209.642C365.864 210.203 365.902 210.762 365.953 211.308C366.057 212.395 366.214 213.447 366.419 214.451C366.535 215.021 366.665 215.573 366.811 216.114C367.111 217.234 367.476 218.285 367.892 219.251C368.145 219.836 368.415 220.391 368.706 220.911C370.393 223.949 372.677 225.812 375.187 225.794C377.694 225.776 379.951 223.884 381.597 220.822C381.879 220.299 382.143 219.738 382.387 219.15C382.791 218.175 383.138 217.124 383.427 215.998C383.563 215.458 383.688 214.902 383.795 214.329C383.985 213.322 384.128 212.27 384.22 211.18C384.264 210.634 384.297 210.075 384.315 209.514C384.33 209.095 384.333 208.668 384.33 208.243C384.327 207.61 384.303 206.986 384.264 206.372L365.843 206.496C365.813 207.114 365.798 207.735 365.801 208.371H365.804Z" fill="#113C9D"/>
<path d="M384.344 209.51L365.816 209.636L365.828 211.302L384.356 211.176L384.344 209.51Z" fill="white"/>
<path d="M366.422 214.447C366.538 215.018 366.668 215.57 366.814 216.111L383.427 215.998C383.563 215.457 383.688 214.902 383.795 214.329L366.422 214.447Z" fill="white"/>
<path d="M367.895 219.248C368.147 219.833 368.417 220.388 368.708 220.908L381.599 220.822C381.881 220.299 382.146 219.738 382.389 219.15L367.895 219.248Z" fill="white"/>
<path d="M372.787 206.321C373.313 203.262 373.571 200.155 373.53 197.051C373.491 193.95 373.152 190.855 372.508 187.823C372.345 187.062 372.163 186.305 371.964 185.553C371.863 185.176 371.759 184.799 371.65 184.425C371.56 184.125 371.471 183.872 371.254 183.643C370.851 183.222 370.286 183.213 369.847 183.587C369.654 183.753 369.493 183.967 369.452 184.223C369.401 184.517 369.514 184.781 369.662 185.028C370.741 186.813 373.253 186.287 374.982 186.192C375.217 186.18 375.463 186.198 375.692 186.141C375.959 186.073 376.215 185.966 376.452 185.827C376.943 185.538 377.361 185.126 377.623 184.621C377.872 184.139 377.935 183.584 377.739 183.073C377.638 182.806 377.465 182.524 377.219 182.372C377.002 182.239 376.744 182.227 376.497 182.262C375.933 182.345 375.327 182.536 375.068 183.088C374.851 183.551 374.97 184.083 375.175 184.532C375.555 185.36 376.34 185.889 377.174 186.195C378.053 186.516 378.995 186.646 379.928 186.676C380.15 186.685 380.367 186.697 380.581 186.646C380.845 186.587 381.113 186.539 381.38 186.483C381.879 186.382 382.417 186.263 382.827 185.942C383.254 185.607 383.432 185.016 383.48 184.49C383.504 184.237 383.471 183.985 383.314 183.777C383.15 183.563 382.871 183.373 382.604 183.326C382.087 183.234 381.635 183.673 381.368 184.062C381.003 184.597 380.863 185.23 380.688 185.844C379.836 188.829 379.203 191.877 378.766 194.951C378.333 198.005 378.095 201.085 377.991 204.168C377.967 204.919 377.949 205.671 377.938 206.419C377.935 206.695 377.504 206.698 377.507 206.419C377.551 203.06 377.741 199.704 378.148 196.368C378.555 193.038 379.176 189.735 380.058 186.498C380.171 186.085 380.287 185.675 380.409 185.265C380.504 184.941 380.59 184.618 380.733 184.309C380.985 183.765 381.398 183.225 381.965 182.987C382.544 182.746 383.186 182.975 383.587 183.436C384.006 183.917 383.946 184.546 383.783 185.123C383.697 185.426 383.608 185.702 383.412 185.951C383.233 186.177 383.002 186.361 382.749 186.495C382.227 186.768 381.638 186.866 381.068 186.979C380.801 187.032 380.545 187.11 380.272 187.11C380.026 187.11 379.776 187.098 379.53 187.083C379.013 187.047 378.493 186.982 377.988 186.872C377.017 186.661 376.016 186.266 375.33 185.521C374.605 184.734 374.165 183.418 374.932 182.512C375.154 182.25 375.431 182.114 375.751 182.01C376.043 181.915 376.345 181.832 376.654 181.817C377.323 181.784 377.813 182.197 378.083 182.785C378.63 183.973 377.979 185.241 377.005 185.975C376.533 186.332 375.959 186.59 375.362 186.605C374.828 186.62 374.293 186.67 373.758 186.706C372.704 186.777 371.572 186.825 370.583 186.388C369.642 185.972 368.572 184.754 369.199 183.691C369.505 183.168 370.105 182.803 370.717 182.886C371.287 182.963 371.813 183.459 371.979 184.006C372.953 187.243 373.571 190.588 373.83 193.959C374.088 197.304 373.99 200.675 373.571 204.004C373.47 204.815 373.349 205.623 373.212 206.431C373.164 206.704 372.751 206.591 372.796 206.318L372.787 206.321Z" fill="white"/>
<g opacity="0.43">
<path d="M351.564 159.308C352.251 142 364.048 137.973 364.048 137.973C357.324 143.539 354.532 152.096 353.424 159.296L351.564 159.308Z" fill="white"/>
<path d="M351.54 161.476C352.066 161.515 352.592 161.565 353.117 161.616C352.428 167.788 352.903 172.466 352.903 172.466C351.995 168.349 351.582 164.702 351.537 161.476H351.54Z" fill="white"/>
</g>
<g opacity="0.43">
<path d="M399.333 158.984C398.412 141.686 386.561 137.821 386.561 137.821C393.359 143.295 396.267 151.814 397.473 158.996L399.333 158.984Z" fill="white"/>
<path d="M399.392 161.153C398.866 161.197 398.34 161.254 397.814 161.313C398.587 167.473 398.174 172.161 398.174 172.161C399.026 168.032 399.389 164.381 399.389 161.153H399.392Z" fill="white"/>
</g>
<path d="M374.793 126.104C374.775 123.345 374.754 120.588 374.736 117.829C374.733 117.268 375.223 116.724 375.803 116.748C376.385 116.769 376.881 117.214 376.884 117.814C376.902 120.573 376.922 123.33 376.94 126.089C376.943 126.651 376.453 127.194 375.874 127.17C375.292 127.15 374.796 126.704 374.793 126.104Z" fill="white"/>
<path d="M351.641 133.645C350.153 131.715 348.665 129.781 347.177 127.85C347.02 127.646 346.999 127.259 347.064 127.022C347.132 126.772 347.323 126.502 347.554 126.377C347.804 126.244 348.104 126.175 348.383 126.264C348.668 126.353 348.849 126.52 349.027 126.754C350.516 128.685 352.004 130.619 353.492 132.549C353.649 132.754 353.67 133.14 353.605 133.378C353.536 133.628 353.346 133.898 353.114 134.023C352.865 134.156 352.565 134.225 352.286 134.135C352.001 134.046 351.819 133.88 351.641 133.645Z" fill="white"/>
<path d="M394.778 132.27C396.239 130.319 397.704 128.367 399.165 126.416C399.34 126.181 399.512 126 399.804 125.917C400.059 125.846 400.404 125.875 400.632 126.021C400.864 126.166 401.066 126.386 401.131 126.66C401.194 126.921 401.197 127.263 401.027 127.488C399.566 129.44 398.102 131.391 396.64 133.343C396.465 133.577 396.293 133.758 396.002 133.842C395.746 133.913 395.402 133.883 395.173 133.738C394.941 133.592 394.739 133.372 394.674 133.099C394.612 132.838 394.609 132.496 394.778 132.27Z" fill="white"/>
<path d="M404.53 148.187C407.031 146.667 409.529 145.149 412.03 143.628C412.512 143.337 413.23 143.497 413.504 144.002C413.783 144.519 413.64 145.164 413.129 145.475C410.628 146.996 408.13 148.514 405.63 150.035C405.148 150.326 404.43 150.165 404.156 149.661C403.877 149.144 404.02 148.499 404.53 148.187Z" fill="white"/>
<path d="M343.559 150.733C340.942 149.426 338.323 148.119 335.706 146.815C335.201 146.563 334.5 146.782 334.268 147.311C334.034 147.852 334.227 148.478 334.764 148.749C337.381 150.056 340.001 151.362 342.618 152.666C343.123 152.919 343.824 152.699 344.055 152.17C344.29 151.63 344.097 151.003 343.559 150.733Z" fill="white"/>
<path d="M239.11 131.421C241.403 149.976 242.294 168.697 241.765 187.386C241.501 196.731 240.88 206.063 239.909 215.357C238.932 224.701 237.402 233.948 236.053 243.241C233.737 259.195 232.78 276.775 242.018 290.887C246.114 297.145 252.01 301.785 258.996 304.428C266.097 307.116 273.936 307.752 281.448 306.938C290.284 305.982 298.776 303.19 307.016 299.961C315.638 296.581 324.154 292.925 332.708 289.381C334.832 288.502 336.956 287.623 339.079 286.741C340.125 286.307 339.664 284.584 338.607 285.021C330.047 288.567 321.49 292.126 312.923 295.66C304.877 298.981 296.73 302.218 288.19 304.045C273.511 307.188 256.379 305.456 246.078 293.361C235.445 280.874 235.269 263.279 237.206 247.878C238.358 238.712 240.037 229.623 241.127 220.448C242.202 211.392 242.941 202.297 243.342 193.187C244.15 174.852 243.598 156.46 241.679 138.208C241.441 135.942 241.18 133.675 240.901 131.412C240.761 130.289 238.979 130.274 239.119 131.412L239.11 131.421Z" fill="white"/>
<path d="M227.486 134.356C223.387 143.308 225.071 153.57 228.695 162.383C232.589 171.852 238.428 180.385 241.948 190.024C245.385 199.425 247.03 209.446 246.804 219.453C246.691 224.487 246.097 229.501 245.028 234.42C243.926 239.487 242.376 244.441 240.787 249.375C237.807 258.627 234.606 267.983 234.098 277.77C233.67 285.971 235.012 294.659 239.551 301.654C244.496 309.276 252.736 313.395 261.439 315.178C270.174 316.963 279.334 316.975 288.15 315.804C305.79 313.467 322.703 305.958 336.143 294.276C337.81 292.83 339.414 291.315 340.967 289.746C341.775 288.93 340.516 287.667 339.708 288.487C327.351 300.998 311.22 309.516 294.013 313.027C285.45 314.774 276.608 315.264 267.911 314.37C259.238 313.479 250.131 310.933 243.965 304.413C238.306 298.431 236.058 290.079 235.829 282.021C235.565 272.605 238.134 263.522 240.968 254.635C244.015 245.08 247.226 235.593 248.221 225.554C249.178 215.874 248.367 206.013 245.887 196.609C244.657 191.954 243.002 187.422 240.974 183.056C238.829 178.44 236.316 174.011 233.988 169.49C229.624 161.016 225.704 151.488 227.138 141.749C227.468 139.509 228.089 137.314 229.03 135.256C229.506 134.219 227.97 133.313 227.492 134.356H227.486Z" fill="white"/>
<path d="M216.513 132.606C214.191 142.749 214.514 153.43 217.348 163.44C218.753 168.409 220.776 173.218 223.369 177.682C225.95 182.12 229.184 186.094 232.446 190.042C235.642 193.906 238.87 197.794 241.309 202.199C243.944 206.957 245.277 212.176 245.227 217.617C245.117 229.347 239.72 240.12 235.847 250.934C232.131 261.306 229.253 273.175 233.643 283.815C237.186 292.402 244.927 298.476 253.534 301.52C257.916 303.071 262.505 303.409 267.002 304.458C271.778 305.572 276.465 307.036 281.247 308.132C285.756 309.163 290.493 309.992 295.127 309.439C297.488 309.157 299.6 308.438 301.783 307.526C304.272 306.49 306.74 305.402 309.167 304.226C314.454 301.663 319.845 298.672 323.819 294.252C324.847 293.109 325.747 291.861 326.736 290.685C327.734 289.5 328.738 288.588 329.971 287.831C330.77 287.34 331.616 286.922 332.484 286.562C333.529 286.129 333.069 284.403 332.011 284.843C330.265 285.567 328.61 286.441 327.173 287.682C326.106 288.603 325.236 289.708 324.369 290.81C321.621 294.303 318.381 297.02 314.567 299.314C310.7 301.639 306.595 303.558 302.451 305.328C300.218 306.282 298.02 307.223 295.605 307.592C293.389 307.93 291.108 307.874 288.883 307.654C284.039 307.182 279.304 305.863 274.623 304.595C270.192 303.395 265.799 302.278 261.254 301.604C252.302 300.276 243.37 295.731 238.08 288.217C231.626 279.045 232.609 267.585 235.615 257.344C238.826 246.402 244.333 236.19 246.302 224.879C247.249 219.426 247.344 213.786 245.83 208.421C244.487 203.657 241.927 199.365 238.995 195.418C236.046 191.443 232.737 187.757 229.707 183.846C226.571 179.8 223.897 175.44 221.839 170.75C217.693 161.307 216.032 150.778 217.012 140.516C217.253 138.012 217.666 135.532 218.227 133.078C218.483 131.962 216.766 131.486 216.507 132.603L216.513 132.606Z" fill="white"/>
<path d="M350.82 246.782C350.82 246.782 340.614 247.329 340.041 254.849C339.467 262.37 337.905 275.344 337.905 275.344L327.337 276.093L326.188 280.043C326.188 280.043 341.633 285.707 343.278 285.701C344.924 285.695 350.823 246.782 350.823 246.782H350.82Z" fill="#FC3441"/>
<path d="M349.712 318.733L352.453 328.674L352.872 330.198C352.872 330.198 352.893 330.198 352.902 330.198C355.652 330.219 358.406 330.332 361.159 330.507C361.548 330.534 361.94 330.558 362.33 330.587C368.528 331.021 374.713 331.752 380.831 332.429L378.559 317.61L349.709 318.736L349.712 318.733Z" fill="#0E418D"/>
<path d="M338.562 331.104C338.773 331.072 338.984 331.042 339.198 331.015C343.656 330.403 348.142 330.175 352.633 330.198C352.713 330.198 352.793 330.198 352.876 330.198C352.885 330.198 352.897 330.198 352.906 330.198C355.656 330.219 358.41 330.332 361.163 330.507C361.552 330.534 361.944 330.558 362.333 330.587L365.699 318.109L365.835 317.602L339.148 319.146L338.562 331.104Z" fill="#0E418D"/>
<path d="M366.558 243.726L382.874 249.589L375.237 288.309L381.76 317.483L335.531 319.289L345.17 283.976L344.118 249.037L353.697 245.817L366.558 243.726Z" fill="#FC3441"/>
<path d="M355.232 243.633L361.806 231.726L363.407 231.405C363.407 231.405 366.778 230.728 365.501 234.77L363.962 239.644L365.988 244.052L362.83 251.246L360.713 254.917L355.951 245.935C355.951 245.935 354.787 245.894 355.232 243.636V243.633Z" fill="#DE8B65"/>
<path d="M351.878 228.248C351.878 228.248 350.108 240.782 354.04 243.913C354.04 243.913 360.595 243.657 361.804 231.723C361.804 231.723 357.064 225.726 351.878 228.245V228.248Z" fill="#F4996F"/>
<path d="M364.968 226.641C364.107 225.266 362.42 224.666 360.863 225.126C359.069 225.658 356.452 226.184 353.946 225.785C352.16 225.503 350.022 227.642 350.589 229.359C351.151 231.058 350.595 230.621 353.274 230.19C353.274 230.19 358.496 227.066 360.204 232.709C360.204 232.709 360.765 239.199 352.416 241.014C352.416 241.014 351.546 239.273 353.467 245.154C353.467 245.154 358.838 246.788 361.84 238.139C362.844 236.321 360.554 232.76 363.89 233.553C363.89 233.553 365.96 235.314 362.919 239.16L363.103 241.097C363.103 241.097 369.587 234.013 364.968 226.644V226.641Z" fill="#002868"/>
<path d="M352.505 234.5L350.364 237.987C350.233 238.201 350.402 238.474 350.652 238.453L353.147 238.234L352.505 234.503V234.5Z" fill="#F4996F"/>
<path d="M355.788 245.386L354.232 245.647L354.006 252.407L359.317 247.602L355.788 245.386Z" fill="#EDF6FB"/>
<path d="M358.838 248.033L354.006 252.408L354.231 245.647L353.732 253.934L358.838 248.033Z" fill="#E6E6E6"/>
<path d="M367.439 245.214L357.016 288.163L353.701 253.596L359.318 247.602L363.853 252.72L367.439 245.214Z" fill="#EDF6FB"/>
<path d="M365.717 243.758L359.316 247.602L364.137 253.043L367.85 244.234L365.717 243.758Z" fill="#EDF6FB"/>
<g style="mix-blend-mode:multiply">
<path d="M359.332 248.015L363.689 253.061L367.438 245.214L363.725 253.964L359.332 248.015Z" fill="#E6E6E6"/>
</g>
<g style="mix-blend-mode:multiply">
<path d="M352.428 328.464L352.451 328.678L352.63 330.198C352.71 330.198 352.79 330.198 352.873 330.198C352.882 330.198 352.894 330.198 352.903 330.198L352.428 328.464Z" fill="#E6E6E6"/>
</g>
<g style="mix-blend-mode:multiply">
<path d="M357.514 330.317L355.149 322.767L354.799 330.228L357.514 330.317Z" fill="#E6E6E6"/>
</g>
<path d="M353.196 318.097L356.615 295.339L359.54 318.35L352.801 318.662L353.196 318.097Z" fill="#0E418D"/>
<path d="M356.615 295.339L358.26 308.29L354.648 308.432L356.615 295.339Z" fill="#EDF6FB"/>
<path d="M343.145 422.561C345.839 409.296 352.623 383.36 351.156 376.579L360.114 326.385L338.544 330.656L338.182 421.97L343.145 422.561Z" fill="#0E418D"/>
<path d="M382.61 422.157C382.8 410.487 382.61 389.927 379.346 380.033L381.957 332.613C381.957 332.613 382.521 322.806 379.355 317.578L359.704 318.698L355.287 325.577L378.705 423.366L382.61 422.157Z" fill="#0E418D"/>
<path d="M338.611 421.89L332.697 424.616L333.155 425.801L337.479 425.632L339.178 424.147L339.226 425.305L340.943 425.326L341.284 423.636L340.984 422.172L338.611 421.89Z" fill="#0E418D"/>
<path d="M379.634 422.394L373.91 425.551L374.442 426.739L378.749 426.3L380.347 424.672L380.468 425.857L382.185 425.771L382.417 424.019L382.019 422.54L379.634 422.394Z" fill="#0E418D"/>
<g style="mix-blend-mode:multiply">
<path d="M357.983 336.934L352.586 318.78L356.061 347.057L357.983 336.934Z" fill="#E6E6E6"/>
</g>
<path d="M356.76 288.778L371.884 260.454L368.498 259.611L373.551 249.969L367.652 243.99L356.76 288.778Z" fill="#FD7B83"/>
<path d="M357.014 288.163L354.006 252.408L354.231 245.647L353.248 245.817L351.811 246.393L348.018 255.402L351.983 258.072L348.882 260.044L357.014 288.163Z" fill="#FD7B83"/>
<g style="mix-blend-mode:multiply">
<path d="M380.108 266.986L377.241 261.937L377.565 272.169L375.236 288.309L380.108 266.986Z" fill="#E6E6E6"/>
</g>
<g style="mix-blend-mode:multiply">
<path d="M345.697 284.549C345.697 284.549 368.58 288.116 375.236 288.309L376 291.728C376 291.728 347.711 287.427 345.697 284.552V284.549Z" fill="#E6E6E6"/>
</g>
<path d="M383.253 249.375C383.253 249.375 375.355 248.534 375.043 258.092C374.731 267.651 374.538 280.547 374.538 280.547L351.094 282.119L351.076 286.313C351.076 286.313 380.909 290.355 383.58 288.995C386.25 287.634 392.137 250.512 383.256 249.378L383.253 249.375Z" fill="#FC535E"/>
<g style="mix-blend-mode:multiply">
<path d="M374.537 280.545L378.63 282.974L374.564 278.929L375.042 258.09L374.537 280.545Z" fill="#E6E6E6"/>
</g>
<path d="M346.405 284.204L362.388 287.727L353.605 293.563L342.826 290.985L346.405 284.204Z" fill="#546280"/>
<path d="M317.764 258.625L351.627 265.019L353.606 293.563L321.087 285.778L317.764 258.625Z" fill="#879DCD"/>
<path d="M320.936 284.546L353.291 292.173C353.291 292.173 354.161 292.358 353.608 293.564L321.09 285.779C321.09 285.779 320.63 285.63 320.939 284.546H320.936Z" fill="#546280"/>
<path d="M353.288 292.173L361.441 287.516C361.441 287.516 362.428 286.984 362.386 288.187L353.603 293.563L353.285 292.173H353.288Z" fill="#546280"/>
<g style="mix-blend-mode:multiply">
<path d="M346.229 264.384L346.894 258.09L347.933 264.66L346.229 264.384Z" fill="#E6E6E6"/>
</g>
<path d="M291.72 18.2554H179.703V130.272H291.72V18.2554Z" fill="#355789"/>
<path d="M295.375 14.6046V133.928H176.052V14.6046H295.375ZM299.029 10.9512H172.398V137.581H299.029V10.9512Z" fill="#355789"/>
<path d="M291.72 18.2554H179.703V130.272H291.72V18.2554Z" fill="#6481BF"/>
<path d="M291.72 18.2554L179.703 130.275V18.2554H291.72Z" fill="#879DCD"/>
<path d="M200.461 0H189.402V11.4562H200.461V0Z" fill="#879DCD"/>
<path d="M227.619 0H216.561V11.4562H227.619V0Z" fill="#879DCD"/>
<path d="M254.775 0H243.717V11.4562H254.775V0Z" fill="#879DCD"/>
<path d="M281.933 0H270.875V11.4562H281.933V0Z" fill="#879DCD"/>
<path d="M309.673 29.7495H298.217V40.8077H309.673V29.7495Z" fill="#879DCD"/>
<path d="M309.673 56.9062H298.217V67.9644H309.673V56.9062Z" fill="#879DCD"/>
<path d="M309.673 84.0635H298.217V95.1217H309.673V84.0635Z" fill="#879DCD"/>
<path d="M309.673 111.217H298.217V122.275H309.673V111.217Z" fill="#879DCD"/>
<path d="M173.37 29.7495H161.914V40.8077H173.37V29.7495Z" fill="#879DCD"/>
<path d="M173.37 56.9062H161.914V67.9644H173.37V56.9062Z" fill="#879DCD"/>
<path d="M173.37 84.0635H161.914V95.1217H173.37V84.0635Z" fill="#879DCD"/>
<path d="M173.37 111.217H161.914V122.275H173.37V111.217Z" fill="#879DCD"/>
<path d="M200.461 137.073H189.402V148.529H200.461V137.073Z" fill="#879DCD"/>
<path d="M227.619 137.073H216.561V148.529H227.619V137.073Z" fill="#879DCD"/>
<path d="M254.775 137.073H243.717V148.529H254.775V137.073Z" fill="#879DCD"/>
<path d="M281.933 137.073H270.875V148.529H281.933V137.073Z" fill="#879DCD"/>
<path d="M210.24 88.5041L204.083 107.157H196.164L216.311 47.8594H225.549L245.785 107.157H237.602L231.266 88.5041H210.24ZM229.683 82.522L223.876 65.455C222.558 61.5848 221.675 58.0651 220.796 54.6345H220.621C219.742 58.1542 218.774 61.7601 217.63 65.3689L211.823 82.525H229.683V82.522Z" fill="white"/>
<path d="M262.147 47.8564V107.154H254.492V47.8564H262.147Z" fill="white"/>
</svg>
