<svg width="512" height="465" viewBox="0 0 512 465" fill="none" xmlns="http://www.w3.org/2000/svg">
<path d="M33.738 267.862C34.993 279.602 37.6545 291.221 42.0418 302.208C56.6207 338.671 87.6587 361.157 122.781 374.581C139.047 380.812 156.197 385.086 172.986 387.906C195.91 391.759 218.782 393.124 241.424 392.09C289.33 389.932 336.191 377.119 380.17 354.723C390.02 349.707 399.6 343.957 408.646 337.495C434.22 319.234 455.577 295.273 466.713 266.145C495.917 189.732 444.729 107.809 380.335 68.7845C336.413 42.1678 285.084 29.9755 233.97 24.882C212.859 22.7789 190.756 21.9656 171.263 30.3317C154.79 37.4007 140.852 52.4901 138.506 70.656C136.279 87.9152 144.421 104.223 134.205 120.535C125.931 133.75 110.007 139.489 96.3813 147.075C54.3795 170.444 28.6244 220.09 33.735 267.862H33.738Z" fill="#E1EBF5"/>
<path d="M110.45 128.401C123.346 120.807 129.384 114.967 132.005 103.425C134.627 91.8809 128.251 79.1915 117.857 73.5146C107.463 67.8377 93.9748 69.0117 84.1055 75.5568C74.2363 82.1004 68.0266 93.4794 66.7671 105.249C65.6725 115.479 68.6757 126.846 77.0433 132.84C85.411 138.835 91.0905 137.343 102.889 132.472C104.431 131.836 109.014 129.249 110.452 128.403L110.45 128.401Z" fill="#E1EBF5"/>
<path d="M255.803 465C397.079 465 511.606 463.055 511.606 460.656C511.606 458.257 397.079 456.312 255.803 456.312C114.527 456.312 0 458.257 0 460.656C0 463.055 114.527 465 255.803 465Z" fill="#B1C7D9"/>
<path d="M187.957 181.064C187.095 176.286 185.056 171.9 182.059 168.381C179.062 164.863 175.08 162.176 170.543 160.615C169.457 160.241 168.358 159.938 167.251 159.705C167.923 155.883 167.514 151.802 165.879 148.139C162.723 141.072 155.312 135.816 146.996 134.748C139.769 133.82 131.987 135.796 124.993 140.316L131.547 130.932L130.565 130.23L122.254 142.13L136.494 142.83L136.558 141.612L126.032 141.094C132.685 136.904 140.029 135.083 146.842 135.957C154.753 136.974 161.795 141.953 164.783 148.645C166.317 152.08 166.702 155.91 166.078 159.484C162.94 158.969 159.767 159.022 156.72 159.655C153.469 160.33 150.48 162.258 149.108 164.569C148.27 165.979 148.054 167.506 148.484 168.983C148.989 170.718 150.232 171.939 152.077 172.516C154.88 173.393 158.708 172.559 161.181 170.534C164.11 168.135 166.1 164.689 167.006 160.898C168.064 161.121 169.115 161.41 170.154 161.768C174.489 163.261 178.291 165.823 181.149 169.178C184.006 172.534 185.952 176.721 186.775 181.286C187.597 185.851 187.241 190.475 185.742 194.654L186.874 195.066C188.445 190.684 188.821 185.841 187.96 181.064H187.957ZM160.422 169.588C158.239 171.376 154.88 172.119 152.432 171.353C151.425 171.038 150.122 170.311 149.634 168.635C149.297 167.478 149.465 166.321 150.133 165.196C151.321 163.197 154.061 161.452 156.951 160.852C159.839 160.253 162.846 160.199 165.824 160.682C164.973 164.187 163.128 167.371 160.421 169.588H160.422Z" fill="white"/>
<path d="M381.254 306.642C385.881 303.55 389.555 299.381 391.884 294.589C394.211 289.795 395.215 284.331 394.783 278.787C394.681 277.46 394.496 276.151 394.235 274.868C398.555 273.845 402.658 271.551 405.757 268.143C411.74 261.565 413.877 251.279 411.202 241.934C408.876 233.813 403.247 226.421 395.303 221.027L408.154 223.74L408.443 222.375L392.145 218.936L397.912 234.426L399.221 233.939L394.958 222.491C402.398 227.672 407.666 234.667 409.858 242.322C412.404 251.212 410.388 260.98 404.724 267.208C401.815 270.405 397.967 272.558 393.929 273.519C393.036 269.942 391.532 266.586 389.475 263.627C387.281 260.47 383.89 258.165 380.835 257.752C378.971 257.502 377.269 257.966 375.913 259.097C374.323 260.425 373.605 262.304 373.841 264.532C374.201 267.916 376.825 271.616 380.082 273.329C383.941 275.357 388.469 275.909 392.864 275.15C393.114 276.377 393.289 277.63 393.388 278.899C393.8 284.197 392.845 289.412 390.624 293.983C388.404 298.555 384.894 302.532 380.474 305.486C376.054 308.439 371.036 310.162 365.961 310.468L366.044 311.861C371.367 311.541 376.625 309.738 381.251 306.646L381.254 306.642ZM380.736 272.089C377.86 270.577 375.546 267.336 375.233 264.381C375.104 263.165 375.273 261.446 376.81 260.164C377.872 259.278 379.164 258.932 380.65 259.131C383.292 259.487 386.378 261.611 388.328 264.418C390.277 267.221 391.706 270.4 392.56 273.792C388.487 274.48 384.302 273.962 380.736 272.088V272.089Z" fill="#FBBC59"/>
<path d="M404.471 75.2345C396.233 75.2345 389.531 68.5366 389.531 60.3055C389.531 52.0744 396.234 45.3765 404.471 45.3765C412.708 45.3765 419.411 52.0744 419.411 60.3055C419.411 68.5366 412.708 75.2345 404.471 75.2345ZM404.471 47.4424C397.373 47.4424 391.599 53.2128 391.599 60.3055C391.599 67.3982 397.373 73.1686 404.471 73.1686C411.569 73.1686 417.343 67.3982 417.343 60.3055C417.343 53.2128 411.569 47.4424 404.471 47.4424Z" fill="#5C6CA4"/>
<path d="M451.476 384.693C445.415 384.693 440.484 379.766 440.484 373.709C440.484 367.652 445.415 362.725 451.476 362.725C457.538 362.725 462.469 367.652 462.469 373.709C462.469 379.766 457.538 384.693 451.476 384.693ZM451.476 364.246C446.254 364.246 442.007 368.491 442.007 373.709C442.007 378.927 446.254 383.172 451.476 383.172C456.698 383.172 460.946 378.927 460.946 373.709C460.946 368.491 456.698 364.246 451.476 364.246Z" fill="white"/>
<path d="M137.325 369.458L121.877 396.193H152.771L137.325 369.458Z" fill="#FBBC59"/>
<path d="M93.3772 91.0738L58.3648 70.873L58.3633 111.273L93.3772 91.0738Z" fill="#FBBC59"/>
<path d="M15.8848 237.146V266.231H44.9905V237.146H15.8848ZM17.7042 264.413V238.963H43.1711V264.413H17.7042Z" fill="#5C6CA4"/>
<path d="M291.732 41.632C291.755 41.0873 291.769 40.5412 291.769 39.9905C291.769 19.9278 275.494 3.66455 255.417 3.66455C235.339 3.66455 219.064 19.9278 219.064 39.9905C219.064 60.0532 235.339 76.3165 255.417 76.3165C266.273 76.3165 276.014 71.5569 282.675 64.0159L291.769 76.3165L291.732 41.6305V41.632Z" fill="#B3CFE8"/>
<path d="M270.599 54.645C278.848 46.402 278.848 33.0375 270.599 24.7944C262.35 16.5514 248.976 16.5514 240.727 24.7944C232.478 33.0375 232.478 46.402 240.727 54.645C248.976 62.888 262.35 62.888 270.599 54.645Z" fill="#E86249"/>
<path d="M268.692 52.7392C275.888 45.5487 275.888 33.8907 268.692 26.7002C261.496 19.5098 249.83 19.5098 242.634 26.7002C235.439 33.8907 235.439 45.5487 242.634 52.7392C249.83 59.9297 261.496 59.9297 268.692 52.7392Z" fill="white"/>
<path d="M266.589 50.6393C272.624 44.6086 272.624 34.8309 266.589 28.8002C260.554 22.7695 250.769 22.7695 244.734 28.8002C238.699 34.8309 238.699 44.6086 244.734 50.6393C250.769 56.67 260.554 56.67 266.589 50.6393Z" fill="#E86249"/>
<path d="M255.663 51.9645C262.43 51.9645 267.916 46.4826 267.916 39.7203C267.916 32.958 262.43 27.4761 255.663 27.4761C248.896 27.4761 243.41 32.958 243.41 39.7203C243.41 46.4826 248.896 51.9645 255.663 51.9645Z" fill="white"/>
<path d="M264.84 40.5036C265.271 35.4506 261.521 31.0053 256.464 30.5748C251.407 30.1442 246.959 33.8915 246.528 38.9445C246.097 43.9975 249.847 48.4428 254.904 48.8733C259.961 49.3038 264.409 45.5566 264.84 40.5036Z" fill="#E86249"/>
<path d="M260.091 44.1453C262.537 41.7011 262.537 37.7383 260.091 35.2942C257.645 32.85 253.679 32.85 251.233 35.2942C248.787 37.7383 248.787 41.7011 251.233 44.1453C253.679 46.5894 257.645 46.5894 260.091 44.1453Z" fill="white"/>
<path d="M257.973 42.7618C259.653 41.488 259.981 39.0944 258.706 37.4156C257.432 35.7368 255.036 35.4085 253.356 36.6823C251.676 37.9561 251.348 40.3497 252.623 42.0285C253.897 43.7073 256.293 44.0356 257.973 42.7618Z" fill="#E86249"/>
<path d="M230.506 1.12549L243.377 23.8775C243.977 24.9386 244.615 25.979 245.288 26.9957L250.368 34.7681L253.5 32.7111L248.321 24.7947C247.709 23.8715 247.069 22.9692 246.401 22.0876L230.506 1.12549Z" fill="#3A4466"/>
<path d="M240.601 14.4395C240.601 14.4395 242.793 7.75787 238.465 2.93439C234.137 -1.88909 231.574 0.233238 231.361 2.25316L240.601 14.4395Z" fill="#5C6CA4"/>
<path d="M238.675 15.5656C238.675 15.5656 231.635 14.923 228.921 9.0398C226.208 3.15664 229.273 1.77044 231.213 2.37746L238.675 15.5671V15.5656Z" fill="#5C6CA4"/>
<path d="M253.412 33.3388L251.051 34.8897C250.696 35.1227 250.219 35.0248 249.986 34.6701L248.899 33.0167L248.734 32.7659L246.539 29.4295C246.306 29.0748 246.404 28.5984 246.758 28.3654L249.12 26.8145C249.475 26.5815 249.952 26.6794 250.185 27.0341L252.379 30.3705L252.543 30.6213L253.631 32.2746C253.864 32.6294 253.766 33.1058 253.411 33.3388H253.412Z" fill="#2E3651"/>
<path d="M251.955 34.2936L255.234 39.2778L255.574 39.0544L252.296 34.0702L251.955 34.2936Z" fill="#2E3651"/>
<path d="M255.745 39.649L255.252 39.269L255.592 39.0449L255.745 39.649Z" fill="#6999C4"/>
<path d="M252.385 30.3811L248.738 32.7764L248.903 33.0269L252.549 30.6316L252.385 30.3811Z" fill="#3A4466"/>
<g style="mix-blend-mode:screen" opacity="0.63">
<path d="M228.349 5.22125C228.279 5.22125 228.223 5.16486 228.221 5.0951C228.207 4.2714 228.441 3.6347 228.918 3.2043C229.727 2.4741 230.93 2.60915 230.981 2.61509C231.051 2.624 231.101 2.68781 231.092 2.75757C231.083 2.82732 231.02 2.87778 230.95 2.87036C230.938 2.87036 229.809 2.74421 229.087 3.39724C228.668 3.77569 228.463 4.34561 228.477 5.09213C228.477 5.16337 228.422 5.22125 228.351 5.22274C228.351 5.22274 228.349 5.22274 228.348 5.22274L228.349 5.22125Z" fill="#5C6CA4"/>
</g>
<g style="mix-blend-mode:screen" opacity="0.63">
<path d="M238.033 15.2277C238.033 15.2277 238.024 15.2277 238.019 15.2277C237.995 15.2248 235.573 14.9561 233.145 13.2627C233.087 13.2227 233.072 13.1425 233.114 13.0846C233.154 13.0268 233.234 13.0119 233.292 13.0535C235.667 14.7098 238.022 14.971 238.046 14.974C238.116 14.9814 238.168 15.0437 238.16 15.1149C238.153 15.1802 238.098 15.2292 238.033 15.2292V15.2277Z" fill="#5C6CA4"/>
</g>
<g style="mix-blend-mode:screen" opacity="0.63">
<path d="M239.523 5.00308C239.48 5.00308 239.437 4.98082 239.413 4.94074C239.383 4.89028 236.38 -0.103873 233.111 0.535794C233.043 0.550636 232.975 0.504627 232.961 0.434872C232.948 0.365117 232.993 0.298331 233.062 0.284973C236.51 -0.390314 239.508 4.59791 239.633 4.81162C239.669 4.87247 239.649 4.95113 239.588 4.98675C239.568 4.99863 239.545 5.00456 239.523 5.00456V5.00308Z" fill="#5C6CA4"/>
</g>
<g style="mix-blend-mode:screen" opacity="0.63">
<path d="M240.075 13.5063C240.036 13.5063 239.997 13.4885 239.972 13.4558L236.417 8.74217C236.374 8.68577 236.385 8.60562 236.442 8.56258C236.498 8.51954 236.578 8.53142 236.622 8.58782L240.177 13.3015C240.22 13.3579 240.208 13.438 240.152 13.4811C240.128 13.4989 240.101 13.5063 240.075 13.5063Z" fill="#5C6CA4"/>
</g>
<path d="M245.778 27.1484C245.735 27.1484 245.692 27.1261 245.668 27.0861L243.205 22.9646C243.17 22.9037 243.189 22.8251 243.25 22.7895C243.311 22.7524 243.389 22.7731 243.425 22.834L245.888 26.9555C245.923 27.0163 245.904 27.095 245.843 27.1306C245.822 27.1425 245.8 27.1484 245.778 27.1484Z" fill="#5C6CA4"/>
<path d="M240.641 18.4738C240.596 18.4738 240.553 18.4501 240.529 18.4085L239.222 16.117C239.186 16.0561 239.209 15.9775 239.27 15.9419C239.332 15.9062 239.409 15.9285 239.445 15.9893L240.752 18.2809C240.788 18.3417 240.765 18.4204 240.704 18.456C240.685 18.4679 240.663 18.4723 240.641 18.4723V18.4738Z" fill="#5C6CA4"/>
<path d="M242.829 18.2806C242.791 18.2806 242.752 18.2628 242.727 18.2302L240.077 14.7647C240.034 14.7083 240.045 14.6281 240.101 14.5851C240.158 14.5421 240.238 14.5525 240.281 14.6089L242.93 18.0743C242.973 18.1307 242.963 18.2109 242.907 18.2539C242.883 18.2717 242.856 18.2806 242.829 18.2806Z" fill="#5C6CA4"/>
<path d="M248 27.3456C247.958 27.3456 247.918 27.3263 247.893 27.2892C247.853 27.2298 247.869 27.1512 247.928 27.1111C248.227 26.9107 248.398 26.6554 248.435 26.3527C248.527 25.5824 247.756 24.729 247.749 24.7201C247.701 24.6682 247.704 24.5865 247.756 24.5391C247.808 24.4916 247.89 24.4945 247.937 24.5465C247.973 24.5851 248.796 25.4934 248.689 26.3809C248.643 26.7608 248.435 27.0784 248.071 27.3233C248.049 27.3382 248.025 27.3456 248 27.3456Z" fill="#5C6CA4"/>
<path d="M250.372 27.8589C250.326 27.8589 250.28 27.8337 250.258 27.7891C250.118 27.5146 249.959 27.3483 249.797 27.3068C249.67 27.2741 249.578 27.3305 249.578 27.332C249.52 27.3721 249.44 27.3573 249.399 27.2979C249.359 27.24 249.374 27.1599 249.434 27.1198C249.453 27.1064 249.624 26.9981 249.861 27.0589C250.099 27.1198 250.31 27.3261 250.485 27.6734C250.518 27.7372 250.493 27.8129 250.429 27.8455C250.411 27.8544 250.39 27.8589 250.371 27.8589H250.372Z" fill="#3A4466"/>
<path d="M248.646 32.196C248.604 32.196 248.563 32.1752 248.539 32.1381L246.841 29.5364C246.803 29.477 246.819 29.3983 246.878 29.3598C246.938 29.3212 247.016 29.3375 247.055 29.3969L248.753 31.9986C248.791 32.0579 248.775 32.1366 248.716 32.1752C248.693 32.19 248.67 32.196 248.646 32.196Z" fill="#3A4466"/>
<path d="M252.542 33.5035C252.492 33.5035 252.444 33.4738 252.424 33.4233C252.397 33.358 252.428 33.2838 252.495 33.2571C252.499 33.2556 252.884 33.0953 253.068 32.7733C253.285 32.3933 252.853 31.7967 252.667 31.5993C252.618 31.5474 252.621 31.4672 252.673 31.4183C252.725 31.3693 252.805 31.3722 252.854 31.4242C252.887 31.4583 253.644 32.2805 253.29 32.9009C253.061 33.3016 252.609 33.4872 252.59 33.4946C252.574 33.5005 252.559 33.5035 252.542 33.5035Z" fill="#3A4466"/>
<g style="mix-blend-mode:multiply">
<path d="M248.524 20.8152C248.478 20.8152 248.433 20.79 248.411 20.747C248.378 20.6846 248.402 20.6075 248.465 20.5733C248.508 20.5511 252.828 18.3323 259.602 19.4305C259.672 19.4424 259.72 19.5077 259.708 19.5775C259.696 19.6472 259.629 19.6947 259.561 19.6828C252.868 18.5979 248.625 20.7781 248.583 20.7989C248.564 20.8093 248.543 20.8138 248.524 20.8138V20.8152Z" fill="#C1503F"/>
</g>
<path d="M238.284 39.8019C238.218 39.8019 238.161 39.7499 238.157 39.6832C237.805 34.5272 240.039 31.6984 240.061 31.6702C240.105 31.6153 240.186 31.6064 240.241 31.6509C240.295 31.6955 240.304 31.7756 240.26 31.8305C240.238 31.8572 238.068 34.6148 238.412 39.6639C238.417 39.7351 238.363 39.796 238.293 39.8004C238.29 39.8004 238.287 39.8004 238.284 39.8004V39.8019Z" fill="#D6D0C6"/>
<g style="mix-blend-mode:multiply">
<path d="M261.72 26.2382C261.703 26.2382 261.683 26.2338 261.665 26.2263C257.312 24.1812 252.577 25.4368 252.531 25.4501C252.463 25.4679 252.393 25.4279 252.374 25.3596C252.355 25.2913 252.396 25.2216 252.464 25.2023C252.512 25.1889 257.339 23.9096 261.775 25.9948C261.839 26.0245 261.867 26.1017 261.836 26.1655C261.814 26.2115 261.768 26.2397 261.72 26.2397V26.2382Z" fill="#C1503F"/>
</g>
<g style="mix-blend-mode:multiply">
<path d="M270.329 39.1799C270.329 39.1799 270.328 39.1799 270.326 39.1799C270.255 39.1799 270.2 39.1205 270.2 39.0493C270.309 33.7034 266.97 30.2706 266.936 30.2364C266.885 30.186 266.887 30.1043 266.936 30.0554C266.986 30.0049 267.068 30.0064 267.117 30.0554C267.151 30.0895 270.566 33.601 270.454 39.0537C270.454 39.1235 270.396 39.1799 270.326 39.1799H270.329Z" fill="#C1503F"/>
</g>
<g style="mix-blend-mode:multiply">
<path d="M255.509 43.1444C255.444 43.1444 255.387 43.094 255.381 43.0272C255.375 42.9559 255.427 42.8951 255.499 42.8892C258.45 42.6413 258.821 39.6923 258.824 39.6626C258.831 39.5929 258.897 39.5409 258.967 39.5498C259.036 39.5572 259.087 39.6211 259.08 39.6923C259.077 39.7235 258.68 42.8803 255.521 43.1444C255.518 43.1444 255.514 43.1444 255.511 43.1444H255.509Z" fill="#C1503F"/>
</g>
<path d="M259.377 35.1148C259.355 35.1148 259.333 35.1088 259.312 35.097C259.279 35.0777 256.032 33.1646 253.181 34.6354C253.118 34.668 253.041 34.6428 253.008 34.5805C252.976 34.5181 253.001 34.441 253.063 34.4083C256.041 32.8707 259.41 34.858 259.444 34.8773C259.505 34.9144 259.524 34.9931 259.487 35.0524C259.463 35.0925 259.42 35.1148 259.377 35.1148Z" fill="#D6D0C6"/>
<g style="mix-blend-mode:multiply">
<path d="M262.768 58.9962C262.716 58.9962 262.667 58.9636 262.648 58.9116C262.624 58.8449 262.659 58.7721 262.724 58.7469C269.281 56.347 272.733 50.737 272.767 50.6806C272.804 50.6197 272.883 50.6004 272.944 50.6375C273.005 50.6746 273.024 50.7533 272.987 50.8127C272.953 50.8705 269.453 56.5578 262.813 58.9873C262.798 58.9933 262.783 58.9948 262.768 58.9948V58.9962Z" fill="#C1503F"/>
</g>
<path d="M255.137 57.5703C248.951 57.5703 244.115 53.5691 244.063 53.526C244.009 53.48 244.002 53.3999 244.048 53.345C244.094 53.2916 244.174 53.2841 244.229 53.3301C244.284 53.3761 249.742 57.8865 256.435 57.2542C256.504 57.2483 256.568 57.2987 256.574 57.37C256.58 57.4397 256.53 57.5036 256.458 57.5095C256.013 57.5511 255.57 57.5718 255.137 57.5718V57.5703Z" fill="#D6D0C6"/>
<path d="M255.55 51.6726C253.983 51.6726 252.911 51.3981 252.888 51.3921C252.82 51.3743 252.778 51.3046 252.798 51.2348C252.816 51.1665 252.887 51.1265 252.955 51.1443C253 51.1562 257.377 52.2722 261.351 49.905C261.412 49.8694 261.491 49.8887 261.526 49.9495C261.562 50.0104 261.543 50.0891 261.482 50.1247C259.395 51.3684 257.2 51.6726 255.551 51.6726H255.55Z" fill="#D6D0C6"/>
<g style="mix-blend-mode:multiply">
<path d="M276.197 39.6359C276.197 39.6359 276.197 39.6359 276.195 39.6359C276.124 39.6359 276.067 39.5765 276.069 39.5053C276.188 32.4526 271.521 26.8396 271.474 26.7832C271.428 26.7297 271.435 26.6481 271.489 26.6021C271.542 26.5561 271.624 26.5635 271.67 26.617C271.717 26.6734 276.445 32.3606 276.326 39.5083C276.326 39.578 276.268 39.6344 276.198 39.6344L276.197 39.6359Z" fill="#C1503F"/>
</g>
<path d="M320.256 425.169L325.692 444.086L339.874 450.549L346.832 442.642L341.395 423.688L320.256 425.169Z" fill="#424058"/>
<path d="M317.145 452.716C317.361 450.767 319.767 438.885 321.783 434.582C323.635 430.629 326.53 439.394 330.865 439.177C334.259 439.008 341.367 434.781 344.294 432.953C344.973 432.528 345.869 432.769 346.241 433.477C347.611 436.078 351.206 441.628 357.461 442.861C365.698 444.486 376.967 446.232 376.967 452.716C376.967 454.408 317.146 452.716 317.146 452.716H317.145Z" fill="#5C6CA4"/>
<path d="M376.981 458.132L318.737 458.507C317.859 458.513 317.145 457.804 317.145 456.926V450.985L376.981 452.717V458.132Z" fill="#261717"/>
<path d="M348.152 443.914C348.173 443.914 348.195 443.911 348.217 443.906C350.608 443.375 352.238 442.164 352.967 441.208C353.066 441.076 353.041 440.889 352.91 440.789C352.78 440.689 352.591 440.715 352.492 440.846C351.826 441.719 350.32 442.826 348.088 443.323C347.926 443.358 347.825 443.519 347.861 443.679C347.892 443.819 348.015 443.914 348.152 443.914Z" fill="#261717"/>
<path d="M352.018 446.588C352.056 446.588 352.096 446.58 352.135 446.564L352.572 446.378C354.718 445.472 355.697 445.056 357.115 442.894C357.206 442.756 357.167 442.57 357.029 442.48C356.891 442.389 356.705 442.428 356.615 442.566C355.296 444.577 354.431 444.943 352.339 445.828L351.9 446.013C351.749 446.079 351.678 446.254 351.743 446.405C351.792 446.519 351.902 446.586 352.018 446.586V446.588Z" fill="#261717"/>
<path d="M343.998 440.579C346.649 440.579 348.851 439.446 349.777 438.394C349.885 438.269 349.873 438.081 349.75 437.973C349.625 437.864 349.437 437.876 349.328 437.999C348.489 438.954 346.463 439.982 343.998 439.982C343.833 439.982 343.699 440.116 343.699 440.28C343.699 440.445 343.833 440.579 343.998 440.579Z" fill="#261717"/>
<path d="M342.384 427.135L322.678 433.597L321.383 429.094L342.384 427.135Z" fill="#13141E"/>
<path d="M102.034 306.161L80.0095 301.8L70.0586 313.789L75.8762 322.568L97.9361 326.937L102.034 306.161Z" fill="#424058"/>
<path d="M73.9105 292.851C75.7373 293.569 86.5838 298.998 90.2122 302.068C93.5465 304.888 84.3233 305.388 83.3995 309.626C82.6762 312.943 84.8996 320.904 85.8991 324.207C86.1308 324.972 85.6644 325.772 84.8832 325.948C82.0123 326.589 75.712 328.606 72.8857 334.314C69.1622 341.832 64.5284 352.247 58.2652 350.552C56.6315 350.109 73.909 292.853 73.909 292.853L73.9105 292.851Z" fill="#5C6CA4"/>
<path d="M53.0312 349.147L67.8997 292.873C68.124 292.024 68.9958 291.521 69.8439 291.751L75.5827 293.305L58.2622 350.565L53.0327 349.149L53.0312 349.147Z" fill="#261717"/>
<path d="M74.3028 325.06C74.2969 325.081 74.2939 325.103 74.2924 325.126C74.181 327.57 74.9236 329.459 75.6558 330.412C75.7568 330.543 75.944 330.568 76.0747 330.467C76.2054 330.368 76.2306 330.179 76.1296 330.048C75.4613 329.179 74.784 327.436 74.8895 325.152C74.8969 324.988 74.7692 324.848 74.6043 324.841C74.4617 324.835 74.3384 324.928 74.3013 325.06H74.3028Z" fill="#261717"/>
<path d="M70.7097 328.089C70.6993 328.126 70.6963 328.167 70.7022 328.207L70.7676 328.676C71.0825 330.983 71.2265 332.036 72.9464 333.969C73.0563 334.092 73.2449 334.104 73.3682 333.994C73.4915 333.884 73.5034 333.696 73.3935 333.573C71.7954 331.775 71.6676 330.845 71.3602 328.596L71.2948 328.126C71.2726 327.962 71.1211 327.848 70.9577 327.87C70.8359 327.887 70.7409 327.976 70.7097 328.089Z" fill="#261717"/>
<path d="M78.6102 321.927C77.9166 324.484 78.4349 326.905 79.2102 328.073C79.3008 328.211 79.4865 328.248 79.6246 328.157C79.7627 328.065 79.7999 327.881 79.7093 327.743C79.0068 326.683 78.5434 324.462 79.1879 322.084C79.231 321.925 79.1375 321.761 78.9771 321.717C78.8181 321.674 78.6533 321.768 78.6102 321.928V321.927Z" fill="#261717"/>
<path d="M94.2549 304.62C94.2549 304.62 89.9522 320.085 91.7152 325.704L95.8649 326.526L94.2549 304.62Z" fill="#13141E"/>
<path d="M348.243 425.877C348.243 425.877 319.846 433.173 306.051 425.877L289.017 344.806L250.072 296.165C250.072 296.165 216.813 361.828 206.265 367.509C195.717 373.183 173.813 364.265 165.697 361.828C157.587 359.399 98.363 340.755 98.363 340.755C98.363 340.755 91.0617 305.083 95.9243 303.461L182.644 323.331L184.283 323.711L184.36 323.726C184.36 323.726 215.187 246.707 216.812 240.226C218.435 233.737 229.402 222.661 229.402 222.661L273.597 245.084L323.897 326.161L348.24 425.875L348.243 425.877Z" fill="#2E3651"/>
<path d="M250.377 296.398L262.805 265.352L256.591 304.302L250.377 296.398Z" fill="#15192D"/>
<path d="M236.047 226.039L276.277 249.4L273.676 245.171L236.047 226.039Z" fill="#2E3047"/>
<path d="M184.287 323.711L181.009 330.805C180.884 331.077 180.472 330.921 180.559 330.635L182.648 323.331L184.287 323.711Z" fill="#2E3047"/>
<path d="M235.625 234.627C235.563 234.997 233.988 243.684 224.299 245.175L224.075 245.209L189.484 336.664C187.975 340.653 183.738 342.8 179.627 341.649L101.601 319.874C101.026 311.579 101.244 304.727 101.247 304.603L100.472 304.577C100.468 304.703 100.245 311.696 100.842 320.135L100.756 320.444L100.866 320.475C101.353 327.139 102.354 334.652 104.378 340.38L105.11 340.122C103.139 334.542 102.149 327.234 101.66 320.698L179.419 342.399C180.235 342.627 181.057 342.736 181.865 342.736C185.505 342.736 188.86 340.514 190.212 336.94L224.642 245.908C234.7 244.228 236.377 234.853 236.391 234.758L235.625 234.63V234.627Z" fill="#15192D"/>
<path d="M325.08 423.791C316.543 423.791 309.813 422.151 309.702 422.123L309.463 422.064L293.899 342.745L255.898 294.697L256.507 294.216L294.625 342.411L294.643 342.503L310.13 421.426C312.345 421.932 329.473 425.546 343.045 419.836L343.346 420.551C337.422 423.045 330.839 423.791 325.081 423.791H325.08Z" fill="#15192D"/>
<path d="M271.64 143.899C265.852 143.715 257.199 143.234 246.795 141.83C223.653 138.707 211.835 133.719 200.418 131.486C186.613 128.784 166.187 128.701 138.305 141.416C139.133 146.106 139.34 147.692 140.169 152.381C147.097 149.378 159.619 144.073 173.088 142.243C176.64 141.76 193.954 140.583 216.36 144.518C229.626 146.848 237.511 150.112 252.179 150.104C259.03 150.101 264.441 150.051 268.121 149.484C269.915 146.725 269.847 146.657 271.641 143.898L271.64 143.899Z" fill="#E86249"/>
<path d="M333.081 107.199L330.146 108.147C330.146 108.147 330.106 109.778 329.985 111.927C329.739 115.955 329.186 121.789 328.034 122.165C326.534 122.652 317.374 121.985 314.575 121.766C314.062 121.727 313.761 121.703 313.761 121.703L312.08 125.215L309.225 131.855L304.756 142.266L281.242 131.945L293.681 109.407C291.205 109.033 289.782 106.614 289.602 102.889C289.398 98.6426 292.124 97.3677 294.722 96.9165C297.321 96.4653 299.299 100.133 299.299 100.133L301.775 100.507C301.775 100.507 307.392 91.2367 313.911 87.1597C320.43 83.0828 330.783 87.1701 331.356 88.9422C331.936 90.7143 330.361 95.5377 330.94 97.3113C331.417 98.7821 332.997 104.477 333.526 106.379C333.624 106.725 333.425 107.089 333.082 107.2L333.081 107.199Z" fill="#FF9B83"/>
<path d="M314.577 121.764C314.064 121.726 313.763 121.702 313.763 121.702L312.082 125.213L309.227 131.853C308.452 131.192 307.907 130.144 307.516 129.167C305.415 123.913 304.191 117.897 304.702 112.226C306.117 114.752 307.599 117.132 310.231 118.71C311.753 119.621 313.536 120.277 314.553 121.73C314.561 121.74 314.568 121.754 314.577 121.764Z" fill="#EC6F51"/>
<path d="M327.851 123.398C324.463 123.992 317.695 123.606 314.119 123.995C311.469 124.278 308.842 123.412 307.611 121C306.783 119.384 306.206 117.619 305.895 115.81C305.386 112.807 304.508 110.348 304.322 105.988C307.367 108.174 313.513 117.775 322.5 110.149C324.202 108.711 328.629 107.043 330.022 108.989C330.565 109.753 330.38 111.15 330.262 112.38C330.241 112.68 330.215 112.963 330.21 113.232C330.211 113.275 330.207 113.308 330.21 113.349C330.14 119.409 329.047 123.189 327.851 123.397V123.398Z" fill="#261717"/>
<path d="M328.362 120.009C324.971 120.601 318.208 120.213 314.628 120.601C311.984 120.887 309.353 120.019 308.121 117.613C307.291 115.991 306.716 114.225 306.406 112.42C306.113 110.694 305.242 108.508 304.515 106.135C304.45 106.084 304.385 106.031 304.322 105.986C304.508 110.348 305.387 112.805 305.895 115.811C306.206 117.616 306.78 119.381 307.611 121.004C308.842 123.41 311.474 124.278 314.117 123.992C317.695 123.605 324.459 123.992 327.851 123.4C328.796 123.235 329.672 120.841 330.034 116.868C329.596 118.781 328.995 119.897 328.362 120.009Z" fill="#382423"/>
<path d="M312.075 92.8841C315.471 91.0853 319.386 90.0271 323.18 90.649C324.605 90.8835 325.994 91.3495 327.435 91.4653C328.875 91.5825 330.45 91.2842 331.439 90.2319C331.865 89.7778 332.168 89.1559 332.061 88.5415C331.92 87.7267 331.139 87.2013 330.416 86.8006C326.64 84.7094 322.501 83.3321 318.292 82.3749C314.141 81.4309 309.676 80.907 305.715 82.4669C303.431 83.3663 301.478 84.9053 299.716 86.5854C299.031 87.2384 297.828 88.0933 297.374 88.911C296.82 89.9099 297.335 91.6567 297.707 92.6407C298.169 93.8666 298.87 94.9842 299.566 96.0943C299.77 96.4179 301.83 100.104 302.044 99.9472C305.364 97.5874 308.46 94.7987 312.075 92.8841Z" fill="#EC6F51"/>
<path d="M338.183 85.4738C338.995 85.9591 339.311 87.0514 339.063 87.9672C338.809 88.8725 338.098 89.6086 337.284 90.085C335.099 91.3748 332.308 91.0215 329.91 90.1978C327.513 89.3652 325.248 88.1052 322.754 87.6362C320.194 87.1583 317.537 87.5501 315.04 88.2699C312.218 89.0758 310.296 90.465 308.186 92.4908C305.114 95.4591 303.29 99.2734 301.66 103.042C299.071 99.3981 294.906 96.8572 290.099 99.5895C290.938 99.1176 291.014 97.4939 290.543 96.4788C290.457 96.2725 290.332 96.084 290.192 95.9459C289.381 95.1163 288.232 94.5123 287.84 93.417C287.462 92.3395 287.944 91.164 288.474 90.1578C291.672 84.1648 297.017 79.5995 302.698 75.8847C307.144 72.9713 311.899 70.475 316.993 68.9745C322.089 67.4651 327.542 66.9887 332.742 68.0915C334.091 68.3794 335.447 68.786 336.544 69.6172C337.642 70.4483 338.438 71.7736 338.324 73.1479C338.291 73.5309 338.175 73.9093 337.989 74.2447C337.976 74.2759 337.955 74.2982 337.945 74.3145C337.692 74.7568 337.315 75.1382 336.881 75.3846C336.809 75.4246 336.736 75.4558 336.663 75.487C336.688 75.4914 336.705 75.4929 336.73 75.4885C339.022 75.395 341.373 76.98 341.97 79.2359C342.662 81.8614 340.834 84.8727 338.178 85.4768L338.183 85.4738Z" fill="#261717"/>
<path d="M338.183 85.4742C338.996 85.9595 339.312 87.0518 339.064 87.9675C338.81 88.8729 338.099 89.609 337.285 90.0854C335.1 91.3751 332.309 91.0219 329.911 90.1982C327.514 89.3656 325.249 88.1055 322.755 87.6366C320.195 87.1587 317.537 87.5505 315.041 88.2703C312.219 89.0762 310.297 90.4653 308.187 92.4912C305.115 95.4595 303.291 99.2738 301.661 103.042C299.072 99.3984 294.907 96.8576 290.1 99.5899C290.939 99.1179 291.014 97.4943 290.544 96.4791C293.646 97.0564 296.884 97.3414 299.603 95.8706C302.084 94.5245 303.617 91.9732 305.525 89.891C310.588 84.3477 318.98 82.12 326.125 84.4189C327.661 84.9206 329.251 85.6152 330.835 85.305C332.425 84.9963 333.772 83.058 332.829 81.7519C334.311 82.4984 336.354 81.7682 337.029 80.2514C337.698 78.7257 336.869 76.7281 335.323 76.1255C335.831 75.9994 336.303 75.7842 336.735 75.4873C339.027 75.3938 341.378 76.9789 341.975 79.2348C342.667 81.8603 340.839 84.8716 338.183 85.4756V85.4742Z" fill="#382423"/>
<path d="M318.942 98.7943C318.388 98.7112 317.956 98.2437 317.938 97.6649C317.917 97.0119 318.428 96.4672 319.082 96.4449C320.992 96.3826 322.9 95.8913 324.602 95.0216L324.871 94.8836C325.406 94.6031 326.013 94.2855 326.731 94.1519C327.917 93.9308 329.076 94.3463 329.683 95.2086C330.059 95.7429 329.93 96.479 329.397 96.8545C328.863 97.23 328.125 97.1024 327.749 96.5681C327.706 96.5058 327.466 96.4197 327.163 96.4746C326.796 96.5429 326.393 96.7536 325.969 96.9762L325.679 97.1261C323.67 98.1517 321.415 98.732 319.16 98.8062C319.086 98.8077 319.015 98.8047 318.945 98.7928L318.942 98.7943Z" fill="#382423"/>
<path d="M327.535 100.382C327.689 99.3571 327.399 98.464 326.886 98.3868C326.373 98.3096 325.833 99.0775 325.678 100.102C325.524 101.127 325.814 102.02 326.327 102.097C326.839 102.174 327.38 101.406 327.535 100.382Z" fill="#382423"/>
<path d="M294.99 100.713C294.183 100.408 293.224 100.39 292.499 100.859C291.776 101.329 291.405 102.359 291.831 103.109C292.49 102.468 293.598 102.35 294.375 102.842C295.153 103.333 295.523 104.384 295.226 105.253C295.302 105.032 296.085 104.602 296.276 104.361C296.601 103.956 296.939 103.38 296.993 102.854C297.115 101.7 296.031 101.107 294.988 100.713H294.99Z" fill="#EC6F51"/>
<path d="M324.549 105.533C325 104.228 323.601 102.561 321.423 101.809C319.246 101.058 317.116 101.507 316.664 102.813C316.213 104.118 317.613 105.786 319.79 106.537C321.967 107.288 324.098 106.839 324.549 105.533Z" fill="#EC6F51"/>
<path d="M330.21 113.233C329.727 113.304 329.246 113.298 328.767 113.227C328.222 113.146 327.691 112.981 327.199 112.721C326.996 112.614 326.917 112.358 327.031 112.156C327.138 111.952 327.386 111.872 327.59 111.979C328.41 112.414 329.36 112.549 330.263 112.381C330.242 112.681 330.217 112.965 330.211 113.233H330.21Z" fill="#FF9B83"/>
<path d="M468.622 92.4863C468.66 92.4953 468.697 92.5056 468.734 92.516C469.343 92.6897 469.921 93.0993 470.13 93.6974C470.375 94.3935 470.063 95.189 469.546 95.7159C469.029 96.2427 468.339 96.5574 467.663 96.8542C464.067 98.4319 460.35 100.617 456.629 101.872C459.399 100.857 465.462 98.0044 468.169 99.677C468.826 100.082 468.991 101.169 468.83 101.923C468.636 102.84 467.651 103.324 466.781 103.675C464.189 104.726 460.045 106.357 457.95 108.238C459.151 107.16 466.019 106.528 466.068 108.837C466.084 109.619 465.481 110.302 464.782 110.652C464.082 111.004 463.288 111.101 462.521 111.262C456.583 112.51 452.205 117.583 446.566 119.826C443.986 120.851 441.202 121.26 438.563 122.123C434.659 123.403 431.161 125.65 427.614 127.723C426.056 128.634 424.327 129.546 422.542 129.28C420.555 128.985 419.074 127.309 418.027 125.596C417.011 123.932 415.923 122.316 414.871 120.718C418.341 117.481 422.722 114.841 426.407 111.768C430.212 108.595 434.03 105.409 438.245 102.785C445.53 98.2508 454.329 94.6606 462.157 91.1966C462.992 90.8271 463.677 91.017 464.192 91.7695C464.577 92.332 464.26 93.1527 463.705 93.546C463.148 93.9393 462.437 94.018 461.758 94.0848C463.99 93.8651 466.298 91.9075 468.621 92.4863H468.622Z" fill="#FF9B83"/>
<path d="M451.738 98.9722C451.652 98.9633 451.573 98.9069 451.537 98.8209C451.487 98.6962 451.548 98.5537 451.672 98.5032L463.498 93.7347C463.622 93.6827 463.767 93.7451 463.816 93.8697C463.866 93.9944 463.805 94.1369 463.68 94.1873L451.855 98.9559C451.817 98.9722 451.775 98.9767 451.736 98.9722H451.738Z" fill="#EC6F51"/>
<path d="M453.456 103.069C453.367 103.059 453.286 103.001 453.254 102.911C453.206 102.783 453.272 102.643 453.398 102.596L462.458 99.2581C462.585 99.2121 462.725 99.2759 462.773 99.4021C462.82 99.5297 462.755 99.6692 462.628 99.7167L453.569 103.055C453.532 103.068 453.494 103.072 453.457 103.068L453.456 103.069Z" fill="#EC6F51"/>
<path d="M425.349 112.626L434.193 123.977L430.771 125.864L424.795 113.058L425.349 112.626Z" fill="#EC6F51"/>
<path d="M185.942 219.368C187.537 216.33 189.34 214.663 192.964 213.334C193.456 213.154 194.096 213.028 194.571 213.019C198.789 212.94 202.492 215.399 200.815 219.438L193.586 235.703C193.586 235.703 194.209 241.192 191.571 245.044C190.873 246.062 190.264 247.467 188.675 249.703C188.675 249.703 181.445 259.17 179.305 256.693C179.101 256.457 177.996 254.394 180.289 251.484C182.101 249.183 182.912 248.628 184.099 246.988C184.099 246.988 176.267 250.737 173.062 255.178C173.062 255.178 166.183 262.606 164.421 261.647C164.421 261.647 162.523 261.491 162.863 259.483C162.863 259.483 161.567 259.747 161.238 258.109C161.238 258.109 161.657 256.473 163.284 255.287C163.284 255.287 160.622 255.102 161.234 253.29C161.625 252.134 162.433 251.697 164.301 249.575C164.301 249.575 162.496 249.556 163.153 247.638C166.233 243.996 169.744 240.32 173.884 237.898C177.23 235.94 180.239 233.395 182.642 230.349C182.642 230.349 184.61 221.905 185.942 219.367V219.368Z" fill="#FF9B83"/>
<path d="M187.772 232.561C188.731 234.092 188.751 236.063 187.822 238.128C186.976 240.008 183.839 241.96 181.864 242.239C181.757 242.254 181.657 242.179 181.643 242.073C181.628 241.966 181.702 241.866 181.809 241.851C183.688 241.587 186.667 239.742 187.466 237.967C187.983 236.817 188.654 234.615 187.377 232.667C187.295 232.574 187.341 232.457 187.432 232.397C187.522 232.338 187.643 232.362 187.702 232.452C187.726 232.488 187.75 232.523 187.772 232.561Z" fill="#7A4F39"/>
<path d="M272.398 138.761L254.076 181.034L243.314 185.539L230.702 190.819L229.472 191.334L199.441 234.898L181.127 227.66C181.127 227.66 208.866 173.423 213.444 171.325C216.858 169.758 248.015 152.395 263.598 143.683C265.506 142.617 267.183 141.684 268.544 140.922C270.962 139.566 272.398 138.761 272.398 138.761Z" fill="#5C6CA4"/>
<mask id="mask0_49_2319" style="mask-type:luminance" maskUnits="userSpaceOnUse" x="181" y="138" width="92" height="97">
<path d="M272.398 138.761L254.076 181.034L243.314 185.539L230.702 190.819L229.472 191.334L199.441 234.898L181.127 227.66C181.127 227.66 208.866 173.423 213.444 171.325C216.858 169.758 248.015 152.395 263.598 143.683C265.506 142.617 267.183 141.684 268.544 140.922C270.962 139.566 272.398 138.761 272.398 138.761Z" fill="white"/>
</mask>
<g mask="url(#mask0_49_2319)">
<path d="M189.82 227.152L188.289 223.665L192.078 224.083L189.82 227.152Z" fill="white"/>
<path d="M211.184 229.519L209.652 226.031L213.441 226.449L211.184 229.519Z" fill="white"/>
<path d="M232.543 231.884L231.012 228.396L234.801 228.815L232.543 231.884Z" fill="white"/>
<path d="M253.905 234.25L252.375 230.762L256.164 231.181L253.905 234.25Z" fill="white"/>
<path d="M191.944 208.006L190.414 204.518L194.203 204.938L191.944 208.006Z" fill="white"/>
<path d="M213.305 210.371L211.775 206.883L215.564 207.303L213.305 210.371Z" fill="white"/>
<path d="M234.666 212.737L233.137 209.249L236.924 209.669L234.666 212.737Z" fill="white"/>
<path d="M256.03 215.102L254.5 211.615L258.287 212.035L256.03 215.102Z" fill="white"/>
<path d="M194.067 188.86L192.537 185.371L196.324 185.791L194.067 188.86Z" fill="white"/>
<path d="M215.428 191.226L213.898 187.737L217.686 188.157L215.428 191.226Z" fill="white"/>
<path d="M236.791 193.592L235.26 190.103L239.049 190.523L236.791 193.592Z" fill="white"/>
<path d="M258.152 195.957L256.621 192.468L260.41 192.888L258.152 195.957Z" fill="white"/>
<path d="M196.191 169.713L194.66 166.226L198.449 166.644L196.191 169.713Z" fill="white"/>
<path d="M217.553 172.079L216.021 168.591L219.81 169.01L217.553 172.079Z" fill="white"/>
<path d="M238.916 174.444L237.385 170.957L241.174 171.375L238.916 174.444Z" fill="white"/>
<path d="M260.275 176.81L258.744 173.322L262.533 173.741L260.275 176.81Z" fill="white"/>
<path d="M198.314 150.566L196.783 147.078L200.572 147.498L198.314 150.566Z" fill="white"/>
<path d="M219.676 152.932L218.145 149.444L221.933 149.864L219.676 152.932Z" fill="white"/>
<path d="M241.037 155.298L239.506 151.81L243.295 152.23L241.037 155.298Z" fill="white"/>
<path d="M262.4 157.664L260.869 154.176L264.658 154.596L262.4 157.664Z" fill="white"/>
</g>
<path opacity="0.75" d="M268.543 140.922L243.314 185.538L243.109 185.897L230.701 190.819C230.701 190.819 237.953 169.697 263.412 143.862C263.471 143.8 263.529 143.745 263.597 143.682C265.506 142.617 267.182 141.683 268.543 140.922Z" fill="#252040"/>
<path d="M433.368 131.423C433.368 131.423 372.145 166.322 368.524 167.66C364.898 168.994 313.305 179.778 307.869 181.782C302.432 183.785 277.024 247.141 277.024 247.141L225.057 220.865C225.057 220.865 255.468 155.711 261.22 147.961C268.373 138.332 277.431 134.994 277.431 134.994L280.672 129.277C280.672 129.277 290.97 130.417 298.031 137.277C300.607 137.562 303.947 138.802 313.385 139.847C322.389 140.845 357.067 138.369 360.262 138.138C360.418 138.123 360.499 138.118 360.499 138.118L360.948 137.919L423.538 110.368L433.368 131.426V131.423Z" fill="#5C6CA4"/>
<mask id="mask1_49_2319" style="mask-type:luminance" maskUnits="userSpaceOnUse" x="225" y="110" width="209" height="138">
<path d="M277.107 247.172C277.107 247.172 302.432 183.784 307.867 181.78C313.303 179.777 364.898 168.993 368.522 167.659C372.146 166.323 433.367 131.425 433.367 131.425L423.537 110.365L360.502 138.117C360.502 138.117 322.829 140.891 313.386 139.846C303.944 138.8 300.606 137.562 298.031 137.277C290.972 130.417 280.67 129.276 280.67 129.276L277.429 134.996C277.429 134.996 268.37 138.334 261.22 147.961C255.465 155.71 240.118 189.05 235.928 197.613C231.923 205.798 225.006 220.873 225.006 220.873L277.107 247.173V247.172Z" fill="white"/>
</mask>
<g mask="url(#mask1_49_2319)">
<path d="M232.543 231.884L231.012 228.396L234.801 228.815L232.543 231.884Z" fill="white"/>
<path d="M253.905 234.249L252.375 230.762L256.164 231.18L253.905 234.249Z" fill="white"/>
<path d="M275.266 236.615L273.736 233.127L277.525 233.546L275.266 236.615Z" fill="white"/>
<path d="M296.629 238.98L295.1 235.493L298.888 235.911L296.629 238.98Z" fill="white"/>
<path d="M317.989 241.346L316.459 237.858L320.248 238.278L317.989 241.346Z" fill="white"/>
<path d="M339.352 243.712L337.822 240.224L341.611 240.644L339.352 243.712Z" fill="white"/>
<path d="M360.715 246.078L359.186 242.59L362.973 243.01L360.715 246.078Z" fill="white"/>
<path d="M382.075 248.444L380.545 244.956L384.332 245.376L382.075 248.444Z" fill="white"/>
<path d="M234.666 212.736L233.137 209.249L236.924 209.669L234.666 212.736Z" fill="white"/>
<path d="M256.03 215.102L254.5 211.614L258.287 212.034L256.03 215.102Z" fill="white"/>
<path d="M277.389 217.468L275.859 213.98L279.647 214.4L277.389 217.468Z" fill="white"/>
<path d="M298.752 219.834L297.223 216.346L301.01 216.766L298.752 219.834Z" fill="white"/>
<path d="M320.114 222.201L318.584 218.712L322.371 219.132L320.114 222.201Z" fill="white"/>
<path d="M341.477 224.567L339.947 221.078L343.735 221.498L341.477 224.567Z" fill="white"/>
<path d="M362.838 226.933L361.307 223.443L365.095 223.863L362.838 226.933Z" fill="white"/>
<path d="M384.199 229.298L382.668 225.809L386.457 226.229L384.199 229.298Z" fill="white"/>
<path d="M405.561 231.664L404.029 228.174L407.818 228.594L405.561 231.664Z" fill="white"/>
<path d="M236.791 193.591L235.26 190.102L239.049 190.522L236.791 193.591Z" fill="white"/>
<path d="M258.152 195.957L256.621 192.468L260.41 192.888L258.152 195.957Z" fill="white"/>
<path d="M279.514 198.323L277.982 194.833L281.771 195.254L279.514 198.323Z" fill="white"/>
<path d="M300.877 200.688L299.346 197.199L303.134 197.619L300.877 200.688Z" fill="white"/>
<path d="M322.238 203.054L320.707 199.564L324.496 199.984L322.238 203.054Z" fill="white"/>
<path d="M343.602 205.419L342.07 201.93L345.859 202.35L343.602 205.419Z" fill="white"/>
<path d="M364.961 207.785L363.43 204.297L367.218 204.716L364.961 207.785Z" fill="white"/>
<path d="M386.324 210.151L384.793 206.663L388.582 207.082L386.324 210.151Z" fill="white"/>
<path d="M407.686 212.517L406.154 209.029L409.943 209.448L407.686 212.517Z" fill="white"/>
<path d="M238.916 174.444L237.385 170.956L241.174 171.375L238.916 174.444Z" fill="white"/>
<path d="M260.275 176.81L258.744 173.322L262.533 173.74L260.275 176.81Z" fill="white"/>
<path d="M281.639 179.175L280.107 175.688L283.896 176.106L281.639 179.175Z" fill="white"/>
<path d="M303 181.541L301.469 178.053L305.258 178.472L303 181.541Z" fill="white"/>
<path d="M324.361 183.907L322.83 180.419L326.619 180.838L324.361 183.907Z" fill="white"/>
<path d="M345.723 186.273L344.191 182.785L347.98 183.204L345.723 186.273Z" fill="white"/>
<path d="M367.086 188.639L365.555 185.151L369.343 185.571L367.086 188.639Z" fill="white"/>
<path d="M388.447 191.004L386.916 187.517L390.705 187.937L388.447 191.004Z" fill="white"/>
<path d="M409.807 193.37L408.277 189.882L412.066 190.302L409.807 193.37Z" fill="white"/>
<path d="M241.037 155.297L239.506 151.81L243.295 152.23L241.037 155.297Z" fill="white"/>
<path d="M262.4 157.663L260.869 154.175L264.658 154.595L262.4 157.663Z" fill="white"/>
<path d="M283.762 160.029L282.232 156.541L286.021 156.961L283.762 160.029Z" fill="white"/>
<path d="M305.122 162.394L303.592 158.907L307.381 159.327L305.122 162.394Z" fill="white"/>
<path d="M326.485 164.76L324.955 161.272L328.744 161.692L326.485 164.76Z" fill="white"/>
<path d="M347.846 167.125L346.316 163.638L350.105 164.058L347.846 167.125Z" fill="white"/>
<path d="M369.207 169.493L367.678 166.003L371.467 166.423L369.207 169.493Z" fill="white"/>
<path d="M390.569 171.858L389.039 168.369L392.826 168.789L390.569 171.858Z" fill="white"/>
<path d="M411.932 174.225L410.402 170.735L414.19 171.155L411.932 174.225Z" fill="white"/>
<path d="M243.161 136.151L241.631 132.662L245.42 133.082L243.161 136.151Z" fill="white"/>
<path d="M264.522 138.517L262.992 135.028L266.781 135.448L264.522 138.517Z" fill="white"/>
<path d="M285.883 140.883L284.354 137.394L288.141 137.814L285.883 140.883Z" fill="white"/>
<path d="M307.247 143.249L305.717 139.759L309.504 140.179L307.247 143.249Z" fill="white"/>
<path d="M328.608 145.615L327.078 142.125L330.865 142.546L328.608 145.615Z" fill="white"/>
<path d="M349.969 147.98L348.439 144.491L352.227 144.911L349.969 147.98Z" fill="white"/>
<path d="M371.333 150.346L369.803 146.857L373.59 147.277L371.333 150.346Z" fill="white"/>
<path d="M392.693 152.712L391.162 149.224L394.951 149.643L392.693 152.712Z" fill="white"/>
<path d="M414.057 155.078L412.525 151.59L416.314 152.008L414.057 155.078Z" fill="white"/>
<path d="M245.284 117.004L243.754 113.517L247.541 113.935L245.284 117.004Z" fill="white"/>
<path d="M266.647 119.371L265.117 115.883L268.904 116.301L266.647 119.371Z" fill="white"/>
<path d="M288.008 121.736L286.477 118.249L290.265 118.667L288.008 121.736Z" fill="white"/>
<path d="M309.371 124.102L307.84 120.614L311.629 121.033L309.371 124.102Z" fill="white"/>
<path d="M330.732 126.468L329.201 122.98L332.99 123.399L330.732 126.468Z" fill="white"/>
<path d="M352.094 128.833L350.562 125.345L354.351 125.764L352.094 128.833Z" fill="white"/>
<path d="M373.455 131.199L371.924 127.711L375.713 128.129L373.455 131.199Z" fill="white"/>
<path d="M394.818 133.564L393.287 130.077L397.076 130.497L394.818 133.564Z" fill="white"/>
<path d="M416.178 135.93L414.646 132.442L418.435 132.862L416.178 135.93Z" fill="white"/>
<path d="M375.58 112.052L374.049 108.564L377.838 108.984L375.58 112.052Z" fill="white"/>
<path d="M396.941 114.419L395.41 110.93L399.199 111.35L396.941 114.419Z" fill="white"/>
<path d="M418.303 116.785L416.771 113.296L420.56 113.716L418.303 116.785Z" fill="white"/>
</g>
<path d="M278.893 191.868C278.831 191.861 278.773 191.83 278.734 191.775C278.663 191.674 278.687 191.533 278.789 191.461C285.804 186.525 293.999 183.263 302.489 182.028C302.611 182.01 302.727 182.095 302.744 182.218C302.762 182.341 302.678 182.456 302.554 182.473C294.133 183.698 286.006 186.933 279.049 191.83C279.003 191.862 278.947 191.876 278.895 191.87L278.893 191.868Z" fill="#252040"/>
<path d="M280.793 203.775C280.773 203.774 280.754 203.768 280.735 203.76C280.619 203.714 280.562 203.584 280.607 203.468C283.062 197.243 287.512 191.816 293.136 188.187C293.242 188.119 293.381 188.15 293.448 188.254C293.515 188.358 293.485 188.497 293.381 188.566C287.834 192.144 283.447 197.494 281.026 203.633C280.987 203.729 280.891 203.786 280.791 203.774L280.793 203.775Z" fill="#252040"/>
<path d="M360.949 137.917L356.522 144.468C356.473 144.539 356.393 144.576 356.311 144.567C356.275 144.563 356.24 144.551 356.211 144.528C356.106 144.457 356.081 144.319 356.151 144.214L360.262 138.135C360.418 138.12 360.499 138.115 360.499 138.115L360.948 137.917H360.949Z" fill="#252040"/>
<path d="M229.814 191.344C229.728 191.335 229.652 191.275 229.624 191.189C228.839 188.754 226.733 186.762 224.258 186.114C224.137 186.082 224.066 185.959 224.097 185.839C224.128 185.719 224.25 185.643 224.372 185.679C226.993 186.366 229.223 188.475 230.053 191.053C230.091 191.172 230.026 191.298 229.907 191.336C229.876 191.347 229.845 191.35 229.814 191.345V191.344Z" fill="#252040"/>
<path d="M294.208 137.87C294.19 137.869 294.172 137.865 294.154 137.857C287.098 135.241 282.134 135.187 277.756 135.141C277.631 135.14 277.532 135.037 277.533 134.914C277.533 134.789 277.637 134.69 277.76 134.691C282.177 134.739 287.183 134.792 294.312 137.437C294.429 137.48 294.488 137.609 294.444 137.726C294.407 137.826 294.309 137.884 294.208 137.872V137.87Z" fill="#252040"/>
<path d="M299.178 196.243C283.65 204.933 269.655 209.554 256.527 211.76C236.303 215.159 232.304 214.449 203.731 211.76C184.854 209.983 168.077 207.164 159.01 205.967C136.552 203.003 103.157 204.989 56.7305 228.313C59.4915 232.864 62.251 237.416 65.012 241.968C71.1103 238.35 79.784 233.721 90.6854 229.555C99.3368 226.248 122.907 218.069 156.525 218.382C184.08 218.639 250.316 238.659 294.417 206.175C295.384 203.968 298.213 198.452 299.178 196.245V196.243Z" fill="#E86249"/>
</svg>
