<svg width="537" height="537" viewBox="0 0 537 537" fill="none" xmlns="http://www.w3.org/2000/svg">
<path d="M0 0H536.089V536.089H0V0Z" fill="#FEFEFE"/>
<path d="M105.485 434.156C108.159 434.437 110.77 434.622 113.454 434.374C113.394 436.136 113.213 438.003 113.442 439.75C112.503 441.052 110.752 442.764 109.13 443.088C107.841 443.346 106.035 443.028 104.983 442.221C104.842 442.113 104.705 441.998 104.566 441.887L103.406 441.821L104 441.506C103.944 439.603 105.15 436.209 105.485 434.156Z" fill="#EFB180"/>
<path d="M163.016 434.197C166.309 434.82 169.811 433.985 173.036 433.329C173.013 435.258 172.849 437.315 173.124 439.221L173.48 439.538C171.799 441.032 169.692 443.392 167.209 443.177C165.561 443.033 164.527 441.905 163.489 440.743C163.893 438.989 163.224 436.038 163.016 434.197Z" fill="#EFB180"/>
<path d="M457.446 403.564C457.087 402.227 457.326 401.125 457.99 399.919C460.701 394.985 465.15 390.336 470.719 388.86C475.727 387.533 480.866 388.22 485.857 389.197C483.51 395.236 479.692 398.703 473.795 401.273C470.522 402.701 461.502 404.391 458.254 403.712L457.446 403.564Z" fill="#BFD8FE"/>
<path d="M91.6848 442.308C91.3862 443.312 91.0444 444.321 90.8188 445.344C89.958 448.254 89.2037 452.993 87.2652 455.337C84.2827 456.567 74.0426 456.012 70.3318 456.008C69.6542 453.145 69.0506 450.239 68.2344 447.413C67.7873 445.719 67.3249 444.029 66.8477 442.343C75.1199 442.196 83.4099 442.308 91.6848 442.308Z" fill="#4896FE"/>
<path d="M113.442 439.75C114.444 440.02 115.291 440.373 116.185 440.904C118.513 442.288 132.754 452.579 133.914 454.427L133.85 454.863C131.779 455.34 102.09 455.299 100.717 454.756C99.7058 452.831 101.363 447.915 101.909 445.787C102.205 444.587 102.501 442.685 103.406 441.821L104.566 441.887C104.704 441.998 104.841 442.113 104.982 442.221C106.035 443.028 107.84 443.346 109.129 443.089C110.752 442.764 112.502 441.052 113.442 439.75Z" fill="#1A2C34"/>
<path d="M173.48 439.538C176.901 440.948 180.287 442.536 183.376 444.591C186.493 446.45 194.674 450.854 196.491 453.609C196.822 454.111 196.839 454.117 196.717 454.729C194.915 455.434 165.272 455.127 160.967 455.148C161.075 450.878 161.373 444.461 163.49 440.743C164.528 441.905 165.562 443.033 167.21 443.177C169.693 443.392 171.8 441.032 173.48 439.538Z" fill="#1A2C34"/>
<path d="M140.844 82.0141C142.408 81.9234 144.066 81.7789 145.576 82.2764C148.154 83.1262 157.633 94.1059 158.825 96.632C158.709 98.4162 158.593 99.9851 157.698 101.589C156.306 104.081 154.064 104.955 151.461 105.64C148.804 105.912 146.345 105.645 143.907 104.505C140.014 102.686 135.296 98.4849 133.917 94.3389C133.138 91.9973 133.343 89.1446 134.482 86.9489C135.763 84.4778 138.249 82.825 140.844 82.0141Z" fill="#BFD8FE"/>
<path d="M125.331 95.3464C127.956 95.274 129.952 95.7521 132.201 97.162C135.829 99.4368 140.024 103.671 140.872 107.988C141.351 110.423 140.917 113.035 139.429 115.054C137.42 117.783 134.396 118.595 131.228 119.095C128.537 119.134 125.972 118.203 123.745 116.727C120.346 114.475 116.434 110.089 115.703 105.972C115.341 103.933 115.954 101.932 117.14 100.266C118.921 97.7619 122.304 95.8488 125.331 95.3464Z" fill="#BFD8FE"/>
<path d="M483.854 350.212C480.935 355.067 477.928 359.913 475.556 365.066C470.863 375.263 468.905 387.131 456.301 390.236C454.916 390.577 453.59 390.69 452.164 390.641C447.775 399.577 445.61 410.491 444.992 420.42L444.398 420.639C444.889 412.336 446.525 403.724 449.134 395.826C449.739 393.996 450.89 392.334 451.464 390.54C451.62 390.054 451.204 385.481 451.7 383.33C453.494 375.538 461.846 365.996 467.773 360.71C471.737 357.176 478.763 351.863 483.854 350.212Z" fill="#0F9990"/>
<path d="M439.648 370.916C439.739 370.995 440.086 371.253 440.122 371.36C442.111 381.672 443.313 392.442 443.76 402.935C443.857 405.21 443.944 407.497 443.911 409.774C443.873 412.364 442.819 423.074 443.569 424.711L443.915 424.61C444.294 423.288 444.049 421.911 444.399 420.639L444.992 420.42C444.858 421.755 444.502 423.433 445.084 424.688C445.69 424.999 445.666 424.956 446.33 424.768C446.903 424.303 448.749 418.205 449.312 416.976C451.532 412.126 454.923 408.18 457.446 403.564L458.255 403.712C453.385 410.418 449.714 416.778 447.168 424.723C450.143 424.8 461.175 423.931 462.854 426.002C463.247 426.488 463.321 427.144 463.173 427.735C462.954 428.616 462.618 429.631 462.014 430.311C459.03 430.332 455.778 430.142 452.833 430.554C443.369 430.703 433.72 430.887 424.268 430.474C423.508 430.302 422.873 430.117 422.272 429.606C421.571 429.01 420.903 428.049 420.906 427.096C420.908 426.437 421.159 425.829 421.663 425.4C422.163 424.974 422.866 424.759 423.509 424.69C424.877 424.545 426.342 424.752 427.722 424.76L437.941 424.745C436.246 421.295 434.169 418.241 431.759 415.254L432.03 414.641C434.311 417.056 435.851 419.937 437.562 422.751C438.006 423.479 438.447 424.257 439.326 424.474L439.854 424.147C440.144 423.546 440.338 423.003 440.447 422.341C440.778 420.325 440.743 418.108 440.759 416.064C440.84 406.422 438.527 399.239 433.106 391.39L433.405 390.743C433.13 390.062 433.114 389.112 432.927 388.378C432.246 385.724 430.998 383.95 429.106 382.017C432.674 379.873 436.485 377.087 438.7 373.481C438.928 373.109 439.116 372.791 439.422 372.475C439.51 372.385 439.6 372.298 439.689 372.209L439.648 370.916Z" fill="#1755C9"/>
<path d="M439.688 372.209C440.386 375.953 440.981 379.714 441.471 383.491C441.961 387.269 442.346 391.057 442.627 394.855C442.908 398.654 443.084 402.457 443.155 406.265C443.226 410.073 443.192 413.881 443.052 417.687C442.964 419.878 443.175 422.496 442.649 424.61C442.207 424.868 441.771 424.744 441.268 424.718C440.63 423.5 441.335 419.767 441.375 418.229C441.634 408.402 439.574 398.611 433.404 390.743C433.129 390.063 433.114 389.113 432.926 388.379C432.245 385.725 430.998 383.95 429.105 382.017C432.673 379.873 436.484 377.087 438.699 373.481C438.927 373.11 439.115 372.792 439.422 372.475C439.509 372.385 439.6 372.298 439.688 372.209Z" fill="#FEFEFE"/>
<path d="M452.832 430.554C455.777 430.142 459.03 430.332 462.014 430.311C461.56 435.483 461.324 440.769 459.811 445.769C458.842 448.993 457.501 453.587 454.409 455.407C453.688 455.832 453.011 455.97 452.188 456.036C449.825 456.476 435.967 456.517 433.672 456.176C432.456 455.996 431.281 455.631 430.274 454.904C427.238 452.712 427.037 447.384 426.513 443.965C425.573 439.465 424.678 435.061 424.268 430.474C433.72 430.887 443.369 430.703 452.832 430.554Z" fill="#4896FE"/>
<path d="M452.833 430.554C455.778 430.142 459.03 430.332 462.015 430.311C461.561 435.483 461.324 440.769 459.812 445.769C458.843 448.993 457.502 453.587 454.41 455.407C453.689 455.832 453.011 455.97 452.188 456.036L444.738 456C445.494 455.46 446.214 454.895 446.891 454.259C453.12 448.415 452.574 438.405 452.833 430.554Z" fill="#007CFE"/>
<path d="M142.672 177.723C143.583 177.069 144.322 176.72 144.797 175.669C144.683 175.056 144.525 174.521 144.744 173.912C145.54 173.299 146.544 172.767 147.546 172.603C148.582 172.432 149.34 172.925 150.143 173.483C150.682 173.859 151.07 174.136 151.716 174.312C151.99 173.961 152.218 173.67 152.627 173.463C153.596 172.971 154.801 173.614 155.739 173.957C158.316 175.554 159.861 177.355 160.584 180.398C161.114 182.629 161.178 185.656 159.866 187.652C159.527 188.168 159.067 188.61 158.628 189.041C158.368 195.379 158.305 201.978 153.795 206.945C154.498 208.469 155.529 212.01 154.863 213.6C154.84 213.655 154.808 213.705 154.781 213.757L150.625 212.942C145.179 212.055 139.424 211.66 133.914 211.461C136.031 208.804 137.257 205.898 138.735 202.869C137.738 202.27 136.813 201.613 135.994 200.782C133.004 197.747 131.146 192.985 131.129 188.742C131.116 185.591 132.17 182.219 134.505 180.013C136.935 177.716 139.538 177.701 142.672 177.723Z" fill="#1A2C34"/>
<path d="M158.629 189.041C158.369 195.379 158.306 201.977 153.796 206.945C154.499 208.469 155.53 212.01 154.864 213.6C154.841 213.655 154.809 213.705 154.781 213.757L150.625 212.942C145.18 212.055 139.424 211.66 133.914 211.461C136.032 208.804 137.257 205.897 138.735 202.869C139.151 202.985 139.572 203.078 139.997 203.148C141.609 203.431 144.902 203.94 146.231 202.757C148.21 200.994 145.592 196.26 145.648 193.921C145.666 193.162 145.88 192.334 146.54 191.874C147.285 191.355 148.211 191.357 149.062 191.496C150.906 192.977 149.088 195.941 150.263 197.823L150.771 197.708C152.99 195.75 153.617 192.903 154.376 190.164C155.847 189.887 157.212 189.525 158.629 189.041Z" fill="#EFB180"/>
<path d="M153.795 206.945C154.498 208.469 155.529 212.01 154.863 213.6C154.84 213.655 154.808 213.705 154.781 213.757L150.625 212.942C150.685 211.205 150.796 209.471 150.958 207.74L153.795 206.945Z" fill="#FEFEFE"/>
<path d="M373.096 424.614C374.687 421.598 376.853 418.85 379.123 416.318C385.935 408.721 397.372 401.73 407.777 401.235C416.263 400.832 420.639 404.457 426.524 409.852C428.316 411.496 430.234 412.995 432.03 414.64L431.76 415.254C430.591 413.939 429.444 413.061 427.832 412.34C426.572 414.192 425.61 416.223 424.179 417.955C420.224 422.747 413.094 424.984 407.234 426.109C395.124 428.435 382.707 427.357 370.527 428.7C371.324 427.412 372.116 425.742 373.096 424.614Z" fill="#4896FE"/>
<path d="M58.5155 343.317C64.1507 347.384 68.9823 354.451 70.1513 361.365C70.936 366.009 69.8816 371.087 67.0902 374.923C66.463 375.768 65.7739 376.558 65.0227 377.295C65.9964 381.59 67.8451 385.672 69.2334 389.841C69.8402 380.778 71.7302 375.147 78.7375 368.958C81.3714 366.632 85.4224 363.806 88.9116 363.133C89.6292 363.592 89.836 364.143 90.0153 364.968C91.812 373.246 90.8005 381.043 86.0203 388.065C83.4142 391.894 79.1511 396.663 74.4092 397.719C73.7004 397.876 72.8811 397.808 72.1548 397.804C72.0584 399.082 74.9095 406.84 75.5137 408.548C76.6753 412.55 77.6736 416.53 78.516 420.614C79.3128 425.162 80.1327 429.725 80.622 434.319C82.8989 434.321 92.0421 433.621 93.5636 435.041C94.0745 435.517 94.4044 436.033 94.4223 436.751C94.4401 437.44 94.174 438.094 93.6595 438.56C93.3524 438.838 93.0145 438.901 92.625 438.974C92.337 440.09 92.0817 441.225 91.6849 442.308C83.41 442.308 75.12 442.196 66.8477 442.344C66.5285 440.965 66.0426 439.641 65.576 438.307C65.1897 438.279 64.8285 438.161 64.4542 438.063C63.9536 437.485 63.7272 436.948 63.6753 436.186C63.6297 435.52 63.7971 435.068 64.2322 434.566C66.9901 433.563 76.6622 434.244 80.0598 434.269C79.5665 429.617 78.7441 425.027 77.9318 420.423C77.4417 419.288 77.2768 417.601 77.0189 416.37C71.1643 417.696 64.2826 416.336 58.9548 413.744C52.5296 410.619 46.2108 403.432 44.201 396.525C44.0042 395.847 44.0168 395.557 44.3274 394.937C46.9445 393.662 52.0219 394.422 54.8634 394.944C64.8668 396.779 69.6562 401.427 75.1677 409.483C73.6587 403.88 71.4715 398.487 69.6737 392.974C68.5252 388.985 66.2142 381.187 64.1332 377.836C62.7867 375.667 60.0291 374.363 58.4062 372.31C52.9951 365.466 52.3257 353.884 56.5487 346.314C57.1382 345.271 57.7934 344.272 58.5155 343.317Z" fill="#4896FE"/>
<path d="M65.5762 438.307C68.843 438.157 91.0415 438.168 92.6252 438.974C92.3371 440.09 92.0818 441.225 91.685 442.308C83.4102 442.308 75.1201 442.196 66.8479 442.343C66.5287 440.965 66.0427 439.641 65.5762 438.307Z" fill="#1755C9"/>
<path d="M88.7938 143.203C90.5072 144.07 92.0748 149.614 94.3965 151.568C96.5377 152.042 98.6266 152.698 100.724 153.333C102.955 151.761 105.182 150.159 107.539 148.781C112.008 152.036 116.022 156.641 119.75 160.708C118.601 163.191 116.497 165.583 114.983 167.887C115.797 170.763 116.156 173.493 116.349 176.475C119.339 177.209 122.341 178.396 125.203 179.525C124.515 185.02 122.889 190.132 120.66 195.18C117.876 194.354 115.066 193.598 112.27 192.812C110.071 194.787 108.176 197.038 105.87 198.913C106.441 201.641 106.972 204.376 107.466 207.119C102.666 208.387 98.1525 210.36 93.2737 211.468L92.4035 211.494C90.9051 210.831 88.7446 205.988 88.0649 204.418C85.1768 203.791 82.2767 203.225 79.3644 202.721C77.5929 204.518 75.7233 206.099 73.7313 207.647C69.708 204.951 63.8943 199.207 61.5202 194.946C63.2593 193.219 64.6458 191.251 65.9807 189.207C64.8861 186.326 64.2233 183.399 63.7662 180.357C61.4662 178.901 58.7718 177.758 56.373 176.44C56.9143 170.826 58.8122 165.494 61.5291 160.585C64.0228 161.518 66.5487 161.912 69.181 162.234C71.3037 160.236 73.686 158.495 75.8779 156.566C75.1462 153.688 74.4503 150.819 73.8645 147.907C78.5999 145.856 83.8335 144.621 88.7938 143.203Z" fill="#BFD8FE"/>
<path d="M408.596 86.9678C411.327 86.7342 417.486 85.9977 419.692 87.8007C422.385 90.0016 421.269 96.6257 421.703 99.859L421.764 100.287C423.877 100.982 425.976 101.716 428.062 102.489C430.378 99.9298 433.342 94.217 436.882 93.4286C438.285 93.1162 439.798 93.8605 440.96 94.5813C443.165 95.9492 447.049 99.0711 447.533 101.72C448.035 104.472 442.855 109.965 441.265 112.08C443.284 114.073 444.692 116.118 446.129 118.564C448.806 117.764 455.209 115.227 457.643 116.083C459.052 116.579 459.96 118.807 460.476 120.103C461.316 122.211 463.12 126.662 461.913 128.832C460.432 131.499 454.038 133.141 451.244 134.036C451.325 136.719 451.364 139.365 451.237 142.048C454.152 143.101 460.498 144.721 462.131 147.455C462.722 148.444 462.22 150.164 461.902 151.179C461.024 153.987 459.432 158.673 456.699 160.102C453.401 160.456 448.67 158.175 445.475 157.124C444.116 159.239 442.681 161.095 440.91 162.883C442.658 165.587 445.57 169.553 445.706 172.893C445.743 173.834 445.335 174.437 444.707 175.098C443.126 176.76 437.988 180.661 435.661 180.371C432.655 179.996 429.086 174.343 427.362 172.077C425.419 172.914 423.348 173.428 421.314 173.998C421.283 176.08 421.302 178.187 421.161 180.263C421.003 182.601 420.512 184.442 418.71 185.986C417.03 186.567 415.008 186.611 413.236 186.715C411.138 186.838 408.676 186.805 407.054 185.27C404.383 182.742 404.885 177.574 404.868 174.175C402.752 173.443 400.715 172.638 398.678 171.71C396.876 173.911 393.677 179.028 390.888 179.861C389.479 180.283 387.6 179.279 386.43 178.587C384.436 177.407 380.955 175.131 380.458 172.75C379.85 169.84 383.591 164.421 385.25 162.219C383.706 160.581 382.449 158.861 381.164 157.02C378.649 158.118 372.991 160.702 370.252 159.741C368.533 159.137 367.477 157.085 366.723 155.546C365.572 153.197 364.07 150.194 365.072 147.555C366.212 144.553 372.617 142.665 375.394 141.507C375.181 139.122 375.113 136.763 375.08 134.37C372.175 133.194 366.493 131.667 364.881 128.832C364.095 127.448 364.242 125.848 364.703 124.385C365.525 121.777 366.821 117.401 369.456 116.135C372.396 114.722 377.165 116.944 380.074 117.896C381.634 115.742 383.263 113.682 384.952 111.631C383.019 109.422 379.073 104.573 379.086 101.605C379.091 100.569 380.033 99.6562 380.763 99.0174C382.713 97.3106 387.565 93.7942 390.287 94.1617C392.916 94.5166 396.709 100.595 398.438 102.632C400.62 101.864 402.817 101.143 405.03 100.469C405.015 97.2448 404.475 92.8404 405.592 89.7935C406.184 88.1787 407.083 87.6647 408.596 86.9678Z" fill="#4896FE"/>
<path d="M410.48 123.589C411.115 123.51 411.753 123.471 412.393 123.472C413.034 123.473 413.672 123.514 414.307 123.596C414.943 123.677 415.57 123.798 416.19 123.958C416.81 124.118 417.418 124.317 418.013 124.554C418.232 124.639 418.45 124.729 418.666 124.824C418.881 124.92 419.094 125.02 419.305 125.127C419.515 125.233 419.723 125.345 419.927 125.462C420.132 125.578 420.334 125.7 420.532 125.826C420.731 125.954 420.926 126.085 421.118 126.222C421.311 126.359 421.499 126.5 421.684 126.646C421.869 126.793 422.05 126.943 422.227 127.099C422.404 127.254 422.577 127.414 422.747 127.578C422.916 127.742 423.081 127.91 423.242 128.083C423.402 128.255 423.559 128.431 423.711 128.611C423.862 128.792 424.01 128.976 424.153 129.163C424.295 129.351 424.433 129.542 424.566 129.737C424.699 129.931 424.827 130.129 424.95 130.33C425.073 130.531 425.191 130.735 425.303 130.942C425.416 131.149 425.523 131.359 425.626 131.571C425.728 131.783 425.824 131.998 425.916 132.216C427.297 135.528 427.367 139.234 425.944 142.541C423.887 147.324 420.087 149.795 415.432 151.658C412.14 152.002 409.179 151.584 406.242 149.983C406.028 149.867 405.816 149.747 405.608 149.621C405.399 149.495 405.194 149.364 404.993 149.227C404.791 149.09 404.593 148.949 404.398 148.803C404.204 148.656 404.013 148.505 403.826 148.348C403.64 148.192 403.457 148.031 403.278 147.865C403.099 147.7 402.925 147.53 402.755 147.356C402.585 147.181 402.419 147.003 402.259 146.821C402.097 146.638 401.941 146.451 401.789 146.26C401.638 146.07 401.491 145.875 401.35 145.677C401.208 145.479 401.071 145.278 400.94 145.073C400.808 144.868 400.682 144.66 400.561 144.448C400.44 144.236 400.324 144.022 400.214 143.805C400.104 143.588 400 143.368 399.901 143.145C399.802 142.923 399.709 142.698 399.621 142.47C399.534 142.243 399.452 142.013 399.376 141.782C399.3 141.55 399.23 141.317 399.166 141.082C399.108 140.865 399.055 140.646 399.008 140.426C398.96 140.205 398.919 139.984 398.883 139.761C398.846 139.539 398.815 139.316 398.79 139.092C398.765 138.868 398.745 138.644 398.731 138.419C398.717 138.194 398.709 137.969 398.706 137.744C398.704 137.519 398.706 137.293 398.715 137.068C398.723 136.843 398.737 136.618 398.757 136.394C398.777 136.17 398.802 135.946 398.833 135.722C398.864 135.499 398.901 135.277 398.943 135.056C398.985 134.835 399.032 134.614 399.085 134.395C399.138 134.176 399.196 133.959 399.26 133.743C399.324 133.527 399.393 133.312 399.468 133.1C399.542 132.887 399.622 132.676 399.707 132.468C399.793 132.259 399.883 132.053 399.978 131.849C400.073 131.645 400.174 131.443 400.28 131.244C400.385 131.045 400.496 130.849 400.611 130.655C402.85 126.881 406.315 124.68 410.48 123.589Z" fill="#FEFEFE"/>
<path d="M69.6741 392.973C69.5313 392.885 69.3782 392.811 69.2448 392.71C67.4575 391.361 65.7675 389.233 64.2263 387.563C63.5346 386.808 62.856 386.041 62.1908 385.262C61.5259 384.483 60.8745 383.693 60.2366 382.892C59.5986 382.091 58.9745 381.278 58.3644 380.456C57.7547 379.633 57.159 378.8 56.5776 377.957C55.9965 377.113 55.4301 376.26 54.8781 375.397C54.3264 374.534 53.7896 373.662 53.2678 372.781C52.7459 371.9 52.2396 371.01 51.7486 370.11C51.2575 369.212 50.782 368.305 50.3223 367.39C49.8625 366.475 49.4185 365.552 48.9905 364.622C48.5625 363.691 48.1508 362.753 47.755 361.809C47.3595 360.864 46.9802 359.913 46.6172 358.955C46.2544 357.997 45.9082 357.033 45.5785 356.064C45.2488 355.094 44.9361 354.119 44.6399 353.138C44.3437 352.158 44.0648 351.173 43.8027 350.183C43.5406 349.192 43.2958 348.198 43.0681 347.2C42.8403 346.201 42.6298 345.199 42.4367 344.193C42.2859 343.434 42.1449 342.674 42.0128 341.911C41.881 341.149 41.7586 340.385 41.6454 339.619C41.5324 338.854 41.4286 338.087 41.3345 337.319C41.2404 336.551 41.1555 335.782 41.0803 335.012C41.005 334.242 40.9393 333.471 40.8829 332.699C40.8266 331.928 40.7799 331.155 40.7424 330.383C40.7052 329.61 40.6774 328.837 40.6591 328.063C40.6407 327.289 40.6321 326.516 40.6329 325.742C40.6336 324.969 40.6439 324.195 40.6638 323.422C40.6837 322.648 40.7128 321.875 40.7519 321.102C40.7907 320.329 40.8389 319.557 40.8968 318.786C40.9547 318.014 41.0221 317.243 41.0989 316.473C41.1757 315.703 41.2619 314.934 41.3576 314.167C41.4532 313.399 41.5583 312.632 41.6729 311.867C41.7874 311.102 41.9114 310.339 42.0448 309.576C42.1782 308.814 42.3211 308.054 42.4731 307.295C42.6251 306.536 42.7866 305.78 42.9572 305.025C43.1278 304.271 43.3079 303.518 43.4971 302.768C43.6864 302.018 43.8848 301.27 44.0924 300.524C44.2999 299.779 44.5167 299.037 44.7426 298.297C44.9686 297.557 45.2034 296.819 45.4477 296.085C45.6917 295.351 45.9446 294.62 46.2067 293.892C46.4688 293.164 46.7399 292.439 47.0195 291.718C47.2994 290.997 47.5883 290.279 47.8858 289.565C48.1833 288.851 48.4897 288.14 48.8047 287.433C49.1197 286.727 49.4434 286.024 49.7758 285.325C50.1081 284.626 50.4489 283.932 50.7985 283.242C51.1479 282.551 51.5059 281.865 51.8721 281.183C52.2385 280.502 52.6131 279.825 52.996 279.153C53.3792 278.48 53.7705 277.813 54.1697 277.151C54.5689 276.488 54.9764 275.83 55.3921 275.178C55.8078 274.525 56.2314 273.878 56.6628 273.235C58.5929 270.463 60.6344 267.775 62.7876 265.172C64.9403 262.569 67.197 260.06 69.5577 257.643C76.4374 250.657 90.6096 238.813 100.261 237.028C98.6498 239.51 94.4334 245.729 93.7978 248.402C94.36 249.207 94.9434 249.996 95.5478 250.77C96.1522 251.543 96.7771 252.3 97.4221 253.04C98.0669 253.781 98.7308 254.503 99.4146 255.208C100.098 255.913 100.8 256.599 101.52 257.266C102.24 257.934 102.977 258.581 103.732 259.209C104.487 259.837 105.258 260.444 106.045 261.031C106.832 261.618 107.634 262.183 108.452 262.727C109.269 263.271 110.101 263.793 110.946 264.292C111.11 268.802 110.902 273.739 110.32 278.212C109.901 281.244 108.292 304.146 109.25 305.594C109.705 305.701 110.278 305.755 110.654 306.033C110.432 318.405 110.508 330.775 110.879 343.144L111.395 358.593C111.466 361.08 111.681 363.653 111.517 366.133C111.235 370.41 109.429 375.66 108.579 379.997C107.215 386.97 106.375 394.078 105.372 401.113C104.737 405.467 104.239 409.837 103.877 414.222C103.699 416.192 103.816 418.978 103.257 420.842C102.113 420.264 100.648 419.92 99.4217 419.504C95.8831 418.303 92.2307 417.146 88.9481 415.328C87.0594 416.176 85.097 416.676 83.0914 417.157C82.9685 417.062 82.8442 416.969 82.7229 416.873C80.5005 415.113 79.5472 413.363 79.2587 410.57L78.9316 409.67C77.9301 409.191 76.5831 408.336 75.5135 408.547C74.9093 406.839 72.0582 399.081 72.1546 397.803C72.8807 397.807 73.7 397.876 74.409 397.718C79.151 396.662 83.414 391.893 86.0201 388.064C90.8004 381.041 91.8118 373.245 90.0151 364.967C89.8361 364.142 89.6293 363.59 88.9114 363.132C85.422 363.805 81.3712 366.631 78.7374 368.957C71.73 375.146 69.84 380.777 69.2332 389.84C67.8449 385.672 65.9963 381.589 65.0226 377.293C65.7738 376.557 66.4628 375.766 67.09 374.922C69.8814 371.086 70.9359 366.008 70.1511 361.364C68.9822 354.449 64.1506 347.383 58.5153 343.316C57.7933 344.271 57.1377 345.27 56.549 346.313C52.3258 353.882 52.9955 365.465 58.4066 372.309C60.0295 374.362 62.7868 375.666 64.1335 377.835C66.2146 381.187 68.5256 388.985 69.6741 392.973Z" fill="#E6E7E7"/>
<path d="M93.7965 248.403C94.3587 249.208 94.9421 249.997 95.5465 250.771C96.151 251.545 96.7758 252.301 97.4208 253.042C98.0656 253.782 98.7295 254.505 99.4133 255.21C100.097 255.914 100.799 256.6 101.518 257.268C102.239 257.935 102.976 258.583 103.731 259.21C104.486 259.838 105.257 260.445 106.044 261.032C106.831 261.619 107.633 262.184 108.45 262.729C109.268 263.272 110.099 263.794 110.945 264.293C111.108 268.804 110.901 273.74 110.318 278.213C103.966 274.946 92.5793 268.888 88.5938 263.151C88.6283 256.894 91.2449 253.759 93.7965 248.403Z" fill="#EFB180"/>
<path d="M79.2583 410.571C79.2127 402.415 82.3121 395.645 88.0849 389.839C90.8259 387.081 98.5564 381.869 102.421 381.904C103.036 381.91 102.791 381.86 103.339 382.187C105.017 387.183 103.856 396.926 101.461 401.674C98.4783 407.587 93.724 411.02 88.9475 415.329C87.0587 416.177 85.0964 416.677 83.0908 417.158C82.9678 417.063 82.8436 416.97 82.7223 416.874C80.5001 415.114 79.5469 413.365 79.2583 410.571Z" fill="#4896FE"/>
<path d="M155.74 173.957C155.92 170.944 156.265 167.948 156.438 164.934C156.665 160.988 156.714 156.949 157.244 153.033C160.299 130.466 170.63 110.959 187.661 95.8838C205.45 80.1361 231.604 71.162 255.262 72.6675C283.703 74.4779 310.699 86.5508 329.567 108.196C338.182 118.078 346.474 132.992 345.545 146.409C345.249 150.684 344.108 154.897 343.434 159.124C342.064 167.714 341.779 178.811 347.804 185.85C351.501 190.17 356.104 191.596 361.609 191.98C369.193 192.509 376.837 191.051 384.416 190.837C402.482 190.326 419.399 198.679 431.161 212.123C435.704 217.315 438.215 223.208 441.108 229.384L337.141 229.33L337.133 137.935C327.852 137.862 318.569 138.232 309.295 138.162C308.968 136.534 308.454 134.904 308.03 133.295C307.732 132.137 307.526 130.955 307.297 129.78C307.165 129.699 307.041 129.604 306.901 129.538C305.587 128.922 265.786 129.347 260.587 129.348C255.966 129.349 217.48 128.852 215.653 129.799C215.492 130.98 215.384 132.193 215.062 133.342C214.815 134.317 214.581 135.284 214.251 136.235C214.071 136.753 214.061 137.036 214.206 137.582C214.954 138.191 215.851 138.093 216.793 138.171C214.669 138.372 212.514 138.095 210.379 138.072C202.729 137.989 194.583 137.325 187.003 138.294C186.875 140.266 187.031 142.887 186.468 144.75C186.95 146.305 187.473 147.862 187.878 149.438C187.666 151.083 187.002 152.538 186.373 154.057C185.425 155.531 183.728 157.26 184.145 159.181C184.44 160.537 186.108 162.169 187.256 162.884C192.23 165.546 198.337 173.728 202.851 175.117C207.652 176.911 211.092 182.341 215.036 184.089L214.876 184.409C213.579 186.949 211.656 189.103 210.383 191.645C207.793 196.816 207.352 206.648 206.451 212.568C206.786 213.918 206.788 215.081 206.064 216.316C204.779 218.506 201.975 219.423 199.629 219.942C196.317 220.675 192.819 220.83 189.439 220.626L187.058 219.956C176.267 218.549 165.31 216.52 154.782 213.757C154.81 213.705 154.842 213.655 154.865 213.6C155.531 212.01 154.5 208.469 153.797 206.945C158.307 201.977 158.37 195.379 158.63 189.041C159.068 188.61 159.529 188.168 159.868 187.652C161.179 185.656 161.115 182.629 160.586 180.398C159.861 177.354 158.316 175.554 155.74 173.957Z" fill="#E6E7E7"/>
<path d="M184.9 150.815C185.604 148.906 185.278 146.844 185.975 144.936L186.467 144.75C186.949 146.305 187.472 147.862 187.876 149.438C187.664 151.083 187.001 152.538 186.371 154.057C185.799 153.006 185.326 151.872 184.812 150.788L184.9 150.815Z" fill="#007CFE"/>
<path d="M256.487 121.753C256.467 117.456 255.285 109.233 258.515 106.158C259.87 104.868 261.618 104.273 263.409 103.891C265.698 104.477 267.67 105.312 268.976 107.417C271.195 110.99 270.242 117.59 270.184 121.758C276.8 120.933 286.52 121.438 293.402 121.419C297.889 121.407 306.153 120.842 310.274 121.65C311.279 122.629 311.451 123.921 311.484 125.276C311.515 126.56 311.294 128.45 310.319 129.394C309.756 129.939 308.909 130.015 308.168 129.926C307.876 129.891 307.586 129.836 307.297 129.781C307.165 129.7 307.041 129.605 306.901 129.539C305.587 128.922 265.786 129.348 260.587 129.349C255.965 129.35 217.48 128.852 215.653 129.799C215.328 129.835 214.84 129.921 214.504 129.869C213.719 129.746 213.407 129.331 212.949 128.754C212.366 126.831 212.478 123.717 213.183 121.846C215.45 120.711 251.269 121.583 256.487 121.753Z" fill="#4896FE"/>
<path d="M263.099 108.167C263.835 108.252 264.615 108.378 265.305 108.668C266.293 109.083 267.102 109.923 267.505 110.914C267.553 111.028 267.593 111.143 267.628 111.261C267.663 111.379 267.692 111.498 267.715 111.619C267.737 111.739 267.753 111.861 267.763 111.983C267.772 112.106 267.775 112.228 267.772 112.351C267.769 112.474 267.759 112.597 267.743 112.718C267.726 112.84 267.704 112.961 267.674 113.08C267.645 113.2 267.611 113.318 267.569 113.433C267.528 113.549 267.481 113.662 267.427 113.773C266.752 115.178 265.662 115.744 264.264 116.274C264.15 116.269 264.036 116.264 263.923 116.26C263.064 116.238 262.208 116.289 261.431 115.865C260.407 115.306 259.615 114.356 259.31 113.227C259.276 113.103 259.248 112.979 259.226 112.853C259.205 112.727 259.19 112.6 259.182 112.473C259.173 112.345 259.172 112.218 259.177 112.09C259.182 111.962 259.193 111.835 259.211 111.708C259.229 111.582 259.254 111.457 259.285 111.333C259.316 111.209 259.353 111.087 259.397 110.967C259.441 110.847 259.49 110.729 259.546 110.614C259.602 110.5 259.664 110.388 259.731 110.279C260.533 108.983 261.666 108.481 263.099 108.167Z" fill="#F1C17B"/>
<path d="M187.255 162.883C192.229 165.546 198.336 173.728 202.85 175.117C207.651 176.911 211.091 182.341 215.035 184.088L214.875 184.409C213.578 186.949 211.654 189.103 210.382 191.645C207.792 196.816 207.35 206.648 206.45 212.567C206.785 213.918 206.787 215.081 206.063 216.316C204.778 218.506 201.974 219.423 199.628 219.942C196.316 220.675 192.818 220.83 189.438 220.626L187.057 219.956C186.601 218.241 187.135 210.283 187.143 207.852C187.19 192.878 187.432 177.853 187.255 162.883Z" fill="#FEFEFE"/>
<path d="M215.651 129.799C217.478 128.852 255.964 129.35 260.585 129.348C265.784 129.347 305.585 128.922 306.899 129.539C307.039 129.605 307.163 129.7 307.295 129.78C307.524 130.955 307.731 132.137 308.028 133.295C308.452 134.904 308.965 136.534 309.293 138.162C318.567 138.232 327.85 137.862 337.131 137.935L337.139 229.33L337.065 274.29C337.064 282.578 337.372 291.007 337.023 299.281C336.988 300.094 337.008 300.964 336.576 301.676C336.316 301.696 335.983 301.754 335.727 301.729C333.139 301.061 316.304 301.517 312.472 301.539L229.76 301.723C228.707 300.89 191.893 301.85 187.276 301.781C186.754 294.509 187.199 287.01 187.11 279.709L186.991 261.631C186.915 255.479 186.755 249.362 187.161 243.215L189.99 242.55C190.877 234.063 190.225 228.886 189.437 220.626C192.816 220.83 196.314 220.676 199.626 219.943C201.972 219.424 204.776 218.506 206.061 216.317C206.786 215.081 206.784 213.919 206.449 212.568C207.349 206.649 207.791 196.817 210.38 191.646C211.653 189.103 213.576 186.949 214.874 184.409L215.033 184.089C211.09 182.342 207.65 176.912 202.848 175.118C198.334 173.729 192.228 165.546 187.253 162.884C186.106 162.169 184.437 160.538 184.143 159.182C183.726 157.26 185.423 155.531 186.37 154.058C187 152.539 187.663 151.084 187.875 149.439C187.471 147.862 186.947 146.306 186.466 144.751C187.028 142.887 186.872 140.267 187.001 138.295C194.58 137.325 202.727 137.99 210.376 138.072C212.511 138.096 214.666 138.373 216.79 138.172C215.848 138.093 214.952 138.191 214.203 137.583C214.058 137.037 214.068 136.754 214.248 136.236C214.578 135.285 214.812 134.317 215.06 133.342C215.382 132.193 215.49 130.98 215.651 129.799Z" fill="#FEFEFE"/>
<path d="M206.84 169.825C207.56 169.409 208.056 168.975 208.897 168.964C212.229 171.474 217.999 176.308 220.395 179.618C218.309 180.517 216.733 182.201 215.275 183.898L215.035 184.089C211.091 182.342 207.652 176.912 202.85 175.118C203.305 174.558 203.768 174.004 204.237 173.456C205.236 172.349 205.942 171.015 206.84 169.825Z" fill="#1755C9"/>
<path d="M204.237 173.456C206.539 173.353 208.618 175.466 210.244 176.958C212.17 178.724 214.112 180.569 214.984 183.084C215.041 183.246 215.102 183.408 215.16 183.571L215.275 183.898L215.035 184.089C211.091 182.342 207.652 176.912 202.85 175.118C203.305 174.557 203.768 174.004 204.237 173.456Z" fill="#007CFE"/>
<path d="M187.877 149.438C188.052 150.935 188.37 151.428 189.544 152.356C195.646 157.176 204.879 161.654 206.84 169.825C205.943 171.015 205.236 172.349 204.237 173.456C203.768 174.004 203.306 174.558 202.85 175.117C198.336 173.729 192.23 165.546 187.255 162.884C186.108 162.169 184.439 160.538 184.145 159.181C183.728 157.26 185.425 155.531 186.372 154.058C187.002 152.538 187.665 151.083 187.877 149.438Z" fill="#F2F2F2"/>
<path d="M215.651 129.799C217.478 128.852 255.964 129.35 260.585 129.348C265.784 129.347 305.586 128.922 306.899 129.539C307.039 129.605 307.163 129.7 307.295 129.78C307.524 130.955 307.731 132.137 308.029 133.295C308.453 134.904 308.966 136.534 309.294 138.162C305.728 138.41 302.088 138.271 298.511 138.269L279.837 138.25L216.791 138.171C215.849 138.093 214.952 138.191 214.204 137.582C214.059 137.036 214.069 136.754 214.249 136.235C214.579 135.284 214.813 134.317 215.06 133.342C215.383 132.193 215.491 130.98 215.651 129.799Z" fill="#4896FE"/>
<path d="M215.652 129.799C217.479 128.852 255.964 129.35 260.585 129.348C265.785 129.347 305.586 128.922 306.9 129.539C307.039 129.605 307.164 129.7 307.296 129.78C307.524 130.955 307.731 132.137 308.029 133.295C305.493 134.034 296.772 133.515 293.434 133.509L261.533 133.467L231.146 133.415C225.851 133.414 220.323 133.74 215.061 133.342C215.383 132.193 215.491 130.98 215.652 129.799Z" fill="#1755C9"/>
<path d="M259.418 245.737C260.53 245.748 261.652 245.791 262.763 245.756L265.205 245.739C269.809 245.774 274.437 245.687 279.037 245.824C280.238 246.694 281.452 247.598 281.694 249.167C281.856 250.213 281.504 251.227 280.976 252.117C280.577 252.789 279.76 253.829 279.742 254.579C281.026 255.329 281.981 256.257 282.325 257.756C282.652 259.181 282.282 260.496 281.593 261.75C281.294 262.118 280.756 262.618 280.556 263.026C279.31 265.567 282.826 269.852 277.585 270.437C276.372 270.572 275.08 270.472 273.859 270.436C270.328 274.637 267.112 278.984 261.157 279.542C257.477 279.886 253.942 278.432 251.189 276.047C250.214 275.202 248.639 271.315 248.107 271.094C247.388 270.795 245.757 270.918 244.944 270.894C243.597 270.073 242.182 269.1 241.817 267.455C241.598 266.462 241.904 265.514 242.477 264.699C243.095 263.818 244.064 263.279 244.961 262.727C243.997 262.022 242.967 261.307 242.318 260.281C241.693 259.293 241.296 258.147 241.586 256.985C241.897 255.742 243.086 254.984 244.151 254.453C244.563 254.139 244.641 254.055 244.899 253.573C244.599 253.436 244.303 253.29 244.013 253.133C242.71 252.417 241.468 251.158 241.138 249.663C240.96 248.853 241.103 248.037 241.601 247.362C242.51 246.127 243.911 245.972 245.315 245.733C249.181 245.917 253.125 245.824 256.995 245.758L259.418 245.737Z" fill="url(#paint0_linear_49_2648)"/>
<path d="M244.962 262.726C243.998 262.022 242.968 261.307 242.319 260.28C241.694 259.293 241.297 258.147 241.587 256.985C241.898 255.741 243.087 254.984 244.152 254.453C247.231 255.535 277.692 255.79 279.068 255.061C279.455 254.857 279.454 254.833 279.743 254.579C281.027 255.329 281.982 256.257 282.326 257.756C282.652 259.18 282.283 260.496 281.594 261.75C280.841 261.566 280.083 261.395 279.337 261.184C276.305 260.324 248.492 260.598 245.977 261.848C245.562 262.054 245.27 262.391 244.962 262.726Z" fill="#1A2C34"/>
<path d="M259.418 245.737C260.53 245.748 261.652 245.791 262.763 245.756L265.205 245.739C269.809 245.774 274.437 245.687 279.037 245.824C280.238 246.694 281.452 247.598 281.694 249.167C281.856 250.213 281.504 251.227 280.976 252.117C280.577 252.789 279.76 253.829 279.742 254.579C279.453 254.833 279.454 254.857 279.068 255.062C277.691 255.79 247.23 255.535 244.151 254.453C244.563 254.139 244.641 254.055 244.899 253.573C244.599 253.436 244.303 253.29 244.013 253.133C242.71 252.417 241.468 251.158 241.138 249.663C240.96 248.853 241.103 248.037 241.601 247.362C242.51 246.127 243.911 245.972 245.315 245.733C249.181 245.917 253.125 245.824 256.995 245.758L259.418 245.737Z" fill="#1A2C34"/>
<path d="M244.9 253.573C248.36 251.913 275.925 251.475 280.976 252.117C280.578 252.789 279.761 253.829 279.743 254.579C279.454 254.833 279.455 254.858 279.069 255.062C277.692 255.79 247.231 255.535 244.152 254.453C244.564 254.139 244.642 254.055 244.9 253.573Z" fill="#5C5B5C"/>
<path d="M220.394 179.618C221.709 178.999 222.523 178.558 223.95 179.122C224.438 179.314 224.676 179.573 224.981 179.999C225.21 181.28 223.378 183.922 224.163 184.458C225.446 185.336 227.372 184.831 228.841 185.023L229.017 184.998C230.185 185.351 231.359 185.677 232.485 186.153C233.262 186.089 233.959 185.97 234.7 186.273C234.928 186.683 235.009 186.605 234.858 187C234.341 188.347 232.531 189.413 231.385 190.229C230.407 191.188 229.563 192.124 228.737 193.219L227.518 195.201C228.393 195.81 229.357 196.388 230.178 197.062C229.034 200.748 229.033 205.49 227.028 208.8C225.043 210.743 223.37 212.978 221.353 214.885C220.042 222.756 218.16 229.551 211.373 234.438C205.899 238.378 196.737 241.493 189.99 242.55C190.877 234.063 190.225 228.886 189.438 220.626C192.817 220.83 196.315 220.676 199.627 219.943C201.973 219.424 204.777 218.506 206.062 216.316C206.786 215.081 206.784 213.919 206.449 212.568C207.35 206.648 207.791 196.817 210.381 191.645C211.654 189.103 213.577 186.949 214.874 184.409L215.034 184.089L215.274 183.898C216.732 182.201 218.309 180.517 220.394 179.618Z" fill="#EFB180"/>
<path d="M216.632 186.25C216.773 186.293 216.92 186.321 217.054 186.38C217.738 186.685 218.528 187.159 218.781 187.851C218.317 188.479 217.569 188.563 216.853 188.757C216.596 189.219 216.317 189.657 216.027 190.099L215.774 190.133C215.592 188.956 216.132 187.31 216.632 186.25Z" fill="#F1C17B"/>
<path d="M229.017 184.998C230.185 185.35 231.359 185.677 232.485 186.153C228.597 188.551 226.993 192.839 223.712 194.583C223.492 194.211 223.275 193.874 223.268 193.424C223.221 190.308 226.835 187.111 228.841 185.023L229.017 184.998Z" fill="#F47553"/>
<path d="M229.018 184.997C230.787 182.994 232.337 180.809 234.22 178.909C234.626 178.503 235.041 178.106 235.465 177.718C235.889 177.331 236.322 176.953 236.763 176.586C237.204 176.218 237.653 175.86 238.11 175.513C238.567 175.165 239.032 174.828 239.505 174.502C239.977 174.176 240.457 173.86 240.944 173.555C241.43 173.251 241.924 172.957 242.424 172.675C242.924 172.392 243.431 172.121 243.943 171.862C244.455 171.602 244.973 171.355 245.496 171.119C246.02 170.883 246.549 170.659 247.082 170.447C247.616 170.235 248.154 170.035 248.697 169.847C249.24 169.66 249.787 169.484 250.337 169.321C250.888 169.159 251.442 169.008 252 168.87C252.557 168.732 253.117 168.607 253.681 168.495C254.244 168.382 254.809 168.282 255.377 168.195C255.944 168.109 256.514 168.035 257.085 167.974C257.656 167.913 258.228 167.865 258.801 167.83C268.763 167.187 277.872 170.36 285.31 176.986C292.574 183.457 296.98 193.89 297.495 203.528C297.981 212.624 294.253 223.138 288.118 229.871C286.369 231.79 284.401 233.436 282.393 235.076C281.664 238.648 281.1 242.739 279.039 245.823C274.439 245.687 269.811 245.774 265.207 245.738L262.765 245.756C261.653 245.79 260.531 245.747 259.42 245.736L256.997 245.758C253.126 245.824 249.182 245.916 245.317 245.733C244.836 244.28 244.617 242.776 244.05 241.334C242.238 236.725 238.093 234.13 234.829 230.681C229.767 225.331 226.828 216.067 227.029 208.8C229.034 205.491 229.035 200.748 230.18 197.062C229.358 196.388 228.395 195.81 227.519 195.201L228.738 193.219C229.565 192.124 230.408 191.188 231.386 190.229C232.532 189.413 234.342 188.347 234.859 187C235.01 186.605 234.929 186.683 234.702 186.273C233.96 185.97 233.263 186.089 232.487 186.153C231.36 185.677 230.187 185.35 229.018 184.997Z" fill="#4896FE"/>
<path d="M231.384 190.229C234.291 194.656 239.563 197.147 242.725 201.353L240.789 203.754C240.679 203.789 240.573 203.831 240.462 203.859C238.596 204.319 232.047 198.336 230.178 197.062C229.356 196.388 228.393 195.81 227.518 195.201L228.736 193.22C229.563 192.124 230.406 191.188 231.384 190.229Z" fill="#1755C9"/>
<path d="M247.451 211.055C248.421 211.038 249.4 210.991 250.369 211.026C251.02 215.366 259.977 244.417 259.42 245.737L256.997 245.758C255.435 239.397 253.83 233.047 252.184 226.708C251.083 222.422 249.707 214.711 247.451 211.055Z" fill="#BFD8FE"/>
<path d="M247.45 211.054C246.893 210.328 246.495 209.693 246.137 208.849C248.708 204.562 250.129 200.153 255.398 198.597C257.299 198.036 258.669 198.109 260.46 197.085L260.773 196.904C260.659 199.991 257.968 202.47 257.483 205.56C257.374 206.258 257.462 206.936 257.966 207.472C258.809 208.37 260.366 208.084 261.482 208.032L263.412 204.547C262.882 202.368 263.025 199.946 262.618 197.69C263.418 199.621 264.568 201.769 264.551 203.894C264.55 203.978 264.547 204.063 264.544 204.147C265.343 204.157 266.817 201.044 268.583 200.901C268.727 200.889 268.873 200.885 269.018 200.878C267.414 202.853 266.427 205.639 265.088 207.846L272.95 207.775C271.604 205.317 270.926 202.98 270.168 200.292L269.408 200.158L269.513 199.928L269.607 200.078L269.517 199.736L270.402 200.077L270.535 199.753L270.436 200.065C270.504 200.121 270.573 200.176 270.641 200.233C272.386 201.713 276.032 206.869 276.133 209.165C276.166 209.921 275.976 210.218 275.491 210.779C275.444 210.834 275.382 210.874 275.327 210.921C267.172 211.1 258.949 210.591 250.808 211.02L250.368 211.025C249.399 210.991 248.419 211.038 247.45 211.054Z" fill="#FEFEFE"/>
<path d="M258.612 198.629L258.954 198.916C259.174 199.89 255.859 206.299 255.329 207.872L250.703 207.825L250.188 207.68C250.195 207.446 250.183 207.383 250.275 207.132C250.527 206.442 251.179 205.644 251.578 205.016C253.645 201.761 255.177 200.412 258.612 198.629Z" fill="#4896FE"/>
<path d="M250.809 211.021C258.95 210.592 267.173 211.1 275.328 210.921C272.729 214.554 268.459 234.322 266.971 239.952C266.554 241.531 266.153 244.442 265.206 245.739L262.764 245.757C261.653 245.791 260.531 245.748 259.419 245.737C259.977 244.417 251.02 215.365 250.369 211.026L250.809 211.021Z" fill="#4896FE"/>
<path d="M250.809 211.021C258.95 210.592 267.173 211.1 275.328 210.921C272.729 214.554 268.459 234.322 266.971 239.952C266.554 241.531 266.153 244.442 265.206 245.739L262.764 245.757C262.812 243.318 264.415 239.791 265.109 237.287C267.532 228.563 269.806 219.873 272.514 211.226C265.314 211.078 257.986 211.599 250.809 211.021Z" fill="#BFD8FE"/>
<path d="M133.913 211.461C139.423 211.66 145.178 212.056 150.624 212.943L154.78 213.758C165.307 216.521 176.265 218.549 187.056 219.957L189.437 220.626C190.225 228.886 190.877 234.064 189.99 242.55L187.161 243.215C186.756 249.361 186.916 255.478 186.992 261.632L187.11 279.709C187.2 287.01 186.754 294.509 187.276 301.781C191.893 301.851 228.707 300.891 229.76 301.723L312.472 301.539C316.304 301.517 333.139 301.061 335.727 301.73C335.984 301.754 336.316 301.697 336.576 301.676C337.008 300.964 336.988 300.094 337.023 299.281C337.372 291.007 337.064 282.578 337.065 274.291L337.139 229.33L441.107 229.384C448.487 229.363 456.051 229.674 463.408 229.219C463.961 228.992 464.314 229.044 464.875 229.262C466.262 229.802 467.895 232.008 468.964 233.133C477.462 242.071 483.238 252.129 486.94 263.875C493.316 284.107 489.989 306.226 480.213 324.775C474.856 334.94 467.198 344.606 458.983 352.616C453.909 357.563 448.357 362.048 443.397 367.118C442.55 368.189 440.274 370.074 440.121 371.361C440.085 371.253 439.738 370.996 439.647 370.916L439.688 372.209C439.598 372.298 439.509 372.385 439.421 372.475C439.115 372.792 438.926 373.11 438.698 373.482C436.484 377.088 432.672 379.873 429.105 382.017C430.997 383.95 432.245 385.725 432.925 388.379C433.113 389.113 433.129 390.063 433.403 390.743L433.104 391.391L433.031 391.272C429.054 391.542 425.777 390.715 422.069 389.377C417.819 392.636 408.368 395.443 403.02 396.804C389.869 400.149 376.59 401.862 363.616 396.756C358.943 394.917 354.607 392.406 349.988 390.466C338.135 385.488 328.157 382.585 315.458 380.906C311.967 380.445 305.978 379.127 302.676 379.765L318.359 443.276C319.512 448.401 320.774 453.499 322.145 458.571L316.908 458.608C315.397 453.541 314.241 448.356 312.992 443.218C311.65 437.713 310.396 432.189 308.995 426.698C307.398 420.44 305.664 414.238 304.376 407.904C276.8 407.888 249.171 408.435 221.602 407.926C219.751 414.834 217.965 421.758 216.244 428.699C215.005 433.563 213.833 438.576 212.096 443.29C210.444 448.813 209.234 454.447 207.646 459.984L202.399 459.906C203.597 454.428 204.978 448.996 206.54 443.61C208.272 437.243 209.727 430.804 211.447 424.433C213.079 418.387 215.008 412.379 216.395 406.273C206.082 410.945 187.812 418.194 176.681 419.04C176.564 423.36 176.513 427.873 175.951 432.15C174.996 432.59 174.06 433.075 173.036 433.33C169.81 433.986 166.308 434.821 163.015 434.198C162.513 434.061 161.805 433.927 161.385 433.615C159.874 432.492 159.088 424.567 158.788 422.614C156.6 422.455 154.176 423.059 151.966 423.188C144.944 423.601 126.178 425.031 120.02 422.709C119.232 425.426 117.992 432.714 115.441 433.965C114.895 434.233 114.047 434.301 113.453 434.375C110.769 434.623 108.157 434.438 105.483 434.157C104.698 433.854 103.863 433.536 103.341 432.843C101.898 430.926 103.046 423.493 103.256 420.844C103.815 418.98 103.698 416.193 103.876 414.224C104.238 409.839 104.736 405.469 105.371 401.115C106.374 394.08 107.214 386.972 108.578 379.999C109.428 375.662 111.234 370.412 111.516 366.135C111.68 363.655 111.464 361.082 111.394 358.595L110.878 343.146C110.507 330.777 110.431 318.407 110.653 306.035C110.277 305.757 109.704 305.703 109.249 305.596C108.291 304.148 109.9 281.246 110.319 278.214C110.901 273.741 111.109 268.804 110.945 264.294C110.1 263.794 109.268 263.273 108.451 262.729C107.633 262.185 106.831 261.62 106.044 261.033C105.257 260.446 104.486 259.839 103.731 259.211C102.976 258.583 102.239 257.936 101.519 257.268C100.799 256.601 100.097 255.915 99.4137 255.21C98.7299 254.505 98.0657 253.783 97.4212 253.042C96.7762 252.302 96.1516 251.545 95.5469 250.772C94.9425 249.998 94.3591 249.209 93.7969 248.404C94.4325 245.731 98.6489 239.512 100.26 237.03C101.387 235.712 102.362 234.087 103.375 232.668C106.463 228.341 109.507 223.924 113.276 220.154C113.334 220.08 113.385 220.001 113.449 219.931C119.192 213.647 125.658 211.69 133.913 211.461Z" fill="#E6E7E7"/>
<path d="M281.729 318.262L282.189 317.824C284.144 317.56 286.414 317.348 288.337 317.832C288.655 319.253 289.275 321.043 289.1 322.497L282.66 322.568L281.729 318.262Z" fill="#1755C9"/>
<path d="M238.679 318.041L239.148 317.651C240.908 317.421 243.121 317.289 244.84 317.745C244.647 319.4 244.45 321.047 244.171 322.69C242.133 322.658 240.096 322.674 238.058 322.738L237.809 322.339C237.765 320.929 238.331 319.404 238.679 318.041Z" fill="#1755C9"/>
<path d="M401.619 374.002C411.673 374.561 421.07 375.215 429.106 382.016C430.998 383.95 432.246 385.724 432.926 388.378C433.114 389.112 433.13 390.063 433.404 390.742L433.105 391.39L433.032 391.271C429.055 391.541 425.778 390.714 422.071 389.376C418.278 387.186 407.706 379.523 405.936 375.813C404.447 375.308 403.044 374.662 401.619 374.002Z" fill="#97BEFD"/>
<path d="M405.936 375.813C409.156 376.678 412.054 377.776 414.958 379.429C418.794 381.611 422.368 384.141 425.912 386.76C427.715 388.093 429.532 389.664 431.449 390.814C431.968 391.125 432.441 391.2 433.032 391.272C429.055 391.541 425.778 390.714 422.07 389.377C418.278 387.186 407.706 379.524 405.936 375.813Z" fill="#BFD8FE"/>
<path d="M428.617 336.59C429.163 337.11 429.545 337.565 429.956 338.196C437.496 346.201 443.66 355.552 443.405 366.894L443.398 367.118C442.551 368.188 440.274 370.073 440.121 371.36C440.085 371.253 439.739 370.995 439.648 370.916L439.12 370.77C438.84 370.803 438.735 370.835 438.426 370.756C437.646 370.556 436.67 369.906 435.953 369.504C431.916 367.236 428.997 364.138 427.172 359.865C423.999 352.432 425.705 343.827 428.617 336.59Z" fill="#BFD8FE"/>
<path d="M439.121 370.77C437.583 363.854 438.073 358.495 435.494 351.249C434.654 348.888 429.986 339.498 429.957 338.197C437.496 346.201 443.66 355.552 443.406 366.895L443.398 367.118C442.551 368.188 440.275 370.073 440.122 371.36C440.086 371.253 439.739 370.996 439.648 370.916L439.121 370.77Z" fill="#97BEFD"/>
<path d="M223.131 401.877C225.164 401.149 227.152 399.901 229.104 398.958L244.102 391.667C260.625 383.647 278.7 379.741 297.023 379.231C298.964 387.28 301.381 395.141 303.554 403.12L241.869 402.936C239.098 402.94 225.111 403.552 223.333 402.984C222.984 402.476 223.087 402.461 223.131 401.877Z" fill="#FEFEFE"/>
<path d="M229.76 301.723L312.472 301.539L312.362 302.185C312.537 304.228 312.46 306.293 312.436 308.341L315.992 308.395L316.01 318.021L297.977 318.016C294.869 318.013 291.397 318.288 288.336 317.833C286.413 317.348 284.142 317.56 282.188 317.824L281.727 318.262C281.658 318.183 281.668 318.187 281.504 318.122C280.044 317.542 250.044 318.303 244.84 317.745C243.121 317.289 240.909 317.421 239.148 317.651L238.679 318.041C237.472 317.568 211.98 318.012 208.578 318.021C208.619 314.796 208.704 311.573 208.834 308.351C210.154 308.341 211.426 308.288 212.739 308.124C212.85 305.982 212.825 303.837 212.822 301.693C218.467 301.764 224.113 301.774 229.76 301.723Z" fill="#4896FE"/>
<path d="M229.761 301.723L312.473 301.539L312.363 302.185C312.255 304.205 312.247 306.215 312.256 308.238C289.723 307.722 267.089 307.838 244.548 307.854L224.297 307.892C220.509 307.899 216.492 307.661 212.74 308.124C212.851 305.982 212.826 303.837 212.823 301.694C218.468 301.764 224.115 301.774 229.761 301.723Z" fill="#1755C9"/>
<path d="M133.913 211.461C139.423 211.66 145.179 212.056 150.624 212.943L154.78 213.758C165.308 216.521 176.265 218.549 187.056 219.957L189.437 220.626C190.225 228.886 190.878 234.064 189.99 242.55L187.161 243.215C180.564 244.378 174.247 245.439 167.515 245.321L167.559 249.349C168.212 253.89 168.106 258.75 168.301 263.34L169.46 289.152C169.588 291.781 170.681 304.15 170.287 305.558L169.822 305.752C155.856 308.027 141.089 308.759 126.947 307.993C121.468 307.621 116.038 307.166 110.653 306.034C110.277 305.756 109.704 305.703 109.249 305.596C108.291 304.148 109.9 281.245 110.319 278.214C110.901 273.741 111.109 268.804 110.945 264.294C110.1 263.794 109.268 263.273 108.451 262.729C107.633 262.185 106.831 261.619 106.044 261.033C105.257 260.446 104.486 259.839 103.731 259.211C102.976 258.583 102.239 257.935 101.519 257.268C100.799 256.601 100.097 255.915 99.4137 255.21C98.7299 254.505 98.0657 253.782 97.4212 253.042C96.7762 252.302 96.1516 251.545 95.5469 250.772C94.9425 249.998 94.3591 249.208 93.7969 248.404C94.4325 245.731 98.6489 239.512 100.26 237.03C101.387 235.712 102.362 234.087 103.375 232.668C106.463 228.341 109.507 223.924 113.276 220.154C113.334 220.079 113.385 220 113.449 219.931C119.192 213.647 125.659 211.69 133.913 211.461Z" fill="#4896FE"/>
<path d="M147.092 225.924C148.45 230.244 149.832 234.096 152.832 237.593C156.4 241.751 162.008 244.876 167.516 245.32L167.559 249.349C167.541 250.237 167.487 251.113 167.406 251.999C167.134 252.094 167.133 252.113 166.794 252.121C164.451 252.177 158.036 248.077 156.172 246.418C149.879 240.817 147.587 234.119 147.092 225.924Z" fill="#007CFE"/>
<path d="M113.276 220.153C114.16 221.853 112.34 230.752 112.139 233.268C111.671 239.112 111.385 244.964 111.28 250.826C111.227 255.191 111.667 260.01 110.945 264.293C110.1 263.794 109.268 263.272 108.451 262.728C107.633 262.184 106.831 261.619 106.044 261.032C105.257 260.446 104.486 259.838 103.731 259.21C102.976 258.582 102.239 257.935 101.519 257.268C100.799 256.6 100.097 255.914 99.4137 255.21C98.7299 254.504 98.0657 253.782 97.4212 253.042C96.7762 252.302 96.1516 251.545 95.5469 250.771C94.9425 249.997 94.3591 249.208 93.7969 248.403C94.4325 245.731 98.6489 239.511 100.26 237.029C101.387 235.711 102.362 234.086 103.375 232.667C106.463 228.34 109.507 223.924 113.276 220.153Z" fill="#007CFE"/>
<path d="M126.947 307.993C141.089 308.759 155.856 308.026 169.822 305.751C170.057 311.075 171.146 316.533 171.876 321.816C173.178 331.235 174.419 340.662 175.601 350.097C176.236 354.917 177.156 359.753 177.555 364.597C177.946 369.35 177.763 374.225 177.735 378.993C177.656 392.352 176.837 405.695 176.682 419.039C176.564 423.359 176.513 427.872 175.952 432.148C174.997 432.589 174.06 433.073 173.036 433.328C169.811 433.984 166.308 434.819 163.016 434.196C162.513 434.06 161.805 433.926 161.385 433.614C159.874 432.49 159.089 424.566 158.789 422.612C156.6 422.453 154.177 423.057 151.966 423.187C144.945 423.599 126.179 425.03 120.02 422.707C119.232 425.424 117.993 432.713 115.442 433.963C114.896 434.231 114.047 434.3 113.453 434.374C110.769 434.621 108.158 434.437 105.484 434.156C104.698 433.852 103.863 433.534 103.342 432.841C101.898 430.925 103.047 423.492 103.257 420.843C103.816 418.978 103.699 416.192 103.876 414.222C104.238 409.837 104.737 405.468 105.372 401.114C106.374 394.079 107.214 386.971 108.579 379.998C109.429 375.661 111.235 370.411 111.517 366.134C111.681 363.653 111.465 361.081 111.394 358.593L110.879 343.145C110.507 330.776 110.432 318.406 110.653 306.033C116.038 307.166 121.468 307.62 126.947 307.993Z" fill="#1A2C34"/>
<path d="M139.294 338.185C140.567 340.434 141.541 342.907 142.632 345.252C146.116 352.737 149.416 360.479 154.273 367.195C153.157 383.624 156.184 406.199 158.788 422.613C156.6 422.454 154.176 423.058 151.965 423.188C144.944 423.6 126.178 425.03 120.02 422.708C122.719 412.855 125.288 402.928 128.174 393.13C130.77 384.314 133.873 375.394 135.794 366.418C136.417 363.506 136.521 360.398 136.828 357.436C137.489 351.056 138.134 344.495 139.294 338.185Z" fill="#E6E7E7"/>
<path d="M463.408 229.219L463.892 229.53C464.287 232.304 463.913 235.496 463.914 238.312L463.966 257.447L464.049 326.927L380.301 326.931C365.58 326.937 350.749 327.295 336.04 326.853C335.242 326.829 333.712 326.94 333.114 326.436C332.7 324.901 332.473 303.369 332.802 302.671C333.053 302.14 333.349 301.823 333.937 301.731C334.491 301.644 335.163 301.717 335.728 301.729C335.985 301.754 336.317 301.696 336.577 301.676C337.009 300.964 336.989 300.094 337.024 299.281C337.373 291.007 337.065 282.578 337.066 274.29L337.14 229.33L441.107 229.384C448.488 229.363 456.051 229.673 463.408 229.219Z" fill="#4896FE"/>
<path d="M359.517 275.696C360.894 275.723 362.603 275.696 363.555 276.879C364.027 277.467 364.154 278.094 364.049 278.826C363.853 280.196 362.629 281.374 361.558 282.116C361.015 282.193 360.482 282.249 359.937 282.145C359.061 281.979 358.232 281.4 357.755 280.65C357.697 280.558 357.644 280.462 357.596 280.364C357.547 280.266 357.504 280.165 357.465 280.063C357.427 279.96 357.394 279.856 357.366 279.751C357.337 279.645 357.314 279.538 357.297 279.43C357.279 279.322 357.267 279.213 357.26 279.104C357.254 278.995 357.252 278.886 357.256 278.777C357.26 278.667 357.27 278.558 357.284 278.45C357.299 278.342 357.32 278.234 357.345 278.128C357.627 276.901 358.483 276.287 359.517 275.696Z" fill="#FEFEFE"/>
<path d="M430.942 277.3C432.312 276.334 433.321 275.726 435.046 275.955C435.875 276.065 436.64 276.483 437.125 277.177C437.69 277.984 437.863 279.087 437.628 280.039C437.418 280.89 436.909 281.635 436.135 282.064C435.307 282.523 434.239 282.53 433.36 282.208C432.673 281.956 432.077 281.442 431.507 280.995C431.085 279.736 430.93 278.627 430.942 277.3Z" fill="#FEFEFE"/>
<path d="M401.235 288.929L386.246 289.123C382.36 289.167 377.813 289.642 374.028 288.741C373.519 288.62 373.022 288.466 372.534 288.279C372.046 288.093 371.574 287.874 371.115 287.624C370.657 287.374 370.217 287.094 369.796 286.786C369.374 286.477 368.976 286.141 368.599 285.779C366.608 283.882 365.206 281.101 365.193 278.318C365.18 275.33 366.816 272.372 368.931 270.344C370.444 268.894 372.421 267.809 374.474 267.368C377.789 266.655 381.55 267.019 384.932 267.032L399.983 267.049C397.874 270.242 396.403 274.398 396.584 278.273L396.525 279.857C397.146 282.515 398.177 284.534 399.744 286.765C400.235 287.466 400.867 288.163 401.235 288.929Z" fill="#E6E7E7"/>
<path d="M396.525 279.857L381.311 279.952C378.6 279.993 375.66 280.331 372.975 279.996C372.019 279.876 371.042 279.692 370.279 279.074L370.302 278.623C371.297 278.029 372.503 277.915 373.642 277.835C376.465 277.639 395.301 277.173 396.584 278.273L396.525 279.857Z" fill="#97BEFD"/>
<path d="M399.983 267.049C403.752 263.612 407.495 261.479 412.719 261.72C416.806 261.907 420.39 263.564 423.125 266.626C425.567 269.359 426.984 272.662 428.573 275.921C428.778 276.324 428.932 276.917 429.368 277.078C429.886 277.269 430.397 277.275 430.941 277.3C430.929 278.627 431.084 279.736 431.506 280.995L428.7 281.407C426.293 286.261 422.986 290.578 417.695 292.465C413.624 293.918 409.138 293.321 405.334 291.404C403.905 290.684 402.569 289.807 401.235 288.929C400.866 288.163 400.235 287.466 399.744 286.766C398.178 284.534 397.146 282.516 396.525 279.857L396.585 278.273C396.403 274.398 397.874 270.243 399.983 267.049Z" fill="#FEFEFE"/>
<path d="M423.488 276.083C425.183 275.975 426.875 275.95 428.573 275.921C428.778 276.325 428.932 276.917 429.368 277.078C429.886 277.269 430.397 277.275 430.941 277.3C430.929 278.627 431.084 279.736 431.506 280.995L428.699 281.407C427.012 281.5 425.322 281.49 423.633 281.498C423.948 279.599 423.86 277.958 423.488 276.083Z" fill="#817F81"/>
<path d="M423.633 281.498C422.598 282.515 421.624 283.152 420.126 283.198C418.919 283.234 417.798 282.701 416.969 281.838C416.852 281.718 416.741 281.592 416.637 281.461C416.532 281.329 416.435 281.193 416.344 281.051C416.254 280.91 416.17 280.764 416.094 280.615C416.018 280.465 415.95 280.312 415.89 280.155C415.829 279.998 415.777 279.839 415.733 279.677C415.689 279.515 415.653 279.351 415.626 279.186C415.598 279.02 415.579 278.853 415.568 278.685C415.558 278.518 415.556 278.35 415.562 278.183C415.612 277.124 416.052 276.117 416.849 275.409C417.836 274.532 419.426 274.174 420.717 274.303C421.908 274.421 422.75 275.225 423.489 276.083C423.861 277.958 423.949 279.599 423.633 281.498Z" fill="#1A2C34"/>
<defs>
<linearGradient id="paint0_linear_49_2648" x1="261.751" y1="278.777" x2="261.754" y2="261.236" gradientUnits="userSpaceOnUse">
<stop stop-color="#393938"/>
<stop offset="1" stop-color="#535353"/>
</linearGradient>
</defs>
</svg>
