<svg width="406" height="406" viewBox="0 0 406 406" fill="none" xmlns="http://www.w3.org/2000/svg">
<path d="M147.331 21.3203C124.826 30.0127 28.8079 67.1007 5.21777 156.534C-21.6847 258.513 58.7721 378.574 169.987 400.695C285.353 423.642 415.668 369.704 405.432 286.128C400.762 247.999 348.831 236.463 351.234 191.554C353.579 147.731 408.786 126.248 403.002 74.0959C402.639 70.8213 401.474 61.0085 396.546 51.1957C368.572 -4.52614 241.876 -15.1975 147.331 21.3203Z" fill="#DFEBFF"/>
<path d="M194.375 143.89C190.879 144.762 187.46 141.845 182.157 137.319C175.712 131.819 171.222 127.985 170.982 121.811C170.774 116.393 173.924 111.357 177.554 108.668C179.639 107.124 182.799 106.412 189.119 104.987C196.352 103.359 197.281 104.002 201.472 102.358C206.351 100.446 207.114 98.7821 209.357 99.2036C212.989 99.8892 216.264 105.245 216.19 110.243C216.095 116.857 210.209 117.849 203.573 128.642C198.027 137.663 198.524 142.852 194.373 143.888L194.375 143.89Z" fill="black"/>
<path d="M175.534 166.145C187.337 162.294 205.321 159.531 226.817 166.378C234.655 168.874 240.277 175.774 241.244 183.942L258.755 284.768C259.623 292.098 249.826 299.224 242.924 301.84C235.713 304.573 224.813 307.156 209.383 307.156C192.839 307.156 180.814 308.116 174.106 305.177C168.537 302.738 160.153 296.837 159.871 290.763L161.087 187.126C160.65 177.682 166.547 169.076 175.534 166.143V166.145Z" fill="#5479F7"/>
<path d="M258.224 209.469C258.224 209.469 244.245 170.751 228.57 167.028L236.539 221.891L258.224 209.469Z" fill="#5479F7"/>
<path d="M136.82 225.09C136.82 225.09 142.413 204.293 146.704 192.599C155.379 168.965 173.937 166.737 173.937 166.737V224.915L136.82 225.088V225.09Z" fill="#5479F7"/>
<path d="M208.199 176.767C192.733 176.767 178.856 170.291 178.696 170.216C178.33 170.043 178.175 169.606 178.348 169.24C178.521 168.874 178.96 168.718 179.324 168.892C179.504 168.976 197.417 177.329 214.983 174.842C215.381 174.789 215.756 175.064 215.813 175.465C215.871 175.867 215.591 176.237 215.19 176.295C212.851 176.625 210.506 176.77 208.199 176.77V176.767Z" fill="black"/>
<path d="M202.195 244.636L270.842 244.531C272.581 244.529 274.094 243.34 274.511 241.652L288.284 185.755C288.872 183.367 287.062 181.06 284.604 181.064L215.956 181.169C214.217 181.171 212.704 182.36 212.287 184.048L198.514 239.943C197.926 242.331 199.736 244.638 202.195 244.633V244.636Z" fill="#99B9FF"/>
<path d="M202.187 245.368C200.79 245.368 199.496 244.738 198.633 243.64C197.77 242.539 197.466 241.128 197.801 239.768L211.574 183.871C212.071 181.85 213.873 180.437 215.956 180.432L284.603 180.328H284.61C286.007 180.328 287.303 180.958 288.164 182.056C289.029 183.157 289.331 184.568 288.996 185.928L275.223 241.823C274.726 243.844 272.924 245.257 270.843 245.261L202.196 245.366H202.19L202.187 245.368ZM284.608 181.797H284.603L215.956 181.901C214.551 181.901 213.333 182.857 212.998 184.222L199.226 240.119C198.999 241.037 199.206 241.989 199.789 242.732C200.37 243.473 201.247 243.899 202.19 243.899H202.194L270.841 243.795C272.246 243.795 273.464 242.839 273.799 241.474L287.572 185.577C287.798 184.659 287.592 183.707 287.01 182.964C286.427 182.223 285.553 181.797 284.61 181.797H284.608Z" fill="black"/>
<path d="M283.221 208.841L281.214 214.434L264.696 206.601C264.696 206.601 255.631 214.474 277.648 224.511C286.822 228.693 283.224 208.841 283.224 208.841H283.221Z" fill="white"/>
<path d="M279.946 225.827C279.161 225.827 278.291 225.612 277.344 225.179C267.944 220.893 262.843 216.413 262.184 211.861C261.67 208.304 264.112 206.137 264.217 206.046C264.436 205.855 264.749 205.813 265.013 205.937L280.801 213.425L282.535 208.593C282.649 208.28 282.961 208.085 283.288 208.109C283.618 208.136 283.889 208.382 283.949 208.71C284.193 210.055 286.216 221.944 282.205 225.066C281.555 225.572 280.801 225.825 279.951 225.825L279.946 225.827ZM264.858 207.49C264.321 208.118 263.329 209.591 263.64 211.677C264.052 214.439 266.87 218.794 277.952 223.843C279.407 224.509 280.503 224.529 281.298 223.91C283.501 222.195 283.367 216.085 282.91 211.881L281.905 214.683C281.834 214.878 281.686 215.033 281.495 215.113C281.304 215.191 281.089 215.186 280.9 215.098L264.858 207.488V207.49Z" fill="black"/>
<path d="M182.579 193.265C182.579 193.265 151.749 210.634 145.391 216.083C139.033 221.532 132.137 225.669 141.127 237.55C150.117 249.43 188.301 201.735 188.301 201.735C188.301 201.735 195.651 202.94 198.2 192.928C198.2 192.928 210.608 193.353 211.052 189.458L193.547 186.354C191.284 185.952 188.968 186.698 187.366 188.346L182.577 193.265H182.579Z" fill="white"/>
<path d="M145.095 240.186C145.061 240.186 145.03 240.186 144.997 240.186C143.122 240.161 141.625 239.422 140.542 237.996C131.825 226.477 137.731 221.541 143.444 216.769C143.932 216.36 144.425 215.95 144.913 215.531C151.14 210.193 179.924 193.924 182.125 192.681L186.842 187.838C188.617 186.017 191.172 185.191 193.677 185.637L211.182 188.741C211.563 188.808 211.827 189.161 211.783 189.547C211.321 193.589 201.848 193.74 198.76 193.682C196.335 202.221 190.323 202.574 188.63 202.503C185.524 206.35 157.829 240.186 145.092 240.19L145.095 240.186ZM192.337 186.982C190.68 186.982 189.076 187.647 187.896 188.859L183.106 193.777C183.057 193.826 183.001 193.871 182.939 193.904C182.631 194.077 152.099 211.3 145.869 216.642C145.374 217.066 144.877 217.481 144.385 217.893C138.492 222.816 133.84 226.706 141.714 237.108C142.519 238.171 143.599 238.699 145.017 238.717C145.046 238.717 145.075 238.717 145.101 238.717C157.61 238.717 187.427 201.651 187.729 201.276C187.896 201.07 188.16 200.968 188.421 201.01C188.692 201.052 195.148 201.946 197.491 192.746C197.575 192.411 197.892 192.178 198.227 192.193C202.591 192.342 208.641 191.743 210.037 190.021L193.422 187.075C193.06 187.011 192.697 186.98 192.335 186.98L192.337 186.982Z" fill="black"/>
<path d="M208.869 405.505L211.043 304.231C211.043 304.231 227.188 342.205 222.476 405.505H256.001C258.814 395.657 261.074 384.595 262.15 372.528C266.111 328.09 247.133 278.749 242.702 267.953C242.121 266.538 240.952 265.455 239.492 264.998C231.408 262.462 203.223 255.78 174.208 274.387C172.839 275.266 171.963 276.737 171.848 278.361C171.022 289.964 168.427 340.168 179.24 405.507H208.871L208.869 405.505Z" fill="black"/>
<path d="M195.454 389.008C195.454 389.008 195.432 389.008 195.423 389.008C180.168 388.349 178.44 367.578 178.424 367.368C178.393 366.964 178.697 366.611 179.101 366.582C179.509 366.551 179.857 366.855 179.888 367.259C179.904 367.456 181.537 386.94 195.487 387.541C195.891 387.559 196.206 387.901 196.188 388.307C196.17 388.702 195.847 389.01 195.456 389.01L195.454 389.008Z" fill="white"/>
<path d="M212.472 319.271C212.077 319.271 211.751 318.956 211.739 318.559L211.16 299.04C211.154 298.794 211.269 298.559 211.471 298.419L221.71 291.22C222.04 290.987 222.497 291.064 222.733 291.397C222.965 291.728 222.886 292.187 222.555 292.42L212.64 299.393L213.206 318.517C213.217 318.923 212.9 319.26 212.494 319.271C212.487 319.271 212.478 319.271 212.472 319.271Z" fill="white"/>
<path d="M187.55 161.262C190.568 159.263 192.329 155.84 192.247 152.221L191.903 137.199C191.801 137.104 191.699 137.008 191.599 136.915C191.599 136.915 185.582 137.317 184.706 134.253C183.83 131.187 188.085 130.601 188.085 130.601C188.085 130.601 184.067 122.144 194.461 122.244C197.254 122.27 198.251 117.642 202.832 116.606C202.832 116.606 205.097 116.413 207.393 122.355L212.423 129.798L209.911 131.176C210.53 134.006 210.797 137.128 210.417 140.436C210.306 141.39 209.652 142.189 208.738 142.484C207.981 142.728 206.965 142.987 205.765 143.127L206.575 153.182C206.93 157.583 209.237 161.59 212.851 164.126C216.343 166.575 219.564 168.306 219.564 168.306C219.564 168.306 201.03 170.842 179.719 165.976C179.719 165.976 183.834 163.727 187.553 161.264L187.55 161.262Z" fill="white"/>
<path d="M207.194 169.686C199.868 169.686 190.013 169.078 179.555 166.69C179.258 166.622 179.034 166.378 178.991 166.076C178.949 165.774 179.098 165.477 179.366 165.33C179.406 165.308 183.5 163.065 187.147 160.649C189.96 158.786 191.593 155.642 191.515 152.239L191.183 137.665C189.643 137.691 184.88 137.525 184.003 134.454C183.73 133.503 183.841 132.611 184.323 131.87C184.993 130.843 186.242 130.321 187.094 130.073C186.659 128.782 186.093 126.257 187.384 124.236C188.562 122.392 190.963 121.482 194.47 121.507H194.486C195.409 121.507 196.123 120.77 197.213 119.572C198.459 118.199 200.01 116.491 202.673 115.887C202.706 115.881 202.739 115.874 202.772 115.872C203.238 115.825 205.685 115.94 208.05 122.006L213.033 129.381C213.149 129.551 213.186 129.762 213.138 129.964C213.089 130.164 212.958 130.337 212.778 130.434L210.742 131.55C211.347 134.574 211.483 137.587 211.145 140.513C211.003 141.749 210.147 142.794 208.962 143.176C208.184 143.429 207.376 143.622 206.551 143.755L207.305 153.119C207.642 157.306 209.816 161.097 213.271 163.522C216.687 165.918 219.878 167.638 219.911 167.656C220.19 167.806 220.344 168.119 220.286 168.432C220.23 168.745 219.977 168.987 219.662 169.029C219.567 169.042 214.715 169.683 207.194 169.683V169.686ZM181.754 165.67C197.676 169.009 211.88 168.277 217.22 167.811C215.953 167.059 214.218 165.983 212.428 164.727C208.614 162.051 206.213 157.865 205.841 153.241L205.031 143.187C205 142.794 205.286 142.446 205.679 142.399C206.65 142.286 207.602 142.08 208.51 141.787C209.149 141.581 209.61 141.017 209.685 140.351C210.023 137.414 209.859 134.379 209.193 131.331C209.124 131.013 209.273 130.687 209.557 130.53L211.363 129.54L206.784 122.765C206.753 122.718 206.728 122.669 206.708 122.618C204.88 117.891 203.181 117.396 202.894 117.345C200.742 117.866 199.442 119.297 198.295 120.562C197.168 121.804 196.103 122.978 194.484 122.978C194.413 122.978 194.344 122.978 194.277 122.978C191.391 122.978 189.488 123.668 188.618 125.03C187.276 127.133 188.731 130.257 188.747 130.288C188.846 130.499 188.84 130.745 188.729 130.951C188.618 131.158 188.416 131.297 188.183 131.331C187.644 131.406 186.118 131.799 185.547 132.677C185.299 133.059 185.255 133.509 185.41 134.055C185.996 136.103 190.038 136.294 191.549 136.187C191.751 136.174 191.952 136.245 192.099 136.385L192.398 136.664C192.545 136.8 192.629 136.988 192.634 137.186L192.977 152.208C193.066 156.119 191.189 159.733 187.952 161.876C185.712 163.36 183.307 164.778 181.751 165.672L181.754 165.67Z" fill="black"/>
<path d="M205.763 143.127C205.763 143.127 199.167 143.357 196.547 139.77L205.763 143.127Z" fill="white"/>
<path d="M205.485 143.863C204.1 143.863 198.467 143.646 195.954 140.203C195.714 139.877 195.787 139.417 196.113 139.178C196.44 138.938 196.899 139.011 197.138 139.338C199.501 142.574 205.676 142.393 205.735 142.395C206.153 142.37 206.481 142.697 206.494 143.103C206.507 143.509 206.192 143.848 205.786 143.861C205.755 143.861 205.651 143.866 205.485 143.866V143.863Z" fill="black"/>
<path d="M187.06 124.152C186.705 124.152 186.395 123.894 186.337 123.535C186.259 123.056 184.511 111.721 189.756 105.868C191.906 103.468 194.912 102.343 198.697 102.532C199.1 102.552 199.413 102.895 199.393 103.301C199.373 103.707 199.025 104.007 198.624 103.998C195.309 103.834 192.691 104.792 190.852 106.844C186.075 112.173 187.77 123.191 187.788 123.302C187.852 123.701 187.579 124.078 187.18 124.143C187.14 124.149 187.102 124.152 187.062 124.152H187.06Z" fill="#CADDFF"/>
<path d="M193.449 129.474C193.917 125.778 191.548 122.432 188.158 122.004C187.785 121.958 186.409 121.922 186.046 121.946C183.104 122.144 181.588 124.629 181.174 127.921C180.725 131.471 182.076 134.788 185.251 135.418C185.382 135.444 186.323 135.52 186.458 135.52C190.172 135.533 192.981 133.17 193.449 129.474Z" fill="#5479F7"/>
<path d="M191.981 129.354C192.376 125.649 189.942 122.352 186.545 121.988C183.149 121.627 180.074 124.336 179.679 128.041C179.284 131.746 181.718 135.043 185.114 135.406C188.511 135.768 191.586 133.059 191.981 129.354Z" fill="#99B9FF"/>
<path d="M236.585 82.6221L202.996 77.231L220.106 31.9165L253.695 37.3099L236.585 82.6221Z" fill="#5479F7"/>
<path d="M198.456 75.8019L171.496 65.0196L187.421 22.7734L214.217 34.0239L198.456 75.8019Z" fill="#5479F7"/>
<path d="M203.063 77.2443C201.494 77.9587 199.282 77.3153 198.457 75.8022L214.318 33.4385C215.087 34.987 217.286 35.6992 218.883 35.0314L203.063 77.2443Z" fill="#5479F7"/>
<path d="M203.879 74.9837C202.311 75.6981 200.099 75.0547 199.273 73.5417L214.97 31.646C215.74 33.1946 217.938 33.9067 219.536 33.2389L203.879 74.9837Z" fill="black"/>
<path d="M202.46 76.0152C200.909 76.0152 199.352 75.2187 198.628 73.892C198.526 73.7056 198.511 73.4838 198.586 73.2841L214.283 31.3884C214.385 31.1156 214.64 30.9292 214.933 30.9137C215.223 30.9092 215.499 31.0579 215.627 31.3197C216.211 32.4933 217.972 33.0968 219.252 32.5621C219.521 32.4489 219.834 32.5066 220.044 32.7107C220.255 32.9148 220.324 33.2232 220.222 33.4961L204.565 75.2409C204.497 75.4228 204.359 75.5715 204.184 75.6513C203.642 75.8976 203.052 76.0152 202.46 76.0152ZM200.091 73.4549C200.772 74.349 202.187 74.775 203.307 74.42L218.383 34.226C217.225 34.2704 216.051 33.8577 215.203 33.1145L200.091 73.4549Z" fill="black"/>
<path d="M173.795 63.5686L199.249 73.7918L201.029 72.2832L215.378 33.9927L212.363 32.8058L188.882 20.0645L173.023 57.7625L173.795 63.5686Z" fill="white"/>
<path d="M199.387 74.6372L173.126 64.0923L172.27 57.6651L172.347 57.4809L188.521 19.0352L212.674 32.1425L216.319 33.5757L201.648 72.7226L199.385 74.6394L199.387 74.6372ZM174.466 63.0473L199.112 72.9444L200.408 71.8462L214.438 34.4099L212.013 33.4515L189.244 21.094L173.776 57.8625L174.466 63.0473Z" fill="black"/>
<path d="M173.053 57.6076C173 57.7496 173.071 57.9049 173.213 57.9559C175.431 58.7413 191.423 64.4919 197.076 69.0799L201.025 72.2857L216.009 32.3003L212.85 29.6358C207.838 25.4094 193.839 20.0493 189.346 18.392C188.567 18.1058 187.707 18.5007 187.416 19.2772L173.051 57.6076H173.053Z" fill="white"/>
<path d="M201.357 73.497L196.616 69.6477C191.027 65.1107 174.801 59.2936 172.97 58.6458C172.715 58.5571 172.513 58.3707 172.398 58.1267C172.285 57.8848 172.274 57.6008 172.369 57.3479L186.734 19.0175C187.165 17.8661 188.454 17.276 189.605 17.7019C193.874 19.2749 208.201 24.7481 213.329 29.0721L216.885 32.0717L201.359 73.4948L201.357 73.497ZM173.907 57.4234C177.771 58.8055 192.119 64.1102 197.541 68.5096L200.7 71.0721L215.146 32.5287L212.381 30.197C207.436 26.026 193.308 20.6349 189.097 19.0819C188.7 18.9377 188.256 19.1396 188.108 19.5367L173.909 57.4256L173.907 57.4234Z" fill="black"/>
<path d="M201.027 72.2833L204.111 74.9279L234.945 79.9884L250.178 38.6452L247.959 34.816C247.899 34.7139 247.786 34.6562 247.671 34.6695C246.411 34.8182 239.276 35.6169 236.316 34.8448C231.775 33.6579 226.998 33.6889 222.403 34.6584L216.506 35.9008L201.03 72.2833H201.027Z" fill="white"/>
<path d="M235.423 80.8136L203.79 75.6221L200.141 72.4939L215.979 35.264L222.249 33.9439C227.141 32.9145 232.066 32.981 236.496 34.1391C238.677 34.7071 243.829 34.3921 247.578 33.9461C247.989 33.8973 248.384 34.097 248.59 34.452L250.984 38.5807L250.864 38.9046L235.423 80.8158V80.8136ZM204.431 74.2377L234.464 79.1674L249.366 38.7161L247.463 35.4326C245.562 35.65 239.019 36.3111 236.126 35.5546C231.913 34.4542 227.221 34.3921 222.55 35.3749L217.028 36.5374L201.911 72.0724L204.431 74.2355V74.2377Z" fill="black"/>
<path d="M215 70.4352C217.006 70.5262 219.005 70.8035 220.968 71.2694C227.436 72.8002 232.958 74.4774 232.958 74.4774L247.796 34.8869C247.875 34.6739 247.76 34.4387 247.543 34.3744C246.156 33.9617 241.355 32.5596 235.882 31.2617C231.236 30.1613 226.404 30.1103 221.732 31.0931L216.008 32.3L201.023 72.2855L207.029 71.0608C209.658 70.5239 212.336 70.3154 215.003 70.4374L215 70.4352Z" fill="white"/>
<path d="M232.96 75.2098C232.889 75.2098 232.818 75.1987 232.747 75.1787C232.743 75.1787 231.831 74.9014 230.316 74.4688C224.561 72.8315 218.593 71.9995 212.574 71.9951L207.777 71.9906C207.371 71.9906 207.043 71.6623 207.043 71.2563C207.043 70.8503 207.371 70.5219 207.777 70.5219L212.574 70.5264C218.726 70.5308 224.832 71.3827 230.715 73.0578C231.478 73.2752 232.089 73.4527 232.51 73.5769L246.98 34.9692C245.276 34.4656 240.781 33.1744 235.718 31.9741C231.217 30.907 226.431 30.8493 221.881 31.8077L216.55 32.9303L201.707 72.5364C201.565 72.9158 201.142 73.1088 200.762 72.9668C200.383 72.8248 200.19 72.4011 200.332 72.0217L215.316 32.0384C215.405 31.8033 215.607 31.6302 215.851 31.577L221.575 30.3701C226.336 29.3673 231.343 29.4272 236.053 30.5431C241.56 31.8476 246.396 33.2631 247.747 33.6647C248.042 33.7512 248.293 33.962 248.433 34.2393C248.573 34.5188 248.588 34.8449 248.479 35.1378L233.642 74.7283C233.531 75.0212 233.253 75.2053 232.954 75.2053L232.96 75.2098Z" fill="black"/>
<path d="M240.414 39.6194C240.347 39.6194 240.278 39.6105 240.212 39.5905L239.293 39.3265C237.607 38.8407 236.387 38.4901 233.081 37.707C228.584 36.6398 223.801 36.5844 219.253 37.5428C218.858 37.6249 218.468 37.372 218.383 36.9771C218.299 36.5799 218.554 36.1917 218.949 36.1074C223.71 35.1046 228.713 35.1645 233.419 36.2804C236.758 37.0725 237.991 37.4274 239.697 37.9177L240.611 38.1795C241.002 38.2905 241.228 38.6965 241.115 39.0869C241.024 39.4086 240.729 39.6194 240.409 39.6194H240.414Z" fill="#99B9FF"/>
<path d="M239.166 44.6376C239.1 44.6376 239.033 44.6288 238.964 44.6088C236.812 43.9943 235.277 43.5883 231.339 42.6542C226.84 41.5871 222.059 41.5316 217.511 42.4901C217.114 42.5766 216.725 42.3192 216.641 41.9243C216.557 41.5294 216.812 41.1389 217.207 41.0546C221.968 40.0518 226.971 40.1117 231.676 41.2277C235.643 42.1684 237.192 42.5788 239.366 43.2C239.756 43.3109 239.983 43.7169 239.87 44.1074C239.779 44.4291 239.484 44.6399 239.164 44.6399L239.166 44.6376Z" fill="#99B9FF"/>
<path d="M236.654 49.2725C236.587 49.2725 236.518 49.2636 236.452 49.2436C234.75 48.7578 233.774 48.5293 231.638 48.0279C231.003 47.8792 230.264 47.7062 229.377 47.4954C227.001 46.9319 224.556 46.6479 222.111 46.6479C222.107 46.6479 222.1 46.6479 222.098 46.6479C221.692 46.6479 221.363 46.3195 221.363 45.9135C221.363 45.5075 221.696 45.1814 222.109 45.1792C224.669 45.1792 227.227 45.4787 229.712 46.0666C230.599 46.2774 231.336 46.4504 231.968 46.5991C234.129 47.1049 235.114 47.3379 236.849 47.8326C237.239 47.9436 237.466 48.3495 237.353 48.74C237.262 49.0617 236.967 49.2725 236.647 49.2725H236.654Z" fill="#99B9FF"/>
<path d="M235.424 54.484C235.358 54.484 235.289 54.4752 235.223 54.4552C234.721 54.3132 234.249 54.1734 233.772 54.0337C232.148 53.5567 230.466 53.0642 227.464 52.352C222.967 51.2849 218.184 51.2294 213.636 52.1878C213.241 52.2699 212.85 52.017 212.766 51.6221C212.682 51.225 212.937 50.8367 213.332 50.7524C218.093 49.7496 223.096 49.8095 227.801 50.9254C230.841 51.6465 232.54 52.1457 234.184 52.6271C234.657 52.7669 235.127 52.9044 235.624 53.0464C236.015 53.1573 236.241 53.5633 236.128 53.9538C236.037 54.2755 235.742 54.4863 235.422 54.4863L235.424 54.484Z" fill="#99B9FF"/>
<path d="M231.196 57.9781C231.134 57.9781 231.069 57.9714 231.007 57.9537C229.15 57.4612 227.333 57.0041 225.605 56.5937C221.108 55.5266 216.327 55.4689 211.776 56.4295C211.379 56.5116 210.991 56.2587 210.907 55.8638C210.822 55.4689 211.078 55.0784 211.472 54.9941C216.234 53.9913 221.236 54.0512 225.942 55.1671C227.681 55.5798 229.512 56.0413 231.382 56.536C231.775 56.6403 232.008 57.0418 231.903 57.4345C231.817 57.7629 231.52 57.9803 231.193 57.9803L231.196 57.9781Z" fill="#99B9FF"/>
<path d="M223.61 61.0311C223.559 61.0311 223.508 61.0267 223.457 61.0156C219.113 60.0904 214.694 60.0882 210.323 61.0067C209.926 61.0888 209.538 60.8359 209.454 60.441C209.369 60.0438 209.624 59.6556 210.019 59.5713C214.594 58.6084 219.218 58.6106 223.763 59.5802C224.161 59.6645 224.413 60.0549 224.329 60.4498C224.256 60.7937 223.952 61.0311 223.613 61.0311H223.61Z" fill="#99B9FF"/>
<path d="M228.978 67.8575C228.911 67.8575 228.843 67.8486 228.776 67.8287C226.724 67.2429 225.754 67.0144 222.535 66.2512L221.745 66.0649C217.248 64.9977 212.465 64.9423 207.917 65.9007C207.52 65.985 207.132 65.7299 207.047 65.335C206.963 64.9401 207.218 64.5496 207.613 64.4653C212.372 63.4625 217.377 63.5224 222.083 64.6383L222.872 64.8269C226.114 65.5945 227.094 65.8275 229.175 66.4221C229.566 66.533 229.792 66.939 229.679 67.3295C229.588 67.6512 229.293 67.8619 228.974 67.8619L228.978 67.8575Z" fill="#99B9FF"/>
<path d="M201.046 30.998C200.922 30.998 200.796 30.9669 200.68 30.8981C196.691 28.5864 192.578 26.7538 190.266 25.8886C189.887 25.7466 189.694 25.3228 189.836 24.9435C189.978 24.5641 190.404 24.3733 190.781 24.5131C193.144 25.3983 197.348 27.2707 201.414 29.6269C201.765 29.831 201.885 30.2791 201.681 30.6297C201.545 30.8648 201.299 30.9957 201.046 30.9957V30.998Z" fill="#99B9FF"/>
<path d="M206.702 43.7793C206.486 43.7793 206.271 43.6839 206.127 43.502C203.274 39.9168 198.491 37.3743 194.233 35.2755C193.869 35.0958 193.721 34.6565 193.9 34.2927C194.08 33.9288 194.519 33.7802 194.883 33.9577C199.285 36.1297 204.235 38.7653 207.276 42.5879C207.529 42.9052 207.476 43.3667 207.159 43.6196C207.023 43.7261 206.861 43.7793 206.702 43.7793Z" fill="#99B9FF"/>
<path d="M204.323 50.5925C204.139 50.5925 203.957 50.5237 203.813 50.3862C200.094 46.7965 196.658 44.964 192.553 42.9384C189.785 41.5718 188.174 40.8818 186.619 40.214C186.164 40.0187 185.711 39.8257 185.237 39.615C184.866 39.453 184.695 39.0204 184.859 38.6477C185.021 38.2772 185.454 38.1063 185.827 38.2705C186.299 38.4768 186.747 38.6698 187.2 38.8651C188.775 39.5395 190.401 40.2384 193.206 41.6228C197.425 43.7038 200.962 45.594 204.833 49.3301C205.124 49.6119 205.133 50.0756 204.851 50.3684C204.707 50.5171 204.516 50.5925 204.323 50.5925Z" fill="#99B9FF"/>
<path d="M202.874 55.4754C202.688 55.4754 202.504 55.4066 202.359 55.2646C199.165 52.1275 196.358 50.7675 192.804 49.0504C192.285 48.7997 191.75 48.5401 191.202 48.2694C189.62 47.4885 187.928 46.6831 186.173 45.8756C185.804 45.707 185.645 45.2699 185.813 44.9016C185.982 44.5333 186.417 44.3714 186.787 44.5422C188.553 45.3564 190.257 46.1662 191.85 46.9538C192.396 47.2222 192.926 47.4796 193.443 47.7303C196.973 49.4386 200.021 50.9117 203.387 54.2196C203.675 54.5036 203.679 54.9673 203.395 55.2579C203.251 55.4044 203.063 55.4776 202.872 55.4776L202.874 55.4754Z" fill="#99B9FF"/>
<path d="M201.091 60.0948C200.903 60.0948 200.716 60.0239 200.572 59.8796C197.797 57.1042 194.717 55.5645 191.458 53.9339C190.728 53.57 189.996 53.2017 189.262 52.8201C188.902 52.6316 188.763 52.1901 188.951 51.8306C189.138 51.4712 189.581 51.3315 189.941 51.52C190.666 51.8994 191.392 52.261 192.115 52.6227C195.334 54.2334 198.664 55.8995 201.608 58.8436C201.894 59.1298 201.894 59.5935 201.608 59.8819C201.464 60.0261 201.278 60.0971 201.089 60.0971L201.091 60.0948Z" fill="#99B9FF"/>
<path d="M199.554 65.266C199.339 65.266 199.123 65.1706 198.979 64.9887C196.144 61.4257 185.67 56.8377 180.603 55.2714C180.214 55.1515 179.999 54.7411 180.119 54.3529C180.239 53.9668 180.652 53.7472 181.038 53.8692C185.952 55.3889 196.958 60.0901 200.128 64.0747C200.381 64.3919 200.328 64.8534 200.011 65.1063C199.876 65.2128 199.714 65.266 199.554 65.266Z" fill="#99B9FF"/>
<path d="M234.946 80.7253C234.649 80.7253 234.37 80.5434 234.259 80.2483L232.242 74.8705C232.1 74.4911 232.293 74.0673 232.672 73.9253C233.052 73.7833 233.475 73.9741 233.617 74.3557L235.634 79.7336C235.776 80.113 235.583 80.5367 235.204 80.6787C235.119 80.7098 235.031 80.7253 234.946 80.7253Z" fill="black"/>
<path d="M231.569 87.2878C230.193 87.2878 229.27 87.1214 229.237 87.1147C228.84 87.0393 228.578 86.6555 228.654 86.2583C228.729 85.859 229.115 85.5994 229.51 85.6749C229.94 85.7569 240.079 87.5473 242.38 77.6103C242.471 77.2154 242.866 76.9669 243.261 77.0601C243.656 77.1511 243.902 77.546 243.811 77.9409C241.912 86.143 235.181 87.2878 231.567 87.2878H231.569Z" fill="white"/>
<path d="M181.768 19.8495C181.644 19.8495 181.519 19.8184 181.404 19.7518C181.053 19.5499 180.931 19.1018 181.131 18.749C181.167 18.6869 184.778 12.5725 193.027 14.536C193.422 14.6291 193.664 15.024 193.571 15.419C193.477 15.8139 193.08 16.0557 192.688 15.9625C185.495 14.252 182.436 19.4257 182.405 19.479C182.269 19.7163 182.021 19.8472 181.768 19.8472V19.8495Z" fill="white"/>
<path d="M75.3658 224.178C91.6229 224.178 104.802 210.999 104.802 194.742C104.802 178.485 91.6229 165.306 75.3658 165.306C59.1087 165.306 45.9297 178.485 45.9297 194.742C45.9297 210.999 59.1087 224.178 75.3658 224.178Z" fill="white"/>
<path d="M79.1643 224.91C78.8005 224.91 78.4854 224.639 78.4366 224.269C78.3856 223.867 78.6696 223.499 79.0711 223.448C90.1441 222.042 99.4444 214.23 102.763 203.543C107.471 188.395 99.0073 172.172 83.8966 167.385C76.5819 165.066 68.8191 165.741 62.0347 169.284C55.2436 172.831 50.2474 178.826 47.9667 186.167C46.4847 190.935 46.2628 196.022 47.3233 200.881C47.4098 201.276 47.1591 201.668 46.762 201.755C46.3671 201.841 45.9744 201.591 45.8879 201.194C44.7741 196.086 45.0071 190.74 46.5623 185.73C48.9606 178.014 54.212 171.711 61.3536 167.981C68.4863 164.256 76.6485 163.549 84.338 165.985C100.216 171.016 109.108 188.06 104.163 203.978C100.673 215.211 90.8962 223.424 79.2553 224.903C79.2242 224.908 79.1932 224.91 79.1621 224.91H79.1643Z" fill="black"/>
<path d="M63.4141 206.538V183.003C63.4141 181.803 64.6742 181.02 65.7502 181.55L89.2849 193.171C90.4807 193.761 90.4896 195.465 89.3004 196.069L65.7658 207.982C64.6875 208.528 63.4141 207.745 63.4141 206.538Z" fill="#5479F7"/>
<path d="M64.5347 219.046C64.3528 219.046 64.1687 218.977 64.0267 218.842C63.7338 218.563 63.725 218.097 64.0045 217.804L66.2519 215.459C66.5315 215.166 66.9974 215.157 67.2902 215.437C67.5831 215.716 67.5919 216.182 67.3124 216.475L65.065 218.82C64.9208 218.971 64.7278 219.046 64.5347 219.046Z" fill="black"/>
<path d="M56.6715 227.257C56.4895 227.257 56.3054 227.189 56.1634 227.053C55.8705 226.774 55.8617 226.308 56.1412 226.017L58.3886 223.672C58.6682 223.379 59.1341 223.368 59.4269 223.65C59.7198 223.932 59.7287 224.395 59.4491 224.686L57.2017 227.031C57.0575 227.182 56.8645 227.257 56.6715 227.257Z" fill="black"/>
<path d="M58.8739 219.173C58.6875 219.173 58.5012 219.102 58.3592 218.962L56.0785 216.717C55.7901 216.433 55.7856 215.967 56.0696 215.679C56.3536 215.39 56.8195 215.386 57.1079 215.67L59.3886 217.915C59.677 218.199 59.6815 218.665 59.3975 218.953C59.2533 219.1 59.0647 219.173 58.8739 219.173Z" fill="black"/>
<path d="M66.8583 227.031C66.6719 227.031 66.4856 226.96 66.3436 226.82L64.0629 224.575C63.7744 224.291 63.77 223.825 64.054 223.536C64.338 223.248 64.8039 223.244 65.0923 223.528L67.373 225.773C67.6614 226.057 67.6658 226.523 67.3819 226.811C67.2376 226.958 67.0491 227.031 66.8583 227.031Z" fill="black"/>
<path d="M326.831 123.51C326.712 123.51 326.59 123.482 326.477 123.419C326.122 123.224 325.993 122.778 326.19 122.423L349.714 79.851C349.909 79.496 350.355 79.3651 350.71 79.5648C351.065 79.7601 351.194 80.206 350.996 80.561L327.473 123.133C327.34 123.375 327.089 123.513 326.829 123.513L326.831 123.51Z" fill="white"/>
<path d="M331.356 129.088C331.107 129.088 330.863 128.961 330.726 128.731C330.517 128.382 330.63 127.932 330.979 127.726L362.662 108.783C363.01 108.575 363.461 108.688 363.667 109.036C363.876 109.385 363.763 109.835 363.414 110.041L331.731 128.983C331.613 129.054 331.482 129.088 331.356 129.088Z" fill="white"/>
<path d="M321.634 110.895C321.583 110.895 321.532 110.891 321.478 110.88C321.081 110.796 320.83 110.405 320.915 110.008L327.468 79.3738C327.553 78.9766 327.948 78.7259 328.34 78.8103C328.737 78.8946 328.988 79.285 328.904 79.6822L322.35 110.316C322.277 110.66 321.971 110.898 321.634 110.898V110.895Z" fill="white"/>
<path d="M293.816 118.731L288.531 138.268C286.94 144.15 295.459 151.571 307.562 154.843C319.662 158.116 330.762 156.001 332.352 150.12L337.637 130.583L293.818 118.731H293.816Z" fill="white"/>
<path d="M318.635 157.137C315.185 157.137 311.347 156.625 307.371 155.551C301.414 153.94 296.107 151.289 292.431 148.086C288.613 144.76 286.978 141.206 287.823 138.075L293.108 118.538C293.214 118.146 293.618 117.915 294.008 118.022L337.828 129.873C338.016 129.924 338.176 130.048 338.271 130.217C338.367 130.386 338.393 130.585 338.345 130.774L333.06 150.311C331.877 154.684 326.187 157.137 318.632 157.137H318.635ZM294.332 119.63L289.241 138.459C288.548 141.017 290.024 144.043 293.394 146.981C296.906 150.04 302.006 152.58 307.753 154.136C319.245 157.244 330.185 155.316 331.642 149.929L336.734 131.1L294.33 119.632L294.332 119.63Z" fill="black"/>
<path d="M340.038 126.552L320.133 110.964C319.751 110.698 319.287 110.573 318.824 110.609L293.776 114.041L284.828 111.621L284.241 113.793C284.167 114.063 284.247 114.374 284.522 114.565L312.505 133.973C312.887 134.239 313.351 134.363 313.814 134.328L347.765 131.67C348.1 131.643 348.324 131.415 348.397 131.146L348.985 128.974L340.038 126.554V126.552Z" fill="#5479F7"/>
<path d="M348.701 128.198L320.718 108.79C320.337 108.523 319.873 108.399 319.409 108.435L285.458 111.093C284.791 111.146 284.558 112.007 285.108 112.388L313.091 131.796C313.472 132.063 313.936 132.187 314.4 132.151L348.351 129.493C349.019 129.44 349.251 128.579 348.701 128.198Z" fill="white"/>
<path d="M314.243 132.892C313.684 132.892 313.131 132.722 312.67 132.4L284.687 112.992C284.177 112.639 283.952 112.025 284.114 111.426C284.276 110.826 284.78 110.409 285.399 110.361L319.35 107.703C319.984 107.649 320.614 107.825 321.134 108.184L349.117 127.592C349.627 127.945 349.851 128.56 349.689 129.159C349.527 129.758 349.023 130.175 348.404 130.221L314.456 132.879C314.385 132.886 314.314 132.888 314.243 132.888V132.892ZM319.565 109.165C319.532 109.165 319.499 109.165 319.465 109.169L285.514 111.827L313.506 131.197C313.75 131.366 314.045 131.444 314.34 131.424L348.231 128.77L320.297 109.396C320.082 109.247 319.825 109.167 319.563 109.167L319.565 109.165Z" fill="black"/>
<path d="M330.251 141.427C330.186 141.427 330.122 141.419 330.058 141.403C329.667 141.297 329.434 140.895 329.541 140.502L331.872 131.883L316.476 120.892C316.145 120.657 316.07 120.198 316.305 119.87C316.54 119.539 316.999 119.464 317.327 119.699L333.139 130.985C333.39 131.162 333.501 131.477 333.421 131.772L330.956 140.884C330.867 141.21 330.572 141.425 330.248 141.425L330.251 141.427Z" fill="black"/>
<path d="M330.433 140.021C329.821 139.855 329.184 140.192 328.975 140.793L323.125 157.707L327.831 158.981L331.303 141.423C331.427 140.8 331.045 140.187 330.433 140.023V140.021Z" fill="#5479F7"/>
<path d="M75.3646 156.447C74.9941 156.447 74.6769 156.17 74.6369 155.793C74.6281 155.704 74.3951 153.559 74.2953 149.872C74.2842 149.466 74.6037 149.128 75.0097 149.117C75.0163 149.117 75.023 149.117 75.0296 149.117C75.4268 149.117 75.7529 149.432 75.764 149.832C75.8616 153.452 76.0945 155.611 76.0968 155.633C76.1411 156.037 75.8505 156.399 75.4467 156.443C75.4201 156.445 75.3935 156.447 75.3668 156.447H75.3646ZM75.0119 144.709H74.9963C74.5903 144.7 74.2686 144.365 74.2775 143.961C74.3152 142.009 74.3996 140.021 74.526 138.053C74.5526 137.649 74.9009 137.345 75.3047 137.368C75.7085 137.394 76.0169 137.743 75.9903 138.146C75.866 140.092 75.7839 142.058 75.7462 143.99C75.7374 144.389 75.4112 144.709 75.0119 144.709ZM75.7618 132.975C75.7351 132.975 75.7085 132.975 75.6819 132.97C75.2781 132.926 74.9875 132.564 75.0318 132.163C75.2448 130.199 75.5022 128.227 75.7995 126.301C75.8616 125.9 76.2365 125.627 76.6359 125.689C77.0374 125.751 77.3103 126.126 77.2482 126.525C76.9554 128.429 76.7002 130.379 76.4894 132.323C76.4495 132.697 76.13 132.977 75.7618 132.977V132.975ZM77.5566 121.358C77.5078 121.358 77.459 121.354 77.4102 121.343C77.013 121.263 76.7557 120.875 76.8378 120.478C77.2327 118.536 77.6786 116.597 78.1623 114.714C78.2621 114.321 78.6637 114.084 79.0563 114.186C79.449 114.285 79.6842 114.687 79.5844 115.08C79.1074 116.939 78.6681 118.854 78.2776 120.77C78.2066 121.119 77.9005 121.358 77.5588 121.358H77.5566ZM80.4851 109.984C80.4119 109.984 80.3365 109.973 80.2633 109.95C79.8772 109.828 79.662 109.416 79.784 109.03C80.3808 107.135 81.0353 105.256 81.7275 103.441C81.8717 103.062 82.2955 102.871 82.6748 103.017C83.0542 103.162 83.2428 103.585 83.0986 103.965C82.4175 105.753 81.7741 107.605 81.184 109.471C81.0863 109.784 80.7957 109.984 80.4851 109.984ZM84.6738 99.0172C84.5717 99.0172 84.4697 98.9973 84.3698 98.9507C84.0016 98.7821 83.8374 98.3472 84.006 97.9789C84.8291 96.1686 85.7143 94.3848 86.635 92.6743C86.828 92.3171 87.274 92.184 87.6289 92.377C87.9861 92.57 88.1192 93.0137 87.9262 93.3709C87.021 95.0504 86.1514 96.8053 85.3416 98.5868C85.2196 98.8575 84.9533 99.0172 84.6738 99.0172ZM90.2446 88.6942C90.1093 88.6942 89.974 88.6565 89.852 88.581C89.5103 88.3636 89.4082 87.9088 89.6257 87.5671C90.6884 85.8943 91.8198 84.2548 92.9868 82.6929C93.2286 82.3668 93.6901 82.3002 94.014 82.5443C94.3379 82.7861 94.4045 83.2476 94.1626 83.5715C93.0179 85.1045 91.9086 86.713 90.8658 88.3547C90.7261 88.5744 90.4887 88.6942 90.2469 88.6942H90.2446ZM97.2642 79.3096C97.0912 79.3096 96.9203 79.2497 96.7806 79.1277C96.4766 78.8592 96.4456 78.3955 96.714 78.0916C98.0163 76.6096 99.3918 75.1675 100.801 73.8053C101.091 73.5235 101.557 73.5324 101.839 73.823C102.121 74.1137 102.112 74.5796 101.821 74.8613C100.441 76.1947 99.0946 77.6057 97.8166 79.0589C97.6724 79.2231 97.4683 79.3074 97.2664 79.3074L97.2642 79.3096ZM105.688 71.1718C105.475 71.1718 105.264 71.0809 105.12 70.9034C104.863 70.5906 104.909 70.1269 105.224 69.8695C106.744 68.6271 108.335 67.4313 109.957 66.3131C110.29 66.0846 110.747 66.1689 110.977 66.5017C111.208 66.8367 111.124 67.2915 110.789 67.5223C109.2 68.616 107.641 69.7874 106.152 71.0054C106.017 71.1164 105.85 71.1718 105.688 71.1718ZM115.328 64.5272C115.075 64.5272 114.827 64.3963 114.691 64.1589C114.489 63.8084 114.609 63.3602 114.96 63.1561C116.646 62.1844 118.407 61.2592 120.195 60.4028C120.559 60.2276 120.999 60.3829 121.174 60.7489C121.349 61.115 121.194 61.5521 120.828 61.7273C119.073 62.566 117.347 63.4734 115.692 64.4273C115.576 64.4939 115.45 64.525 115.326 64.525L115.328 64.5272ZM125.886 59.4733C125.593 59.4733 125.316 59.2958 125.203 59.0074C125.054 58.6302 125.243 58.2042 125.62 58.0578C127.421 57.3545 129.298 56.6956 131.195 56.0988C131.581 55.9768 131.994 56.192 132.116 56.578C132.238 56.964 132.023 57.3767 131.637 57.4987C129.771 58.0844 127.927 58.7323 126.157 59.4245C126.068 59.4577 125.979 59.4755 125.891 59.4755L125.886 59.4733ZM137.057 55.9568C136.726 55.9568 136.427 55.7327 136.344 55.3977C136.249 55.005 136.489 54.6057 136.881 54.5103C138.761 54.0488 140.704 53.634 142.654 53.2745C143.051 53.2036 143.435 53.4653 143.508 53.8625C143.581 54.2618 143.317 54.6434 142.92 54.7166C140.999 55.0694 139.084 55.4798 137.232 55.9346C137.174 55.9479 137.114 55.9546 137.057 55.9546V55.9568ZM148.576 53.827C148.212 53.827 147.897 53.5563 147.848 53.188C147.797 52.7865 148.079 52.4182 148.482 52.3671C150.397 52.1187 152.372 51.9146 154.35 51.757C154.761 51.7304 155.107 52.0255 155.14 52.4293C155.174 52.8331 154.872 53.1858 154.468 53.2191C152.513 53.3744 150.563 53.5763 148.673 53.8225C148.642 53.827 148.609 53.8292 148.578 53.8292L148.576 53.827Z" fill="white"/>
<path d="M95.5078 238.965C95.2948 238.965 95.084 238.965 94.8733 238.959C94.4673 238.952 94.1456 238.617 94.1544 238.211C94.1611 237.805 94.5028 237.49 94.9021 237.49C96.8367 237.523 98.778 237.388 100.613 237.079C101.01 237.015 101.391 237.281 101.458 237.681C101.525 238.08 101.256 238.459 100.857 238.526C99.1329 238.817 97.3359 238.963 95.51 238.963L95.5078 238.965ZM89.0517 238.384C89.0096 238.384 88.9674 238.379 88.923 238.373C87.0217 238.04 85.0738 237.561 83.1303 236.953C82.7443 236.831 82.5291 236.42 82.6489 236.034C82.7709 235.648 83.1813 235.431 83.5674 235.553C85.451 236.143 87.3367 236.605 89.1759 236.926C89.5753 236.997 89.8415 237.377 89.7727 237.776C89.7106 238.133 89.4 238.384 89.0517 238.384ZM106.379 236.977C106.086 236.977 105.809 236.802 105.695 236.511C105.547 236.134 105.733 235.708 106.11 235.56C107.867 234.867 109.567 233.98 111.164 232.92C111.504 232.695 111.959 232.789 112.18 233.126C112.404 233.463 112.314 233.918 111.974 234.142C110.29 235.258 108.498 236.194 106.647 236.924C106.559 236.96 106.468 236.975 106.379 236.975V236.977ZM77.8568 234.914C77.7569 234.914 77.6571 234.894 77.5595 234.852C74.3026 233.408 72.3258 232.145 72.2437 232.092C71.9021 231.872 71.8045 231.42 72.0219 231.078C72.2415 230.736 72.6941 230.639 73.0358 230.856C73.0557 230.87 75.0103 232.114 78.154 233.51C78.5245 233.674 78.6909 234.107 78.5268 234.477C78.4047 234.75 78.1363 234.914 77.8545 234.914H77.8568ZM116.107 230.566C115.919 230.566 115.728 230.492 115.584 230.346C115.3 230.058 115.304 229.592 115.593 229.308C116.906 228.016 118.166 226.55 119.338 224.955C119.577 224.629 120.036 224.558 120.363 224.797C120.689 225.037 120.76 225.496 120.52 225.822C119.302 227.48 117.989 229.004 116.622 230.353C116.48 230.492 116.294 230.563 116.107 230.563V230.566ZM123.08 221.181C122.96 221.181 122.838 221.152 122.725 221.088C122.37 220.893 122.244 220.445 122.439 220.09C123.335 218.472 124.19 216.722 124.977 214.885C125.137 214.512 125.57 214.341 125.94 214.501C126.313 214.661 126.484 215.091 126.324 215.464C125.516 217.345 124.64 219.14 123.721 220.802C123.588 221.044 123.338 221.179 123.078 221.179L123.08 221.181ZM127.739 210.43C127.662 210.43 127.582 210.417 127.504 210.392C127.12 210.261 126.914 209.844 127.045 209.463C127.733 207.43 128.272 205.611 128.691 203.896C128.786 203.501 129.184 203.259 129.578 203.357C129.973 203.452 130.213 203.85 130.118 204.244C129.689 205.999 129.139 207.861 128.436 209.933C128.332 210.239 128.048 210.432 127.742 210.432L127.739 210.43ZM130.493 199.026C130.45 199.026 130.408 199.022 130.366 199.015C129.967 198.946 129.698 198.567 129.767 198.168C130.095 196.266 130.475 194.312 130.892 192.359C130.976 191.965 131.364 191.712 131.764 191.796C132.161 191.88 132.414 192.271 132.327 192.668C131.915 194.602 131.54 196.537 131.214 198.418C131.151 198.776 130.841 199.026 130.493 199.026ZM132.949 187.521C132.889 187.521 132.829 187.514 132.767 187.499C132.374 187.399 132.137 186.999 132.236 186.607C132.727 184.677 133.257 182.76 133.809 180.909C133.925 180.521 134.333 180.299 134.723 180.417C135.112 180.532 135.331 180.943 135.216 181.331C134.668 183.163 134.144 185.06 133.658 186.968C133.574 187.301 133.275 187.521 132.949 187.521ZM136.327 176.261C136.248 176.261 136.165 176.248 136.086 176.219C135.704 176.086 135.502 175.667 135.635 175.285C136.303 173.382 137.011 171.52 137.741 169.757C137.896 169.382 138.324 169.202 138.699 169.359C139.074 169.515 139.252 169.943 139.096 170.318C138.377 172.057 137.679 173.892 137.02 175.771C136.913 176.073 136.629 176.261 136.327 176.261ZM140.836 165.413C140.727 165.413 140.616 165.388 140.512 165.337C140.148 165.157 139.999 164.718 140.179 164.354C141.082 162.522 142.034 160.767 143.008 159.138C143.216 158.79 143.666 158.677 144.015 158.886C144.363 159.094 144.476 159.544 144.268 159.893C143.314 161.488 142.38 163.207 141.494 165.002C141.366 165.262 141.106 165.413 140.836 165.413ZM146.897 155.369C146.744 155.369 146.588 155.32 146.457 155.223C146.134 154.981 146.067 154.519 146.309 154.196C147.549 152.54 148.851 151.014 150.182 149.661C150.466 149.37 150.93 149.366 151.221 149.652C151.509 149.936 151.514 150.4 151.23 150.69C149.945 151.999 148.685 153.474 147.485 155.076C147.34 155.269 147.121 155.369 146.897 155.369ZM155.145 147.083C154.917 147.083 154.691 146.976 154.549 146.777C154.313 146.448 154.389 145.989 154.717 145.754C156.392 144.554 158.147 143.555 159.935 142.783C160.308 142.621 160.738 142.794 160.9 143.165C161.06 143.537 160.889 143.968 160.519 144.13C158.826 144.86 157.162 145.807 155.574 146.947C155.445 147.041 155.294 147.085 155.148 147.085L155.145 147.083ZM165.819 142.517C165.468 142.517 165.158 142.266 165.098 141.909C165.029 141.51 165.295 141.13 165.695 141.062C167.15 140.811 168.674 140.691 170.167 140.682C170.616 140.682 171.077 140.693 171.534 140.715C171.938 140.735 172.251 141.079 172.231 141.483C172.211 141.889 171.867 142.206 171.463 142.18C171.024 142.157 170.569 142.153 170.159 142.149C168.732 142.149 167.314 142.268 165.945 142.506C165.903 142.512 165.861 142.517 165.819 142.517Z" fill="white"/>
<path d="M308.55 100.077C308.178 100.077 307.858 99.7935 307.821 99.4163C307.632 97.4773 307.35 95.5515 306.984 93.6902C306.906 93.293 307.166 92.907 307.563 92.8294C307.958 92.7517 308.346 93.0113 308.424 93.4084C308.799 95.3164 309.085 97.2887 309.28 99.2743C309.32 99.6781 309.025 100.038 308.621 100.077C308.597 100.08 308.573 100.082 308.548 100.082L308.55 100.077ZM306.29 88.5963C305.975 88.5963 305.684 88.3922 305.589 88.0772C305.027 86.2313 304.364 84.4032 303.616 82.6416C303.459 82.2689 303.632 81.8385 304.005 81.681C304.377 81.5213 304.808 81.6965 304.965 82.0692C305.731 83.8774 306.412 85.7543 306.989 87.6512C307.106 88.0394 306.889 88.4477 306.501 88.5675C306.43 88.5896 306.359 88.5985 306.288 88.5985L306.29 88.5963ZM301.722 77.8207C301.464 77.8207 301.214 77.6853 301.081 77.4435C300.153 75.7729 299.122 74.1245 298.012 72.5382C297.779 72.2054 297.861 71.7484 298.192 71.5155C298.525 71.2825 298.982 71.3646 299.215 71.6952C300.355 73.3236 301.413 75.0164 302.365 76.7313C302.563 77.0863 302.434 77.5322 302.079 77.7297C301.966 77.7918 301.844 77.8229 301.724 77.8229L301.722 77.8207ZM295.013 68.2164C294.806 68.2164 294.6 68.1299 294.456 67.9613C293.216 66.5192 291.876 65.0993 290.473 63.7438C290.183 63.462 290.174 62.9983 290.456 62.7055C290.737 62.4126 291.201 62.406 291.494 62.6877C292.929 64.0743 294.301 65.5253 295.57 67.0029C295.834 67.3113 295.798 67.7727 295.492 68.0367C295.354 68.1565 295.184 68.2142 295.015 68.2142L295.013 68.2164ZM286.587 60.0609C286.425 60.0609 286.26 60.0077 286.125 59.8968C284.643 58.6943 283.075 57.5251 281.464 56.4203C281.131 56.1917 281.045 55.7347 281.273 55.3997C281.504 55.0647 281.959 54.9804 282.294 55.2089C283.938 56.3359 285.537 57.5295 287.048 58.7564C287.363 59.0116 287.412 59.473 287.157 59.7881C287.012 59.9678 286.8 60.0609 286.587 60.0609ZM276.909 53.4119C276.785 53.4119 276.656 53.3808 276.541 53.312C274.875 52.3447 273.146 51.4218 271.403 50.5699C271.039 50.3924 270.888 49.9531 271.065 49.5892C271.243 49.2254 271.682 49.0745 272.046 49.252C273.821 50.1195 275.582 51.0579 277.28 52.043C277.63 52.2471 277.748 52.6953 277.546 53.0458C277.41 53.281 277.164 53.4119 276.911 53.4119H276.909ZM266.349 48.2581C266.258 48.2581 266.165 48.2404 266.076 48.2049C262.755 46.8759 260.609 46.2924 260.587 46.288C260.197 46.1837 259.964 45.7799 260.068 45.3895C260.172 44.999 260.576 44.7683 260.966 44.8703C261.055 44.8947 263.209 45.4782 266.619 46.8426C266.994 46.9935 267.178 47.4195 267.028 47.7966C266.912 48.0828 266.637 48.2581 266.346 48.2581H266.349Z" fill="white"/>
<path d="M300.571 265.53C304.603 261.498 304.603 254.96 300.571 250.928C296.539 246.896 290.001 246.896 285.969 250.928C281.937 254.96 281.937 261.498 285.969 265.53C290.001 269.562 296.539 269.562 300.571 265.53Z" fill="white"/>
<path d="M293.271 269.289C287.172 269.289 282.211 264.328 282.211 258.229C282.211 252.13 287.172 247.169 293.271 247.169C299.369 247.169 304.33 252.13 304.33 258.229C304.33 264.328 299.369 269.289 293.271 269.289ZM293.271 248.636C287.981 248.636 283.68 252.94 283.68 258.229C283.68 263.518 287.981 267.82 293.271 267.82C298.56 267.82 302.861 263.518 302.861 258.229C302.861 252.94 298.56 248.636 293.271 248.636Z" fill="black"/>
<path d="M294.692 256.8H298.403V259.485H294.692V263.68H291.865V259.485H288.145V256.8H291.865V252.78H294.692V256.8Z" fill="#5479F7"/>
<path d="M339.349 280.387C345.421 274.315 345.421 264.47 339.349 258.399C333.277 252.327 323.433 252.327 317.361 258.399C311.289 264.47 311.289 274.315 317.361 280.387C323.433 286.458 333.277 286.458 339.349 280.387Z" fill="white"/>
<path d="M328.386 285.677C327.834 285.677 327.279 285.651 326.722 285.593C317.79 284.692 311.256 276.692 312.157 267.76C313.058 258.828 321.06 252.29 329.99 253.195C334.316 253.632 338.217 255.726 340.965 259.094C343.717 262.462 344.992 266.7 344.555 271.028C344.118 275.354 342.024 279.252 338.656 282.003C335.721 284.399 332.124 285.677 328.386 285.677ZM313.615 267.906C312.796 276.033 318.742 283.312 326.869 284.133C330.802 284.53 334.66 283.37 337.726 280.867C340.79 278.365 342.698 274.817 343.093 270.879C343.49 266.944 342.33 263.088 339.827 260.022C337.325 256.958 333.777 255.05 329.839 254.653C321.708 253.836 314.433 259.78 313.613 267.906H313.615Z" fill="black"/>
<path d="M330.697 267.467L336.257 268.029L335.851 272.049L330.291 271.487L329.657 277.773L325.421 277.344L326.056 271.059L320.48 270.498L320.886 266.478L326.462 267.039L327.07 261.016L331.305 261.444L330.697 267.467Z" fill="#5479F7"/>
<path d="M350.185 315C352.863 305.666 347.468 295.929 338.134 293.25C328.8 290.572 319.063 295.968 316.384 305.301C313.706 314.635 319.102 324.373 328.435 327.051C337.769 329.729 347.507 324.334 350.185 315Z" fill="white"/>
<path d="M333.26 328.465C330.416 328.465 327.594 327.795 324.985 326.47C320.623 324.256 317.384 320.474 315.866 315.823C312.734 306.221 317.994 295.863 327.594 292.728C337.196 289.595 347.554 294.856 350.687 304.458C352.204 309.108 351.82 314.071 349.606 318.435C347.39 322.796 343.61 326.036 338.959 327.553C337.089 328.163 335.168 328.467 333.258 328.467L333.26 328.465ZM333.269 293.292C331.54 293.292 329.783 293.56 328.053 294.123C319.221 297.005 314.382 306.536 317.264 315.366C318.659 319.644 321.639 323.123 325.65 325.161C329.661 327.2 334.227 327.553 338.507 326.158C342.784 324.762 346.263 321.783 348.302 317.769C350.338 313.758 350.693 309.192 349.296 304.912C346.977 297.811 340.362 293.289 333.267 293.289L333.269 293.292Z" fill="black"/>
<path d="M334.823 307.078L340.831 305.117L342.249 309.461L336.241 311.422L338.457 318.211L333.88 319.704L331.664 312.915L325.64 314.881L324.223 310.537L330.246 308.571L328.123 302.064L332.7 300.571L334.823 307.078Z" fill="#5479F7"/>
<path d="M136.821 380.44C136.734 380.44 136.646 380.424 136.559 380.391C107.851 369.367 85.5274 351.427 71.8543 338.318C57.0386 324.112 48.892 312.345 48.8121 312.227C48.5836 311.894 48.6679 311.437 49.0007 311.207C49.3335 310.978 49.7905 311.062 50.0212 311.395C50.1011 311.511 58.1812 323.18 72.8992 337.286C86.4703 350.291 108.621 368.091 137.085 379.02C137.464 379.164 137.653 379.59 137.506 379.967C137.396 380.258 137.116 380.437 136.821 380.437V380.44Z" fill="white"/>
<path d="M136.822 372.2C136.735 372.2 136.646 372.184 136.56 372.151C109.64 361.815 88.45 343.913 74.8523 331.347C74.5551 331.072 74.5373 330.608 74.8124 330.311C75.0875 330.013 75.5512 329.996 75.8485 330.269C89.3574 342.752 110.401 360.532 137.086 370.78C137.465 370.924 137.654 371.35 137.507 371.727C137.396 372.018 137.117 372.197 136.822 372.197V372.2Z" fill="white"/>
<path d="M72.8003 327.003C72.747 327.003 72.696 326.997 72.6428 326.985L66.1867 325.566C65.9205 325.508 65.7097 325.308 65.6365 325.046C65.5633 324.785 65.6409 324.505 65.8384 324.316L70.7126 319.7C70.8967 319.524 71.1585 319.458 71.4026 319.522C71.6488 319.586 71.8419 319.773 71.9173 320.015C72.8402 323.001 73.508 326.082 73.5147 326.114C73.5679 326.358 73.4925 326.613 73.315 326.788C73.1752 326.926 72.9889 327.001 72.7981 327.001L72.8003 327.003ZM67.8528 324.432L71.8241 325.306C71.6067 324.396 71.2672 323.03 70.8546 321.59L67.8528 324.434V324.432Z" fill="white"/>
</svg>
