<svg width="387" height="387" viewBox="0 0 387 387" fill="none" xmlns="http://www.w3.org/2000/svg">
<path d="M84.0475 17.4042C162.536 -25.8069 267.684 19.0861 322.477 68.8518C338.13 83.0682 376.082 118.535 385.045 175.379C396.178 245.99 359.737 331.575 276.16 368.185C185.191 408.033 83.4769 370.269 35.8734 308.968C-8.6487 251.636 0.263329 184.131 3.44605 160.016C7.18247 131.725 18.2903 53.6043 84.0475 17.4042Z" fill="#CADDFF"/>
<path d="M325.177 386.27H303.594V121.005L324.96 119.496L325.177 386.27Z" fill="white"/>
<path d="M325.178 386.97H303.594C303.207 386.97 302.895 386.657 302.895 386.27V121.005C302.895 120.637 303.178 120.333 303.543 120.308L324.909 118.799C325.102 118.786 325.294 118.852 325.436 118.985C325.577 119.116 325.658 119.302 325.658 119.496L325.873 386.27C325.873 386.456 325.799 386.634 325.668 386.765C325.537 386.896 325.36 386.97 325.174 386.97H325.178ZM304.294 385.571H324.478L324.263 120.246L304.294 121.656V385.571Z" fill="black"/>
<path d="M383.049 386.271H325.177C325.056 386.271 324.961 386.135 324.961 385.968V119.811C324.961 119.64 325.062 119.503 325.185 119.509L383.057 122.562C383.173 122.569 383.266 122.702 383.266 122.864V385.968C383.266 386.135 383.169 386.271 383.051 386.271H383.049Z" fill="#99B9FF"/>
<path d="M383.049 386.97H325.177C324.663 386.97 324.262 386.531 324.262 385.971V119.811C324.262 119.52 324.376 119.243 324.574 119.055C324.752 118.886 324.987 118.799 325.221 118.812L383.093 121.867C383.582 121.893 383.964 122.332 383.964 122.867V385.971C383.964 386.531 383.563 386.97 383.049 386.97ZM325.661 385.571H382.567V123.236L325.661 120.234V385.571Z" fill="black"/>
<path d="M364.055 247.906C363.668 247.906 363.355 247.593 363.355 247.206V139.485C363.355 139.098 363.668 138.786 364.055 138.786C364.442 138.786 364.755 139.098 364.755 139.485V247.206C364.755 247.593 364.442 247.906 364.055 247.906Z" fill="#CADDFF"/>
<path d="M345.746 209.521C345.36 209.521 345.047 209.208 345.047 208.821V177.042C345.047 176.655 345.36 176.342 345.746 176.342C346.133 176.342 346.446 176.655 346.446 177.042V208.821C346.446 209.208 346.133 209.521 345.746 209.521Z" fill="#CADDFF"/>
<path d="M345.746 318.491C345.36 318.491 345.047 318.179 345.047 317.792V262.953C345.047 262.566 345.36 262.253 345.746 262.253C346.133 262.253 346.446 262.566 346.446 262.953V317.792C346.446 318.179 346.133 318.491 345.746 318.491Z" fill="#CADDFF"/>
<path d="M252.398 386.302H230.914V188.264L252.28 181.517L252.398 386.302Z" fill="white"/>
<path d="M252.399 386.999H230.914C230.528 386.999 230.215 386.687 230.215 386.3V188.264C230.215 187.96 230.411 187.69 230.703 187.599L252.069 180.85C252.283 180.782 252.513 180.82 252.693 180.953C252.872 181.084 252.978 181.293 252.978 181.517L253.094 386.302C253.094 386.488 253.02 386.666 252.889 386.797C252.758 386.928 252.581 387.002 252.395 387.002L252.399 386.999ZM231.614 385.603H251.699L251.583 182.47L231.614 188.778V385.603Z" fill="black"/>
<path d="M310.369 386.302H252.497C252.376 386.302 252.281 386.198 252.281 386.069V181.758C252.281 181.627 252.383 181.521 252.505 181.528L310.378 183.873C310.494 183.877 310.587 183.981 310.587 184.103V386.072C310.587 386.2 310.49 386.304 310.371 386.304L310.369 386.302Z" fill="#99B9FF"/>
<path d="M310.369 386.999H252.497C251.992 386.999 251.582 386.583 251.582 386.069V181.758C251.582 181.502 251.688 181.257 251.869 181.082C252.047 180.911 252.288 180.82 252.535 180.828L310.407 183.174C310.9 183.195 311.287 183.603 311.287 184.103V386.071C311.287 386.585 310.877 387.001 310.371 387.001L310.369 386.999ZM252.981 385.602H309.888V184.549L252.981 182.244V385.602Z" fill="black"/>
<path d="M281.45 288.748C281.063 288.748 280.75 288.435 280.75 288.049V197.337C280.75 196.95 281.063 196.638 281.45 196.638C281.836 196.638 282.149 196.95 282.149 197.337V288.049C282.149 288.435 281.836 288.748 281.45 288.748Z" fill="#CADDFF"/>
<path d="M266.168 227.638C265.782 227.638 265.469 227.325 265.469 226.939V211.476C265.469 211.089 265.782 210.776 266.168 210.776C266.555 210.776 266.868 211.089 266.868 211.476V226.939C266.868 227.325 266.555 227.638 266.168 227.638Z" fill="#CADDFF"/>
<path d="M266.168 330.227C265.782 330.227 265.469 329.914 265.469 329.528V252.51C265.469 252.124 265.782 251.811 266.168 251.811C266.555 251.811 266.868 252.124 266.868 252.51V329.528C266.868 329.914 266.555 330.227 266.168 330.227Z" fill="#CADDFF"/>
<path d="M296.727 258.12C296.34 258.12 296.027 257.807 296.027 257.421V241.958C296.027 241.571 296.34 241.258 296.727 241.258C297.114 241.258 297.426 241.571 297.426 241.958V257.421C297.426 257.807 297.114 258.12 296.727 258.12Z" fill="#CADDFF"/>
<path d="M180.128 386.302H158.762V272.48L180.128 267.796V386.302Z" fill="white"/>
<path d="M180.128 387H158.762C158.375 387 158.062 386.687 158.062 386.3V272.481C158.062 272.153 158.291 271.868 158.612 271.798L179.978 267.114C180.185 267.067 180.401 267.12 180.566 267.251C180.73 267.384 180.825 267.583 180.825 267.796V386.3C180.825 386.687 180.513 387 180.126 387H180.128ZM159.462 385.603H179.431V268.667L159.462 273.045V385.603Z" fill="black"/>
<path d="M238.432 386.302H180.129V268.047C180.129 267.912 180.241 267.802 180.378 267.806L238.434 269.75V386.302H238.432Z" fill="#99B9FF"/>
<path d="M239.132 386.999H179.43V268.045C179.43 267.792 179.533 267.547 179.717 267.369C179.899 267.194 180.138 267.097 180.402 267.105L239.132 269.072V386.999ZM180.827 385.603H237.733V270.427L180.827 268.521V385.603Z" fill="black"/>
<path d="M195.625 353.257C195.239 353.257 194.926 352.944 194.926 352.557V281.955C194.926 281.569 195.239 281.256 195.625 281.256C196.012 281.256 196.325 281.569 196.325 281.955V352.557C196.325 352.944 196.012 353.257 195.625 353.257Z" fill="#CADDFF"/>
<path d="M226.184 361.515C225.797 361.515 225.484 361.202 225.484 360.815V290.213C225.484 289.826 225.797 289.514 226.184 289.514C226.571 289.514 226.883 289.826 226.883 290.213V360.815C226.883 361.202 226.571 361.515 226.184 361.515Z" fill="#CADDFF"/>
<path d="M210.907 333.853C210.52 333.853 210.207 333.54 210.207 333.154V318.703C210.207 318.316 210.52 318.003 210.907 318.003C211.293 318.003 211.606 318.316 211.606 318.703V333.154C211.606 333.54 211.293 333.853 210.907 333.853Z" fill="#CADDFF"/>
<path d="M108.27 386.302H86.6992V329.851L108.067 325.638L108.27 386.302Z" fill="white"/>
<path d="M108.271 386.999H86.6995C86.3128 386.999 86 386.687 86 386.3V329.849C86 329.515 86.2367 329.227 86.5643 329.164L107.93 324.951C108.135 324.91 108.347 324.963 108.509 325.096C108.67 325.23 108.765 325.426 108.765 325.635L108.968 386.298C108.968 386.484 108.896 386.661 108.765 386.794C108.634 386.925 108.457 386.999 108.271 386.999ZM87.399 385.603H107.569L107.37 326.487L87.399 330.423V385.6V385.603Z" fill="black"/>
<path d="M166.167 386.302H108.269C108.157 386.302 108.066 386.211 108.066 386.099V325.847C108.066 325.733 108.159 325.642 108.274 325.644L166.171 326.589C166.283 326.589 166.372 326.682 166.372 326.791V386.099C166.372 386.211 166.281 386.302 166.169 386.302H166.167Z" fill="#99B9FF"/>
<path d="M166.167 386.999H108.27C107.773 386.999 107.367 386.593 107.367 386.097V325.844C107.367 325.601 107.462 325.373 107.636 325.202C107.809 325.031 108.043 324.938 108.282 324.942L166.18 325.887C166.67 325.895 167.067 326.299 167.067 326.789V386.097C167.067 386.593 166.662 386.999 166.165 386.999H166.167ZM108.766 385.602H165.673V327.277L108.766 326.349V385.602Z" fill="black"/>
<path d="M148.746 372.663C148.36 372.663 148.047 372.35 148.047 371.963V336.044C148.047 335.657 148.36 335.345 148.746 335.345C149.133 335.345 149.446 335.657 149.446 336.044V371.963C149.446 372.35 149.133 372.663 148.746 372.663Z" fill="#CADDFF"/>
<path d="M130.442 359.864C130.055 359.864 129.742 359.551 129.742 359.164V348.568C129.742 348.181 130.055 347.868 130.442 347.868C130.828 347.868 131.141 348.181 131.141 348.568V359.164C131.141 359.551 130.828 359.864 130.442 359.864Z" fill="#CADDFF"/>
<path d="M36.3854 386.302H14.8164V356.739L36.1825 353.132L36.3854 386.302Z" fill="white"/>
<path d="M36.3878 387H14.8167C14.43 387 14.1172 386.687 14.1172 386.3V356.737C14.1172 356.397 14.3623 356.105 14.7005 356.048L36.0665 352.443C36.2673 352.41 36.4744 352.464 36.6329 352.598C36.7893 352.729 36.8802 352.923 36.8823 353.128L37.0852 386.296C37.0852 386.482 37.0133 386.661 36.8823 386.792C36.7513 386.923 36.5716 387 36.3857 387H36.3878ZM15.5162 385.603H35.684L35.4896 353.958L15.5162 357.329V385.603Z" fill="black"/>
<path d="M94.2841 386.303H36.3865C36.2745 386.303 36.1836 386.252 36.1836 386.191V353.247C36.1836 353.185 36.2766 353.135 36.3907 353.135L94.2883 353.65C94.4003 353.65 94.4891 353.701 94.4891 353.762V386.191C94.4891 386.252 94.3982 386.303 94.2862 386.303H94.2841Z" fill="#99B9FF"/>
<path d="M94.2844 387H36.3868C35.8817 387 35.4844 386.645 35.4844 386.19V353.246C35.4844 353.039 35.5668 352.845 35.7168 352.697C35.8859 352.53 36.1416 352.437 36.3973 352.437L94.2949 352.953C94.8043 352.957 95.1868 353.305 95.1868 353.762V386.19C95.1868 386.645 94.7895 387 94.2844 387ZM36.8834 385.603H93.7898V354.347L36.8834 353.84V385.605V385.603Z" fill="black"/>
<path d="M76.8636 379.16C76.4768 379.16 76.1641 378.848 76.1641 378.461V358.821C76.1641 358.434 76.4768 358.121 76.8636 358.121C77.2503 358.121 77.5631 358.434 77.5631 358.821V378.461C77.5631 378.848 77.2503 379.16 76.8636 379.16Z" fill="#CADDFF"/>
<path d="M58.5589 372.162C58.1722 372.162 57.8594 371.849 57.8594 371.463V365.669C57.8594 365.282 58.1722 364.969 58.5589 364.969C58.9456 364.969 59.2584 365.282 59.2584 365.669V371.463C59.2584 371.849 58.9456 372.162 58.5589 372.162Z" fill="#CADDFF"/>
<path d="M341.018 87.1484H330.578V114.981H341.018V87.1484Z" fill="#5479F7"/>
<path d="M341.018 115.68H330.578C330.192 115.68 329.879 115.367 329.879 114.981V87.1481C329.879 86.7615 330.192 86.4487 330.578 86.4487H341.018C341.405 86.4487 341.718 86.7615 341.718 87.1481V114.981C341.718 115.367 341.405 115.68 341.018 115.68ZM331.278 114.281H340.319V87.8454H331.278V114.281Z" fill="black"/>
<path d="M344.019 107.602H327.469C326.798 107.602 326.254 108.146 326.254 108.817V114.188C326.254 114.859 326.798 115.403 327.469 115.403H344.019C344.69 115.403 345.234 114.859 345.234 114.188V108.817C345.234 108.146 344.69 107.602 344.019 107.602Z" fill="#5479F7"/>
<path d="M341.506 116.101H329.982C327.541 116.101 325.555 114.115 325.555 111.674V111.328C325.555 108.887 327.541 106.901 329.982 106.901H341.506C343.947 106.901 345.934 108.887 345.934 111.328V111.674C345.934 114.115 343.947 116.101 341.506 116.101ZM329.982 108.3C328.313 108.3 326.954 109.658 326.954 111.328V111.674C326.954 113.343 328.313 114.702 329.982 114.702H341.506C343.176 114.702 344.535 113.343 344.535 111.674V111.328C344.535 109.658 343.176 108.3 341.506 108.3H329.982Z" fill="black"/>
<path d="M317.824 114.138H353.664C354.715 114.138 355.568 114.991 355.568 116.042V120.253H315.922V116.042C315.922 114.991 316.776 114.138 317.826 114.138H317.824Z" fill="#5479F7"/>
<path d="M355.565 120.952H315.918C315.532 120.952 315.219 120.64 315.219 120.253C315.219 116.496 318.277 113.438 322.034 113.438H349.449C353.206 113.438 356.264 116.496 356.264 120.253C356.264 120.64 355.952 120.952 355.565 120.952ZM316.662 119.554H354.821C354.477 116.895 352.2 114.837 349.449 114.837H322.034C319.285 114.837 317.007 116.897 316.662 119.554Z" fill="black"/>
<path d="M327.735 85.7896C316.784 79.6408 305.832 70.3604 297.691 60.3278C292.693 54.1684 284.72 42.6419 287.486 34.6547C288.285 32.3494 290.316 29.4525 295.456 28.7467C299.188 28.2354 304.232 28.9411 310.452 30.8471L309.095 36.3367C303.522 34.6294 299.141 33.9764 296.079 34.3969C293.972 34.6864 292.685 35.4619 292.256 36.7022C291.237 39.6457 293.695 46.9123 301.485 56.5117C309.22 66.0414 319.626 74.8611 330.036 80.7057L327.733 85.7896H327.735Z" fill="#5479F7"/>
<path d="M327.736 86.4889C327.617 86.4889 327.499 86.4594 327.393 86.4002C316.366 80.2091 305.345 70.8674 297.151 60.7693C292.062 54.4979 283.951 42.7348 286.827 34.4264C287.69 31.9352 289.871 28.8079 295.363 28.0536C299.197 27.5274 304.343 28.2437 310.66 30.1792C311.015 30.287 311.222 30.6547 311.133 31.016L309.776 36.5056C309.73 36.6916 309.609 36.8521 309.443 36.9451C309.276 37.0402 309.077 37.0613 308.893 37.0043C303.417 35.3265 299.138 34.6821 296.177 35.0899C294.351 35.3413 293.256 35.9604 292.918 36.9303C291.995 39.6012 294.45 46.7305 302.029 56.0721C309.709 65.5363 320.043 74.2926 330.38 80.0971C330.697 80.2746 330.823 80.6655 330.673 80.9951L328.37 86.079C328.289 86.2565 328.137 86.3938 327.951 86.4551C327.879 86.4784 327.808 86.4889 327.734 86.4889H327.736ZM297.99 29.2833C297.122 29.2833 296.308 29.334 295.551 29.4397C290.763 30.0968 288.882 32.7635 288.148 34.8849C285.494 42.5531 293.33 53.8429 298.237 59.8903C306.16 69.6524 316.761 78.7004 327.417 84.807L329.141 81.0035C318.843 75.1167 308.595 66.3815 300.947 56.9553C292.443 46.4748 290.598 39.3751 291.599 36.476C292.121 34.9673 293.599 34.0355 295.989 33.708C299.022 33.2917 303.259 33.8812 308.597 35.4597L309.618 31.3287C305.047 29.9701 301.15 29.2876 297.992 29.2876L297.99 29.2833Z" fill="black"/>
<path d="M344.08 85.4727C354.854 79.3239 365.628 70.0435 373.635 60.0109C378.553 53.8515 386.396 42.325 383.676 34.3378C382.89 32.0325 380.892 29.1356 375.835 28.4298C372.164 27.9185 367.2 28.6242 361.082 30.5302L362.417 36.0198C367.899 34.3125 372.209 33.6595 375.222 34.08C377.295 34.3695 378.561 35.145 378.984 36.3853C379.986 39.3288 377.568 46.5954 369.905 56.1948C362.297 65.7245 352.06 74.5442 341.816 80.3888L344.082 85.4727H344.08Z" fill="#5479F7"/>
<path d="M344.081 86.172C344.007 86.172 343.935 86.1615 343.864 86.1382C343.675 86.077 343.523 85.9396 343.443 85.7579L341.178 80.674C341.032 80.3465 341.158 79.9598 341.469 79.7823C351.637 73.9799 361.802 65.2236 369.357 55.7594C376.815 46.4178 379.231 39.2843 378.32 36.6113C377.99 35.6414 376.914 35.0223 375.124 34.773C372.214 34.3673 368.009 35.0118 362.624 36.6874C362.438 36.7444 362.239 36.7233 362.072 36.6282C361.905 36.5331 361.783 36.3725 361.738 36.1845L360.403 30.6949C360.316 30.3357 360.521 29.9722 360.874 29.8624C367.092 27.9268 372.159 27.2105 375.934 27.7367C381.344 28.491 383.491 31.6204 384.339 34.1116C387.166 42.4136 379.188 54.1747 374.182 60.4461C366.121 70.5442 355.276 79.8858 344.426 86.0791C344.32 86.1403 344.2 86.1699 344.079 86.1699L344.081 86.172ZM342.71 80.6803L344.402 84.4795C354.878 78.3729 365.299 69.3313 373.089 59.5755C377.918 53.5281 385.628 42.2362 383.014 34.5638C382.291 32.4445 380.444 29.7778 375.739 29.1228C372.297 28.6431 367.647 29.277 361.916 31.0055L362.92 35.1343C368.167 33.5601 372.335 32.9727 375.317 33.3869C377.673 33.7144 379.129 34.6483 379.643 36.1591C380.63 39.054 378.812 46.1516 370.448 56.63C362.922 66.0583 352.839 74.7935 342.708 80.6803H342.71Z" fill="black"/>
<path d="M335.823 90.7322C363.69 91.0428 363.992 51.4597 369.988 19.9293L301.449 19.6758C306.988 52.1169 307.999 91.2583 335.823 90.7322Z" fill="#5479F7"/>
<path d="M335.271 91.4355C311.35 91.4355 307.091 62.3034 302.97 34.12C302.277 29.3763 301.56 24.472 300.76 19.7917C300.726 19.5888 300.783 19.3797 300.916 19.2233C301.049 19.0669 301.243 18.9761 301.448 18.9761H301.451L369.989 19.2296C370.196 19.2296 370.393 19.3226 370.526 19.4832C370.659 19.6438 370.712 19.8551 370.674 20.0579C369.653 25.4229 368.784 31.1217 367.943 36.6324C363.831 63.5754 359.576 91.4292 336.148 91.4313C336.04 91.4313 335.934 91.4313 335.826 91.4313C335.641 91.4355 335.455 91.4355 335.271 91.4355ZM302.275 20.377C303.021 24.8228 303.697 29.4418 304.352 33.9193C306.4 47.9265 308.518 62.4112 313.025 72.9889C318.064 84.8154 325.287 90.2332 335.81 90.0325C335.816 90.0325 335.822 90.0325 335.831 90.0325C335.939 90.0325 336.048 90.0325 336.156 90.0325C346.18 90.0325 353.126 84.826 358.002 73.6714C362.413 63.5818 364.522 49.7732 366.559 36.4211C367.36 31.1787 368.186 25.7673 369.144 20.6221L302.275 20.3749V20.377Z" fill="black"/>
<path d="M360.064 56.8773C360.018 56.8773 359.969 56.8731 359.922 56.8625C359.544 56.7843 359.301 56.4146 359.377 56.0363C360.647 49.8621 361.507 43.1152 362.34 36.5924C362.894 32.248 363.467 27.7579 364.156 23.4663C364.217 23.086 364.576 22.8261 364.956 22.8874C365.337 22.9486 365.597 23.3079 365.536 23.6882C364.851 27.9586 364.278 32.4382 363.726 36.7699C362.892 43.3202 362.027 50.0924 360.747 56.3195C360.679 56.6491 360.387 56.8773 360.062 56.8773H360.064Z" fill="#CADDFF"/>
<path d="M336.421 87.8731C336.097 87.8731 335.808 87.647 335.738 87.3194C335.658 86.9412 335.899 86.5714 336.277 86.4911C346.734 84.2746 353.467 77.0375 357.472 63.7171C357.584 63.3473 357.975 63.1381 358.343 63.248C358.712 63.36 358.922 63.7488 358.812 64.1186C354.644 77.9799 347.577 85.5234 336.569 87.8583C336.52 87.8688 336.471 87.8731 336.423 87.8731H336.421Z" fill="#CADDFF"/>
<path d="M372.603 14.4263H299.493C298.718 14.4263 298.09 15.0544 298.09 15.8293V22.0373C298.09 22.8122 298.718 23.4404 299.493 23.4404H372.603C373.378 23.4404 374.006 22.8122 374.006 22.0373V15.8293C374.006 15.0544 373.378 14.4263 372.603 14.4263Z" fill="#5479F7"/>
<path d="M369.498 24.138H302.598C299.728 24.138 297.391 21.8031 297.391 18.9316C297.391 16.06 299.726 13.7251 302.598 13.7251H369.498C372.368 13.7251 374.706 16.06 374.706 18.9316C374.706 21.8031 372.371 24.138 369.498 24.138ZM302.598 15.126C300.497 15.126 298.79 16.8333 298.79 18.9337C298.79 21.034 300.497 22.7413 302.598 22.7413H369.498C371.599 22.7413 373.307 21.034 373.307 18.9337C373.307 16.8333 371.599 15.126 369.498 15.126H302.598Z" fill="black"/>
<path d="M350.629 18.8452C350.247 18.8452 349.934 18.5367 349.93 18.1543C349.926 17.7676 350.234 17.4527 350.621 17.4485L364.837 17.29C364.837 17.29 364.844 17.29 364.846 17.29C365.228 17.29 365.541 17.5985 365.545 17.981C365.55 18.3677 365.241 18.6825 364.854 18.6867L350.638 18.8452C350.638 18.8452 350.631 18.8452 350.629 18.8452Z" fill="#CADDFF"/>
<path d="M338.985 18.9737C338.602 18.9737 338.289 18.6652 338.285 18.2828C338.281 17.8961 338.59 17.5813 338.976 17.577L346.895 17.4883C346.895 17.4883 346.901 17.4883 346.903 17.4883C347.286 17.4883 347.599 17.7968 347.603 18.1792C347.607 18.5659 347.299 18.8808 346.912 18.885L338.993 18.9737C338.993 18.9737 338.987 18.9737 338.985 18.9737Z" fill="#CADDFF"/>
<path d="M103.658 296.072L101.547 314.808L109.514 318.126L112.45 297.701L103.658 296.072Z" fill="white"/>
<path d="M109.513 318.825C109.422 318.825 109.331 318.808 109.244 318.772L101.275 315.455C100.987 315.334 100.814 315.041 100.848 314.732L102.961 295.998C102.982 295.806 103.084 295.63 103.24 295.514C103.397 295.398 103.593 295.354 103.783 295.39L112.575 297.017C112.945 297.084 113.192 297.433 113.139 297.803L110.204 318.227C110.172 318.44 110.045 318.629 109.857 318.736C109.749 318.798 109.631 318.827 109.513 318.827V318.825ZM102.298 314.364L108.951 317.135L111.662 298.268L104.267 296.898L102.298 314.367V314.364Z" fill="black"/>
<path d="M99.6892 313.038C99.4377 314.815 99.0319 318.109 99.0002 321.063C98.9791 322.918 100.372 324.482 102.213 324.719C107.416 325.386 119.217 326.115 129.27 325.205C129.959 325.141 131.176 324.64 131.514 322.923C132.651 317.154 122.615 315.74 111.609 311.555C111.177 311.39 110.689 311.487 110.357 311.808L109.172 312.958C107.984 314.107 106.224 314.432 104.702 313.786L101.092 312.248C100.477 311.986 99.7822 312.379 99.6892 313.04V313.038Z" fill="#99B9FF"/>
<path d="M118.798 326.335C112.023 326.335 105.704 325.872 102.124 325.413C99.9199 325.13 98.2778 323.258 98.301 321.056C98.3348 318.043 98.7512 314.679 98.9984 312.942C99.0745 312.41 99.3852 311.953 99.8543 311.689C100.321 311.425 100.873 311.396 101.368 311.605L104.977 313.143C106.243 313.682 107.697 313.414 108.686 312.456L109.872 311.307C110.394 310.802 111.174 310.641 111.856 310.901C114.42 311.875 116.884 312.685 119.268 313.466C127.045 316.017 133.188 318.033 132.197 323.057C131.815 324.999 130.414 325.802 129.329 325.899C125.906 326.21 122.288 326.332 118.794 326.332L118.798 326.335ZM100.383 313.137C100.142 314.84 99.7339 318.136 99.7001 321.071C99.6832 322.563 100.801 323.833 102.302 324.025C107.667 324.714 119.259 325.411 129.207 324.507C129.424 324.488 130.528 324.31 130.828 322.785C131.544 319.15 126.973 317.462 118.834 314.793C116.436 314.005 113.955 313.192 111.362 312.207C111.182 312.139 110.981 312.18 110.846 312.311L109.66 313.46C108.268 314.808 106.216 315.188 104.43 314.428L100.82 312.887C100.695 312.835 100.592 312.875 100.541 312.902C100.49 312.932 100.402 312.999 100.383 313.135V313.137Z" fill="black"/>
<path d="M99.0087 320.619C99.0087 320.619 99.0024 320.919 99.0002 321.063C98.9791 322.918 100.372 324.482 102.213 324.718C107.416 325.386 119.217 326.115 129.27 325.204C129.959 325.141 131.176 324.64 131.514 322.922C131.618 322.396 131.554 321.445 131.554 321.445L130.842 321.481C120.683 321.982 110.503 321.739 100.38 320.752L99.0087 320.619Z" fill="white"/>
<path d="M118.798 326.334C112.023 326.334 105.704 325.872 102.124 325.413C99.9199 325.13 98.2778 323.258 98.301 321.056L98.3095 320.606C98.3137 320.412 98.3982 320.228 98.5441 320.099C98.6899 319.97 98.8822 319.907 99.0766 319.926L100.448 320.059C110.504 321.039 120.717 321.282 130.809 320.786L131.523 320.75C131.912 320.731 132.229 321.02 132.254 321.401C132.261 321.506 132.32 322.459 132.204 323.059C131.821 325.001 130.42 325.804 129.336 325.901C125.912 326.212 122.294 326.334 118.801 326.334H118.798ZM99.7149 321.39C99.848 322.74 100.911 323.847 102.304 324.025C107.67 324.714 119.261 325.411 129.209 324.507C129.427 324.488 130.53 324.31 130.83 322.785C130.862 322.628 130.872 322.4 130.876 322.176C120.72 322.677 110.436 322.432 100.313 321.445L99.7149 321.386V321.39Z" fill="black"/>
<path d="M114.133 318.483C113.953 318.483 113.775 318.415 113.638 318.278C113.365 318.005 113.365 317.561 113.638 317.289L117.499 313.426C117.772 313.154 118.216 313.154 118.488 313.426C118.761 313.699 118.761 314.142 118.488 314.415L114.627 318.278C114.49 318.415 114.312 318.483 114.133 318.483Z" fill="black"/>
<path d="M117.925 318.884C117.75 318.884 117.577 318.819 117.441 318.69C117.162 318.422 117.154 317.98 117.422 317.701L120.508 314.496C120.776 314.217 121.218 314.208 121.497 314.477C121.776 314.745 121.784 315.187 121.516 315.465L118.431 318.671C118.293 318.813 118.109 318.884 117.928 318.884H117.925Z" fill="black"/>
<path d="M132.601 172.609C132.601 172.609 127.751 175.423 125.858 191.93C123.964 208.435 124.596 227.894 111.411 247.192C100.88 262.604 101.805 288.611 100.275 305.659C100.201 306.483 100.835 307.195 101.662 307.225L111.757 307.571C112.4 307.592 112.979 307.189 113.177 306.576C114.982 300.989 123.953 274.04 134.034 258.412C144.686 241.897 157.638 199.03 157.638 199.03C157.638 199.03 155.235 188.195 154.902 177.809C154.568 167.424 132.606 172.609 132.606 172.609H132.601Z" fill="black"/>
<path d="M192.051 240.5L187.793 258.866L195.327 263.079L200.596 243.128L192.051 240.5Z" fill="white"/>
<path d="M195.328 263.779C195.21 263.779 195.092 263.749 194.986 263.69L187.452 259.477C187.181 259.324 187.042 259.012 187.112 258.71L191.368 240.343C191.412 240.155 191.533 239.993 191.7 239.895C191.867 239.798 192.067 239.777 192.253 239.834L200.8 242.465C201.159 242.575 201.366 242.949 201.269 243.312L196 263.263C195.945 263.472 195.797 263.643 195.597 263.728C195.51 263.766 195.417 263.783 195.324 263.783L195.328 263.779ZM188.595 258.513L194.885 262.029L199.752 243.599L192.564 241.387L188.595 258.511V258.513Z" fill="black"/>
<path d="M186.889 257.782C186.637 259.559 185.042 262.925 185.008 265.879C184.987 267.734 186.38 269.297 188.22 269.534C193.423 270.202 206.416 270.859 216.47 269.948C217.159 269.885 218.376 269.384 218.714 267.666C219.851 261.898 209.815 260.484 198.808 256.298C198.377 256.133 197.889 256.231 197.557 256.552L196.372 257.701C195.184 258.851 193.423 259.176 191.902 258.53L188.292 256.991C187.677 256.729 186.982 257.122 186.889 257.784V257.782Z" fill="#99B9FF"/>
<path d="M205.202 271.087C198.394 271.087 191.78 270.692 188.132 270.225C185.928 269.942 184.286 268.07 184.309 265.868C184.332 263.903 185 261.79 185.539 260.093C185.847 259.121 186.114 258.283 186.198 257.683C186.274 257.15 186.585 256.694 187.054 256.429C187.521 256.165 188.075 256.136 188.567 256.345L192.177 257.883C193.443 258.422 194.899 258.154 195.886 257.197L197.074 256.047C197.596 255.54 198.375 255.381 199.058 255.641C201.621 256.615 204.086 257.425 206.472 258.207C214.249 260.757 220.392 262.773 219.401 267.797C219.019 269.737 217.617 270.542 216.535 270.639C213.04 270.956 209.09 271.085 205.204 271.085L205.202 271.087ZM187.582 257.879C187.481 258.593 187.2 259.485 186.872 260.516C186.363 262.126 185.729 264.127 185.708 265.885C185.691 267.377 186.809 268.647 188.309 268.839C193.022 269.444 206.1 270.185 216.407 269.251C216.624 269.232 217.727 269.055 218.027 267.531C218.744 263.897 214.173 262.211 206.034 259.54C203.636 258.752 201.152 257.938 198.559 256.954C198.38 256.886 198.179 256.926 198.044 257.057L196.856 258.207C195.463 259.555 193.411 259.935 191.627 259.174L188.018 257.636C187.893 257.583 187.79 257.623 187.739 257.651C187.688 257.68 187.599 257.748 187.58 257.883L187.582 257.879Z" fill="black"/>
<path d="M185.29 265.311C185.29 265.311 185.284 265.611 185.281 265.754C185.26 267.61 186.653 269.173 188.494 269.41C193.697 270.078 206.415 270.859 216.466 269.947C217.155 269.883 218.372 269.382 218.711 267.665C218.814 267.138 218.751 266.188 218.751 266.188L218.039 266.224C207.88 266.724 197.7 266.481 187.577 265.495L185.29 265.309V265.311Z" fill="white"/>
<path d="M206.166 271.062C198.626 271.062 191.561 270.509 188.405 270.103C186.201 269.82 184.559 267.948 184.582 265.746L184.591 265.296C184.595 265.104 184.677 264.922 184.821 264.791C184.965 264.662 185.153 264.597 185.345 264.613L187.632 264.797C197.698 265.778 207.912 266.023 218.003 265.524L218.715 265.488C219.106 265.469 219.421 265.759 219.446 266.139C219.453 266.245 219.514 267.198 219.394 267.798C219.011 269.738 217.61 270.543 216.528 270.64C213.195 270.942 209.628 271.058 206.162 271.058L206.166 271.062ZM185.994 266.067C186.121 267.424 187.186 268.537 188.583 268.715C193.137 269.3 205.931 270.198 216.403 269.249C216.621 269.23 217.724 269.053 218.024 267.529C218.054 267.379 218.066 267.153 218.071 266.921C207.914 267.422 197.63 267.177 187.509 266.19L185.994 266.067Z" fill="black"/>
<path d="M201.332 263.225C201.152 263.225 200.975 263.158 200.837 263.02C200.565 262.748 200.565 262.304 200.837 262.031L204.698 258.169C204.971 257.896 205.413 257.896 205.687 258.169C205.96 258.441 205.96 258.885 205.687 259.158L201.826 263.02C201.689 263.158 201.511 263.225 201.332 263.225Z" fill="black"/>
<path d="M205.129 263.627C204.953 263.627 204.78 263.561 204.645 263.432C204.366 263.164 204.357 262.722 204.626 262.443L207.711 259.238C207.979 258.959 208.421 258.953 208.7 259.219C208.979 259.487 208.988 259.929 208.719 260.208L205.634 263.413C205.496 263.555 205.312 263.627 205.131 263.627H205.129Z" fill="black"/>
<path d="M152.048 201.941C152.048 201.941 174.731 200.158 200.045 186.567C200.793 186.166 201.275 187.404 200.82 188.12C199.546 190.136 198.868 193.157 196.968 198.315C194.628 204.665 189.687 237.52 188.058 247.745C187.91 248.668 188.607 249.509 189.541 249.541L199.273 249.858C199.888 249.877 200.457 249.535 200.723 248.981C204.236 241.666 227.168 184.093 226.291 173.369C225.344 161.777 212.106 162.55 206.586 162.198C200.873 161.832 149.094 171.505 149.094 171.505L152.044 201.945L152.048 201.941Z" fill="black"/>
<path d="M83.0591 185.01C83.8431 184.076 84.8575 182.979 85.7325 182.117C86.8589 181.004 90.6249 173.678 90.6249 173.678L97.208 175.541C97.208 175.541 94.1309 180.923 94.8706 183.605C95.5596 186.1 96.1027 191.372 92.4466 195.209C92.0282 195.649 91.1088 195.767 90.7897 195.691C89.8366 195.467 89.8155 194.144 90.2846 193.282L91.6055 190.852C91.7217 190.639 91.5463 190.385 91.3054 190.419C90.3184 190.559 88.1459 191.192 85.8741 193.994C84.1242 196.152 80.6583 200.965 79.4938 200.169C77.4122 198.744 78.7732 190.125 83.0654 185.01H83.0591Z" fill="white"/>
<path d="M79.7817 200.961C79.5365 200.961 79.3061 200.891 79.0906 200.743C78.465 200.314 78.0656 199.507 77.9071 198.341C77.4379 194.918 79.0695 188.674 82.5227 184.56C83.3131 183.617 84.3296 182.519 85.2383 181.618C86.0013 180.864 88.5648 176.15 89.9997 173.357C90.1519 173.061 90.4922 172.913 90.8113 173.004L97.3944 174.867C97.6015 174.926 97.7706 175.077 97.8509 175.275C97.9312 175.474 97.9164 175.7 97.8107 175.886C96.995 177.314 94.9978 181.449 95.5389 183.417C96.5258 186.998 96.3652 192.103 92.9479 195.689C92.3139 196.355 91.1177 196.486 90.6253 196.369C90.1054 196.247 89.6954 195.907 89.4714 195.41C89.1565 194.709 89.2326 193.743 89.6637 192.948L90.5534 191.311C89.5475 191.643 88.0132 192.454 86.4091 194.432C86.1492 194.751 85.8533 195.131 85.53 195.541C83.013 198.746 81.1553 200.961 79.7795 200.961H79.7817ZM83.5941 185.458C80.4875 189.16 78.8623 195.009 79.2935 198.151C79.3865 198.833 79.5809 199.338 79.8324 199.552C80.7158 199.412 83.3131 196.105 84.4332 194.679C84.7607 194.263 85.0629 193.878 85.325 193.553C87.7152 190.607 90.0336 189.891 91.2022 189.726C91.5742 189.673 91.9419 189.834 92.1575 190.142C92.373 190.453 92.3942 190.852 92.2145 191.184L90.8937 193.616C90.6802 194.009 90.6168 194.546 90.7479 194.84C90.8007 194.956 90.8641 194.992 90.9444 195.011C91.1367 195.044 91.7411 194.932 91.9356 194.728C95.8284 190.641 94.497 184.9 94.1927 183.791C93.5502 181.462 95.3064 177.652 96.175 175.977L90.9825 174.506C90.0589 176.283 87.2566 181.595 86.2232 182.614C85.3546 183.472 84.3486 184.562 83.5941 185.458Z" fill="black"/>
<path d="M240.842 102.284L236.588 95.1141C235.888 93.9351 233.686 93.578 232.589 94.3957C208.552 112.31 182.98 105.003 179.028 104.063C169.226 101.73 164.29 101.373 156.553 100.902C145.231 100.213 128.941 106.759 117.982 117.717C109.262 126.435 94.3901 154.712 87.6464 174.356C87.3632 175.183 87.7267 176.089 88.5023 176.49L95.2693 180C96.1273 180.446 97.1819 180.121 97.6341 179.267C101.079 172.78 115.995 145.879 131.609 136.996C132.756 136.343 134.483 137.034 134.417 138.353C134.21 142.488 131.642 157.816 130.86 172.017C130.757 173.891 132.05 175.552 133.897 175.895L140.728 177.16C152.641 179.935 163.81 176.845 168.732 175.09C170.239 174.551 170.968 173.099 171.196 171.516C171.574 168.89 176.864 147.836 186.505 133.909C187.718 132.155 189.559 130.942 191.687 130.818C200.284 130.315 224.757 126.879 240.738 104.492C241.205 103.839 241.252 102.975 240.842 102.286V102.284Z" fill="#5479F7"/>
<path d="M234.987 97.2674C234.896 96.7349 235.086 96.194 235.499 95.8432C236.044 95.3783 236.963 94.5902 238.297 93.4238C240.647 91.3657 243.591 87.2623 246.154 86.0304C248.718 84.7985 258.019 81.1662 259.504 81.9375C260.99 82.7087 260.254 84.4541 258.143 85.4683C256.032 86.4826 253.285 87.5243 253.285 87.5243C253.285 87.5243 254.821 87.4355 255.956 89.2105C257.091 90.9854 255.518 91.7017 256.182 92.5807C257.032 93.7048 256.78 95.0149 256.108 95.5875C254.572 96.8934 252.714 94.3113 251.326 96.9842C250.362 98.8416 248.084 100.052 243.462 100.933C242.221 101.17 241.04 101.648 239.97 102.315C239.529 102.592 238.967 102.613 238.512 102.358C237.409 101.736 235.494 100.251 234.991 97.2695L234.987 97.2674Z" fill="white"/>
<path d="M239.198 103.234C238.841 103.234 238.486 103.143 238.164 102.964C236.958 102.283 234.851 100.654 234.297 97.3832C234.166 96.6077 234.451 95.8132 235.045 95.3103C235.588 94.8476 236.505 94.0616 237.835 92.8973C238.659 92.1767 239.568 91.1857 240.529 90.1356C242.283 88.2212 244.097 86.2413 245.851 85.3982C245.963 85.3433 257.641 80.1791 259.826 81.3137C260.574 81.7004 260.995 82.3491 260.984 83.0908C260.968 84.2001 259.995 85.3496 258.446 86.0934C257.402 86.5942 256.219 87.0971 255.274 87.4837C255.703 87.7817 256.147 88.2106 256.544 88.8297C257.381 90.1377 257.047 91.0674 256.828 91.6823C256.684 92.0817 256.699 92.1028 256.739 92.1556C257.821 93.5882 257.487 95.3273 256.559 96.1154C255.644 96.893 254.63 96.6817 253.888 96.5274C252.96 96.333 252.497 96.238 251.944 97.3029C250.845 99.418 248.347 100.709 243.592 101.618C242.455 101.835 241.36 102.268 240.341 102.905C239.992 103.122 239.597 103.232 239.202 103.232L239.198 103.234ZM258.825 82.5076C256.849 82.5076 249.488 85.2038 246.455 86.6597C244.944 87.3865 243.224 89.265 241.558 91.0801C240.572 92.1577 239.637 93.1762 238.756 93.9496C237.418 95.1202 236.499 95.9104 235.952 96.3753C235.73 96.5634 235.626 96.855 235.677 97.1508C236.131 99.8491 237.862 101.189 238.851 101.747C239.08 101.875 239.365 101.865 239.597 101.721C240.764 100.992 242.019 100.496 243.327 100.246C247.615 99.4265 249.822 98.3552 250.701 96.6606C251.743 94.6553 253.203 94.9596 254.171 95.1624C254.885 95.3103 255.274 95.3737 255.65 95.0547C256.039 94.725 256.244 93.827 255.621 93.0008C255.111 92.3247 255.35 91.6569 255.509 91.2153C255.688 90.7124 255.83 90.3173 255.365 89.5883C254.484 88.2106 253.362 88.2233 253.313 88.2233C252.979 88.2381 252.668 87.9951 252.603 87.6591C252.537 87.3253 252.717 86.9914 253.036 86.871C253.064 86.8604 255.781 85.8271 257.842 84.8383C259.032 84.2677 259.581 83.5218 259.588 83.0739C259.588 82.9915 259.592 82.7696 259.184 82.5583C259.099 82.5245 258.979 82.5076 258.827 82.5076H258.825Z" fill="black"/>
<path d="M172.848 81.4683L160.132 102.543C159.959 102.784 158.093 102.719 155.986 102.932C155.003 103.032 153.974 103.182 153.124 103.319C152.425 103.433 152.226 104.346 152.818 104.737L155.094 106.243C159.866 109.404 165.532 111.038 171.244 110.651C172.832 110.543 174.353 110.288 175.706 109.867L180.577 108.335C181.308 108.105 181.302 107.07 180.569 106.848L174.366 104.969L179.603 93.8569L172.851 81.4704L172.848 81.4683Z" fill="white"/>
<path d="M169.609 111.403C164.437 111.403 159.205 109.806 154.705 106.824L152.429 105.318C151.918 104.98 151.67 104.373 151.799 103.775C151.928 103.175 152.404 102.725 153.008 102.628C154.086 102.453 155.062 102.322 155.912 102.235C156.785 102.146 157.624 102.104 158.298 102.07C158.809 102.045 159.376 102.015 159.655 101.975L172.248 81.1048C172.377 80.8914 172.618 80.7625 172.861 80.7667C173.11 80.773 173.341 80.9104 173.459 81.1301L180.211 93.5166C180.317 93.7131 180.325 93.9477 180.23 94.1484L175.338 104.53L180.765 106.174C181.388 106.362 181.811 106.928 181.815 107.579C181.82 108.232 181.403 108.8 180.782 108.997L175.911 110.528C174.545 110.953 172.99 111.228 171.287 111.344C170.729 111.382 170.167 111.401 169.607 111.401L169.609 111.403ZM172.815 82.8713L160.726 102.903C160.716 102.92 160.705 102.934 160.694 102.951C160.394 103.365 159.883 103.391 158.366 103.467C157.708 103.501 156.888 103.541 156.051 103.625C155.229 103.708 154.28 103.837 153.23 104.008C153.209 104.012 153.175 104.016 153.165 104.071C153.154 104.124 153.181 104.143 153.198 104.154L155.474 105.66C160.208 108.794 165.79 110.319 171.192 109.952C172.785 109.844 174.233 109.59 175.492 109.197L180.361 107.665C180.385 107.657 180.418 107.648 180.416 107.589C180.416 107.53 180.383 107.522 180.359 107.513L174.157 105.635C173.962 105.576 173.804 105.436 173.721 105.25C173.639 105.064 173.641 104.853 173.728 104.669L178.812 93.878L172.812 82.8734L172.815 82.8713Z" fill="black"/>
<path d="M178.522 94.2878C179.19 94.3744 179.877 94.4019 180.583 94.3638L181.838 94.2983C181.838 94.2983 189.038 93.3432 190.194 91.5578C191.348 89.7723 188.907 83.2916 188.907 83.2916C190.021 82.4253 190.27 81.3329 190.031 80.9652C189.793 80.5976 188.189 80.0376 187.538 79.5579C187.007 79.167 185.817 76.0651 185.308 74.7339C185.308 74.7339 184.366 69.4725 175.927 70.1572C156.59 71.7229 170.493 89.6159 170.493 89.6159C170.791 89.9645 171.1 90.2963 171.419 90.6132L178.524 94.2899L178.522 94.2878Z" fill="white"/>
<path d="M179.978 95.0802C178.888 95.0802 177.816 94.9344 176.785 94.647C176.413 94.5435 176.195 94.1568 176.299 93.7849C176.402 93.4131 176.787 93.1954 177.161 93.3011C178.249 93.6053 179.388 93.73 180.549 93.6687L181.777 93.6053C184.634 93.2229 188.937 92.2213 189.609 91.1817C190.272 90.1548 189.218 86.0957 188.256 83.5411C188.148 83.2537 188.239 82.9304 188.48 82.7423C189.199 82.1845 189.406 81.5823 189.418 81.3456C189.228 81.2189 188.787 81.0075 188.482 80.8618C187.986 80.623 187.47 80.3779 187.125 80.1243C186.61 79.7461 185.965 78.4001 184.657 74.9876C184.642 74.9474 184.63 74.9031 184.621 74.8608C184.585 74.677 183.638 70.2375 175.984 70.8566C171.284 71.237 168.291 72.5745 167.095 74.8312C165.064 78.66 168.342 84.4623 170.301 87.9298L170.476 88.2404C170.667 88.5764 170.546 89.0032 170.21 89.1934C169.874 89.3835 169.447 89.2652 169.257 88.9271L169.082 88.6165C166.981 84.8997 163.466 78.6811 165.857 74.1762C167.292 71.4715 170.66 69.8868 175.868 69.4642C184.239 68.7859 185.796 73.8106 185.974 74.5312C187.256 77.874 187.768 78.8185 187.971 79.0192C188.188 79.1777 188.662 79.4038 189.08 79.6045C189.909 80.0018 190.388 80.2426 190.617 80.5934C191.037 81.2442 190.792 82.4803 189.727 83.5115C190.361 85.2822 191.935 90.159 190.779 91.9466C189.514 93.9033 183.184 94.833 181.929 94.9999C181.91 95.002 181.893 95.0041 181.874 95.0041L180.618 95.0696C180.403 95.0802 180.189 95.0866 179.974 95.0866L179.978 95.0802Z" fill="black"/>
<path d="M171.976 67.8667C174.085 67.4504 176.488 67.7779 177.515 67.4293C179.172 66.8651 179.134 64.9592 181.469 64.7711C183.524 64.6063 185.434 64.9888 186.47 66.5608C186.643 66.8229 186.793 67.1166 186.913 67.4483C188.532 71.8941 186.296 74.0367 185.307 74.734C185.307 74.734 179.045 77.7408 177.963 78.605C176.953 79.4143 175.761 81.3393 176.412 84.1221C176.497 84.4813 176.323 84.8532 176.002 85.0328C175.624 85.2441 175.146 85.1385 174.899 84.7835C174.123 83.6615 172.418 81.4914 171.156 81.9922C169.683 82.5754 169.182 86.2774 171.889 87.1923C172.722 87.4733 172.997 88.5658 172.397 89.2081C171.898 89.7427 171.137 90.1146 169.987 89.8251C169.987 89.8251 163.25 85.0222 162.453 78.6938C161.657 72.3653 169.17 68.4203 171.976 67.8667Z" fill="black"/>
<path d="M161.83 16.6221C161.093 16.6221 160.347 16.4044 159.696 15.9522C158.876 15.3817 158.327 14.5238 158.149 13.5392C157.974 12.5545 158.191 11.5593 158.762 10.7394C159.332 9.91958 160.191 9.37019 161.175 9.1927C162.16 9.01732 163.153 9.23285 163.976 9.80548C164.796 10.376 165.345 11.2339 165.523 12.2185C165.698 13.2032 165.48 14.1963 164.91 15.0183C164.183 16.0621 163.016 16.6221 161.83 16.6221ZM161.841 10.5324C161.702 10.5324 161.562 10.545 161.423 10.5704C160.805 10.6803 160.269 11.0247 159.909 11.5403C159.552 12.0558 159.415 12.6771 159.525 13.2941C159.635 13.9111 159.979 14.4478 160.495 14.807C161.558 15.5465 163.022 15.2845 163.762 14.2217C164.119 13.7082 164.257 13.0849 164.147 12.4679C164.037 11.8509 163.692 11.3142 163.177 10.955C162.779 10.6781 162.317 10.5345 161.841 10.5345V10.5324Z" fill="black"/>
<path d="M375.461 89.4136C375.262 89.4136 375.068 89.3312 374.928 89.1685C374.679 88.8748 374.713 88.4332 375.007 88.1838L377.264 86.2589C377.56 86.0074 377.999 86.0434 378.249 86.3371C378.498 86.6308 378.464 87.0724 378.17 87.3217L375.913 89.2467C375.782 89.3587 375.62 89.4136 375.461 89.4136Z" fill="black"/>
<path d="M368.328 95.4947C368.13 95.4947 367.935 95.4123 367.796 95.2496C367.546 94.9558 367.58 94.5142 367.874 94.2649L370.131 92.3399C370.427 92.0885 370.866 92.1244 371.116 92.4181C371.365 92.7118 371.331 93.1535 371.038 93.4028L368.78 95.3277C368.649 95.4397 368.487 95.4947 368.328 95.4947Z" fill="black"/>
<path d="M370.945 89.0544C370.746 89.0544 370.552 88.972 370.412 88.8093L368.487 86.5526C368.238 86.2589 368.271 85.8173 368.565 85.568C368.861 85.3165 369.301 85.3524 369.55 85.6461L371.475 87.9029C371.725 88.1966 371.691 88.6382 371.397 88.8875C371.266 88.9995 371.103 89.0544 370.945 89.0544Z" fill="black"/>
<path d="M377.027 96.1858C376.828 96.1858 376.634 96.1034 376.494 95.9407L374.569 93.684C374.32 93.3903 374.354 92.9487 374.647 92.6993C374.943 92.4479 375.383 92.4838 375.632 92.7775L377.557 95.0342C377.807 95.3279 377.773 95.7695 377.479 96.0189C377.348 96.1309 377.185 96.1858 377.027 96.1858Z" fill="black"/>
<path d="M63.2982 314.483C62.9242 314.483 62.6135 314.187 62.6008 313.811L62.4888 310.847C62.474 310.462 62.7762 310.137 63.1608 310.122C63.5518 310.109 63.8709 310.407 63.8857 310.794L63.9977 313.758C64.0125 314.143 63.7103 314.468 63.3257 314.483C63.3172 314.483 63.3088 314.483 63.2982 314.483Z" fill="black"/>
<path d="M63.6498 323.848C63.2757 323.848 62.9651 323.552 62.9524 323.176L62.8404 320.212C62.8256 319.825 63.1278 319.502 63.5124 319.487C63.9034 319.472 64.2225 319.772 64.2373 320.159L64.3493 323.123C64.3641 323.51 64.0619 323.833 63.6773 323.848C63.6688 323.848 63.6582 323.848 63.6498 323.848Z" fill="black"/>
<path d="M57.2526 317.917C56.8785 317.917 56.5679 317.621 56.5552 317.245C56.5404 316.858 56.8426 316.535 57.2273 316.52L60.1923 316.408C60.5896 316.393 60.9024 316.696 60.9172 317.08C60.932 317.467 60.6298 317.79 60.2451 317.805L57.2801 317.917C57.2801 317.917 57.2611 317.917 57.2526 317.917Z" fill="black"/>
<path d="M66.6198 317.564C66.2457 317.564 65.9351 317.269 65.9224 316.892C65.9076 316.506 66.2098 316.182 66.5944 316.168L69.5595 316.056C69.9505 316.041 70.2696 316.341 70.2844 316.728C70.2992 317.114 69.997 317.438 69.6123 317.452L66.6473 317.564C66.6473 317.564 66.6283 317.564 66.6198 317.564Z" fill="black"/>
<path d="M34.9548 260.905C34.7012 260.905 34.4581 260.768 34.3335 260.527C20.7298 234.214 15.216 204.672 18.3882 175.094C19.187 167.648 20.5396 160.223 22.4078 153.03C22.505 152.656 22.8854 152.432 23.2595 152.529C23.6335 152.626 23.8575 153.007 23.7603 153.381C21.909 160.508 20.5691 167.863 19.7787 175.242C16.6362 204.547 22.0992 233.815 35.5761 259.883C35.7536 260.225 35.6184 260.648 35.276 260.825C35.1725 260.878 35.0647 260.903 34.9548 260.903V260.905Z" fill="black"/>
<path d="M36.8889 264.519C36.6417 264.519 36.4029 264.388 36.2761 264.158C35.6188 262.966 34.9658 261.742 34.336 260.527C34.1585 260.185 34.2937 259.762 34.6361 259.585C34.9784 259.408 35.4011 259.543 35.5786 259.885C36.2021 261.092 36.8488 262.3 37.5018 263.483C37.6878 263.822 37.5652 264.246 37.2271 264.432C37.1193 264.491 37.0052 264.519 36.891 264.519H36.8889Z" fill="black"/>
<path d="M28.608 279.312C28.365 279.312 28.1304 279.186 28.0015 278.96C18.5823 262.499 12.0161 244.661 8.48887 225.942C4.83698 206.568 4.54322 186.741 7.61605 167.01C7.67522 166.63 8.03238 166.368 8.4149 166.427C8.7953 166.486 9.05736 166.843 8.99818 167.226C3.0216 205.608 10.2028 245.044 29.2146 278.266C29.4069 278.602 29.2907 279.029 28.9546 279.219C28.8447 279.283 28.7264 279.312 28.608 279.312Z" fill="black"/>
<path d="M13.189 160.504C13.1108 160.504 13.0326 160.491 12.9565 160.464L6.88061 158.332C6.64603 158.249 6.47062 158.046 6.42624 157.801C6.37974 157.556 6.46851 157.305 6.65659 157.142L12.5698 152.056C12.7748 151.88 13.0622 151.836 13.3094 151.948C13.5567 152.058 13.7173 152.301 13.7237 152.571L13.8843 159.789C13.8885 160.02 13.7807 160.235 13.5969 160.371C13.4764 160.457 13.3327 160.504 13.1869 160.504H13.189ZM8.48676 157.412L12.4683 158.809L12.3627 154.08L8.48676 157.412Z" fill="black"/>
<path d="M220.61 156.185C220.397 156.185 220.185 156.088 220.048 155.902C219.817 155.591 219.883 155.154 220.194 154.923L240.564 139.836C240.875 139.606 241.312 139.672 241.543 139.982C241.773 140.293 241.708 140.73 241.397 140.96L221.026 156.047C220.902 156.14 220.756 156.185 220.61 156.185Z" fill="black"/>
<path d="M219.676 91.4228C219.463 91.4228 219.252 91.3256 219.114 91.1396C218.884 90.829 218.949 90.3916 219.26 90.1613L271.236 51.6665C271.547 51.4361 271.984 51.5016 272.214 51.8122C272.445 52.1229 272.379 52.5603 272.069 52.7906L220.093 91.2854C219.968 91.3784 219.822 91.4228 219.676 91.4228Z" fill="black"/>
<path d="M256.43 74.1068C256.217 74.1068 256.005 74.0096 255.868 73.8236C255.638 73.513 255.703 73.0756 256.014 72.8453L283.35 52.6005C283.661 52.3702 284.098 52.4357 284.329 52.7463C284.559 53.0569 284.494 53.4943 284.183 53.7247L256.847 73.9694C256.722 74.0624 256.576 74.1068 256.43 74.1068Z" fill="black"/>
<path d="M64.1981 160.438C63.7268 160.438 63.2534 160.349 62.8011 160.174C61.8163 159.792 61.0407 159.039 60.618 158.059C59.7537 156.058 60.6518 153.71 62.6194 152.827C62.9723 152.669 63.3844 152.827 63.5429 153.178C63.7014 153.531 63.5429 153.943 63.1921 154.101C61.9177 154.674 61.3408 156.2 61.9029 157.503C62.1777 158.139 62.6764 158.623 63.3104 158.87C63.9275 159.111 64.6017 159.092 65.2061 158.822C66.4805 158.249 67.0574 156.724 66.4953 155.42C66.3431 155.065 66.5058 154.655 66.8609 154.501C67.2138 154.349 67.6259 154.511 67.7802 154.866C68.6446 156.867 67.7464 159.215 65.7788 160.098C65.2737 160.324 64.737 160.438 64.2002 160.438H64.1981Z" fill="black"/>
<path d="M82.7852 34.6796L84.0595 39.5606L89.5669 39.3768C90.0636 40.4544 90.6426 41.4771 91.2999 42.4343L88.3306 47.066L91.8747 50.656L96.5516 47.7443C97.511 48.4184 98.5233 49.0121 99.58 49.5192L99.3243 55.0236L104.187 56.3612L106.778 51.5076C107.934 51.6111 109.109 51.6175 110.293 51.5245L112.822 56.4182L117.704 55.1441L117.52 49.6376C118.598 49.141 119.621 48.562 120.578 47.9049L125.211 50.8737L128.801 47.3302L125.887 42.652C126.561 41.6926 127.155 40.6805 127.662 39.624L133.168 39.8797L134.505 35.0155L129.651 32.425C129.757 31.2691 129.761 30.0943 129.668 28.911L134.562 26.3817L133.288 21.5007L127.781 21.6845C127.284 20.6069 126.705 19.5842 126.048 18.627L129.017 13.9953L125.473 10.4053L120.796 13.317C119.837 12.6429 118.824 12.0492 117.768 11.5421L118.023 6.03766L113.16 4.70012L110.569 9.55371C109.413 9.45017 108.238 9.44383 107.055 9.53681L104.525 4.64307L99.6434 5.91721L99.8273 11.4237C98.7495 11.9203 97.7266 12.4992 96.7693 13.1564L92.1368 10.1876L88.5462 13.7311L91.4605 18.4072C90.7863 19.3665 90.1925 20.3787 89.6853 21.4352L84.18 21.1795L82.8422 26.0437L87.6966 28.6342C87.5909 29.79 87.5867 30.9649 87.6797 32.1482L82.7852 34.6774V34.6796ZM105.394 17.9677C112.334 16.1569 119.427 20.3132 121.238 27.2523C123.049 34.1914 118.892 41.2827 111.952 43.0936C105.011 44.9044 97.9189 40.7481 96.1078 33.809C94.2966 26.8699 98.4536 19.7786 105.394 17.9677Z" fill="white"/>
<path d="M114.965 58.3664C114.709 58.3664 114.466 58.2249 114.343 57.9882L112.023 53.5023C111.116 53.5551 110.21 53.5509 109.32 53.4896L106.945 57.9396C106.79 58.227 106.456 58.3706 106.144 58.284L101.279 56.9465C100.964 56.8598 100.75 56.5661 100.765 56.2407L101 51.1927C100.197 50.787 99.4168 50.3306 98.6729 49.8277L94.3828 52.4986C94.1059 52.6719 93.7445 52.6296 93.5163 52.3972L89.9722 48.8072C89.7418 48.5747 89.7038 48.2134 89.8813 47.9387L92.6033 43.6915C92.1173 42.9457 91.6692 42.1575 91.2719 41.3398L86.2231 41.5088C85.885 41.5194 85.606 41.3038 85.5236 40.9869L84.2492 36.1058C84.1668 35.7889 84.3147 35.4592 84.6043 35.3092L89.0909 32.9891C89.0381 32.0805 89.0423 31.1741 89.1036 30.2866L84.6529 27.9116C84.3654 27.7573 84.2217 27.4256 84.3084 27.1107L85.6461 22.2487C85.7328 21.9339 86.0139 21.7225 86.352 21.7352L91.3987 21.9698C91.8045 21.1668 92.261 20.3871 92.7639 19.6412L90.0927 15.3518C89.9194 15.075 89.9616 14.7137 90.1941 14.4855L93.7847 10.942C94.0172 10.7116 94.3785 10.6736 94.6533 10.8511L98.9011 13.5727C99.6471 13.0867 100.435 12.6387 101.253 12.2415L101.084 7.19347C101.074 6.86595 101.289 6.57647 101.606 6.49406L106.488 5.21992C106.805 5.13751 107.135 5.28542 107.285 5.5749L109.605 10.0608C110.514 10.008 111.419 10.0122 112.308 10.0735L114.684 5.6235C114.838 5.33613 115.17 5.19245 115.485 5.27908L120.348 6.61662C120.662 6.70325 120.876 6.99696 120.861 7.32236L120.626 12.3682C121.427 12.7739 122.209 13.2303 122.953 13.7332L127.243 11.0624C127.52 10.8891 127.88 10.9314 128.11 11.1638L131.654 14.7538C131.884 14.9863 131.92 15.3476 131.745 15.6223L129.023 19.8694C129.509 20.6153 129.955 21.4035 130.354 22.2212L135.403 22.0522C135.735 22.0395 136.02 22.2571 136.103 22.5741L137.377 27.4552C137.459 27.7721 137.311 28.1017 137.022 28.2518L132.535 30.5718C132.588 31.4804 132.584 32.3869 132.523 33.2744L136.973 35.6494C137.261 35.8037 137.404 36.1354 137.318 36.4503L135.98 41.3144C135.893 41.6292 135.595 41.8427 135.274 41.8279L130.225 41.5933C129.82 42.3942 129.363 43.1739 128.86 43.9198L131.531 48.2092C131.705 48.486 131.662 48.8473 131.43 49.0755L127.839 52.619C127.607 52.8493 127.246 52.8853 126.971 52.7099L122.723 49.9883C121.977 50.4764 121.189 50.9223 120.371 51.3195L120.54 56.3675C120.55 56.695 120.335 56.9845 120.018 57.0669L115.136 58.3411C115.077 58.3559 115.018 58.3643 114.958 58.3643L114.965 58.3664ZM112.435 52.076C112.695 52.076 112.936 52.2197 113.056 52.4542L115.33 56.8514L119.13 55.8604L118.965 50.9138C118.955 50.6328 119.115 50.3729 119.371 50.2567C120.413 49.7749 121.406 49.2128 122.328 48.5832C122.56 48.4247 122.862 48.4205 123.099 48.5705L127.26 51.2371L130.054 48.4796L127.436 44.2769C127.288 44.0381 127.296 43.7338 127.457 43.5056C128.108 42.5822 128.685 41.5954 129.173 40.577C129.293 40.3234 129.56 40.1692 129.836 40.1818L134.784 40.4121L135.826 36.6256L131.464 34.2992C131.217 34.1661 131.071 33.8998 131.096 33.6188C131.195 32.5095 131.202 31.3663 131.113 30.2232C131.092 29.9422 131.24 29.6759 131.489 29.547L135.887 27.2734L134.896 23.4742L129.948 23.6391C129.667 23.6496 129.407 23.489 129.291 23.2334C128.809 22.1895 128.247 21.1964 127.617 20.2772C127.459 20.0448 127.455 19.7405 127.605 19.506L130.272 15.3434L127.514 12.55L123.31 15.168C123.072 15.3159 122.769 15.3074 122.539 15.1469C121.616 14.496 120.631 13.9192 119.61 13.4311C119.356 13.3106 119.2 13.0486 119.215 12.7676L119.445 7.82104L115.66 6.77932L113.333 11.1406C113.2 11.3878 112.934 11.5336 112.653 11.5082C111.543 11.4068 110.4 11.4026 109.257 11.4913C108.973 11.5146 108.709 11.3646 108.58 11.1152L106.306 6.71804L102.507 7.70905L102.671 12.6556C102.682 12.9366 102.521 13.1965 102.266 13.3128C101.224 13.7945 100.228 14.3566 99.309 14.9863C99.0787 15.1447 98.7743 15.149 98.5376 14.9989L94.3764 12.3302L91.5826 15.0877L94.201 19.2905C94.349 19.5292 94.3405 19.8335 94.1799 20.0617C93.529 20.9851 92.952 21.9698 92.4638 22.9904C92.3434 23.2439 92.0771 23.4003 91.8002 23.3855L86.8529 23.1552L85.811 26.9417L90.173 29.2681C90.4202 29.4012 90.566 29.6675 90.5407 29.9485C90.4414 31.0578 90.435 32.201 90.5238 33.3441C90.5449 33.6252 90.397 33.8914 90.1476 34.0203L85.7497 36.2939L86.7409 40.0931L91.6882 39.9283C91.9651 39.9177 92.2293 40.0783 92.3455 40.334C92.8273 41.3757 93.3895 42.3709 94.0193 43.2901C94.1778 43.5225 94.182 43.8268 94.032 44.0634L91.3649 48.224L94.1228 51.0174L98.3263 48.3993C98.5651 48.2514 98.8673 48.2599 99.0977 48.4205C100.021 49.0713 101.006 49.6481 102.027 50.1362C102.28 50.2567 102.437 50.5187 102.422 50.7997L102.192 55.7463L105.979 56.788L108.306 52.4267C108.439 52.1795 108.707 52.0337 108.984 52.0591C110.093 52.1584 111.237 52.1647 112.38 52.076C112.399 52.076 112.416 52.0739 112.435 52.0739V52.076ZM110.818 45.4707C104.742 45.4707 99.1801 41.3884 97.5761 35.2416C96.6525 31.7044 97.1618 28.0214 99.011 24.8688C100.86 21.7162 103.825 19.4701 107.361 18.5488C114.663 16.6429 122.152 21.0337 124.059 28.3321C124.982 31.8692 124.473 35.5522 122.624 38.7048C120.774 41.8575 117.809 44.1036 114.274 45.0249C113.12 45.3249 111.962 45.4707 110.82 45.4707H110.818ZM107.714 19.899C104.537 20.7273 101.875 22.7431 100.216 25.5746C98.5567 28.406 98.0981 31.7129 98.9265 34.8887C100.638 41.4433 107.363 45.3841 113.919 43.6725C117.095 42.8442 119.758 40.8284 121.417 37.997C123.076 35.1655 123.534 31.8587 122.706 28.6828C120.994 22.1282 114.272 18.1875 107.714 19.899Z" fill="black"/>
<path d="M0 83.2075L2.17887 91.5581L11.6023 91.2433C12.454 93.0858 13.4431 94.8354 14.5674 96.4751L9.48476 104.401L15.548 110.544L23.5534 105.559C25.1934 106.713 26.9263 107.729 28.7353 108.595L28.2979 118.013L36.6203 120.301L41.0541 111.995C43.0322 112.175 45.0441 112.183 47.0687 112.025L51.399 120.399L59.751 118.22L59.4361 108.798C61.279 107.947 63.0288 106.958 64.6688 105.834L72.596 110.915L78.7395 104.853L73.7541 96.8491C74.908 95.2094 75.9245 93.4767 76.791 91.668L86.2103 92.1054L88.499 83.7843L80.1914 79.3512C80.3711 77.3735 80.3795 75.3619 80.221 73.3376L88.5963 69.008L86.4174 60.6574L76.9939 60.9722C76.1422 59.1297 75.1532 57.378 74.0289 55.7404L79.1115 47.8145L73.0483 41.672L65.0429 46.6566C63.4029 45.5029 61.6699 44.4865 59.8609 43.6202L60.2984 34.2025L51.976 31.9141L47.5421 40.2203C45.564 40.0407 43.5521 40.0323 41.5275 40.1908L37.1972 31.8169L28.8452 33.9954L29.1601 43.4173C27.3173 44.2689 25.5674 45.2578 23.9275 46.3819L16.0002 41.3001L9.85671 47.3623L14.8421 55.3664C13.6882 57.0061 12.6717 58.7388 11.8052 60.5475L2.38598 60.1101L0.0951012 68.4333L8.40272 72.8664C8.22308 74.8442 8.21463 76.8558 8.37313 78.88L0 83.2075ZM38.685 54.6121C50.56 51.5144 62.6991 58.6268 65.7973 70.4998C68.8955 82.3728 61.7819 94.51 49.907 97.6077C38.032 100.705 25.8929 93.5929 22.7947 81.7199C19.6965 69.8469 26.8101 57.7098 38.685 54.6121Z" fill="#99B9FF"/>
<path d="M55.0604 123.245C54.8046 123.245 54.5616 123.103 54.439 122.867L50.3222 114.903C48.5723 115.019 46.8267 115.01 45.117 114.879L40.9008 122.78C40.7466 123.067 40.4127 123.211 40.0999 123.124L31.7775 120.836C31.4626 120.749 31.2491 120.456 31.2639 120.13L31.6803 111.171C30.1291 110.404 28.6265 109.523 27.1978 108.545L19.5834 113.286C19.3065 113.459 18.9452 113.417 18.7169 113.185L12.6537 107.042C12.4233 106.81 12.3853 106.448 12.5628 106.174L17.3961 98.6345C16.4472 97.2082 15.587 95.689 14.8326 94.1063L5.8698 94.4064C5.52955 94.4148 5.2527 94.2014 5.17028 93.8845L2.9914 85.5338C2.90898 85.2169 3.05692 84.8872 3.34645 84.7372L11.3117 80.619C11.1955 78.8694 11.2039 77.1219 11.3349 75.4146L3.4331 71.1991C3.14568 71.0449 3.00197 70.7132 3.08862 70.3983L5.37739 62.0773C5.46403 61.7624 5.74934 61.549 6.08325 61.5638L15.0439 61.9801C15.8132 60.4291 16.6944 58.9247 17.6708 57.4963L12.9284 49.8831C12.7551 49.6063 12.7974 49.2449 13.0299 49.0167L19.1734 42.9545C19.4059 42.7242 19.7673 42.6861 20.042 42.8636L27.5825 47.6961C29.0069 46.7474 30.5264 45.8874 32.1114 45.1309L31.8113 36.1696C31.8007 35.8421 32.0163 35.5526 32.3333 35.4702L40.6853 33.2917C41.0023 33.2093 41.332 33.3572 41.482 33.6467L45.601 41.6106C47.3508 41.4944 49.0986 41.5029 50.8062 41.6339L55.0223 33.7333C55.1766 33.4459 55.5084 33.3023 55.8233 33.3889L64.1457 35.6773C64.4606 35.7639 64.674 36.0576 64.6592 36.383L64.2429 45.3422C65.7941 46.1092 67.2988 46.9925 68.7253 47.9687L76.3398 43.2271C76.6166 43.0538 76.9759 43.0961 77.2062 43.3285L83.2695 49.471C83.4998 49.7035 83.5358 50.0648 83.3604 50.3395L78.5271 57.8787C79.476 59.3029 80.3361 60.8221 81.0927 62.4069L90.0555 62.1069C90.3852 62.0942 90.6726 62.3118 90.755 62.6288L92.9339 70.9794C93.0163 71.2964 92.8684 71.626 92.5788 71.776L84.6136 75.8943C84.7298 77.646 84.7214 79.3913 84.5903 81.0986L92.4922 85.3141C92.7796 85.4683 92.9233 85.8001 92.8367 86.117L90.5479 94.4381C90.4612 94.7529 90.1696 94.9684 89.842 94.9515L80.8814 94.5353C80.1142 96.0841 79.233 97.5886 78.2545 99.017L82.9969 106.63C83.1702 106.907 83.1279 107.268 82.8954 107.496L76.7519 113.559C76.5194 113.789 76.158 113.825 75.8833 113.65L68.3428 108.817C66.9163 109.766 65.3968 110.628 63.8139 111.38L64.114 120.342C64.1246 120.669 63.909 120.959 63.592 121.041L55.24 123.219C55.1808 123.234 55.1216 123.243 55.0625 123.243L55.0604 123.245ZM50.7301 113.472C50.99 113.472 51.2309 113.616 51.3514 113.85L55.4239 121.728L62.6938 119.83L62.3979 110.968C62.3874 110.687 62.548 110.427 62.8037 110.311C64.6106 109.476 66.3372 108.5 67.9349 107.406C68.1653 107.247 68.4717 107.243 68.7063 107.393L76.1644 112.173L81.5112 106.894L76.8216 99.3656C76.6737 99.1268 76.6821 98.8226 76.8427 98.5944C77.9713 96.9885 78.9751 95.279 79.8226 93.5126C79.943 93.259 80.2051 93.1026 80.4862 93.1174L89.3475 93.5295L91.3404 86.2861L83.5252 82.1171C83.2779 81.984 83.1321 81.7177 83.1575 81.4367C83.3308 79.5117 83.3413 77.5276 83.1849 75.5414C83.1638 75.2604 83.3117 74.9941 83.5611 74.8652L91.4397 70.7935L89.5419 63.5247L80.6785 63.8205C80.3974 63.8311 80.1375 63.6705 80.0212 63.4148C79.1865 61.6061 78.208 59.8797 77.1154 58.2844C76.9569 58.052 76.9526 57.7477 77.1027 57.5132L81.8831 50.0585L76.6039 44.7104L69.074 49.3992C68.8352 49.5471 68.533 49.5387 68.3027 49.3781C66.6986 48.2497 64.9889 47.2481 63.22 46.4008C62.9664 46.2804 62.81 46.0184 62.8248 45.7373L63.2369 36.8775L55.9923 34.8849L51.8227 42.6988C51.6895 42.9461 51.4211 43.0918 51.1422 43.0665C49.2169 42.8932 47.2325 42.8827 45.2459 43.039C44.9648 43.0602 44.6985 42.9122 44.5696 42.6629L40.4972 34.7856L33.2272 36.6831L33.5231 45.5451C33.5337 45.8261 33.3731 46.086 33.1173 46.2022C31.3083 47.0368 29.5817 48.0152 27.9861 49.1076C27.7536 49.2661 27.4493 49.2703 27.2126 49.1203L19.7546 44.3406L14.4078 49.6189L19.0973 57.1476C19.2453 57.3864 19.2368 57.6907 19.0762 57.9189C17.9476 59.5205 16.9459 61.2321 16.0985 63.0007C15.978 63.2542 15.7159 63.4106 15.4349 63.3958L6.57355 62.9838L4.58065 70.2272L12.3959 74.3961C12.6431 74.5293 12.7889 74.7955 12.7636 75.0765C12.5903 77.0036 12.5797 78.9877 12.7361 80.9718C12.7572 81.2529 12.6093 81.5191 12.3599 81.648L4.48132 85.7198L6.37912 92.9885L15.2425 92.6927C15.5236 92.6843 15.7836 92.8427 15.8998 93.0984C16.7346 94.9072 17.711 96.6314 18.8057 98.2288C18.9642 98.4612 18.9684 98.7655 18.8184 99.0001L14.0379 106.455L19.3171 111.801L26.847 107.112C27.0858 106.964 27.388 106.972 27.6184 107.133C29.2224 108.261 30.9342 109.263 32.701 110.11C32.9546 110.231 33.111 110.493 33.0962 110.774L32.6841 119.634L39.9287 121.626L44.0984 113.812C44.2315 113.565 44.4978 113.419 44.7767 113.445C46.7041 113.618 48.6886 113.628 50.673 113.472C50.692 113.472 50.7089 113.47 50.728 113.47L50.7301 113.472ZM47.9214 101.181C43.8997 101.181 39.9329 100.114 36.3719 98.026C31.0906 94.9304 27.3289 89.9648 25.784 84.042C24.237 78.1193 25.0908 71.9493 28.1869 66.6688C31.2829 61.3884 36.2493 57.6273 42.1731 56.0827C48.0989 54.5359 54.2678 55.3896 59.5491 58.4852C64.8304 61.5807 68.5922 66.5463 70.1371 72.4691C71.684 78.3918 70.8302 84.5618 67.7342 89.8423C64.6381 95.1227 59.6717 98.8839 53.748 100.428C51.8185 100.931 49.8636 101.181 47.9214 101.181ZM42.526 57.435C36.9637 58.8866 32.2995 62.4175 29.3936 67.3767C26.4877 72.3359 25.6847 78.1298 27.1365 83.6913C28.5884 89.2527 32.1198 93.9162 37.0799 96.8215C42.0399 99.7269 47.8348 100.53 53.3971 99.0782C58.9595 97.6266 63.6237 94.0958 66.5296 89.1365C69.4354 84.1773 70.2385 78.3834 68.7866 72.8219C67.3347 67.2605 63.8033 62.5971 58.8433 59.6917C53.8832 56.7863 48.0884 55.9833 42.526 57.435Z" fill="black"/>
</svg>
