<svg width="450" height="449" viewBox="0 0 450 449" fill="none" xmlns="http://www.w3.org/2000/svg">
<path d="M18.7634 297.029C64.0992 400.424 183.771 444.834 277.535 437.262C303.137 435.195 354.648 431.035 394.868 393.923C472.108 322.652 460.213 173.677 386.272 85.9679C376.75 74.6728 310.839 -1.0028 208.13 0.0100744C132.933 0.751781 80.152 42.199 73.734 47.3625C65.6265 53.8854 47.7444 69.3861 31.6285 93.9766C-6.23827 151.756 -9.56688 232.417 18.7634 297.029Z" fill="url(#paint0_linear_49_4663)"/>
<path d="M284.126 356.123C283.941 353.822 281.591 351.831 277.612 350.234C281.936 347.85 284.328 345.294 284.126 342.787C283.515 335.202 259.494 330.95 230.474 333.29C201.455 335.63 178.426 343.675 179.037 351.26C179.223 353.561 181.573 355.552 185.552 357.149C181.227 359.534 178.835 362.09 179.037 364.596C179.223 366.896 181.573 368.888 185.552 370.485C181.227 372.869 178.835 375.425 179.037 377.932C179.223 380.232 181.573 382.224 185.552 383.82C181.227 386.205 178.835 388.761 179.037 391.267C179.308 394.622 184.163 397.323 191.998 399.092C191.897 401.571 191.954 404.288 192.197 407.287C193.332 421.264 209.054 432.223 229.847 432.223C250.641 432.223 268.638 417.281 268.842 403.26C268.892 399.824 268.746 396.799 268.435 394.111C278.384 390.789 284.443 386.73 284.126 382.794C283.941 380.493 281.591 378.502 277.612 376.906C281.936 374.521 284.328 371.965 284.126 369.458C283.941 367.158 281.591 365.166 277.612 363.57C281.936 361.185 284.328 358.63 284.126 356.123Z" fill="url(#paint1_linear_49_4663)"/>
<path d="M217.047 402.11C208.429 402.11 200.543 401.476 194.027 400.228C193.649 400.156 193.401 399.791 193.473 399.413C193.546 399.035 193.909 398.787 194.289 398.86C204.485 400.811 218.102 401.242 232.634 400.07C244.524 399.111 255.644 397.193 264.791 394.524C265.162 394.416 265.548 394.628 265.655 394.997C265.763 395.367 265.551 395.754 265.182 395.862C255.945 398.557 244.729 400.493 232.746 401.459C227.348 401.895 222.073 402.11 217.047 402.11Z" fill="#7D97F4"/>
<path d="M217.191 388.762C205.993 388.762 195.987 387.709 188.928 385.699C188.558 385.594 188.344 385.208 188.449 384.838C188.554 384.468 188.938 384.254 189.31 384.359C199.368 387.223 215.563 388.11 232.633 386.734C249.518 385.373 265.265 381.947 274.757 377.569C275.107 377.408 275.521 377.56 275.682 377.91C275.843 378.26 275.691 378.674 275.341 378.835C265.708 383.277 249.784 386.75 232.745 388.124C227.428 388.553 222.19 388.762 217.191 388.762Z" fill="#7D97F4"/>
<path d="M217.048 375.437C204.958 375.437 194.377 374.2 187.256 371.852C186.89 371.731 186.692 371.337 186.813 370.972C186.933 370.606 187.326 370.407 187.693 370.528C197.602 373.796 214.403 374.868 232.633 373.399C249.517 372.038 265.264 368.612 274.757 364.233C275.107 364.073 275.521 364.225 275.682 364.574C275.843 364.924 275.691 365.338 275.341 365.499C265.707 369.942 249.783 373.415 232.745 374.789C227.346 375.224 222.067 375.437 217.048 375.437Z" fill="#7D97F4"/>
<path d="M217.141 362.095C207.55 362.095 198.827 361.32 192.046 359.813C191.67 359.729 191.433 359.357 191.517 358.981C191.6 358.605 191.974 358.368 192.348 358.452C202.546 360.718 217.229 361.305 232.633 360.063C249.366 358.714 265.033 355.325 274.542 350.996C274.892 350.836 275.305 350.991 275.465 351.342C275.625 351.692 275.47 352.106 275.119 352.265C265.472 356.657 249.631 360.091 232.745 361.453C227.41 361.883 222.156 362.095 217.141 362.095Z" fill="#7D97F4"/>
<path d="M159.561 288.808C156.036 276.324 150.05 264.657 141.987 254.496C124.711 232.723 96.5278 188.444 93.0588 128.01C88.013 40.1068 165.973 -3.90254 237.113 2.07208C308.253 8.0467 378.45 61.0155 370.765 142.792C366.037 193.11 337.873 231.276 316.904 253.195C303.589 267.114 294.091 284.161 288.949 302.724C282.656 325.445 267.681 353.759 232.085 355.485C186.025 357.718 166.895 314.786 159.561 288.808Z" fill="url(#paint2_linear_49_4663)"/>
<path d="M243.85 337.956L268.742 176.057C269.256 172.713 270.902 170.467 272.419 171.041C273.935 171.615 274.747 174.791 274.233 178.136C274.219 178.225 274.201 178.335 274.186 178.423L245.832 338.817C245.619 340.023 245.006 340.785 244.464 340.518C243.938 340.26 243.672 339.124 243.85 337.956Z" fill="url(#paint3_linear_49_4663)"/>
<path d="M218.012 339.241L193.12 177.343C192.606 173.998 190.959 171.752 189.443 172.326C187.927 172.9 187.115 176.076 187.629 179.421C187.643 179.51 187.661 179.62 187.676 179.708L216.03 340.102C216.243 341.308 216.856 342.07 217.398 341.803C217.924 341.545 218.19 340.409 218.012 339.241Z" fill="url(#paint4_linear_49_4663)"/>
<path opacity="0.7" d="M268.564 162.157C267.932 161.14 266.469 160.761 265.297 161.309L251.436 167.785L246.625 154.076C246.371 153.361 245.781 152.727 244.94 152.38C243.345 151.723 241.438 152.311 240.681 153.693L240.656 153.738L229.258 174.521L218.68 144.935L218.663 144.886C218.404 144.164 217.858 143.515 217.062 143.081C215.288 142.112 212.945 142.574 211.828 144.112L195.893 166.049C195.245 166.948 195.468 168.153 196.454 168.817C197.507 169.527 199.025 169.362 199.843 168.449L213.874 152.798L226.506 180.942L226.516 180.964C226.718 181.414 227.099 181.807 227.629 182.055C228.814 182.61 230.294 182.227 230.934 181.199L243.125 161.637L247.714 171.531L247.754 171.619C247.787 171.69 247.825 171.76 247.868 171.829C248.5 172.845 249.961 173.224 251.133 172.677L267.585 164.989C268.758 164.442 269.196 163.173 268.564 162.157Z" fill="white"/>
<path d="M8.36798 434.574C8.36798 434.574 6.40599 437.666 5.91249 446.325C5.86654 447.131 6.50559 447.819 7.31365 447.819H22.6577C23.275 447.819 23.7157 447.213 23.5179 446.628C22.6188 443.967 19.9002 437.479 13.8341 433.771L8.36798 434.574Z" fill="url(#paint5_linear_49_4663)"/>
<path d="M7.70117 428.707L8.56899 435.984C8.64385 436.611 9.1359 437.114 9.76403 437.186C10.6033 437.283 11.8232 437.351 13.0086 437.156C14.0862 436.978 14.8617 436.018 14.8617 434.926V427.9L7.70117 428.707Z" fill="url(#paint6_linear_49_4663)"/>
<path d="M46.332 433.771C46.332 433.771 43.3952 438.336 43.458 444.602C43.4728 446.078 44.7085 447.254 46.1845 447.254H70.0155C71.1314 447.254 71.5844 445.82 70.6711 445.179C66.1618 442.012 57.2982 436.097 50.8876 433.771H46.332Z" fill="url(#paint7_linear_49_4663)"/>
<path d="M43.877 425.913L45.7281 434.9C45.9352 435.905 46.9185 436.581 47.9203 436.358C48.5293 436.222 49.2477 435.961 50.0153 435.481C50.7448 435.025 51.1146 434.157 50.9655 433.31L49.0507 422.422L43.877 425.913Z" fill="url(#paint8_linear_49_4663)"/>
<path d="M11.1011 300.957C11.1011 300.957 4.66465 306.631 3.45354 313.458C2.24226 320.285 6.88543 431.249 6.88543 431.249C6.88543 431.249 13.3216 432.32 16.6394 430.309C16.6394 430.309 20.5745 358.294 23.5657 341.654C23.5657 341.654 39.2521 416.251 43.5986 429.73C43.5986 429.73 49.7992 430.485 51.7988 429.305C51.7988 429.305 49.0409 321.119 43.8778 303.928L11.1011 300.957Z" fill="url(#paint9_linear_49_4663)"/>
<path d="M23.3774 339.313C23.0669 339.313 22.7837 339.105 22.7021 338.791L20.0372 328.567L14.3606 324.926C14.036 324.718 13.9413 324.285 14.1497 323.961C14.3581 323.635 14.7892 323.541 15.115 323.75L21.0217 327.539C21.1695 327.634 21.2765 327.781 21.3203 327.951L24.0539 338.438C24.1516 338.812 23.9278 339.194 23.5541 339.291C23.495 339.306 23.4362 339.313 23.3774 339.313Z" fill="#7D97F4"/>
<path d="M61.2046 225.362C34.1452 228.007 28.1836 234.793 28.1836 234.793L44.6791 252.682C44.6791 252.682 70.777 247.391 86.9086 229.506C82.7067 226.363 79.5055 222.627 77.3478 219.657C72.8746 222.55 67.5165 224.745 61.2046 225.362Z" fill="#91B3FA"/>
<path d="M95.8169 178.627C95.6253 177.78 94.4254 177.758 94.2035 178.599L92.1249 186.477C91.7233 187.999 91.7988 189.608 92.3413 191.085L94.3042 195.092C95.0366 197.087 94.8831 199.297 93.8747 201.167C91.4614 205.644 86.1058 213.993 77.3477 219.657C79.5055 222.627 82.7065 226.363 86.9084 229.506C92.8274 222.943 97.4065 214.687 98.8597 204.372C100.319 203.615 101.086 201.972 100.731 200.367L95.8169 178.627Z" fill="url(#paint10_linear_49_4663)"/>
<path d="M42.341 204.621L37.9023 225.583C37.9023 225.583 48.2454 230.267 55.5245 228.315L56.3173 210.049L42.341 204.621Z" fill="url(#paint11_linear_49_4663)"/>
<path d="M53.4221 188.862C53.6525 189.088 62.939 208.297 62.939 208.297L51.8582 213.366L40.3516 196.468C40.3516 196.468 49.5659 185.078 53.4221 188.862Z" fill="url(#paint12_linear_49_4663)"/>
<path d="M45.2351 198.464L50.5957 207.834C50.6645 207.954 50.7467 208.062 50.8455 208.159C51.4496 208.753 53.6776 210.645 55.4744 208.247C57.1048 206.072 58.6252 204.111 60.2498 203.509C60.9791 203.239 61.793 203.565 62.1313 204.266C62.9745 206.012 64.8021 209.98 65.8638 213.67C66.0792 214.419 65.6782 215.204 64.9513 215.485C62.7606 216.329 58.0902 217.981 54.0218 218.43C53.4705 218.49 52.932 218.251 52.6146 217.797C51.0667 215.579 46.3375 208.858 44.73 207.189C43.2212 205.623 40.3278 206.202 39.1302 206.531C38.7376 206.639 38.3217 206.582 37.9724 206.373C36.7374 205.634 34.2762 203.62 36.6074 200.247C37.0953 199.542 36.9036 198.581 36.1833 198.115C34.7492 197.187 33.0677 195.384 34.6462 192.48C36.2504 189.529 39.0621 189.439 40.8504 189.746C41.5736 189.87 42.261 189.448 42.5165 188.76C42.662 188.369 42.9791 188.035 43.6238 187.974C44.4924 187.891 45.0815 187.047 44.9096 186.191C44.5795 184.548 44.7903 182.357 47.4883 180.945C52.2759 178.441 56.3347 182.767 57.3151 186.369C58.2954 189.971 52.9502 192.392 49.6122 192.745C47.0743 193.013 45.6676 195.834 45.139 197.17C44.9713 197.594 45.0091 198.068 45.2351 198.464Z" fill="url(#paint13_linear_49_4663)"/>
<path d="M46.7169 210.582C46.7169 210.582 44.7393 204.379 42.0403 204.549C39.3413 204.72 37.165 207.36 40.4419 210.447C44.518 214.286 46.7169 210.582 46.7169 210.582Z" fill="url(#paint14_linear_49_4663)"/>
<path d="M224.532 171.221C220.041 175.507 212.657 179.708 201.402 178.572C180.008 176.411 177.719 156.55 180.051 146.167C182.019 137.405 200.34 124.092 216.391 132.302C219.797 134.044 223.642 131.063 222.967 127.135L214.879 80.0293L163.172 90.4171C158.672 91.321 154.848 86.8787 156.116 82.1736C157.501 77.0365 158.509 70.1947 157.758 62.0561C156.023 43.2569 139.452 37.7292 124.655 41.8551C111.91 45.4088 99.4046 68.9378 117 87.7849C120.443 91.4722 118.578 97.843 113.812 98.8022L70.3047 107.559L79.8739 163.285C90.298 143.402 110.832 144.18 121.571 160.208C132.35 176.297 128.731 193.432 111.408 198.061C102.547 200.428 95.9471 198.041 91.6309 195.174C89.373 193.674 86.6091 195.669 87.0902 198.472L94.8138 243.449L137.806 236.312C142.575 235.52 146.427 240.991 144.141 245.492C142.158 249.396 140.859 254.112 141.519 259.418C143.424 274.755 156.579 287.589 171.159 286.937C185.842 286.279 198.576 269.305 193.877 254.995C191.65 248.214 187.898 242.042 184.573 237.43C181.801 233.585 183.798 228.119 188.243 227.38L239.858 218.805L232.166 174.017C231.521 170.259 227.2 168.674 224.532 171.221Z" fill="url(#paint15_linear_49_4663)"/>
<path d="M72.1154 235.488C60.8886 227.087 42.1818 225.776 31.4911 225.785C26.8074 225.789 22.798 229.127 21.9787 233.738C19.6032 247.106 12.8727 281.984 11.438 288.029C10.2608 292.989 8.97511 297.857 8.14986 300.905C7.65684 302.725 8.71968 304.603 10.5382 305.104C20.0098 307.714 36.5421 309.607 43.2313 310.302C44.7027 310.455 45.9027 309.152 45.6375 307.697C45.4126 306.463 45.5273 305.19 45.9695 304.016L62.719 259.547C80.7419 273.439 94.149 272.566 103.572 267.089C100.921 262.157 98.8543 257.108 97.3632 251.943C81.997 252.107 72.1154 235.488 72.1154 235.488Z" fill="#7D97F4"/>
<path d="M121.484 244.665L118.142 241.569C110.525 249.135 103.506 251.878 97.3633 251.943C98.8544 257.108 100.921 262.157 103.572 267.089C115.987 259.874 121.484 244.665 121.484 244.665Z" fill="url(#paint16_linear_49_4663)"/>
<path d="M119.6 245.075L134.858 242.905L147.387 232.572C145.156 231.682 134.301 236.311 134.301 236.311C134.301 236.311 122.138 236.678 118.934 237.258C116.273 237.739 117.35 241.496 117.792 242.755C117.882 243.012 117.945 243.165 117.945 243.165L119.6 245.075Z" fill="url(#paint17_linear_49_4663)"/>
<path d="M384.738 168.443C384.738 168.443 355.436 205.959 388.868 244.117L401.437 242.945C401.437 242.945 377.242 204.096 388.018 173.128L405.822 174.428L415.668 168.011L384.738 168.443Z" fill="url(#paint18_linear_49_4663)"/>
<path d="M435.141 112.105C431.372 114.428 426.757 116.618 421.474 117.859C392.233 124.73 393.99 87.1968 408.303 71.1568C415.626 62.9508 424.972 64.8013 432.403 68.6125C437.867 71.415 444.344 67.1643 443.974 60.9116L440.939 9.60547L393.015 13.8011C387.65 14.2708 384.658 20.3823 387.402 25.0574C390.565 30.4463 393.606 37.8387 394.138 46.8327C395.313 66.6867 369.631 73.3831 361.357 74.6455C353.878 75.7862 323.292 64.0003 339.725 29.4246C342.113 24.4015 338.431 18.6881 333.104 19.1543L280.128 23.7909L283.135 74.6122C283.386 78.8501 278.965 81.5526 275.564 79.3071C259.54 68.7219 238.574 80.6553 235.458 89.6985C231.764 100.416 231.845 121.711 254.238 126.522C266.019 129.053 274.332 125.476 279.592 121.468C282.716 119.087 287.105 121.274 287.344 125.329L290.204 173.65L344.857 170.714C350.283 170.422 353.108 163.933 349.734 159.486C344.909 153.127 339.498 145.404 337.94 140.871C334.957 132.195 338.807 113.77 359.26 109.564C379.901 105.318 395.851 118.642 396.124 137.537C396.246 146.038 394.627 153.141 392.81 158.38C391.172 163.102 394.885 168.025 399.786 167.762L449.87 165.071L447.109 118.403C446.752 112.371 440.229 108.968 435.141 112.105Z" fill="url(#paint19_linear_49_4663)"/>
<path d="M400.787 352.122C400.787 352.122 424.528 403.867 436.984 425.299C436.984 425.299 439.458 438.785 436.984 443.025L434.876 443.962L444.716 443.669C444.716 443.669 445.59 425.53 444.907 424.517C444.225 423.503 442.859 423.57 442.859 423.57C442.859 423.57 438.64 390.143 426.421 383.009L414.579 342.222L400.787 352.122Z" fill="url(#paint20_linear_49_4663)"/>
<path d="M430.674 446.503C430.659 446.74 438.357 446.632 442.539 446.555C444.083 446.527 445.4 445.442 445.729 443.933L448.887 427.342C449.187 425.765 448.185 424.234 446.621 423.876L444.858 423.473C444.858 423.473 442.344 426.923 443.135 430.17C443.927 433.418 444.631 441.831 442.631 442.811C440.63 443.791 434.876 443.963 434.876 443.963C434.876 443.963 430.805 444.366 430.674 446.503Z" fill="url(#paint21_linear_49_4663)"/>
<path d="M378.284 446.804C377.505 447.248 377.827 448.437 378.723 448.428C385.721 448.357 401.402 448.136 402.795 447.556C404.594 446.808 402.14 440.344 399.556 438.156L385.293 442.811L378.284 446.804Z" fill="url(#paint22_linear_49_4663)"/>
<path d="M373.857 348.822C373.857 348.822 389.199 423.042 393.54 437.519L383.273 443.962C383.273 443.962 388.418 443.087 392.233 442.811C396.048 442.534 399.557 438.156 399.557 438.156L398.327 436.194C398.327 436.194 394.48 362.379 395.417 353.997L373.857 348.822Z" fill="url(#paint23_linear_49_4663)"/>
<path d="M335.772 175.705C335.772 175.705 333.656 214.314 368.807 234.043L360.344 253.343C360.344 253.343 328.528 234.1 329.696 181.617C329.73 180.103 329.191 178.631 328.203 177.484L321.439 169.638C318.862 166.648 317.899 162.592 318.857 158.764L319.748 155.205C320.046 154.013 321.403 153.44 322.465 154.057L323.172 154.468C325.424 155.776 327.207 157.758 328.271 160.135L331.592 167.559C332.398 169.362 332.658 169.979 333.573 170.119C334.799 170.307 335.945 169.445 336.227 168.236L336.462 167.225C339.437 169.755 339.306 172.572 335.772 175.705Z" fill="url(#paint24_linear_49_4663)"/>
<path d="M367.583 231.149C373.463 232.78 393.386 238.021 405.823 237.807L398.187 280.9L398.795 287.928L373.897 287.817C373.897 287.817 366.888 271.539 361.358 263.424C359.761 261.08 360.95 258.285 361.855 255.597L360.611 254.769C359.346 253.926 358.797 252.343 359.269 250.898L365.332 232.348C365.647 231.413 366.632 230.886 367.583 231.149Z" fill="url(#paint25_linear_49_4663)"/>
<path d="M371.903 284.139L372.393 288.397C372.393 288.397 365.357 309.468 375.911 358.683C375.911 358.683 398.769 365.158 417.556 349.663C417.556 349.663 412.256 303.212 410.809 301.048C403.599 290.271 398.796 287.928 398.796 287.928L398.579 283.276C398.579 283.276 378.486 286.909 371.903 284.139Z" fill="url(#paint26_linear_49_4663)"/>
<path d="M381.65 234.622C381.562 234.507 386.847 218.666 386.847 218.666L394.418 219.352L397.376 237.324C397.376 237.324 385.511 239.718 381.65 234.622Z" fill="url(#paint27_linear_49_4663)"/>
<path d="M392.604 193.683C392.099 193.997 376.427 200.474 379.794 216.745C379.993 217.707 380.635 218.522 381.531 218.922C383.831 219.948 388.782 221.704 394.704 221.102C402.915 220.268 408.295 205.941 408.066 201.772C407.837 197.603 397.607 190.568 392.604 193.683Z" fill="url(#paint28_linear_49_4663)"/>
<path d="M397.374 187.357C396.962 187.411 388.317 190.422 392.604 196.687C396.891 202.951 398.5 206.639 396.472 209.39C394.624 211.896 390.532 210.467 390.889 215.681C390.961 216.725 390.509 217.738 389.643 218.325C385.787 220.935 376.378 228.97 385.7 240.428C386.457 241.36 386.613 242.646 386.029 243.694C383.299 248.591 377.564 262.937 398.326 270.894C418.842 278.758 426.25 265.347 428.32 259.986C428.767 258.827 429.909 258.117 431.15 258.176C433.405 258.282 436.599 257.907 436.452 254.895C436.363 253.065 435.221 251.425 433.872 250.11C432.537 248.809 432.801 246.53 434.422 245.609C435.646 244.913 436.73 243.827 437.188 242.132C438.431 237.525 435.949 223.749 422.744 221.414C421.643 221.219 420.489 220.187 420.329 219.08C420.326 219.063 420.324 219.047 420.321 219.03C420.144 217.96 420.506 216.865 421.381 216.223C423.49 214.677 426.194 211.563 423.997 206.569C422.05 202.14 418.314 200.646 415.539 200.17C413.909 199.89 412.838 198.349 413.182 196.732C414.118 192.326 413.302 185.269 397.374 187.357Z" fill="url(#paint29_linear_49_4663)"/>
<defs>
<linearGradient id="paint0_linear_49_4663" x1="-24.033" y1="498.291" x2="301.635" y2="146.777" gradientUnits="userSpaceOnUse">
<stop stop-color="#DAE3FE"/>
<stop offset="1" stop-color="#E9EFFD"/>
</linearGradient>
<linearGradient id="paint1_linear_49_4663" x1="270.308" y1="252.736" x2="236.986" y2="351.077" gradientUnits="userSpaceOnUse">
<stop stop-color="#09005D"/>
<stop offset="1" stop-color="#1A0F91"/>
</linearGradient>
<linearGradient id="paint2_linear_49_4663" x1="234.738" y1="16.4743" x2="226.61" y2="349.696" gradientUnits="userSpaceOnUse">
<stop stop-color="#A5EFFF"/>
<stop offset="1" stop-color="#5479F7"/>
</linearGradient>
<linearGradient id="paint3_linear_49_4663" x1="257.994" y1="222.474" x2="268.216" y2="547.258" gradientUnits="userSpaceOnUse">
<stop stop-color="#324D90"/>
<stop offset="1" stop-color="#5479F7"/>
</linearGradient>
<linearGradient id="paint4_linear_49_4663" x1="201.673" y1="223.759" x2="211.895" y2="548.543" gradientUnits="userSpaceOnUse">
<stop stop-color="#324D90"/>
<stop offset="1" stop-color="#5479F7"/>
</linearGradient>
<linearGradient id="paint5_linear_49_4663" x1="5.91024" y1="440.795" x2="23.5659" y2="440.795" gradientUnits="userSpaceOnUse">
<stop stop-color="#09005D"/>
<stop offset="1" stop-color="#1A0F91"/>
</linearGradient>
<linearGradient id="paint6_linear_49_4663" x1="7.70125" y1="432.59" x2="14.8618" y2="432.59" gradientUnits="userSpaceOnUse">
<stop stop-color="#FEBBBA"/>
<stop offset="1" stop-color="#FF928E"/>
</linearGradient>
<linearGradient id="paint7_linear_49_4663" x1="43.4571" y1="440.513" x2="71.1594" y2="440.513" gradientUnits="userSpaceOnUse">
<stop stop-color="#09005D"/>
<stop offset="1" stop-color="#1A0F91"/>
</linearGradient>
<linearGradient id="paint8_linear_49_4663" x1="43.8769" y1="429.411" x2="50.9979" y2="429.411" gradientUnits="userSpaceOnUse">
<stop stop-color="#FEBBBA"/>
<stop offset="1" stop-color="#FF928E"/>
</linearGradient>
<linearGradient id="paint9_linear_49_4663" x1="3.25189" y1="366.245" x2="51.7985" y2="366.245" gradientUnits="userSpaceOnUse">
<stop stop-color="#09005D"/>
<stop offset="1" stop-color="#1A0F91"/>
</linearGradient>
<linearGradient id="paint10_linear_49_4663" x1="74.9768" y1="206.648" x2="101.013" y2="201.903" gradientUnits="userSpaceOnUse">
<stop stop-color="#FEBBBA"/>
<stop offset="1" stop-color="#FF928E"/>
</linearGradient>
<linearGradient id="paint11_linear_49_4663" x1="63.9673" y1="170.816" x2="27.7273" y2="280.858" gradientUnits="userSpaceOnUse">
<stop stop-color="#FEBBBA"/>
<stop offset="1" stop-color="#FF928E"/>
</linearGradient>
<linearGradient id="paint12_linear_49_4663" x1="50.1595" y1="192.39" x2="56.1293" y2="232.54" gradientUnits="userSpaceOnUse">
<stop stop-color="#FEBBBA"/>
<stop offset="1" stop-color="#FF928E"/>
</linearGradient>
<linearGradient id="paint13_linear_49_4663" x1="42.6415" y1="211.204" x2="63.1192" y2="190.334" gradientUnits="userSpaceOnUse">
<stop stop-color="#09005D"/>
<stop offset="1" stop-color="#1A0F91"/>
</linearGradient>
<linearGradient id="paint14_linear_49_4663" x1="43.3556" y1="235.938" x2="42.7286" y2="207.818" gradientUnits="userSpaceOnUse">
<stop stop-color="#FEBBBA"/>
<stop offset="1" stop-color="#FF928E"/>
</linearGradient>
<linearGradient id="paint15_linear_49_4663" x1="199.611" y1="56.9963" x2="115.086" y2="258.555" gradientUnits="userSpaceOnUse">
<stop stop-color="#4F52FF"/>
<stop offset="1" stop-color="#4042E2"/>
</linearGradient>
<linearGradient id="paint16_linear_49_4663" x1="139.9" y1="47.7702" x2="123.371" y2="156.532" gradientUnits="userSpaceOnUse">
<stop stop-color="#FEBBBA"/>
<stop offset="1" stop-color="#FF928E"/>
</linearGradient>
<linearGradient id="paint17_linear_49_4663" x1="160.423" y1="50.8904" x2="143.894" y2="159.651" gradientUnits="userSpaceOnUse">
<stop stop-color="#FEBBBA"/>
<stop offset="1" stop-color="#FF928E"/>
</linearGradient>
<linearGradient id="paint18_linear_49_4663" x1="405.246" y1="163.668" x2="384.183" y2="228.23" gradientUnits="userSpaceOnUse">
<stop stop-color="#FEBBBA"/>
<stop offset="1" stop-color="#FF928E"/>
</linearGradient>
<linearGradient id="paint19_linear_49_4663" x1="387.839" y1="-11.7151" x2="305.478" y2="241.871" gradientUnits="userSpaceOnUse">
<stop stop-color="#4F52FF"/>
<stop offset="1" stop-color="#4042E2"/>
</linearGradient>
<linearGradient id="paint20_linear_49_4663" x1="400.787" y1="393.092" x2="445.168" y2="393.092" gradientUnits="userSpaceOnUse">
<stop stop-color="#FEBBBA"/>
<stop offset="1" stop-color="#FF928E"/>
</linearGradient>
<linearGradient id="paint21_linear_49_4663" x1="461.79" y1="293.844" x2="439.811" y2="436.704" gradientUnits="userSpaceOnUse">
<stop stop-color="#09005D"/>
<stop offset="1" stop-color="#1A0F91"/>
</linearGradient>
<linearGradient id="paint22_linear_49_4663" x1="415.284" y1="286.69" x2="393.306" y2="429.551" gradientUnits="userSpaceOnUse">
<stop stop-color="#09005D"/>
<stop offset="1" stop-color="#1A0F91"/>
</linearGradient>
<linearGradient id="paint23_linear_49_4663" x1="373.857" y1="396.392" x2="399.557" y2="396.392" gradientUnits="userSpaceOnUse">
<stop stop-color="#FEBBBA"/>
<stop offset="1" stop-color="#FF928E"/>
</linearGradient>
<linearGradient id="paint24_linear_49_4663" x1="355.63" y1="234.992" x2="400.33" y2="339.022" gradientUnits="userSpaceOnUse">
<stop stop-color="#FEBBBA"/>
<stop offset="1" stop-color="#FF928E"/>
</linearGradient>
<linearGradient id="paint25_linear_49_4663" x1="373.627" y1="230.926" x2="467.952" y2="417.744" gradientUnits="userSpaceOnUse">
<stop stop-color="#4F52FF"/>
<stop offset="1" stop-color="#4042E2"/>
</linearGradient>
<linearGradient id="paint26_linear_49_4663" x1="351.167" y1="280.291" x2="433.587" y2="373.242" gradientUnits="userSpaceOnUse">
<stop stop-color="#09005D"/>
<stop offset="1" stop-color="#1A0F91"/>
</linearGradient>
<linearGradient id="paint27_linear_49_4663" x1="381.648" y1="228.276" x2="397.375" y2="228.276" gradientUnits="userSpaceOnUse">
<stop stop-color="#FEBBBA"/>
<stop offset="1" stop-color="#FF928E"/>
</linearGradient>
<linearGradient id="paint28_linear_49_4663" x1="406.642" y1="207.952" x2="521.114" y2="215.736" gradientUnits="userSpaceOnUse">
<stop stop-color="#FEBBBA"/>
<stop offset="1" stop-color="#FF928E"/>
</linearGradient>
<linearGradient id="paint29_linear_49_4663" x1="430.265" y1="204.835" x2="295.005" y2="363.232" gradientUnits="userSpaceOnUse">
<stop stop-color="#09005D"/>
<stop offset="1" stop-color="#1A0F91"/>
</linearGradient>
</defs>
</svg>
