<svg width="496" height="369" viewBox="0 0 496 369" fill="none" xmlns="http://www.w3.org/2000/svg">
<path d="M191.934 182.362H297.51V368.019H191.934V182.362Z" fill="#E4E6ED"/>
<path d="M37.0757 262.073H142.652V368.019H37.0757V262.073Z" fill="#F1F2F5"/>
<path d="M352.198 87.2905H457.774V368.017H352.198V87.2905Z" fill="#1FC0F3"/>
<path d="M0.52734 368.548H495.473C495.764 368.548 496 368.311 496 368.019C496 367.727 495.764 367.49 495.473 367.49H0.52734C0.236247 367.49 -2.7545e-06 367.727 -2.7545e-06 368.019C-2.7545e-06 368.311 0.236247 368.548 0.52734 368.548Z" fill="#1D2238"/>
<path d="M406.664 0V44.8943L336.793 32.8034L406.664 0Z" fill="#1FC0F3"/>
<path d="M405.504 0H407.824V87.2907H405.504V0Z" fill="#1D2238"/>
<path d="M228.312 171.828C228.312 171.828 231.514 170.991 233.622 177.117L225.351 173.639L228.312 171.828Z" fill="#1D2238"/>
<path d="M224.086 204.031C223.748 203.818 223.48 203.513 223.314 203.149L216.509 188.376L216.585 188.34C213.961 183.704 215.3 177.752 219.782 174.729C223.797 172.022 228.275 172.308 232.11 175.586C233.09 176.425 233.936 177.413 234.656 178.486L236.056 180.578C239.216 185.294 237.967 191.687 233.268 194.857C232.892 195.111 232.504 195.334 232.11 195.531L235.257 201.576C236.269 203.521 235.05 205.886 232.884 206.18C232.867 206.182 232.848 206.184 232.831 206.186C229.973 206.565 227.072 205.915 224.632 204.374L224.088 204.031H224.086Z" fill="#EB9481"/>
<path d="M232.116 195.529C232.116 195.529 228.779 197.074 226.659 196.649C226.659 196.649 228.515 198.24 232.835 196.922L232.116 195.529Z" fill="#1D2238"/>
<path d="M210.733 176.62C210.733 176.62 207.41 177.272 205.301 183.199C205.301 183.199 205.921 175.864 210.697 174.618C211.188 169.177 216.483 165.27 219.706 164.692C223.454 164.019 223.663 160.994 223.663 160.994C224.937 162.205 224.602 164.087 224.602 164.087C226.277 163.886 226.526 159.851 226.526 159.851C229.118 161.13 228.645 164.021 228.645 164.021C230.143 163.348 229.747 160.793 229.747 160.793C236.499 166.375 229.542 174.122 229.542 174.122C226.798 177.414 217.491 179.094 217.491 179.094C217.491 179.094 219.877 181.827 219.678 183.792C219.543 185.115 218.563 187.526 218.563 187.526L218.137 191.916L219.314 194.471C219.314 194.471 213.597 193.668 208.615 186.078C206.47 182.809 208.062 177.962 210.733 176.618V176.62Z" fill="#1D2238"/>
<path d="M216.036 190.665C216.814 191.827 218.204 192.257 219.139 191.626C220.075 190.995 220.202 189.541 219.424 188.379C218.645 187.217 217.255 186.787 216.321 187.418C215.384 188.048 215.258 189.503 216.036 190.665Z" fill="#EB9481"/>
<path d="M218.34 188.247C218.186 188.05 217.952 187.91 217.678 187.853C217.406 187.802 217.081 187.849 216.821 188.027C216.754 188.067 216.695 188.12 216.633 188.171C216.579 188.228 216.524 188.287 216.479 188.353C216.385 188.48 216.317 188.624 216.269 188.77C216.178 189.066 216.18 189.373 216.239 189.659C216.273 189.803 216.326 189.936 216.387 190.067C216.42 190.131 216.452 190.194 216.49 190.256C216.532 190.319 216.555 190.366 216.625 190.444C216.686 190.514 216.762 190.597 216.903 190.664C217.038 190.736 217.249 190.745 217.382 190.692C217.648 190.584 217.72 190.442 217.802 190.332C218.095 189.881 218.152 189.462 218.384 189.056L218.391 189.045C218.397 189.032 218.393 189.018 218.382 189.011C218.374 189.007 218.363 189.007 218.357 189.011C218.163 189.147 218.028 189.337 217.895 189.519C217.762 189.703 217.64 189.896 217.496 190.065C217.424 190.148 217.342 190.23 217.249 190.258C217.159 190.29 217.07 190.23 217.009 190.144C216.884 189.966 216.79 189.758 216.745 189.545C216.638 189.123 216.735 188.626 217.079 188.346C217.245 188.205 217.465 188.133 217.684 188.128C217.903 188.124 218.125 188.186 218.321 188.294C218.334 188.3 218.348 188.294 218.355 188.283C218.359 188.275 218.359 188.264 218.353 188.255L218.346 188.247H218.34Z" fill="#1D2238"/>
<path d="M228.626 179.847C228.769 180.122 228.93 180.381 229.099 180.633C229.179 180.762 229.269 180.88 229.358 181.003C229.444 181.126 229.533 181.249 229.626 181.365C229.809 181.602 229.993 181.837 230.191 182.059L230.482 182.398L230.788 182.722L231.128 183.084L231.497 182.726C231.634 182.595 231.775 182.468 231.906 182.332L232.069 182.167C232.104 182.138 232.14 182.114 232.182 182.093C232.267 182.059 232.36 182.04 232.459 182.045C232.558 182.051 232.651 182.091 232.737 182.152C232.912 182.271 233.03 182.519 232.986 182.792C232.971 182.857 232.954 182.927 232.923 182.995C232.895 183.054 232.832 183.141 232.782 183.221C232.678 183.384 232.577 183.552 232.482 183.727L232.478 183.734C232.471 183.746 232.476 183.763 232.488 183.772C232.499 183.778 232.512 183.776 232.52 183.768L232.925 183.372C232.992 183.306 233.06 183.243 233.127 183.166C233.189 183.09 233.241 183.006 233.279 182.917C233.438 182.555 233.353 182.102 233.073 181.818C232.798 181.528 232.347 181.431 231.974 181.581C231.881 181.619 231.794 181.67 231.716 181.729C231.638 181.795 231.573 181.86 231.505 181.928L231.105 182.33H231.181L228.664 179.809C228.653 179.799 228.634 179.799 228.624 179.809C228.616 179.818 228.613 179.83 228.62 179.841L228.624 179.849L228.626 179.847Z" fill="#1D2238"/>
<path d="M224.017 181.525C224.228 181.74 224.888 181.434 225.492 180.839C226.095 180.244 226.411 179.588 226.2 179.372C225.989 179.156 225.329 179.463 224.728 180.058C224.125 180.652 223.808 181.309 224.019 181.525H224.017Z" fill="#1D2238"/>
<path d="M228.653 177.686C228.778 177.962 229.503 177.9 230.271 177.549C231.041 177.197 231.562 176.689 231.438 176.414C231.313 176.139 230.588 176.2 229.82 176.552C229.05 176.903 228.529 177.411 228.653 177.686Z" fill="#1D2238"/>
<path d="M226.079 182.185C226.292 182.505 226.725 182.589 227.043 182.375C227.362 182.162 227.446 181.728 227.233 181.408C227.02 181.088 226.588 181.004 226.269 181.218C225.951 181.431 225.866 181.865 226.079 182.185Z" fill="#1D2238"/>
<path d="M230.819 178.956C231.032 179.276 231.465 179.361 231.783 179.147C232.102 178.933 232.186 178.499 231.973 178.18C231.76 177.86 231.328 177.775 231.009 177.989C230.691 178.203 230.606 178.637 230.819 178.956Z" fill="#1D2238"/>
<path d="M236.111 185.546C236.111 185.546 233.059 183.402 229.485 187.902C229.485 187.902 232.43 181.791 236.111 185.546Z" fill="white"/>
<path d="M229.163 186.898C229.176 187.093 229.207 187.263 229.237 187.43C229.271 187.597 229.306 187.758 229.344 187.917L229.467 188.395C229.515 188.558 229.549 188.721 229.621 188.905C229.83 188.577 229.84 188.173 229.754 187.817C229.709 187.637 229.64 187.466 229.543 187.307C229.444 187.152 229.325 187.004 229.161 186.898H229.163Z" fill="#1D2238"/>
<path d="M289.475 173.631L294.717 169.171L306.046 164.097L305.344 168.864L296.822 173.218L292.675 176.298L289.475 173.631Z" fill="#1D2238"/>
<path d="M233.029 197.673C233.029 197.673 239.633 196.805 254.141 211.095C268.65 225.383 268.799 241.564 268.799 241.564L253.932 248.604L233.031 197.675L233.029 197.673Z" fill="#1D2238"/>
<path d="M235.773 198.312L261.491 195.529L289.476 173.631L265.498 200.766H236.48L235.773 198.312Z" fill="#1D2238"/>
<path d="M310.747 335.387L309.441 332.866L319.864 327.43L320.741 329.126L336.146 327.985C338.449 327.813 340.628 329.054 341.666 331.124L314.341 345.495L310.747 335.389V335.387Z" fill="#F0C36A"/>
<path d="M313.392 343.674C315.708 342.616 317.995 341.498 320.269 340.359C321.408 339.796 322.538 339.21 323.671 338.634L327.057 336.875L330.425 335.085C331.541 334.475 332.665 333.878 333.775 333.258C336.003 332.03 338.219 330.779 340.405 329.469C338.089 330.527 335.802 331.645 333.528 332.784C332.387 333.347 331.261 333.933 330.126 334.509L326.74 336.268L323.372 338.061C322.254 338.668 321.131 339.267 320.022 339.887C317.794 341.115 315.577 342.366 313.392 343.674Z" fill="#1D2238"/>
<path d="M314.552 337.918C313.834 336.543 314.363 334.844 315.733 334.124C317.103 333.403 318.796 333.933 319.515 335.309C320.233 336.684 319.704 338.383 318.334 339.103C316.964 339.824 315.271 339.294 314.552 337.918Z" fill="#1D2238"/>
<path d="M333.932 327.885C333.54 327.921 333.23 328.084 332.96 328.287C332.692 328.495 332.473 328.755 332.308 329.051C332.144 329.348 332.042 329.688 332.019 330.04C332 330.391 332.07 330.764 332.291 331.081H332.359C332.382 330.935 332.388 330.783 332.428 330.639C332.445 330.565 332.456 330.491 332.477 330.419L332.54 330.203C332.637 329.919 332.755 329.642 332.907 329.381C333.051 329.117 333.213 328.863 333.395 328.622C333.485 328.501 333.58 328.384 333.679 328.27C333.774 328.154 333.875 328.039 333.981 327.934L333.935 327.883L333.932 327.885Z" fill="#1D2238"/>
<path d="M330.007 328.207C329.614 328.243 329.304 328.406 329.034 328.609C328.766 328.816 328.547 329.077 328.382 329.373C328.218 329.669 328.117 330.01 328.093 330.362C328.074 330.713 328.144 331.085 328.366 331.403H328.433C328.456 331.257 328.463 331.105 328.503 330.961C328.52 330.887 328.53 330.812 328.551 330.74L328.614 330.525C328.712 330.241 328.83 329.964 328.982 329.703C329.125 329.439 329.287 329.185 329.469 328.943C329.559 328.823 329.654 328.706 329.754 328.592C329.848 328.476 329.95 328.361 330.055 328.255L330.009 328.205L330.007 328.207Z" fill="#1D2238"/>
<path d="M326.389 328.53C325.997 328.566 325.687 328.729 325.417 328.933C325.149 329.14 324.929 329.4 324.765 329.697C324.6 329.993 324.499 330.334 324.476 330.685C324.457 331.037 324.526 331.409 324.748 331.727H324.815C324.839 331.581 324.845 331.428 324.885 331.284C324.902 331.21 324.912 331.136 324.934 331.064L324.997 330.848C325.094 330.565 325.212 330.287 325.364 330.027C325.507 329.762 325.67 329.508 325.851 329.267C325.942 329.146 326.037 329.03 326.136 328.916C326.231 328.799 326.332 328.685 326.438 328.579L326.391 328.528L326.389 328.53Z" fill="#1D2238"/>
<path d="M341.607 229.183L338.595 229.276L338.475 217.39L340.7 217.395L346.819 203.162C347.735 201.034 349.838 199.669 352.148 199.703L352.198 230.66L341.607 229.183Z" fill="#F0C36A"/>
<path d="M350.152 230.665C350.289 228.114 350.359 225.564 350.405 223.013C350.435 221.739 350.439 220.462 350.456 219.188L350.468 215.363L350.445 211.538C350.424 210.264 350.416 208.987 350.382 207.713C350.327 205.162 350.249 202.612 350.103 200.063C349.966 202.614 349.895 205.164 349.848 207.715C349.819 208.989 349.814 210.266 349.797 211.54L349.785 215.365L349.81 219.19C349.831 220.464 349.84 221.741 349.873 223.015C349.928 225.566 350.006 228.116 350.152 230.665Z" fill="#1D2238"/>
<path d="M345.575 226.957C347.123 226.954 348.374 225.693 348.372 224.141C348.37 222.59 347.113 221.332 345.567 221.334C344.018 221.337 342.767 222.598 342.77 224.15C342.772 225.703 344.029 226.959 345.575 226.957Z" fill="#1D2238"/>
<path d="M345.71 205.086C345.561 205.452 345.561 205.803 345.615 206.138C345.675 206.47 345.803 206.787 345.989 207.071C346.174 207.355 346.43 207.602 346.727 207.787C347.029 207.967 347.392 208.077 347.773 208.026L347.807 207.967C347.685 207.878 347.556 207.801 347.446 207.7C347.389 207.651 347.328 207.609 347.276 207.556L347.115 207.399C346.909 207.181 346.721 206.948 346.56 206.694C346.394 206.445 346.244 206.182 346.115 205.909C346.052 205.774 345.991 205.634 345.936 205.494C345.877 205.354 345.824 205.213 345.778 205.071L345.713 205.088L345.71 205.086Z" fill="#1D2238"/>
<path d="M344.18 208.726C344.03 209.092 344.03 209.444 344.085 209.778C344.144 210.111 344.272 210.428 344.458 210.712C344.644 210.995 344.899 211.243 345.196 211.427C345.498 211.607 345.861 211.717 346.243 211.666L346.276 211.607C346.154 211.518 346.025 211.442 345.916 211.34C345.859 211.292 345.798 211.249 345.745 211.196L345.584 211.04C345.378 210.822 345.19 210.589 345.03 210.335C344.863 210.085 344.713 209.823 344.585 209.55C344.521 209.414 344.46 209.274 344.405 209.135C344.346 208.995 344.294 208.853 344.247 208.711L344.182 208.728L344.18 208.726Z" fill="#1D2238"/>
<path d="M342.789 212.094C342.639 212.46 342.639 212.812 342.694 213.146C342.753 213.478 342.881 213.796 343.067 214.079C343.253 214.363 343.508 214.611 343.805 214.795C344.107 214.975 344.47 215.085 344.852 215.034L344.885 214.975C344.763 214.886 344.634 214.81 344.525 214.708C344.468 214.659 344.406 214.617 344.354 214.564L344.193 214.408C343.987 214.19 343.799 213.957 343.639 213.703C343.472 213.453 343.322 213.19 343.194 212.917C343.13 212.782 343.069 212.642 343.014 212.502C342.955 212.363 342.902 212.221 342.856 212.079L342.791 212.096L342.789 212.094Z" fill="#1D2238"/>
<path d="M291.012 243.278L338.776 233.62L338.405 213.559L278.948 220.805C277.379 221.029 257.04 230.929 244.8 236.937C236.792 240.865 232.875 250.219 235.923 258.625C237.967 264.262 242.899 268.756 253.887 267.278C263.862 265.936 291.012 243.278 291.012 243.278Z" fill="#1D2238"/>
<path d="M275.925 294.827L305.083 338.551L322.717 325.597L291.686 274.794C290.857 273.44 273.729 258.637 263.374 249.749C256.601 243.936 246.491 244.042 240.015 250.185C235.672 254.306 233.518 260.633 239.233 270.165C244.419 278.821 275.925 294.827 275.925 294.827Z" fill="#1D2238"/>
<path d="M221.894 199.527C225.269 222.437 232.867 245.935 234.889 264.287C248.818 266.745 257.321 250.319 263.161 238.933C263.263 238.736 262.908 236.672 256.937 224.473C250.935 212.215 242.719 199.839 233.027 197.675C229.321 198.319 225.6 198.918 221.892 199.527H221.894Z" fill="white"/>
<path d="M221.894 199.527C220.799 201.364 220.168 203.426 219.879 205.555C219.538 208.072 219.717 210.631 220.316 213.1L234.565 271.744C239.963 272.695 245.542 271.516 250.039 268.372C256.542 263.828 261.681 257.422 263.375 249.749C263.375 249.749 245.719 198.799 221.894 199.525V199.527Z" fill="#4A4E60"/>
<path d="M233.028 197.664C233.028 197.664 247.26 207.279 241.736 227.72L244.497 238.56L252.553 230.605C252.553 230.605 258.756 210.399 237.083 199.074C236.047 198.532 234.165 197.922 233.026 197.662L233.028 197.664Z" fill="#F0C36A"/>
<path d="M245.472 253.924L255.049 244.212L253.313 239.777L243.331 249.337L245.472 253.924ZM254.8 244.159L245.533 253.557L243.584 249.383L253.228 240.146L254.8 244.159Z" fill="#1D2238"/>
<path d="M272.364 257.494C271.843 256.832 271.265 256.239 270.674 255.661C270.08 255.088 269.466 254.539 268.831 254.015C268.198 253.487 267.546 252.986 266.873 252.507C266.196 252.033 265.507 251.576 264.762 251.187C265.283 251.849 265.861 252.442 266.452 253.02C267.046 253.593 267.66 254.142 268.295 254.666C268.93 255.191 269.582 255.695 270.255 256.174C270.932 256.648 271.622 257.105 272.366 257.494H272.364Z" fill="#4A4E60"/>
<path d="M112.016 331.612C128.849 329.949 144.564 326.835 158.724 322.36C174.464 317.386 188.92 310.529 201.694 301.986C213.597 294.025 224.905 284.417 235.3 273.435C245.155 263.021 254.27 251.292 262.387 238.575C277.332 215.159 292.831 188.245 303.203 169.791C310.09 157.537 317.661 145.655 324.985 134.164C334.449 119.312 344.237 103.955 352.569 87.7326L406.826 70.5551L406.51 69.5454L351.833 86.8562L351.731 87.0531C343.399 103.306 333.585 118.703 324.094 133.596C316.764 145.099 309.183 156.993 302.284 169.274C291.918 187.717 276.429 214.613 261.499 238.007C253.418 250.67 244.345 262.346 234.537 272.712C224.197 283.638 212.95 293.193 201.112 301.112C188.422 309.6 174.055 316.41 158.41 321.357C144.319 325.81 128.676 328.909 111.915 330.567L112.018 331.621L112.016 331.612Z" fill="#1D2238"/>
<path d="M407.28 70.5086C407.533 70.5086 407.788 70.5001 408.041 70.4832C408.276 70.4684 408.453 70.2652 408.436 70.0302C408.421 69.7953 408.221 69.6175 407.984 69.6344C406.913 69.7042 405.829 69.6132 404.768 69.3656C404.54 69.3126 404.312 69.4545 404.259 69.6831C404.207 69.9117 404.348 70.1403 404.576 70.1932C405.468 70.4028 406.375 70.5086 407.28 70.5086Z" fill="#1D2238"/>
<path d="M406.499 72.0645C407.096 72.0645 407.672 71.9311 408.231 71.802C408.459 71.7491 408.602 71.5204 408.55 71.2918C408.497 71.0632 408.269 70.9193 408.041 70.9722C407.451 71.1098 406.837 71.2495 406.263 71.2029C405.653 71.1543 405.147 70.8939 404.759 70.4324C404.607 70.2525 404.339 70.2313 404.162 70.3816C403.983 70.534 403.962 70.8008 404.112 70.9807C404.643 71.6136 405.364 71.984 406.193 72.0518C406.297 72.0602 406.398 72.0645 406.499 72.0645Z" fill="#1D2238"/>
<path d="M407.055 73.76C407.473 73.76 407.859 73.6119 408.201 73.4785C408.42 73.3938 408.528 73.1483 408.446 72.9281C408.361 72.708 408.116 72.5979 407.897 72.6826C407.598 72.7969 407.29 72.9154 407.022 72.907C406.324 72.8795 405.602 71.9883 405.075 71.3364C404.927 71.1543 404.659 71.1268 404.478 71.2728C404.296 71.421 404.269 71.6877 404.415 71.8719C405.043 72.6509 405.904 73.7156 406.988 73.7579C407.009 73.7579 407.032 73.7579 407.053 73.7579L407.055 73.76Z" fill="#1D2238"/>
<path d="M221.893 199.527L265.498 200.766L289.473 173.631L300.21 181.41L282.827 210.249C280.327 214.395 276.617 217.672 272.197 219.632C269.455 220.849 266.506 221.529 263.509 221.635L226.371 222.958C226.371 222.958 216.491 208.568 221.893 199.527Z" fill="#4A4E60"/>
<path d="M290.924 174.659L294.717 170.229L302.098 169.234L306.563 163.072C306.563 163.072 308.194 166.984 308.2 166.999C309.035 169.001 308.71 171.429 308.213 173.478C307.949 174.564 307.519 175.737 306.772 176.588C306.021 177.445 304.772 177.809 303.772 178.309C302.237 179.077 300.672 179.782 299.13 180.538L299.073 180.565L290.924 174.659Z" fill="#EB9481"/>
<path d="M294.717 170.229C295.035 169.59 295.782 168.972 296.244 168.421C296.773 167.79 297.303 167.158 297.834 166.529C298.366 165.898 298.898 165.269 299.433 164.643C299.79 164.228 300.397 162.791 301.115 163.284C301.313 163.422 301.429 163.648 301.522 163.872C302.121 165.333 302.273 166.796 301.6 168.288C301.6 168.292 299.819 172.227 299.819 172.227L294.717 170.229Z" fill="#EB9481"/>
<path d="M307.948 166.394C307.828 166.618 307.718 166.844 307.617 167.075C307.512 167.304 307.421 167.537 307.324 167.767C307.145 168.233 306.972 168.701 306.822 169.175L306.885 169.059C306.375 169.613 305.883 170.185 305.421 170.782C305.193 171.082 304.966 171.383 304.75 171.696C304.535 172.007 304.326 172.327 304.141 172.663C304.451 172.435 304.738 172.185 305.018 171.929C305.301 171.675 305.567 171.408 305.835 171.141C306.364 170.604 306.864 170.041 307.345 169.459L307.393 169.401L307.408 169.344C307.535 168.864 307.64 168.375 307.739 167.886C307.782 167.638 307.83 167.395 307.864 167.145C307.902 166.897 307.931 166.645 307.948 166.394Z" fill="#1D2238"/>
<path d="M308.713 170.754C308.593 170.978 308.483 171.205 308.382 171.436C308.276 171.664 308.186 171.897 308.089 172.128C307.909 172.593 307.736 173.061 307.586 173.535L307.65 173.419C307.139 173.973 306.648 174.545 306.186 175.142C305.958 175.443 305.73 175.743 305.515 176.056C305.3 176.368 305.091 176.687 304.905 177.024C305.216 176.795 305.502 176.545 305.781 176.289C306.064 176.035 306.329 175.768 306.597 175.502C307.127 174.964 307.627 174.401 308.108 173.819L308.156 173.762L308.171 173.705C308.297 173.224 308.403 172.735 308.502 172.246C308.544 171.999 308.593 171.755 308.626 171.505C308.664 171.258 308.694 171.006 308.711 170.754H308.713Z" fill="#1D2238"/>
<path d="M245.609 222.271C244.089 222.096 242.566 222.005 241.045 221.943C240.283 221.905 239.524 221.895 238.762 221.873L236.48 221.85L234.198 221.873C233.436 221.897 232.677 221.905 231.915 221.943C230.394 222.005 228.872 222.098 227.351 222.273C228.872 222.449 230.394 222.542 231.915 222.604C232.677 222.644 233.436 222.65 234.198 222.674L236.48 222.697L238.762 222.674C239.524 222.65 240.283 222.642 241.045 222.604C242.566 222.542 244.089 222.449 245.609 222.276V222.271Z" fill="#1D2238"/>
<path d="M142.612 198.283H3.58554C2.21867 194.502 5.83834 187.617 9.58458 186.19C17.6297 183.125 26.7823 183.095 34.8485 186.105C34.241 172.321 48.1565 160.469 61.8717 161.43C75.5868 162.391 87.1547 174.209 90.0044 187.708C107.717 179.664 130.747 182.828 142.614 198.283H142.612Z" fill="#F1F2F5"/>
<path d="M196.892 120.265H323.556C314.878 112.455 306.444 108.088 294.902 109.722C298.619 96.49 289.359 81.5394 276.255 77.5281C273.386 76.6497 270.326 76.2179 267.381 76.7767C261.53 77.888 256.973 82.8073 254.657 88.313C252.341 93.8187 251.885 99.9022 251.462 105.863C248.287 102.616 243.265 101.333 238.93 102.665C234.595 103.994 231.146 107.878 230.326 112.351C226.501 106.839 218.393 105.55 212.252 108.217C206.11 110.884 199.541 114.097 196.894 120.265H196.892Z" fill="#F1F2F5"/>
<path d="M160.378 106.638H99.1117C102.413 104.142 106.672 100.51 110.777 100.988C111.135 95.0633 115.246 89.5364 120.804 87.5065C126.363 85.4765 133.054 87.0577 137.123 91.3653C139.546 93.9308 141.008 97.2414 142.335 100.516C142.723 101.477 143.227 102.557 144.221 102.838C144.752 102.988 145.317 102.872 145.864 102.787C150.165 102.118 157.373 103.477 160.376 106.638H160.378Z" fill="#F1F2F5"/>
</svg>
