<svg width="459" height="398" viewBox="0 0 459 398" fill="none" xmlns="http://www.w3.org/2000/svg">
<path d="M356.38 45.3141C350.101 47.2666 348.516 48.8494 346.561 55.1198C344.606 48.8495 343.021 47.2666 336.742 45.3141C343.021 43.3615 344.606 41.7787 346.561 35.5083C348.516 41.7786 350.101 43.3615 356.38 45.3141Z" fill="url(#paint0_linear_214_3619)"/>
<path d="M226.83 12.7193C218.685 15.2521 216.63 17.3052 214.094 25.4387C211.557 17.3052 209.502 15.2521 201.357 12.7193C209.502 10.1866 211.557 8.13344 214.094 0C216.63 8.13344 218.685 10.1866 226.83 12.7193Z" fill="url(#paint1_linear_214_3619)"/>
<path d="M50.3854 191.823C46.4742 193.04 45.4868 194.026 44.2689 197.932C43.051 194.026 42.0637 193.04 38.1523 191.823C42.0635 190.607 43.0509 189.621 44.2689 185.715C45.4867 189.621 46.4742 190.607 50.3854 191.823Z" fill="url(#paint2_linear_214_3619)"/>
<path d="M428.656 224.64C425.479 225.627 424.677 226.428 423.688 229.601C422.699 226.428 421.897 225.627 418.721 224.64C421.897 223.652 422.699 222.851 423.688 219.679C424.677 222.851 425.479 223.652 428.656 224.64Z" fill="url(#paint3_linear_214_3619)"/>
<path d="M130.783 49.6398L116.563 36.6983C115.298 35.5471 113.339 35.638 112.186 36.9011L103.138 46.8163C102.202 47.842 100.698 48.1175 99.4556 47.4959C94.9519 45.2428 90.2115 43.6468 85.3739 42.7013C83.9675 42.4264 82.9269 41.2349 82.8604 39.8052L82.2917 27.5664C82.2124 25.8591 80.7622 24.5394 79.0527 24.6186L59.8347 25.5092C58.1252 25.5884 56.8036 27.0367 56.8829 28.7439L57.5003 42.033C57.5628 43.3775 56.7493 44.6119 55.4845 45.0768C52.1757 46.293 48.9647 47.8335 45.9015 49.6948C44.7237 50.4105 43.2157 50.2704 42.1967 49.343L32.5793 40.5902C31.3143 39.4389 29.3545 39.5298 28.2017 40.793L15.243 54.9941C14.0902 56.2574 14.1813 58.2146 15.4461 59.3659L24.8167 67.8943C25.8536 68.838 26.1226 70.358 25.4811 71.6039C23.5014 75.4489 22.0068 79.472 20.9929 83.5854C20.664 84.9193 19.5003 85.8811 18.1261 85.9449L4.09276 86.5952C2.38325 86.6744 1.06177 88.1226 1.14109 89.8299L2.03286 109.023C2.11218 110.73 3.56234 112.05 5.27185 111.97L18.8345 111.342C20.2415 111.277 21.5131 112.168 21.9352 113.51C23.3132 117.891 25.2473 122.127 27.7305 126.106C28.4643 127.282 28.3251 128.802 27.3907 129.826L19.14 138.868C17.9872 140.131 18.0782 142.088 19.3431 143.239L33.5628 156.181C34.8278 157.332 36.7876 157.241 37.9404 155.978L46.1908 146.937C47.1278 145.91 48.6332 145.636 49.877 146.259C53.6678 148.155 57.6264 149.587 61.6695 150.556C63.0088 150.877 63.973 152.046 64.0369 153.42L64.6207 165.984C64.7 167.692 66.1501 169.012 67.8596 168.932L87.0777 168.042C88.7872 167.963 90.1087 166.514 90.0295 164.807L89.4592 152.532C89.3943 151.134 90.277 149.868 91.6113 149.441C96.0753 148.014 100.386 146.011 104.425 143.438C105.604 142.687 107.142 142.819 108.176 143.761L117.547 152.289C118.812 153.44 120.772 153.349 121.925 152.086L134.883 137.885C136.036 136.622 135.945 134.665 134.68 133.513L125.063 124.76C124.047 123.836 123.761 122.353 124.364 121.119C126.137 117.491 127.487 113.714 128.414 109.859C128.736 108.52 129.905 107.554 131.283 107.491L142.82 106.956C144.529 106.877 145.851 105.428 145.772 103.721L144.88 84.5286C144.8 82.8213 143.35 81.5016 141.641 81.5806L130.394 82.1017C128.993 82.1666 127.726 81.2826 127.298 79.9486C125.927 75.6727 124.027 71.5375 121.6 67.6482C120.866 66.4717 121.004 64.9515 121.939 63.9269L130.987 54.0119C132.139 52.7486 132.048 50.7913 130.783 49.6401L130.783 49.6398ZM96.3013 116.568C85.4117 128.502 66.8966 129.36 54.947 118.484C42.9975 107.609 42.1387 89.1181 53.0284 77.1846C63.9181 65.2509 82.4331 64.3927 94.3824 75.268C106.332 86.1435 107.191 104.634 96.3013 116.568Z" fill="#E7E7EB"/>
<path d="M63.881 124.297C63.8744 123.999 63.6874 123.737 63.4115 123.623C60.4237 122.397 57.5969 120.641 55.0745 118.345C45.6655 109.781 43.3257 96.3225 48.3949 85.3481C48.7038 84.6794 47.9559 84.0171 47.3264 84.4005L47.3021 84.4153C47.1745 84.493 47.0722 84.6067 47.0099 84.7421C41.6891 96.2929 44.1578 110.45 54.0572 119.459C56.7176 121.881 59.6995 123.732 62.8514 125.024C63.3493 125.228 63.8925 124.85 63.8815 124.313C63.8815 124.307 63.8813 124.302 63.8812 124.297L63.881 124.297Z" fill="#312A2A"/>
<path d="M4.85475 111.635C3.56386 111.695 2.46498 110.694 2.40505 109.405L1.51327 90.2129C1.45322 88.9237 2.45478 87.8261 3.74566 87.7664L17.779 87.1161C19.4719 87.0375 20.938 85.8318 21.3442 84.1835C22.3542 80.0855 23.8435 76.1098 25.7707 72.3666C26.5673 70.8195 26.227 68.923 24.9432 67.7547L15.5713 59.2252C14.6154 58.3552 14.5467 56.876 15.4178 55.9214L28.379 41.7175C29.2502 40.7628 30.7313 40.6943 31.6873 41.5642L41.3059 50.3183C42.5618 51.4613 44.4559 51.6417 45.9118 50.757C48.8993 48.9419 52.0791 47.4096 55.3633 46.2025C56.9423 45.622 57.9508 44.1002 57.8726 42.4161L57.2552 29.127C57.1951 27.8379 58.1967 26.7403 59.4876 26.6806L69.1096 26.2347C69.4972 26.2167 69.808 25.9084 69.8288 25.5215C69.8526 25.0759 69.486 24.7073 69.0396 24.7279L59.4176 25.1737C57.2949 25.2722 55.6481 27.0769 55.7464 29.1968L56.3639 42.4859C56.4117 43.51 55.7996 44.4351 54.8415 44.7869C51.4659 46.0277 48.1975 47.6026 45.1268 49.4683C44.2397 50.0074 43.0867 49.8983 42.3231 49.2034L32.7044 40.4493C31.132 39.0182 28.6957 39.1311 27.2626 40.7015L14.3014 54.9053C12.8684 56.4757 12.9814 58.9088 14.5538 60.3399L23.9257 68.8695C24.7062 69.5799 24.9125 70.7344 24.4272 71.6768C22.4462 75.5245 20.9154 79.611 19.8773 83.8229C19.6258 84.8428 18.7543 85.5606 17.7086 85.6091L3.67529 86.2594C1.55256 86.3579 -0.0942618 88.1626 0.00419461 90.2825L0.895842 109.475C0.994424 111.595 2.80152 113.24 4.92425 113.141L14.7431 112.686L15.9804 111.119L4.85424 111.635L4.85475 111.635Z" fill="#312A2A"/>
<path d="M448.736 109.141L453.755 96.3258C454.202 95.1859 453.638 93.9003 452.497 93.4543L443.538 89.9542C442.611 89.5921 442.041 88.6582 442.139 87.6692C442.492 84.0838 442.346 80.5088 441.738 77.0356C441.562 76.0258 442.093 75.0253 443.033 74.6144L451.082 71.0965C452.205 70.6057 452.717 69.2989 452.226 68.1775L446.702 55.5713C446.211 54.45 444.902 53.9387 443.779 54.4294L435.039 58.249C434.155 58.6355 433.12 58.4087 432.484 57.6832C430.821 55.7853 428.966 54.0359 426.935 52.4674C426.153 51.8642 425.861 50.8212 426.22 49.903L429.615 41.2359C430.062 40.096 429.499 38.8104 428.357 38.3644L415.525 33.3513C414.384 32.9054 413.097 33.468 412.65 34.6079L409.342 43.0527C408.976 43.9871 408.027 44.5565 407.028 44.4476C403.946 44.1114 400.869 44.1447 397.855 44.5223C396.877 44.6448 395.935 44.1141 395.54 43.2127L391.506 34.0075C391.015 32.8862 389.706 32.3749 388.583 32.8657L375.961 38.3823C374.838 38.873 374.326 40.1799 374.817 41.3013L378.716 50.1978C379.12 51.1207 378.849 52.1984 378.059 52.8243C375.479 54.868 373.138 57.2459 371.11 59.9245C370.511 60.716 369.458 61.0127 368.532 60.6512L360.363 57.4595C359.221 57.0135 357.934 57.5762 357.487 58.7161L352.468 71.5309C352.021 72.6708 352.584 73.9564 353.726 74.4024L361.895 77.5941C362.823 77.9566 363.392 78.8918 363.295 79.882C362.997 82.8999 363.053 85.9106 363.441 88.8594C363.569 89.8363 363.034 90.7798 362.13 91.1747L353.866 94.7862C352.744 95.2769 352.232 96.5837 352.723 97.7051L358.247 110.311C358.738 111.433 360.047 111.944 361.17 111.453L369.243 107.925C370.162 107.523 371.236 107.788 371.864 108.57C373.964 111.185 376.411 113.55 379.169 115.588C379.975 116.183 380.28 117.244 379.915 118.176L376.607 126.621C376.161 127.761 376.724 129.046 377.866 129.492L390.697 134.505C391.839 134.951 393.126 134.389 393.572 133.249L396.968 124.581C397.326 123.666 398.246 123.095 399.227 123.181C402.111 123.435 404.986 123.368 407.805 122.999C408.784 122.871 409.73 123.404 410.126 124.308L413.442 131.875C413.934 132.996 415.242 133.508 416.365 133.017L428.988 127.5C430.111 127.01 430.623 125.703 430.132 124.581L426.899 117.204C426.496 116.285 426.763 115.212 427.547 114.585C430.058 112.573 432.34 110.243 434.322 107.625C434.922 106.833 435.975 106.536 436.901 106.897L445.86 110.398C447.001 110.844 448.289 110.281 448.735 109.141L448.736 109.141ZM395.079 103.273C384.296 99.0602 378.974 86.9152 383.193 76.1464C387.411 65.3776 399.572 60.063 410.355 64.2756C421.138 68.4883 426.46 80.6333 422.242 91.4019C418.023 102.171 405.862 107.486 395.079 103.273Z" fill="#E7E7EB"/>
<path d="M381.591 83.6033C381.789 83.5224 381.916 83.3303 381.922 83.117C381.977 80.8071 382.428 78.469 383.319 76.1957C386.64 67.7163 395.052 62.7029 403.701 63.2744C404.227 63.3093 404.479 62.64 404.061 62.3178L404.045 62.3054C403.96 62.2401 403.858 62.2009 403.751 62.194C394.652 61.6021 385.806 66.8807 382.311 75.802C381.372 78.1996 380.897 80.6658 380.84 83.1019C380.831 83.4868 381.223 83.7526 381.581 83.6074C381.584 83.606 381.588 83.6045 381.591 83.6031L381.591 83.6033Z" fill="#312A2A"/>
<path d="M374.936 40.9369C374.565 40.0902 374.952 39.0997 375.8 38.7293L388.423 33.2127C389.271 32.842 390.263 33.2296 390.633 34.0763L394.667 43.2815C395.154 44.3919 396.337 45.062 397.545 44.9106C400.548 44.5344 403.592 44.5096 406.592 44.8369C407.833 44.9722 409.015 44.2586 409.468 43.1018L412.777 34.6558C413.114 33.7944 414.087 33.3693 414.95 33.7062L427.784 38.7204C428.646 39.0574 429.072 40.0289 428.735 40.8904L425.339 49.5586C424.896 50.6903 425.261 52.0015 426.227 52.747C428.208 54.2767 430.049 56.0074 431.7 57.8912C432.493 58.7969 433.771 59.0803 434.878 58.5962L443.618 54.7765C444.466 54.4059 445.458 54.7933 445.829 55.6401L448.595 61.9517C448.706 62.206 448.992 62.3345 449.257 62.2491C449.561 62.1508 449.714 61.8114 449.586 61.5186L446.82 55.2069C446.21 53.8145 444.579 53.1775 443.185 53.7867L434.445 57.6065C433.771 57.901 432.995 57.7295 432.514 57.1798C430.817 55.2435 428.925 53.4646 426.888 51.8923C426.3 51.438 426.077 50.64 426.346 49.9519L429.742 41.2837C430.297 39.8666 429.597 38.2685 428.178 37.7141L415.344 32.7001C413.925 32.1457 412.324 32.8451 411.769 34.2621L408.461 42.708C408.186 43.4114 407.465 43.8452 406.71 43.7628C403.626 43.4264 400.497 43.4519 397.41 43.8385C396.663 43.9321 395.959 43.5341 395.658 42.8482L391.624 33.643C391.014 32.2506 389.383 31.6136 387.989 32.2228L375.366 37.7394C373.972 38.3487 373.334 39.9774 373.944 41.3698L376.767 47.8105L378.133 48.2349L374.935 40.9366L374.936 40.9369Z" fill="#312A2A"/>
<path d="M181.023 236.859L186.578 255.254C187.072 256.89 188.801 257.817 190.44 257.323L203.3 253.449C204.63 253.049 206.063 253.583 206.81 254.753C209.518 258.995 212.767 262.794 216.433 266.084C217.499 267.041 217.78 268.597 217.102 269.858L211.302 280.654C210.493 282.16 211.06 284.036 212.568 284.844L229.521 293.928C231.029 294.736 232.907 294.17 233.716 292.664L240.014 280.942C240.651 279.756 241.984 279.113 243.308 279.362C246.773 280.014 250.321 280.337 253.906 280.309C255.285 280.299 256.507 281.192 256.905 282.51L260.663 294.951C261.157 296.587 262.886 297.514 264.524 297.02L282.943 291.472C284.582 290.978 285.51 289.252 285.015 287.615L281.354 275.493C280.949 274.152 281.499 272.709 282.69 271.969C286.365 269.683 289.715 266.996 292.698 263.985C293.666 263.008 295.159 262.779 296.371 263.429L308.751 270.062C310.258 270.87 312.137 270.304 312.946 268.798L322.042 251.868C322.851 250.362 322.284 248.486 320.776 247.678L308.812 241.267C307.571 240.602 306.938 239.186 307.265 237.817C308.333 233.351 308.85 228.724 308.763 224.036C308.737 222.651 309.637 221.418 310.966 221.017L322.693 217.485C324.331 216.991 325.259 215.265 324.765 213.629L319.209 195.234C318.715 193.597 316.986 192.671 315.347 193.165L303.621 196.697C302.289 197.098 300.856 196.562 300.108 195.39C297.829 191.82 295.167 188.562 292.195 185.659C291.21 184.696 290.983 183.199 291.634 181.987L297.589 170.904C298.398 169.398 297.831 167.522 296.323 166.714L279.371 157.63C277.863 156.822 275.984 157.388 275.175 158.894L269.358 169.722C268.695 170.955 267.287 171.589 265.922 171.272C261.358 170.209 256.628 169.719 251.84 169.858C250.441 169.899 249.19 168.997 248.786 167.659L245.125 155.537C244.63 153.9 242.901 152.974 241.263 153.468L222.844 159.016C221.205 159.51 220.278 161.236 220.772 162.873L224.529 175.314C224.926 176.628 224.41 178.047 223.258 178.797C219.872 181.003 216.773 183.553 213.997 186.387C213.032 187.371 211.533 187.601 210.317 186.949L200.141 181.496C198.632 180.688 196.754 181.254 195.945 182.76L186.849 199.691C186.04 201.196 186.607 203.073 188.115 203.88L198.035 209.197C199.271 209.859 199.905 211.267 199.586 212.631C198.566 217.004 198.073 221.527 198.157 226.109C198.183 227.495 197.283 228.729 195.954 229.129L183.094 233.003C181.456 233.497 180.528 235.223 181.022 236.86L181.023 236.859ZM245.007 197.084C260.485 192.421 276.817 201.173 281.486 216.631C286.155 232.089 277.392 248.4 261.913 253.062C246.435 257.725 230.102 248.974 225.434 233.516C220.765 218.058 229.528 201.746 245.007 197.084Z" fill="#E7E7EB"/>
<path d="M276.804 207.064C276.657 207.323 276.683 207.644 276.861 207.882C278.796 210.467 280.32 213.423 281.305 216.686C284.981 228.857 280.074 241.608 270.085 248.43C269.476 248.846 269.778 249.798 270.515 249.791L270.543 249.791C270.693 249.789 270.839 249.744 270.962 249.66C281.464 242.472 286.619 229.056 282.751 216.25C281.712 212.808 280.103 209.691 278.062 206.967C277.74 206.537 277.079 206.583 276.812 207.05C276.81 207.055 276.807 207.059 276.804 207.064V207.064Z" fill="#312A2A"/>
<path d="M320.961 248.179C322.1 248.789 322.53 250.211 321.919 251.348L312.823 268.278C312.212 269.416 310.788 269.844 309.65 269.234L297.271 262.601C295.777 261.801 293.899 262.085 292.704 263.291C289.731 266.291 286.41 268.94 282.833 271.165C281.354 272.085 280.672 273.887 281.173 275.548L284.835 287.672C285.209 288.908 284.508 290.213 283.269 290.586L264.847 296.135C263.608 296.508 262.302 295.808 261.928 294.572L258.17 282.129C257.68 280.504 256.147 279.379 254.442 279.392C250.946 279.419 247.429 279.105 243.99 278.458C242.336 278.147 240.689 278.936 239.891 280.422L233.593 292.145C232.982 293.282 231.558 293.711 230.42 293.101L221.932 288.552C221.59 288.369 221.165 288.475 220.948 288.796C220.699 289.166 220.824 289.671 221.218 289.882L229.706 294.43C231.578 295.433 233.919 294.728 234.924 292.858L241.222 281.135C241.707 280.231 242.707 279.751 243.71 279.94C247.245 280.605 250.86 280.928 254.454 280.9C255.492 280.892 256.426 281.577 256.724 282.564L260.482 295.007C261.097 297.041 263.246 298.193 265.283 297.579L283.705 292.03C285.742 291.416 286.895 289.27 286.281 287.236L282.619 275.112C282.314 274.103 282.731 273.006 283.631 272.446C287.309 270.158 290.722 267.435 293.777 264.352C294.517 263.606 295.634 263.436 296.556 263.93L308.936 270.563C310.808 271.567 313.149 270.861 314.154 268.992L323.249 252.061C324.254 250.191 323.548 247.853 321.676 246.85L313.014 242.209L311.147 242.92L320.962 248.179L320.961 248.179Z" fill="#312A2A"/>
<path d="M112.623 359.849C101.231 359.846 89.0596 360.004 79.6496 364.511C70.2397 369.018 67.3167 381.751 94.8706 385.746C126.282 390.301 155.326 393.168 187.138 395.279C201.43 396.228 215.735 397.177 230.087 397.42C247.09 397.708 264.093 397.005 281.071 396.303C318.977 394.734 357.547 393.07 393.112 383.735C406.755 380.155 420.537 367.926 402.075 360.948C388.45 355.798 358.705 357.92 343.831 357.916C294.221 357.904 246.387 357.928 196.777 357.916C168.897 357.909 140.504 359.856 112.623 359.849L112.623 359.849Z" fill="#E7E7EB"/>
<path d="M344.132 196.637C342.683 200.897 340.116 204.472 336.866 207.147C334.382 209.193 332.18 211.532 330.349 214.122C328.765 216.363 329.747 219.467 332.347 220.321L386.376 238.064L404.661 184.286C405.544 181.688 408.696 180.68 410.931 182.258C413.433 184.026 415.694 186.143 417.674 188.525C420.339 191.731 423.914 194.253 428.188 195.657C441.201 199.93 455.399 192.113 458.44 178.365C460.699 168.154 455.985 157.972 446.698 153.174C441.302 150.385 435.488 149.89 430.201 151.209C427.214 151.954 424.161 152.314 421.127 152.247C418.379 152.186 416.482 149.517 417.365 146.922L435.669 93.087L381.914 75.4338C379.25 74.5591 376.529 76.5724 376.525 79.3671C376.521 82.1349 376.859 84.9095 377.503 87.6301C378.463 91.6879 378.328 96.062 376.88 100.321C372.47 113.29 357.687 119.937 344.876 114.101C335.359 109.766 330.058 99.8774 331.808 89.5716C332.824 83.582 335.924 78.6377 340.156 75.2066C342.311 73.4599 344.25 71.4842 345.91 69.3092C347.616 67.0749 346.668 63.8591 344.006 62.9849L290.198 45.3145L271.944 99.0021C271.044 101.648 267.82 102.611 265.578 100.957C263.329 99.2966 261.294 97.3389 259.505 95.1521C256.088 90.9756 251.14 87.9368 245.123 86.9759C234.767 85.3221 224.769 90.6734 220.327 100.169C214.348 112.951 220.912 127.587 233.924 131.861C238.198 133.264 242.598 133.362 246.69 132.373C249.509 131.693 252.383 131.334 255.245 131.335C258.05 131.336 260.042 134.009 259.141 136.657L240.905 190.291L294.992 208.054C297.589 208.906 300.274 207.011 300.381 204.288C300.504 201.184 300.169 198.06 299.422 195.01C298.139 189.767 298.687 183.985 301.538 178.598C306.445 169.328 316.729 164.558 326.986 166.717C340.794 169.623 348.541 183.669 344.132 196.637H344.132Z" fill="#3276E8"/>
<path d="M159.346 219.873C158.091 222.061 157.976 224.743 159.035 227.05C160.306 229.817 161.946 232.477 163.908 234.957C167.002 238.865 168.486 243.597 168.201 248.639C167.693 257.607 161.361 264.87 152.442 266.713C151.723 266.862 150.992 266.974 150.27 267.047C139.119 268.165 129.104 260.081 127.948 249.025C127.558 245.31 128.221 241.589 129.861 238.268C131.272 235.411 132.333 232.446 133.014 229.458C133.576 226.997 132.915 224.397 131.248 222.501C129.585 220.611 127.093 219.624 124.585 219.862L66.9982 225.314L61.9657 176.024C61.694 173.358 64.1726 171.176 66.9045 171.635C70.0162 172.159 73.0473 173.126 75.9144 174.473C80.8411 176.787 86.7113 177.457 92.6996 175.837C103 173.049 110.022 164.173 110.15 153.892C110.322 140.052 98.0765 129.72 84.2065 131.266C79.6517 131.774 75.5287 133.497 72.1486 136.06C69.5648 138.019 66.7508 139.648 63.7706 140.868C61.1929 141.924 58.3232 140.34 58.0511 137.671L52.3877 82.1973L109.902 75.7816C112.68 75.4713 114.38 72.6571 113.306 70.1881C112.104 67.4226 110.501 64.8186 108.573 62.4282C105.975 59.2103 104.261 55.2588 103.813 50.8708C102.449 37.5102 113.367 25.5119 127.707 25.4388C138.359 25.3844 147.436 32.0088 150.148 41.905C151.723 47.6563 150.928 53.3326 148.445 58.1289C147.04 60.8395 146.007 63.6922 145.402 66.6145C144.851 69.2623 147.086 71.6326 149.86 71.3242L207.434 64.9008L213.069 120.093C213.347 122.828 210.743 125.021 207.963 124.448C205.211 123.878 202.528 122.981 199.966 121.801C196.144 120.042 191.767 119.267 187.212 119.775C173.342 121.323 163.459 134.123 166.419 147.615C168.619 157.636 177.275 164.762 187.908 165.215C194.087 165.478 199.69 163.529 204.038 160.18C206.252 158.474 208.645 157.023 211.176 155.882C211.858 155.574 212.457 155.493 213.154 155.492C215.701 155.486 217.545 157.383 218.222 158.159C220.006 175.652 221.789 193.147 223.575 210.639L165.337 216.003C162.831 216.254 160.592 217.702 159.346 219.873L159.346 219.873Z" fill="#379FF6"/>
<path d="M56.8053 125.977C56.5498 125.977 56.331 125.783 56.3048 125.524L51.9752 82.5559C51.9478 82.2839 52.1429 82.0398 52.4145 82.0064L78.9359 78.7303C79.2127 78.6967 79.4635 78.8921 79.4976 79.1678C79.5317 79.4434 79.3357 79.6946 79.0597 79.7287L53.0268 82.9444L57.3071 125.423C57.3349 125.7 57.1332 125.946 56.8564 125.974C56.8393 125.976 56.8221 125.977 56.8054 125.977L56.8053 125.977Z" fill="#043D9C"/>
<path d="M387.009 238.301C386.961 238.301 386.912 238.294 386.864 238.28L352.583 227.979C352.317 227.899 352.166 227.619 352.246 227.353C352.326 227.087 352.608 226.936 352.873 227.016L386.677 237.173C387.419 234.8 390.822 223.933 394.265 213.18C396.541 206.071 398.389 200.402 399.758 196.33C400.572 193.909 401.223 192.032 401.695 190.75C402.543 188.443 402.671 188.335 403.026 188.288C403.23 188.261 403.426 188.353 403.537 188.527C403.684 188.758 403.619 189.062 403.394 189.214C402.229 191.326 393.301 219.336 387.49 237.948C387.423 238.163 387.224 238.302 387.009 238.302L387.009 238.301Z" fill="#1A292F"/>
<path d="M215.136 187.096C217.402 186.011 219.829 184.637 222.074 184.098C223.977 183.805 226.069 184.007 226.97 185.012C227.672 186.509 227.874 188.001 227.603 189.487C230.961 191.426 235.566 192.959 238.982 196.496C240.018 198.21 239.15 199.912 236.751 199.227C236.897 200.974 236.016 202.47 234.175 202.236C234.079 204.333 232.501 205.016 230.924 204.356C231.162 205.734 230.255 206.43 228.827 206.408L226.435 205.699L215.312 201.314L211.476 198.172L215.136 187.096Z" fill="#D68365"/>
<path d="M246.939 180.844C241.92 183.162 240.749 184.446 236.99 185.025C233.476 184.483 229.862 184.215 226.076 184.415C224.387 184.835 222.701 185.602 221.017 186.7C220.588 186.98 220.226 187.352 219.957 187.788C218.735 189.768 218.308 191.535 218.559 193.755C218.711 195.192 220.493 195.596 221.154 194.288L223.367 190.02C224.482 190.126 225.856 189.985 227.603 189.487C229.977 191.384 232.644 192.66 235.47 193.871L238.982 196.496C239.408 196.43 239.74 196.226 239.864 195.542C242.058 193.724 252.947 190.611 255.694 190.111L246.939 180.844Z" fill="#E0997A"/>
<path d="M227.305 205.972L226.436 205.699C226.775 205.308 226.931 204.871 226.87 204.381C226.678 203.392 225.969 202.941 224.974 203.222C224.955 201.853 224.161 201.132 223.103 201.255C222.402 201.331 221.795 201.816 221.504 202.464C221.602 201.203 220.145 200.597 219.311 200.75C218.711 200.861 217.893 201.486 217.825 202.495L218.116 201.945C218.641 200.953 217.826 199.775 216.713 199.927C216.635 199.938 216.554 199.953 216.471 199.972C215.393 200.346 215.027 201.197 214.978 202.261C214.978 203.43 216.861 204.139 217.469 203.165C217.169 205.071 219.579 205.774 220.846 204.307C220.508 206.106 222.395 207.132 224.006 205.174C223.436 206.921 225.225 207.863 226.993 206.214L227.305 205.972L227.305 205.972Z" fill="#E0997A"/>
<path d="M215.136 187.096L207.532 183.775L200.223 193.908L211.476 198.172L215.136 187.096Z" fill="#D68365"/>
<path d="M239.894 195.629C239.815 195.629 239.737 195.592 239.688 195.523L237.549 192.51C237.469 192.397 237.496 192.24 237.609 192.16C237.723 192.079 237.88 192.106 237.96 192.219L240.099 195.232C240.18 195.346 240.153 195.502 240.039 195.583C239.995 195.614 239.944 195.629 239.894 195.629Z" fill="#312A2A"/>
<path d="M238.511 199.506C238.412 199.506 238.318 199.447 238.278 199.349C238.225 199.221 238.287 199.074 238.416 199.021C238.971 198.795 239.324 198.069 239.17 197.469C238.849 196.217 237.894 195.575 236.574 194.687C236.45 194.604 236.324 194.519 236.194 194.431C234.948 193.585 233.528 192.973 232.155 192.382C230.89 191.838 229.583 191.275 228.396 190.525C227.867 190.192 227.268 190.035 226.664 190.072L224.021 190.232C223.718 190.251 223.443 190.428 223.301 190.696L221.804 194.032C221.415 194.9 220.508 195.405 219.597 195.26C218.969 195.161 218.462 194.806 218.207 194.287C218.084 194.036 218.032 193.739 218.057 193.428C218.149 192.297 219.325 188.346 219.749 187.432C220.014 186.86 220.483 186.413 221.069 186.176L225.982 184.182C226.012 184.17 226.044 184.164 226.076 184.164L230.636 184.14H230.637C230.775 184.14 230.888 184.252 230.889 184.39C230.889 184.529 230.777 184.642 230.638 184.643L226.127 184.666L221.259 186.642C220.792 186.831 220.418 187.187 220.206 187.644C219.765 188.595 218.64 192.47 218.559 193.468C218.541 193.689 218.576 193.895 218.66 194.065C218.908 194.572 219.403 194.72 219.676 194.763C220.36 194.872 221.048 194.487 221.344 193.827L222.844 190.483C222.846 190.479 222.849 190.475 222.851 190.471C223.072 190.043 223.509 189.759 223.99 189.73L226.634 189.569C227.344 189.525 228.047 189.71 228.665 190.1C229.819 190.829 231.108 191.384 232.355 191.92C233.749 192.521 235.191 193.142 236.478 194.015C236.606 194.102 236.732 194.187 236.855 194.269C238.215 195.184 239.289 195.906 239.658 197.344C239.873 198.185 239.392 199.166 238.606 199.487C238.575 199.5 238.543 199.505 238.511 199.505L238.511 199.506Z" fill="#312A2A"/>
<path d="M217.714 203.055C217.685 203.055 217.656 203.051 217.627 203.04C217.496 202.992 217.43 202.848 217.477 202.717L218.041 201.182C218.09 201.052 218.234 200.985 218.365 201.033C218.495 201.081 218.562 201.225 218.514 201.356L217.95 202.891C217.913 202.992 217.816 203.055 217.714 203.055H217.714Z" fill="#312A2A"/>
<path d="M220.997 204.11C220.968 204.11 220.939 204.105 220.911 204.095C220.78 204.048 220.713 203.903 220.76 203.773L221.267 202.378C221.315 202.247 221.459 202.18 221.59 202.227C221.721 202.274 221.788 202.419 221.741 202.549L221.234 203.944C221.197 204.047 221.1 204.11 220.997 204.11Z" fill="#312A2A"/>
<path d="M224.191 205.426C224.16 205.426 224.128 205.42 224.097 205.408C223.968 205.356 223.905 205.21 223.957 205.081L224.719 203.181C224.667 202.425 224.211 201.838 223.545 201.677C222.992 201.543 222.224 201.712 221.723 202.588C221.666 202.688 221.548 202.737 221.437 202.706C221.326 202.675 221.25 202.573 221.253 202.458C221.27 201.69 220.922 201.097 220.32 200.869C219.686 200.63 218.96 200.851 218.471 201.431C218.398 201.517 218.277 201.545 218.174 201.498C218.071 201.451 218.012 201.342 218.03 201.23C218.121 200.65 217.795 200.268 217.459 200.103C217.083 199.919 216.46 199.898 215.938 200.443C215.584 200.88 215.345 201.504 215.227 202.298C215.206 202.435 215.077 202.53 214.94 202.51C214.803 202.489 214.708 202.361 214.728 202.224C214.863 201.322 215.132 200.633 215.553 200.118C215.557 200.113 215.561 200.109 215.565 200.104C216.152 199.486 216.982 199.308 217.682 199.652C218.12 199.867 218.415 200.252 218.512 200.706C219.101 200.272 219.834 200.148 220.498 200.399C221.114 200.632 221.534 201.135 221.69 201.799C222.224 201.251 222.948 201.014 223.663 201.188C224.568 201.407 225.181 202.201 225.225 203.211C225.227 203.247 225.221 203.282 225.207 203.316L224.425 205.267C224.385 205.366 224.291 205.426 224.191 205.426Z" fill="#312A2A"/>
<path d="M227.305 206.223C227.28 206.223 227.255 206.219 227.23 206.211L226.36 205.938C226.23 205.898 226.156 205.761 226.193 205.63L226.598 204.202C226.72 203.6 226.144 203.348 225.964 203.284C225.605 203.158 225.263 203.207 225.198 203.335C225.136 203.459 224.984 203.509 224.86 203.446C224.736 203.384 224.686 203.232 224.749 203.109C224.97 202.671 225.612 202.627 226.131 202.81C226.853 203.063 227.229 203.654 227.089 204.314C227.088 204.319 227.087 204.325 227.085 204.33L226.744 205.532L227.381 205.731C227.513 205.773 227.587 205.914 227.545 206.047C227.512 206.154 227.412 206.223 227.305 206.223V206.223Z" fill="#312A2A"/>
<path d="M214.977 201.291C214.921 201.291 214.864 201.272 214.818 201.233L211.364 198.406L209.136 197.947C208.999 197.919 208.912 197.786 208.94 197.65C208.968 197.514 209.101 197.426 209.237 197.454L211.527 197.926C211.567 197.934 211.604 197.952 211.635 197.978L215.137 200.845C215.244 200.933 215.26 201.091 215.172 201.199C215.122 201.259 215.05 201.291 214.977 201.291L214.977 201.291Z" fill="#312A2A"/>
<path d="M215.137 187.348C215.087 187.348 215.038 187.333 214.996 187.305L214.174 186.75C214.059 186.673 214.029 186.516 214.107 186.401C214.185 186.286 214.341 186.256 214.456 186.334L215.162 186.809L220.245 184.533C221.006 184.192 221.814 183.981 222.646 183.906L224.189 183.767C224.537 183.736 224.883 183.773 225.216 183.879L226.153 184.175C226.286 184.217 226.359 184.359 226.317 184.491C226.275 184.623 226.134 184.697 226.001 184.655L225.064 184.358C224.795 184.273 224.515 184.243 224.234 184.268L222.691 184.407C221.915 184.477 221.161 184.674 220.45 184.992L215.24 187.326C215.207 187.34 215.172 187.348 215.137 187.348L215.137 187.348Z" fill="#312A2A"/>
<path d="M236.782 199.371C236.723 199.371 236.663 199.35 236.615 199.307C235.657 198.459 234.619 197.686 233.531 197.01C233.413 196.937 233.377 196.782 233.45 196.664C233.524 196.546 233.679 196.51 233.797 196.583C234.909 197.274 235.969 198.064 236.949 198.931C237.053 199.023 237.063 199.182 236.971 199.286C236.921 199.342 236.852 199.371 236.782 199.371Z" fill="#312A2A"/>
<path d="M234.224 202.404C234.159 202.404 234.094 202.379 234.044 202.329C232.576 200.84 230.875 199.625 228.988 198.719C228.863 198.659 228.81 198.508 228.871 198.383C228.931 198.258 229.082 198.205 229.207 198.266C231.145 199.197 232.894 200.446 234.403 201.976C234.501 202.075 234.499 202.234 234.4 202.332C234.351 202.38 234.287 202.404 234.224 202.404Z" fill="#312A2A"/>
<path d="M230.951 204.615C230.901 204.615 230.851 204.601 230.808 204.571C230.259 204.19 229.77 203.73 229.297 203.284C228.73 202.75 228.194 202.246 227.56 201.862C227.441 201.789 227.403 201.635 227.475 201.516C227.547 201.397 227.702 201.359 227.821 201.432C228.501 201.844 229.081 202.39 229.642 202.919C230.101 203.351 230.577 203.799 231.094 204.157C231.209 204.237 231.237 204.393 231.158 204.507C231.109 204.578 231.031 204.616 230.951 204.616L230.951 204.615Z" fill="#312A2A"/>
<path d="M202.24 215.127C201.499 212.955 200.726 210.636 199.929 208.194C199.669 208.332 199.446 208.545 199.307 208.838C198.484 208.448 198.608 209.229 198.073 209.394C194.579 210.07 191.371 211.676 187.949 212.505C190.224 216.107 191.967 218.777 192.554 219.964C194.319 220.42 201.701 216.243 202.132 216.155C202.022 215.715 202.382 215.648 202.239 215.127L202.24 215.127Z" fill="#E0997A"/>
<path d="M203.193 216.522C203.193 216.522 206.473 223.841 207.861 228.064C204.442 229.27 197.525 232.52 193.212 231.083C192.314 228.637 190.923 225.282 192.421 219.07C193.481 217.519 197.981 210.105 201.083 213.826C202.436 215.45 203.193 216.522 203.193 216.522Z" fill="#E0997A"/>
<path d="M207.532 227.172C207.532 227.172 208.804 230.589 209.873 234.16C209.808 234.156 209.744 234.149 209.679 234.146C208.482 233.894 201.845 235.993 200.105 236.772C199.892 236.843 196.056 238.532 195.806 238.033C194.757 235.938 193.141 231.642 192.679 229.424C194.661 226.237 207.532 227.172 207.532 227.172Z" fill="#E0997A"/>
<path d="M214.474 230.994C213.863 230.017 211.913 226.866 210.444 224.144C209.901 223.139 209.302 222.166 208.66 221.22C206.971 218.733 203.439 213.817 200.291 214.857C200.036 214.941 194.325 223.253 205.114 226.808C205.122 226.841 205.771 224.868 209.522 229.037C210.104 229.886 213.117 232.977 214.338 231.826C214.584 231.593 214.63 231.244 214.474 230.994Z" fill="#E0997A"/>
<path d="M207.532 227.676C207.527 227.676 207.521 227.675 207.515 227.675C207.434 227.672 205.505 227.599 203.334 226.682C200.424 225.454 198.488 223.291 197.735 220.428C197.665 220.159 197.826 219.884 198.095 219.814C198.363 219.744 198.639 219.904 198.71 220.172C200.336 226.359 207.477 226.667 207.549 226.67C207.827 226.679 208.045 226.912 208.035 227.189C208.026 227.461 207.803 227.675 207.532 227.675L207.532 227.676Z" fill="#312A2A"/>
<path d="M196.748 229.982C196.718 229.982 196.687 229.979 196.657 229.973C196.383 229.924 196.202 229.662 196.251 229.388L197.135 224.549C197.185 224.276 197.447 224.095 197.721 224.144C197.995 224.194 198.176 224.456 198.126 224.729L197.242 229.569C197.198 229.812 196.986 229.982 196.748 229.982Z" fill="#312A2A"/>
<path d="M191.543 219.413C191.344 219.413 191.156 219.295 191.077 219.1C190.971 218.843 191.095 218.55 191.352 218.445L194.344 217.223C194.601 217.117 194.896 217.241 195.001 217.498C195.106 217.755 194.983 218.049 194.725 218.154L191.733 219.376C191.671 219.401 191.607 219.413 191.543 219.413L191.543 219.413Z" fill="#312A2A"/>
<path d="M175.29 135.745C174.329 136.214 181.961 137.715 185.708 147.924C187.6 153.082 202.834 211.495 203.387 211.975L189.498 217.822C189.498 217.822 156.929 167.992 159.105 157.144C158.822 156.533 166.122 137.826 175.29 135.745Z" fill="#566C62"/>
<path d="M211.261 242.765C211.261 242.765 211.059 234.351 206.811 234.937C206.881 234.447 196.493 236.359 196.493 236.359C196.493 236.359 192.817 236.111 195.209 245.458C194.669 245.533 192.714 245.802 192.714 245.802C192.714 245.802 189.155 233.98 195.979 233.136C196.019 232.925 206.226 231.701 206.226 231.701C206.226 231.701 213.077 229.063 214.093 242.374C214.034 242.451 211.26 242.765 211.26 242.765L211.261 242.765Z" fill="#8A8A8A"/>
<path d="M227.232 240.97C219.72 241.489 192.977 242.88 175.8 250.002C174.203 250.76 175.669 254.835 176.03 261.486C176.498 270.114 176.493 283.007 179.832 297.893C180.697 298.186 186.438 299.453 186.438 299.453C186.438 299.453 214.543 295.174 235.255 288.913C235.642 288.796 235.912 288.444 235.923 288.04C236.07 282.644 233.991 252.483 230.574 243.13C230.068 241.746 228.703 240.869 227.231 240.97H227.232Z" fill="#BDBDBD"/>
<path d="M179.831 297.891C174.291 273.191 172.372 254.262 175.171 250.543C175.243 250.459 175.315 250.376 175.391 250.294C175.403 250.283 175.414 250.271 175.426 250.26C177.082 248.919 180.326 250.124 181.518 255.787C182.105 259.915 183.012 262.874 186.437 299.453C186.437 299.453 185.72 299.294 184.754 299.077C184.722 299.069 184.689 299.062 184.657 299.055C184.256 298.964 183.816 298.864 183.369 298.762C183.284 298.742 183.199 298.723 183.113 298.703C183.053 298.689 182.993 298.676 182.933 298.662C182.896 298.653 182.859 298.645 182.822 298.636C182.714 298.611 182.606 298.586 182.499 298.561C182.463 298.553 182.426 298.544 182.39 298.535C182.331 298.522 182.273 298.508 182.215 298.495C182.179 298.486 182.142 298.478 182.106 298.469C182.003 298.445 181.9 298.421 181.799 298.397C181.764 298.388 181.729 298.38 181.695 298.372C181.64 298.359 181.586 298.346 181.533 298.333C181.211 298.256 180.913 298.183 180.656 298.119C180.621 298.11 180.587 298.101 180.553 298.093C180.43 298.061 180.318 298.032 180.219 298.005C180.199 298 180.18 297.995 180.162 297.99C180.019 297.951 179.907 297.918 179.831 297.893C179.831 297.892 179.831 297.891 179.831 297.891Z" fill="#8A8A8A"/>
<path d="M210.207 234.742C209.326 232.866 209.073 231.854 208.064 231.003C207.138 230.222 205.622 230.726 205.579 231.839C205.54 232.867 206.03 234.382 207.018 236.522C207.306 237.146 208.151 237.727 209.227 237.548C210.713 237.3 210.725 235.635 210.207 234.742Z" fill="#E0997A"/>
<path d="M207.319 237.375C206.716 235.275 205.937 233.107 205.055 232.028C204.558 231.421 203.122 231.698 202.865 232.465C202.522 233.49 202.414 235.237 202.641 237.868C202.699 238.549 203.266 239.124 204.182 239.28C205.944 239.581 207.491 238.368 207.319 237.375V237.375Z" fill="#E0997A"/>
<path d="M203.392 238.384C202.806 236.153 202.361 233.795 201.442 232.776C200.987 232.27 199.762 232.494 199.479 233.148C199.054 234.133 198.873 235.942 199.053 238.778C199.096 239.461 199.648 240.044 200.559 240.211C202.309 240.532 203.542 239.381 203.392 238.384Z" fill="#E0997A"/>
<path d="M199.619 238.814C199.146 236.871 198.593 235.067 197.883 234.166C197.41 233.566 196.035 233.772 195.66 234.511C195.278 235.263 195.693 238.624 196.358 239.522C197.434 240.976 199.853 239.777 199.619 238.814Z" fill="#E0997A"/>
<path d="M207.5 237.587C207.307 237.587 207.123 237.475 207.04 237.288L205.269 233.294C205.156 233.04 205.271 232.743 205.525 232.63C205.78 232.518 206.077 232.632 206.19 232.886L207.96 236.88C208.073 237.134 207.958 237.431 207.704 237.544C207.638 237.573 207.568 237.587 207.5 237.587Z" fill="#312A2A"/>
<path d="M203.832 239.698C203.619 239.698 203.421 239.562 203.353 239.349L201.739 234.323C201.654 234.058 201.8 233.775 202.065 233.69C202.33 233.605 202.613 233.751 202.698 234.016L204.312 239.041C204.397 239.306 204.251 239.589 203.986 239.674C203.935 239.69 203.883 239.698 203.832 239.698Z" fill="#312A2A"/>
<path d="M199.456 239.875C199.212 239.875 198.998 239.698 198.959 239.449L198.265 234.995C198.222 234.721 198.41 234.464 198.685 234.421C198.96 234.378 199.217 234.566 199.26 234.841L199.954 239.295C199.997 239.569 199.809 239.826 199.534 239.869C199.508 239.873 199.482 239.875 199.456 239.875Z" fill="#312A2A"/>
<path d="M221.089 289.178C220.836 289.178 220.618 288.989 220.589 288.732C220.558 288.456 220.757 288.207 221.033 288.176C224.078 287.832 227.127 287.272 230.095 286.51C230.78 286.334 231.537 286.101 231.86 285.565C232.103 285.161 232.094 284.607 232.058 283.977L230.918 263.965C230.902 263.688 231.115 263.45 231.392 263.434C231.67 263.416 231.908 263.63 231.924 263.908L233.063 283.92C233.098 284.537 233.147 285.381 232.723 286.084C232.204 286.946 231.224 287.259 230.346 287.484C227.333 288.257 224.237 288.827 221.146 289.175C221.127 289.177 221.108 289.178 221.089 289.178Z" fill="#312A2A"/>
<path d="M187.651 266.994C187.431 266.994 187.228 266.849 187.166 266.626C186.093 262.776 185.224 258.823 184.584 254.877C184.378 253.606 184.229 252.157 185.076 251.048C185.725 250.196 186.772 249.84 187.701 249.573C191.515 248.478 195.46 247.854 199.425 247.718C199.702 247.713 199.936 247.926 199.946 248.204C199.955 248.481 199.738 248.714 199.46 248.724C195.577 248.856 191.714 249.468 187.979 250.54C187.17 250.772 186.34 251.05 185.877 251.657C185.272 252.45 185.406 253.652 185.578 254.716C186.213 258.625 187.073 262.541 188.137 266.356C188.211 266.624 188.054 266.901 187.786 266.976C187.741 266.988 187.696 266.994 187.651 266.994V266.994Z" fill="#312A2A"/>
<path d="M209.052 264.409C208.939 264.409 208.825 264.371 208.731 264.293C208.517 264.115 208.487 263.798 208.665 263.584C209.555 262.516 210.571 261.552 211.686 260.721C211.908 260.555 212.224 260.6 212.39 260.823C212.557 261.046 212.511 261.361 212.288 261.527C211.237 262.311 210.279 263.22 209.44 264.228C209.34 264.347 209.197 264.409 209.052 264.409Z" fill="#312A2A"/>
<path d="M206 271.615C205.884 271.615 205.766 271.574 205.671 271.492C205.461 271.31 205.438 270.992 205.62 270.782C208.869 267.041 212.512 263.617 216.447 260.605C216.668 260.436 216.984 260.478 217.153 260.699C217.322 260.919 217.281 261.235 217.06 261.404C213.178 264.374 209.585 267.751 206.381 271.441C206.282 271.556 206.141 271.614 206.001 271.614L206 271.615Z" fill="#312A2A"/>
<path d="M104.546 355.478C104.547 355.474 104.546 355.47 104.546 355.465C104.541 355.476 104.542 355.479 104.546 355.478Z" fill="#E0997A"/>
<path d="M119.07 358.265C121.739 355.133 126.889 349.458 126.889 349.458L115.062 341.945L104.667 352.058C104.667 352.058 105.217 352.726 106.142 353.68C105.345 354.611 104.599 355.467 104.547 355.478C104.142 361.436 119.071 368.045 119.071 368.045C115.778 362.783 118.472 358.997 119.07 358.265Z" fill="#E0997A"/>
<path d="M98.1754 359.774C98.1691 359.754 98.1636 359.733 98.1586 359.712C98.0885 359.404 98.1988 359.104 98.3172 358.83C99.3972 356.323 101.255 354.276 103.224 352.414C105.029 350.708 106.667 348.969 107.269 349.541C108.256 353.823 113.999 356.1 114.424 356.219C115.046 356.394 119.788 358.638 119.178 360.996C119.088 361.348 119.071 368.046 120.516 370.212C125.769 378.346 124.857 380.37 123.67 381.743C123.269 382.206 122.589 382.329 121.968 382.078C118.96 380.863 114.224 376.389 111.993 374.215C111.328 373.568 110.748 372.846 110.273 372.06C108.691 369.439 106.974 366.876 104.666 364.789C104.162 365.37 103.911 365.144 103.684 364.941C102.063 363.494 100.442 362.046 98.8213 360.599C98.5559 360.362 98.2752 360.1 98.1754 359.774Z" fill="#392F32"/>
<path d="M119.144 363.993C119.062 363.993 118.98 363.973 118.903 363.931L114.955 361.773C114.711 361.64 114.622 361.334 114.755 361.091C114.889 360.847 115.195 360.758 115.439 360.891L119.386 363.049C119.63 363.182 119.72 363.488 119.586 363.731C119.495 363.898 119.322 363.993 119.144 363.993Z" fill="#312A2A"/>
<path d="M119.312 366.877C119.236 366.877 119.159 366.86 119.086 366.823L114.745 364.634C114.496 364.509 114.397 364.206 114.522 363.958C114.647 363.711 114.95 363.611 115.199 363.736L119.54 365.925C119.788 366.05 119.888 366.353 119.762 366.601C119.674 366.776 119.497 366.877 119.312 366.877Z" fill="#312A2A"/>
<path d="M146.337 220.347C141.717 252.106 139.952 264.775 131.343 292.081C123.702 316.317 106.86 347.785 107.141 347.943C107.132 347.973 110.456 350.638 125.004 359.647C138.84 343.349 153.505 318.846 167.866 286.731C182.546 254.935 186.516 215.677 189.366 183.809C190.662 167.978 147.568 212.576 146.336 220.347L146.337 220.347Z" fill="#E7D1B5"/>
<path d="M161.289 377.278C161.286 377.275 161.283 377.272 161.28 377.269C161.283 377.28 161.286 377.282 161.289 377.278Z" fill="#E0997A"/>
<path d="M174.088 369.881C174.049 365.769 174.217 358.111 174.217 358.111L160.354 360.175L159.135 374.617C159.135 374.617 159.989 374.762 161.313 374.877C161.322 376.102 161.321 377.237 161.288 377.278C164.891 382.045 180.505 377.269 180.505 377.269C174.565 375.448 174.117 370.826 174.088 369.881Z" fill="#E0997A"/>
<path d="M159.293 384.693C159.275 384.682 159.257 384.67 159.239 384.657C158.985 384.47 158.871 384.172 158.781 383.887C157.952 381.287 158.012 378.525 158.278 375.829C158.522 373.36 158.619 370.974 159.449 371.012C163.005 373.601 168.836 371.563 169.236 371.375C169.82 371.101 174.876 369.693 175.962 371.874C176.124 372.199 180.505 377.27 183.018 377.96C192.323 380.668 192.962 382.794 192.966 384.608C192.967 385.221 192.534 385.757 191.9 385.975C188.831 387.025 182.317 386.744 179.206 386.562C178.279 386.508 177.367 386.342 176.493 386.059C173.578 385.115 170.599 384.302 167.487 384.235C167.487 385.003 167.149 384.997 166.845 384.993C164.67 384.96 162.496 384.927 160.322 384.894C159.966 384.888 159.582 384.874 159.293 384.693Z" fill="#392F32"/>
<path d="M173.175 375.236C172.943 375.236 172.735 375.075 172.683 374.839C172.624 374.568 172.797 374.3 173.069 374.241L177.467 373.288C177.738 373.229 178.006 373.401 178.066 373.673C178.124 373.944 177.952 374.212 177.68 374.271L173.282 375.224C173.246 375.232 173.21 375.236 173.175 375.236Z" fill="#312A2A"/>
<path d="M174.875 377.539C174.65 377.539 174.445 377.387 174.387 377.159C174.319 376.889 174.483 376.616 174.753 376.548L179.469 375.361C179.738 375.294 180.012 375.457 180.08 375.726C180.148 375.996 179.984 376.269 179.715 376.337L174.999 377.524C174.958 377.534 174.916 377.539 174.875 377.539Z" fill="#312A2A"/>
<path d="M183.122 105.303L179.416 124.168L164.949 111.763L169.538 88.7373L183.122 105.303Z" fill="#D68365"/>
<path d="M186.241 78.2893C186.508 78.3593 187.539 80.0518 188.064 81.3403C188.939 83.4859 188.57 86.3228 189.204 88.922C189.79 91.3283 190.043 92.2599 190.47 94.5492C190.974 97.252 191.601 101.201 191.571 102.382C191.607 103.666 187.778 105.94 183.138 105.173C175.615 103.929 175.029 96.7538 175.029 96.7538C175.029 96.7538 172.271 74.6322 186.241 78.2896V78.2893Z" fill="#E0997A"/>
<path d="M187.816 83.3242C187.816 83.3242 190.188 88.9395 193.231 92.3016C193.443 92.536 193.511 92.8719 193.383 93.1611C192.706 94.6958 190.47 94.5489 190.47 94.5489L187.816 83.3242Z" fill="#E0997A"/>
<path d="M186.863 88.8232C187.027 89.4914 186.879 90.1011 186.534 90.1851C186.19 90.2691 185.778 89.7955 185.614 89.1274C185.451 88.4592 185.599 87.8495 185.943 87.7655C186.288 87.6815 186.7 88.1551 186.863 88.8232Z" fill="#392F32"/>
<path d="M186.945 72.6783C188.118 73.5879 189.026 74.7724 189.154 76.2545C189.288 77.7983 188.475 79.4168 187.095 80.1241C185.761 80.8076 184.163 80.6082 182.683 80.3686C181.87 80.2372 181.002 80.1052 180.252 80.4426C177.229 81.8008 177.901 88.8643 178.583 91.2698C178.764 91.9096 178.441 92.6191 177.8 92.7975C177.233 92.9552 176.596 92.6992 175.57 91.3548L171.636 97.6907C171.636 97.6907 167.435 103.257 166.758 102.687C164.95 101.163 163.705 98.8259 162.755 97.7346C161.99 96.8556 161.377 95.8549 160.83 94.826C158.726 90.8648 157.568 86.2851 158.27 81.8561C158.843 78.2444 160.767 74.7546 163.754 72.5869C167.035 70.2049 171.004 69.5654 175.012 69.3152C178.101 69.1223 180.627 69.8511 183.555 70.8903C184.654 71.2803 185.904 71.8709 186.945 72.6782L186.945 72.6783Z" fill="#392F32"/>
<path d="M175.569 91.3547C175.569 91.3547 171.769 87.7104 169.655 90.7438C169.072 91.5812 168.847 92.6277 169.003 93.6359C169.335 95.7743 170.927 99.0671 176.276 98.3388C176.267 98.5802 175.569 91.3547 175.569 91.3547H175.569Z" fill="#E0997A"/>
<path d="M174.769 96.2648C174.584 96.2648 174.405 96.1624 174.317 95.9858C173.041 93.4232 170.61 93.0471 170.507 93.0324C170.232 92.9929 170.041 92.7391 170.079 92.4646C170.118 92.1902 170.37 91.9984 170.645 92.036C170.769 92.0529 173.698 92.4852 175.219 95.5375C175.343 95.7862 175.242 96.0881 174.993 96.2118C174.921 96.2477 174.844 96.2646 174.769 96.2646V96.2648Z" fill="#312A2A"/>
<path d="M171.896 95.4261C171.762 95.4261 171.627 95.3724 171.528 95.2663C171.338 95.0633 171.349 94.745 171.553 94.5555L172.728 93.4605C172.931 93.2709 173.25 93.2819 173.44 93.4851C173.629 93.6882 173.618 94.0064 173.415 94.1959L172.24 95.291C172.143 95.3814 172.019 95.4261 171.896 95.4261Z" fill="#312A2A"/>
<path d="M184.005 87.6876C183.882 87.6876 183.759 87.6431 183.662 87.5533C183.458 87.3643 183.446 87.0461 183.635 86.8425C185.474 84.8634 187.229 84.8716 187.302 84.8711C187.58 84.8757 187.801 85.1047 187.797 85.3825C187.792 85.6588 187.565 85.8766 187.289 85.877C187.223 85.8772 185.88 85.9058 184.374 87.5268C184.275 87.6337 184.14 87.6876 184.005 87.6876Z" fill="#312A2A"/>
<path d="M161.752 112.682L162.114 111.893C163.056 109.84 165.49 108.963 167.539 109.918C173.343 112.623 183.604 118.898 182.284 129.031C182.148 128.831 161.752 112.682 161.752 112.682Z" fill="#E7E7EB"/>
<path d="M142.654 199.904C142.536 205.72 141.955 209.591 143.518 216.581C145.082 223.576 146.087 230.68 146.389 237.841C148.842 296.026 156.333 369.01 156.333 369.01C156.333 369.01 160.318 371.041 177.286 369.01C179.907 329.129 188.189 249.464 190.113 198.324C190.558 186.476 143.061 179.867 142.654 199.904Z" fill="#E7D1B5"/>
<path d="M152.534 204.526C146.734 204.526 142.664 204.475 142.547 204.474C142.269 204.47 142.046 204.242 142.05 203.964C142.054 203.689 142.278 203.468 142.553 203.468C142.556 203.468 142.558 203.468 142.56 203.468C142.904 203.472 177.085 203.899 189.298 202.244C189.574 202.207 189.828 202.399 189.865 202.675C189.902 202.95 189.709 203.203 189.434 203.241C181.342 204.337 163.721 204.526 152.534 204.526Z" fill="#312A2A"/>
<path d="M163.653 362.344H163.649C163.371 362.342 163.147 362.115 163.149 361.837L164.398 203.943C164.4 203.666 164.625 203.444 164.902 203.444H164.906C165.184 203.446 165.407 203.673 165.405 203.951L164.157 361.845C164.154 362.122 163.929 362.344 163.653 362.344L163.653 362.344Z" fill="#312A2A"/>
<path d="M169.788 116.899C164.72 114.296 161.138 109.085 156.006 116.415C153.255 120.345 149.426 126.16 147.449 135.119C146.065 141.393 146.282 148.305 146.55 154.677C146.898 162.953 148.675 171.773 147.179 179.992C146.895 181.554 146.413 183.072 145.867 184.563C143.235 191.753 141.729 199.352 141.415 207.001L152.262 209.102C155.95 209.816 159.675 210.534 163.43 210.423C165.69 210.357 167.93 209.99 170.161 209.625C177.913 208.354 190.139 209.534 190.139 207.659C193.69 192.648 188.227 144.688 183.873 131.576C183.873 131.576 178.127 121.184 169.788 116.899Z" fill="#566C62"/>
<path d="M168.984 118.087C168.157 118.765 175.93 118.472 181.927 127.546C184.957 132.131 182.309 160.783 183.234 162.992C186.591 171.006 211.135 183.019 211.783 183.359L204.829 197.548C204.829 197.548 172.227 191.126 164.095 175.231C159.061 165.392 158.543 153.687 158.162 142.63C157.746 142.1 160.54 122.218 168.984 118.087Z" fill="#566C62"/>
<path d="M189.553 98.4451C189.062 98.4451 188.474 98.4056 187.811 98.2883C187.538 98.2399 187.355 97.9789 187.403 97.7054C187.452 97.4319 187.713 97.2492 187.987 97.2979C189.733 97.6067 190.888 97.3103 190.9 97.3073C191.168 97.2361 191.444 97.3953 191.516 97.663C191.588 97.9306 191.43 98.2057 191.162 98.2784C191.126 98.2883 190.532 98.4451 189.553 98.4451Z" fill="#312A2A"/>
<path d="M167.161 180.161C167.053 180.161 166.944 180.126 166.852 180.054C166.724 179.954 163.675 177.526 161.155 170.723C159.69 166.765 158.705 162.125 158.229 156.934C157.635 150.463 157.833 143.108 158.818 135.071C158.852 134.796 159.103 134.599 159.379 134.633C159.655 134.667 159.852 134.918 159.818 135.194C157.619 153.135 159.824 164.169 162.06 170.266C164.475 176.85 167.443 179.239 167.472 179.262C167.69 179.433 167.729 179.749 167.558 179.967C167.458 180.094 167.31 180.161 167.161 180.161H167.161Z" fill="#312A2A"/>
<path d="M176.318 165.72C176.105 165.72 175.908 165.585 175.839 165.372C175.754 165.107 175.899 164.824 176.164 164.739L183.079 162.514C183.344 162.429 183.628 162.574 183.713 162.839C183.798 163.103 183.653 163.386 183.388 163.472L176.473 165.696C176.421 165.713 176.369 165.72 176.318 165.72Z" fill="#312A2A"/>
<path d="M183.086 129.535C182.944 129.535 182.803 129.475 182.704 129.359C169.336 113.798 161.797 113.189 161.722 113.184C161.445 113.168 161.233 112.93 161.249 112.653C161.265 112.376 161.505 112.164 161.781 112.18C162.103 112.199 169.824 112.821 183.468 128.704C183.649 128.915 183.625 129.233 183.414 129.414C183.319 129.495 183.202 129.535 183.086 129.535Z" fill="#312A2A"/>
<path d="M149.622 196.995C149.35 196.995 149.127 196.779 149.119 196.506C149.048 194.021 150.031 191.711 150.982 189.476C151.898 187.326 152.762 185.295 152.777 183.114C152.783 182.224 152.64 181.299 152.501 180.405C152.29 179.051 152.073 177.651 152.337 176.247C152.388 175.974 152.651 175.794 152.924 175.846C153.198 175.897 153.378 176.16 153.326 176.433C153.094 177.667 153.29 178.922 153.496 180.251C153.641 181.185 153.791 182.15 153.784 183.121C153.768 185.503 152.823 187.723 151.909 189.87C150.959 192.103 150.061 194.212 150.126 196.477C150.133 196.755 149.914 196.986 149.636 196.994C149.632 196.994 149.627 196.995 149.622 196.995L149.622 196.995Z" fill="#312A2A"/>
<path d="M151.449 320.469C151.18 320.469 150.957 320.257 150.946 319.986C150.919 319.308 148.202 251.923 144.849 226.418C144.813 226.143 145.007 225.89 145.283 225.854C145.558 225.817 145.811 226.012 145.848 226.287C149.206 251.837 151.925 319.268 151.953 319.946C151.964 320.223 151.747 320.457 151.469 320.469C151.463 320.469 151.456 320.469 151.449 320.469Z" fill="#312A2A"/>
<path d="M130.127 353.786C130.036 353.786 129.943 353.762 129.86 353.709C129.768 353.652 120.571 347.852 111.032 339.629C110.821 339.448 110.798 339.13 110.98 338.92C111.162 338.71 111.48 338.686 111.69 338.868C121.169 347.039 130.305 352.8 130.396 352.858C130.631 353.005 130.702 353.316 130.554 353.551C130.459 353.703 130.295 353.786 130.127 353.786Z" fill="#312A2A"/>
<path d="M155.669 362.854C155.399 362.854 155.175 362.64 155.166 362.368C155.157 362.09 155.375 361.858 155.653 361.848C163.924 361.572 177.657 360.837 177.794 360.83C178.072 360.815 178.309 361.028 178.324 361.305C178.339 361.582 178.126 361.819 177.848 361.834C177.711 361.842 163.968 362.576 155.687 362.853C155.681 362.854 155.675 362.854 155.669 362.854L155.669 362.854Z" fill="#312A2A"/>
<path d="M203.833 198.051C203.782 198.051 203.73 198.043 203.678 198.027C198.31 196.296 179.55 189.499 174.529 186.723C174.286 186.589 174.198 186.283 174.333 186.04C174.467 185.797 174.774 185.709 175.017 185.843C179.986 188.59 198.644 195.347 203.988 197.07C204.252 197.155 204.398 197.438 204.312 197.703C204.243 197.916 204.046 198.051 203.833 198.051Z" fill="#312A2A"/>
<path d="M209.624 183.861C209.544 183.861 209.463 183.842 209.388 183.801C202.291 180.015 195.597 175.443 189.491 170.21C189.28 170.029 189.256 169.711 189.437 169.501C189.618 169.29 189.936 169.266 190.147 169.446C196.197 174.632 202.83 179.163 209.862 182.914C210.107 183.045 210.2 183.349 210.069 183.594C209.978 183.764 209.804 183.86 209.625 183.86L209.624 183.861Z" fill="#312A2A"/>
<path d="M185.348 166.649C185.234 166.649 185.119 166.611 185.025 166.532C183.306 165.095 183.124 162.662 183.088 160.494L182.798 142.999C182.768 141.226 182.738 139.393 183.1 137.595C183.155 137.322 183.421 137.146 183.693 137.201C183.966 137.256 184.142 137.521 184.088 137.793C183.747 139.485 183.776 141.263 183.805 142.983L184.095 160.477C184.127 162.423 184.279 164.596 185.671 165.761C185.885 165.939 185.913 166.256 185.734 166.469C185.635 166.588 185.492 166.649 185.348 166.649Z" fill="#312A2A"/>
<path d="M189.561 207.405C189.52 207.405 189.479 207.4 189.437 207.39C189.168 207.322 189.004 207.049 189.072 206.78C190.008 203.067 190.611 199.248 190.865 195.427C190.883 195.15 191.123 194.94 191.401 194.959C191.678 194.977 191.888 195.217 191.87 195.494C191.612 199.374 190.999 203.254 190.049 207.025C189.991 207.253 189.786 207.405 189.561 207.405Z" fill="#312A2A"/>
<path d="M312.081 92.3395C311.923 92.3395 311.767 92.2651 311.669 92.1258C306.961 85.4391 308.929 80.8647 310.52 78.7331C312.653 75.8764 316.233 74.4061 318.009 75.0006C318.272 75.0889 318.414 75.3739 318.326 75.6373C318.237 75.9007 317.952 76.043 317.688 75.9543C316.452 75.5401 313.237 76.7775 311.328 79.3344C308.861 82.6384 309.274 86.9757 312.493 91.5472C312.653 91.7744 312.598 92.0882 312.37 92.248C312.282 92.3098 312.181 92.3395 312.081 92.3395Z" fill="#1A292F"/>
<path d="M309.675 291.767C310.852 316.221 312.452 340.131 312.941 361.955C312.801 365.105 312.432 368.697 311.54 371.089C311.189 372.03 310.642 375.359 304.289 377.157L327.073 373.433L327.164 370.704C328.206 354.934 333.22 292.83 333.22 292.83C333.22 292.83 308.532 267.998 309.675 291.767Z" fill="#E0997A"/>
<path d="M324.703 377.607C324.706 377.604 324.709 377.601 324.712 377.597C324.709 377.609 324.706 377.611 324.703 377.607Z" fill="#E0997A"/>
<path d="M327.215 384.684C328.155 381.941 328.154 379.005 327.933 376.136C327.731 373.507 327.894 370.654 327.012 370.676C319.372 375.218 312.455 371.791 312.028 369.467C311.008 369.436 304.289 377.157 301.605 377.834C291.658 380.497 290.93 382.741 290.885 384.668C290.869 385.318 327.112 384.984 327.215 384.684L327.215 384.684Z" fill="#312A2A"/>
<path d="M301.936 387.138C306.152 387.114 310.41 386.663 314.569 385.961C318.138 385.36 321.937 385.64 325.555 385.718C325.934 385.72 326.342 385.714 326.653 385.529C326.673 385.517 326.692 385.505 326.711 385.491C326.986 385.299 327.113 384.984 327.216 384.684C327.716 383.224 327.945 381.709 328.021 380.18C327.234 380.232 326.449 380.321 325.673 380.464C324.68 380.648 323.701 380.905 322.719 381.143C313.393 383.399 303.705 383.884 294.119 383.421C293.149 383.374 292.161 383.309 291.226 383.066C290.959 383.624 290.897 384.157 290.885 384.668C290.87 385.318 291.318 385.899 291.987 386.144C295.061 387.272 298.71 387.156 301.936 387.138Z" fill="#E7D1B5"/>
<path d="M343.252 291.891C345.38 316.282 347.91 340.111 349.249 361.899C349.231 365.052 349.002 368.656 348.204 371.081C347.89 372.035 347.473 375.383 341.195 377.426L363.816 372.82L363.802 370.089C364.229 354.29 366.82 292.039 366.82 292.039C366.82 292.039 341.184 268.184 343.252 291.891Z" fill="#E0997A"/>
<path d="M361.61 377.083C361.613 377.079 361.616 377.076 361.619 377.073C361.616 377.084 361.613 377.087 361.61 377.083Z" fill="#E0997A"/>
<path d="M364.397 384.057C365.229 381.279 365.114 378.346 364.781 375.488C364.477 372.868 364.528 370.011 363.648 370.067C356.19 374.903 349.145 371.747 348.628 369.442C347.607 369.45 341.195 377.427 338.538 378.207C328.703 381.255 328.063 383.525 328.093 385.452C328.103 386.103 364.305 384.361 364.396 384.057L364.397 384.057Z" fill="#312A2A"/>
<path d="M339.232 387.491C343.443 387.303 347.68 386.688 351.809 385.825C355.352 385.085 359.158 385.218 362.777 385.155C363.156 385.142 363.563 385.121 363.867 384.923C363.886 384.911 363.905 384.897 363.923 384.883C364.19 384.681 364.305 384.361 364.396 384.057C364.839 382.579 365.009 381.056 365.025 379.525C364.241 379.608 363.46 379.727 362.69 379.901C361.705 380.123 360.737 380.418 359.765 380.693C350.533 383.31 340.872 384.171 331.276 384.08C330.304 384.071 329.314 384.045 328.371 383.839C328.126 384.406 328.085 384.941 328.093 385.452C328.103 386.103 328.573 386.665 329.251 386.884C332.367 387.892 336.008 387.635 339.232 387.491L339.232 387.491Z" fill="#E7D1B5"/>
<path d="M330.441 200.809L335.019 249.599C335.019 249.599 340.929 331.989 345.145 364.272C351.572 366.812 361.374 367.005 367.132 364.132C368.195 352.108 369.435 228.264 363.798 203.736C359.704 202.822 330.441 200.809 330.441 200.809Z" fill="#566C62"/>
<path d="M308.603 202.906C308.603 202.906 302.874 306.403 307.686 364.09C315.242 367.556 325.609 365.693 329.677 363.942C330.441 349.254 336.642 249.318 336.642 249.318C336.642 249.318 338.293 227.237 337.7 203.62C323.481 203.532 308.603 202.906 308.603 202.906Z" fill="#566C62"/>
<path d="M336.22 266.275C335.952 266.275 335.729 266.064 335.717 265.794L333.86 224.343L328.598 220.212C328.379 220.04 328.341 219.724 328.513 219.506C328.685 219.287 329.001 219.249 329.22 219.421L334.664 223.695C334.779 223.785 334.849 223.921 334.855 224.068L336.723 265.749C336.736 266.027 336.521 266.262 336.243 266.274C336.235 266.275 336.228 266.275 336.22 266.275L336.22 266.275Z" fill="#1A292F"/>
<path d="M356.655 361.127C353.279 361.127 349.062 360.554 344.24 358.707C343.981 358.608 343.851 358.317 343.951 358.057C344.05 357.798 344.341 357.669 344.601 357.768C358.263 363.002 367.046 357.86 367.133 357.807C367.371 357.663 367.68 357.74 367.824 357.977C367.968 358.215 367.892 358.524 367.654 358.668C367.559 358.725 365.295 360.071 361.26 360.752C359.982 360.967 358.436 361.127 356.655 361.127L356.655 361.127Z" fill="#1A292F"/>
<path d="M319.701 361.106C316.356 361.106 312.1 360.539 307.074 358.71C306.812 358.615 306.678 358.326 306.773 358.065C306.868 357.804 307.157 357.67 307.418 357.765C314.856 360.471 320.531 360.34 323.982 359.753C327.716 359.119 329.723 357.83 329.743 357.817C329.976 357.665 330.287 357.73 330.44 357.962C330.592 358.194 330.528 358.505 330.296 358.657C330.21 358.714 328.136 360.057 324.218 360.734C322.98 360.947 321.467 361.106 319.701 361.106Z" fill="#1A292F"/>
<path d="M359.764 219.15C359.515 219.15 359.299 218.965 359.265 218.713C358.574 213.486 358.62 213.44 358.843 213.217C358.909 213.151 358.993 213.104 359.084 213.083C360.651 212.715 364.92 211.568 364.963 211.556C365.231 211.484 365.508 211.643 365.58 211.911C365.652 212.179 365.493 212.455 365.225 212.528C365.185 212.538 361.514 213.525 359.712 213.967C359.777 214.732 360.003 216.583 360.198 218.083C361.159 217.948 363.376 217.598 365.485 216.977C365.752 216.898 366.032 217.05 366.111 217.317C366.189 217.583 366.037 217.863 365.77 217.942C362.904 218.786 359.947 219.132 359.822 219.146C359.803 219.148 359.783 219.15 359.764 219.15L359.764 219.15Z" fill="#1A292F"/>
<path d="M242.435 184.722C242.148 183.358 241.952 183.363 242.343 183.144C252.871 178.097 266.824 169.631 281.07 161.695C284.243 163.748 294.001 172.967 290.781 176.425C281.154 186.758 249.817 190.864 245.62 192.241C244.327 191.464 242.633 185.027 242.435 184.722Z" fill="#E0997A"/>
<path d="M274.721 163.539C278.584 157.224 285.632 146.703 295.092 135.031C301.302 140.123 332.861 156.664 332.383 157.476C321.445 159.385 314.126 159.761 305.288 168.309C300.098 173.329 291.937 179.384 286.152 180.76C286.023 180.791 275.369 164.398 274.721 163.539Z" fill="#E7D1B5"/>
<path d="M316.492 95.5377C316.492 95.5377 313.659 91.0656 310.864 93.52C310.092 94.1975 309.621 95.1657 309.531 96.1877C309.339 98.3556 310.101 101.954 315.5 102.528C315.433 102.761 316.492 95.5376 316.492 95.5376L316.492 95.5377Z" fill="#C7795E"/>
<path d="M335.048 118.106L334.837 96.7749L320.684 103.41L320.898 119.422C320.913 120.514 320.313 121.522 319.346 122.031L312.451 125.658C312.451 125.658 325.276 140.59 344.898 123.225C342.369 122.515 339.124 121.499 337.069 120.844C335.874 120.463 335.06 119.359 335.047 118.106L335.048 118.106Z" fill="#E0997A"/>
<path d="M334.935 106.729L334.867 99.7492C334.011 99.1782 332.919 99.0138 332.427 97.9053L320.685 103.411L320.839 114.946C324.795 114.68 332.099 112.395 334.935 106.729Z" fill="#C7795E"/>
<path d="M336.802 92.4762C337.636 102.256 332.746 110.059 326.05 111.227C315.982 112.983 313.113 104.342 312.278 94.5621C311.444 84.7824 316.258 76.3875 323.03 75.8115C329.802 75.2355 335.968 82.6965 336.802 92.4762Z" fill="#E0997A"/>
<path d="M327.041 94.5009C327.055 95.1617 327.343 95.6914 327.684 95.684C328.025 95.6766 328.29 95.1349 328.276 94.4741C328.261 93.8134 327.973 93.2837 327.632 93.2911C327.291 93.2985 327.026 93.8402 327.041 94.5009Z" fill="#312A2A"/>
<path d="M315.573 95.4765C315.587 96.1373 315.875 96.667 316.216 96.6596C316.557 96.6522 316.822 96.1105 316.808 95.4497C316.794 94.789 316.506 94.2593 316.164 94.2667C315.823 94.2741 315.558 94.8158 315.573 95.4765Z" fill="#312A2A"/>
<path d="M312.186 92.5593C312.536 90.1235 313.343 81.5452 321.107 81.0703C325.721 80.7882 328.435 81.8003 329.817 82.3704C330.739 82.7508 331.174 76.271 331.512 74.5882C327.505 71.3299 319.363 71.2099 314.681 74.587C308.454 79.0791 310.05 89.4301 312.186 92.5593Z" fill="#312A2A"/>
<path d="M337.112 94.4872C332.581 92.7841 335.075 84.5305 329.817 82.3703C329.856 80.9141 329.865 78.012 330.361 76.6422C330.165 75.8405 330.687 74.5436 331.512 74.588C345.679 75.35 341.509 89.1292 340.355 91.118C339.509 92.5781 338.875 95.1669 337.112 94.4872Z" fill="#312A2A"/>
<path d="M334.984 93.3507C334.984 93.3507 339.167 89.1665 341.483 92.0758C342.123 92.8789 342.415 93.915 342.323 94.937C342.128 97.1046 340.74 100.512 335.325 100.123C335.35 100.365 334.984 93.3507 334.984 93.3507Z" fill="#E0997A"/>
<path d="M336.673 97.9431C336.607 97.9431 336.541 97.9304 336.478 97.9037C336.221 97.796 336.101 97.5012 336.208 97.245C337.538 94.0854 340.449 93.4643 340.572 93.4394C340.845 93.384 341.111 93.5603 341.166 93.8325C341.221 94.1042 341.045 94.369 340.774 94.4249C340.671 94.4464 338.254 94.9799 337.137 97.6348C337.056 97.8272 336.869 97.943 336.672 97.943L336.673 97.9431Z" fill="#1A292F"/>
<path d="M339.502 96.9174C339.389 96.9174 339.276 96.8801 339.182 96.8034L337.932 95.7795C337.717 95.6034 337.686 95.2865 337.862 95.0717C338.039 94.8569 338.356 94.8257 338.571 95.0018L339.821 96.0257C340.036 96.2019 340.068 96.5187 339.891 96.7335C339.792 96.8547 339.647 96.9174 339.502 96.9174Z" fill="#1A292F"/>
<path d="M325.43 91.934C325.288 91.934 325.146 91.8745 325.047 91.7584C324.868 91.5485 324.89 91.2345 325.098 91.0534C325.17 90.9914 326.881 89.5481 329.757 90.6074C330.018 90.7035 330.152 90.9927 330.055 91.2533C329.959 91.514 329.669 91.6472 329.409 91.5512C327.116 90.7071 325.81 91.7701 325.755 91.8158C325.661 91.8951 325.545 91.9341 325.43 91.9341L325.43 91.934Z" fill="#1A292F"/>
<path d="M314.49 92.8329C314.314 92.8329 314.144 92.7412 314.051 92.578C313.914 92.3365 313.999 92.0294 314.241 91.8924C314.334 91.8397 316.54 90.6088 318.365 91.3102C318.624 91.41 318.754 91.701 318.654 91.9603C318.554 92.2194 318.263 92.3487 318.003 92.2491C316.854 91.8075 315.256 92.4734 314.738 92.7672C314.659 92.8117 314.574 92.8329 314.49 92.8329Z" fill="#1A292F"/>
<path d="M321.49 101.374C320.908 101.374 320.435 101.236 320.077 100.96C319.533 100.541 319.409 99.9062 319.421 99.5827C319.399 95.6521 319.725 93.1263 319.739 93.0206C319.775 92.7452 320.026 92.5514 320.304 92.5873C320.579 92.6234 320.773 92.8758 320.737 93.1512C320.734 93.1765 320.406 95.7264 320.428 99.5896C320.428 99.5996 320.428 99.6097 320.427 99.6199C320.427 99.6266 320.423 99.9637 320.701 100.17C320.931 100.341 321.539 100.557 323.031 100.077C323.295 99.9916 323.579 100.137 323.665 100.401C323.75 100.666 323.604 100.949 323.34 101.034C322.635 101.261 322.018 101.374 321.49 101.374L321.49 101.374Z" fill="#1A292F"/>
<path d="M321.697 105.967C321.23 105.967 320.723 105.912 320.176 105.784C319.905 105.721 319.737 105.451 319.8 105.18C319.864 104.91 320.135 104.742 320.406 104.805C323.657 105.565 325.109 103.342 325.169 103.247C325.317 103.013 325.628 102.942 325.863 103.089C326.098 103.236 326.17 103.544 326.024 103.779C326.008 103.805 324.626 105.967 321.697 105.967Z" fill="#1A292F"/>
<path d="M365.318 129.001C362.81 127.651 342.592 122.348 340.538 121.693C333.972 131.628 321.913 128.59 316.631 123.593C313.827 124.304 304.019 126.678 295.015 135.088C295.004 135.253 306.751 151.252 307.986 205.324C312.006 206.487 335.26 217.559 364.577 205.104C364.446 201.488 359.51 142.261 365.318 129.001Z" fill="#E7D1B5"/>
<path d="M327.869 129.093C323.494 129.093 319.429 127.301 316.264 123.937C316.073 123.735 316.083 123.417 316.286 123.226C316.488 123.036 316.807 123.046 316.998 123.249C320.395 126.859 324.893 128.54 329.663 127.982C334.115 127.46 338.31 125.014 340.1 121.896C340.239 121.655 340.547 121.572 340.788 121.71C341.029 121.848 341.113 122.155 340.974 122.396C339.032 125.778 334.534 128.424 329.781 128.981C329.138 129.056 328.5 129.093 327.869 129.093L327.869 129.093Z" fill="#1A292F"/>
<path d="M301.14 154.892C300.862 154.892 300.637 154.667 300.637 154.389V146.294C300.637 146.016 300.862 145.791 301.14 145.791C301.418 145.791 301.644 146.016 301.644 146.294V154.389C301.644 154.667 301.418 154.892 301.14 154.892Z" fill="#1A292F"/>
<path d="M365.22 128.967C369.717 130.861 380.824 143.836 385.471 173.071C386.464 179.315 384.066 181.933 380.287 183.035C372.019 185.447 369.623 183.419 364.227 176.714C363.417 168.8 355.606 165.569 355.074 157.631C354.542 149.693 355.436 141.355 359.651 134.605C361.152 132.202 362.487 129.722 365.22 128.967Z" fill="#E7D1B5"/>
<path d="M362.976 174.363C362.741 174.363 362.53 174.198 362.482 173.959C360.389 163.525 361.948 146.07 362.475 140.969C362.504 140.693 362.752 140.493 363.028 140.52C363.305 140.549 363.506 140.796 363.477 141.072C362.953 146.138 361.404 163.466 363.47 173.761C363.525 174.034 363.348 174.299 363.075 174.353C363.042 174.36 363.009 174.363 362.976 174.363Z" fill="#1A292F"/>
<path d="M294.137 190.373H328.358C329.157 190.373 329.805 189.726 329.805 188.929V139.158C329.805 138.36 329.157 137.713 328.358 137.713H294.137C293.338 137.713 292.691 138.36 292.691 139.158V188.929C292.691 189.726 293.338 190.373 294.137 190.373Z" fill="#616161"/>
<path d="M329.805 175.834C329.526 175.834 329.301 175.609 329.301 175.331V139.981C329.301 138.904 328.812 138.216 328.475 138.216H321.067C320.789 138.216 320.563 137.991 320.563 137.713C320.563 137.436 320.789 137.21 321.067 137.21H328.475C329.503 137.21 330.308 138.427 330.308 139.981V175.331C330.308 175.609 330.083 175.834 329.805 175.834Z" fill="#1A292F"/>
<path d="M292.675 172.887C292.397 172.887 292.172 172.662 292.172 172.384V139.112C292.172 138.028 292.741 137.21 293.495 137.21H304.705C304.983 137.21 305.209 137.436 305.209 137.713C305.209 137.991 304.983 138.216 304.705 138.216H293.495C293.421 138.233 293.179 138.535 293.179 139.112V172.384C293.179 172.662 292.954 172.887 292.675 172.887Z" fill="#1A292F"/>
<path d="M339.184 160.163C339.184 160.163 328.282 156.688 323.678 156.49C323.764 156.564 326.529 169.046 329.173 172.936C331.866 173.144 333.838 174.414 339.618 171.182C339.581 171.225 342.339 171.488 342.339 171.488L341.111 160.613L339.184 160.163Z" fill="#E0997A"/>
<path d="M315.833 175.844C315.475 174.596 319.906 172.228 323.801 170.414C323.806 170.408 323.812 170.401 323.818 170.395C324.234 169.933 323.864 169.195 323.242 169.232C322.684 169.265 322.243 169.301 322.243 169.33C311.566 171.046 309.423 170.331 309.238 169.213C309.236 168.729 309.922 168.275 310.997 167.86C309.291 167.83 308.728 167.42 308.608 166.891C308.494 165.038 318.1 162.851 321.697 162.098C321.918 162.052 322.028 161.795 321.901 161.608C321.9 161.606 321.898 161.605 321.897 161.603C321.827 161.501 321.705 161.445 321.582 161.462C312.63 162.69 308.971 162.353 308.723 161.255C308.582 158.975 323.678 156.49 323.678 156.49L329.173 172.936L326.024 173.504L326.024 173.504C318.203 176.949 316.273 176.782 315.833 175.844Z" fill="#E0997A"/>
<path d="M310.997 168.364C310.769 168.364 310.562 168.208 310.507 167.977C310.442 167.707 310.61 167.436 310.88 167.371L322.742 164.547C323.013 164.483 323.284 164.65 323.349 164.92C323.413 165.19 323.246 165.461 322.976 165.526L311.114 168.35C311.074 168.359 311.035 168.364 310.997 168.364Z" fill="#1A292F"/>
<path d="M339.184 160.163C339.184 160.163 339.443 168.043 339.618 171.182C345.161 172.175 379.671 199.055 385.643 181.782C386.348 176.446 380.373 163.794 339.184 160.163Z" fill="#E0997A"/>
<path d="M339.618 171.685C339.351 171.685 339.128 171.475 339.115 171.206L339 168.772C338.986 168.494 339.201 168.258 339.479 168.245C339.758 168.232 339.992 168.446 340.006 168.724L340.122 171.158C340.135 171.436 339.92 171.671 339.642 171.684C339.634 171.685 339.626 171.685 339.618 171.685L339.618 171.685Z" fill="#1A292F"/>
<path d="M335.057 92.4583C334.064 92.4583 333.08 92.1085 332.315 91.4645C331.429 90.7178 330.812 89.5825 330.429 87.9937C330.317 87.5302 330.228 87.0595 330.142 86.6043C329.999 85.8437 329.864 85.1252 329.629 84.4299C329.387 83.7171 328.809 82.4416 327.653 81.9096C327.401 81.7933 327.29 81.4945 327.407 81.2423C327.523 80.9902 327.822 80.8796 328.075 80.9961C329.185 81.5072 330.076 82.6122 330.583 84.1075C330.841 84.8698 330.989 85.6571 331.133 86.4185C331.216 86.8614 331.302 87.3193 331.408 87.7578C331.74 89.1311 332.249 90.0921 332.965 90.6957C333.689 91.306 334.717 91.5746 335.648 91.397C335.919 91.3447 336.185 91.5236 336.237 91.7964C336.289 92.0693 336.11 92.3327 335.837 92.3849C335.579 92.4342 335.318 92.4583 335.057 92.4583H335.057Z" fill="#1A292F"/>
<defs>
<linearGradient id="paint0_linear_214_3619" x1="336.742" y1="45.3141" x2="356.38" y2="45.3141" gradientUnits="userSpaceOnUse">
<stop stop-color="#E8C46D"/>
<stop offset="1" stop-color="#E4B26B"/>
</linearGradient>
<linearGradient id="paint1_linear_214_3619" x1="201.357" y1="12.7193" x2="226.83" y2="12.7193" gradientUnits="userSpaceOnUse">
<stop stop-color="#E8C46D"/>
<stop offset="1" stop-color="#E4B26B"/>
</linearGradient>
<linearGradient id="paint2_linear_214_3619" x1="38.1525" y1="191.823" x2="50.3854" y2="191.823" gradientUnits="userSpaceOnUse">
<stop stop-color="#E8C46D"/>
<stop offset="1" stop-color="#E4B26B"/>
</linearGradient>
<linearGradient id="paint3_linear_214_3619" x1="418.721" y1="224.64" x2="428.656" y2="224.64" gradientUnits="userSpaceOnUse">
<stop stop-color="#E8C46D"/>
<stop offset="1" stop-color="#E4B26B"/>
</linearGradient>
</defs>
</svg>
