<svg width="370" height="420" viewBox="0 0 370 420" fill="none" xmlns="http://www.w3.org/2000/svg">
<path d="M283.661 135.225C278.689 133.65 272.082 132.28 265.476 131.772C269.931 127.103 274.438 122.47 279.015 117.887C279.31 118.999 280.619 123.802 280.904 124.846C281.042 125.35 281.632 126.564 281.511 127.067C282.101 129.254 282.689 131.441 283.278 133.627C283.382 133.992 283.747 134.773 283.661 135.225Z" fill="#1FC0F3"/>
<path d="M321.129 111.806C320.852 114.495 318.668 116.283 316.154 116.908C314.247 117.393 311.231 117.133 309.567 116.057C308.977 115.676 308.51 115.137 308.077 114.565C305.269 110.903 304.107 106.078 302.478 101.793C301.784 100.005 299.861 99.0329 298.023 99.5361C297.832 99.5881 297.659 99.6401 297.469 99.6921C304.115 93.2195 306.368 90.6867 309.499 90.5981C311.059 90.5461 312.497 91.2053 313.815 92.0736C314.861 92.7174 316.933 94.3642 317.837 95.0931C321.087 109.608 321.325 109.854 321.13 111.806H321.129Z" fill="#1FC0F3"/>
<path d="M201.822 169.223C196.292 183.87 197.869 199.975 203.001 214.433C210.725 236.322 221.17 244.542 218.498 261.464C216.716 272.978 213.492 274.713 216.609 278.386C212.639 277.761 207.126 277.31 204.631 279.618C201.285 282.707 202.135 288.955 205.307 291.715C202.985 291.889 200.765 294.475 199.482 296.436C195.772 302.111 199.343 307.768 203.99 311.169C207.707 313.893 212.526 315.852 217.113 317.313C215.784 317.526 196.601 321.056 170.481 325.834C163.617 320.645 158.97 313.478 155.087 305.789C151.776 299.264 147.408 292.426 144.842 285.64C142.918 280.556 142.155 274.689 140.613 269.396C136.452 255.182 132.708 240.847 129.397 226.408C125.601 209.817 114.732 185.051 128.687 170.716C132.501 166.811 137.424 164.174 142.538 162.281C150.477 159.365 158.868 157.422 167.275 155.703C167.708 158.185 168.125 160.667 168.54 163.148C176.098 168.667 186.205 169.344 193.92 164.832C196.018 163.599 197.646 161.413 198.6 159.035C199.612 156.564 198.663 154.534 197.785 149.368C201.46 148.569 205.136 147.788 208.81 147.007C212.797 146.139 216.368 144.959 220.078 144.196C211.896 150.686 205.517 159.45 201.825 169.221L201.822 169.223Z" fill="#1FC0F3"/>
<path d="M282.898 305.233C282.711 305.267 271.115 307.398 270.884 307.437C271.161 306.413 271.247 305.337 271.092 304.296C276.989 303.154 276.89 297.592 274.229 296.295C275.547 295.635 276.898 294.976 277.991 293.986C279.066 292.998 279.898 291.608 279.863 290.134C279.837 287.908 277.985 285.469 273.483 284.944C275.854 281.114 274.255 278.154 270.328 277.499C272.817 274.619 275.592 272.05 278.458 269.672C278.955 272.219 285.438 304.85 282.896 305.232L282.898 305.233Z" fill="#1FC0F3"/>
<path d="M226.192 280.826C225.507 280.615 225.121 279.886 225.332 279.2C234.369 249.781 241.709 229.405 241.813 209.811C231.336 206.532 226.602 195.22 228.823 184.814C229.787 180.492 232.691 179.407 235.573 181.434C240.244 184.627 241.968 190.396 242.858 194.456C243.784 198.756 244.302 203.233 244.399 207.783C247.547 208.393 250.752 208.044 253.649 206.435C251.511 197.428 252.542 187.862 256.516 180.034C259.943 173.225 265.7 174.112 267.483 179.986C270.021 188.198 265.878 196.319 263.183 200.429C261.128 203.563 258.981 205.921 256.647 207.605C259.221 216.457 264.803 223.217 270.312 226.447C272.151 223.744 274.152 221.198 276.269 218.867C277.881 217.067 279.708 215.271 282.096 214.376C284.946 213.322 288.119 213.967 289.815 215.945C291.175 217.541 291.621 219.96 291.008 222.418C289.359 229.065 280.648 234.099 271.195 229.832C264.718 240.006 260.099 252.753 257.081 268.752C256.946 269.458 256.267 269.928 255.563 269.789C254.857 269.655 254.393 268.975 254.526 268.269C257.586 252.038 262.288 239.05 268.881 228.625C266.767 227.368 264.711 225.688 262.762 223.621C258.964 219.594 256.077 214.569 254.353 209.008C251.269 210.575 247.799 210.986 244.411 210.43C244.157 230.155 237.043 249.946 227.82 279.965C227.612 280.641 226.893 281.039 226.195 280.826H226.192ZM272.654 227.629C280.263 230.846 287.186 227.018 288.484 221.79C288.893 220.144 288.651 218.593 287.837 217.639C286.722 216.338 284.56 216.239 283 216.816C281.143 217.512 279.594 219.051 278.198 220.611C276.232 222.776 274.373 225.131 272.654 227.629ZM232.825 183.046C230.078 183.33 228.167 201.968 241.778 207.048C241.645 202.937 241.154 198.895 240.318 195.01C239.056 189.25 237.079 185.615 234.095 183.575C233.763 183.342 233.229 183.005 232.825 183.048V183.046ZM258.837 181.209C255.277 188.216 254.258 196.731 255.959 204.852C257.72 203.409 259.384 201.479 261.01 199.001C263.455 195.273 267.221 187.948 264.997 180.749C263.689 176.438 260.818 177.269 258.838 181.209H258.837Z" fill="#1FC0F3"/>
<path d="M252.964 282.631C252.747 279.775 253.088 276.878 253.408 274.674C253.512 273.962 254.164 273.474 254.883 273.573C255.592 273.677 256.086 274.337 255.982 275.048C255.681 277.12 255.36 279.832 255.558 282.433C255.612 283.15 255.075 283.775 254.359 283.83C253.645 283.884 253.02 283.351 252.964 282.631Z" fill="#047AFF"/>
<path d="M42.0117 118.927C31.0023 124.596 16.3419 121.555 7.84351 112.055C-0.654872 102.554 -2.43196 87.4781 3.4185 76.3286C10.2472 63.3137 26.1607 57.7354 39.0711 59.6504C46.858 60.8057 53.6324 66.091 58.1636 72.5967C65.4324 83.0327 65.3545 93.8066 57.1995 104.647C55.2596 107.225 52.8772 108.575 50.4145 110.298C51.4694 112.803 57.7293 124.361 60.1188 125.174C53.545 122.938 48.5855 121.162 42.0117 118.927Z" fill="#1FC0F3"/>
<path d="M82.2771 90.8588C80.0445 90.8588 81.7815 88.476 78.9318 77.3466C76.2815 78.9851 72.7498 78.7607 69.9862 77.8392C66.6716 76.7347 64.1487 73.7459 63.5198 70.3318C56.7064 69.7777 51.3469 61.161 51.577 55.4516C51.8401 49.0073 57.6752 44.7309 63.4136 41.846C66.196 29.4904 80.5755 24.8619 86.6278 30.654C87.6261 30.1874 88.727 29.9712 89.54 29.6924C91.3655 29.071 93.165 28.5063 95.1144 28.4272C99.4709 28.2606 103.785 30.6634 106.372 34.6339C112.365 34.452 118.685 40.3008 118.537 49.6996C118.444 55.5945 115.574 60.7027 111.226 62.7145C110.097 63.2272 110.135 63.1421 109.984 64.0648C108.509 72.7665 100.108 78.0932 91.8092 75.968C89.2592 81.2498 86.2478 85.961 83.3568 90.2811C83.1114 90.6473 82.7031 90.8588 82.2771 90.8588ZM80.8989 74.659C81.942 78.3023 82.7102 82.0377 83.194 85.8038C85.567 82.131 87.927 78.1747 89.9353 73.8534C90.2173 73.2473 90.91 72.9496 91.5401 73.1729C98.5588 75.6077 106.15 71.1304 107.397 63.7718C107.737 61.7009 108.287 61.1858 110.136 60.3542C114.324 58.4156 115.879 53.383 115.938 49.6606C116.068 41.3841 110.424 36.7001 105.845 37.2849C105.32 37.3534 104.814 37.0982 104.552 36.6422C102.545 33.1384 98.757 30.8548 95.2217 31.0308C93.6181 31.0958 92.0157 31.6014 90.3778 32.159C89.2674 32.5394 87.8845 32.778 87.1965 33.3345C86.6384 33.7893 85.8018 33.7007 85.351 33.1183C81.1219 27.6475 67.8469 32.0468 65.8385 42.9683C65.7641 43.3735 65.5022 43.7197 65.1328 43.9016C60.1662 46.3446 54.3984 50.0564 54.1753 55.5603C53.9794 60.3884 59.1066 68.1061 64.5971 67.7494C65.2827 67.6938 65.94 68.2373 65.9754 68.9874C66.1087 71.7978 68.1407 74.483 70.8063 75.3726C73.2937 76.2007 76.8338 76.3862 78.6451 74.1901C79.3059 73.3867 80.6086 73.6514 80.8977 74.6602L80.8989 74.659Z" fill="#1FC0F3"/>
<path d="M138.612 163.807C102.701 179.937 91.1031 218.947 77.2263 252.544C71.016 267.582 63.9336 287.891 74.91 302.368C84.5246 315.048 100.181 322.239 115.628 324.514C134.249 327.257 153.206 324.53 171.725 321.16L227.071 311.158C226.215 308.659 225.767 306.025 225.703 303.384L220.537 274.706C218.834 274.197 217.097 273.983 215.324 273.858L125.229 280.443C125.241 280.284 125.251 280.125 125.263 279.966L144.774 227.602L139.172 164.344" fill="#1FC0F3"/>
<path d="M233.927 301.631C233.767 302.332 234.204 303.03 234.905 303.189C251.476 306.983 258.461 309.932 259.428 309.932C260.907 309.932 261.227 307.847 259.831 307.394C251.853 304.791 243.661 302.524 235.484 300.653C234.786 300.489 234.086 300.932 233.927 301.632V301.631Z" fill="black"/>
<path d="M189.484 112.811C188.776 112.929 188.297 113.6 188.416 114.309C188.532 115.007 189.19 115.496 189.912 115.378C191.223 115.16 195.213 114.493 195.949 111.305C196.573 108.594 194.327 106.519 193.08 104.884C191.619 102.974 190.958 100.421 191.267 97.8802C191.353 97.1667 190.846 96.5181 190.134 96.4307C189.426 96.3563 188.774 96.8525 188.686 97.5648C188.296 100.777 189.144 104.022 191.016 106.467C192.193 108.007 193.714 109.429 193.416 110.72C193.183 111.724 191.898 112.408 189.485 112.811H189.484Z" fill="black"/>
<path d="M165.017 100.6C168.682 97.0267 174.233 95.6174 179.155 97.0066C179.845 97.2051 180.565 96.7987 180.758 96.1076C180.954 95.4165 180.551 94.6971 179.86 94.5022C174.057 92.8601 167.52 94.5246 163.201 98.7361C162.688 99.2382 162.676 100.062 163.177 100.577C163.677 101.091 164.499 101.104 165.016 100.6H165.017Z" fill="black"/>
<path d="M189.149 47.7555C189.947 47.4082 191.455 48.5883 192.512 48.0851C193.795 47.4779 193.795 46.593 193.899 45.4648C192.593 46.0496 190.746 46.9864 188.698 47.6173C188.854 47.6692 189.01 47.7035 189.149 47.7567V47.7555Z" fill="black"/>
<path d="M135.912 124.118C136.96 124.594 138.05 125.019 139.166 125.299C142.685 129.003 148.461 129.058 152.248 126.127C155.019 131.223 158.55 135.079 162.981 137.894C167.616 165.625 167.147 163.747 167.77 164.202C175.696 169.988 186.466 170.698 194.573 165.957C196.807 164.644 198.664 162.359 199.798 159.532C200.957 156.704 199.933 153.965 199.426 151.304C198.372 145.044 198.213 143.327 196.883 138.573C196.797 138.267 196.598 138.03 196.355 137.863C205.999 127.14 206.878 109.208 203.506 95.1535C202.512 91.0105 200.849 86.8108 198.708 82.9029C204.136 78.7163 208.252 72.7954 210.054 66.1716C211.233 61.8502 211.458 57.1638 210.02 52.8945C208.841 49.3894 206.327 45.8489 202.929 44.1998C202.131 43.8005 201.265 43.6445 200.381 43.6445C199.194 52.7314 199.152 52.6653 198.804 53.0504C198.457 53.4839 197.886 53.6576 197.365 53.7616C195.371 54.1786 193.257 53.9352 191.385 53.1366C190.258 52.6535 189.557 52.8177 189.686 54.0392C189.876 56.2081 190.432 58.3263 191.298 60.3038C189.702 61.9353 186.929 61.1201 184.797 61.9176C183.029 62.5767 181.885 64.2602 180.897 65.8573C179.25 68.409 177.62 70.9418 175.991 73.4935C176.563 69.0682 177.118 64.6429 177.672 60.1999C177.88 58.6724 178.384 56.7811 179.908 56.4692C180.723 56.2955 181.556 56.6948 182.352 56.9027C183.166 57.0941 184.207 57.0067 184.588 56.2601C184.861 55.7167 184.699 55.3812 184.536 50.1159C184.519 49.595 184.502 49.0752 184.692 48.6239C175.682 50.201 170.77 47.3539 164.722 46.7845C151.546 45.4697 139.834 55.4792 139.1 68.7906C138.992 70.9737 138.655 71.5172 135.98 72.2094C125.024 74.9868 117.258 86.3536 117.571 97.652C117.9 108.967 125.614 119.432 135.912 124.118ZM166.664 90.779C167.236 89.7205 167.288 89.1133 168.519 88.9739C169.784 88.8179 171.709 89.5811 173.078 89.6331C181.702 89.9804 189.504 89.0093 196.579 84.4233C197.81 86.7045 198.875 89.0814 199.717 91.4889C197.945 91.1464 193.468 91.2314 190.275 92.3277C189.595 92.5604 189.233 93.2999 189.465 93.9804C189.7 94.6691 190.45 95.0223 191.116 94.7908C192.971 94.1552 195.109 93.8741 197.855 93.9331C198.63 93.9461 199.506 93.9922 200.076 94.3596C200.255 94.4742 200.453 94.525 200.653 94.5439C207.28 118.923 198.207 147.481 172.898 143.075C172.192 142.949 171.517 143.424 171.393 144.133C171.27 144.842 171.744 145.517 172.451 145.639C180.838 147.104 188.129 145.589 194.504 139.735C196.283 146.231 196.099 148.464 197.199 153.313C197.626 155.202 198.03 156.986 197.389 158.551C196.477 160.822 194.971 162.703 193.258 163.709C186.18 167.85 176.788 167.311 169.728 162.401C164.673 132.245 165.424 136.739 165.345 136.274C165.227 135.573 164.546 135.021 163.713 135.26C159.654 132.511 156.438 128.733 153.927 123.725L153.768 123.403C153.35 122.538 152.168 122.411 151.575 123.168C150.49 124.551 148.411 125.51 146.277 125.61C142.614 125.738 139.276 123.319 138.609 117.447C138.342 115.089 138.598 113.102 139.368 111.54C141.133 107.966 145.44 107.477 148.849 109.377C149.429 109.699 150.134 109.515 150.517 108.992C150.547 109.008 150.581 109.02 150.611 109.037C150.598 108.988 150.611 108.94 150.602 108.89C150.605 108.883 150.614 108.88 150.617 108.872C150.806 108.532 150.815 108.151 150.695 107.81C150.879 107.237 151.221 106.687 151.599 106.207C156.258 100.238 162.847 97.9509 166.663 90.779H166.664Z" fill="black"/>
<path d="M192.065 124.515C192.672 124.13 192.851 123.326 192.466 122.719C192.079 122.111 191.278 121.933 190.671 122.317C189.259 123.214 187.198 123.023 185.975 121.877C185.45 121.385 184.627 121.413 184.138 121.938C183.647 122.463 183.674 123.287 184.198 123.777C186.276 125.724 189.658 126.044 192.065 124.514V124.515Z" fill="black"/>
<path d="M144.941 110.638C143.8 111.28 143.002 112.498 142.753 113.977C142.552 115.176 142.722 116.329 142.937 117.395C143.076 118.085 143.745 118.557 144.468 118.416C145.172 118.274 145.628 117.587 145.487 116.882C145.322 116.06 145.187 115.192 145.318 114.408C145.433 113.729 145.776 113.154 146.216 112.906C146.556 112.716 147.065 112.753 147.248 112.985C147.691 113.55 148.507 113.649 149.073 113.205C149.637 112.76 149.736 111.942 149.293 111.377C148.319 110.137 146.405 109.814 144.941 110.638Z" fill="black"/>
<path d="M197.382 105.218C198.714 104.957 199.485 103.156 199.102 101.194C198.72 99.233 197.33 97.8532 195.997 98.1142C194.664 98.3741 193.894 100.176 194.276 102.138C194.659 104.099 196.05 105.479 197.382 105.218Z" fill="black"/>
<path d="M174.924 100.839C173.592 101.099 172.821 102.9 173.203 104.862C173.586 106.825 174.977 108.203 176.309 107.942C177.641 107.681 178.412 105.881 178.03 103.919C177.647 101.958 176.257 100.578 174.924 100.839Z" fill="black"/>
<path d="M355.404 111.151C350.747 111.87 346.677 114.399 345.983 114.205C345.32 113.356 344.909 110.868 344.638 109.586C345.015 109.15 356.496 99.1265 355.542 89.1229C356.105 87.2941 356.325 85.443 356.137 83.6473C355.961 81.9852 354.901 80.5652 353.488 79.8682C355.181 76.0584 353.39 71.9284 349.632 70.942C350.415 66.9041 347.378 63.4015 343.249 64.3205C343.245 62.9041 342.841 61.5219 342.056 60.3949C338.796 55.7062 332.585 59.1592 328.73 63.3388C326.23 60.3217 323.337 58.4764 320.123 57.8503C318.84 57.5904 317.766 57.6247 316.794 57.9377C313.743 58.91 312.564 62.571 312.963 65.6956C313.292 68.2119 314.315 70.5025 315.303 72.7069C316.117 74.5463 316.898 76.2817 317.279 78.1045C318.354 83.1205 316.378 88.0833 313.812 92.075C314.853 92.7153 315.747 93.4938 315.927 93.5848C316.003 93.4678 316.072 93.3403 316.148 93.2209C316.103 93.7443 319.161 106.951 319.283 107.466C319.617 108.867 319.961 110.316 319.827 111.679C319.595 113.935 317.611 115.21 315.823 115.655C314.103 116.095 311.504 115.776 310.265 114.973C309.806 114.677 309.421 114.208 309.097 113.78C306.45 110.327 305.301 105.592 303.68 101.327C302.742 98.9127 300.155 97.6061 297.67 98.2877C296.252 98.6835 279.386 103.384 279.178 103.435C277.756 103.781 276.198 104.256 275.553 105.676C274.645 107.423 275.287 109.586 275.884 111.45C276.436 113.154 279.81 126.341 280.245 126.766C280.108 127.333 280.245 127.176 281.852 133.338C247.551 123.861 212.991 135.997 200.596 168.767C194.129 185.914 197.666 203.303 201.775 214.862C209.485 236.72 219.806 244.869 217.203 261.268C216.163 268.144 214.554 271.825 214.325 272.966L127.095 279.925L144.965 228.298C145.199 227.619 144.841 226.877 144.162 226.642C143.481 226.404 142.743 226.765 142.508 227.445L124.265 280.15L102.513 281.885C101.802 281.937 101.264 282.562 101.334 283.291C101.386 284.002 102.01 284.523 102.721 284.489L203.181 276.469C203.223 276.875 205.905 293.641 206.798 299.273C206.901 299.914 207.452 300.37 208.081 300.37C208.887 300.37 209.491 299.649 209.367 298.863L205.769 276.262C205.946 276.248 217.335 275.336 216.613 275.394L217.896 275.29C218.78 275.238 219.56 275.827 219.717 276.695C220.408 280.66 220.222 279.598 220.289 279.976C220.321 280.151 220.859 283.163 220.826 282.979C221.732 288.141 218.497 269.715 225.316 308.543C225.472 309.446 224.865 310.331 223.964 310.504L223.894 310.522L169.045 321.212C168.335 321.351 167.884 322.045 168.022 322.74C168.166 323.483 168.882 323.914 169.548 323.78L209.765 315.927C211.176 316.558 212.699 317.156 214.433 317.765C214.43 317.774 214.428 317.784 214.426 317.793C199.486 320.524 191.378 322.013 190.966 322.086C187.828 322.665 182.726 323.576 181.761 323.77C180.287 324.099 178.814 324.429 177.34 324.758C177.323 324.758 174.671 325.366 174.671 325.366C174.191 325.486 173.743 325.634 173.31 325.797C173.741 325.631 174.187 325.481 174.662 325.357L172.757 325.773C172.002 326.132 171.248 326.49 170.493 326.849L171.267 326.906C171.496 326.728 171.737 326.566 171.989 326.417C171.739 326.567 171.499 326.73 171.273 326.91C169.539 328.211 168.412 330.346 168.153 334.147C166.477 358.384 168.223 377.594 168.223 378.141C175.035 370.036 184.379 364.222 194.642 361.688C200.217 360.322 206.102 359.9 211.319 358.322C214.837 357.281 221.148 354.677 223.765 349.054C226.132 343.947 224.853 337.955 222.899 332.043C224.411 332.447 225.075 332.469 225.775 332.52C227.651 338.521 228.688 344.635 226.104 350.147C223.85 355.006 218.858 358.789 212.063 360.82C208.926 361.757 205.666 362.296 202.529 362.815C200.119 363.215 197.64 363.632 195.265 364.221C185.331 366.668 176.3 372.361 169.834 380.274C169.66 380.485 169.425 380.604 169.177 380.677C168.934 379.479 167.376 379.257 166.789 380.288C165.571 382.415 164.548 384.643 163.445 386.715C157.029 398.751 145.11 407.216 132.336 408.809C118.918 410.478 105.229 404.294 98.2814 393.413C97.8931 392.806 97.0884 392.63 96.4866 393.018C95.8812 393.405 95.7042 394.21 96.0913 394.814C102.756 405.254 115.159 411.682 127.973 411.682C143.734 411.682 158.368 401.769 165.74 387.94C166.185 387.107 166.615 386.249 167.051 385.381C167.556 384.377 168.082 383.355 168.624 382.361C169.9 395.024 172.599 407.393 173.944 420L243.493 419.496C243.303 413.543 244.412 407.678 245.746 401.864C246.544 398.393 246.838 393.291 248.641 390.305C250.079 390.809 251.016 392.388 251.987 393.55L269.409 418.177C283.91 418.411 309.262 418.819 327.412 419.131C330.308 419.183 333.445 419.565 336.27 418.975C336.288 414.011 331.625 407.052 329.596 402.401C305.864 348.265 309.646 356.913 300.907 336.974C295.81 325.346 289.067 314.829 283.468 303.357C283.433 304.503 283.242 305.18 282.895 305.232C282.895 305.232 282.618 305.284 282.081 305.388C279.349 305.885 277.16 306.276 276.985 306.308C277.28 306.482 277.523 306.759 277.609 307.125C280.053 316.455 285.793 321.147 291.39 322.032C292.1 322.136 292.587 322.813 292.482 323.524C292.356 324.292 291.574 324.745 290.991 324.6C284.374 323.57 277.805 318.106 275.094 307.8C274.99 307.367 275.094 306.932 275.372 306.602C274.87 306.709 273.832 306.867 272.236 307.184C272.367 306.543 272.427 305.909 272.423 305.276C277.231 303.768 278.266 299.375 276.454 296.599C283.577 292.814 282.129 285.642 275.431 283.964C276.636 280.835 275.444 278.176 272.68 276.85C280.108 268.894 289.526 263.085 299.16 257.757C328.737 241.333 341.52 209.628 331.725 176.985C329.35 169.069 324.991 161.722 318.798 155.121C320.37 152.224 323.131 151.824 326.358 152.611C327.125 152.781 327.695 152.9 327.909 153.05C328.171 153.236 329.232 154.483 329.937 156.06C331.576 159.573 330.702 157.53 331.157 158.554C331.181 158.919 331.157 158.665 332.545 161.91C333.647 164.469 334.748 168.017 337.167 168.945C338.955 169.695 340.849 168.73 342.231 168.021C343.071 167.594 354.947 162.15 355.84 161.812C360.347 160.104 360.476 158.292 358.754 154.244C358.194 152.93 353.986 141.474 353.507 140.17C352.996 138.789 351.364 135.826 352.107 134.964C352.749 134.224 354.031 133.663 355.163 133.168C356.797 132.452 355.762 132.911 362.025 129.71C364.949 128.18 368.954 126.085 369.12 120.977C369.284 115.312 363.638 109.846 355.402 111.148L355.404 111.151ZM200.851 346.017C200.556 349.575 198.753 352.646 196.118 354.052C195.735 354.244 195.32 354.417 194.921 354.59C194.193 354.902 193.552 355.163 193.188 355.596C192.928 355.908 192.564 356.065 192.2 356.065C191.889 356.065 191.594 355.961 191.352 355.753C190.797 355.284 190.745 354.452 191.213 353.914C191.975 353.011 193.016 352.578 193.917 352.196C194.246 352.057 194.576 351.919 194.905 351.745C197.123 350.583 198.094 347.909 198.251 345.81C198.477 343.206 197.783 340.534 197.107 337.948L193.917 325.557C193.744 324.862 194.16 324.151 194.853 323.978C195.545 323.786 196.257 324.203 196.43 324.914C200.098 339.125 201.16 342.144 200.851 346.018V346.017ZM343.853 106.727C343.521 105.597 342.792 103.116 342.523 102.207C343.75 102.048 345.17 101.454 345.658 101.088C345.786 100.993 345.903 100.887 346.142 100.663C348.804 98.8512 350.43 97.3214 351.784 95.7467C349.724 100.675 345.617 105.012 343.852 106.726L343.853 106.727ZM353.55 83.919C353.94 87.6344 352.226 91.7147 348.849 95.1146C346.787 97.1879 344.747 98.3929 344.233 98.8855C344.055 99.0036 344.253 98.9493 343.847 99.1253C342.737 99.599 341.996 99.8058 341.04 99.5222C340.604 99.3946 340.464 99.3332 340.219 98.9044C339.815 98.2015 339.812 97.4407 340.062 96.9256C344.406 94.2782 350.409 84.6231 351.933 82.0915C352.754 82.2829 353.455 83.0129 353.55 83.919ZM351.24 75.4145C351.797 76.7601 351.477 78.5947 350.492 79.8139C350.295 79.9226 350.114 80.0631 349.99 80.2722C348.388 82.9834 341.551 93.6557 338.609 94.7354C338.281 94.8571 338.04 95.0378 337.781 95.2469C337.544 95.3296 337.252 95.3568 336.896 95.3852C336.224 95.4371 335.966 95.4572 335.382 95.0981C333.773 94.1199 333.43 92.2345 334.077 90.7283C334.171 90.5157 334.263 90.2569 334.332 89.9793C339.297 82.212 345.656 73.9757 347.771 73.5669C347.932 73.535 348.077 73.4689 348.21 73.3862C349.509 73.3992 350.731 74.1907 351.24 75.4157V75.4145ZM346.204 67.366C347.154 68.1847 347.388 69.8658 346.814 71.1747C342.616 72.7234 334.719 84.5782 332.415 88.1506C331.588 88.0467 331.429 87.873 330.563 87.2315C330.279 87.0271 330.102 86.8948 330.029 86.7602C329.874 86.4696 329.765 86.1423 329.711 85.7903C329.599 85.0543 329.726 84.2616 330.062 83.6142C330.17 83.4087 330.197 83.1878 330.19 82.9704C333.115 77.515 337.144 72.1529 342.037 67.7913C342.16 67.7382 342.277 67.6708 342.382 67.5787C343.491 66.6041 345.204 66.5072 346.202 67.3649L346.204 67.366ZM339.922 61.8823C340.659 62.9407 340.818 64.4399 340.398 65.7972C336.541 68.9467 331.294 75.1771 327.534 82.4211C327.298 82.5168 327.057 82.531 326.867 82.5073C324.582 82.2356 324.834 79.0259 325.293 76.7684C326.178 72.4317 327.687 68.8463 329.779 66.1138C332.047 63.1463 337.669 58.6406 339.922 61.8834V61.8823ZM316.74 92.2451C319.219 88.0018 320.957 82.8806 319.829 77.5658C318.907 73.2692 316.056 69.2739 315.547 65.3649C315.288 63.3518 315.911 60.9395 317.576 60.4186C319.308 59.8763 323.522 60.8852 327.093 65.4653C325.099 68.3761 323.617 71.9709 322.746 76.2462C322.342 78.2179 322.022 80.7448 323.135 82.792C323.812 84.0395 325.124 84.9208 326.559 85.0933C326.731 85.1122 326.935 85.124 327.072 85.1228C327.065 85.4784 327.088 85.8364 327.142 86.1896C327.362 87.6202 327.927 88.4908 328.721 89.1075C316.366 92.3007 317.165 91.977 316.74 92.2475V92.2451ZM224.469 313.054C225.959 312.758 227.138 311.718 227.658 310.381C231.853 309.757 236.464 309.341 240.92 310.016C247.492 310.975 253.364 314.144 260.446 314.19C262.921 317.568 262.992 322.887 259.437 325.109C256.764 326.766 253.126 326.214 250.006 325.584C249.236 325.375 241.703 323.901 236.206 322.326C232.036 321.141 227.88 319.648 223.85 318.202C221.215 317.279 216.999 315.936 214.457 315.01L224.469 313.055V313.054ZM218.382 326.814C217.717 326.233 217.272 325.702 216.97 325.122C216.015 323.377 216.409 320.546 216.886 318.61L218.262 319.067C227.105 322.022 230.253 323.398 236.654 325.157C231.813 331.251 223.395 331.272 218.382 326.815V326.814ZM251.972 347.684C250.714 349.749 248.503 350.877 247.205 350.877C246.581 350.877 246.026 350.408 245.922 349.749C245.818 349.037 246.321 348.377 247.031 348.291C248.072 348.135 249.094 347.406 249.736 346.312C252.458 341.951 249.003 332.826 247.195 327.635C248.162 327.841 249.487 328.131 250.144 328.256C252.167 334.194 255.117 342.39 251.972 347.684ZM272.383 284.262C272.339 284.332 272.34 284.413 272.311 284.488C269.453 285.179 266.519 285.476 263.58 285.328C261.825 285.245 261.755 287.844 263.448 287.928C267.002 288.105 270.517 287.72 273.926 286.782C274.155 286.719 274.335 286.586 274.491 286.429C277.333 287.039 278.546 288.748 278.571 290.164C278.588 291.118 278.05 292.159 277.114 293.028C276.195 293.86 275.034 294.433 273.648 295.128C273.642 295.13 273.638 295.135 273.632 295.139C273.006 294.932 269.997 295.624 264.834 294.79C264.14 294.678 263.458 295.157 263.345 295.869C263.229 296.579 263.712 297.246 264.421 297.361C267.438 297.846 270.452 297.934 273.355 297.67C273.505 297.656 273.64 297.605 273.77 297.546C275.599 298.685 275.052 303.011 269.297 303.18C269.23 303.182 269.175 303.226 269.11 303.239C268.876 302.979 268.544 302.81 268.166 302.807C265.667 302.784 263.192 302.387 260.804 301.627C260.118 301.409 259.39 301.788 259.171 302.474C258.954 303.159 259.332 303.89 260.016 304.109C264.513 305.54 268.334 305.41 268.156 305.41C268.229 305.41 268.293 305.381 268.362 305.369C270.431 308.574 266.059 313.395 255.084 310.938C245.6 308.848 242.154 305.676 227.815 307.727L223.325 282.25C235.214 278.159 242.663 268.917 248.825 267.429C253.355 266.334 256.961 269.65 254.147 273.486C253.092 274.946 251.61 275.95 245.532 280.567C245.497 280.584 245.41 280.671 245.376 280.688C244.723 281.342 244.602 282.042 245.064 282.875C247.335 286.704 252.26 284.764 256.159 283.17C259.903 281.707 267.346 277.843 270.893 278.953C271.899 279.213 273.026 279.994 273.251 281.088C273.442 281.956 273.147 283.014 272.384 284.263L272.383 284.262ZM297.906 255.482C287.706 261.122 277.5 267.449 269.782 276.172C265.271 276.013 259.728 278.958 255.204 280.756C252.699 281.711 249.398 283.24 247.802 282.092C252.986 278.277 255.097 276.599 256.244 275.029C260.419 269.36 255.317 263.203 248.217 264.894C241.655 266.478 234.342 275.032 224.821 278.906C224.098 278.692 223.369 278.501 222.637 278.316L222.267 276.226C221.886 274.04 219.909 272.512 217.707 272.686L217.101 272.738C225.979 245.445 213.677 240.686 204.221 213.992C200.269 202.833 196.836 186.085 203.042 169.685C214.898 138.316 247.628 127.161 279.784 135.478C279.001 135.721 276.136 136.945 275.291 137.318C272.319 138.658 269.298 140.284 267.327 143.078C265.687 145.387 264.972 148.327 265.367 151.154C265.469 151.852 265.64 152.539 265.871 153.204C256.961 152.161 248.203 147.322 241.282 151.983C240.269 152.666 239.321 153.661 239.26 154.882C238.976 160.581 256.986 161.65 266.756 165.054C291.094 173.532 294.796 182 309.566 194.547C310.796 195.593 312.123 196.642 313.706 196.957C315.29 197.273 317.188 196.603 317.736 195.082C318.177 193.857 317.65 192.512 317.08 191.342C314.565 186.308 310.759 183.142 307.112 179.352C317.224 174.918 318.887 174.195 319.596 173.888C320.199 173.624 320.636 173.243 320.93 172.691C321.579 171.296 320.708 169.765 319.544 165.802C319.03 164.063 318.462 162.194 317.767 160.307C317.513 159.614 317.524 158.78 317.745 157.82C323.215 163.887 327.09 170.572 329.237 177.738C338.668 209.16 326.368 239.678 297.906 255.483V255.482ZM279.791 159.655C289.112 156.924 287.992 155.091 289.049 158.007C292.773 167.962 288.098 155.481 292.856 168.168C289.877 165.911 286.861 164.097 279.792 159.655H279.791ZM360.836 127.401C354.617 130.571 355.762 130.068 354.126 130.785C348.941 133.051 348.259 134.701 350.61 139.984C351.386 141.727 355.391 152.965 356.367 155.267C357.918 158.924 357.26 158.265 353.913 159.79C348.188 162.425 342.042 165.201 341.053 165.706C337.003 167.778 337.571 166.615 333.742 158.143C333.663 157.654 333.386 157.171 333.098 156.666C332.629 155.848 331.385 152.326 329.407 150.921C329.013 150.646 328.712 150.466 326.974 150.083C322.372 148.97 318.327 150.019 316.299 154.257C316.232 154.393 316.197 154.515 316.135 154.648C316.06 154.768 316.01 154.891 315.978 155.024C314.932 157.422 314.688 159.462 315.324 161.204C316.188 163.545 318.37 170.749 318.56 171.498C311.832 174.41 301.092 179.23 300.483 179.305C299.693 177.963 298.946 176.434 298.162 174.911C288.441 148.969 291.748 157.682 291.02 155.857C290.343 154.179 288.439 153.467 286.769 154.209C284.606 155.217 282.334 156.109 280.016 156.86C277.808 157.581 275.478 158.161 273.376 157.529C270.896 156.775 268.427 154.127 267.942 150.784C267.639 148.618 268.188 146.358 269.449 144.583C271.689 141.406 276.338 139.623 280.346 138.029C281.506 137.569 284.587 137.251 284.934 135.468H284.938C285.055 134.861 284.813 134.066 284.616 133.519C284.478 133.14 284.563 133.355 282.828 126.955C282.845 126.147 282.479 125.525 282.022 124.013C280.368 117.98 278.832 112.122 278.362 110.653C278.03 109.62 277.399 107.78 277.887 106.822C278.169 106.231 279.228 106.171 283.66 104.893L298.356 100.799C299.558 100.47 300.804 101.104 301.253 102.263C302.779 106.263 305.065 114.702 308.852 117.159C310.909 118.488 314.339 118.719 316.458 118.179C319.822 117.344 322.104 114.955 322.414 111.943C322.646 109.609 322.263 109.097 318.975 94.2782L331.299 91.1335C330.707 94.8465 333.241 97.6498 335.805 97.9829C336.3 98.0467 336.79 98.0089 337.295 97.964C337.37 99.4549 338.189 101.16 339.685 101.797C341.973 109.548 341.822 108.772 342.251 110.894C342.602 112.64 343.003 114.617 343.933 115.812C346.102 118.57 350.028 114.615 355.802 113.724C362.282 112.701 366.645 116.762 366.521 120.901C366.415 124.236 364.195 125.643 360.833 127.402L360.836 127.401Z" fill="black"/>
<path d="M85.3139 218.617C75.5317 217.699 65.4167 216.75 56.405 212.568C50.3881 209.777 43.7848 204.568 40.6496 197.467C42.0349 197.016 43.3518 196.345 44.4987 195.474C50.7303 190.743 48.9757 182.553 43.9465 181.371C38.9256 180.19 35.7703 186.462 36.3555 191.53C36.516 192.908 36.7921 194.241 37.1721 195.524C30.4744 195.993 25.0924 189.599 21.9878 183.455C15.9391 171.489 14.6447 157.251 18.4348 144.389C18.6378 143.699 18.2449 142.976 17.5557 142.772C16.8678 142.567 16.1444 142.962 15.9403 143.652C11.9637 157.144 13.3219 172.079 19.6656 184.631C23.451 192.12 29.8348 199.066 38.0677 198.044C41.413 206.044 48.6901 211.861 55.3099 214.932C64.7287 219.302 75.5352 220.316 85.0708 221.21C85.7623 221.282 86.4184 220.766 86.4856 220.036C86.5529 219.321 86.0278 218.685 85.3127 218.619L85.3139 218.617ZM38.9386 191.228C38.5787 188.116 40.3239 183.193 43.3518 183.904C44.959 184.282 45.9077 186.275 45.8959 187.982C45.8723 191.41 43.0037 194.001 39.7398 195.034C39.3634 193.813 39.0908 192.544 38.9386 191.227V191.228Z" fill="black"/>
<path d="M25.1534 148.099C25.3706 148.237 25.6113 148.302 25.8508 148.302C27.1512 148.302 27.6421 146.597 26.5506 145.903C23.092 143.7 22.0725 136.738 19.5956 136.283C18.6611 136.121 18.7602 136.27 11.2754 140.303C10.6429 140.645 10.4069 141.434 10.748 142.067C11.0902 142.699 11.8784 142.935 12.5097 142.595L19.0304 139.077C20.8689 141.964 21.8258 145.978 25.1534 148.099Z" fill="black"/>
<path d="M130.83 15.03C147.96 4.72157 169.115 0.544342 188.866 3.56268C193.633 4.29156 198.661 5.52134 201.749 9.26857C193.132 12.3637 196.493 21.8322 201.757 21.2521C205.204 20.88 207.853 16.4133 205.811 11.1067C213.391 10.6956 220.928 15.4753 223.736 22.5351C223.939 23.0454 224.428 23.3549 224.945 23.3549C225.861 23.3549 226.493 22.4264 226.153 21.5723C222.713 12.926 213.204 7.48828 204.502 8.61646C201.097 3.59457 195.229 1.90171 189.259 0.99089C168.913 -2.12431 147.129 2.18523 129.491 12.7984C128.875 13.1682 128.675 13.9691 129.046 14.5846C129.416 15.2013 130.216 15.3974 130.83 15.03ZM203.182 11.5427C204.887 15.2993 203.35 18.4618 201.479 18.6638C199.119 18.893 196.879 13.3489 203.182 11.5427Z" fill="black"/>
<path d="M225 28.3285C224.746 29.0019 225.085 29.752 225.756 30.006C227.787 30.7739 229.773 31.7048 231.662 32.7716C232.506 33.2476 233.564 32.6617 233.601 31.6847C233.695 29.12 234.061 26.5565 234.689 24.0674C234.865 23.3704 234.443 22.6628 233.747 22.4868C233.049 22.3119 232.344 22.7337 232.168 23.4295C231.663 25.4307 231.316 27.4768 231.132 29.5347C229.683 28.8011 228.19 28.1419 226.677 27.5701C226.009 27.322 225.255 27.6552 225.001 28.3273L225 28.3285Z" fill="black"/>
<path d="M29.6434 103.396C30.3066 103.966 30.3184 104.472 31.1373 104.779C31.9562 105.086 32.9828 104.989 33.5634 104.334C33.8938 103.96 34.0413 103.462 34.1782 102.982C42.9562 72.2295 43.9616 69.4722 42.9114 69.1639C42.2163 68.9607 41.1886 70.4953 40.7815 71.0919C38.2055 74.8698 37.0302 79.8338 33.3179 91.8327C32.9392 93.0566 32.558 94.2805 32.171 95.5031C31.9751 96.1222 31.778 96.74 31.5798 97.3579C31.522 97.5362 30.9143 99.0873 30.9969 99.1559C28.4516 97.0519 25.9063 94.9479 23.3611 92.8428C22.4666 92.1032 21.2312 91.3306 20.2435 91.939C19.4966 92.3998 19.3502 93.483 19.6854 94.2946C20.1515 95.4264 20.4783 95.5126 29.6434 103.395V103.396Z" fill="black"/>
<path d="M110.77 50.2412C110.19 49.8844 109.202 49.8726 108.279 49.862C103.006 49.8041 97.4928 52.1762 81.3456 56.7728C81.1651 56.8236 79.539 57.1792 79.5284 57.2855C79.8647 53.9979 80.201 50.7102 80.5373 47.4237C80.6553 46.2695 80.6116 44.8105 79.5591 44.325C78.7614 43.9576 77.7808 44.4384 77.2911 45.1673C76.6091 46.1833 76.7188 46.5034 75.2544 58.5106C75.1482 59.3801 74.7352 59.6695 74.9335 60.5224C75.1317 61.3753 75.7831 62.1763 76.6492 62.2956C77.1436 62.3641 77.638 62.2094 78.1136 62.057C108.607 52.2825 112.54 51.3327 110.769 50.2412H110.77Z" fill="black"/>
</svg>
